<svg viewBox="0 0 24 24" xmlns="http://www.w3.org/2000/svg"><path style="fill:#000;stroke-width:.140656" d="M2.49 3.829v3.475h6.095L5.36 10.568v2.46h1.267c.183 0 .367-.003.536.01.914.043 1.59.187 2.026.44.52.295.787.756.787 1.375 0 .317-.064.601-.194.845l.696-.816c.605.66 1.368 1.183 2.254 1.563a7.005 7.005 0 0 0 .913.308 5.47 5.47 0 0 0 .268-1.74c0-.729-.127-1.375-.376-1.94.027.006.052.016.08.023l2.516.576c.774.183 1.323.409 1.66.69.338.268.508.608.508 1.016 0 .506-.24.897-.719 1.193-.478.295-1.153.439-2.025.439-.65 0-1.287-.093-1.9-.257a4.503 4.503 0 0 1-1.376 2.026c-.267.239-.56.436-.884.605 1.238.52 2.615.79 4.12.776 2.04 0 3.625-.452 4.764-1.353 1.14-.9 1.718-2.136 1.718-3.697 0-1.125-.35-2.025-1.039-2.756-.689-.732-1.817-1.252-3.406-1.604l-2.67-.633c-.788-.183-1.349-.383-1.672-.622-.324-.24-.497-.545-.497-.924 0-.479.226-.877.662-1.159.436-.281 1.07-.422 1.929-.422 1.66 0 3.151.567 4.473 1.706l1.98-2.408c-.66-.773-1.548-1.378-2.659-1.814-1.11-.436-2.333-.645-3.697-.645-.797 0-1.527.074-2.191.222V3.83Zm7.293 11.869-.428.496-.006.006c-.421.32-1.025.485-1.837.485-1.04 0-2.051-.326-3.036-.959L2 18.203c1.533 1.322 3.43 1.968 5.695 1.968 1.467 0 2.703-.263 3.692-.793-1.233-.52-2.204-1.234-2.905-2.145l.902-1.062.028-.034a1.52 1.52 0 0 0 .308-.365l.052-.057.011-.017zm3.43-11.63V6.99l-3.578 3.578c1.35.169 2.41.633 3.155 1.392a3.5 3.5 0 0 1 .594.799c.053.097.102.195.148.297-.168-.04-.326-.082-.485-.126-.023-.006-.046-.01-.068-.017-.05-.014-.095-.031-.143-.046a11.076 11.076 0 0 1-.862-.296 7.851 7.851 0 0 1-.393-.172l-.086-.04a6.53 6.53 0 0 1-.33-.17l-.04-.024c-.007-.003-.012-.008-.018-.01a4.707 4.707 0 0 1-.976-.72 4.032 4.032 0 0 1-.262-.28c-.572-.68-.85-1.497-.85-2.459 0-1.088.32-2.031.97-2.807.053-.064.113-.122.17-.183.002 0 0-.005 0-.006.059-.06.121-.118.183-.176a4.837 4.837 0 0 1 .406-.349c.675-.534 1.494-.896 2.465-1.107z"/></svg>