<?xml version="1.0" encoding="UTF-8" standalone="no"?>
<svg
   version="1.1"
   viewBox="0 0 24 24"
   id="svg4"
   sodipodi:docname="acast.svg"
   inkscape:version="1.1 (1:1.1+202106032006+af4d65493e)"
   xmlns:inkscape="http://www.inkscape.org/namespaces/inkscape"
   xmlns:sodipodi="http://sodipodi.sourceforge.net/DTD/sodipodi-0.dtd"
   xmlns="http://www.w3.org/2000/svg"
   xmlns:svg="http://www.w3.org/2000/svg">
  <defs
     id="defs8"><linearGradient
   id="paint0_linear"
   x1="6.25"
   y1="36"
   x2="38.25"
   y2="36"
   gradientUnits="userSpaceOnUse"
   gradientTransform="matrix(0.57142857,0,0,0.57142857,-57.772066,-4.107422)">
  <stop
     stop-color="#F8B700"
     id="stop1048" />
  <stop
     offset=".51"
     stop-color="#F87900"
     id="stop1050" />
  <stop
     offset="1"
     stop-color="#AE35DD"
     id="stop1052" />
</linearGradient>
<linearGradient
   id="paint1_linear"
   x1="4.001"
   y1="45.05"
   x2="22.215"
   y2="45.05"
   gradientUnits="userSpaceOnUse"
   gradientTransform="matrix(0.57142857,0,0,0.57142857,-57.772066,-4.107422)">
  <stop
     stop-color="#FE4F45"
     id="stop1055" />
  <stop
     offset=".52"
     stop-color="#F87900"
     id="stop1057" />
  <stop
     offset="1"
     stop-color="#F8B700"
     id="stop1059" />
</linearGradient>
<linearGradient
   id="paint2_linear"
   x1="4"
   y1="28"
   x2="52"
   y2="28"
   gradientUnits="userSpaceOnUse"
   gradientTransform="matrix(0.57142857,0,0,0.57142857,-57.772066,-4.107422)">
  <stop
     stop-color="#FE4F45"
     id="stop1062" />
  <stop
     offset=".52"
     stop-color="#F87900"
     id="stop1064" />
  <stop
     offset="1"
     stop-color="#F8B700"
     id="stop1066" />
</linearGradient>

	
	
	

	
</defs>
  <sodipodi:namedview
     id="namedview6"
     pagecolor="#ffffff"
     bordercolor="#666666"
     borderopacity="1.0"
     inkscape:pageshadow="2"
     inkscape:pageopacity="0.0"
     inkscape:pagecheckerboard="0"
     showgrid="false"
     inkscape:zoom="14.979167"
     inkscape:cx="12.751043"
     inkscape:cy="12.984701"
     inkscape:window-width="1920"
     inkscape:window-height="1016"
     inkscape:window-x="1920"
     inkscape:window-y="27"
     inkscape:window-maximized="1"
     inkscape:current-layer="svg4" />
  <style
     type="text/css"
     id="style3124">
	.st0{fill:#FFFFFF;}
	.st1{fill:#8DC742;}
</style>
  <g
     style="fill:#000000"
     id="g3434"
     transform="matrix(0.06846422,0,0,0.06846422,1.6919109,2.4184324)">
    <path
       fill="#0b0b21"
       d="M 296.3,239.3 C 275,243 263.1,233.7 253.4,208.2 250,199.3 179.4,5.8 179.4,5.8 137.8,7.4 122.6,12.9 107.2,54 83.7,117 50.3,205.8 50.3,205.8 38.8,236.1 28.5,246.6 10.1,250.7 l -5.6,1.2 v 22.2 H 106 v -22.8 l -7.9,-1.5 C 80.8,246.5 76.8,242 76.8,233.5 c 0,-6.3 3.5,-15.8 7.8,-27.7 l 3.3,-9.2 h 57.8 c 18.3,0 23.4,-13.2 24.7,-18.3 l 9.7,26.8 c 10,27.4 25.8,68.9 74,68.9 32.9,0.1 44.7,-21.7 42.2,-34.7 z m -194,-82 30.3,-83.3 30.2,83.3 z"
       id="path3425"
       style="fill:#000000" />
  </g>
</svg>
