<svg viewBox="0 0 24 24" xmlns="http://www.w3.org/2000/svg"><path fill="#0b0b21" d="M296.3 239.3c-21.3 3.7-33.2-5.6-42.9-31.1-3.4-8.9-74-202.4-74-202.4-41.6 1.6-56.8 7.1-72.2 48.2-23.5 63-56.9 151.8-56.9 151.8-11.5 30.3-21.8 40.8-40.2 44.9l-5.6 1.2v22.2H106v-22.8l-7.9-1.5c-17.3-3.3-21.3-7.8-21.3-16.3 0-6.3 3.5-15.8 7.8-27.7l3.3-9.2h57.8c18.3 0 23.4-13.2 24.7-18.3l9.7 26.8c10 27.4 25.8 68.9 74 68.9 32.9.1 44.7-21.7 42.2-34.7zm-194-82L132.6 74l30.2 83.3z" style="fill:#000" transform="translate(1.692 2.418) scale(.06846)"/></svg>