<?xml version="1.0" encoding="UTF-8"?>
<svg version="1.1" viewBox="0 0 24 24" xml:space="preserve" xmlns="http://www.w3.org/2000/svg"><path d="m17.938 16.092c-7.14e-4 1.2071-0.37541 2.385-1.0735 3.3752-0.69805 0.99024-1.6862 1.7451-2.8312 2.1633-0.66266 0.2412-1.3628 0.36613-2.0691 0.36923-1.4004-0.0022-2.7554-0.49093-3.8284-1.3807-1.0731-0.88978-1.796-2.1241-2.0425-3.4874-0.24643-1.3633-7.214e-4 -2.7688 0.6942-3.9711 0.69489-1.2023 1.7948-2.1251 3.1076-2.607 0.19661-0.07793 0.40723-0.11531 0.61895-0.10995 0.21172 0.0058 0.42008 0.0536 0.61235 0.14142 0.19228 0.08789 0.36435 0.21365 0.5057 0.36957 0.14142 0.15593 0.24911 0.33878 0.31645 0.53738 0.08136 0.19523 0.12115 0.40496 0.11696 0.61607-0.0042 0.21117-0.05222 0.41919-0.14135 0.61112-0.08906 0.19193-0.21708 0.36366-0.37617 0.5046-0.15909 0.14088-0.34573 0.24787-0.54838 0.31432-0.68898 0.25302-1.2482 0.76629-1.5546 1.427-0.30635 0.66067-0.33473 1.4147-0.07896 2.0961 0.25584 0.68142 0.77488 1.2344 1.443 1.5373 0.66816 0.30291 1.4305 0.33102 2.1196 0.07806 0.53257-0.19097 0.99224-0.54068 1.3154-1.0009 0.32318-0.46014 0.49416-1.0081 0.48921-1.5684v-8.4304c0-0.66919-0.26883-1.311-0.74725-1.784-0.47849-0.4732-1.1274-0.73901-1.8041-0.73901-0.67661 0-1.3255 0.26581-1.8039 0.73901-0.47849 0.47313-0.74725 1.1149-0.74725 1.784 0 0.40799-0.16389 0.79934-0.45568 1.0878-0.29171 0.28848-0.6874 0.45059-1.1001 0.45059-0.41259 0-0.80827-0.16211-1.1001-0.45059-0.29172-0.28855-0.45568-0.67984-0.45568-1.0878 0-1.5056 0.6048-2.9496 1.6813-4.0142 1.0766-1.0646 2.5366-1.6628 4.0591-1.6628 1.5225 0 2.9825 0.59813 4.0591 1.6628 1.0766 1.0646 1.6813 2.5087 1.6813 4.0142z"/></svg>
