<?xml version="1.0" encoding="UTF-8"?>
<svg version="1.1" viewBox="0 0 24 24" xml:space="preserve" xmlns="http://www.w3.org/2000/svg"><path d="m3.9669 4.0491a1.9672 1.9672 0 0 0-1.9669 1.9678 1.9672 1.9672 0 0 0 1.9669 1.9669 1.9672 1.9672 0 0 0 0.97568-0.26384l0.81902 0.81902c-1.6003 1.6206-2.7443 3.8385-3.1909 6.3359-0.24768 1.3851 0.49345 2.7296 1.7434 3.3246 2.3592 1.1231 4.9992 1.7516 7.7843 1.7516 2.7565 0 5.3704-0.61625 7.7111-1.7177 1.2543-0.59021 2.0011-1.9334 1.7571-3.321-0.44632-2.5379-1.6121-4.7903-3.2458-6.423l0.75856-0.75855a1.9672 1.9672 0 0 0 0.95369 0.25285 1.9672 1.9672 0 0 0 1.9669-1.9669 1.9672 1.9672 0 0 0-1.9669-1.9678 1.9672 1.9672 0 0 0-1.9678 1.9678 1.9672 1.9672 0 0 0 0.29866 1.038l-0.77138 0.77138c-1.56-1.2813-3.4597-2.0393-5.527-2.0393-2.0912 0-4.0109 0.77591-5.5811 2.0842l-0.83642-0.83642a1.9672 1.9672 0 0 0 0.28675-1.0178 1.9672 1.9672 0 0 0-1.9678-1.9678zm8.0986 2.7218c4.1356 0 7.6867 3.5005 8.5328 8.312 0.16328 0.92845-0.33398 1.8499-1.2075 2.261-2.2124 1.0411-4.6837 1.6234-7.2924 1.6234-2.6358 0-5.1312-0.59479-7.3611-1.6564-0.87057-0.41441-1.364-1.3361-1.1983-2.2628 0.85722-4.7939 4.4007-8.2772 8.5264-8.2772zm0 2.9829c-3.1398 0-5.8005 1.9487-6.7125 4.6402-0.29569 0.87277 0.21109 1.7806 1.0645 2.1282 1.7431 0.70992 3.6498 1.1012 5.6479 1.1012 1.9982 0 3.9049-0.39127 5.6479-1.1012 0.85345-0.34762 1.3603-1.2554 1.0645-2.1282-0.91199-2.6915-3.5727-4.6402-6.7125-4.6402zm2.2619 2.8858a1.6393 1.3115 0 0 1 1.6399 1.311 1.6393 1.3115 0 0 1-1.6399 1.3119 1.6393 1.3115 0 0 1-1.639-1.3119 1.6393 1.3115 0 0 1 1.639-1.311zm-4.6924 9.16e-4a1.6393 1.3115 0 0 1 1.639 1.3119 1.6393 1.3115 0 0 1-1.639 1.311 1.6393 1.3115 0 0 1-1.6399-1.311 1.6393 1.3115 0 0 1 1.6399-1.3119z"/></svg>
