<svg version="1.1" viewBox="0 0 24 24" xmlns="http://www.w3.org/2000/svg" xmlns:xlink="http://www.w3.org/1999/xlink">
 <defs>
  <rect id="SVGID_1_" x="9.4" y="5.8" width="82.5" height="82.5"/>
  <clipPath id="SVGID_2_">
   <use width="100%" height="100%" xlink:href="#SVGID_1_"/>
  </clipPath>
  <style>.cls-1{fill:#5000b9;}</style>
 </defs>
 <style type="text/css">.st0{clip-path:url(#SVGID_2_);fill:#DB4615;}
	.st1{clip-path:url(#SVGID_2_);fill:#FFFFFF;}</style>
 <path d="m21.344 8.8113s-.8387-.40258-1.7083-.13419c-.65083.19189-1.3647.68438-1.77 1.7083-.78234 1.9646-.10467 5.3905-.37037 5.3905-.2657 0-1.099-3.1562-2.2142-6.4412-1.1151-3.285-2.0813-6.7029-3.8231-6.4278-1.5459.24289-1.0655 4.1371-.46162 7.7831.54885 3.3052 1.1822 6.3996.81991 6.3996-.64681 0-2.7711-9.1358-4.949-8.7896-2.1779.34622.62802 10.415.038915 10.435-.47772.0067-1.672-6.1393-3.43-5.8575-1.3419.21471-.14627 4.9933-.091251 6.3272.013419.33414.11675.96082-.38379.96082h-1.0011v.92995h1.6318c.33548-.01593.59984-.14358.73403-.47369.45357-1.1151-.73672-5.8548-.4576-5.8884.19055-.02432.60386 1.4184 1.1795 3.0502.57568 1.6318 1.1527 3.3213 2.2464 3.3213 2.3578 0-.046967-9.2458.42002-9.2458.24692 0 .9219 1.8787 1.6626 3.9399.90714 2.5174 2.0129 5.31 3.3481 5.31 1.5929 0 1.0735-3.6071.58105-7.0625-.42673-2.9911-.92727-5.8025-.66022-5.8025.60118 0 2.8717 12.861 5.5998 12.861 1.3661 0 1.3822-2.6838 1.3822-5.5878 0-2.0357-.17042-3.8916 1.1084-4.3371.60789-.21202 1.2238.16371 1.2238.16371z" color="#000000" stroke-width=".13419" style="-inkscape-stroke:none"/>
</svg>
