<svg version="1.1" viewBox="0 0 24 24" xmlns="http://www.w3.org/2000/svg">
 <path d="m12 2c-5.5228 0-10 4.4772-10 10 6.8e-4 1.504 0.34239 2.9743 0.9808 4.3092 0.23117 0.44853 0.53399 0.50514 0.78191 0.52476 0.46804 0 0.84746-0.37942 0.84746-0.84746v-5.478c0-0.65525 0.53119-1.1864 1.1864-1.1864s1.1864 0.53119 1.1864 1.1864v5.9831c0 0.43996 0.35666 0.79661 0.79661 0.79661 0.43996 0 0.79661-0.35666 0.79661-0.79661v-1.2373c0-0.65525 0.53119-1.1864 1.1864-1.1864s1.1864 0.53119 1.1864 1.1864v0.15254c0 0.43996 0.35666 0.79661 0.79661 0.79661 0.43996 0 0.79661-0.35665 0.79661-0.79661v-3.4068c0-0.65525 0.53119-1.1864 1.1864-1.1864 0.65526 0 1.1864 0.53119 1.1864 1.1864v3.9492c0 0.43996 0.35666 0.79661 0.79661 0.79661 0.43996 0 0.79661-0.35666 0.79661-0.79661v-0.69492c0-0.65525 0.53119-1.1864 1.1864-1.1864 0.65525 0 1.1864 0.53119 1.1864 1.1864v1.7701c0.01 0.52471 0.42014 0.81118 0.79475 0.82256 0.36108 0.01575 0.52331-0.20522 0.72829-0.4755 1.0329-1.6018 1.5865-3.4655 1.5956-5.3714 0-5.5228-4.4772-10-10-10zm5.6949 8.8136c0.65525 0 1.1864 0.53119 1.1864 1.1864s-0.53119 1.1864-1.1864 1.1864c-0.65526 0-1.1864-0.53119-1.1864-1.1864s0.53119-1.1864 1.1864-1.1864z"/>
</svg>
