<?xml version="1.0" encoding="UTF-8"?>
<svg version="1.1" viewBox="0 0 24 24" xml:space="preserve" xmlns="http://www.w3.org/2000/svg"><path d="m12 22c-5.5228 0-10-4.4772-10-10s4.4772-10 10-10 10 4.4772 10 10-4.4772 10-10 10zm-3.8126-17.322c-0.5175 0-0.937 0.4195-0.937 0.937v5c0 0.5175 0.4195 0.9371 0.937 0.9371s0.937-0.4196 0.937-0.9371v-5c0-0.5175-0.4195-0.937-0.937-0.937zm0 7.7618c-0.5175 0-0.937 0.4195-0.937 0.937v5c0 0.5175 0.4195 0.937 0.937 0.937s0.937-0.4195 0.937-0.937v-5c0-0.5175-0.4195-0.937-0.937-0.937zm3.4598-5.7132c-0.5175 0-0.937 0.4195-0.937 0.937v8.657c0 0.5175 0.4195 0.9371 0.937 0.9371s0.937-0.4196 0.937-0.9371v-8.657c0-0.5175-0.4195-0.937-0.937-0.937zm3.4598 5.7132c-0.5175 0-0.937 0.4195-0.937 0.937v0.8801c0 0.5175 0.4195 0.937 0.937 0.937s0.937-0.4195 0.937-0.937v-0.8801c0-0.5175-0.4195-0.937-0.937-0.937zm0-3.6419c-0.5175 0-0.937 0.4195-0.937 0.937v0.8801c0 0.5175 0.4195 0.9371 0.937 0.9371s0.937-0.4196 0.937-0.9371v-0.8801c0-0.5175-0.4195-0.937-0.937-0.937zm3.4598 2.0182c-0.5175 0-0.9371 0.4195-0.9371 0.937v0.478c0 0.5175 0.4196 0.937 0.9371 0.937s0.937-0.4195 0.937-0.937v-0.478c0-0.5175-0.4195-0.937-0.937-0.937z"/></svg>
