<?xml version="1.0" encoding="UTF-8"?>
<svg version="1.1" viewBox="0 0 24 24" xml:space="preserve" xmlns="http://www.w3.org/2000/svg"><path class="cls-7" d="m7.8141 5.1106c-3.2143 0-5.8289 3.0907-5.8289 6.8894s2.6146 6.8893 5.8289 6.8893h8.2022c3.2353 0 5.9689-3.1548 5.9689-6.8893s-2.7336-6.8894-5.9689-6.8894zm0 0.50494h8.2022c2.9628 0 5.464 2.9238 5.464 6.3845s-2.5021 6.384-5.464 6.384h-8.2022c-2.9359 0-5.324-2.8638-5.324-6.384s2.3881-6.3845 5.324-6.3845zm5.8105 0.90474c-2.6045 0.0474-4.8678 2.0297-5.2415 4.7489-0.4123 3.0005 1.6309 5.7583 4.5649 6.1618 0.3432 0.0472 0.6831 0.0587 1.0169 0.0399-0.1438-8e-3 -0.2882-0.0199-0.4335-0.0399-2.9335-0.40354-4.9776-3.1614-4.5648-6.1618 0.3645-2.6494 2.5221-4.5979 5.0416-4.7401-0.1285-7e-3 -0.2566-0.0111-0.3836-9e-3zm1.3608 0c-2.6044 0.0474-4.8678 2.0297-5.2415 4.7489-0.4124 3.0005 1.6308 5.7583 4.5648 6.1618 2.934 0.40353 5.6467-1.7011 6.0591-4.7007 0.4128-3-1.6314-5.7578-4.5649-6.1613-0.275-0.0378-0.548-0.0537-0.8175-0.0488z"/></svg>
