<svg viewBox="0 0 24 24" xmlns="http://www.w3.org/2000/svg"><path d="M11.652 11.472h.316l.116-.373.364-.106-.15.479h.397l-.076.245h-.398l-.334 1.068a.958.958 0 0 0-.02.074.139.139 0 0 0 .002.078.115.115 0 0 0 .053.06c.026.017.07.025.129.025a.861.861 0 0 0 .165-.017l-.081.259c-.033.004-.072.01-.12.014s-.102.007-.164.007c-.153 0-.259-.027-.315-.08-.057-.053-.062-.153-.016-.3l.372-1.188h-.316zm1.981 1.788c.002-.045.007-.089.016-.131s.02-.088.035-.135c-.063.073-.126.131-.187.174s-.121.075-.178.097a.679.679 0 0 1-.286.052.706.706 0 0 1-.257-.04.383.383 0 0 1-.162-.113c-.038-.047-.06-.102-.068-.166s0-.133.023-.206a.832.832 0 0 1 .277-.396.948.948 0 0 1 .374-.188 1.805 1.805 0 0 1 .479-.055 3.096 3.096 0 0 1 .238.011l.043-.144a1.38 1.38 0 0 0 .026-.106c.006-.03.009-.056.008-.08s-.007-.045-.017-.064c-.02-.045-.058-.076-.115-.092s-.11-.025-.157-.025c-.085 0-.156.012-.21.037s-.1.054-.134.087-.06.067-.076.101a.59.59 0 0 0-.033.076h-.334c.02-.047.045-.1.076-.157a.675.675 0 0 1 .304-.273 1.034 1.034 0 0 1 .331-.09 1.098 1.098 0 0 1 .342.007c.062.012.117.028.168.049s.092.048.127.081a.225.225 0 0 1 .066.118.392.392 0 0 1 .005.147 1.032 1.032 0 0 1-.03.126l-.28.851-.017.057-.03.11a3.435 3.435 0 0 0-.065.28h-.302zm.232-.866a.76.76 0 0 0-.086-.009 2.429 2.429 0 0 0-.26.004c-.072.003-.148.016-.227.039s-.154.058-.224.108a.392.392 0 0 0-.16.305c-.001.036.007.07.024.101s.046.059.087.08.099.032.175.032c.17 0 .316-.064.44-.192a.642.642 0 0 0 .125-.184c.015-.036.032-.076.048-.122l.058-.162zm1.437-1.714h.33l-.478 1.526.895-.727h.436l-.988.756.477 1.025h-.436l-.412-.961-.301.96h-.33zm1.524 1.75c-.03.092-.05.177-.055.255s.004.146.027.204c.023.058.062.103.117.135s.129.048.221.048c.109 0 .212-.03.308-.089s.172-.152.226-.28h.334c-.019.045-.047.101-.085.168s-.099.136-.184.205a.871.871 0 0 1-.251.152 1.138 1.138 0 0 1-.194.06 1.097 1.097 0 0 1-.243.025c-.282 0-.464-.081-.548-.245s-.082-.385.006-.667c.055-.175.129-.334.22-.477a1.102 1.102 0 0 1 .824-.488l.097-.003c.132 0 .238.017.318.053a.395.395 0 0 1 .248.335c.008.072.007.146-.003.22s-.026.146-.048.215l-.054.174h-1.28zm1.014-.234c.013-.043.026-.094.038-.155s.01-.117-.001-.172a.254.254 0 0 0-.09-.14c-.047-.039-.12-.059-.223-.059a.641.641 0 0 0-.357.116.779.779 0 0 0-.293.41h.926zm.854.535c-.01.034-.017.07-.02.107s.007.073.027.105.051.058.095.08a.442.442 0 0 0 .187.031c.069 0 .131-.007.188-.023s.11-.045.16-.09a.384.384 0 0 0 .109-.167.209.209 0 0 0 .01-.106.11.11 0 0 0-.05-.07c-.026-.017-.062-.033-.107-.047s-.099-.029-.16-.043c-.086-.021-.167-.044-.244-.067s-.14-.055-.189-.093a.281.281 0 0 1-.102-.145.39.39 0 0 1 .017-.227c.025-.08.065-.155.12-.222s.12-.124.195-.17.16-.083.253-.109a1.096 1.096 0 0 1 .642.022c.053.02.098.05.137.085s.062.079.072.131c.008.05.008.096-.002.138s-.02.083-.033.121h-.34c.023-.066.029-.119.017-.158a.155.155 0 0 0-.062-.089.238.238 0 0 0-.104-.037.887.887 0 0 0-.182-.003.503.503 0 0 0-.268.104.291.291 0 0 0-.096.148.164.164 0 0 0-.005.1c.01.028.024.05.045.066s.044.03.07.038l.07.023c.115.028.208.052.281.072.073.02.132.04.178.057.045.018.08.036.105.053a.275.275 0 0 1 .12.22.518.518 0 0 1-.022.172.813.813 0 0 1-.382.45.997.997 0 0 1-.284.097c-.097.016-.19.024-.283.024a.998.998 0 0 1-.251-.03.457.457 0 0 1-.193-.097.308.308 0 0 1-.098-.18.562.562 0 0 1 .028-.27h.35zM3.21 13.26a.885.885 0 0 1-.032-.266.577.577 0 0 1-.424.314 1.007 1.007 0 0 1-.126.009.817.817 0 0 1-.27-.04.58.58 0 0 1-.197-.113.463.463 0 0 1-.12-.166.524.524 0 0 1-.041-.206c0-.036.004-.076.012-.12a.6.6 0 0 1 .3-.4c.047-.028.1-.048.156-.064s.114-.027.17-.035a1.669 1.669 0 0 1 .291-.02 3.139 3.139 0 0 1 .242.01l-.002-.143a1.162 1.162 0 0 0-.007-.106c-.004-.03-.01-.056-.018-.08s-.021-.045-.037-.064c-.033-.045-.081-.076-.144-.092s-.118-.025-.165-.025c-.085 0-.151.012-.199.037s-.082.054-.106.087-.038.067-.044.1a.507.507 0 0 0-.01.077h-.333c.005-.047.014-.1.027-.157a.428.428 0 0 1 .218-.274.756.756 0 0 1 .148-.058.983.983 0 0 1 .156-.03 1.189 1.189 0 0 1 .527.055c.056.02.107.048.152.081s.08.072.103.117a.464.464 0 0 1 .051.148.953.953 0 0 1 .01.126l-.015.851.002.057c.002.03.002.067.003.11.002.042.004.088.008.138.003.05.008.097.016.142zm-.04-.866a.834.834 0 0 0-.088-.009 2.467 2.467 0 0 0-.259.004.87.87 0 0 0-.215.039.498.498 0 0 0-.19.108.27.27 0 0 0-.081.21.32.32 0 0 0 .073.196c.027.032.064.059.111.08s.11.032.185.032c.17 0 .297-.064.38-.192a.42.42 0 0 0 .067-.184c.005-.036.008-.076.01-.122l.008-.162zm1.232-.914v1.145c0 .043.003.087.01.135a.283.283 0 0 0 .167.221.613.613 0 0 0 .438-.009.4.4 0 0 0 .183-.152.361.361 0 0 0 .066-.174c.006-.061.009-.115.009-.16V11.48h.344v1.448c0 .01 0 .027.002.053l.003.088.004.103.002.089h-.348l-.007-.305c-.017.03-.037.065-.062.103s-.059.072-.101.104c-.043.032-.097.06-.163.082s-.147.034-.242.034a.831.831 0 0 1-.287-.045.5.5 0 0 1-.32-.316.732.732 0 0 1-.038-.243V11.48zm3.097-.778h.334v2.274l.001.048.004.075a5.921 5.921 0 0 0 .009.161h-.334l-.007-.284c-.014.026-.032.056-.055.089s-.057.066-.105.1a.691.691 0 0 1-.228.102.917.917 0 0 1-.212.029c-.059 0-.132-.011-.22-.032s-.171-.064-.251-.128-.15-.155-.208-.273a1.08 1.08 0 0 1-.087-.472c0-.17.023-.317.068-.438a.876.876 0 0 1 .179-.302.674.674 0 0 1 .257-.175.84.84 0 0 1 .543-.02c.066.025.12.054.163.087s.075.066.098.1l.051.077v-1.018zm.01 1.643a.997.997 0 0 0-.038-.31.613.613 0 0 0-.096-.187.477.477 0 0 0-.39-.181.406.406 0 0 0-.344.158.569.569 0 0 0-.084.153.919.919 0 0 0-.06.308 1.527 1.527 0 0 0 .018.333c.012.082.037.155.072.22s.086.119.15.16.146.062.248.062c.13 0 .23-.03.303-.092a.538.538 0 0 0 .156-.215c.032-.081.051-.161.057-.24s.009-.134.009-.17zm.891-1.639h.4v.365h-.4zm.036.773h.333v1.781h-.333zm.851.911c0-.108.014-.22.043-.333a.794.794 0 0 1 .426-.536.955.955 0 0 1 .436-.088c.177 0 .323.031.436.094a.785.785 0 0 1 .401.537 1.238 1.238 0 0 1-.019.671.795.795 0 0 1-.449.51.964.964 0 0 1-.397.075c-.147 0-.275-.024-.385-.073s-.202-.114-.275-.197-.128-.18-.163-.294a1.2 1.2 0 0 1-.054-.365zm.348-.02c0 .092.01.18.03.264.02.084.052.158.096.223s.099.117.166.156a.524.524 0 0 0 .435.021c.064-.024.121-.064.172-.12s.093-.129.126-.22.05-.204.05-.339c0-.222-.048-.39-.142-.505s-.22-.172-.376-.172a.597.597 0 0 0-.178.03c-.064.02-.124.055-.18.106s-.105.122-.143.211-.056.205-.056.344zm10.274.781h.139v.15h-.14zm.361-.406-.002-.073h.118l.001.102.017-.029a.135.135 0 0 1 .036-.037.223.223 0 0 1 .15-.048c.013 0 .033.002.059.006s.05.014.076.028a.198.198 0 0 1 .065.065.21.21 0 0 1 .027.115v.428h-.12v-.4c0-.021-.002-.04-.006-.059s-.013-.035-.028-.049a.146.146 0 0 0-.052-.032.177.177 0 0 0-.121.001c-.02.007-.037.02-.052.035s-.028.036-.037.06a.223.223 0 0 0-.013.082v.362h-.118v-.557zm.833.263a.32.32 0 0 0 .009.09c.006.028.017.052.031.073s.034.036.057.047.05.017.083.017a.16.16 0 0 0 .099-.031c.028-.02.044-.054.049-.099h.118a.448.448 0 0 1-.012.06.166.166 0 0 1-.042.072l-.028.026a.184.184 0 0 1-.044.027.348.348 0 0 1-.145.03c-.1 0-.173-.029-.22-.086a.358.358 0 0 1-.072-.236.52.52 0 0 1 .025-.168.253.253 0 0 1 .194-.167.301.301 0 0 1 .077-.007c.046 0 .086.006.118.019s.058.029.079.05c.02.02.035.043.046.068a.361.361 0 0 1 .03.154v.061h-.452zm.332-.082a.451.451 0 0 0-.004-.055.166.166 0 0 0-.02-.06.139.139 0 0 0-.046-.05.153.153 0 0 0-.086-.02.202.202 0 0 0-.058.008.148.148 0 0 0-.055.032.176.176 0 0 0-.04.057.22.22 0 0 0-.018.088zm.197-.256h.111v-.131l.117-.038v.169H22v.087h-.14v.403c.002.01.005.02.01.028.006.008.014.015.025.02s.027.01.048.01A.245.245 0 0 0 22 13.21v.092a.641.641 0 0 1-.098.007c-.054 0-.094-.009-.12-.028-.026-.019-.04-.054-.04-.106v-.42h-.11v-.086z"/></svg>