<svg viewBox="0 0 24 24" xmlns="http://www.w3.org/2000/svg"><path d="M12 2A10 10 0 0 0 2 12a10 10 0 0 0 10 10 10 10 0 0 0 10-10A10 10 0 0 0 12 2zm0 1.7a8.3 8.3 0 0 1 8.3 8.3 8.3 8.3 0 0 1-8.3 8.3A8.3 8.3 0 0 1 3.7 12 8.3 8.3 0 0 1 12 3.7z"/><path d="M12 4.15A7.85 7.85 0 0 0 4.15 12 7.85 7.85 0 0 0 12 19.85 7.85 7.85 0 0 0 19.85 12 7.85 7.85 0 0 0 12 4.15zm0 1.6A6.25 6.25 0 0 1 18.25 12 6.25 6.25 0 0 1 12 18.25 6.25 6.25 0 0 1 5.75 12 6.25 6.25 0 0 1 12 5.75z"/><circle cx="12" cy="12" r="5.8"/></svg>