<svg version="1.1" viewBox="0 0 24 24" xmlns="http://www.w3.org/2000/svg">
 <style type="text/css">.st0{fill:#FFFFFF;}
	.st1{fill:#8DC742;}</style>
 <path d="m12.179 21.829c.45019-.58579 3.4803-4.8951 3.5943-5.1118.62494-1.1871-.82889-2.5976-2.0347-1.974-.24395.12615-1.1256 1.2611-2.6417 3.4009-1.2516 1.7664-2.3404 3.214-2.4196 3.2169-.28319.01049-1.2945-.49075-1.2513-.62021.0242-.07261 1.5862-2.2898 3.4712-4.9271 2.379-3.3286 3.4482-4.9245 3.4959-5.2184.22481-1.3854-1.5737-2.2566-2.5515-1.236-.1836.19163-1.7928 2.4026-3.5761 4.9132-1.7833 2.5106-3.2784 4.606-3.3225 4.6565-.04414.05046-.28952-.15861-.5453-.4646l-.46504-.55634 1.2842-1.8178c1.4958-2.1172 1.569-2.2435 1.5684-2.7041-.00092-.70057-.7853-1.5194-1.4555-1.5194-.66814 0-1.0261.28279-1.8906 1.4938-.4791.67104-.915 1.2472-.96868 1.2804-.14766.09126-.37978-.97112-.45624-2.0881-.0815-1.1906.18366-2.8821.64315-4.1028 1.5164-4.0286 5.6538-6.6927 9.9631-6.4154 1.4493.093261 2.6872.44618 4.0919 1.1666.92011.47186 1.3318.78874 2.3543 1.8121 1.0608 1.0616 1.3231 1.4089 1.822 2.4122.78317 1.575 1.0923 2.8116 1.1103 4.4414.02301 2.0875-.60805 4.1774-1.7724 5.8697-1.009 1.4665-2.8944 2.9333-4.575 3.5591-1.5066.56106-3.7599.90719-3.4727.53342z" stroke-width=".12337"/>
</svg>
