<svg viewBox="0 0 24 24" xmlns="http://www.w3.org/2000/svg"><path d="M12.179 21.829c.45-.586 3.48-4.895 3.594-5.112.625-1.187-.829-2.597-2.034-1.974-.244.126-1.126 1.261-2.642 3.401-1.252 1.767-2.34 3.214-2.42 3.217-.283.01-1.294-.49-1.251-.62.024-.073 1.586-2.29 3.471-4.927 2.38-3.329 3.448-4.925 3.496-5.219.225-1.385-1.574-2.256-2.551-1.236-.184.192-1.793 2.403-3.577 4.913a701.2 701.2 0 0 1-3.322 4.657c-.044.05-.29-.159-.545-.465l-.465-.556 1.284-1.818c1.496-2.117 1.569-2.243 1.568-2.704 0-.7-.785-1.52-1.455-1.52-.668 0-1.026.284-1.89 1.495-.48.67-.916 1.247-.97 1.28-.147.091-.38-.971-.456-2.088-.081-1.19.184-2.882.643-4.103 1.517-4.029 5.654-6.693 9.963-6.415 1.45.093 2.688.446 4.092 1.166.92.472 1.332.789 2.355 1.812 1.06 1.062 1.323 1.41 1.822 2.413.783 1.575 1.092 2.811 1.11 4.441a10.252 10.252 0 0 1-1.772 5.87c-1.01 1.466-2.895 2.933-4.575 3.559-1.507.56-3.76.907-3.473.533z"/></svg>