<svg viewBox="0 0 24 24" xmlns="http://www.w3.org/2000/svg"><path d="M12 2.018c-.11 0-2.26 1.77-2.26 1.77s-2.27-1.65-2.33-1.59c-.06.06.74 2.65.74 2.65a8.83 8.83 0 0 0-5.62 8.129 9.26 9.26 0 0 0 9.47 9c5.117.174 9.384-3.88 9.47-9a8.879 8.879 0 0 0-5.63-8.149s.92-2.09.87-2.13c-.05-.04-2.1 1.25-2.1 1.25s-2.5-1.93-2.61-1.93zm3.5 3.82a7.809 7.809 0 0 1 4.86 7.11h-1.45A6.47 6.47 0 0 0 15 7.097l.5-1.26zm-.94 2.299a5.39 5.39 0 0 1 3.19 4.81h-.98a4.448 4.448 0 0 0-2.559-3.93l.35-.88z" style="-inkscape-stroke:none"/></svg>