<?xml version="1.0" encoding="UTF-8"?>
<svg version="1.1" viewBox="0 0 24 24" xmlns="http://www.w3.org/2000/svg">
 <path d="m12 2.0176c-0.11 0-2.2598 1.7695-2.2598 1.7695s-2.2701-1.6498-2.3301-1.5898c-0.06 0.06 0.74023 2.6504 0.74023 2.6504-3.3566 1.3096-5.5819 4.5261-5.6211 8.1289 0.14176 5.095 4.3751 9.1176 9.4707 9 5.1173 0.17401 9.3842-3.8805 9.4707-9-0.0464-3.6082-2.2726-6.828-5.6309-8.1484 0 0 0.92109-2.0909 0.87109-2.1309-0.050001-0.04-2.1016 1.25-2.1016 1.25s-2.4994-1.9297-2.6094-1.9297zm3.5 3.8203c2.8984 1.1819 4.8106 3.9796 4.8594 7.1094h-1.4492c-0.036376-2.5502-1.5677-4.8407-3.9102-5.8496l0.5-1.2598zm-0.93945 2.2988c1.9045 0.85098 3.1465 2.725 3.1895 4.8105h-0.98047c-0.03769-1.6899-1.0281-3.2122-2.5586-3.9297l0.34961-0.88086z" style="-inkscape-stroke:none"/>
</svg>
