<svg viewBox="0 0 24 24" xmlns="http://www.w3.org/2000/svg"><path d="M12.035 2.313c-1.948 0-3.53 1.513-3.53 3.38v1.22h7.06v-1.22c0-1.867-1.581-3.38-3.53-3.38zm-3.53 4.978v1.166H6.609v1.5c.003 2.475 1.93 4.515 4.445 4.934v6.773h1.96V14.88c2.482-.444 4.375-2.47 4.379-4.923v-1.5h-1.828V7.29zM7.61 9.413h.897v.29c0 1.521 1.076 2.803 2.547 3.205v1.01c-1.973-.403-3.44-2.037-3.444-3.96zm7.955 0h.827v.545c-.004 1.901-1.439 3.52-3.377 3.946v-.994c1.472-.402 2.55-1.685 2.55-3.206zM2.37 13.063c-.23 0-.361.008-.361.008s-.261 4.111 2.17 6.488c2.43 2.377 6.637 2.12 6.637 2.12s.262-4.11-2.169-6.487c-2.001-1.956-5.206-2.129-6.277-2.129zm19.26 0c-1.071 0-4.274.173-6.276 2.13-2.431 2.375-2.168 6.486-2.168 6.486s4.204.257 6.635-2.12c2.432-2.377 2.172-6.488 2.172-6.488s-.133-.007-.364-.007z" fill-rule="evenodd"/></svg>