<svg version="1.1" viewBox="0 0 24 24" xmlns="http://www.w3.org/2000/svg">
 <path d="m12.035 2.3134c-1.9485 0-3.5294 1.5126-3.5294 3.3787v1.2214h7.0589v-1.2214c0-1.8661-1.5806-3.3787-3.5294-3.3787zm-3.5294 4.9777v1.1659h-1.8972v1.5006c.00279 2.4739 1.9299 4.514 4.4447 4.9333v6.7733h1.9606v-6.7845c2.4818-.44388 4.3743-2.4701 4.3781-4.9222v-1.5006h-1.8274v-1.1659zm-.89624 2.1224h.89624v.29029c0 1.5207 1.0762 2.8019 2.5475 3.2043v1.0104c-1.9727-.40313-3.4401-2.0374-3.4438-3.9609zm7.9551 0h.82644v.54409c-.0044 1.9018-1.4386 3.5206-3.3772 3.9466v-.99459c1.4723-.40157 2.5507-1.6843 2.5507-3.2058zm-13.195 3.65c-.23005 0-.36167.0079-.36167.0079s-.2612 4.1108 2.17 6.4878c2.4308 2.3766 6.6369 2.1192 6.6369 2.1192s.26254-4.11-2.1684-6.4862c-2.0014-1.9561-5.2059-2.1288-6.2768-2.1288zm19.259 0c-1.0708 0-4.2735.1727-6.2753 2.1288-2.4312 2.3762-2.1684 6.4862-2.1684 6.4862s4.2041.2573 6.6353-2.1192c2.4316-2.377 2.1716-6.4878 2.1716-6.4878s-.13308-.0079-.36325-.0079z" fill-rule="evenodd"/>
</svg>
