<svg viewBox="0 0 24 24" xmlns="http://www.w3.org/2000/svg"><path d="M12.004 2a4.35 4.35 0 0 0-3.082 1.276l-.002.002a.48.48 0 0 0-.02.021h3.164a.364.364 0 0 1 0 .728H8.322a4.202 4.202 0 0 0-.368.72h4.11c.2 0 .363.162.363.363a.364.364 0 0 1-.363.364H7.736a4.34 4.34 0 0 0-.086.72h4.414c.2 0 .364.162.364.364a.364.364 0 0 1-.364.363H7.646v.72h4.418a.364.364 0 0 1 .363.363.364.364 0 0 1-.363.363H7.646v3.942a4.359 4.359 0 0 0 8.717 0V6.358A4.36 4.36 0 0 0 12.004 2zm-5.63 7.015a.478.478 0 0 0-.478.484v2.94a6.113 6.113 0 0 0 5.626 6.086v3.034c0 .243.214.441.478.441s.478-.198.478-.441v-3.034a6.112 6.112 0 0 0 5.626-6.086V9.5a.478.478 0 1 0-.956 0v2.94A5.154 5.154 0 0 1 12 17.587a5.154 5.154 0 0 1-5.148-5.148V9.5a.478.478 0 0 0-.478-.484zm3.742 2.086c.387 0 .702.314.702.701a.701.701 0 0 1-.702.702.7.7 0 0 1-.701-.702.698.698 0 0 1 .145-.427l.001-.001a.339.339 0 0 1 .215-.185l.001-.001a.697.697 0 0 1 .34-.088zm3.776 0a.702.702 0 1 1 0 1.402.701.701 0 0 1-.702-.7.693.693 0 0 1 .148-.43v-.001a.348.348 0 0 1 .21-.182l.002-.001a.706.706 0 0 1 .342-.088zm-3.977.145a.357.357 0 0 0-.097.014.339.339 0 0 0-.216.186.338.338 0 0 0-.033.146.346.346 0 0 0 .346.346.347.347 0 0 0 .347-.346.346.346 0 0 0-.347-.346zm3.766.035a.352.352 0 0 0-.1.014l-.004.001a.348.348 0 0 0-.209.183.347.347 0 0 0-.033.148.346.346 0 0 0 .346.346.346.346 0 0 0 .346-.346.346.346 0 0 0-.346-.346zm-2.911 2.112c.092.002.178.038.214.095a.611.611 0 0 0 .097.111c.07.055.857.646 1.888.021l.001-.001a.649.649 0 0 0 .125-.107l.013-.012c.072-.072.146-.127.271-.1.125.028.19.113.148.19a.817.817 0 0 1-.228.256 2.85 2.85 0 0 1-.225.136c-.893.491-1.634.254-2.057.012a1.956 1.956 0 0 1-.379-.273v-.001l-.003-.002a.762.762 0 0 1-.1-.123c-.046-.078.017-.164.14-.193a.375.375 0 0 1 .094-.01z"/></svg>