<svg version="1.1" viewBox="0 0 24 24" xmlns="http://www.w3.org/2000/svg">
 <path d="m11.336 21.974c-1.883-.12058-3.7531-.80729-5.2696-1.935-1.9885-1.4787-3.3583-3.627-3.846-6.0316-.15338-.7563-.1954-1.1886-.1954-2.0103 0-.82167.04202-1.254.1954-2.0103.37419-1.8451 1.2813-3.5693 2.5943-4.9311 2.2392-2.3225 5.4382-3.4157 8.6338-2.9505 1.5045.21904 2.9808.79856 4.2216 1.6572.68214.47205 1.5792 1.3021 2.0758 1.9208 1.2498 1.5568 1.9641 3.2859 2.1934 5.3088.01968.17374.0358.62606.0358 1.0051 0 1.19-.15689 2.152-.52899 3.2436-.49951 1.4654-1.273 2.7-2.3955 3.8235-1.758 1.7596-3.9636 2.7532-6.4636 2.9118-.50923.03232-.71939.03197-1.2509-.002zm3.7925-2.1641c2.5709-.40101 4.7139-1.9997 5.8436-4.3595 1.2593-2.6306.97734-5.7942-.72503-8.1344-1.2466-1.7136-3.0398-2.8085-5.1329-3.1339-.48443-.075314-1.6594-.075318-2.1539-6e-6-1.3386.20388-2.5188.71391-3.6329 1.5701-.34885.26808-1.0202.93897-1.292 1.2911-.93829 1.2157-1.4957 2.583-1.6683 4.0924-.04643.40599-.04643 1.3171 0 1.7231.1726 1.5093.73005 2.8767 1.6683 4.0924.27176.3521.94314 1.023 1.292 1.2911 1.2482.95917 2.446 1.4353 4.078 1.6211.24752.02817 1.4367-.0086 1.7231-.05324zm-.35898-1.5695c-2.8278-.30747-5.0411-2.4781-5.4598-5.3544-.06765-.4648-.06765-1.3129 0-1.7777.53623-3.6845 3.9979-6.0779 7.5172-5.1975 1.9978.49977 3.6474 2.0492 4.3119 4.0501.69468 2.0917.28884 4.3449-1.0911 6.0577-.80963 1.0049-1.978 1.754-3.2208 2.0649-.62188.15557-1.473.2205-2.0575.15695zm2.958-1.7161c1.8788-.41928 3.2444-1.9509 3.5038-3.9298.18519-1.4127-.29539-2.875-1.2752-3.8802-.68488-.70261-1.5291-1.1397-2.487-1.2876-.37599-.05805-1.0965-.03732-1.4646.04214-1.8397.3971-3.2291 1.9282-3.5039 3.8615-.05337.37541-.05337.95836 0 1.3338.28198 1.9835 1.736 3.5388 3.6332 3.8862.40351.0739 1.2049.06084 1.5939-.02597zm-.57437-1.1281c-.79752-.1013-1.5841-.5541-2.1086-1.2139-.13733-.17273-.34658-.49926-.34672-.54105-2.9e-5-.01185.03598-.02154.08005-.02154.12209 0 .40485-.07937.57312-.16089.59564-.28852.97346-1.0153.87103-1.6755-.10799-.69599-.54779-1.1992-1.1929-1.3648-.09414-.02417-.20722-.04395-.25128-.04395-.04407 0-.08008-.0097-.08005-.02154.000143-.04179.20939-.36832.34672-.54105.3106-.39067.78846-.76648 1.2225-.96145 1.7095-.76786 3.7015.1228 4.357 1.9481.26607.74094.26607 1.6561 0 2.397-.53178 1.4809-1.968 2.3914-3.4709 2.2005z" stroke-width=".028718"/>
</svg>
