<svg viewBox="0 0 24 24" xmlns="http://www.w3.org/2000/svg"><path d="M11.336 21.974a10.002 10.002 0 0 1-5.27-1.935 10.004 10.004 0 0 1-3.846-6.032c-.153-.756-.195-1.188-.195-2.01 0-.822.042-1.254.195-2.01a10 10 0 0 1 2.595-4.931 9.968 9.968 0 0 1 8.634-2.95c1.504.218 2.98.798 4.221 1.656.682.472 1.58 1.302 2.076 1.921 1.25 1.557 1.964 3.286 2.193 5.309.02.174.036.626.036 1.005 0 1.19-.157 2.152-.529 3.244-.5 1.465-1.273 2.7-2.395 3.823-1.758 1.76-3.964 2.753-6.464 2.912-.51.032-.72.032-1.25-.002zm3.792-2.164c2.571-.401 4.714-2 5.844-4.36 1.26-2.63.977-5.794-.725-8.134a7.72 7.72 0 0 0-5.133-3.134c-.484-.075-1.66-.075-2.154 0-1.338.204-2.519.714-3.633 1.57a9.783 9.783 0 0 0-1.292 1.291 8.094 8.094 0 0 0-1.668 4.093 10.675 10.675 0 0 0 0 1.723 8.095 8.095 0 0 0 1.668 4.092 9.783 9.783 0 0 0 1.292 1.291c1.249.96 2.446 1.436 4.078 1.621.248.029 1.437-.008 1.723-.053zm-.358-1.57c-2.828-.307-5.042-2.478-5.46-5.354a7.811 7.811 0 0 1 0-1.778c.536-3.684 3.998-6.078 7.517-5.197 1.998.5 3.647 2.049 4.312 4.05a6.384 6.384 0 0 1-1.091 6.058 6.118 6.118 0 0 1-3.221 2.065c-.622.155-1.473.22-2.058.156zm2.958-1.716c1.878-.419 3.244-1.95 3.503-3.93.186-1.412-.295-2.875-1.275-3.88a4.345 4.345 0 0 0-2.487-1.287 5.223 5.223 0 0 0-1.464.042c-1.84.397-3.23 1.928-3.504 3.861a5.576 5.576 0 0 0 0 1.334c.282 1.984 1.736 3.539 3.633 3.886.403.074 1.205.061 1.594-.026zm-.575-1.128c-.797-.101-1.584-.554-2.108-1.214-.138-.172-.347-.499-.347-.54 0-.013.036-.022.08-.022.122 0 .405-.08.573-.161.596-.289.973-1.015.871-1.676-.108-.696-.548-1.199-1.193-1.364a1.397 1.397 0 0 0-.251-.044c-.044 0-.08-.01-.08-.022 0-.042.21-.368.347-.541.31-.39.788-.767 1.222-.961 1.71-.768 3.702.122 4.357 1.948a3.7 3.7 0 0 1 0 2.397c-.532 1.48-1.968 2.391-3.47 2.2z"/></svg>