<svg version="1.1" viewBox="0 0 24 24" xmlns="http://www.w3.org/2000/svg">
 <style type="text/css">.st0{fill:#FFFFFF;}
	.st1{fill:#8DC742;}</style>
 <style>.st0{fill:#1e293b}</style>
 <style>.st0{fill:#1e293b}</style>
 <g transform="matrix(.81308 0 0 .81308 2.2437 2.2434)" stroke-width=".36385">
  <path d="m14.15.66406c-.71538-.004317-1.4291.037274-2.125.11914-2.3189.27282-4.4241.9718-6.166 2.0703 1.7454-1.099 3.8608-1.7974 6.2031-2.0703.98241-.10916 2-.14699 2.9824-.074219 2.3651.72771 4.4772 2.001 6.0781 3.8203 1.5174 1.7341 2.6027 4.0078 3.0098 6.3906.2187-2.752-.34554-5.4922-1.9199-7.2988-1.8329-2.0694-4.9625-2.9383-8.0625-2.957zm-12.93 8.291c-.014396.047933-.027216.09635-.041016.14453.013691-.048102.026735-.096676.041016-.14453zm-.1582.58008c-.019216.078287-.035069.15748-.052734.23633.017624-.078953.033583-.15793.052734-.23633zm-.125.57422c-.016102.08299-.030526.16649-.044922.25.014414-.08347.028846-.16705.044922-.25zm-.10547.63281c-.008162.05836-.016104.1172-.023438.17578.007442-.05865.015191-.11733.023438-.17578zm23.264.61523c-.0054.04504-.01182.08986-.01758.13477.0053-.04496.01265-.08979.01758-.13477zm-.07813.57031c-.03576.23004-.07195.4599-.11719.68555.04466-.22762.08305-.45597.11719-.68555zm-.12305.70898c-.10895.53911-.24508 1.0648-.4082 1.5723-1.1643 3.6749-3.7109 6.6576-6.9492 8.2949-1.0552.54578-2.1833.94575-3.3477 1.1641-1.9648-.47301-3.9293-1.4546-5.6758-2.5098-2.9523-1.8002-5.2971-3.8863-6.6504-6.75.010306.06694.017906.13425.029297.20117.54578 3.4202 2.4727 6.8038 5.4199 8.332 2.9836 1.5646 6.9499 1.237 10.225-.40039 3.2383-1.6737 5.7849-4.6219 6.9492-8.2969.1659-.52362.30023-1.0617.4082-1.6074z"/>
  <path d="m10.5 0c-3.633-.012259-7.3309 1.1661-9.207 3.6562-2.0012 2.6925-1.9656 6.8418-.72852 10.08.37805.95053.86835 1.8186 1.4492 2.623-.45766-.63561-.85875-1.3133-1.1953-2.041-.43662-3.3111.36527-6.6591 2.3301-9.0605 2.0012-2.5106 5.1664-4.038 8.9141-4.4746.98241-.10916 2-.14699 2.9824-.074219-1.2225-.38115-2.508-.61642-3.8203-.69141-.24105-.01137-.48241-.016761-.72461-.017578zm4.5449.70898c.28042.086284.55724.18157.83008.2832-.27287-.1032-.55002-.19588-.83008-.2832zm-13.031 15.65c.10506.1455.21312.28842.32422.42969-.11086-.14136-.21932-.284-.32422-.42969zm13.928-15.344c.24802.093731.49143.19626.73242.30273-.2406-.10794-.4851-.20783-.73242-.30273zm8.1895 10.047c-.11198 1.0951-.32604 2.1556-.64453 3.1465-1.1643 3.6749-3.7109 6.6576-6.9492 8.2949-1.0552.54578-2.1833.94575-3.3477 1.1641-1.9648-.47301-3.9293-1.4546-5.6758-2.5098 3.1655 1.9284 7.0227 3.5649 10.225 2.5098 3.2019-1.0188 5.7494-4.7284 6.4043-8.5488.2173-1.355.20063-2.7273-.01172-4.0566zm-16.617 10.096c-.37295-.22741-.73505-.45976-1.0879-.69726.3536.23803.71518.47021 1.0879.69726zm-1.0879-.69726c-.33403-.22484-.65802-.45579-.97266-.69141.31483.23578.63919.46693.97266.69141zm-4.043-3.6133c.096294.12106.19625.23935.29688.35742-.10051-.11824-.20066-.23612-.29688-.35742zm.4082.48828c.079932.0915.16165.18173.24414.27148-.082451-.0899-.16425-.1798-.24414-.27148zm.43164.47266c.088779.09308.17802.1861.26953.27734-.09137-.09126-.1809-.18423-.26953-.27734zm.38281.38867c.10538.103.21152.2059.32031.30664-.10872-.10079-.21504-.20358-.32031-.30664zm.50391.47266c.076015.06837.15291.13576.23047.20312-.077377-.06726-.15466-.13487-.23047-.20312zm.53125.45898c.061804.0514.12285.10347.18555.1543-.062792-.05092-.12367-.10281-.18555-.1543zm.45117.36328c.086068.0674.17214.13474.25977.20117-.087734-.06651-.17364-.13372-.25977-.20117z"/>
  <path d="m12.026 14.209c1.1279 0 2.074-.87325 2.1467-1.9648 0-.10916-.07277-.18193-.18193-.18193h-1.601c-.18193 0-.36385-.14554-.36385-.36385 0-.21831.14554-.36385.36385-.36385h1.4554c.18193 0 .36385-.14554.36385-.36385 0-.18193-.14554-.36385-.36385-.36385h-1.4554c-.18193 0-.36385-.14554-.36385-.36385 0-.18193.14554-.36385.36385-.36385h1.419c.21831 0 .36385-.18193.36385-.36385 0-.21831-.18193-.36385-.36385-.36385h-1.419c-.18193 0-.36385-.14554-.36385-.36385 0-.18193.14554-.36385.36385-.36385l1.601.036385c.10916 0 .18193-.072771.18193-.18193-.10916-1.0916-1.0188-1.9648-2.1467-1.9648-1.2007 0-2.1467.98241-2.1467 2.1467v3.5658c-.03639 1.2007.94602 2.1831 2.1467 2.1831zm3.4202-3.1655c-.29108 0-.54578.2547-.54578.5094v.47301c0 1.6373-1.3826 2.9836-3.0564 2.8744-1.4918-.10916-2.6925-1.4918-2.6925-2.9836v-.32747c0-.29108-.2547-.5094-.54578-.5094-.29108 0-.54578.21831-.54578.5094v.2547c0 2.0012 1.419 3.7841 3.3475 4.0752.03639 0 .07277.03638.07277.10916v.61855c0 .03639-.03638.10916-.10916.10916h-.69132c-.40024 0-.87325.32747-.83686.76409 0 .18193.18193.32747.36385.32747h3.6022c.18193 0 .36385-.14554.36385-.32747.03639-.40024-.43662-.76409-.83686-.76409h-.69132c-.03639 0-.10916-.03638-.10916-.10916v-.58217c0-.03638.03638-.07277.07277-.10916 1.892-.29108 3.3475-1.9284 3.3475-3.9296v-.47301c.03638-.2547-.21831-.5094-.5094-.5094z"/>
 </g>
</svg>
