<svg version="1.1" viewBox="0 0 24 24" xmlns="http://www.w3.org/2000/svg">
 <path d="m22 7.19v10.61c.0056.74396-.59602 1.35-1.34 1.35h-3.49s-.36-.65-.49-.86c-.11389-.12765-.27909-.1974-.45-.19h-8.48c-.17512-.01531-.34673.05557-.46.19-.17.23-.5.86-.5.86h-3.44c-.7417 2e-5-1.3445-.59832-1.35-1.34v-10.61c-2.04e-5-.7417.59832-1.3445 1.34-1.35h17.31c.7417-2.04e-5 1.3445.59832 1.35 1.34zm-2.6 4.39c.02247-1.5809-1.259-2.8714-2.84-2.86h-9.13c-3.7988.00123-3.7988 5.7012 0 5.7h9.13c1.5685 0 2.84-1.2715 2.84-2.84z" color="#000000"/>
 <path d="m17.13 11.69c.0059.28834-.08568.57024-.26.8-.34023-.17029-.71055-.27222-1.09-.3-.40907.0033-.80846.12482-1.15.35-.19013-.24232-.29237-.542-.29-.85-.17154-2.0243 2.9615-2.0243 2.79 0zm-8.87-1.41c-1.1365-.0085-1.8023 1.2764-1.14 2.2.33956-.17204.71023-.27406 1.09-.3.40907.0033.80846.12482 1.15.35.19013-.24232.29237-.542.29-.85.00555-.77158-.6184-1.4-1.39-1.4z" color="#000000"/>
</svg>
