<svg viewBox="0 0 24 24" xmlns="http://www.w3.org/2000/svg"><path d="M22 7.19V17.8a1.34 1.34 0 0 1-1.34 1.35h-3.49s-.36-.65-.49-.86a.57.57 0 0 0-.45-.19H7.75a.54.54 0 0 0-.46.19c-.17.23-.5.86-.5.86H3.35A1.35 1.35 0 0 1 2 17.81V7.2a1.35 1.35 0 0 1 1.34-1.35h17.31A1.35 1.35 0 0 1 22 7.19zm-2.6 4.39a2.82 2.82 0 0 0-2.84-2.86H7.43c-3.799.001-3.799 5.701 0 5.7h9.13a2.84 2.84 0 0 0 2.84-2.84z" color="#000"/><path d="M17.13 11.69a1.28 1.28 0 0 1-.26.8 2.91 2.91 0 0 0-1.09-.3 2.12 2.12 0 0 0-1.15.35 1.36 1.36 0 0 1-.29-.85c-.172-2.024 2.961-2.024 2.79 0zm-8.87-1.41c-1.137-.009-1.802 1.276-1.14 2.2a2.84 2.84 0 0 1 1.09-.3c.41.003.808.125 1.15.35a1.36 1.36 0 0 0 .29-.85 1.39 1.39 0 0 0-1.39-1.4z" color="#000"/></svg>