<svg viewBox="0 0 24 24" xmlns="http://www.w3.org/2000/svg"><g stroke-width=".364"><path d="M13.749 2.783c-.582-.003-1.162.03-1.728.097-1.885.222-3.597.79-5.013 1.684 1.419-.894 3.139-1.462 5.043-1.684a13.29 13.29 0 0 1 2.425-.06c1.923.592 3.64 1.627 4.942 3.106 1.234 1.41 2.116 3.259 2.447 5.196.178-2.237-.28-4.465-1.56-5.934-1.491-1.683-4.036-2.39-6.556-2.405zM3.236 9.525l-.034.117.034-.117zm-.129.471c-.016.064-.028.128-.043.192.014-.064.027-.128.043-.192zm-.102.467a9.873 9.873 0 0 0-.036.203l.036-.203zm-.085.515zm18.915.5-.014.11.014-.11zm-.063.464zm-.1.576c-.089.438-.2.866-.332 1.278-.947 2.988-3.018 5.414-5.65 6.745a9.918 9.918 0 0 1-2.723.946c-1.597-.384-3.194-1.182-4.614-2.04-2.4-1.464-4.307-3.16-5.408-5.489.009.055.015.11.024.164.444 2.78 2.01 5.532 4.407 6.775 2.426 1.272 5.65 1.005 8.314-.326a11.478 11.478 0 0 0 5.65-6.746c.135-.426.244-.863.332-1.307z"/><path d="M10.781 2.243c-2.954-.01-5.96.949-7.486 2.973-1.627 2.19-1.598 5.563-.592 8.196a9.844 9.844 0 0 0 .206.473c-.355-2.692.297-5.414 1.895-7.367 1.627-2.041 4.2-3.283 7.248-3.638a13.29 13.29 0 0 1 2.424-.06 12.92 12.92 0 0 0-3.106-.562c-.196-.01-.392-.014-.589-.015zm3.695.577zM3.881 15.545zM15.206 3.069zm6.658 8.169a12.49 12.49 0 0 1-.524 2.558c-.946 2.988-3.017 5.413-5.65 6.744a9.918 9.918 0 0 1-2.722.947c-1.597-.385-3.195-1.183-4.615-2.04 2.574 1.567 5.71 2.898 8.314 2.04 2.603-.828 4.675-3.845 5.207-6.95a10.444 10.444 0 0 0-.01-3.3zm-13.51 8.209zm-.885-.567zm-3.287-2.938zm.332.397zm.35.384zm.312.316zm.41.384zm.431.374.151.125-.15-.125zm.367.295z"/><path d="M12.022 13.796c.917 0 1.686-.71 1.745-1.597 0-.089-.059-.148-.148-.148h-1.301a.296.296 0 0 1-.296-.296c0-.177.118-.296.296-.296H13.5a.296.296 0 0 0 0-.591h-1.183a.296.296 0 0 1 0-.592h1.153a.296.296 0 0 0 0-.592h-1.153a.296.296 0 0 1 0-.591l1.301.03c.09 0 .148-.06.148-.149a1.765 1.765 0 0 0-1.745-1.597c-.976 0-1.746.798-1.746 1.745v2.9c-.03.976.77 1.774 1.746 1.774zm2.78-2.573c-.236 0-.443.207-.443.414v.384c0 1.332-1.124 2.426-2.485 2.338-1.213-.09-2.19-1.213-2.19-2.426v-.267c0-.236-.206-.414-.443-.414-.237 0-.444.178-.444.414v.207c0 1.628 1.154 3.077 2.722 3.314.03 0 .059.03.059.089v.503c0 .03-.03.088-.089.088h-.562c-.325 0-.71.267-.68.622 0 .148.148.266.296.266h2.928c.148 0 .296-.118.296-.266.03-.326-.355-.622-.68-.622h-.562c-.03 0-.089-.03-.089-.088v-.474c0-.03.03-.059.06-.088a3.221 3.221 0 0 0 2.721-3.196v-.384c.03-.207-.178-.414-.414-.414z"/></g></svg>