<svg version="1.1" viewBox="0 0 24 24" xmlns="http://www.w3.org/2000/svg">
 <path id="type" d="m13.606 5.3983c0 2.9035-4.3581 5.7574-4.3581 9.8769 0 3.7103 3.2712 5.0278 5.0946 4.6244.12874-.02845.11498-.21163-.016-.2238-1.9613-.18139-3.5671-1.4421-3.7567-3.2596-.19833-1.9023 1.0338-2.603 1.0338-3.9729 0-.27163-.05543-.52657-.16029-.72012-.06824-.12637-.006-.28384.13465-.32082.90506-.2378 2.8022.78237 2.8022 2.9685 0 .87355-.1429 1.2706-.1429 2.1243 0 1.7859 1.4153 2.1581 3.2767 1.5621.12686-.04061.23176.15024.18596.27388-.7411 1.9971-2.6259 3.6688-5.7322 3.6688-3.9546 0-7.1104-3.3056-7.1104-6.862 0-4.8144 4.5409-7.3579 4.5409-10.733 0-.64929-.26886-1.3157-.79192-1.6424-.15482-.09656-.15023-.32216.0041-.41918 1.4057-.88076 4.9957-.13942 4.9957 3.0547zm1.9654.99762c.0064-.17731-.17359-.30278-.34718-.25539-1.3539.36776-2.2897 1.919-2.079 3.3886.24551 1.7132 2.4884 3.1436 2.8022 5.3301.12.83563-.03527 1.7083-.59176 2.3436-.06596.07535-.0458.1931.04167.24318.25282.14486.57159.18727.9229.13853 1.7039-.2369 3.1851-2.6166 2.744-4.9123-.65041-3.3863-3.6024-3.2983-3.4929-6.2763z" stroke-width=".40816"/>
</svg>
