<svg viewBox="0 0 24 24" xmlns="http://www.w3.org/2000/svg"><path d="M13.606 5.398c0 2.904-4.358 5.758-4.358 9.877 0 3.71 3.271 5.028 5.095 4.625.128-.029.114-.212-.017-.224-1.96-.182-3.567-1.442-3.756-3.26-.199-1.902 1.034-2.603 1.034-3.973 0-.271-.056-.526-.16-.72a.22.22 0 0 1 .134-.32c.905-.238 2.802.782 2.802 2.968 0 .873-.143 1.27-.143 2.124 0 1.786 1.416 2.158 3.277 1.562.127-.04.232.15.186.274C16.959 20.328 15.074 22 11.968 22c-3.955 0-7.11-3.306-7.11-6.862 0-4.814 4.54-7.358 4.54-10.733 0-.65-.269-1.316-.792-1.642a.247.247 0 0 1 .004-.42c1.406-.88 4.996-.14 4.996 3.055zm1.965.998c.007-.177-.173-.303-.347-.255-1.354.367-2.29 1.919-2.079 3.388.246 1.713 2.489 3.144 2.802 5.33.12.836-.035 1.709-.591 2.344a.16.16 0 0 0 .041.243c.253.145.572.187.923.139 1.704-.237 3.185-2.617 2.744-4.913-.65-3.386-3.602-3.298-3.493-6.276z"/></svg>