<svg viewBox="0 0 24 24" xmlns="http://www.w3.org/2000/svg"><path d="M9.899 21.797c-2.34-.52-4.591-1.981-5.918-3.841-.82-1.148-1.49-2.653-1.755-3.94-.285-1.382-.299-2.419-.049-3.737.385-2.03 1.22-3.667 2.618-5.14 1.401-1.475 3.041-2.41 5.051-2.88 1.269-.296 3.375-.271 4.625.055 1.908.498 3.947 1.743 5.1 3.115 1.229 1.462 2.042 3.21 2.331 5.01.197 1.223.088 3.14-.245 4.31-.142.498-.512 1.394-.822 1.991-.456.878-.797 1.32-1.772 2.304-1.08 1.09-1.34 1.283-2.474 1.84-.697.342-1.593.71-1.991.818-1.037.281-3.627.333-4.699.095zm4.51-2.536c1.078-.362 2.257-1.048 2.36-1.374.106-.332-.142-.724-.456-.724-.147 0-.512.164-.81.363-.905.604-1.756.868-3.017.934-.682.035-1.435 0-1.857-.088-.39-.08-1.189-.392-1.776-.692-.586-.3-1.146-.515-1.243-.478-.097.037-.233.174-.302.303-.098.182-.074.301.105.529.443.564 2.219 1.338 3.551 1.55.97.153 2.433.016 3.445-.323zm-4.22-3.46c.165-.082.423-.334.574-.558.224-.333.275-.572.275-1.296 0-.887 0-.887.965-.887.966 0 .966 0 .966.796 0 .95.249 1.552.775 1.873.425.26 1.198.294 1.635.073.164-.083.424-.338.578-.567.28-.414.28-.425.245-3.942-.035-3.527-.035-3.527-.392-3.899-.868-.906-2.275-.639-2.712.515-.071.188-.13 1.176-.13 2.203 0 1.862 0 1.862-.957 1.862s-.957 0-.995-2.104c-.038-2.104-.038-2.104-.393-2.475-.87-.907-2.277-.64-2.714.514-.08.21-.129 1.567-.129 3.542 0 2.74.029 3.263.202 3.626.11.234.368.527.573.652.425.26 1.198.294 1.635.073z"/></svg>