<svg version="1.1" viewBox="0 0 24 24" xmlns="http://www.w3.org/2000/svg">
 <path d="m9.899 21.797c-2.3401-.52021-4.5911-1.9812-5.9185-3.8414-.81916-1.148-1.4892-2.6524-1.7549-3.94-.28509-1.3817-.29851-2.4184-.048379-3.737.38492-2.0291 1.2191-3.6668 2.6176-5.1391 1.4014-1.4753 3.0416-2.4105 5.0514-2.88 1.2683-.29632 3.3746-.27151 4.6244.054466 1.9086.4978 3.9477 1.7432 5.101 3.1155 1.2281 1.4612 2.0418 3.2101 2.3308 5.0096.19652 1.2234.08721 3.1393-.24592 4.3103-.14161.49776-.51141 1.3937-.82179 1.991-.45583.87724-.79641 1.3202-1.7716 2.304-1.0809 1.0904-1.3399 1.2831-2.4743 1.8399-.69686.34207-1.5928.71022-1.991.8181-1.0366.28087-3.6264.33304-4.6988.09466zm4.5095-2.5362c1.079-.36222 2.2579-1.0483 2.3614-1.3742.10509-.33111-.143-.72396-.4568-.72335-.14699.000242-.51162.16359-.81027.36291-.90526.60416-1.7561.86735-3.0173.93334-.68112.03564-1.4349.000241-1.8561-.08722-.39007-.08098-1.1893-.39263-1.7761-.69254-.58678-.29992-1.1462-.51486-1.2432-.47764-.09699.03722-.23301.17354-.30226.30293-.09755.18228-.07388.30139.10508.52892.44338.56367 2.2189 1.3385 3.5512 1.5497.96995.15377 2.4331.01664 3.4444-.32284zm-4.2187-3.4591c.16393-.08295.42186-.33453.57318-.55908.22442-.33302.27513-.57176.27513-1.2954 0-.88717 0-.88717.96535-.88717.96535 0 .96535 0 .96535.79628 0 .95002.24893 1.5516.77469 1.8722.42562.25954 1.1984.29412 1.6351.07317.16393-.08295.42412-.33789.57821-.56655.27943-.41464.28007-.42499.24496-3.9424-.0352-3.5267-.0352-3.5267-.39146-3.8983-.86866-.90624-2.2755-.63923-2.7128.51488-.07093.18721-.12871 1.1758-.12871 2.2022 0 1.8625 0 1.8625-.95757 1.8625-.95757 0-.95757 0-.99552-2.1041-.03795-2.1041-.03795-2.1041-.39309-2.4745-.87007-.90736-2.2763-.64111-2.7139.51386-.0794.20955-.12871 1.5664-.12871 3.5415 0 2.7409.02901 3.2629.20151 3.6265.11083.23356.36876.52664.57318.6513.42562.25954 1.1984.29412 1.6351.07317z" stroke-width=".12067"/>
</svg>
