<?xml version="1.0" encoding="UTF-8" standalone="no"?>
<svg
   version="1.1"
   viewBox="0 0 24 24"
   id="svg4"
   sodipodi:docname="justcast.svg"
   inkscape:version="1.1 (1:1.1+202106032006+af4d65493e)"
   xmlns:inkscape="http://www.inkscape.org/namespaces/inkscape"
   xmlns:sodipodi="http://sodipodi.sourceforge.net/DTD/sodipodi-0.dtd"
   xmlns="http://www.w3.org/2000/svg"
   xmlns:svg="http://www.w3.org/2000/svg">
  <defs
     id="defs8">
    <linearGradient
       id="paint0_linear"
       x1="6.25"
       y1="36"
       x2="38.25"
       y2="36"
       gradientUnits="userSpaceOnUse"
       gradientTransform="matrix(0.57142857,0,0,0.57142857,-57.772066,-4.107422)">
      <stop
         stop-color="#F8B700"
         id="stop1048" />
      <stop
         offset=".51"
         stop-color="#F87900"
         id="stop1050" />
      <stop
         offset="1"
         stop-color="#AE35DD"
         id="stop1052" />
    </linearGradient>
    <linearGradient
       id="paint1_linear"
       x1="4.001"
       y1="45.05"
       x2="22.215"
       y2="45.05"
       gradientUnits="userSpaceOnUse"
       gradientTransform="matrix(0.57142857,0,0,0.57142857,-57.772066,-4.107422)">
      <stop
         stop-color="#FE4F45"
         id="stop1055" />
      <stop
         offset=".52"
         stop-color="#F87900"
         id="stop1057" />
      <stop
         offset="1"
         stop-color="#F8B700"
         id="stop1059" />
    </linearGradient>
    <linearGradient
       id="paint2_linear"
       x1="4"
       y1="28"
       x2="52"
       y2="28"
       gradientUnits="userSpaceOnUse"
       gradientTransform="matrix(0.57142857,0,0,0.57142857,-57.772066,-4.107422)">
      <stop
         stop-color="#FE4F45"
         id="stop1062" />
      <stop
         offset=".52"
         stop-color="#F87900"
         id="stop1064" />
      <stop
         offset="1"
         stop-color="#F8B700"
         id="stop1066" />
    </linearGradient>
  </defs>
  <sodipodi:namedview
     id="namedview6"
     pagecolor="#ffffff"
     bordercolor="#666666"
     borderopacity="1.0"
     inkscape:pageshadow="2"
     inkscape:pageopacity="0.0"
     inkscape:pagecheckerboard="0"
     showgrid="false"
     inkscape:zoom="14.979167"
     inkscape:cx="12.751043"
     inkscape:cy="12.984701"
     inkscape:window-width="1920"
     inkscape:window-height="1016"
     inkscape:window-x="1920"
     inkscape:window-y="27"
     inkscape:window-maximized="1"
     inkscape:current-layer="svg4" />
  <path
     style="fill:#000000;stroke-width:0.0402653"
     d="M 10.738949,21.950962 C 9.8174263,21.834043 8.8901213,21.576536 8.0368213,21.200596 7.4329863,20.934565 7.1450283,20.776266 6.5409823,20.378292 2.7568797,17.885141 1.1419303,13.068856 2.6222382,8.6913694 3.590852,5.8270358 5.9511033,3.4929775 8.8562343,2.5265538 9.9043713,2.1778793 11.050743,1.9952127 11.319286,2.1340824 c 0.299518,0.1548866 0.44122,0.476079 0.401249,0.9095083 -0.02826,0.3063985 -0.152729,0.5226487 -0.356506,0.6193453 -0.07521,0.035695 -0.389396,0.1207056 -0.698168,0.1889118 -1.6441317,0.3631841 -2.5925767,0.772085 -3.6396457,1.5691503 -1.0082,0.7674783 -1.8137928,1.7620843 -2.3983416,2.9610573 -0.6242384,1.28038 -0.9105605,2.6069296 -0.8493402,3.9350526 0.094142,2.042341 0.8938989,3.933024 2.2881718,5.40941 2.888045,3.058127 7.6093767,3.418995 10.9839227,0.839537 0.462953,-0.353875 1.224184,-1.123254 1.559749,-1.576448 0.869004,-1.173618 1.36222,-2.409624 1.621988,-4.06472 0.06257,-0.398666 0.204196,-0.613901 0.498786,-0.758031 0.310471,-0.151904 0.67714,-0.159102 0.886427,-0.01742 0.192519,0.130343 0.30478,0.367841 0.304547,0.644304 -2.82e-4,0.310438 -0.136082,1.193891 -0.256614,1.669216 -0.350365,1.381661 -1.05679,2.792068 -1.957938,3.909101 -0.141047,0.174843 -0.47504,0.535486 -0.742199,0.80143 -1.455653,1.44903 -3.252551,2.357382 -5.380747,2.720022 -0.659058,0.112305 -2.172508,0.142851 -2.845678,0.05745 z m 0.633864,-3.427016 C 10.286588,18.389204 9.3230693,18.03586 8.4334493,17.446017 7.8767793,17.076931 7.0610403,16.267831 6.7055303,15.732163 5.7355076,14.270572 5.3674905,12.682109 5.6368754,11.119551 6.0597233,8.6668374 8.0120833,6.4342374 10.44425,5.6221311 c 0.418537,-0.1397494 0.571527,-0.1393096 0.849395,0.00246 0.286917,0.146374 0.478732,0.5290093 0.421702,0.8412203 -0.03433,0.187908 -0.192562,0.458459 -0.315098,0.538747 -0.05315,0.03483 -0.275867,0.130275 -0.494899,0.212092 -1.2941457,0.48341 -2.3063977,1.263679 -2.9821397,2.29871 -0.493461,0.7558286 -0.737166,1.6200486 -0.737746,2.6161666 -7.33e-4,1.256029 0.458354,2.324173 1.409047,3.278395 0.774529,0.777405 1.6230437,1.250444 2.5669247,1.431038 0.397005,0.07595 1.205947,0.07308 1.621607,-0.0058 0.671754,-0.127423 1.52948,-0.480553 2.087203,-0.859295 1.121167,-0.761369 1.770903,-1.863588 1.942092,-3.294576 0.03252,-0.271877 0.05281,-1.939871 0.06564,-5.3957466 0.01813,-4.8871208 0.02038,-5.0045202 0.09722,-5.1022343 0.103972,-0.1321817 0.303339,-0.1828707 0.719255,-0.1828707 0.420854,0 0.615339,0.050765 0.724077,0.1890034 l 0.08349,0.1061474 -0.01271,5.2980752 -0.01271,5.2980766 -0.09126,0.402653 c -0.349165,1.540612 -1.037906,2.726066 -2.159697,3.717245 -0.765588,0.676451 -1.85779,1.202312 -2.945403,1.418122 -0.425162,0.08435 -1.541922,0.139501 -1.907359,0.09416 z m 0.38252,-3.422242 C 10.893004,14.987699 10.28799,14.690118 9.7350623,14.108029 9.2918503,13.64144 9.1688493,13.293768 9.2943083,12.8622 c 0.127938,-0.440115 0.607833,-0.816795 1.0039057,-0.788002 0.18373,0.0134 0.165236,-0.01031 0.409576,0.523314 0.144087,0.314649 0.41918,0.608714 0.697131,0.745208 0.202674,0.09952 0.2746,0.112751 0.612983,0.112751 0.352149,0 0.405292,-0.01082 0.65262,-0.132559 0.439704,-0.216466 0.707477,-0.599673 0.793665,-1.135803 0.02756,-0.171386 0.04218,-1.926872 0.04238,-5.0861346 2.01e-4,-3.378323 0.0134,-4.8487787 0.04381,-4.9057041 0.07623,-0.1424364 0.282349,-0.1952704 0.7618,-0.1952704 0.47945,0 0.685569,0.052833 0.761799,0.1952704 0.03049,0.056989 0.0435,1.5857943 0.0435,5.1135541 0,5.4438886 0.005,5.3092066 -0.217672,5.8994476 -0.325346,0.862532 -1.12771,1.549852 -2.097581,1.796832 -0.291746,0.0743 -0.835832,0.124485 -1.046897,0.09658 z"
     id="path2021" />
</svg>
