<svg viewBox="0 0 24 24" xmlns="http://www.w3.org/2000/svg"><path style="fill:#000;stroke-width:.0402653" d="M10.739 21.951a9.838 9.838 0 0 1-2.702-.75c-.604-.266-.892-.425-1.496-.823-3.784-2.493-5.4-7.31-3.919-11.687.969-2.864 3.33-5.198 6.234-6.164 1.048-.35 2.195-.532 2.463-.393.3.155.442.476.402.91-.029.306-.153.522-.357.619-.075.036-.39.12-.698.189-1.644.363-2.593.772-3.64 1.569-1.008.767-1.814 1.762-2.398 2.961-.624 1.28-.91 2.607-.85 3.935a8.376 8.376 0 0 0 2.289 5.41c2.888 3.058 7.61 3.419 10.984.84.463-.355 1.224-1.124 1.56-1.577.868-1.174 1.362-2.41 1.621-4.065.063-.399.205-.614.5-.758.31-.152.676-.16.886-.018.192.13.304.368.304.645 0 .31-.136 1.194-.256 1.669a10.543 10.543 0 0 1-1.958 3.91 12.63 12.63 0 0 1-.743.8c-1.455 1.45-3.252 2.358-5.38 2.72-.66.113-2.173.143-2.846.058zm.634-3.427a6.693 6.693 0 0 1-2.94-1.078c-.556-.37-1.372-1.178-1.727-1.714-.97-1.461-1.339-3.05-1.07-4.612.424-2.453 2.376-4.686 4.808-5.498.419-.14.572-.14.85.003.287.146.478.529.421.84-.034.189-.192.46-.315.54a4.12 4.12 0 0 1-.495.212C9.611 7.7 8.6 8.48 7.923 9.515c-.493.756-.737 1.62-.738 2.617 0 1.256.459 2.324 1.41 3.278.774.777 1.623 1.25 2.566 1.431.397.076 1.206.073 1.622-.006a6.21 6.21 0 0 0 2.087-.86c1.121-.76 1.771-1.863 1.942-3.294.033-.272.053-1.94.066-5.395.018-4.888.02-5.005.097-5.103.104-.132.304-.183.72-.183.42 0 .615.051.724.19l.083.106-.013 5.298-.012 5.298-.092.402c-.349 1.541-1.038 2.726-2.16 3.718-.765.676-1.857 1.202-2.945 1.418-.425.084-1.542.14-1.907.094zm.382-3.422c-.862-.114-1.467-.412-2.02-.994-.443-.467-.566-.814-.44-1.246.127-.44.607-.817 1.003-.788.184.014.165-.01.41.524.144.314.419.608.697.745.203.1.275.112.613.112.352 0 .405-.01.653-.132.44-.217.707-.6.793-1.136.028-.171.042-1.927.043-5.086 0-3.378.013-4.849.043-4.906.077-.142.283-.195.762-.195.48 0 .686.053.762.195.03.057.043 1.586.043 5.114 0 5.444.005 5.309-.217 5.9-.326.862-1.128 1.55-2.098 1.796-.292.074-.836.125-1.047.097z"/></svg>