<svg viewBox="0 0 24 24" xmlns="http://www.w3.org/2000/svg"><path fill="#8cc641" d="M19.938 8.052c.662 0 1.314.049 1.951.14V4.945a15.629 15.629 0 0 0-2.277-.148C9.59 4.96 2.4 11.956 2.11 21.977h3.905c.169-7.72 5.754-13.925 13.922-13.925Z" style="fill:#000;stroke-width:.0174262"/><path fill="#8cc641" d="M20.328 13.47c.429 0 1.037.005 1.45.064v-3.14c-.483-.063-1.828-.04-2.328-.04-6.181 0-10.527 5.491-10.64 11.646h3.643c0-5.667 2.97-8.53 7.875-8.53z" style="fill:#000;stroke-width:.0174262"/><path fill="#8cc641" d="M6.016 2.02H2.11c.29 10.024 7.48 17.019 17.5 17.182a15.63 15.63 0 0 0 2.278-.148v-3.245c-.637.093-1.29.14-1.951.14-8.168 0-13.753-6.206-13.922-13.927z" style="fill:#000;stroke-width:.0174262"/><path fill="#8cc641" d="M12.453 2H8.81c.112 6.155 4.458 11.646 10.64 11.646.5 0 1.846.023 2.329-.04v-3.14c-.413.059-1.021.064-1.45.064-4.906 0-7.875-2.863-7.875-8.53z" style="fill:#000;stroke-width:.0174262"/></svg>