<svg viewBox="0 0 24 24" xmlns="http://www.w3.org/2000/svg"><path d="M14.23 2a.31.31 0 0 0-.256.137L6.96 12.469a.311.311 0 0 0 .084.43h6.627l.421-.626h-6.28l6.693-9.783a.32.32 0 0 0-.101-.437A.313.313 0 0 0 14.23 2zm.635 1.91a.311.311 0 0 0-.25.11l-4.66 6.802-.422.625h5.125l.43-.625h-4.374l4.416-6.457a.313.313 0 0 0-.265-.455zm1.14 7.309a.31.31 0 0 0-.26.135l-5.773 8.441a.314.314 0 0 0 .516.355l5.773-8.441a.314.314 0 0 0-.256-.49zm.778 1.537a.31.31 0 0 0-.26.135l-5.91 8.619a.311.311 0 0 0 .086.438.311.311 0 0 0 .43-.085l5.908-8.619a.311.311 0 0 0-.254-.488z"/></svg>