<svg viewBox="0 0 24 24" xmlns="http://www.w3.org/2000/svg"><path d="M21.14 10.79c-.512 0-.968-.25-1.25-.635a1.552 1.552 0 0 1-1.212.581c-.86 0-1.556-.699-1.556-1.555 0-.398-.154-.768-.435-1.049s-.653-.434-1.048-.434c-.86 0-1.556-.7-1.556-1.556a1.544 1.544 0 0 1 .582-1.211 1.551 1.551 0 0 1-.592-1.596 7.92 7.92 0 0 0-1.681 1.073l-.422.35v.002l-.421-.35A7.757 7.757 0 0 0 9.32 3.106a4.475 4.475 0 0 0-1.569-.278c-.878 0-1.769.238-2.58.691-.95.529-1.86 1.396-2.377 2.257-.393.657-.633 1.423-.755 2.407-.14 1.113.085 2.324.688 3.706l.016.035c.112.232.35.568.723 1.027l.766.894.005.005c2.063 2.321 5.651 5.854 7.143 7.119a.92.92 0 0 0 .595.218.89.89 0 0 0 .584-.221c1.491-1.265 5.08-4.8 7.142-7.119l.006-.005.765-.894c.374-.459.611-.792.724-1.027l.016-.035c.176-.405.32-.795.434-1.174a1.78 1.78 0 0 1-.506.078z"/><path d="M15.636 5.278a.862.862 0 0 0-.002 1.726 2.17 2.17 0 0 1 2.177 2.177.863.863 0 0 0 1.724 0 3.866 3.866 0 0 0-1.145-2.759 3.845 3.845 0 0 0-2.754-1.144z"/><path d="M20.124 4.693a6.377 6.377 0 0 0-4.541-1.88.863.863 0 0 0 0 1.723c1.254 0 2.433.488 3.319 1.374s1.374 2.065 1.374 3.322a.863.863 0 0 0 1.724 0 6.36 6.36 0 0 0-1.876-4.539z"/></svg>