<?xml version="1.0" encoding="UTF-8"?>
<svg version="1.1" viewBox="0 0 24 24" xml:space="preserve" xmlns="http://www.w3.org/2000/svg"><path d="m7.4986 14.529v-4.1173c0-0.59715 0.05445-1.2298-0.13066-1.8051-0.19195-0.58432-0.5717-1.0885-1.0799-1.4339-0.50825-0.3453-1.1164-0.51228-1.7294-0.47484-0.61243 0.048853-1.1915 0.29957-1.6465 0.71299-0.45509 0.41341-0.76061 0.9662-0.86879 1.572-0.035366 0.23912-0.049034 0.48097-0.040833 0.72257v4.5399c-0.00588 0.22209 0.00321 0.44437 0.027222 0.66535 0.092412 0.6125 0.38578 1.1768 0.83383 1.6039 0.44806 0.427 1.0254 0.69253 1.6407 0.75457 0.37884 0.03405 0.76059-0.01111 1.1211-0.13256 0.36053-0.12135 0.69199-0.31636 0.97343-0.57259s0.50673-0.56825 0.66163-0.91623c0.1549-0.34788 0.23604-0.72425 0.23829-1.1053zm7.252 2.1295v-9.3306c-0.001516-0.67172-0.24816-1.3197-0.69334-1.8221-0.44528-0.50232-1.0585-0.82432-1.7241-0.90541-0.66578-0.081095-1.3382 0.084328-1.8907 0.46512-0.55246 0.3808-0.94693 0.95071-1.1091 1.6025-0.065646 0.31638-0.092159 0.63964-0.078942 0.96251v8.9789c-0.00214 0.61473 0.20133 1.2125 0.57795 1.6979 0.37662 0.4854 0.90469 0.83045 1.4999 0.98009 0.59524 0.14974 1.2234 0.09538 1.7843-0.15429 0.56087-0.24967 1.0221-0.6802 1.3101-1.2231 0.204-0.39042 0.3105-0.82449 0.31029-1.2651zm7.2358 1.895v-12.815c0.02081-0.43914-0.04011-0.87834-0.17975-1.2951-0.20238-0.53475-0.56613-0.99304-1.0406-1.3111-0.47448-0.31807-1.0362-0.48014-1.6069-0.46364-0.57078 0.016496-1.1222 0.21073-1.5775 0.55568-0.45539 0.34496-0.79215 0.82349-0.96352 1.3691-0.10346 0.38452-0.14661 0.78284-0.12792 1.1807v12.93c0.02577 0.57795 0.2327 1.1331 0.59149 1.5864 0.35879 0.45337 0.85116 0.78195 1.4071 0.93896 0.55582 0.15702 1.147 0.13448 1.6895-0.06436 0.54238-0.19885 1.0084-0.5638 1.3318-1.0431 0.31888-0.45943 0.48984-1.0056 0.48994-1.5651"/></svg>
