<?xml version="1.0" encoding="UTF-8" standalone="no"?>
<svg
   viewBox="0 0 24 24"
   version="1.1"
   id="svg6"
   sodipodi:docname="podbean.svg"
   inkscape:version="1.1 (1:1.1+202106032006+af4d65493e)"
   xmlns:inkscape="http://www.inkscape.org/namespaces/inkscape"
   xmlns:sodipodi="http://sodipodi.sourceforge.net/DTD/sodipodi-0.dtd"
   xmlns="http://www.w3.org/2000/svg"
   xmlns:svg="http://www.w3.org/2000/svg">
  <defs
     id="defs10" />
  <sodipodi:namedview
     id="namedview8"
     pagecolor="#ffffff"
     bordercolor="#666666"
     borderopacity="1.0"
     inkscape:pageshadow="2"
     inkscape:pageopacity="0.0"
     inkscape:pagecheckerboard="0"
     showgrid="false"
     inkscape:zoom="21.183741"
     inkscape:cx="11.990328"
     inkscape:cy="14.704674"
     inkscape:window-width="1920"
     inkscape:window-height="1016"
     inkscape:window-x="1920"
     inkscape:window-y="27"
     inkscape:window-maximized="1"
     inkscape:current-layer="svg6" />
  <path
     style="color:#000000;fill:#000000;stroke-width:0.534068;-inkscape-stroke:none"
     d="m 12.212891,4.09375 c -0.141129,-0.00103 -0.282687,0.00124 -0.423829,0.00586 -1.122695,0.020931 -2.2354914,0.200588 -3.3085932,0.53125 C 7.7477931,4.8696067 7.0371377,5.1723858 6.359375,5.5390625 4.6927005,6.4673119 3.2791501,7.7905922 2.2402344,9.390625 2.1740018,9.491928 2.1171798,9.5993467 2.0703125,9.7109375 c -0.1102111,0.3334995 -0.070694,0.6984305 0.109375,1.0000005 0.1552001,0.25925 0.4081463,0.445814 0.7011719,0.519531 0.1850339,0.03492 0.3735598,0.03492 0.5585937,0 0.1576864,-0.02841 0.3090187,-0.08944 0.4414063,-0.179688 0.1402442,-0.113619 0.261106,-0.248994 0.359375,-0.40039 0.16,-0.26 0.3490625,-0.5 0.5390625,-0.7500004 C 5.8607006,8.5741919 7.2870998,7.5705522 8.9003906,7 9.3531848,6.8350053 9.8165258,6.7040055 10.289062,6.609375 10.87888,6.4978847 11.480099,6.4522696 12.080078,6.4707031 c 0.59788,-7.57e-5 1.193536,0.059918 1.779297,0.1796875 0.448348,0.07743 0.88794,0.2005751 1.310547,0.3691406 0.18,0.07 0.370781,0.1309375 0.550781,0.2109376 C 16.20716,7.4493834 16.673759,7.706403 17.119141,8 18.022123,8.6116895 18.808238,9.3800885 19.439453,10.269531 19.605964,10.527684 19.793798,10.772295 20,11 c 0.248887,0.211621 0.576995,0.306061 0.900391,0.259766 C 21.145617,11.246212 21.380135,11.155409 21.570312,11 21.858878,10.749854 22.01695,10.381518 22,10 21.972503,9.8451869 21.918214,9.6968616 21.839844,9.5605469 21.479439,8.978384 21.067338,8.428916 20.609375,7.9199219 20.409375,7.7099219 20.2,7.5105469 20,7.3105469 19.686758,6.9858439 19.352719,6.6817121 19,6.4003906 18.335057,5.9003697 17.61684,5.4749775 16.859375,5.1308594 16.213881,4.8461297 15.544648,4.6169497 14.859375,4.4492188 14.405697,4.329474 13.945823,4.2397535 13.480469,4.1796875 13.060248,4.1258825 12.636276,4.0968356 12.212891,4.09375 Z m -0.302735,4.3066406 c -0.86445,0.00625 -1.720277,0.1641197 -2.5292966,0.46875 C 8.8969226,9.0519364 8.4333618,9.2878118 8,9.5703125 7.5666384,9.8727511 7.1654162,10.217101 6.8007812,10.599609 6.4896038,10.932331 6.200899,11.287086 5.9394531,11.660156 c -0.098431,0.145046 -0.1743786,0.303981 -0.2285156,0.470703 -0.05977,0.198941 -0.05977,0.410434 0,0.609375 C 5.7610174,12.932801 5.8601183,13.108497 6,13.25 c 0.4678106,0.463944 1.2216425,0.463944 1.6894531,0 0.2,-0.22 0.3510156,-0.480937 0.5410157,-0.710938 0.2787083,-0.325305 0.5935947,-0.616388 0.9394531,-0.86914 0.7936742,-0.552877 1.7321871,-0.859879 2.6992191,-0.88086 0.378958,-0.0019 0.758124,0.03314 1.130859,0.101563 0.893082,0.178411 1.718745,0.603191 2.380859,1.228516 0.260665,0.258801 0.497219,0.541664 0.708985,0.841797 0.08107,0.137505 0.186596,0.258797 0.310547,0.359374 0.344066,0.269786 0.806621,0.331241 1.208984,0.160157 0.297571,-0.132494 0.531449,-0.376445 0.650391,-0.679688 0.108631,-0.331545 0.07624,-0.693179 -0.08984,-1 C 17.874044,11.326394 17.520662,10.88906 17.119141,10.5 15.735869,9.1273568 13.858671,8.3706936 11.910156,8.4003906 Z m 0.111328,4.6289064 a 3.7526283,3.7605267 0 0 0 -3.7519528,3.759765 3.7526283,3.7605267 0 0 0 3.7519528,3.761719 3.7526283,3.7605267 0 0 0 3.751954,-3.761719 3.7526283,3.7605267 0 0 0 -3.751954,-3.759765 z m -0.04297,1.769531 c 0.567284,-0.0048 1.11197,0.231987 1.496093,0.654297 0.135327,0.165176 0.249384,0.345636 0.339844,0.539063 0.11586,0.340733 0.146604,0.705155 0.08984,1.060546 -0.08415,0.524528 -0.381091,0.990241 -0.820313,1.289063 -0.262133,0.194055 -0.574946,0.308688 -0.90039,0.330078 -0.225972,0.0251 -0.453716,0.0251 -0.679688,0 -0.275246,-0.08021 -0.534928,-0.204355 -0.769531,-0.369141 -0.272512,-0.230722 -0.48171,-0.525912 -0.609375,-0.859375 -0.2610921,-0.728912 -0.07926,-1.544835 0.46875,-2.091797 0.181127,-0.162421 0.382472,-0.298478 0.599609,-0.408203 0.204764,-0.06771 0.41669,-0.115245 0.63086,-0.140625 h 0.03906 c 0.03798,-0.0025 0.07742,-0.0036 0.115235,-0.0039 z"
     id="path1210" />
</svg>
