<svg viewBox="0 0 24 24" xmlns="http://www.w3.org/2000/svg"><path style="color:#000;fill:#000;stroke-width:.534068;-inkscape-stroke:none" d="M12.213 4.094a9.992 9.992 0 0 0-.424.006c-1.123.02-2.235.2-3.309.53a12.76 12.76 0 0 0-2.12.91 11.702 11.702 0 0 0-4.12 3.85 2.003 2.003 0 0 0-.17.32c-.11.334-.07.7.11 1 .155.26.408.447.7.52.186.035.374.035.56 0 .157-.028.308-.089.44-.18a1.72 1.72 0 0 0 .36-.4c.16-.26.35-.5.54-.75A9.334 9.334 0 0 1 8.9 7a9.505 9.505 0 0 1 1.39-.39 8.278 8.278 0 0 1 1.79-.14c.598 0 1.194.06 1.78.18.448.078.887.201 1.31.37.18.07.37.13.55.21a9.98 9.98 0 0 1 1.4.77 9.11 9.11 0 0 1 2.32 2.27c.166.258.354.502.56.73.249.212.577.306.9.26a1.16 1.16 0 0 0 .67-.26 1.25 1.25 0 0 0 .43-1 1.357 1.357 0 0 0-.16-.44 11.519 11.519 0 0 0-1.23-1.64c-.2-.21-.41-.41-.61-.61a10.402 10.402 0 0 0-1-.91c-.665-.5-1.383-.925-2.14-1.27a12.066 12.066 0 0 0-2-.68 10.832 10.832 0 0 0-2.647-.356ZM11.91 8.4a7.325 7.325 0 0 0-2.53.47 7.172 7.172 0 0 0-1.38.7 7.91 7.91 0 0 0-1.2 1.03c-.31.332-.6.687-.86 1.06a1.86 1.86 0 0 0-.23.47c-.059.2-.059.411 0 .61.051.193.15.368.29.51a1.2 1.2 0 0 0 1.69 0c.2-.22.35-.48.54-.71.28-.326.594-.617.94-.87a4.908 4.908 0 0 1 2.7-.88 6.1 6.1 0 0 1 1.13.1 4.85 4.85 0 0 1 2.38 1.23c.262.258.498.54.71.84a1.198 1.198 0 0 0 1.52.52 1.24 1.24 0 0 0 .65-.68 1.27 1.27 0 0 0-.09-1 6.89 6.89 0 0 0-1.05-1.3 7.237 7.237 0 0 0-5.21-2.1Zm.111 4.63a3.753 3.76 0 0 0-3.751 3.76 3.753 3.76 0 0 0 3.751 3.76 3.753 3.76 0 0 0 3.752-3.76 3.753 3.76 0 0 0-3.752-3.76zm-.042 1.769a2 2 0 0 1 1.496.654c.135.165.249.346.34.54.115.34.146.704.09 1.06-.085.524-.382.99-.821 1.289a1.701 1.701 0 0 1-.9.33 3.077 3.077 0 0 1-.68 0 2.605 2.605 0 0 1-.77-.37 2.117 2.117 0 0 1-.609-.859 2.003 2.003 0 0 1 .469-2.091 2.76 2.76 0 0 1 .6-.409 3.22 3.22 0 0 1 .63-.14h.04c.037-.003.077-.004.115-.004z"/></svg>