<svg viewBox="0 0 24 24" xmlns="http://www.w3.org/2000/svg"><path d="M2.933 10.844c.264-.185.491-.335.869-.335.51 0 1.292.355 1.292 1.391 0 1.182-.655 1.532-1.367 1.532-.297 0-.536-.105-.794-.26v2.4H2V10.57h.933zm0 1.712c.145.175.328.33.605.33.56 0 .642-.55.642-.886 0-.31-.106-.83-.623-.83-.271 0-.46.15-.624.305v1.081zm2.403-.586c0-.746.517-1.462 1.55-1.462 1.034 0 1.55.716 1.55 1.462 0 .741-.522 1.462-1.55 1.462-1.026 0-1.55-.72-1.55-1.462m2.143 0c0-.35-.088-.916-.592-.916s-.592.566-.592.916.088.916.592.916.592-.565.592-.916m3.462 1.166c-.283.2-.504.296-.894.296-.712 0-1.367-.35-1.367-1.532 0-1.036.78-1.392 1.291-1.392.379 0 .605.15.87.336V8.2h.932v5.172h-.75zm-.724-2.041c-.517 0-.624.52-.624.83 0 .336.082.876.643.876.277 0 .46-.145.605-.32V11.4c-.165-.156-.353-.305-.624-.305m-7.026 4.647.736-.58c.284.411 3.62 2.633 6.269-.731l.85.384c-2.455 3.56-6.547 2.398-7.855.927"/><path d="m4.646 14.619.54-.427c.237.272 2.121 1.193 3.55-.418l.632.282c-1.367 1.797-3.748 1.479-4.722.563M8.7 9.305l-.55.44c-.12-.131-1.842-1.129-3.38.434l-.634-.292a3.326 3.326 0 0 1 4.563-.582"/><path d="m10.137 8.149-.739.59c-2.324-1.808-4.886-.82-6.078.765l-.857-.384c1.145-1.82 4.614-3.567 7.674-.97m4.078 3.344c-.004-.031-.011-.078-.022-.139s-.033-.122-.068-.183a.481.481 0 0 0-.154-.16.502.502 0 0 0-.28-.068c-.171 0-.303.042-.396.126s-.16.181-.201.293-.067.223-.074.333-.01.19-.01.238c0 .136.01.266.029.39s.053.235.102.333.115.175.199.232a.561.561 0 0 0 .324.087.6.6 0 0 0 .265-.053.481.481 0 0 0 .173-.136c.043-.056.076-.117.097-.186s.033-.133.036-.196h.497c-.007.13-.035.25-.086.364-.05.113-.121.213-.212.298s-.2.154-.33.205c-.129.05-.274.076-.434.076a1.445 1.445 0 0 1-.396-.055 1.099 1.099 0 0 1-.241-.103.901.901 0 0 1-.23-.183 1.476 1.476 0 0 1-.116-.157c-.038-.06-.073-.129-.103-.21s-.053-.172-.071-.277-.026-.225-.026-.361c0-.272.037-.5.113-.683.076-.184.173-.33.29-.438a1.05 1.05 0 0 1 .387-.23 1.32 1.32 0 0 1 .788-.013c.075.023.15.055.225.097s.142.1.202.173a.727.727 0 0 1 .178.322c.02.103.035.19.042.264zm2.717 1.786a1.308 1.308 0 0 1-.037-.194 1.778 1.778 0 0 1-.01-.2.886.886 0 0 1-.414.4c-.073.034-.144.055-.212.064s-.13.013-.186.013c-.15 0-.283-.02-.398-.06a.849.849 0 0 1-.29-.165.68.68 0 0 1-.178-.246.765.765 0 0 1-.06-.304.924.924 0 0 1 .086-.38.9.9 0 0 1 .374-.39c.07-.038.147-.068.23-.091a2.185 2.185 0 0 1 .49-.076 4.308 4.308 0 0 1 .358-.003 3.8 3.8 0 0 1 .189.013c0-.08 0-.15-.002-.212-.002-.06-.006-.113-.011-.157s-.014-.083-.026-.118-.03-.066-.055-.094c-.049-.066-.12-.111-.212-.136s-.174-.036-.244-.036a.638.638 0 0 0-.293.055.437.437 0 0 0-.157.128.362.362 0 0 0-.065.149.742.742 0 0 0-.013.112h-.492c.007-.07.02-.147.04-.232a.646.646 0 0 1 .321-.404 1.11 1.11 0 0 1 .217-.086 1.46 1.46 0 0 1 .23-.045 1.757 1.757 0 0 1 .508.01c.097.017.186.04.27.072s.16.071.225.12.117.107.152.173c.042.08.067.153.076.217s.013.127.013.186l-.021 1.256c0 .011 0 .039.003.084s.003.1.005.163.005.13.01.204c.006.073.013.143.024.21h-.445zm-.058-1.278a1.238 1.238 0 0 0-.13-.013 3.603 3.603 0 0 0-.383.005c-.105.005-.21.025-.317.058s-.2.086-.28.16a.397.397 0 0 0-.12.309.48.48 0 0 0 .023.14.422.422 0 0 0 .249.268.67.67 0 0 0 .272.047c.251 0 .438-.094.56-.283a.646.646 0 0 0 .1-.272c.006-.052.012-.113.015-.18.004-.069.008-.148.011-.239zm1.649.498c0 .048.007.1.021.156.014.056.043.108.087.155s.103.086.178.117a.762.762 0 0 0 .29.048c.102 0 .19-.012.267-.034a.397.397 0 0 0 .244-.537c-.023-.042-.058-.076-.105-.102s-.107-.05-.18-.07a3.984 3.984 0 0 0-.257-.064 8.48 8.48 0 0 1-.39-.1 1.258 1.258 0 0 1-.322-.135c-.09-.056-.163-.128-.217-.215s-.082-.199-.082-.335a.713.713 0 0 1 .286-.579c.089-.068.196-.12.322-.16a1.43 1.43 0 0 1 .419-.057c.083 0 .172.007.267.021s.184.037.272.068c.087.031.167.073.24.126s.13.117.168.194a.593.593 0 0 1 .06.204c.005.063.008.122.008.178h-.503a.42.42 0 0 0-.047-.233.357.357 0 0 0-.133-.131.466.466 0 0 0-.17-.055 1.395 1.395 0 0 0-.27-.005.603.603 0 0 0-.18.041.467.467 0 0 0-.168.113c-.049.05-.073.123-.073.217 0 .06.013.11.039.15.026.04.059.072.097.096s.079.043.12.055l.116.034c.181.042.33.078.447.108.117.03.213.057.288.084a.767.767 0 0 1 .306.17c.074.07.125.147.155.233s.045.17.045.254c0 .146-.035.28-.105.398a.744.744 0 0 1-.252.267c-.115.07-.24.116-.374.14s-.27.037-.406.037c-.132 0-.26-.014-.384-.044s-.234-.078-.33-.144-.172-.155-.228-.265a.877.877 0 0 1-.084-.4h.518zm1.932-1.86h.466v-.549l.487-.157v.707h.586v.361h-.586v1.576c0 .032.002.068.005.11s.017.08.04.115a.265.265 0 0 0 .104.09.446.446 0 0 0 .202.036c.049 0 .095-.003.139-.008s.075-.011.096-.018v.382a2.403 2.403 0 0 1-.408.032c-.227 0-.394-.04-.502-.118-.109-.079-.163-.226-.163-.443v-1.753h-.466zm-7.883 3.556v-.038c0-.011 0-.025-.002-.04l-.002-.053-.004-.075h.239l.005.208c.03-.05.064-.09.103-.119s.078-.052.118-.07a.486.486 0 0 1 .208-.039c.067 0 .133.012.197.036s.121.063.17.115a.6.6 0 0 1 .118.202.87.87 0 0 1 .045.3.87.87 0 0 1-.048.303c-.032.085-.074.156-.127.21s-.114.097-.183.123-.142.039-.217.039c-.092 0-.171-.018-.237-.053s-.116-.08-.15-.136v.625h-.233zm.226.462c0 .039.003.085.008.138a.47.47 0 0 0 .044.153c.024.049.059.09.105.125s.113.051.196.051a.45.45 0 0 0 .126-.02.327.327 0 0 0 .074-.036.255.255 0 0 0 .067-.067.44.44 0 0 0 .054-.1.61.61 0 0 0 .03-.11.995.995 0 0 0 .003-.353.442.442 0 0 0-.054-.148c-.026-.043-.06-.078-.105-.105s-.102-.04-.172-.04a.329.329 0 0 0-.217.064c-.052.042-.089.092-.112.15s-.037.113-.041.17c-.004.057-.006.1-.006.128zm1.292-1.215h.285v.258h-.284zm.026.547h.236v1.26h-.236zm.602.645c0-.077.01-.155.03-.236a.58.58 0 0 1 .302-.378.687.687 0 0 1 .309-.064c.125 0 .228.023.309.067a.55.55 0 0 1 .283.38.865.865 0 0 1-.014.475.561.561 0 0 1-.317.36.685.685 0 0 1-.281.054.67.67 0 0 1-.272-.051.552.552 0 0 1-.31-.348.85.85 0 0 1-.039-.259zm.247-.015c0 .066.007.128.02.188s.038.112.069.158a.338.338 0 0 0 .29.152.37.37 0 0 0 .135-.027.322.322 0 0 0 .122-.085c.036-.04.066-.092.09-.156s.034-.144.034-.24c0-.157-.033-.276-.1-.358a.328.328 0 0 0-.266-.121.42.42 0 0 0-.126.02.345.345 0 0 0-.128.076.41.41 0 0 0-.1.15.625.625 0 0 0-.04.243zm1.388-.484-.002-.146h.236l.002.203a.726.726 0 0 1 .034-.057.322.322 0 0 1 .07-.076.449.449 0 0 1 .3-.095c.03 0 .069.004.12.012.05.009.102.028.152.057s.094.072.13.13.056.133.056.23v.857h-.241v-.801c0-.042-.005-.081-.013-.118s-.027-.07-.055-.098a.283.283 0 0 0-.105-.064.357.357 0 0 0-.243.001c-.04.015-.074.039-.104.07s-.055.072-.073.119-.028.102-.028.165v.726h-.236v-1.115zm1.504-.693h.284v.258h-.284zm.025.547h.236v1.26h-.236zm.838.673c0 .065.005.126.018.18s.035.104.064.145.067.073.113.096.102.034.167.034c.077 0 .143-.021.199-.063s.088-.108.098-.199h.236c-.004.032-.011.072-.023.12s-.04.095-.085.144c-.014.015-.032.033-.055.053s-.053.039-.088.055-.077.031-.125.043a.708.708 0 0 1-.167.018c-.2 0-.346-.058-.442-.174s-.143-.272-.143-.472c0-.124.017-.236.05-.338A.498.498 0 0 1 18.83 14a.752.752 0 0 1 .25-.042c.094 0 .173.012.237.037a.442.442 0 0 1 .25.238.812.812 0 0 1 .06.308v.122zm.666-.166c0-.03-.002-.066-.007-.11s-.018-.082-.039-.12c-.021-.04-.052-.072-.094-.1s-.099-.041-.17-.041a.392.392 0 0 0-.119.018c-.04.013-.076.034-.11.063s-.059.068-.08.114-.034.106-.036.176zm.601-.251a2.205 2.205 0 0 0-.013-.256h.239l.005.244a.318.318 0 0 1 .216-.229.666.666 0 0 1 .249-.025v.231a.32.32 0 0 0-.076-.012h-.038c-.07 0-.127.01-.172.029s-.079.046-.104.08-.043.075-.053.122-.015.097-.015.15v.67h-.238zm1.107.417c-.002.065.004.126.017.18s.035.104.064.145.067.073.113.096.102.034.167.034c.077 0 .143-.021.199-.063s.088-.108.098-.199h.236c-.004.032-.011.072-.023.12s-.04.095-.085.144a.411.411 0 0 1-.143.108.667.667 0 0 1-.292.06c-.2 0-.346-.057-.442-.173s-.143-.272-.143-.472c0-.124.017-.236.05-.338a.498.498 0 0 1 .293-.305.752.752 0 0 1 .25-.042c.094 0 .173.012.237.037a.442.442 0 0 1 .25.238c.022.05.037.102.046.155s.014.103.014.152v.123zm.665-.166c0-.03-.002-.066-.007-.11s-.018-.082-.04-.12c-.02-.04-.051-.072-.093-.1s-.099-.041-.171-.041a.392.392 0 0 0-.118.018c-.04.013-.076.034-.11.063s-.059.068-.08.114-.034.106-.036.176z"/></svg>