<?xml version="1.0" encoding="UTF-8"?>
<svg version="1.1" viewBox="0 0 24 24" xml:space="preserve" xmlns="http://www.w3.org/2000/svg"><path d="m12.244 2 3.24e-4 1.9389c1.7007-0.00493 3.1953 0.54227 4.2762 1.5735 1.1005 1.0502 1.6292 2.4305 1.6468 4.0287h2.0512c-0.055629-1.0342-0.052974-3.3931-2.1368-5.4113-2.0768-2.0115-4.7605-2.1298-5.8377-2.1298zm0.0283 3.5424c-0.01032 0-0.01999 7.15e-4 -0.03032 7.15e-4v3.287e-4c-0.66717 0.00329-1.2671 0.10227-1.7987 0.29912-0.5396 0.19986-0.99927 0.46297-1.3793 0.78939-0.37972 0.32676-0.67285 0.70948-0.87937 1.1492-0.20685 0.43968-0.30973 0.89934-0.30973 1.3793 0 0.73312 0.1599 1.3227 0.47966 1.769 0.31976 0.44666 0.71947 0.80944 1.1991 1.0892 0.47965 0.2798 1.0026 0.4996 1.5692 0.65948 0.56625 0.15988 1.0892 0.32313 1.5692 0.48968 0.47965 0.16688 0.87935 0.35672 1.1991 0.56957 0.31976 0.21318 0.47966 0.51329 0.47966 0.89934 0 0.39971-0.17319 0.74945-0.5196 1.0492-0.34674 0.29978-0.87303 0.44967-1.5792 0.44967-0.01032 0-0.01999-3.2e-4 -0.03032-6.49e-4v3.29e-4c-0.23923-0.0016-0.45918-0.02802-0.66052-0.07791-3.33e-4 0-6.42e-4 8e-6 -9.86e-4 -3.29e-4 -0.03297-0.0083-0.06566-0.01701-0.09797-0.02671-0.0013-3.37e-4 -0.0026-8.22e-4 -0.0039-0.0016-0.03097-0.0093-0.06162-0.01923-0.0916-0.02959-0.0023-6.65e-4 -0.0047-0.0016-7e-3 -0.0025-0.02898-0.01036-0.05757-0.02104-0.08555-0.0323-0.0037-0.0016-7e-3 -0.0033-0.01035-0.0049-0.02664-0.01101-0.053-0.02227-0.07898-0.03427-5e-3 -0.0025-0.0096-0.0049-0.01464-0.0074-0.02432-0.01167-0.04831-0.02326-0.07163-0.03559-0.0063-0.0033-0.01267-0.0074-0.019-0.01068-0.02165-0.012-0.04329-0.02367-0.06427-0.03632-0.0083-0.0049-0.01594-0.01035-0.02427-0.01537-0.01865-0.01167-0.0377-0.02334-0.05601-0.03567-0.01066-0.0074-0.02064-0.01463-0.03097-0.02194-0.01532-0.01101-0.03094-0.02161-0.04593-0.03295-0.01366-0.01036-0.02636-0.02137-0.03969-0.03164-0.01132-0.0093-0.02296-0.018-0.03429-0.02761-0.02198-0.01865-0.04328-0.03797-0.0646-0.05794-2e-3 -0.0016-0.0044-0.0033-0.0064-0.0058-0.37339-0.35306-0.55955-0.80938-0.55955-1.369h-2.3986c0 0.59956 0.10289 1.1492 0.30973 1.6491 0.20651 0.49963 0.503 0.93298 0.88939 1.299 0.38638 0.36674 0.856 0.64952 1.4089 0.84938 0.0047 0.0016 0.0097 0.0033 0.01432 0.0049 0.06395 0.02301 0.12863 0.04462 0.19458 0.06492 0.0433 0.01331 0.08789 0.02507 0.13219 0.03698 0.02765 0.0074 0.05496 0.01594 0.08295 0.02326 0.06129 0.01561 0.12394 0.02958 0.18723 0.04298 0.01166 0.0025 0.02262 0.0049 0.03429 0.0082 0.07228 0.01496 0.14586 0.02835 0.22048 0.04035 0.0026 3.29e-4 5e-3 8.22e-4 0.0076 0.0016 0.30977 0.04997 0.63821 0.07528 0.98495 0.07692v-8.21e-4l6.51e-4 6.49e-4h0.02999c0.69282 0 1.3223-0.10295 1.8889-0.30979 0.56625-0.20652 1.0496-0.47964 1.4493-0.81939 0.3997-0.33975 0.70943-0.7228 0.92926-1.1492 0.21984-0.42636 0.32977-0.86601 0.32977-1.3193 0-0.75944-0.1599-1.3756-0.47966-1.849-0.31974-0.47289-0.71943-0.85594-1.1994-1.1491-0.47965-0.29312-1.0029-0.52628-1.5692-0.69949-0.56658-0.17287-1.0892-0.33975-1.5692-0.49963-0.47965-0.15988-0.87935-0.33979-1.1991-0.53964-0.31976-0.19985-0.47966-0.48627-0.47966-0.85933 0-0.34641 0.16654-0.6662 0.49963-0.95932 0.33309-0.29312 0.76942-0.43965 1.369-0.43965v-3.288e-4c0.01032-3.287e-4 0.01999 0 0.03032 0 0.59956 0 1.0659 0.15983 1.3993 0.47959 0.33309 0.31977 0.49963 0.7595 0.49963 1.3191h2.2986c0-0.57291-0.09993-1.1026-0.29978-1.5892-0.19986-0.48631-0.48661-0.90931-0.85933-1.2691-0.37339-0.35973-0.81641-0.63957-1.3294-0.83942-0.51329-0.19986-1.0829-0.29978-1.7091-0.29978zm-8.4901 8.695c0.034976 1.298 0.20621 3.7049 2.3556 5.7324 2.0648 1.9479 4.8638 2.0302 6.1065 2.0302v-1.9389c-1.8476-0.009698-3.3549-0.49896-4.475-1.4799-1.1192-0.97994-1.846-2.3426-1.8796-4.3438z"/></svg>
