<svg viewBox="0 0 24 24" xmlns="http://www.w3.org/2000/svg"><path d="M2.508 10.508a.505.505 0 0 0-.508.506v1.973c0 .28.227.505.508.505h18.984a.505.505 0 0 0 .508-.505v-1.973a.505.505 0 0 0-.508-.506H2.508zm12.64.117h6.345c.218 0 .39.17.39.389v1.973a.386.386 0 0 1-.39.388H14.79z"/><path d="m3.041 11.275.049.05.05.05-.017.017a.57.57 0 0 0-.139.47c.02.116.072.22.145.296l.014.013-.051.05-.051.048a.701.701 0 0 1-.168-.273.7.7 0 0 1-.031-.325.716.716 0 0 1 .187-.384zm1.21 0 .015.014a.704.704 0 0 1 .185.59.715.715 0 0 1-.187.38l-.012.01-.049-.049-.05-.05.013-.014a.675.675 0 0 0 .07-.09.565.565 0 0 0-.068-.674l-.016-.017zm3.276 0-.15 1.145a1.03 1.03 0 0 1-.303.041c-.06 0-.112-.01-.158-.03s-.084-.047-.113-.082a.309.309 0 0 1-.063-.127.61.61 0 0 1 .041-.336c.023-.05.051-.094.086-.13s.076-.065.121-.085a.387.387 0 0 1 .155-.029.33.33 0 0 1 .189.053l.053-.397zm3.051.06h.01c.025 0 .044.009.058.026.016.016.024.038.02.066s-.017.05-.037.067a.102.102 0 0 1-.066.025.082.082 0 0 1-.061-.025.08.08 0 0 1-.018-.067.101.101 0 0 1 .036-.066.104.104 0 0 1 .058-.025zm2.621.042h.028c.109 0 .187.025.234.076.048.05.067.12.055.213a.287.287 0 0 1-.037.105.607.607 0 0 1-.07.1c-.03.032-.06.063-.095.095l-.101.092-.068.06a1.317 1.317 0 0 0-.133.145.14.14 0 0 0-.028.059h.479l-.016.119h-.63l.001-.018.002-.015a.403.403 0 0 1 .04-.131.671.671 0 0 1 .076-.117.985.985 0 0 1 .097-.102l.106-.094.08-.07a.863.863 0 0 0 .068-.07.396.396 0 0 0 .053-.074.215.215 0 0 0 .025-.08.169.169 0 0 0-.004-.077.118.118 0 0 0-.084-.082.201.201 0 0 0-.066-.011.4.4 0 0 0-.234.1l-.057-.1a.393.393 0 0 1 .045-.036.434.434 0 0 1 .234-.087zm1.274 0h.021c.11 0 .188.046.236.14.05.094.062.228.04.403s-.07.31-.145.404c-.074.094-.166.14-.275.14s-.189-.046-.239-.14c-.048-.094-.062-.23-.039-.404s.071-.309.145-.403a.342.342 0 0 1 .256-.14zm-9.157.013h.067c.146 0 .255.028.326.084.072.055.1.138.086.248a.37.37 0 0 1-.053.155.322.322 0 0 1-.107.103.483.483 0 0 1-.155.057c-.06.012-.126.02-.199.02h-.117l-.05.384h-.145l.135-1.025a.81.81 0 0 1 .138-.02l.074-.006zm4.717.028-.031.242h.297l-.016.117h-.297l-.047.361a.435.435 0 0 0-.003.098c.002.025.01.045.02.06s.023.024.04.03a.18.18 0 0 0 .06.01.33.33 0 0 0 .104-.014l.057-.022.012.116a.529.529 0 0 1-.2.043.369.369 0 0 1-.13-.02c-.033-.014-.057-.035-.075-.062s-.027-.06-.031-.1a.687.687 0 0 1 .006-.137l.092-.699zm-5.947.025.02.021c.1.114.14.278.101.424a.473.473 0 0 1-.11.2l-.011.013-.049-.049c-.047-.049-.048-.048-.043-.052a.35.35 0 0 0 .084-.293.344.344 0 0 0-.08-.157l-.01-.011.05-.047zm-.875.002.002.002.049.049.045.043-.014.015a.336.336 0 0 0-.078.159.343.343 0 0 0 .078.28l.012.013-.05.048-.046.05-.02-.024a.473.473 0 0 1-.11-.383.477.477 0 0 1 .132-.252zm11.252.055a.153.153 0 0 0-.086.033.293.293 0 0 0-.076.092.64.64 0 0 0-.051.132 1.459 1.459 0 0 0-.03.163 1.409 1.409 0 0 0-.013.162c0 .05.006.096.016.134.01.038.03.07.052.092a.128.128 0 0 0 .092.033c.038 0 .07-.01.1-.033a.285.285 0 0 0 .074-.092.56.56 0 0 0 .05-.134 1.253 1.253 0 0 0 .044-.325.452.452 0 0 0-.016-.132.194.194 0 0 0-.05-.092.123.123 0 0 0-.092-.033h-.014zm-9.084.017c-.062 0-.111.001-.145.004l-.052.41h.109c.05 0 .096-.004.137-.01a.363.363 0 0 0 .105-.033.2.2 0 0 0 .072-.064.234.234 0 0 0 .038-.104.175.175 0 0 0-.012-.1.13.13 0 0 0-.055-.06.228.228 0 0 0-.088-.033.628.628 0 0 0-.11-.01zm-2.01.084.027.028.03.029-.006.008a.194.194 0 0 0-.002.21l.006.008-.028.028-.029.029a.27.27 0 0 1-.033-.053.326.326 0 0 1-.022-.072.328.328 0 0 1 .002-.105.304.304 0 0 1 .05-.104zm.557.002c.002 0 .019.023.027.037a.278.278 0 0 1-.017.29c-.005.005-.007.011-.008.011l-.03-.03-.027-.027.01-.017a.196.196 0 0 0-.004-.197.034.034 0 0 1-.006-.012c0-.003.052-.055.055-.055zm-.274.014a.16.16 0 0 1 .037.004.16.16 0 0 1 .116.115.2.2 0 0 1-.004.086.161.161 0 0 1-.102.101.151.151 0 0 1-.043.006.13.13 0 0 1-.072-.015.156.156 0 0 1 .068-.297zm2.598.023h.02c.053 0 .102.01.144.03a.263.263 0 0 1 .104.084c.028.036.049.08.06.13.012.05.012.105.004.166a.536.536 0 0 1-.049.168.46.46 0 0 1-.094.131.402.402 0 0 1-.126.084.399.399 0 0 1-.15.028.288.288 0 0 1-.25-.111.342.342 0 0 1-.06-.132.475.475 0 0 1-.003-.168.528.528 0 0 1 .14-.296.406.406 0 0 1 .26-.114zm1.78 0h.02a.597.597 0 0 1 .202.037l-.049.12a.384.384 0 0 0-.156-.033.254.254 0 0 0-.19.074.37.37 0 0 0-.09.214.452.452 0 0 0-.001.116.22.22 0 0 0 .033.09.179.179 0 0 0 .072.058c.03.013.07.02.115.02a.46.46 0 0 0 .176-.034l.004.12-.037.013c-.016.004-.033.009-.053.012a.582.582 0 0 1-.062.008.397.397 0 0 1-.225-.025.285.285 0 0 1-.166-.212.528.528 0 0 1-.002-.166.471.471 0 0 1 .268-.38.411.411 0 0 1 .14-.032zm.605 0h.037c.055 0 .1.009.137.024a.18.18 0 0 1 .086.06c.02.026.033.059.039.096a.434.434 0 0 1-.002.12l-.065.487-.05.01-.075.01c-.027.003-.057.004-.09.006a.991.991 0 0 1-.093.006.483.483 0 0 1-.12-.014.248.248 0 0 1-.091-.043.168.168 0 0 1-.053-.078.255.255 0 0 1-.008-.115.255.255 0 0 1 .041-.112.26.26 0 0 1 .082-.074.382.382 0 0 1 .111-.043.59.59 0 0 1 .17-.01.634.634 0 0 1 .078.012l.02.004.006-.039a.304.304 0 0 0 0-.068.124.124 0 0 0-.018-.059.108.108 0 0 0-.048-.043.187.187 0 0 0-.086-.015.652.652 0 0 0-.202.029l-.002-.115a.72.72 0 0 1 .195-.035zm.806 0a.462.462 0 0 1 .125.014.413.413 0 0 1 .05.01l.032.011-.04.12a.407.407 0 0 0-.182-.037.227.227 0 0 0-.106.023.089.089 0 0 0-.052.072.101.101 0 0 0 .002.045.108.108 0 0 0 .025.037.32.32 0 0 0 .047.03c.019.009.041.017.068.027.035.014.067.029.094.043a.24.24 0 0 1 .068.047.141.141 0 0 1 .04.064.225.225 0 0 1 .003.094.216.216 0 0 1-.101.164.436.436 0 0 1-.237.057.543.543 0 0 1-.236-.045l.041-.12c.015.007.04.014.074.026a.41.41 0 0 0 .137.02c.057 0 .1-.009.129-.024a.089.089 0 0 0 .05-.072c.005-.034-.004-.06-.029-.08a.544.544 0 0 0-.125-.069l-.082-.035c-.025-.013-.046-.028-.064-.045s-.032-.038-.041-.062-.01-.053-.006-.088a.23.23 0 0 1 .098-.164.366.366 0 0 1 .218-.063zm1.678.004h.05c.063 0 .113.008.151.026a.19.19 0 0 1 .088.074.24.24 0 0 1 .037.113.654.654 0 0 1-.004.147l-.056.437h-.14l.054-.408a.62.62 0 0 0 .006-.123.176.176 0 0 0-.022-.082.107.107 0 0 0-.054-.047.242.242 0 0 0-.092-.014l-.045.002-.049.004a.433.433 0 0 0-.04.004l-.024.004-.086.66h-.141l.102-.758a1.931 1.931 0 0 1 .265-.039zm.914 0h.024a.83.83 0 0 1 .168.014c.048.009.087.017.119.025l-.092.7c-.016.12-.058.205-.127.26a.472.472 0 0 1-.295.081.739.739 0 0 1-.246-.04l.041-.122a.56.56 0 0 0 .225.041c.083 0 .145-.016.185-.049.042-.033.067-.086.076-.158l.004-.033a.45.45 0 0 1-.197.05.37.37 0 0 1-.13-.023.24.24 0 0 1-.099-.068.296.296 0 0 1-.058-.12.497.497 0 0 1 .041-.324.412.412 0 0 1 .361-.234zm-1.558.016h.14l-.103.781h-.139zm-4.233.103a.224.224 0 0 0-.16.078.379.379 0 0 0-.086.21c-.012.088-.003.158.03.21a.17.17 0 0 0 .152.077.222.222 0 0 0 .172-.077.382.382 0 0 0 .087-.21.306.306 0 0 0-.033-.21c-.032-.052-.082-.078-.15-.078h-.012zm.887.002a.233.233 0 0 0-.17.082c-.021.025-.038.055-.05.09s-.02.073-.026.113c-.012.092 0 .163.039.213.038.05.095.073.17.073a.591.591 0 0 0 .158-.016l.064-.494a.252.252 0 0 0-.17-.06H7.13zm4.885.002a.238.238 0 0 0-.157.073.345.345 0 0 0-.085.197.343.343 0 0 0 .002.115.21.21 0 0 0 .035.08.158.158 0 0 0 .062.045c.025.01.05.016.076.016a.359.359 0 0 0 .106-.016.306.306 0 0 0 .078-.037l.06-.457a.567.567 0 0 0-.15-.016h-.027zm-8.452.225h.086c.048 0 .086.001.086.002l-.01.076-.044.34-.024.172-.013.101-.004.033-.002.008h-.172l.002-.006.008-.056.04-.315.042-.308zm5.051.088c-.011 0-.023.002-.035.004a.231.231 0 0 0-.068.02.154.154 0 0 0-.053.038.112.112 0 0 0-.027.065c-.007.05.003.085.033.105.03.02.072.03.127.03.033 0 .063-.002.088-.003a.458.458 0 0 0 .066-.01l.031-.232a.448.448 0 0 0-.129-.018h-.033zm5.145.18h.01c.03 0 .055.01.07.03s.021.044.017.07a.115.115 0 0 1-.035.071.108.108 0 0 1-.078.03c-.03 0-.055-.01-.07-.03a.09.09 0 0 1-.018-.07.117.117 0 0 1 .037-.07.107.107 0 0 1 .067-.032z" fill="#fff"/><path d="M19.018 11.275c-.105 0-.186.027-.242.082a.38.38 0 0 0-.104.232l-.113.852h.14l.089-.664h.3l.016-.117h-.3l.007-.069a.264.264 0 0 1 .059-.142c.03-.036.079-.053.144-.053a.257.257 0 0 1 .111.02l.036-.121a.457.457 0 0 0-.143-.02zm2.147 0-.143.023-.05.397a.341.341 0 0 0-.191-.053.377.377 0 0 0-.275.113.46.46 0 0 0-.088.131.609.609 0 0 0-.039.336.295.295 0 0 0 .176.209.39.39 0 0 0 .158.03 1.004 1.004 0 0 0 .301-.041l.15-1.145zm-2.78.06a.104.104 0 0 0-.058.026.1.1 0 0 0-.036.066.08.08 0 0 0 .018.067.082.082 0 0 0 .06.025c.026 0 .048-.01.067-.025a.1.1 0 0 0 .037-.067.076.076 0 0 0-.02-.066.073.073 0 0 0-.058-.025h-.01zm.967 0a.104.104 0 0 0-.059.026.1.1 0 0 0-.035.066.08.08 0 0 0 .018.067.082.082 0 0 0 .06.025c.025 0 .048-.01.067-.025a.1.1 0 0 0 .037-.067.076.076 0 0 0-.02-.066.073.073 0 0 0-.058-.025h-.01zm-3.527.042a.55.55 0 0 0-.475.312c-.035.067-.059.143-.07.23s-.01.167.004.235a.356.356 0 0 0 .22.273.498.498 0 0 0 .196.037.86.86 0 0 0 .285-.046.304.304 0 0 0 .04-.02l-.023-.121a.595.595 0 0 1-.273.059.336.336 0 0 1-.148-.03.248.248 0 0 1-.098-.084.341.341 0 0 1-.049-.133.628.628 0 0 1 .002-.17.616.616 0 0 1 .047-.171.373.373 0 0 1 .213-.215.399.399 0 0 1 .228-.022.397.397 0 0 1 .123.037.209.209 0 0 1 .037.02l.059-.12a.266.266 0 0 0-.092-.042.615.615 0 0 0-.2-.03h-.026zm2.015.04-.142.024-.092.7a.686.686 0 0 0-.006.136.231.231 0 0 0 .031.1.165.165 0 0 0 .075.062c.033.013.077.02.13.02a.576.576 0 0 0 .2-.043l-.012-.116-.057.022a.328.328 0 0 1-.103.014.192.192 0 0 1-.063-.01.082.082 0 0 1-.04-.03.136.136 0 0 1-.018-.06.438.438 0 0 1 .004-.098l.046-.361h.295l.016-.117h-.295l.031-.242zm-1.285.223a.391.391 0 0 0-.242.102.463.463 0 0 0-.098.13.534.534 0 0 0-.052.18.555.555 0 0 0 0 .164.3.3 0 0 0 .054.127.284.284 0 0 0 .112.086c.047.02.105.032.173.032a.652.652 0 0 0 .24-.045l-.003-.118a.558.558 0 0 1-.205.037c-.088 0-.148-.02-.184-.062-.036-.042-.052-.104-.047-.186h.535l.004-.025.004-.023c.018-.135.003-.234-.045-.3-.047-.065-.123-.099-.228-.099h-.018zm3.373 0a.391.391 0 0 0-.244.102.534.534 0 0 0-.15.31.552.552 0 0 0 .002.164.3.3 0 0 0 .054.127.284.284 0 0 0 .112.086c.047.02.103.032.171.032a.652.652 0 0 0 .24-.045l-.003-.118a.558.558 0 0 1-.205.037c-.088 0-.148-.02-.184-.062-.035-.042-.051-.104-.047-.186h.535c.002-.008.005-.016.006-.025l.004-.023c.018-.135.003-.234-.045-.3-.047-.065-.125-.099-.23-.099h-.016zm-2.584.004a1 1 0 0 0-.252.049l-.098.748h.141l.086-.656.05-.01a.371.371 0 0 1 .177 0c.025.005.044.008.054.012l.04-.121a.171.171 0 0 0-.028-.006.33.33 0 0 0-.04-.008.348.348 0 0 0-.046-.006c-.015-.002-.027-.002-.039-.002h-.045zm.938.016-.102.781h.139l.103-.781h-.14zm.966 0-.101.781h.139l.103-.781h-.14zm-2.705.1h.012c.057 0 .098.019.125.06.028.04.039.093.03.156h-.39a.414.414 0 0 1 .03-.08.276.276 0 0 1 .049-.068.238.238 0 0 1 .068-.05.195.195 0 0 1 .076-.019zm3.373 0h.012c.057 0 .098.019.125.06.028.04.037.093.027.156h-.386a.283.283 0 0 1 .145-.197.205.205 0 0 1 .077-.02zm.852.005h.014a.262.262 0 0 1 .171.06l-.066.495a.539.539 0 0 1-.156.016c-.075 0-.132-.024-.17-.073-.039-.05-.053-.121-.041-.213.005-.04.015-.078.027-.113s.03-.065.05-.09a.225.225 0 0 1 .17-.082z"/></svg>