<svg viewBox="0 0 24 24" xmlns="http://www.w3.org/2000/svg"><path d="M7.371 12.632c.252-3.723 1.203-4.776 4.664-4.468 2.901.257 3.5 1.318 3.564 3.113.075 2.133.437 2.984-2.272 4.457-.49.266-2.566 1.304-3.345 1.734-1.295.714-.65 2.243-.121 3.608.276.712 2.994-.422 4.48-1.086 2.321-1.037 3.737-1.472 5.234-3.04 1.663-1.743 2.512-3.963 2.286-6.713-.38-4.62-4.932-8.636-10.144-8.206C5.945 2.506 2.579 8.53 2.17 13.88c-.093 1.236-.148 5.122.24 7.19 0 .004.325.912 2.041.926 1.273.011 3.033.044 2.961-.597-.47-4.189-.24-5.84-.042-8.766z" fill-rule="evenodd"/></svg>