<svg viewBox="0 0 24 24" xmlns="http://www.w3.org/2000/svg"><path d="M4.088 21.974a.481.481 0 0 1-.248-.228l-.044-.087V14.03h1.209c.003 2.152-.01 3.986.016 6.166.364-.19.653-.348 1.032-.556l.593 1.032a42.49 42.49 0 0 1-1.75 1.034c-.482.28-.513.294-.638.293a.642.642 0 0 1-.17-.026zm2.75-2.58c.357-1.188.751-2.306 1.13-3.527l-1.428-1.28c-.033-.22-.064-.457-.093-.665a1.988 1.988 0 0 0-.035-.219c-.017-.055-.526-.696-.553-.696-.938.285-1.788.555-2.617.817-.031.01-.279-.35-.304-.442-.063-.285-.102-.507-.16-.806.01-.186.057-.372.085-.552.773-.33 1.564-.64 2.38-.987a.541.541 0 0 0 .021-.127l.027-.302c.01-.107.02-.226.026-.265l.009-.072c1.17-.58 2.34-1.166 3.496-1.77.06-.217.075-.398.119-.629.156-.122.298-.179.478-.287.744.04 1.491.078 2.235.107a.848.848 0 0 0 .078-.135c.176-.346.479-.693.845-.968.104-.077.139-.115.17-.183.113-.246.111-.244.175-.262a2.39 2.39 0 0 1 .164-.036c.097-.018.105-.017.18.027l.08.047.112-.035c.328-.1.495-.125.868-.125.327 0 .463.016.742.087a2.957 2.957 0 0 1 2.22 2.87c0 .765-.274 1.457-.806 2.036-.208.227-.55.475-.872.632-.334.163-.82.286-1.133.286-.102 0-.11.003-.133.048-.027.051-.034.053-.35.081l-.112.01-.118-.111c-.065-.062-.133-.112-.15-.112s-.112-.026-.21-.06a.84.84 0 0 0-.192-.05c-.008.005-.019.034-.023.064-.426 2.103-.866 4.219-1.256 6.092-1.441.843-3.002 1.785-4.342 2.562-.28-.351-.47-.654-.754-1.064zm.894.485a634.572 634.572 0 0 0 3.89-2.115c.432-2.26.787-3.98 1.196-6.168.01-.06.01-.061-.144-.164l-2.778-1.178a.161.161 0 0 0-.058-.018l-.28.92c.675.436 1.068.704 1.701 1.126l-1.587.88c-.13.303-.25.613-.372.918.112.432.236.834.363 1.268l-.933-1.275c.151-.393.33-.81.496-1.213-.796.187-1.559.413-2.33.635.005.361.029.756.043 1.075.567.472.998.866 1.505 1.324-.34 1.124-.7 2.259-1.059 3.397-.088.27-.09.259.086.458.084.094.16.172.17.172s.05-.02.091-.042zm-1.174-6.753c.044-.014.159-.04.448-.105.1-.022.117-.045.073-.096-.295-.42-.596-.865-.894-1.302.045-.482.063-.989.083-1.403l-.621.252c-.016.35-.027.717-.038 1.042-.014.456-.013.462.022.515.114.17.842 1.113.859 1.113a.333.333 0 0 0 .068-.016zm1.702-.411c-.346-.541-.626-.942-1.012-1.512.034-.52.07-1.062.096-1.535-.25.105-.431.21-.69.337-.03.598-.061 1.107-.092 1.644.29.435.55.818.84 1.246a.06.06 0 0 0 .066.02c.256-.04.56-.14.792-.2zm1.155-.267c-.338-.524-.604-.917-.975-1.473.136-.705.226-1.435.302-2.008-.012-.005-.947.458-.972.48-.102.553-.138 1.05-.195 1.703.346.511.678.98 1.045 1.505.251-.043.539-.139.795-.207zm.548-.112.636-.167c-.517-.301-.925-.538-1.469-.86-.012-.02.39-1.224.422-1.263a.716.716 0 0 1 .13-.087l.108-.06c.216.096.469.164.676.237.092-.55.163-1.15.245-1.719a.658.658 0 0 1 .247-.067c.005.006.001.102-.01.215a.928.928 0 0 0-.006.218c.008.007.05-.001.096-.02l.207-.08a.418.418 0 0 0 .137-.073c.016-.031.104-.487.096-.495-.615-.1-1.317-.197-1.9-.28l-.118.071c-.248.151-.255.158-.265.247-.128.957-.247 1.824-.364 2.728 0 .06-.028.017.657 1.023.353.517.302.47.475.432zm4.883-.891a2.77 2.77 0 0 0 .844-.311c.405-.239.728-.606.927-1.054.049-.11.113-.324.143-.48.031-.162.033-.385.002-.385-.053 0-.076.048-.109.224-.027.15-.042.19-.081.234-.126.137-.361.382-.459.478-.15.146-.642.533-.746.586a2.76 2.76 0 0 1-.797.257c-.35.052-.337.051-.452.024a7.109 7.109 0 0 1-.14-.035.717.717 0 0 1-.137-.163 1.462 1.462 0 0 1-.19-.38l-.083-.227-.062-.005c-.097-.008-.097-.013.004.366.028.106.058.216.067.245.008.028.089.162.18.298.176.265.197.284.393.339.086.025.528.017.696-.011zm-1.708-.572a2.259 2.259 0 0 1-.045-.215 1.963 1.963 0 0 0-.035-.176 4.044 4.044 0 0 1-.05-.243c-.049-.265-.07-.353-.085-.343-.033.02-.049.183-.03.318.031.24.026.245-.12.08-.144-.163-.143-.161-.232-.45-.114-.367-.129-.526-.086-.906a.813.813 0 0 1 .09-.341l.067-.14-.03-.254-.045-.39a2.47 2.47 0 0 1-.004-.33c.007-.13.005-.198-.006-.198-.056 0-.34.459-.42.68a2.085 2.085 0 0 0-.146.822c0 .308.014.414.094.695.141.493.34.853.62 1.119.17.16.463.386.48.369a.307.307 0 0 0-.017-.097zm.081-1.787c.031-.069.041-.11.034-.147a8.211 8.211 0 0 1-.043-.303c-.04-.315-.08-.601-.094-.684-.009-.048.008-.136.069-.36l.08-.298.117-.12a.573.573 0 0 1 .278-.182l.196-.076c.11-.047.384-.134.47-.15.382-.067.416-.07.564-.042.077.014.17.033.204.04.059.014.066.01.105-.04a.223.223 0 0 0 .041-.072c0-.019-.226-.095-.47-.158-.12-.031-.188-.037-.444-.037a2.016 2.016 0 0 0-.812.134c-.193.07-.448.202-.489.254a.396.396 0 0 0-.048.134l-.034.164c-.07.303-.07.302-.002.78l.034.26.035.277.032.252c.013.103.067.362.093.448.014.044.042.019.084-.074zm-.107 7.776c-.202-.329-.381-.682-.547-.989 2.157-1.283 4.622-2.68 6.464-3.742.113-.065.205-.123.205-.13-.67-.401-1.207-.709-1.913-1.139 0-.022.557-1 .588-1.032.008-.009.045.003.086.026.976.564 1.999 1.156 2.967 1.708.034 0 .185.159.22.23a.52.52 0 0 1-.006.418c-.039.076-.18.225-.214.225-2.36 1.353-5.009 2.886-7.618 4.392l-.108.065c-.053.036-.088.027-.124-.032zM3.797 2.342c.013-.117.01-.137.052-.234.029-.067.062-.099.171-.135.101-.015.158-.016.245.026l7.401 4.222c0 .02-.557 1.002-.588 1.037L5.02 3.803c-.027 2.403-.016 4.115-.016 6.75l-1.208.02V2.342z"/></svg>