<svg xmlns="http://www.w3.org/2000/svg" viewBox="0 0 24 24">
  <path d="M5.661 16.878c-4.01-5.123-.333-12.851 6.25-12.876 7.48-.05 10.901 9.256 5.3 14.062a.066.066 0 0 0 .025.114c.623.195 1.18.54 1.628.995a.066.066 0 0 0 .094.002A9.97 9.97 0 0 0 22 12.09C22.049 6.586 17.582 2.042 12.076 2 3.42 1.907-1.21 12.34 4.555 18.67a.067.067 0 0 0 .11-.019c.26-.608.594-1.178.995-1.695a.065.065 0 0 0 0-.08l.001.001Zm3.375 2.282c.708-.75 1.763-1.171 2.985-1.171 3.397.061 6.343-3.127 5.965-6.528C17.042 3.928 6.335 4.406 6 11.934c0 .037.03.067.067.067h1.867c.037 0 .065-.03.066-.066.301-5.247 7.842-5.191 8.008.106-.021 2.163-1.873 3.934-4.036 3.948-3.426-.027-5.98 2.555-5.975 5.944 0 .037.03.067.067.067h11.868c.037 0 .067-.03.067-.066a1.933 1.933 0 0 0-1.934-1.933H8.56a.067.067 0 0 1-.059-.098c.147-.273.326-.523.533-.743h.001ZM14 12a2 2 0 1 1-4 0 2 2 0 0 1 4 0Z"/>
</svg>