<?xml version="1.0" encoding="UTF-8"?>
<svg version="1.1" viewBox="0 0 24 24" xmlns="http://www.w3.org/2000/svg">
 <style type="text/css">.st0{fill:#FFFFFF;}
	.st1{fill:#8DC742;}</style>
 <path d="m2.5078 10.508c-0.28098 0-0.50781 0.22488-0.50781 0.50586v1.9727c0 0.28098 0.22683 0.50586 0.50781 0.50586h18.984c0.28098 0 0.50781-0.22488 0.50781-0.50586v-1.9727c0-0.28098-0.22683-0.50586-0.50781-0.50586h-18.984zm12.641 0.11719h6.3438c0.21855 1e-6 0.39062 0.17066 0.39062 0.38867v1.9727c1e-6 0.21801-0.17208 0.38867-0.39062 0.38867h-6.7031z" stroke-width=".072456"/>
 <path d="m3.041 11.275 0.048828 0.05078 0.050781 0.04883-0.017578 0.01758c-0.078613 0.08662-0.12715 0.19435-0.14258 0.3125-0.00516 0.03952-0.00284 0.12039 0.00391 0.1582 0.020548 0.11518 0.071692 0.22001 0.14453 0.29492l0.013672 0.01367-0.050781 0.04883c-0.027064 0.02707-0.050013 0.04881-0.050781 0.04883-0.00234 5e-5 -0.028345-0.02776-0.048828-0.05273-0.051844-0.06322-0.093563-0.14269-0.11914-0.2207-0.018495-0.05641-0.030146-0.10459-0.035156-0.1582-0.00389-0.0416-0.00208-0.12894 0.00391-0.16602 0.024113-0.14919 0.086193-0.27652 0.1875-0.38477zm1.2109 0 0.013672 0.01367c0.047618 0.05005 0.088518 0.10934 0.12109 0.17578 0.035983 0.07338 0.058959 0.14889 0.068359 0.23047 0.00522 0.04527 0.0029 0.13981-0.00391 0.18359-0.020099 0.12919-0.076274 0.25327-0.16016 0.35156-0.00894 0.01047-0.021354 0.0235-0.027344 0.0293l-0.011719 0.0098-0.048828-0.04883-0.050781-0.05078 0.013672-0.01367c0.017047-0.01707 0.055407-0.06507 0.070312-0.08984 0.028105-0.04671 0.050805-0.10225 0.064453-0.15625 0.036213-0.14327 0.013948-0.29658-0.0625-0.42578-0.016527-0.02793-0.048961-0.06894-0.070312-0.0918l-0.015621-0.01762zm3.2754 0-0.15039 1.1445c-0.033257 9e-3 -0.075656 0.01832-0.12695 0.02734-0.051297 9e-3 -0.11064 0.01367-0.17578 0.01367-0.060134-4e-6 -0.11261-0.01026-0.1582-0.0293s-0.083822-0.04695-0.11328-0.08203c-0.029459-0.03508-0.050058-0.07685-0.0625-0.12695-0.011311-0.05111-0.012217-0.10874-0.00391-0.17188 0.00792-0.06013 0.023292-0.11395 0.044922-0.16406 0.022633-0.05011 0.051121-0.09478 0.085937-0.13086s0.075362-0.06394 0.12109-0.08398c0.046735-0.02005 0.098174-0.0293 0.1543-0.0293 0.045099 0 0.082744 0.0056 0.11523 0.01758 0.033493 0.01203 0.058634 0.02413 0.074219 0.03516l0.052734-0.39648zm3.0508 0.06055c0.0031-2.7e-4 0.0066-1e-6 0.0098 0 0.02505-3e-6 0.0438 0.0084 0.05859 0.02539 0.01593 0.01603 0.02323 0.03835 0.01953 0.06641s-0.0168 0.04937-0.03711 0.06641c-0.01915 0.01603-0.04135 0.02539-0.06641 0.02539-0.02505 0-0.04462-0.0094-0.06055-0.02539-0.01479-0.01704-0.02127-0.03835-0.01758-0.06641 0.0037-0.02806 0.01598-0.05037 0.03516-0.06641 0.01774-0.01491 0.03719-0.02353 0.05859-0.02539zm2.6211 0.04101c0.0088-5.64e-4 0.01832 0 0.02734 0 0.10924 0 0.18698 0.02506 0.23438 0.07617 0.04852 0.05011 0.06683 0.12069 0.05469 0.21289-0.0047 0.03608-0.01758 0.0714-0.03711 0.10547-0.01839 0.03307-0.04191 0.06654-0.07031 0.09961-0.02827 0.03207-0.05946 0.06364-0.09375 0.0957-0.03415 0.03107-0.06753 0.06173-0.10156 0.0918-0.01928 0.01704-0.04227 0.0375-0.06836 0.06055-0.02508 0.02305-0.04892 0.04721-0.07226 0.07226s-0.04348 0.04921-0.06055 0.07227c-0.01606 0.02305-0.0251 0.04156-0.02734 0.05859h0.47852l-0.01563 0.11914h-0.63086c-2.12e-4 -6e-3 0.0012-0.01155 2e-3 -0.01758 8e-4 -6e-3 0.0013-0.0106 2e-3 -0.01563 0.0062-0.04711 0.01875-0.09078 0.03906-0.13086 0.02145-0.04109 0.04637-0.08111 0.07617-0.11719 0.02981-0.03608 0.06237-0.06949 0.09766-0.10156 0.03529-0.03207 0.07145-0.06368 0.10547-0.09375 0.02822-0.02405 0.05499-0.04727 0.08008-0.07031 0.02622-0.02405 0.04829-0.04726 0.06836-0.07031 0.02121-0.02405 0.03941-0.04917 0.05274-0.07422 0.01432-0.02505 0.02169-0.05202 0.02539-0.08008 0.0039-0.03007 0.0033-0.05513-0.0039-0.07617-0.0063-0.02105-0.01708-0.03871-0.03125-0.05273-0.01419-0.01403-0.03147-0.02328-0.05273-0.0293-0.02012-7e-3 -0.04235-0.01172-0.06641-0.01172-0.02907 0-0.05692 0.0057-0.08203 0.01367-0.02511 8e-3 -0.04787 0.01632-0.06836 0.02734-0.02036 0.01002-0.03617 0.02118-0.05078 0.0332-0.01448 0.01103-0.0254 0.01938-0.0332 0.02539l-0.05676-0.09959c0.01034-0.01002 0.02504-0.02112 0.04492-0.03516 0.02002-0.01503 0.04355-0.02994 0.07031-0.04297 0.02677-0.01303 0.05564-0.02223 0.08789-0.03125 0.02419-0.0068 0.04983-0.01198 0.07617-0.01367zm1.2734 0c0.0067-3.68e-4 0.01466 0 0.02149 0 0.10924 0 0.1876 0.04642 0.23633 0.14062 0.04973 0.09421 0.06202 0.22796 0.03906 0.40234s-0.06999 0.31009-0.14453 0.4043c-0.07353 0.09421-0.16615 0.14062-0.27539 0.14062s-0.18855-0.04642-0.23828-0.14062c-0.04873-0.09421-0.06202-0.22991-0.03906-0.4043s0.071-0.30814 0.14453-0.40234c0.06988-0.08832 0.15548-0.1351 0.25586-0.14062zm-9.1562 0.01367c0.023433-1e-3 0.045361 0 0.066406 0 0.14632 0 0.25539 0.02786 0.32617 0.08398 0.071916 0.05512 0.10045 0.1378 0.085937 0.24805-0.00792 0.06013-0.025013 0.1112-0.052734 0.1543-0.026588 0.04209-0.062769 0.07645-0.10742 0.10352-0.043519 0.02606-0.094585 0.04461-0.1543 0.05664-0.059712 0.01203-0.12606 0.01953-0.19922 0.01953h-0.11719l-0.050781 0.38476h-0.14453l0.13477-1.0254c0.042409-0.01002 0.088166-0.01653 0.13867-0.01953 0.02582-2e-3 0.050786-0.0049 0.074219-0.0059zm4.7168 0.02734-0.03125 0.24219h0.29688l-0.01563 0.11719h-0.29687l-0.04687 0.36133c-0.0052 0.03909-0.0065 0.0716-0.0039 0.09766 0.0027 0.02505 0.0095 0.04551 0.01953 0.06055 0.01018 0.01403 0.02377 0.02328 0.04102 0.0293 0.01725 6e-3 0.03649 0.0098 0.06055 0.0098 0.04209-4e-6 0.07727-0.0047 0.10352-0.01367 0.02737-0.01002 0.04609-0.01747 0.05664-0.02149l0.01172 0.11524c-0.01495 7e-3 -0.03977 0.01536-0.07617 0.02539-0.03653 0.01103-0.07795 0.01758-0.12305 0.01758-0.05312 0-0.0975-0.0065-0.13086-0.01953-0.03223-0.01403-0.05674-0.03544-0.07422-0.0625s-0.02738-0.06052-0.03125-0.09961c-0.0027-0.04009-1e-3 -0.0846 0.0059-0.13672l0.0918-0.69922zm-5.9473 0.02539 0.019531 0.02149c0.10063 0.11353 0.13962 0.27751 0.10156 0.42383-0.019534 0.07514-0.057186 0.14134-0.10938 0.19922-0.00611 0.0068-0.010938 0.01338-0.011719 0.01367-7.76e-4 3.11e-4 -0.022716-0.02188-0.048828-0.04883-0.0474-0.0489-0.047639-0.04853-0.042969-0.05273 0.00771-0.0069 0.032772-0.03993 0.042969-0.05664 0.020747-0.034 0.036559-0.08002 0.042969-0.12109 0.00467-0.0299 0.00389-0.08874-0.00195-0.11524-0.012996-0.05898-0.037103-0.1053-0.080078-0.15625l-0.00977-0.01172 0.048828-0.04687zm-0.875 2e-3 0.00195 2e-3c0.0026 0.0022 0.024347 0.02454 0.048828 0.04883l0.044922 0.04297-0.013672 0.01563c-0.037486 0.04085-0.06585 0.09743-0.078125 0.1582-0.00608 0.03012-0.00459 0.09555 0.00195 0.125 0.013099 0.05905 0.037582 0.10967 0.076172 0.1543l0.011719 0.01367-0.048828 0.04883-0.046875 0.04883-0.019531-0.02344c-0.06254-0.07056-0.10196-0.16168-0.11328-0.25977-0.00327-0.02836-0.0029-0.09629 0.00195-0.12305 0.011125-0.0614 0.032727-0.11468 0.0625-0.16406 0.016466-0.02731 0.025464-0.04136 0.048828-0.06836 0.014033-0.01622 0.018554-0.02011 0.021484-0.01953zm11.252 0.05465c-0.03234 0.0025-0.06048 0.01303-0.08594 0.0332-0.02896 0.02205-0.05513 0.05371-0.07617 0.0918-0.02005 0.03808-0.03703 0.0817-0.05078 0.13281-0.01274 0.05112-0.02178 0.10499-0.0293 0.16211-0.0075 0.05712-0.01296 0.11099-0.01367 0.16211 2.88e-4 0.05111 0.0056 0.09668 0.01563 0.13477 0.01102 0.03808 0.02971 0.06874 0.05274 0.0918 0.02315 0.02205 0.05371 0.0332 0.0918 0.0332 0.03808 0 0.07065-0.01116 0.09961-0.0332 0.02909-0.02305 0.05417-0.05372 0.07422-0.0918 0.02105-0.03809 0.03803-0.08366 0.05078-0.13477 0.01375-0.05111 0.02373-0.10499 0.03125-0.16211 0.0075-0.05713 0.01201-0.111 0.01172-0.16211 7.33e-4 -0.05111-0.0046-0.09473-0.01563-0.13281-0.01002-0.03809-0.02763-0.06975-0.05078-0.0918-0.02302-0.02305-0.05371-0.0332-0.0918-0.0332-0.0048 0-0.0091-3.6e-4 -0.01367 0zm-9.084 0.01758c-0.062137 0-0.11106 9.06e-4 -0.14453 0.0039l-0.052734 0.41016h0.10938c0.05011 0 0.095841-0.0038 0.13672-0.0098 0.041011-7e-3 0.076431-0.01817 0.10547-0.0332 0.030173-0.01603 0.05367-0.03739 0.072266-0.06445 0.018595-0.02706 0.031567-0.06142 0.037109-0.10352 0.00528-0.04009 8.879e-4 -0.07355-0.011719-0.09961-0.011603-0.02606-0.029608-0.04551-0.054687-0.06055-0.023946-0.01603-0.053606-0.02719-0.087891-0.0332-0.034284-6e-3 -0.070287-0.0098-0.10938-0.0098zm-2.0098 0.08398 0.027344 0.02734 0.029297 0.0293-0.00586 0.0078c-0.042053 0.0666-0.043238 0.14414-0.00195 0.21094l0.00586 0.0078-0.027344 0.02734c-0.015162 0.01533-0.028398 0.0293-0.029297 0.0293-0.00281 0-0.026383-0.03764-0.033203-0.05273-0.00918-0.02031-0.017344-0.04848-0.021484-0.07227-0.00481-0.02759-0.0046-0.07932 0.00195-0.10547 0.00909-0.0363 0.030585-0.08162 0.048828-0.10352zm0.55664 2e-3c0.00227 0 0.019264 0.02239 0.027344 0.03711 0.037547 0.06844 0.042612 0.15252 0.015625 0.22656-0.00741 0.02034-0.021929 0.04714-0.033203 0.0625-0.00432 0.0059-0.00698 0.0118-0.00781 0.01172-8.19e-4 -7e-5 -0.01445-0.01377-0.029297-0.0293l-0.027344-0.02734 0.00977-0.01758c0.03408-0.05963 0.032899-0.14311-0.00391-0.19727-0.00322-0.0047-0.00586-0.0098-0.00586-0.01172 0-0.0032 0.051578-0.05469 0.054687-0.05469zm-0.27344 0.01367c0.013753 0 0.027239 0.0014 0.037109 0.0039 0.057055 0.01472 0.10112 0.05884 0.11523 0.11523 0.00532 0.02124 0.00315 0.06616-0.00391 0.08594-0.017454 0.04889-0.054652 0.08673-0.10156 0.10156-0.01149 0.0036-0.023275 0.0053-0.042969 0.0059-0.030706 9.36e-4 -0.048376-0.0035-0.072266-0.01563-0.07819-0.03965-0.1106-0.13235-0.072266-0.20898 0.020446-0.04087 0.059519-0.07272 0.10352-0.08398 0.010139-0.0026 0.023356-0.0039 0.037109-0.0039zm2.5977 0.0234c0.00656-3.13e-4 0.012892 0 0.019531 0 0.053118 0 0.10207 0.0092 0.14453 0.0293 0.042592 0.01904 0.076194 0.0479 0.10352 0.08398 0.028323 0.03608 0.049236 0.07975 0.060547 0.13086 0.011443 0.05011 0.011956 0.10489 0.00391 0.16602-0.00818 0.06213-0.024191 0.11786-0.048828 0.16797-0.024637 0.05011-0.055927 0.09478-0.09375 0.13086-0.03682 0.03608-0.079214 0.06395-0.12695 0.08399-0.047605 0.01904-0.097272 0.02734-0.15039 0.02734-0.053118-4e-6 -0.10194-0.0083-0.14453-0.02734-0.04246-0.02005-0.077149-0.04791-0.10547-0.08399-0.02732-0.03608-0.047151-0.08075-0.058594-0.13086-0.011443-0.05011-0.012089-0.10584-0.00391-0.16797 0.00805-0.06113 0.024191-0.11591 0.048828-0.16602 0.024769-0.05111 0.054977-0.09478 0.091797-0.13086 0.037823-0.03608 0.081303-0.06494 0.12891-0.08398 0.041771-0.01754 0.08497-0.0271 0.13086-0.0293zm1.7793 0c0.00703-3.29e-4 0.014344 0 0.021484 0 0.035077 0 0.069231 0.0038 0.10352 0.0098 0.034284 6e-3 0.067301 0.0143 0.097656 0.02734l-0.048828 0.11914c-0.019727-0.01002-0.043043-0.01743-0.070312-0.02344-0.026267-6e-3 -0.054871-0.0098-0.085937-0.0098-0.078169 0-0.14089 0.02511-0.18945 0.07422-0.047555 0.04911-0.077441 0.12064-0.089844 0.21484-0.00554 0.04209-0.00635 0.08016-0.00195 0.11524 0.00541 0.03507 0.01646 0.06479 0.033203 0.08984 0.017748 0.02506 0.042043 0.04456 0.072266 0.05859 0.030355 0.01303 0.069135 0.01953 0.11523 0.01953 0.037081-3e-6 0.070574-0.0028 0.10156-0.0098 0.030989-7e-3 0.056125-0.01542 0.074219-0.02344l0.00391 0.11914c-0.00868 5e-3 -0.021417 0.0087-0.037109 0.01367-0.01556 4e-3 -0.033297 0.0087-0.052734 0.01172-0.019569 4e-3 -0.040187 0.0058-0.0625 0.0078-0.021442 3e-3 -0.042456 0.0059-0.0625 0.0059-0.063141 0-0.11665-0.01121-0.16211-0.03125-0.044464-0.02005-0.081051-0.04791-0.10938-0.08399-0.02732-0.03608-0.04707-0.07785-0.056641-0.12695-0.00944-0.05011-0.00987-0.10588-0.00195-0.16602 0.00792-0.06013 0.02324-0.1159 0.046875-0.16602 0.024637-0.05011 0.05693-0.09283 0.09375-0.12891 0.036952-0.03708 0.078215-0.06589 0.12695-0.08594 0.04364-0.01842 0.091432-0.02895 0.14062-0.03125zm0.60547 0c0.011278-4.75e-4 0.023544 2.5e-5 0.035156 0h0.00195c0.055261 1.69e-4 0.10103 0.0086 0.13672 0.02344 0.037238 0.01403 0.066449 0.03349 0.085937 0.06055 0.020622 0.02606 0.033922 0.05863 0.039063 0.0957 0.00527 0.03608 0.00385 0.07504-0.00195 0.11914l-0.064453 0.48828c-0.01229 2e-3 -0.028205 0.0058-0.050781 0.0098-0.021442 3e-3 -0.046763 0.0068-0.074219 0.0098-0.027455 3e-3 -0.05751 0.0039-0.089844 0.0059-0.031464 3e-3 -0.062682 0.0059-0.09375 0.0059-0.044097 0-0.083249-0.0046-0.11914-0.01367-0.035892-9e-3 -0.067244-0.02393-0.091797-0.04297-0.02442-0.02005-0.041924-0.04606-0.052734-0.07813-0.010811-0.03207-0.013751-0.07013-0.00781-0.11524 0.00567-0.04309 0.019888-0.08026 0.041016-0.11133 0.02213-0.03107 0.049459-0.05518 0.082031-0.07422 0.032573-0.01904 0.070054-0.03395 0.11133-0.04297 0.041275-9e-3 0.082858-0.01367 0.12695-0.01367 0.014031 0 0.0282 0.0019 0.042969 0.0039 0.014902 1e-3 0.030336 0.0029 0.042969 0.0059 0.013767 2e-3 0.025398 0.0039 0.035156 0.0059 0.00976 2e-3 0.015655 0.0029 0.019531 0.0039l0.00586-0.03906c0.00303-0.02305 0.00211-0.04631 0-0.06836-0.00197-0.02305-0.00679-0.04156-0.017578-0.05859-0.010654-0.01804-0.027097-0.03295-0.048828-0.04297-0.020597-0.01103-0.04986-0.01563-0.085937-0.01563-0.046101 0-0.087049 0.0028-0.12305 0.0098-0.034866 6e-3 -0.060163 0.01251-0.078125 0.01953l-0.00195-0.11524c0.019095-8e-3 0.050732-0.01642 0.09375-0.02344 0.032361-6e-3 0.06585-0.01021 0.10156-0.01172zm0.80664 0c0.022048 0 0.042801 9.06e-4 0.064453 0.0039 0.021785 2e-3 0.042033 0.0058 0.060547 0.0098 0.018646 3e-3 0.035325 0.0058 0.048828 0.0098 0.0145 4e-3 0.02558 0.0087 0.0332 0.01172l-0.041016 0.11914c-0.013977-8e-3 -0.037345-0.01542-0.068359-0.02344-0.030883-9e-3 -0.068181-0.01367-0.11328-0.01367-0.039085 3e-6 -0.074293 0.0074-0.10547 0.02344-0.031043 0.01503-0.04838 0.03919-0.052734 0.07227-0.00224 0.01704-0.00234 0.03189 0.00195 0.04492 0.0053 0.01302 0.013813 0.02608 0.025391 0.03711 0.012711 0.01002 0.028019 0.02028 0.046875 0.0293 0.018857 9e-3 0.041618 0.01732 0.068359 0.02734 0.035234 0.01403 0.066531 0.02894 0.09375 0.04297 0.027348 0.01303 0.05069 0.02883 0.068359 0.04687 0.018671 0.01804 0.031469 0.0384 0.039063 0.06445 0.00773 0.02505 0.00879 0.05667 0.00391 0.09375-0.0095 0.07216-0.04256 0.12698-0.10156 0.16406-0.057999 0.03708-0.13711 0.05664-0.23633 0.05664-0.069154-3e-6 -0.12266-0.0075-0.16016-0.01953-0.037634-0.01103-0.062933-0.01938-0.076172-0.02539l0.041016-0.11914c0.015244 6e-3 0.040725 0.01335 0.074219 0.02539 0.033493 0.01203 0.078593 0.01953 0.13672 0.01953 0.057127 0 0.099872-0.0084 0.12891-0.02344 0.030041-0.01503 0.046427-0.03919 0.050781-0.07226 0.00449-0.03407-0.00488-0.06003-0.029297-0.08008-0.02442-0.02005-0.066161-0.04331-0.125-0.06836-0.028483-0.01203-0.055555-0.02313-0.082031-0.03516-0.025344-0.01303-0.046652-0.02788-0.064453-0.04492s-0.032156-0.03845-0.041016-0.0625-0.010479-0.05281-0.00586-0.08789c0.0091-0.06916 0.041266-0.12398 0.097656-0.16406 0.056522-0.04109 0.13056-0.0625 0.21875-0.0625zm1.6777 0.0039c0.01636-5.63e-4 0.03349 0 0.05078 0 0.06214 0 0.11168 0.0074 0.15039 0.02539 0.03885 0.01704 0.06806 0.04215 0.08789 0.07422 0.02097 0.03107 0.0329 0.06919 0.03711 0.11328 0.0042 0.04409 0.0031 0.09337-0.0039 0.14648l-0.05664 0.4375h-0.14062l0.05469-0.4082c0.0063-0.04811 0.0084-0.08897 0.0059-0.12305-0.0015-0.03407-0.0092-0.06098-0.02149-0.08203-0.01226-0.02105-0.03082-0.03786-0.05469-0.04687-0.02373-0.01002-0.05471-0.01367-0.0918-0.01367-0.01503 0-0.02875 9.53e-4 -0.04492 2e-3 -0.01617 1e-3 -0.03353 0.0019-0.04883 0.0039-0.01416 9.96e-4 -0.02677 0.0019-0.03906 0.0039-0.01129 2e-3 -0.02024 0.0029-0.02539 0.0039l-0.08594 0.66016h-0.14062l0.10156-0.75781c0.03313-8e-3 0.07656-0.01637 0.13086-0.02539 0.04073-0.0068 0.08569-0.01198 0.13477-0.01367zm0.91406 0c0.0072-3.13e-4 0.01605 0 0.02344 0 0.06514 0 0.12118 0.0037 0.16797 0.01367 0.04792 9e-3 0.08712 0.01737 0.11914 0.02539l-0.0918 0.69922c-0.01583 0.12026-0.05769 0.20564-0.12695 0.25977-0.06926 0.05412-0.16865 0.08203-0.29492 0.08203-0.04911 0-0.09368-0.0037-0.13672-0.01172-0.04204-8e-3 -0.07876-0.01828-0.10938-0.0293l0.04102-0.12108c0.02661 0.01103 0.06058 0.02128 0.09961 0.0293 0.0399 9e-3 0.0809 0.01172 0.125 0.01172 0.08318 0 0.14511-0.01576 0.18555-0.04883 0.04143-0.03308 0.06667-0.08605 0.07617-0.1582l0.0039-0.0332c-0.01308 8e-3 -0.03742 0.01822-0.07422 0.03125-0.03566 0.01203-0.07695 0.01953-0.12305 0.01953-0.04711 4e-6 -0.09075-0.0084-0.13086-0.02344-0.03911-0.01503-0.07068-0.03729-0.09766-0.06836-0.02685-0.03207-0.04675-0.07204-0.05859-0.11914-0.01184-0.0471-0.01443-0.10282-0.0059-0.16797 0.0075-0.05713 0.02364-0.10915 0.04687-0.15625 0.02337-0.04811 0.05329-0.08897 0.08984-0.12305 0.03769-0.03508 0.08125-0.06299 0.13086-0.08203 0.04352-0.01754 0.08991-0.0271 0.14062-0.0293zm-1.5586 0.01563h0.14062l-0.10352 0.78125h-0.13867zm-4.2324 0.10352c-0.06265 0.0031-0.11615 0.02927-0.16016 0.07813-0.045815 0.05111-0.074327 0.12079-0.085937 0.20898-0.011611 0.08819-0.00293 0.15883 0.029297 0.21094 0.033359 0.05111 0.084196 0.07617 0.15234 0.07617 0.068148 0 0.12606-0.02506 0.17188-0.07617 0.046949-0.05211 0.07628-0.12275 0.087891-0.21094 0.011611-0.08819 1.555e-4 -0.15787-0.033203-0.20898-0.032225-0.05211-0.082239-0.07813-0.15039-0.07813-0.00426 0-0.00754-2.04e-4 -0.01172 0zm0.88672 2e-3c-0.034088 0.0016-0.064633 0.0083-0.091797 0.02148-0.029909 0.01403-0.056655 0.03449-0.078125 0.06055-0.021338 0.02505-0.038145 0.05476-0.050781 0.08984s-0.020114 0.0732-0.025391 0.11328c-0.012007 0.0912 5.605e-4 0.16278 0.039063 0.21289 0.038633 0.04911 0.094758 0.07226 0.16992 0.07227 0.038083-4e-6 0.07025-9.07e-4 0.095703-0.0039 0.026585-4e-3 0.047942-0.0077 0.0625-0.01172l0.064453-0.49414c-0.01519-0.01403-0.038004-0.02799-0.068359-0.04102s-0.06348-0.01953-0.10156-0.01953c-0.00501 0-0.010755-2.35e-4 -0.015625 0zm4.8848 2e-3c-0.06275 0.0054-0.11464 0.0293-0.15625 0.07227-0.04655 0.04911-0.07525 0.11608-0.08594 0.19726-0.0059 0.0451-0.0048 0.08317 2e-3 0.11524 0.0078 0.03207 0.01889 0.05903 0.03516 0.08008 0.01727 0.02105 0.03877 0.0349 0.0625 0.04492 0.02474 0.01002 0.04911 0.01563 0.07617 0.01563 0.03708 0 0.07308-0.0056 0.10547-0.01563 0.03252-0.01103 0.05824-0.02308 0.07813-0.03711l0.06055-0.45704c-0.0135-4e-3 -0.03298-0.0068-0.05664-0.0098-0.02252-4e-3 -0.05366-0.0059-0.09375-0.0059-0.0094 0-0.01838-7.67e-4 -0.02734 0zm-8.4512 0.22451h0.085937c0.047174 0 0.085937 0.0012 0.085937 2e-3 0 7.3e-4 -0.00427 0.03471-0.00977 0.07617-0.011949 0.08999-0.027905 0.20987-0.044922 0.33984-0.00685 0.05235-0.017908 0.13-0.023437 0.17188-0.00553 0.04187-0.011852 0.0874-0.013672 0.10156-0.00182 0.01417-0.00323 0.0292-0.00391 0.0332l-0.00195 0.0078h-0.17188l0.00195-0.0059c6.2e-4 -0.0028 0.00405-0.0277 0.00781-0.05664 0.00885-0.06817 0.028346-0.21927 0.041016-0.31445 0.011188-0.08403 0.031596-0.2364 0.041016-0.30859zm5.0508 0.08789c-0.011373 7.5e-4 -0.022932 0.0024-0.035156 0.0039-0.023447 3e-3 -0.046996 0.0095-0.068359 0.01953-0.020229 9e-3 -0.037463 0.02202-0.052734 0.03906-0.01514 0.01603-0.023782 0.03739-0.027344 0.06445-0.0066 0.05011 0.00377 0.08542 0.033203 0.10547 0.029563 0.01904 0.071834 0.0293 0.12695 0.0293 0.033072 0 0.062705-9.53e-4 0.087891-2e-3 0.026321-2e-3 0.048842-0.0058 0.066406-0.0098l0.03125-0.23242c-0.00936-5e-3 -0.026173-0.0087-0.048828-0.01172-0.021521-4e-3 -0.048006-0.0059-0.080078-0.0059-0.010523 0-0.021829-7.5e-4 -0.033203 0zm5.1445 0.17969c0.0037-3.14e-4 0.0059 0 0.0098 0 0.03107 0 0.05491 0.0112 0.07031 0.03125s0.02114 0.04326 0.01758 0.07031c-0.0035 0.02706-0.01445 0.05027-0.03516 0.07031-0.02068 0.02005-0.04706 0.0293-0.07812 0.0293-0.03107 0-0.05491-0.0093-0.07031-0.0293-0.0154-0.02005-0.02114-0.04326-0.01758-0.07031 0.0035-0.02706 0.0164-0.05027 0.03711-0.07031 0.01809-0.01754 0.04036-0.02906 0.06641-0.03125z" fill="#fff" stroke-width=".072456"/>
 <path d="m19.018 11.275c-0.10523 0-0.18582 0.026911-0.24219 0.082031-0.056234 0.054121-0.090323 0.1322-0.10352 0.23242l-0.11328 0.85156h0.14062l0.08789-0.66406h0.30078l0.015625-0.11719h-0.30078l0.007813-0.068359c0.00792-0.06013 0.02792-0.1075 0.058594-0.14258 0.030803-0.03608 0.079384-0.052735 0.14453-0.052735 0.02706 0 0.048026 8.6e-4 0.066406 0.00586 0.01852 0.00402 0.034429 0.009672 0.044922 0.013672l0.035156-0.12109c-0.010493-0.00402-0.028207-0.007719-0.052734-0.011719-0.0244-5e-3 -0.054771-0.007812-0.089844-0.007812zm2.1465 0-0.14258 0.023437-0.050781 0.39648c-0.015587-0.011026-0.040725-0.023129-0.074219-0.035156-0.03249-0.012026-0.072087-0.017578-0.11719-0.017578-0.056125 0-0.10756 0.00925-0.1543 0.029297-0.045735 0.02004-0.08628 0.047904-0.12109 0.083984-0.034813 0.036084-0.063304 0.080753-0.085937 0.13086-0.021634 0.05011-0.035056 0.10393-0.042969 0.16406-0.008307 0.063136-0.0074 0.12076 0.003906 0.17188 0.01244 0.050113 0.03304 0.09188 0.0625 0.12695 0.029461 0.03508 0.067688 0.062992 0.11328 0.082032 0.045595 0.01904 0.098069 0.029296 0.1582 0.029297 0.065146-1e-6 0.12253-0.004652 0.17383-0.013672s0.093693-0.018324 0.12695-0.027344l0.15039-1.1445zm-2.7793 0.060547c-0.021405 0.001863-0.040849 0.01048-0.058594 0.02539-0.019173 0.016033-0.03149 0.038346-0.035156 0.066406-0.003694 0.02806 0.002784 0.049367 0.017578 0.066407 0.015926 0.016033 0.035493 0.02539 0.060547 0.02539 0.025053 0 0.047259-0.009357 0.066406-0.02539 0.020313-0.01704 0.033443-0.038347 0.037109-0.066407 0.003694-0.02806-0.003604-0.050373-0.019531-0.066406-0.014793-0.01704-0.03354-0.02539-0.058594-0.02539-0.003132 0-0.006708-2.67e-4 -0.009765 0zm0.9668 0c-0.021404 0.001863-0.040848 0.01048-0.058593 0.02539-0.019174 0.016033-0.03149 0.038346-0.035157 0.066406-0.003693 0.02806 0.002785 0.049367 0.017579 0.066407 0.015926 0.016033 0.035493 0.02539 0.060547 0.02539 0.025053 0 0.047259-0.009357 0.066406-0.02539 0.020313-0.01704 0.033442-0.038347 0.037109-0.066407 0.003693-0.02806-0.003604-0.050373-0.019531-0.066406-0.014793-0.01704-0.033541-0.02539-0.058594-0.02539-0.003132 0-0.006708-2.67e-4 -0.009766 0zm-3.5273 0.041015c-0.059097 0.002631-0.11649 0.01411-0.17188 0.035156-0.063298 0.024053-0.12071 0.059369-0.17188 0.10547-0.051169 0.046099-0.094826 0.10372-0.13086 0.17188-0.0349 0.067151-0.058832 0.14328-0.070312 0.23047s-0.010174 0.16622 0.003906 0.23438c0.015213 0.067151 0.041098 0.12382 0.078125 0.16992 0.037024 0.046099 0.085612 0.079462 0.14258 0.10352 0.056967 0.024054 0.12215 0.03711 0.19531 0.03711 0.042094 0 0.080447-0.002813 0.11719-0.007813 0.03674-0.005013 0.069677-0.010565 0.097656-0.017578 0.027987-0.00702 0.051353-0.014471 0.070313-0.021484 0.0191-0.008027 0.033342-0.014531 0.041016-0.019531l-0.023438-0.12109c-0.023499 0.01102-0.057569 0.025029-0.10352 0.039062-0.045944 0.014027-0.10278 0.019532-0.16992 0.019532-0.058124-1e-6 -0.10698-0.009251-0.14844-0.029297-0.04046-0.02004-0.073343-0.047905-0.097656-0.083985-0.02418-0.037079-0.040522-0.081699-0.048828-0.13281-0.007314-0.051118-0.006227-0.10779 0.001953-0.16992 0.00844-0.06414 0.024108-0.12076 0.046875-0.17188 0.023893-0.052113 0.05207-0.096733 0.08789-0.13281 0.035813-0.03608 0.078394-0.062991 0.125-0.082031 0.046603-0.01904 0.097224-0.029297 0.15234-0.029297 0.02606 0 0.051779 0.002813 0.076172 0.007813 0.025533 0.004013 0.04824 0.008611 0.06836 0.015625 0.021126 0.00702 0.038574 0.014471 0.054687 0.021484 0.016113 0.007027 0.028883 0.013531 0.037109 0.019531l0.058594-0.11914c-0.005487-0.004007-0.01627-0.011511-0.03125-0.019531-0.01498-0.008014-0.035547-0.015418-0.060547-0.023438-0.024-0.008033-0.053604-0.015484-0.08789-0.021484-0.033286-6e-3 -0.070188-0.007813-0.11328-0.007813-0.008518 0-0.016948-3.76e-4 -0.02539 0zm2.0156 0.041016-0.14258 0.023437-0.091797 0.69922c-0.006867 0.052117-0.008593 0.096632-0.00586 0.13672 0.003874 0.039086 0.013764 0.072549 0.03125 0.099609 0.01748 0.02706 0.041992 0.048473 0.074219 0.0625 0.033358 0.013027 0.07774 0.019531 0.13086 0.019531 0.045101 0 0.084567-0.006551 0.12109-0.017578 0.036394-0.010026 0.063172-0.018377 0.078125-0.02539l-0.011718-0.11524c-0.010554 0.004014-0.029268 0.011465-0.056641 0.021485-0.026241 0.00902-0.061422 0.013671-0.10352 0.013672-0.024053 0-0.045253-0.003766-0.0625-0.009766-0.017246-0.006013-0.030835-0.015264-0.041015-0.029297-0.010027-0.015033-0.014845-0.035494-0.017578-0.060547-0.002601-0.026053-0.001228-0.058569 0.003906-0.097656l0.046875-0.36133h0.29492l0.015625-0.11719h-0.29492l0.03125-0.24219zm-1.2852 0.22266c-0.039486 0.001864-0.079469 0.010481-0.11914 0.025391-0.045335 0.01704-0.085487 0.042098-0.12305 0.076172-0.03756 0.034077-0.07075 0.078746-0.097656 0.13086-0.026767 0.051109-0.043628 0.11053-0.052735 0.17969-0.007782 0.059133-0.008433 0.11396 0 0.16406 0.009574 0.049107 0.027368 0.090873 0.054688 0.12695 0.027321 0.03608 0.064995 0.064891 0.11133 0.085938 0.047471 0.020046 0.10568 0.031249 0.17383 0.03125 0.054115 0 0.10307-0.005606 0.14648-0.015626 0.044413-0.010019 0.075523-0.020276 0.09375-0.029296l-0.003907-0.11719c-0.018093 0.00802-0.044818 0.016371-0.080078 0.025391-0.034128 0.00802-0.075893 0.011719-0.125 0.011719-0.087191 0-0.14805-0.020407-0.18359-0.0625-0.03554-0.042095-0.051541-0.10437-0.046875-0.18555h0.53516c0.002066-0.00802 0.002706-0.016371 0.003906-0.025391 0.001333-0.010033 0.003106-0.017438 0.003906-0.023438 0.01768-0.13429 0.002625-0.23368-0.044922-0.29883-0.047414-0.066146-0.12329-0.099609-0.22852-0.099609-0.005637 0-0.011938-2.66e-4 -0.017578 0zm3.373 0c-0.039485 0.001864-0.079468 0.010481-0.11914 0.025391-0.045336 0.01704-0.08744 0.042098-0.125 0.076172-0.03756 0.034077-0.068797 0.078746-0.095703 0.13086-0.026774 0.051109-0.045581 0.11053-0.054688 0.17969-0.007782 0.059133-0.00648 0.11396 0.001953 0.16406 0.009567 0.049107 0.027368 0.090873 0.054688 0.12695 0.027321 0.03608 0.064995 0.064891 0.11133 0.085938 0.047471 0.020046 0.10372 0.031249 0.17188 0.03125 0.054115 0 0.10307-0.005606 0.14648-0.015626 0.044414-0.010019 0.075524-0.020276 0.09375-0.029296l-0.003906-0.11719c-0.018093 0.00802-0.044818 0.016371-0.080078 0.025391-0.034129 0.00802-0.075893 0.011719-0.125 0.011719-0.087191 0-0.14805-0.020407-0.18359-0.0625-0.03554-0.042095-0.051542-0.10437-0.046875-0.18555h0.53516c0.002067-0.00802 0.00466-0.016371 0.00586-0.025391 0.001333-0.010033 0.003106-0.017438 0.003906-0.023438 0.01768-0.13429 0.002625-0.23368-0.044922-0.29883-0.047415-0.066146-0.12524-0.099609-0.23047-0.099609-0.005637 0-0.009984-2.66e-4 -0.015625 0zm-2.584 0.003906c-0.043869 0.002068-0.085127 0.007355-0.12305 0.015625-0.050429 0.01002-0.094253 0.021177-0.12891 0.033203l-0.097656 0.74805h0.14062l0.085937-0.65625c0.00828-0.002013 0.025068-0.004765 0.050781-0.009765 0.026847-6e-3 0.054018-0.009766 0.080078-0.009766 0.040094 0 0.071444 0.003766 0.095704 0.009766 0.0254 0.00502 0.044194 0.007718 0.054687 0.011718l0.039063-0.12109c-0.005747-2e-3 -0.014577-0.00386-0.027344-0.00586-0.011633-3e-3 -0.024296-0.005812-0.039063-0.007812-0.01464-3e-3 -0.030975-0.00486-0.046875-0.00586-0.014766-2e-3 -0.027035-0.001953-0.039062-0.001953-0.015284 0-0.030299-6.89e-4 -0.044922 0zm0.9375 0.015625-0.10156 0.78125h0.13867l0.10352-0.78125h-0.14062zm0.9668 0-0.10156 0.78125h0.13867l0.10352-0.78125h-0.14062zm-2.7051 0.09961c0.003925-2.04e-4 0.00771 0 0.011719 0 0.057127 0 0.09834 0.019453 0.125 0.060546 0.027799 0.040087 0.038616 0.09311 0.029296 0.15625h-0.38867c0.006567-0.027053 0.016844-0.054018 0.029297-0.080078 0.013447-0.026053 0.029148-0.048312 0.048829-0.068359 0.019679-0.02004 0.042726-0.036801 0.068359-0.048828 0.023427-0.011398 0.048692-0.018107 0.076172-0.019531zm3.373 0c0.003925-2.04e-4 0.00771 0 0.011718 0 0.057128 0 0.09834 0.019453 0.125 0.060546 0.0278 0.040087 0.036664 0.09311 0.027344 0.15625h-0.38672c0.006574-0.027053 0.014897-0.054018 0.027344-0.080078 0.013453-0.026053 0.031108-0.048312 0.050781-0.068359 0.01968-0.02004 0.040773-0.036801 0.066407-0.048828 0.023426-0.011398 0.050645-0.018107 0.078125-0.019531zm0.85156 0.005859c0.00487-2.35e-4 0.008661 0 0.013672 0 0.038084 0 0.073162 0.006505 0.10352 0.019531 0.03036 0.013027 0.053172 0.026983 0.068359 0.041016l-0.066406 0.49414c-0.014554 0.00402-0.03396 0.007719-0.060547 0.011719-0.025447 3e-3 -0.057617 0.003906-0.095703 0.003907-0.075164 0-0.13129-0.023159-0.16992-0.072266-0.0385-0.050109-0.053022-0.12169-0.041016-0.21289 0.00528-0.040082 0.014711-0.078201 0.027344-0.11328s0.029441-0.06479 0.050781-0.089844c0.021474-0.026053 0.048219-0.046513 0.078125-0.060547 0.027166-0.013154 0.05771-0.01984 0.091797-0.021484z" stroke-width=".076832"/>
</svg>
