<?xml version="1.0" encoding="UTF-8"?>
<svg version="1.1" viewBox="0 0 24 24" xmlns="http://www.w3.org/2000/svg" xmlns:xlink="http://www.w3.org/1999/xlink">
 <defs>
  <rect id="SVGID_1_" x="9.4" y="5.8" width="82.5" height="82.5"/>
  <clipPath id="SVGID_2_">
   <use width="100%" height="100%" xlink:href="#SVGID_1_"/>
  </clipPath>
  <style>.cls-1{fill:#5000b9;}</style>
 </defs>
 <style type="text/css">.st0{clip-path:url(#SVGID_2_);fill:#DB4615;}
	.st1{clip-path:url(#SVGID_2_);fill:#FFFFFF;}</style>
 <g transform="matrix(.034206 0 0 .034206 1.7455 7.8048)">
  <path d="m28.76 96.22c6.05-4.23 11.23-7.67 19.87-7.67 11.67 0 29.52 8.12 29.52 31.81 0 27-14.98 35.01-31.25 35.01-6.77 0-12.24-2.4-18.14-5.95v54.89h-21.32v-114.38h21.32zm0 39.13c3.31 4 7.49 7.55 13.82 7.55 12.82 0 14.69-12.59 14.69-20.26 0-7.09-2.45-18.99-14.26-18.99-6.19 0-10.51 3.43-14.26 6.98z"/>
  <path d="m83.71 121.96c0-17.05 11.81-33.41 35.43-33.41s35.43 16.36 35.43 33.41c0 16.94-11.95 33.41-35.43 33.41-23.47 0-35.43-16.47-35.43-33.41m48.97 0c0-8.01-2.02-20.94-13.54-20.94s-13.54 12.93-13.54 20.94 2.02 20.94 13.54 20.94 13.54-12.93 13.54-20.94"/>
  <path d="m211.82 148.62c-6.48 4.58-11.52 6.75-20.45 6.75-16.28 0-31.25-8.01-31.25-35.01 0-23.68 17.86-31.81 29.53-31.81 8.64 0 13.82 3.43 19.88 7.67v-60.43h21.31v118.21h-17.14zm-16.56-46.68c-11.81 0-14.26 11.9-14.26 18.99 0 7.67 1.87 20.02 14.69 20.02 6.34 0 10.51-3.32 13.83-7.32v-24.71c-3.75-3.55-8.06-6.98-14.26-6.98"/>
  <path d="m288.75 108.46c-2.74-5.83-7.05-12.13-15.99-11.9-17.28 0-20.59 15.1-20.59 25.86s3.31 25.86 20.59 25.86c9.65-0.34 15.13-6.52 18.58-12.7l9.07 3.21c-4.61 9.61-14.83 17.05-27.65 17.05-17.71 0-31.83-9.73-31.83-33.41s14.12-33.41 31.83-33.41c13.11 0 21.17 6.52 25.49 16.02z"/>
  <path d="m352.98 154-1.15-8.01c-6.48 5.03-13.68 9.84-23.05 9.84-12.24 0-22.03-8.12-22.03-18.08 0-18.08 23.91-21.97 41.48-25.74l3.61-0.8v-3.55c0-7.2-6.2-11.1-15.13-11.1-8.78 0-14.83 4.58-19.44 9.96l-7.92-4.69c6.62-7.55 15.27-12.82 27.36-12.82 10.8 0 26.36 5.26 26.36 19.68v31.35c0.15 4.69-0.15 9.49 2.16 13.96zm-5.62-34.44c-10.66 2.52-30.1 5.95-30.1 17.28 0 5.26 5.19 10.53 11.95 10.53 8.93 0 17.14-4.92 22.62-10.3v-18.53z"/>
  <path d="m417.93 104.92c-4.47-5.26-9.79-8.35-18.15-8.35-7.34 0-14.26 2.98-14.26 9.38 0 15.45 41.91 8.7 41.91 29.98 0 12.36-11.09 19.91-26.07 19.91-12.82 0-23.19-4.46-29.67-13.27l8.93-4.46c4.32 6.52 11.23 10.18 20.74 10.18 8.21 0 15.55-3.54 15.55-10.75 0-15.9-41.91-8.35-41.91-31.01 0-10.87 11.23-17.51 24.34-17.51 11.09 0 20.31 3.66 26.5 10.99z"/>
  <path d="m454.24 90.85h18v7.55h-18v39.7c0 6.18-0.15 10.18 9.08 10.18 3.17 0 6.19-0.23 8.93-0.8v6.52c-3.6 1.03-7.35 1.83-11.24 1.83-19.01 0-18-10.18-18-21.74v-35.69h-12.1v-7.55h12.1v-20.49h11.23z"/>
  <rect x="477.88" y="144.21" width="10.95" height="10.08"/>
  <path d="m530.38 90.03h8.46v64.25h-8.46v-5.43c-4.01 3.96-8.67 6.8-15.29 6.8-8.13 0-21.9-5.94-21.9-24.2 0-18.69 11.93-26.1 22.22-26.1 5.75 0 11.06 3.02 14.96 6.29v-21.61zm0 28.86c-2.6-4.13-7.48-7.66-13.98-7.66-11.82 0-14.31 12.92-14.31 20.07 0 13.95 8.35 18.51 14.2 18.51 5.96 0 11.71-4.82 14.09-8.87z"/>
  <path d="m555.49 131.63c0 13.61 7.26 18.34 15.93 18.34 6.29 0 11.6-4.05 14.64-8.18l6.07 3.19c-3.25 6.11-11.27 10.68-21.57 10.68-13.33 0-23.96-7.32-23.96-25.15s10.63-25.15 23.96-25.15c17.23 0 22.22 14.64 21.03 26.27zm27.21-5.68c0.22-6.12-3.9-14.9-12.79-14.9-9.54 0-14.09 8.18-14.2 14.9z"/>
  <path d="m34.67 208.19 16.82-13.3c6.5 9.43 82.73 60.22 143.29-16.69l19.44 8.78c-56.12 81.37-149.67 54.81-179.55 21.21"/>
  <path d="m67.92 182.5 12.34-9.75c5.41 6.21 48.49 27.25 81.14-9.56l14.46 6.46c-31.26 41.06-85.68 33.79-107.94 12.85"/>
  <path d="m160.57 61.04-12.53 10.08c-2.74-3.01-42.12-25.82-77.3 9.91l-14.48-6.67c33.45-39.28 81.1-31.34 104.31-13.32"/>
  <path d="m193.44 34.61-16.89 13.5c-53.12-41.32-111.69-18.78-138.94 17.47l-19.58-8.77c26.18-41.62 105.45-81.53 175.41-22.2"/>
 </g>
</svg>
