<svg viewBox="0 0 24 24" xmlns="http://www.w3.org/2000/svg"><path d="M4.226 4.25A2.287 2.287 0 0 0 2 6.537v10.922a2.288 2.288 0 0 0 2.287 2.29h15.43A2.287 2.287 0 0 0 22 17.463V6.54a2.287 2.287 0 0 0-2.283-2.287H4.224V4.25zm.06 1.202h7.71v13.1h-7.71a1.085 1.085 0 0 1-1.084-1.082V6.536c0-.6.484-1.084 1.084-1.084zm2.612 3.39L4.26 14.953h1.599l.446-1.126h2.668l.434 1.126h1.663l-2.577-6.11zm7.007 0c3.348 0 6.092 2.748 6.092 6.096h-1.171a4.913 4.913 0 0 0-4.921-4.92zm-6.259 1.55.873 2.256H6.76l.887-2.26zm6.259.529c2.18 0 4.017 1.837 4.017 4.017h-1.179a2.797 2.797 0 0 0-2.842-2.842v-1.171zm.794 2.415c.453 0 .816.366.816.809a.813.813 0 0 1-.816.808.816.816 0 0 1-.817-.808.81.81 0 0 1 .817-.81z"/></svg>