<svg viewBox="0 0 24 24" xmlns="http://www.w3.org/2000/svg"><path d="M19.775 4.25v.006H4.283A2.284 2.284 0 0 0 2 6.539v10.924a2.287 2.287 0 0 0 2.283 2.285h15.43A2.287 2.287 0 0 0 22 17.46V6.537a2.288 2.288 0 0 0-2.225-2.287zm-7.771 1.201h7.71c.6 0 1.084.484 1.084 1.084v10.936a1.085 1.085 0 0 1-1.084 1.082h-7.71V5.451zm-5.77 3.393h1.594l2.58 6.11H8.744l-.436-1.126H5.64l-.443 1.125H3.595l2.639-6.11zm7.133.101v1.176a4.912 4.912 0 0 1 4.92 4.92h1.172c0-3.348-2.744-6.096-6.092-6.096zm-6.385 1.446-.887 2.26h1.76l-.873-2.256v-.004zm6.385.632-.004.004V12.2a2.797 2.797 0 0 1 2.842 2.842h1.18c0-2.18-1.838-4.018-4.018-4.018zm.793 2.415a.81.81 0 0 0-.817.81.814.814 0 0 0 .817.807.812.812 0 0 0 .816-.807.813.813 0 0 0-.816-.808v-.002z"/></svg>