<svg version="1.1" viewBox="0 0 24 24" xmlns="http://www.w3.org/2000/svg">
 <style type="text/css">.st0{fill:#FFFFFF;}
	.st1{fill:#8DC742;}</style>
 <g>
  <path d="m9.3973 3.4463c-.36574 0-.43392.026661-.6333.2498-.12598.14099-.24417.37985-.27091.5471-.07788.48704-.12452.51297-.4996.27619-.84623-.5342-1.5804-.22658-1.7328.72654-.02777.17368-.07143.31665-.09851.31665s-.1859-.093065-.35183-.20582c-.57003-.38735-1.2284-.32133-1.5393.15305-.12735.19436-2.2711 12.212-2.2711 12.731 0 .66702.51115.80042 1.3845.36063.29406-.14808.54874-.26915.56645-.26915.01771 0-.0017.14739-.04221.32721-.14704.65331.08359 1.0573.60164 1.0573.13516 0 .47379-.12107.75292-.26915.27914-.14809.52286-.26915.54182-.26915s.01476.22139-.01056.49257c-.04324.4631-.03412.50594.16184.70191.17287.17284.25664.2013.49081.16888.25495-.0353 1.8437-.85663 8.3613-4.324 1.0154-.54022 2.1401-1.1371 2.4998-1.3282.87249-.46345 1.4447-.7721 2.2306-1.1998.35964-.1957.94391-.50114 1.2983-.67904.88321-.44338 1.1628-.71669 1.1628-1.1364 0-.27209-.04713-.37285-.29554-.62626-.16265-.16592-.32112-.30082-.3536-.30082-.03248 0-.38563-.22635-.78283-.50136-3.0503-1.9948-5.1908-3.3938-7.0296-4.5844-3.7084-2.4009-3.7334-2.4153-4.1411-2.4153zm-.98514 1.3704c.01643-.016429.36528.20822 5.7806 3.7259 2.1155 1.3742 3.9578 2.6159 4.0953 2.7584.33546.34769.35118.78999.0387 1.0977-.11635.11459-1.9587 1.1375-4.0953 2.2746-2.1367 1.1371-4.63 2.4645-5.5396 2.9484-.90967.48388-1.9045 1.0142-2.2113 1.1804-.65176.35312-.62446.40998-.40285-.80922.07621-.41925.12255-.7693.11611-.84792l.48377-.26739c.26918-.1494 1.3014-.70385 2.2957-1.2314.99429-.52757 2.6734-1.4179 3.7312-1.9791 1.0578-.56114 1.9889-1.0778 2.0688-1.147.07988-.06923.19337-.2372.25156-.3747.08989-.2124.08872-.28896-.0018-.50136-.14815-.34782-.2794-.45193-1.9333-1.5234-.8039-.52083-2.2498-1.4594-3.214-2.0864-1.6659-1.0833-1.9008-1.2164-1.9017-1.0819-.000624.092592-1.6405 9.4927-1.7398 9.9727l-.04046.18999c-.02011-.02011-.08155-.002-.13546.04046-.17954.14147-2.0582 1.1098-2.0582 1.0608 0-.02653.42872-2.4942.95347-5.4851.52475-2.9909 1.0158-5.8026 1.0907-6.2468.07488-.44426.14237-.81768.15129-.83033.0089-.012652.42231.24092.91829.56293.49598.32202.91082.57437.9218.56118.01099-.013195.09622-.45637.18999-.98513.09377-.52877.17846-.96828.18647-.97634z" stroke-width=".076928"/>
 </g>
</svg>
