<?xml version="1.0" encoding="UTF-8"?>
<svg width="24" height="24" version="1.1" viewBox="0 0 6.35 6.35" xml:space="preserve" xmlns="http://www.w3.org/2000/svg"><path d="m3.175 0.52922c-1.1958 0-2.2451 0.80562-2.5545 1.961-0.24955 0.93176 0.031487 1.907 0.6927 2.5634 0.068286-0.17269 0.15896-0.33552 0.26964-0.4844-0.45552-0.52026-0.63788-1.2447-0.45115-1.942 0.24817-0.92663 1.0847-1.5688 2.0434-1.5688 0.9587 0 1.7952 0.64216 2.0434 1.5688 0.2299 0.85842-0.099605 1.758-0.80943 2.267 0.15274 0.098822 0.29165 0.21661 0.41363 0.35028 0.81265-0.64746 1.182-1.7273 0.90695-2.7543-0.30944-1.1554-1.3588-1.961-2.5546-1.961zm-0.016871 1.06c-0.19915 2e-3 -0.39957 0.041454-0.59052 0.12045-0.59248 0.24513-0.98013 0.82451-0.98013 1.4653h0.52913c0-0.42813 0.25702-0.81249 0.65328-0.97642 0.39625-0.16395 0.85049-0.073709 1.1537 0.22914 0.30319 0.30285 0.39335 0.75604 0.22931 1.1516-0.16404 0.39558-0.54893 0.65264-0.9779 0.65264v0.00673c-0.39653 0.027505-0.75381 0.20214-1.0177 0.46916l0.00142 0.00145c-0.19704 0.19705-0.33869 0.44238-0.41082 0.71153l-0.00476-0.00129v0.025868c-0.029501 0.12045-0.045252 0.24614-0.045252 0.37538h2.9019c-0.13709-0.21615-0.3245-0.39628-0.54676-0.52459l0.00262-0.00454h-1.6877c0.1822-0.31619 0.52338-0.5278 0.91753-0.5278v-0.00675c0.59666-0.041537 1.1249-0.41722 1.3562-0.97505 0.2455-0.592 0.10938-1.2757-0.34415-1.7287-0.29763-0.2973-0.69444-0.45799-1.0996-0.46406-0.013262-2.117e-4 -0.026536-2.646e-4 -0.039813-1.058e-4zm0.016789 1.0563c-0.28938 0-0.52925 0.24049-0.52925 0.52967 0 0.28916 0.23987 0.52956 0.52925 0.52956s0.52925-0.2404 0.52925-0.52956c0-0.28916-0.23987-0.52967-0.52925-0.52967z"/></svg>
