<svg version="1.1" viewBox="0 0 24 24" xmlns="http://www.w3.org/2000/svg">
 <path d="m4.6259 2a2.6254 2.6254 0 0 0-2.6253 2.6253 2.6254 2.6254 0 0 0 2.6253 2.6254 2.6254 2.6254 0 0 0 2.6254-2.6254 2.6254 2.6254 0 0 0-2.6254-2.6253zm14.749 0a2.6254 2.6254 0 0 0-2.6254 2.6253 2.6254 2.6254 0 0 0 2.6254 2.6254 2.6254 2.6254 0 0 0 2.6253-2.6254 2.6254 2.6254 0 0 0-2.6253-2.6253zm-7.3747 4.0442a5.9558 5.9558 0 0 0-5.9558 5.9558 5.9558 5.9558 0 0 0 5.9558 5.9558 5.9558 5.9558 0 0 0 5.9558-5.9558 5.9558 5.9558 0 0 0-5.9558-5.9558zm-7.3747 10.705a2.6254 2.6254 0 0 0-2.6253 2.6254 2.6254 2.6254 0 0 0 2.6253 2.6253 2.6254 2.6254 0 0 0 2.6254-2.6253 2.6254 2.6254 0 0 0-2.6254-2.6254zm14.749 0a2.6254 2.6254 0 0 0-2.6254 2.6254 2.6254 2.6254 0 0 0 2.6254 2.6253 2.6254 2.6254 0 0 0 2.6253-2.6253 2.6254 2.6254 0 0 0-2.6253-2.6254z"/>
</svg>
