<?xml version="1.0" encoding="UTF-8"?>
<svg version="1.1" viewBox="0 0 24 24" xmlns="http://www.w3.org/2000/svg">
 <path d="m4.0882 21.974c-0.097877-0.03471-0.19767-0.1263-0.24829-0.2279l-0.043431-0.08716v-7.6282h1.2081c0.00351 2.152-0.010049 3.9858 0.016211 6.1662 0.3643-0.18965 0.6531-0.34761 1.0323-0.55581l0.59243 1.0321c-0.55948 0.35324-1.2219 0.73673-1.75 1.0338-0.48124 0.27964-0.5126 0.29403-0.63763 0.29259-0.055373-6.37e-4 -0.13175-0.01218-0.16972-0.02565zm2.7489-2.5806c0.35797-1.1875 0.75229-2.3053 1.131-3.5267l-1.4281-1.2792c-0.033089-0.22015-0.064209-0.45734-0.09349-0.66591-0.010641-0.09229-0.026159-0.19045-0.034483-0.21814-0.016688-0.05551-0.52579-0.69636-0.5532-0.69636-0.93758 0.28507-1.788 0.55535-2.6168 0.81654-0.031378 0.0095-0.27887-0.34994-0.30421-0.4417-0.062677-0.2853-0.10147-0.50686-0.16021-0.80589 0.010955-0.18574 0.05748-0.37212 0.085309-0.55228 0.77261-0.32929 1.5636-0.64033 2.3799-0.98649 0.0064-0.0097 0.016033-0.06684 0.021402-0.12713 0.00537-0.06028 0.017389-0.19644 0.026713-0.30257 0.00933-0.10613 0.020943-0.22521 0.02582-0.26461l0.00886-0.07163c1.1695-0.58103 2.3404-1.1664 3.4968-1.7696 0.058863-0.21729 0.074934-0.39882 0.11823-0.62924 0.15619-0.12227 0.29852-0.17936 0.47801-0.2872 0.74467 0.040381 1.4918 0.078114 2.2355 0.10709 0.0071-0.00385 0.04241-0.064949 0.07831-0.13578 0.17512-0.34547 0.47838-0.69267 0.8448-0.9672 0.10395-0.077879 0.13873-0.11545 0.16989-0.18349 0.11245-0.24557 0.11109-0.24354 0.17512-0.26151 0.03367-0.00946 0.10714-0.025768 0.16326-0.036256 0.09791-0.018301 0.10522-0.0172 0.18121 0.027334l0.07918 0.046402 0.11244-0.034663c0.32718-0.10086 0.49449-0.12496 0.86754-0.12496 0.32724 0 0.46327 0.015983 0.74219 0.087204 0.96749 0.24705 1.7524 0.97711 2.0669 1.9224 0.11082 0.3331 0.15254 0.59192 0.15254 0.94635 0 0.76628-0.27333 1.4573-0.8057 2.037-0.20826 0.22675-0.5507 0.47492-0.87228 0.63213-0.33372 0.16315-0.81971 0.28586-1.1321 0.28586-0.10265 0-0.11014 0.0027-0.13354 0.04793-0.02655 0.05134-0.03388 0.05303-0.34921 0.08082l-0.11305 0.01-0.11799-0.11131c-0.06489-0.06122-0.13233-0.11131-0.14985-0.11131s-0.1119-0.02678-0.20975-0.05953c-0.09784-0.03274-0.18447-0.05547-0.19251-0.0505-8e-3 0.0049-0.01813 0.03364-0.02244 0.06373-0.42625 2.1034-0.86614 4.2186-1.256 6.0924-1.4413 0.84275-3.0023 1.7849-4.3424 2.5612-0.27975-0.35068-0.47008-0.65369-0.75362-1.0633zm0.89527 0.48541c1.4047-0.7565 2.6178-1.4183 3.8902-2.1146 0.4316-2.2593 0.78629-3.9811 1.1959-6.1685 0.0093-0.06055 9e-3 -0.0609-0.1444-0.16419l-2.7782-1.1772c-0.00923-0.0069-0.035388-0.01519-0.058132-0.0184l-0.28006 0.92022c0.67566 0.4363 1.0679 0.70427 1.7017 1.1262l-1.5872 0.87902c-0.13103 0.30327-0.24947 0.61353-0.37198 0.91879 0.1117 0.43172 0.23593 0.83429 0.36291 1.2678l-0.93341-1.2752c0.1514-0.3929 0.33079-0.8096 0.49606-1.2127-0.79608 0.18692-1.5588 0.41311-2.33 0.63483 0.00571 0.3611 0.02878 0.75618 0.043222 1.0754 0.56666 0.4719 0.99766 0.86522 1.5054 1.3235-0.34039 1.124-0.69985 2.259-1.0594 3.3975-0.087538 0.27004-0.089732 0.25841 0.086252 0.45725 0.083722 0.09459 0.15993 0.17199 0.16935 0.17199s0.050694-0.01874 0.091722-0.04164zm-1.1739-6.7527c0.043775-0.01379 0.15816-0.04067 0.44717-0.10504 0.10015-0.0223 0.11776-0.04541 0.073525-0.09644-0.29558-0.41884-0.59629-0.86474-0.89395-1.302 0.045265-0.48196 0.062843-0.98864 0.08288-1.4026l-0.6213 0.25222c-0.015449 0.35014-0.026438 0.71723-0.037579 1.0416-0.013887 0.45613-0.013633 0.46207 0.022088 0.51528 0.11375 0.16947 0.8412 1.1124 0.8582 1.1124 0.011174 0 0.042207-0.0069 0.068964-0.01533zm1.7015-0.41134c-0.34555-0.541-0.62549-0.94207-1.0124-1.5114 0.034729-0.5208 0.069798-1.0622 0.096725-1.5354-0.25106 0.10527-0.43133 0.20908-0.69051 0.3369-0.030336 0.59833-0.060765 1.1074-0.091753 1.6437 0.28992 0.43558 0.54962 0.81826 0.83964 1.2463 0.017728 0.02048 0.039147 0.02707 0.066059 0.02032 0.25591-0.04103 0.56018-0.14082 0.79225-0.20044zm1.1547-0.26699c-0.33718-0.52414-0.60358-0.91698-0.97433-1.4725 0.13603-0.70507 0.22559-1.4357 0.30179-2.0085-0.012244-0.00457-0.94739 0.45775-0.97207 0.48058-0.10186 0.55219-0.13818 1.0492-0.1954 1.7029 0.3468 0.51084 0.678 0.97899 1.0457 1.5045 0.25069-0.0431 0.53854-0.13855 0.79427-0.20706zm0.5485-0.11203 0.63599-0.16628c-0.51668-0.30187-0.92466-0.53833-1.4689-0.86084-0.012562-0.02031 0.38946-1.2241 0.42184-1.2631 0.012047-0.01452 0.070536-0.05359 0.12997-0.08683l0.10807-0.060435c0.2158 0.096634 0.46846 0.16512 0.67545 0.23798 0.0925-0.55035 0.16306-1.1505 0.24505-1.7192 0.01937-0.023338 0.23348-0.080947 0.24776-0.066665 0.0051 0.00517 7.2e-4 0.10165-0.0099 0.2144-0.0106 0.11275-0.01336 0.21093-0.0061 0.21817 0.0072 0.00724 0.05039-0.00137 0.0959-0.019136 0.04551-0.017765 0.13868-0.054006 0.20707-0.080534 0.06838-0.026529 0.12983-0.059334 0.13654-0.072901 0.01574-0.031803 0.10409-0.48751 0.09607-0.49552-0.61456-0.10068-1.3165-0.19697-1.9007-0.28l-0.11746 0.071615c-0.24734 0.1508-0.25475 0.15771-0.26464 0.24645-0.12828 0.95745-0.24759 1.824-0.3646 2.7276 0 0.06108-0.02771 0.01795 0.65768 1.0235 0.3527 0.51747 0.30146 0.47089 0.47496 0.43174zm4.8829-0.89108c0.26422-0.04514 0.60689-0.17147 0.84409-0.31117 0.40485-0.23844 0.72744-0.60512 0.92655-1.0532 0.04903-0.11031 0.11294-0.32461 0.14299-0.47944 0.03162-0.1629 0.03305-0.38594 0.0025-0.38594-0.05285 0-0.07601 0.047701-0.10872 0.22387-0.02785 0.14998-0.04217 0.19107-0.08159 0.23403-0.12566 0.13695-0.36085 0.38207-0.45892 0.47829-0.14906 0.14624-0.64157 0.53336-0.74574 0.58616-0.2425 0.12292-0.53941 0.21858-0.79735 0.25689-0.34918 0.05186-0.3366 0.05121-0.45167 0.02349-0.06111-0.01472-0.12431-0.03043-0.14044-0.03492-0.01613-0.0045-0.07747-0.07751-0.13631-0.16226-0.0826-0.11897-0.126-0.20573-0.1904-0.38062l-0.08341-0.22653-0.06147-0.0052c-0.09684-0.0083-0.09689-0.01329 0.0038 0.36598 0.02818 0.10613 0.05815 0.2162 0.06661 0.24458 0.0085 0.02839 0.08937 0.16266 0.17979 0.29838 0.17667 0.26517 0.19798 0.28353 0.39335 0.33896 0.08631 0.02449 0.52871 0.01726 0.69636-0.01139zm-1.7085-0.57145c-0.01387-0.04914-0.03407-0.14597-0.04487-0.21519-0.01082-0.06922-0.0263-0.1485-0.03442-0.17619-0.0082-0.02769-0.03073-0.13718-0.05022-0.24331-0.04866-0.26486-0.07025-0.35205-0.08488-0.343-0.03306 0.020431-0.04892 0.18329-0.03097 0.31813 0.0321 0.24122 0.02679 0.24485-0.11845 0.08109-0.14513-0.16364-0.14422-0.16188-0.23323-0.45054-0.1133-0.36743-0.12826-0.52579-0.08563-0.90611 0.01963-0.17511 0.03135-0.21958 0.08987-0.34112l0.0673-0.13976-0.02996-0.25457c-0.01648-0.14001-0.03674-0.31497-0.04503-0.38881-0.0083-0.073831-0.01021-0.22296-0.0042-0.3314 0.0071-0.12989 0.0049-0.19716-0.0063-0.19716-0.05552 0-0.33866 0.45871-0.41909 0.67893-0.11146 0.30518-0.14545 0.49667-0.14609 0.82287-6.01e-4 0.30781 0.01378 0.41418 0.09403 0.69518 0.1408 0.49306 0.34017 0.85255 0.62023 1.1184 0.16967 0.16105 0.46278 0.38637 0.48009 0.36906 0.0039-0.0039-0.0042-0.04736-0.01806-0.09649zm0.08174-1.7876c0.03118-0.068169 0.04081-0.11054 0.03334-0.14682-0.0057-0.028049-0.02502-0.16426-0.04277-0.3027-0.04038-0.31481-0.0798-0.60148-0.09412-0.68422-0.0083-0.047918 0.0086-0.13589 0.0691-0.36077l0.08005-0.2974 0.11677-0.11945c0.10586-0.1083 0.1319-0.12527 0.27878-0.18178 0.08911-0.034285 0.17712-0.068762 0.19558-0.076618 0.10929-0.04651 0.38393-0.13357 0.46984-0.14894 0.38166-0.068274 0.41657-0.070948 0.56404-0.043184 0.07739 0.014569 0.16922 0.032868 0.20406 0.040664 0.05899 0.013199 0.06621 0.010427 0.10487-0.040268 0.02284-0.029943 0.04152-0.062424 0.04152-0.072181 0-0.018536-0.2265-0.094616-0.47007-0.15789-0.12072-0.031361-0.18836-0.037065-0.44443-0.037479-0.34148-5.504e-4 -0.52176 0.029265-0.81185 0.13428-0.19331 0.069975-0.44828 0.20237-0.48871 0.25376-0.01642 0.02087-0.03818 0.081373-0.04837 0.13445s-0.02543 0.12671-0.03387 0.16362c-0.06939 0.30372-0.06939 0.30212-0.0022 0.78026 0.0085 0.059988 0.02385 0.17703 0.03428 0.26009 0.01042 0.08306 0.02606 0.20765 0.03474 0.27687 0.0087 0.069217 0.02297 0.18248 0.03174 0.2517 0.01313 0.10351 0.06718 0.36219 0.09378 0.44886 0.01326 0.043187 0.04139 0.018089 0.0839-0.074851zm-0.10694 7.7768c-0.20261-0.32902-0.38136-0.68227-0.54736-0.98915 2.1567-1.283 4.6221-2.6808 6.4635-3.7425 0.11305-0.06465 0.20555-0.12306 0.20555-0.12981-0.67088-0.40119-1.2067-0.70878-1.9129-1.1387 0-0.0218 0.55713-1.0012 0.58745-1.0327 8e-3 -0.00832 0.04565 0.00334 0.08671 0.026869 0.97573 0.56389 1.9984 1.1555 2.9666 1.7078 0.0341 0 0.18498 0.15867 0.21923 0.23054 0.05705 0.11969 0.0549 0.30196-0.0049 0.41756-0.03926 0.07587-0.18096 0.22446-0.21406 0.22446-2.3604 1.3531-5.0091 2.8863-7.6179 4.3927-0.04153 0.02315-0.09041 0.05231-0.10861 0.06479-0.0524 0.03595-0.08746 0.02689-0.12328-0.03183zm-9.3158-14.521c0.013401-0.11656 0.010602-0.13653 0.052497-0.23353 0.02882-0.066731 0.062304-0.098794 0.17121-0.1349 0.10107-0.015051 0.15792-0.015775 0.24493 0.026409l7.4011 4.2214c0 0.020922-0.55682 1.0023-0.58836 1.0369l-6.057-3.4544c-0.027098 2.4029-0.01617 4.1143-0.016153 6.7494l-1.2082 0.02098c2e-7 -2.7441-3e-6 -5.4882-3.1e-6 -8.2323z" stroke-width=".01678"/>
</svg>
