<svg width="24" height="24" viewBox="0 0 6.35 6.35" xmlns="http://www.w3.org/2000/svg"><path d="M1.247.53a.066.066 0 0 0-.066.066v.187c0 .037.03.067.066.067h.188c.037 0 .066-.03.066-.067V.596a.066.066 0 0 0-.066-.067zm3.668 0a.066.066 0 0 0-.067.066v.187c0 .037.03.067.067.067h.188c.036 0 .066-.03.066-.067V.596a.066.066 0 0 0-.066-.067zM.927.86A.066.066 0 0 0 .86.928v.188c0 .036.03.066.066.066h.188c.036 0 .066-.03.066-.066V.927a.066.066 0 0 0-.066-.066zm4.308 0a.066.066 0 0 0-.066.067v.188c0 .036.03.066.066.066h.188c.037 0 .066-.03.066-.066V.927a.066.066 0 0 0-.066-.066zm-4.64.332a.066.066 0 0 0-.066.066v.188c0 .037.03.066.066.066h.188c.037 0 .067-.03.067-.066v-.188a.066.066 0 0 0-.067-.066zm.995 0a.066.066 0 0 0-.067.066v.188c0 .037.03.066.067.066h.188c.036 0 .066-.03.066-.066v-.188a.066.066 0 0 0-.066-.066zm2.982 0a.066.066 0 0 0-.066.066v.188c0 .037.03.066.066.066h.188c.037 0 .066-.03.066-.066v-.188a.066.066 0 0 0-.066-.066zm.995 0a.066.066 0 0 0-.067.066v.188c0 .037.03.066.067.066h.187c.037 0 .067-.03.067-.066v-.188a.066.066 0 0 0-.067-.066zm-4.972.331a.066.066 0 0 0-.066.067v.188c0 .036.03.066.066.066h.188c.037 0 .067-.03.067-.066V1.59a.066.066 0 0 0-.067-.067zm.663 0a.066.066 0 0 0-.066.067v.188c0 .036.03.066.066.066h.188c.037 0 .066-.03.066-.066V1.59a.066.066 0 0 0-.066-.067zm3.646 0a.066.066 0 0 0-.067.067v.188c0 .036.03.066.067.066h.188c.036 0 .066-.03.066-.066V1.59a.066.066 0 0 0-.066-.067zm.662 0a.066.066 0 0 0-.066.067v.188c0 .036.03.066.066.066h.188c.037 0 .067-.03.067-.066V1.59a.066.066 0 0 0-.067-.067zm-4.97.332a.066.066 0 0 0-.067.066v.188c0 .037.03.066.066.066h.188c.037 0 .066-.03.066-.066v-.188a.066.066 0 0 0-.066-.066zm.662 0a.066.066 0 0 0-.066.066v.188c0 .037.03.066.066.066h.188c.037 0 .066-.03.066-.066v-.188a.066.066 0 0 0-.066-.066zm.707 0a.11.11 0 0 0-.11.11v2.43a.11.11 0 0 0 .11.111h2.43a.11.11 0 0 0 .11-.11v-2.43a.11.11 0 0 0-.11-.111zm2.939 0a.066.066 0 0 0-.067.066v.188c0 .037.03.066.067.066h.188c.036 0 .066-.03.066-.066v-.188a.066.066 0 0 0-.066-.066zm.662 0a.066.066 0 0 0-.066.066v.188c0 .037.03.066.066.066h.188c.037 0 .067-.03.067-.066v-.188a.066.066 0 0 0-.067-.066zm-4.97.331a.066.066 0 0 0-.067.067v.187c0 .037.03.067.066.067h.188c.037 0 .066-.03.066-.067v-.187a.066.066 0 0 0-.066-.067zm.662 0a.066.066 0 0 0-.066.067v.187c0 .037.03.067.066.067h.188c.037 0 .066-.03.066-.067v-.187a.066.066 0 0 0-.066-.067zm.994 0h.188c.037 0 .067.03.067.067v.187c0 .037-.03.067-.067.067h-.188a.066.066 0 0 1-.066-.067v-.187c0-.037.03-.067.066-.067zm.332 0h.188c.036 0 .066.03.066.067v.187c0 .037-.03.067-.066.067h-.188a.066.066 0 0 1-.066-.067v-.187c0-.037.029-.067.066-.067zm.994 0h.188c.037 0 .066.03.066.067v.187c0 .037-.03.067-.066.067h-.188a.066.066 0 0 1-.066-.067v-.187c0-.037.03-.067.066-.067zm.331 0h.188c.037 0 .067.03.067.067v.187c0 .037-.03.067-.067.067H3.91a.066.066 0 0 1-.066-.067v-.187c0-.037.03-.067.066-.067zm.995 0a.066.066 0 0 0-.067.067v.187c0 .037.03.067.067.067h.188c.036 0 .066-.03.066-.067v-.187a.066.066 0 0 0-.066-.067zm.662 0a.066.066 0 0 0-.066.067v.187c0 .037.03.067.066.067h.188c.037 0 .067-.03.067-.067v-.187a.066.066 0 0 0-.067-.067zm-4.97.332a.066.066 0 0 0-.067.066v.188c0 .037.03.066.066.066h.188c.037 0 .066-.03.066-.066v-.188a.066.066 0 0 0-.066-.066zm.662 0a.066.066 0 0 0-.066.066v.188c0 .037.03.066.066.066h.188c.037 0 .066-.03.066-.066v-.188a.066.066 0 0 0-.066-.066zm.994 0h.188c.037 0 .066.03.066.066v.188c0 .037-.03.066-.066.066h-.188a.066.066 0 0 1-.066-.066v-.188c0-.037.03-.066.066-.066zm.663 0h.188c.037 0 .066.03.066.066v.188c0 .037-.03.066-.066.066h-.188a.066.066 0 0 1-.066-.066v-.188c0-.037.03-.066.066-.066zm.663 0h.188c.037 0 .066.03.066.066v.188c0 .037-.03.066-.066.066h-.188a.066.066 0 0 1-.066-.066v-.188c0-.037.03-.066.066-.066zm1.326 0a.066.066 0 0 0-.067.066v.188c0 .037.03.066.067.066h.187c.037 0 .067-.03.067-.066v-.188a.066.066 0 0 0-.067-.066zm.662 0a.066.066 0 0 0-.066.066v.188c0 .037.03.066.066.066h.188c.037 0 .067-.03.067-.066v-.188a.066.066 0 0 0-.067-.066zm-4.97.331a.066.066 0 0 0-.067.066v.188c0 .037.03.066.066.066h.188c.037 0 .066-.03.066-.066v-.188a.066.066 0 0 0-.066-.066zm.662 0a.066.066 0 0 0-.066.066v.188c0 .037.03.066.066.066h.188c.037 0 .066-.03.066-.066v-.188a.066.066 0 0 0-.066-.066zm.994 0h.188c.037 0 .066.03.066.066v.188c0 .037-.03.066-.066.066h-.188a.066.066 0 0 1-.066-.066v-.188c0-.036.03-.066.066-.066zm.663 0h.188c.037 0 .066.03.066.066v.188c0 .037-.03.066-.066.066h-.188a.066.066 0 0 1-.066-.066v-.188c0-.036.03-.066.066-.066zm.663 0h.188c.036 0 .066.03.066.066v.188c0 .037-.03.066-.066.066h-.188a.066.066 0 0 1-.066-.066v-.188c0-.036.03-.066.066-.066zm1.325 0a.066.066 0 0 0-.066.066v.188c0 .037.03.066.066.066h.188c.037 0 .067-.03.067-.066v-.188a.066.066 0 0 0-.067-.066zm.663 0a.066.066 0 0 0-.066.066v.188c0 .037.03.066.066.066h.188c.037 0 .066-.03.066-.066v-.188a.066.066 0 0 0-.066-.066zm-4.97.331a.066.066 0 0 0-.067.067v.188c0 .036.03.066.066.066h.188c.037 0 .066-.03.066-.066v-.188a.066.066 0 0 0-.066-.067zm.662 0a.066.066 0 0 0-.066.067v.188c0 .036.03.066.066.066h.188c.037 0 .066-.03.066-.066v-.188a.066.066 0 0 0-.066-.067zm.994 0h.188c.037 0 .066.03.066.067v.188c0 .036-.03.066-.066.066h-.188a.066.066 0 0 1-.066-.066v-.188c0-.037.03-.067.066-.067zm.332 0h.187c.037 0 .067.03.067.067v.188c0 .036-.03.066-.067.066h-.187a.066.066 0 0 1-.067-.066v-.188c0-.037.03-.067.067-.067zm.994 0h.188c.036 0 .066.03.066.067v.188c0 .036-.03.066-.066.066h-.188a.066.066 0 0 1-.066-.066v-.188c0-.037.029-.067.066-.067zm.331 0h.188c.037 0 .066.03.066.067v.188c0 .036-.03.066-.066.066H3.91a.066.066 0 0 1-.066-.066v-.188c0-.037.03-.067.066-.067zm.994 0a.066.066 0 0 0-.066.067v.188c0 .036.03.066.066.066h.188c.037 0 .067-.03.067-.066v-.188a.066.066 0 0 0-.067-.067zm.663 0a.066.066 0 0 0-.066.067v.188c0 .036.03.066.066.066h.188c.037 0 .066-.03.066-.066v-.188a.066.066 0 0 0-.066-.067zm-4.971.332a.066.066 0 0 0-.066.066v.188c0 .037.03.066.066.066h.188c.037 0 .066-.03.066-.066v-.188a.066.066 0 0 0-.066-.066zm.663 0a.066.066 0 0 0-.066.066v.188c0 .037.03.066.066.066h.188c.036 0 .066-.03.066-.066v-.188a.066.066 0 0 0-.066-.066zm.994 0h.188c.037 0 .066.03.066.066v.188c0 .037-.03.066-.066.066h-.188a.066.066 0 0 1-.066-.066v-.188c0-.036.03-.066.066-.066zm1.326 0h.188c.036 0 .066.03.066.066v.188c0 .037-.03.066-.066.066h-.188a.066.066 0 0 1-.067-.066v-.188c0-.036.03-.066.067-.066zm1.325 0a.066.066 0 0 0-.066.066v.188c0 .037.03.066.066.066h.188c.037 0 .066-.03.066-.066v-.188a.066.066 0 0 0-.066-.066zm.663 0a.066.066 0 0 0-.066.066v.188c0 .037.03.066.066.066h.188c.037 0 .066-.03.066-.066v-.188a.066.066 0 0 0-.066-.066zm-4.971.331a.066.066 0 0 0-.066.067v.187c0 .037.03.067.066.067h.188c.037 0 .066-.03.066-.067V3.91a.066.066 0 0 0-.066-.067zm.663 0a.066.066 0 0 0-.067.067v.187c0 .037.03.067.067.067h.188c.036 0 .066-.03.066-.067V3.91a.066.066 0 0 0-.066-.067zm.994 0h.188c.037 0 .066.03.066.067v.187c0 .037-.03.067-.066.067h-.188a.066.066 0 0 1-.066-.067V3.91c0-.037.03-.067.066-.067zm1.326 0h.187c.037 0 .067.03.067.067v.187c0 .037-.03.067-.067.067h-.187a.066.066 0 0 1-.067-.067V3.91c0-.037.03-.067.067-.067zm1.325 0a.066.066 0 0 0-.066.067v.187c0 .037.03.067.066.067h.188c.037 0 .066-.03.066-.067V3.91a.066.066 0 0 0-.066-.067zm.663 0a.066.066 0 0 0-.066.067v.187c0 .037.03.067.066.067h.188c.037 0 .066-.03.066-.067V3.91a.066.066 0 0 0-.066-.067zm-4.971.332a.066.066 0 0 0-.066.066v.188c0 .037.029.066.066.066h.188c.036 0 .066-.03.066-.066V4.24a.066.066 0 0 0-.066-.066zm.663 0a.066.066 0 0 0-.067.066v.188c0 .037.03.066.067.066h.187c.037 0 .067-.03.067-.066V4.24a.066.066 0 0 0-.067-.066zm3.645 0a.066.066 0 0 0-.066.066v.188c0 .037.03.066.066.066h.188c.037 0 .066-.03.066-.066V4.24a.066.066 0 0 0-.066-.066zm.663 0a.066.066 0 0 0-.066.066v.188c0 .037.03.066.066.066h.188c.037 0 .066-.03.066-.066V4.24a.066.066 0 0 0-.066-.066zm-4.971.331a.066.066 0 0 0-.067.067v.187c0 .037.03.066.067.066h.188a.066.066 0 0 0 .066-.066v-.187a.066.066 0 0 0-.066-.067zm.663 0a.066.066 0 0 0-.067.067v.187c0 .037.03.066.067.066h.187a.066.066 0 0 0 .067-.066v-.187a.066.066 0 0 0-.067-.067zm3.645 0a.066.066 0 0 0-.066.067v.187c0 .037.03.066.066.066h.188a.065.065 0 0 0 .066-.066v-.187a.066.066 0 0 0-.066-.067zm.663 0a.066.066 0 0 0-.066.067v.187c0 .037.03.066.066.066h.188a.066.066 0 0 0 .066-.066v-.187a.066.066 0 0 0-.066-.067zm-4.971.331a.066.066 0 0 0-.067.067v.188c0 .036.03.066.067.066h.188c.036 0 .066-.03.066-.066v-.188a.066.066 0 0 0-.066-.067zm.994 0a.066.066 0 0 0-.066.067v.188c0 .036.03.066.066.066h.188c.037 0 .066-.03.066-.066v-.188a.066.066 0 0 0-.066-.067zm2.983 0a.066.066 0 0 0-.067.067v.188c0 .036.03.066.067.066h.187c.037 0 .067-.03.067-.066v-.188a.066.066 0 0 0-.067-.067zm.994 0a.066.066 0 0 0-.066.067v.188c0 .036.03.066.066.066h.188c.036 0 .066-.03.066-.066v-.188a.066.066 0 0 0-.066-.067zm-4.64.332a.066.066 0 0 0-.066.066v.188c0 .037.03.066.066.066h.188c.037 0 .066-.03.066-.066v-.188a.066.066 0 0 0-.066-.066zm4.308 0a.066.066 0 0 0-.066.066v.188c0 .037.03.066.066.066h.188c.037 0 .067-.03.067-.066v-.188a.066.066 0 0 0-.067-.066zM1.246 5.5a.066.066 0 0 0-.066.067v.187c0 .037.03.067.066.067h.188c.037 0 .067-.03.067-.067v-.187a.066.066 0 0 0-.067-.067zm3.668 0a.066.066 0 0 0-.066.067v.187c0 .037.03.067.066.067h.188c.037 0 .066-.03.066-.067v-.187a.066.066 0 0 0-.066-.067z"/></svg>