<svg viewBox="0 0 24 24" xmlns="http://www.w3.org/2000/svg"><path d="M9.397 3.446c-.365 0-.434.027-.633.25-.126.141-.244.38-.27.547-.079.487-.125.513-.5.276-.847-.534-1.58-.226-1.733.727-.028.174-.072.317-.099.317s-.186-.093-.352-.206c-.57-.388-1.228-.322-1.539.153C4.144 5.704 2 17.722 2 18.24c0 .668.511.801 1.384.361.295-.148.55-.269.567-.269.018 0-.002.148-.042.327-.147.654.083 1.058.601 1.058.135 0 .474-.121.753-.27.28-.147.523-.268.542-.268s.015.22-.01.492c-.044.463-.035.506.161.702.173.173.257.201.491.169.255-.035 1.844-.857 8.361-4.324l2.5-1.328c.873-.464 1.445-.772 2.23-1.2.36-.196.945-.501 1.3-.68.882-.443 1.162-.716 1.162-1.136 0-.272-.047-.372-.296-.626-.162-.166-.32-.3-.353-.3-.033 0-.386-.227-.783-.502-3.05-1.995-5.19-3.394-7.03-4.584C9.83 3.46 9.805 3.446 9.398 3.446zm-.985 1.37c.017-.016.365.209 5.78 3.727 2.116 1.374 3.959 2.616 4.096 2.758.336.348.351.79.039 1.098-.117.114-1.959 1.137-4.096 2.274l-5.54 2.949a550.39 550.39 0 0 0-2.21 1.18c-.652.353-.625.41-.403-.81.076-.418.122-.768.116-.847l.484-.267c.269-.15 1.301-.704 2.295-1.232l3.731-1.979c1.058-.561 1.99-1.078 2.07-1.147.08-.07.193-.237.25-.375.09-.212.09-.289-.001-.501-.148-.348-.28-.452-1.933-1.523L9.876 8.034C8.21 6.951 7.975 6.818 7.974 6.952c0 .093-1.64 9.493-1.74 9.973l-.04.19c-.02-.02-.082-.002-.136.04-.18.142-2.058 1.11-2.058 1.061a942 942 0 0 1 .954-5.485c.524-2.99 1.015-5.802 1.09-6.247.075-.444.143-.817.152-.83.008-.013.422.241.918.563.496.322.91.574.922.561.01-.013.096-.456.19-.985.093-.529.178-.968.186-.976z"/></svg>