<?xml version="1.0" encoding="UTF-8"?>
<svg version="1.1" viewBox="0 0 24 24" xml:space="preserve" xmlns="http://www.w3.org/2000/svg"><path d="m2.5078 10.508c-0.28034-0.001599-0.50829 0.22552-0.50781 0.50586v1.9727c0 0.28 0.22681 0.50586 0.50781 0.50586h18.984c0.28034 0.001599 0.50829-0.22552 0.50781-0.50586v-1.9727c4.82e-4 -0.28034-0.22748-0.50742-0.50781-0.50586h-18.984zm12.641 0.11719h6.3438c0.218 0 0.39062 0.16967 0.39062 0.38867v1.9727c0.0015 0.21604-0.17459 0.39126-0.39062 0.38867h-6.7031l0.35938-2.75zm-11.619 0.64258c0.010156-4.27e-4 0.02101 0 0.03125 0 0.32767 0 0.61443 0.22051 0.69922 0.53711 0.075369 0.28142-0.025361 0.57649-0.24805 0.75391-0.033426-0.03662-0.071428-0.068623-0.11328-0.095703 0.19451-0.13948 0.2837-0.38587 0.2207-0.62109-0.068012-0.25392-0.29589-0.42969-0.55859-0.42969-0.2627 0-0.49254 0.17577-0.56055 0.42969-0.051168 0.19108-0.0017829 0.39064 0.12305 0.5332-0.030329 0.0408-0.055507 0.083539-0.074219 0.13086-0.18118-0.17986-0.25783-0.44585-0.18945-0.70117 0.082133-0.3067 0.35507-0.52386 0.66992-0.53711zm3.998 0-0.15039 1.1445c-0.098404 0.02867-0.20025 0.042496-0.30273 0.041016-0.060004 0-0.1122-0.009297-0.1582-0.029297-0.046003-0.02-0.08428-0.047021-0.11328-0.082031-0.03056-0.03688-0.051626-0.080303-0.0625-0.12695-0.018305-0.11363-0.0040804-0.23004 0.041016-0.33594 0.023001-0.05 0.050936-0.094859 0.085938-0.13086s0.076095-0.065928 0.12109-0.085938c0.049132-0.0202 0.10118-0.028413 0.1543-0.027343 0.066921-0.0019 0.13328 0.016304 0.18945 0.052734l0.052734-0.39844 0.14258-0.021484zm11.49 0c-0.105 0-0.18619 0.027031-0.24219 0.082031-0.05978 0.06277-0.096306 0.14409-0.10352 0.23047l-0.11328 0.85352h0.14062l0.08789-0.66406h0.30078l0.015625-0.11719h-0.29883l0.005859-0.070313c0.0053-0.05161 0.025674-0.10053 0.058594-0.14062 0.03-0.036 0.079531-0.052734 0.14453-0.052734 0.0381-0.0018 0.076128 0.004801 0.11133 0.019531l0.035156-0.12109c-0.0462-0.014-0.094318-0.020591-0.14258-0.019531zm2.1465 0-0.14258 0.021484-0.048828 0.39844c-0.05716-0.03617-0.12378-0.054534-0.19141-0.052734-0.10316-0.0021-0.2027 0.038098-0.27539 0.11133-0.0368 0.03882-0.06654 0.083772-0.08789 0.13281-0.04448 0.10605-0.058023 0.22252-0.039063 0.33594 0.02088 0.09422 0.086532 0.17227 0.17578 0.20898 0.050119 0.02065 0.10401 0.030627 0.1582 0.029297 0.10176 0.0017 0.20318-0.012176 0.30078-0.041016l0.15039-1.1445zm-10.586 0.058594h0.009766c0.025 0 0.044593 0.010344 0.058593 0.027344 0.016 0.016 0.023532 0.038396 0.019532 0.066406-4e-3 0.028-0.01711 0.049406-0.03711 0.066406-0.01832 0.01592-0.040183 0.025171-0.064453 0.025391-0.02294 5.66e-4 -0.04656-0.008901-0.0625-0.025391-0.01588-0.01844-0.022078-0.042496-0.017578-0.066406 0.0031-0.02582 0.015106-0.049856 0.035156-0.066406 0.01628-0.01414 0.037134-0.023271 0.058594-0.025391v-0.001953zm7.8066 0c-0.02194 0.0027-0.042464 0.012244-0.058594 0.027344-0.0199 0.01672-0.032516 0.040536-0.035156 0.066406-0.0044 0.02365 0.001998 0.048036 0.017578 0.066406 0.01577 0.01653 0.037707 0.025731 0.060547 0.025391 0.026 0 0.047406-0.010391 0.066406-0.025391 0.02064-0.01638 0.033969-0.040246 0.037109-0.066406 0.0045-0.02399-0.002701-0.048686-0.019531-0.066406-0.0146-0.01701-0.036204-0.026371-0.058594-0.025391h-0.009765v-0.001953zm0.9668 0c-0.021939 0.0027-0.042463 0.012244-0.058593 0.027344-0.01991 0.01672-0.032517 0.040536-0.035157 0.066406-0.004399 0.02365 0.001999 0.048036 0.017579 0.066406 0.01577 0.01653 0.037707 0.025731 0.060547 0.025391 0.024999 0 0.047406-0.010391 0.066406-0.025391 0.02064-0.01638 0.033969-0.040246 0.037109-0.066406 0.0045-0.02399-0.002701-0.048686-0.019531-0.066406-0.0146-0.01701-0.036204-0.026371-0.058594-0.025391h-0.009766v-0.001953zm-3.5273 0.041016v0.001953c-0.20393 8e-3 -0.38664 0.12834-0.47461 0.3125-0.035 0.067-0.059312 0.14152-0.070312 0.22852s-0.010084 0.16833 0.003906 0.23633c0.02032 0.12363 0.10414 0.22748 0.2207 0.27344 0.06209 0.0247 0.12851 0.036656 0.19531 0.035156 0.0969 0.0012 0.19331-0.013992 0.28516-0.044922 0.01414-0.0055 0.027846-0.012011 0.041016-0.019531l-0.023438-0.12109c-0.0852 0.04098-0.17893 0.061064-0.27344 0.058594-0.05106 0.0016-0.10183-0.008397-0.14844-0.029297-0.03938-0.01891-0.073066-0.047884-0.097656-0.083984-0.02564-0.04096-0.042278-0.086896-0.048828-0.13477-0.0071-0.05647-0.006447-0.11363 0.001953-0.16992 0.0074-0.05859 0.023195-0.11582 0.046875-0.16992 0.03744-0.09846 0.11477-0.1765 0.21289-0.21484 0.07242-0.02939 0.15188-0.036855 0.22852-0.021485 0.04265 5e-3 0.084197 0.016857 0.12305 0.035156 0.01307 0.0059 0.025509 0.013065 0.037109 0.021485l0.058594-0.12109c-0.02771-0.01938-0.058867-0.033306-0.091797-0.041015-0.06423-0.02131-0.13154-0.03187-0.19922-0.03125h-0.027343zm-2.625 0.001953h0.029297c0.10901 0 0.18542 0.025172 0.23242 0.076171 0.047999 0.05 0.06864 0.11988 0.05664 0.21289-0.0054 0.03708-0.018039 0.073209-0.037109 0.10547-0.01991 0.0356-0.043683 0.068709-0.070313 0.099609-0.03 0.032-0.060693 0.063693-0.095703 0.095703l-0.10156 0.091797-0.066407 0.058594c-0.04789 0.04495-0.094115 0.094894-0.13476 0.14648-0.01385 0.01718-0.022794 0.036994-0.027344 0.058594h0.47852l-0.015625 0.11914h-0.62891v-0.017578l0.001953-0.015625c0.0058-0.04563 0.020306-0.08979 0.041016-0.13086 0.0212-0.04154 0.046842-0.080927 0.076172-0.11719 0.02986-0.03627 0.060973-0.069923 0.095703-0.10156l0.10742-0.095703 0.078125-0.068359c0.02397-0.02203 0.047029-0.045713 0.068359-0.070313 0.02045-0.02255 0.037975-0.047599 0.052735-0.074218 0.0135-0.02477 0.02239-0.052029 0.02539-0.080079 0.0046-0.02563 0.003294-0.051152-0.003906-0.076171-0.01145-0.04032-0.043404-0.071552-0.083984-0.082032-0.02123-0.0073-0.043947-0.011768-0.066406-0.011718-0.08681 0.006999-0.16738 0.041689-0.23242 0.099609l-0.058594-0.099609c0.0141-0.01309 0.029062-0.02623 0.044922-0.03711 0.0678-0.0513 0.14952-0.080477 0.23438-0.085937zm1.2754 0h0.019532c0.11001 0 0.18832 0.046625 0.23633 0.14062 0.05 0.09401 0.063025 0.22733 0.041015 0.40234-0.022 0.17501-0.071494 0.31029-0.14648 0.4043-0.074 0.09401-0.16443 0.14062-0.27344 0.14062-0.109 0-0.19023-0.046625-0.24023-0.14062-0.048-0.09401-0.062062-0.23029-0.039062-0.4043 0.023-0.17401 0.070521-0.30834 0.14453-0.40234 0.06015-0.08256 0.15585-0.13454 0.25781-0.14062zm-9.1582 0.013671h0.066406c0.14601 1e-6 0.25517 0.027965 0.32617 0.083985 0.072005 0.055 0.099938 0.13804 0.085938 0.24805-0.00586 0.05498-0.023707 0.10724-0.052734 0.1543-0.027155 0.0422-0.064215 0.077985-0.10742 0.10352-0.048014 0.02776-0.099735 0.046681-0.1543 0.056641-0.060004 0.012-0.12621 0.019531-0.19922 0.019531h-0.11719l-0.050781 0.38477h-0.14453l0.13477-1.0254c0.045343-0.01062 0.092181-0.016841 0.13867-0.019531l0.074219-0.00586zm12.523 0.025391-0.14258 0.025391-0.091797 0.69922c-0.0065 0.04526-0.00846 0.091069-0.00586 0.13672 0.0027 0.03515 0.01337 0.06923 0.03125 0.09961 0.01792 0.0278 0.043769 0.04958 0.074219 0.0625 0.033 0.013 0.07786 0.019531 0.13086 0.019531 0.068429-0.0024 0.13589-0.016919 0.19922-0.042969l-0.011718-0.11523-0.056641 0.021484c-0.03355 0.01006-0.068506 0.014672-0.10352 0.013672-0.02123 2.23e-4 -0.04235-0.003066-0.0625-0.009766-0.01596-0.0061-0.029612-0.01702-0.039062-0.03125-0.01092-0.01778-0.017602-0.037823-0.019531-0.058593-0.0023-0.0326-9.94e-4 -0.065347 0.003906-0.097657l0.046875-0.36133h0.29492l0.015625-0.11719h-0.29492l0.03125-0.24219v-0.001953zm-7.8066 0.001953-0.03125 0.24219h0.29688l-0.015625 0.11719h-0.29687l-0.046875 0.36133c-0.00469 0.03245-0.0066062 0.064977-0.0039062 0.097657 2e-3 0.025 0.011484 0.043593 0.021484 0.058593 0.010001 0.015 0.022062 0.02525 0.039063 0.03125 0.019289 0.0067 0.040123 0.009866 0.060547 0.009766 0.03519 9.11e-4 0.069815-0.003502 0.10352-0.013672l0.056641-0.021484 0.011719 0.11523c-0.06324 0.02721-0.13039 0.041789-0.19922 0.042969-0.044184 0.0012-0.087114-0.005101-0.12891-0.019531-0.033002-0.014-0.058171-0.0355-0.076172-0.0625-0.018001-0.027-0.02725-0.0596-0.03125-0.09961-0.00257-0.04576-7.058e-4 -0.091359 0.0058593-0.13672l0.091797-0.69922 0.14258-0.023438zm4.4297 0.082032c-0.03138 0.001899-0.061338 0.013633-0.085938 0.033203-0.03138 0.02513-0.057412 0.056237-0.076172 0.091797-0.02183 0.041979-0.038711 0.085099-0.050781 0.13086-0.01308 0.05373-0.022397 0.1092-0.029297 0.16406-0.0074 0.05371-0.012462 0.1079-0.013672 0.16211 0 0.05 0.007598 0.096775 0.017578 0.13476 0.01 0.038 0.028782 0.069797 0.050782 0.091797 0.0251 0.02274 0.057967 0.034803 0.091797 0.033203 0.037999 0 0.069609-0.010203 0.099609-0.033203 0.03082-0.02517 0.056249-0.056297 0.074219-0.091797 0.02233-0.04235 0.039911-0.088155 0.050781-0.13476 0.02884-0.10594 0.042609-0.21637 0.042969-0.32617 0.0012-0.04455-0.003795-0.08788-0.015625-0.13086-0.0079-0.03467-0.024039-0.066287-0.048829-0.091797-0.024799-0.02324-0.057886-0.035383-0.091796-0.033203h-0.015625zm-9.084 0.017578c-0.062004 0-0.11053 9.12e-4 -0.14453 0.003906l-0.052734 0.41016h0.10938c0.050003 0 0.095715-0.005699 0.13672-0.011719 0.036476-0.0056 0.072346-0.01498 0.10547-0.03125 0.028857-0.01515 0.053837-0.037573 0.072266-0.064453 0.020805-0.03113 0.032945-0.066305 0.037109-0.10352 0.00589-0.03379 0.0019903-0.070133-0.011719-0.10156-0.011439-0.02537-0.030404-0.044994-0.054688-0.058594-0.026725-0.01699-0.056582-0.028433-0.087891-0.033203-0.036304-0.0066-0.072479-0.009665-0.10938-0.009765zm-1.8457 0.046875c0.0068345-3.95e-4 0.014663 6.7e-5 0.021484 0 0.00364-4.4e-5 0.0080899-5.8e-5 0.011719 0 0.11102 0.0017 0.21922 0.047436 0.30078 0.12891 0.12428 0.12413 0.16102 0.31044 0.09375 0.47266-0.063381 0.15286-0.2076 0.2562-0.37109 0.26758v0.001953c-0.10801 0-0.20203 0.057892-0.25195 0.14453h0.46289c0.060904 0.03516 0.11282 0.085301 0.15039 0.14453h-0.79688c0-0.03541 0.0055799-0.070506 0.013672-0.10352v-0.005859c0.019765-0.07375 0.059288-0.14131 0.11328-0.19531 0.072311-0.07317 0.17064-0.12141 0.2793-0.12891v-0.001953c0.11755 0 0.22263-0.069344 0.26758-0.17773s0.020581-0.23342-0.0625-0.31641c-0.083086-0.08299-0.20783-0.10743-0.31641-0.0625-0.10858 0.04492-0.17969 0.15026-0.17969 0.26758h-0.14453c0-0.17559 0.10523-0.33517 0.26758-0.40234 0.045784-0.018944 0.092784-0.030438 0.14062-0.033203zm2.7168 0.076171h0.019531c0.053003 0 0.10253 0.009297 0.14453 0.029297 0.041325 0.01857 0.076656 0.047495 0.10352 0.083985 0.028002 0.036 0.049546 0.080849 0.060547 0.13086 0.012001 0.05 0.011903 0.10501 0.0039062 0.16602-0.0070199 0.05831-0.0234 0.11503-0.048828 0.16797-0.023378 0.048859-0.054946 0.093059-0.09375 0.13086-0.036302 0.03573-0.080011 0.064224-0.12695 0.083984-0.047736 0.0189-0.097097 0.027744-0.14844 0.027344-0.096714 0.0075-0.19067-0.034578-0.25-0.11133-0.029206-0.03921-0.050211-0.08307-0.060547-0.13086-0.010976-0.05538-0.012894-0.11223-0.0039062-0.16797 0.014121-0.11102 0.06377-0.21552 0.14062-0.29688 0.070129-0.06805 0.1622-0.10781 0.25977-0.11328zm1.7793 0h0.0019531 0.019531c0.068969 5.72e-4 0.13648 0.0132 0.20117 0.03711l-0.048828 0.11914c-0.049122-0.021799-0.10251-0.033243-0.15625-0.033203-0.070893-3e-3 -0.13923 0.024099-0.18945 0.074219-0.052185 0.05983-0.083579 0.1357-0.089844 0.21484-0.00531 0.03847-0.0066031 0.076694-0.0019531 0.11523 0.00425 0.03206 0.01572 0.062634 0.033203 0.089844 0.018509 0.02531 0.043599 0.045904 0.072266 0.058594 0.030002 0.013 0.070235 0.019531 0.11523 0.019531 0.060332 3.18e-4 0.11991-0.010433 0.17578-0.033203l0.0039062 0.11914-0.037109 0.013672c-0.016001 4e-3 -0.032733 0.008699-0.052734 0.011719-0.02051 0.0038-0.041704 0.006213-0.0625 0.007813-0.075841 0.01368-0.15362 0.004599-0.22461-0.025391-0.087337-0.03843-0.14966-0.11694-0.16602-0.21094-0.00942-0.05488-0.010047-0.11092-0.0019531-0.16602 0.016222-0.16502 0.11758-0.31019 0.26758-0.38086 0.04443-0.018799 0.092444-0.02888 0.14062-0.03125zm0.60547 0h0.037109c0.055003 1e-6 0.099715 0.008398 0.13672 0.023438 0.033988 0.01102 0.06386 0.032457 0.085937 0.060547 0.020001 0.026 0.033063 0.058693 0.039063 0.095703 0.0048899 0.0399 0.0042668 0.079421-0.0019532 0.11914l-0.064453 0.48828-0.050781 0.009766-0.074219 0.009765c-0.027002 3e-3 -0.056842 0.00386-0.089844 0.005859-0.030891 0.0035-0.062671 0.00536-0.09375 0.00586-0.040431 3.74e-4 -0.079883-0.004002-0.11914-0.013672-0.032955-8e-3 -0.06472-0.022569-0.091797-0.042969-0.024753-0.02041-0.042877-0.047595-0.052734-0.078125-0.011411-0.03722-0.013962-0.076794-0.0078125-0.11523 0.00462-0.04005 0.018686-0.077758 0.041016-0.11133 0.021719-0.03026 0.049711-0.055709 0.082031-0.074219 0.034528-0.02005 0.072304-0.034519 0.11133-0.042969 0.055889-0.01154 0.11307-0.014645 0.16992-0.009765 0.026226 0.0024 0.052398 0.006098 0.078125 0.011718l0.019531 0.003907 0.0058594-0.039063c0.00254-0.0226 0.00254-0.045769 0-0.068359-9.351e-4 -0.02087-0.0067102-0.040754-0.017578-0.058594-0.011252-0.01888-0.028824-0.033859-0.048828-0.042969-0.027083-0.01171-0.056488-0.017475-0.085938-0.015625-0.068442-9.97e-4 -0.13577 0.009097-0.20117 0.029297l-0.0019531-0.11523c0.063081-0.0206 0.12901-0.032537 0.19531-0.035157zm0.80664 0c0.042113-0.001099 0.084164 0.003402 0.125 0.013672 0.016858 0.0023 0.034335 0.005366 0.050781 0.009766l0.03125 0.011719-0.039062 0.11914c-0.057008-0.0262-0.12088-0.038969-0.18359-0.037109-0.036675-1e-3 -0.07251 0.007298-0.10547 0.023438-0.028926 0.013019-0.049468 0.040715-0.052734 0.072265-0.00273 0.01496-0.0020968 0.030262 0.0019531 0.044922 0.00567 0.01394 0.014571 0.026649 0.025391 0.037109 0.014765 0.01135 0.030364 0.020687 0.046875 0.029297 0.019001 9e-3 0.041358 0.017344 0.068359 0.027344 0.035002 0.014 0.066748 0.028969 0.09375 0.042969 0.025216 0.01162 0.04858 0.027405 0.068359 0.046875 0.018902 0.0173 0.033745 0.039883 0.041016 0.064453 0.00761 0.03078 0.0075832 0.06255 0.0019532 0.09375-0.00608 0.06749-0.044037 0.12826-0.10156 0.16406-0.071979 0.04115-0.15351 0.060561-0.23633 0.056641-0.081045 0.0028-0.162-0.012492-0.23633-0.044922l0.041016-0.12109c0.015001 7e-3 0.040216 0.015344 0.074219 0.027344 0.044206 0.01438 0.090244 0.020681 0.13672 0.019531 0.057004 0 0.0999-0.008397 0.12891-0.023437 0.028153-0.01356 0.04791-0.041146 0.050781-0.072266 5e-3 -0.034-0.0042899-0.060078-0.029297-0.080078-0.038457-0.02839-0.08048-0.050949-0.125-0.068359l-0.082031-0.035156c-0.025002-0.013-0.046452-0.027922-0.064453-0.044922s-0.032015-0.0385-0.041016-0.0625c-9e-3 -0.024-0.0098594-0.052881-0.0058594-0.087891 0.00734-0.06629 0.042753-0.12619 0.097656-0.16406 0.064162-0.043569 0.14124-0.065129 0.21875-0.0625zm7.1133 0c-0.09003 0.0049-0.17558 0.040803-0.24219 0.10156-0.03986 0.03691-0.072916 0.080536-0.097656 0.12891-0.02825 0.05693-0.046115 0.11844-0.052735 0.18164-0.0079 0.05374-0.0079 0.10836 0 0.16211 0.0078 0.04668 0.026538 0.090857 0.054688 0.12891 0.02932 0.037529 0.067598 0.067077 0.11133 0.085937 0.047 0.02 0.10583 0.03125 0.17383 0.03125 0.0822 3.03e-4 0.1637-0.014942 0.24024-0.044922l-0.003907-0.11914c-0.06542 0.02514-0.13499 0.03773-0.20508 0.03711-0.088 0-0.14759-0.018547-0.18359-0.060547s-0.051885-0.1055-0.046875-0.1875h0.53516l0.003906-0.023437 0.003906-0.023438c0.018-0.135 0.003098-0.23478-0.044922-0.30078-0.047-0.065-0.12352-0.097656-0.22852-0.097657h-0.017578zm3.373 0c-0.09071 0.0045-0.17702 0.040383-0.24414 0.10156-0.08311 0.08402-0.13601 0.19324-0.15039 0.31055-0.0073 0.05384-0.006747 0.10846 0.001953 0.16211 0.0078 0.04668 0.026548 0.090857 0.054688 0.12891 0.02932 0.037529 0.067598 0.067077 0.11133 0.085937 0.047 0.02 0.10388 0.03125 0.17188 0.03125 0.08219 3.02e-4 0.1637-0.014942 0.24023-0.044922l-0.003906-0.11914c-0.06542 0.02514-0.13499 0.03773-0.20508 0.03711-0.088 0-0.14759-0.018547-0.18359-0.060547-0.035-0.042-0.050885-0.1055-0.046875-0.1875h0.53516c2e-3 -8e-3 0.00486-0.014438 0.00586-0.023437l0.003906-0.023438c0.018-0.135 0.003098-0.23478-0.044922-0.30078-0.047-0.065-0.12547-0.097656-0.23047-0.097657h-0.015625zm-8.8086 0.003907h0.050781c0.063 0 0.11239 0.0074 0.15039 0.02539 0.03627 0.01498 0.066901 0.041059 0.087891 0.074219 0.02162 0.03397 0.03445 0.073101 0.037109 0.11328 0.0042 0.049 0.002994 0.097795-0.003906 0.14648l-0.05664 0.4375h-0.13867l0.052734-0.4082c0.0061-0.0407 0.007959-0.081947 0.00586-0.12305-5.33e-4 -0.02872-0.007595-0.056902-0.021485-0.082032-0.01207-0.021399-0.029874-0.037885-0.052734-0.046874-0.02947-0.01058-0.06246-0.015002-0.09375-0.013672l-0.044922 0.001953-0.048828 0.003906c-0.01339 7.13e-4 -0.025803 0.001906-0.039063 0.003906l-0.023437 0.003907-0.087891 0.66016h-0.14062l0.10352-0.75781c0.08733-0.01912 0.17454-0.032212 0.26367-0.039062zm0.91406 0h0.023438c0.05633-1e-3 0.11454 0.003302 0.16992 0.013672 0.048 9e-3 0.085188 0.01739 0.11719 0.02539l-0.091797 0.69922c-0.016 0.12001-0.057953 0.20476-0.12695 0.25977-0.08662 0.05901-0.19032 0.088531-0.29492 0.082031-0.08368 6.91e-4 -0.16694-0.013846-0.24609-0.041016l0.041016-0.12109c0.07139 0.028999 0.14758 0.042985 0.22461 0.041015 0.08301 0 0.14554-0.015828 0.18555-0.048828 0.042-0.033 0.067162-0.086203 0.076172-0.1582l0.003906-0.033203c-0.061 0.03147-0.12864 0.047408-0.19726 0.048828-0.04436 1.89e-4 -0.087297-0.006095-0.12891-0.021485-0.038229-0.013909-0.072899-0.037669-0.099609-0.068359-0.0282-0.03507-0.048634-0.077214-0.058594-0.12109-0.02322-0.10954-0.008804-0.22391 0.041016-0.32422 0.06683-0.13963 0.20658-0.22843 0.36133-0.23242zm5.3105 0c-0.08573 0.0054-0.17042 0.021798-0.25195 0.048828l-0.097656 0.74805h0.14062l0.085937-0.65625 0.050781-0.009766c0.05775-0.01408 0.11804-0.01408 0.17578 0 0.025 5e-3 0.044687 0.007699 0.054687 0.011719l0.041016-0.12109c-0.0096-0.0028-0.019377-0.004759-0.029297-0.005859-0.01285-0.0034-0.025903-0.006013-0.039063-0.007813-0.01547-3e-3 -0.031135-0.004959-0.046875-0.005859-0.015-2e-3 -0.027062-0.001953-0.039062-0.001953h-0.044922zm-6.8691 0.015625h0.14062l-0.10352 0.78125h-0.13867l0.10156-0.78125zm7.8066 0-0.10156 0.78125h0.13867l0.10352-0.78125h-0.14062zm0.9668 0-0.10156 0.78125h0.13867l0.10352-0.78125h-0.14062zm-2.7051 0.099609h0.011719c0.056999 0 0.098 0.019547 0.125 0.060547 0.027999 0.04 0.040249 0.09325 0.03125 0.15625h-0.39063c7e-3 -0.02763 0.016797-0.054468 0.029297-0.080078 0.01269-0.02515 0.029159-0.0482 0.048829-0.06836 0.019549-0.020899 0.042709-0.038101 0.068359-0.050781 0.02394-0.01094 0.049862-0.016918 0.076172-0.017578zm3.373 0h0.011718c0.057 0 0.098 0.019547 0.125 0.060547 0.028 0.04 0.037344 0.09325 0.027344 0.15625h-0.38672c0.01625-0.08463 0.070165-0.15724 0.14648-0.19727 0.02389-0.01137 0.049762-0.018001 0.076172-0.019531zm-13.674 0.003906c-0.061821 0.0028-0.11988 0.031145-0.16016 0.078125-0.049445 0.05958-0.079392 0.13184-0.085937 0.20898-0.012001 0.08801-0.0037101 0.15893 0.029297 0.21094 0.033222 0.05104 0.091544 0.079582 0.15234 0.076172 0.065926 0.0012 0.12882-0.026232 0.17188-0.076172 0.049641-0.05955 0.080871-0.13373 0.087891-0.21094 0.01445-0.0717 0.0025398-0.14518-0.033203-0.20898-0.032002-0.052-0.082387-0.078125-0.15039-0.078125h-0.011719zm0.88672 0.001953c-0.065701 0.0021-0.12736 0.031942-0.16992 0.082032-0.021001 0.025-0.036827 0.054834-0.048828 0.089844-0.012001 0.034999-0.021343 0.073271-0.027344 0.11328-0.012001 0.09201 6.1e-5 0.16289 0.039062 0.21289 0.038002 0.05 0.094919 0.072266 0.16992 0.072266 0.05315 0.0018 0.10649-0.003195 0.1582-0.015625l0.064453-0.49414c-0.047333-0.04028-0.10779-0.062186-0.16992-0.060547h-0.013672-0.0019532zm13.639 0h0.013672c0.06245-0.001599 0.1234 0.019204 0.17188 0.058594l-0.066406 0.49609c-0.05104 0.01281-0.10368 0.018065-0.15625 0.015625-0.075 0-0.13192-0.023266-0.16992-0.072266-0.039-0.05-0.053016-0.12089-0.041016-0.21289 5e-3 -0.04 0.015344-0.078282 0.027344-0.11328 0.012-0.035 0.030781-0.064844 0.050781-0.089844 0.04189-0.05092 0.104-0.080902 0.16992-0.082032zm-8.7539 0.001954c-0.05965 0.0038-0.11494 0.029075-0.15625 0.072265-0.04856 0.05497-0.077315 0.12423-0.083984 0.19727-0.0058 0.03818-0.005147 0.077294 0.001953 0.11523 0.0059 0.02882 0.016063 0.056158 0.033203 0.080078 0.01666 0.01986 0.03846 0.035232 0.0625 0.044922 0.025 0.01 0.050162 0.015625 0.076172 0.015625 0.03594 2e-6 0.071128-0.004995 0.10547-0.015625 0.02762-0.0086 0.054005-0.021149 0.078125-0.037109l0.060547-0.45703c-0.04907-0.01199-0.0999-0.016985-0.15039-0.015625h-0.027344zm-8.4688 0.08789c0.00484-5.02e-4 0.010669 0 0.015625 0 0.079297 0 0.14453 0.065292 0.14453 0.14453 0 0.079228-0.065236 0.14453-0.14453 0.14453-0.079296 0-0.14648-0.065293-0.14648-0.14453 0-0.07429 0.058299-0.137 0.13086-0.14453zm5.0684 0.22266v0.001954c-0.011001 0-0.023155 0.001906-0.035156 0.003906-0.023562 0.0031-0.046855 0.009401-0.068359 0.019531-0.020178 0.0087-0.037982 0.022763-0.052734 0.039063-0.015751 0.0182-0.025562 0.040453-0.027344 0.064453-7e-3 0.05 0.0032002 0.085469 0.033203 0.10547 0.030002 0.019999 0.071953 0.029296 0.12695 0.029296 0.033002 0 0.062889-0.002906 0.087891-0.003906 0.022215-0.0017 0.044677-0.004866 0.066406-0.009766l0.03125-0.23047c-0.041896-0.01225-0.085252-0.019851-0.12891-0.019532h-0.033203zm5.1445 0.18164h0.011719c0.03 0 0.05336 0.009297 0.06836 0.029297s0.021578 0.044303 0.017578 0.070312c-0.0029 0.02706-0.015457 0.053486-0.035157 0.072266-0.020919 0.02006-0.049165 0.030167-0.078124 0.029297-0.03 0-0.055313-0.009297-0.070313-0.029297-0.01552-0.01979-0.021618-0.045492-0.017578-0.070312 0.0038-0.02693 0.017009-0.051983 0.037109-0.070313 0.0178-0.01832 0.040967-0.02892 0.066406-0.03125z"/></svg>
