<?xml version="1.0" encoding="UTF-8"?>
<svg version="1.1" viewBox="0 0 24 24" xmlns="http://www.w3.org/2000/svg">
 <path d="m19.42 11.07v-0.24a4.92 4.92 0 0 0-9.28-2.3 3.87 3.87 0 0 0-0.77-0.08 3.56 3.56 0 0 0-3.37 2.55h-0.4a3.57 3.57 0 0 0 0 7.14h12.81a3.59 3.59 0 0 0 1-7zm-6.77 6.71c-1 0-1.76-1.16-1.76-2.24 0-1.28 0.48-1.28 1.69-1.28s1.83 0 1.83 1.28c0 1.08-0.79 2.24-1.76 2.24zm-1.18-5.3a1.17 1.17 0 1 1 1.17 1.17 1.17 1.17 0 0 1-1.17-1.17zm2.85 1.33a2.07 2.07 0 0 0 0.47-1.33 2.15 2.15 0 1 0-3.86 1.3 1 1 0 0 0-0.35 0.25 2.58 2.58 0 1 1 4.09 0 0.9 0.9 0 0 0-0.35-0.22zm0.68 2.08a4.38 4.38 0 0 0 0-0.51 2.62 2.62 0 0 0 0-0.29 3.53 3.53 0 1 0-4.75 0v0.28a3.05 3.05 0 0 0 0.05 0.52 4.14 4.14 0 1 1 4.68 0z"/>
</svg>
