<?xml version="1.0" encoding="UTF-8"?>
<svg version="1.1" viewBox="0 0 24 24" xmlns="http://www.w3.org/2000/svg" xmlns:xlink="http://www.w3.org/1999/xlink">
 <g stroke-width=".021366">
  <path d="m21.379 11.574c-0.38438 0-0.69141 0.21793-0.69141 0.74609 0 0.52817 0.30704 0.74414 0.69141 0.74414 0.29677 0 0.52729-0.13523 0.62109-0.31641l-0.17383-0.09375c-0.0876 0.12243-0.2407 0.24219-0.42188 0.24219-0.24998 0-0.46094-0.13979-0.46094-0.54297h1.041c0.0344-0.34442-0.10871-0.7793-0.60547-0.7793zm-0.044922 0.16992c0.008313-4.65e-4 0.016798 0 0.025391 0 0.25618 0 0.37534 0.26023 0.36914 0.44141h-0.77734c0.0031-0.19291 0.12512-0.42701 0.38281-0.44141z"/>
  <path d="m20.199 11.039v0.72266c-0.11238-0.097-0.2641-0.1875-0.42969-0.1875-0.29698 0-0.64062 0.21985-0.64062 0.77344 0 0.54098 0.39648 0.7168 0.63086 0.7168 0.1908 0 0.32386-0.083872 0.43945-0.20117v0.16016h0.24414v-1.9844h-0.24414zm-0.40234 0.70898c0.1876 0 0.32735 0.10413 0.40234 0.22656h0.001953v0.6543c-0.0688 0.11986-0.2362 0.26172-0.4082 0.26172-0.16879 0-0.4082-0.1354-0.4082-0.54883 0-0.21174 0.071539-0.59375 0.41211-0.59375z"/>
  <path d="m3.1914 11.031c-0.24998 0-0.39923 0.10267-0.57422 0.22852v-0.1875h-0.61719v3.3594h0.61719v-1.5918c0.17071 0.10555 0.32773 0.17773 0.52344 0.17773 0.47069 0 0.9043-0.23851 0.9043-1.041 0-0.70379-0.51615-0.94531-0.85352-0.94531zm-0.19531 0.44922c0.010777-7.72e-4 0.022013 0 0.033203 0 0.34164 0 0.41211 0.35357 0.41211 0.56445 1e-7 0.22776-0.055082 0.60156-0.42578 0.60156-0.18311 0-0.30272-0.1056-0.39844-0.22461h-0.00195v-0.73438c0.10155-0.09895 0.2192-0.19545 0.38086-0.20703z"/>
  <path d="m10.168 11.623c-0.07905-0.17349-0.20404-0.36044-0.46236-0.35361-0.49975 0-0.59568 0.4489-0.59568 0.76853s0.095719 0.76853 0.59568 0.76853c0.27904-0.01026 0.43736-0.19379 0.53735-0.37754l0.26237 0.09529c-0.13332 0.28566-0.42903 0.5068-0.79973 0.5068-0.51235 0-0.92044-0.28908-0.92044-0.99287s0.40809-0.99288 0.92044-0.99288c0.37903 0 0.61235 0.19379 0.73712 0.47603z"/>
  <path d="m11.602 11.045c-0.33301 0.009386-0.5741 0.16353-0.75976 0.38086l0.23047 0.13867c0.13332-0.15982 0.30846-0.29492 0.5625-0.29492 0.25831 0 0.4375 0.11578 0.4375 0.33008v0.10547l-0.10547 0.023438c-0.5081 0.11217-1.1992 0.22632-1.1992 0.76367 0 0.29591 0.28269 0.53906 0.63672 0.53906 0.2707 0 0.48059-0.14341 0.66797-0.29297l0.033203 0.23828h0.35352c-0.06669-0.13269-0.0582-0.2765-0.0625-0.41602v-0.93164c0-0.42839-0.44935-0.58398-0.76172-0.58398-0.010937 0-0.022461-3.03e-4 -0.033204 0zm0.4707 0.87695v0.55078c-0.15811 0.15981-0.39599 0.30664-0.6543 0.30664-0.19571 0-0.3457-0.15805-0.3457-0.31445 0-0.33651 0.56299-0.43694 0.87109-0.51172l0.12891-0.03125z"/>
  <path d="m14.063 11.517c-0.12905-0.1564-0.28331-0.24827-0.52475-0.24827-0.21238 0-0.41236 0.08845-0.41236 0.27882 0 0.45915 1.2121 0.25853 1.2121 0.89096 0 0.36728-0.3207 0.59162-0.75379 0.59162-0.3707 0-0.67068-0.13268-0.85806-0.39442l0.25831-0.13268c0.12499 0.19379 0.32476 0.30254 0.59974 0.30254 0.23738 0 0.44975-0.10533 0.44975-0.31964 0-0.47261-1.2121-0.24827-1.2121-0.92151 0-0.32305 0.32476-0.52026 0.70379-0.52026 0.3207 0 0.58735 0.10875 0.7664 0.32647z"/>
  <path d="m15.112 11.099h0.52069v0.22434h-0.52069v1.18c0 0.18353-0.0043 0.30254 0.26237 0.30254 0.09166 0 0.17905-0.0068 0.25831-0.02372v0.19379c-0.10405 0.03055-0.21238 0.05448-0.32498 0.05448-0.54975 0-0.52069-0.30276-0.52069-0.6461v-1.061h-0.34976v-0.22434h0.34976v-0.60872h0.32498z"/>
  <path d="m16.652 11.045c-0.51235 0-0.91992 0.2884-0.91992 0.99219s0.40756 0.99414 0.91992 0.99414c0.39569 0 0.70509-0.18044 0.83008-0.42188l-0.23438-0.12695c-0.11666 0.16323-0.32085 0.32422-0.5625 0.32422-0.33331 0-0.61133-0.18726-0.61133-0.72461h1.3867c0.045719-0.45894-0.14646-1.0371-0.80859-1.0371zm-0.058594 0.22461c0.011077-6.19e-4 0.023706 0 0.035156 0 0.34143 0 0.49854 0.34645 0.49024 0.58789h-1.0371c0.004137-0.25686 0.16832-0.56869 0.51172-0.58789z"/>
  <path d="m18.132 11.504h0.0083c0.12905-0.22434 0.2957-0.43181 0.63713-0.43181h0.12499v0.24144c-0.42497-0.04765-0.64546 0.32647-0.77046 0.59846v1.0642h-0.32473v-1.877h0.32476z"/>
  <path d="m4.2451 12.024c0-0.50659 0.34164-0.99287 1.0245-0.99287 0.68307 0 1.0247 0.48629 1.0247 0.99287 0 0.50338-0.3457 0.99287-1.0247 0.99287-0.6788 2.14e-4 -1.0245-0.48949-1.0245-0.99287m1.4159 0c0-0.23802-0.058329-0.62218-0.39142-0.62218-0.33309 0-0.39142 0.38416-0.39142 0.62218s0.058329 0.62218 0.39142 0.62218c0.33309 2.14e-4 0.39142-0.38416 0.39142-0.62218z"/>
  <path d="m7.9219 9.4434v1.8145c-0.17498-0.12584-0.32424-0.22656-0.57422-0.22656-0.33737 0-0.85352 0.2413-0.85352 0.94531 0 0.80248 0.43361 1.041 0.9043 1.041 0.2581 0 0.40442-0.065072 0.5918-0.20117l0.052734 0.16016h0.49609v-3.5332h-0.61719zm-0.41211 1.9844c0.17905 0 0.304 0.10386 0.41211 0.20898v0.73438c-0.09572 0.11922-0.21512 0.2168-0.39844 0.2168-0.37069 0-0.42578-0.36794-0.42578-0.5957 0-0.21088 0.070469-0.56445 0.41211-0.56445z"/>
  <path d="m18.784 13.024h-0.31557v-0.29848h0.31557z"/>
  <path d="m5.1981 10.168c0.38352 0 0.73969 0.11858 1.0343 0.32092l0.39142-0.31109c-0.39335-0.30831-0.88818-0.49291-1.4255-0.49291-0.73157 0-1.3847 0.34143-1.8093 0.87301l0.41792 0.25254c0.33609-0.39292 0.83477-0.64247 1.3911-0.64247m1.915 3.1322-0.42988-0.22883c-0.33309 0.46065-0.87451 0.76127-1.4851 0.76127-0.42283 0-0.81233-0.14422-1.1226-0.38587l-0.37711 0.31557c0.40424 0.34463 0.92792 0.55338 1.4997 0.55338 0.79524 0 1.498-0.40318 1.915-1.0155m0.48159 0.25618c-0.51043 0.78349-1.3937 1.3031-2.3966 1.3031-0.73905 0-1.4136-0.28182-1.9217-0.74396l-0.49676 0.41578c0.62944 0.60166 1.4811 0.97236 2.4184 0.97236 1.2488 0 2.3466-0.65743 2.9671-1.6439l-0.57047-0.3034m-2.3966-4.4153c0.70999 0 1.3599 0.26066 1.8603 0.69076l0.51171-0.40702c-0.62431-0.5756-1.4578-0.92792-2.372-0.92792-1.1623 0-2.1936 0.5694-2.8312 1.4435l0.55359 0.33438c0.5224-0.6882 1.3488-1.1337 2.2776-1.1337z"/>
 </g>
</svg>
