<?xml version="1.0" encoding="UTF-8"?>
<svg version="1.1" viewBox="0 0 24 24" xmlns="http://www.w3.org/2000/svg" xmlns:xlink="http://www.w3.org/1999/xlink">
 <defs>
  <rect id="SVGID_1_" x="9.4" y="5.8" width="82.5" height="82.5"/>
  <clipPath id="SVGID_2_">
   <use width="100%" height="100%" xlink:href="#SVGID_1_"/>
  </clipPath>
  <style>.cls-1{fill:#5000b9;}</style>
 </defs>
 <style type="text/css">.st0{clip-path:url(#SVGID_2_);fill:#DB4615;}
	.st1{clip-path:url(#SVGID_2_);fill:#FFFFFF;}</style>
 <g transform="matrix(.022854 0 0 .022854 1.7159 6.5513)">
  <path d="m53.26 187.85c11.56-8.11 21.48-14.69 38.01-14.69 22.35 0 56.55 15.56 56.55 60.89 0 51.69-28.68 67.03-59.84 67.03-12.96 0-23.45-4.6-34.72-11.41v105.07h-40.83v-218.95h40.83zm0 74.89c6.33 7.66 14.34 14.46 26.45 14.46 24.54 0 28.13-24.1 28.13-38.77 0-13.57-4.68-36.35-27.29-36.35-11.86 0-20.12 6.56-27.28 13.36v47.3z"/>
  <path d="m158.41 237.12c0-32.64 22.63-63.97 67.83-63.97 45.22 0 67.83 31.33 67.83 63.97 0 32.42-22.88 63.95-67.83 63.95-44.92 0-67.83-31.52-67.83-63.95m93.77 0c0-15.33-3.87-40.11-25.93-40.11-22.04 0-25.89 24.78-25.89 40.11s3.85 40.07 25.89 40.07c22.06 0 25.93-24.74 25.93-40.07"/>
  <path d="m403.67 288.14c-12.42 8.76-22.06 12.93-39.14 12.93-31.16 0-59.81-15.34-59.81-67.03 0-45.33 34.17-60.89 56.5-60.89 16.56 0 26.47 6.58 38.04 14.69v-115.68h40.81v226.28h-32.8zm-31.71-89.33c-22.6 0-27.29 22.77-27.29 36.34 0 14.67 3.59 38.32 28.13 38.32 12.12 0 20.12-6.36 26.47-14.02v-47.29c-7.19-6.82-15.45-13.35-27.31-13.35"/>
  <path d="m64.56 402.16 32.19-25.43c12.43 18.04 158.37 115.27 274.3-31.96l37.19 16.81c-107.4 155.74-286.47 104.92-343.68 40.58"/>
  <path d="m128.2 353 23.64-18.68c10.35 11.91 92.81 52.2 155.31-18.29l27.68 12.35c-59.84 78.61-164.01 64.71-206.63 24.62"/>
  <path d="m305.56 120.5-24 19.28c-5.24-5.79-80.62-49.43-147.96 18.95l-27.71-12.76c64.03-75.16 155.23-59.98 199.67-25.47"/>
  <path d="m368.47 69.91-32.32 25.84c-101.68-79.13-213.81-35.94-265.97 33.44l-37.47-16.79c50.1-79.69 201.86-156.06 335.76-42.49"/>
  <path d="m546.89 216.28c-0.15-1.38-0.46-3.4-0.92-6.07s-1.45-5.34-2.98-8.02c-1.53-2.67-3.78-5-6.76-6.99-2.98-1.98-7.07-2.98-12.26-2.98-7.49 0-13.25 1.83-17.3 5.5s-6.99 7.94-8.82 12.83-2.9 9.74-3.21 14.55-0.46 8.29-0.46 10.42c0 5.96 0.42 11.65 1.26 17.07s2.33 10.27 4.47 14.55 5.04 7.67 8.71 10.19c3.66 2.52 8.4 3.78 14.2 3.78 4.58 0 8.44-0.76 11.57-2.29 3.13-1.52 5.65-3.51 7.56-5.96 1.91-2.44 3.32-5.15 4.24-8.13s1.45-5.84 1.6-8.59h21.76c-0.31 5.65-1.57 10.96-3.78 15.92-2.22 4.96-5.31 9.32-9.28 13.06s-8.78 6.72-14.43 8.94c-5.65 2.21-11.99 3.32-19.01 3.32-1.99 0-4.51-0.15-7.56-0.46-3.06-0.31-6.3-0.96-9.74-1.95s-6.96-2.48-10.56-4.47c-3.6-1.98-6.95-4.66-10.03-8.02-1.7-1.98-3.4-4.27-5.09-6.87-1.7-2.6-3.2-5.65-4.51-9.16s-2.35-7.56-3.12-12.14-1.16-9.85-1.16-15.81c0-11.91 1.66-21.88 4.98-29.9 3.31-8.02 7.55-14.39 12.71-19.13 5.16-4.73 10.79-8.09 16.9-10.08 6.11-1.98 12.06-2.98 17.87-2.98 1.83 0 4.24 0.15 7.22 0.46s6.11 0.96 9.39 1.95c3.28 1 6.57 2.41 9.85 4.24s6.22 4.35 8.82 7.56c4.27 4.89 6.87 9.59 7.79 14.09 0.92 4.51 1.53 8.36 1.83 11.57z"/>
  <path d="m665.78 294.4c-0.77-2.9-1.3-5.73-1.6-8.48-0.31-2.75-0.46-5.65-0.46-8.71-2.6 4.74-5.46 8.48-8.59 11.23s-6.3 4.85-9.51 6.3-6.3 2.37-9.28 2.75-5.69 0.57-8.13 0.57c-6.57 0-12.37-0.88-17.41-2.64-5.04-1.75-9.28-4.16-12.71-7.22-3.44-3.05-6.04-6.64-7.79-10.77-1.76-4.12-2.64-8.55-2.64-13.29 0-2.29 0.27-4.89 0.8-7.79s1.52-5.84 2.98-8.82c1.45-2.98 3.47-5.96 6.07-8.93 2.6-2.98 6.03-5.69 10.31-8.13 3.05-1.68 6.41-3.01 10.08-4.01 3.67-0.99 7.33-1.75 11-2.29 3.67-0.53 7.14-0.88 10.42-1.03s6.07-0.23 8.36-0.23c2.75 0 5.19 0.04 7.33 0.11 2.14 0.08 4.89 0.27 8.25 0.57 0-3.51-0.04-6.6-0.11-9.28-0.08-2.67-0.23-4.96-0.46-6.87s-0.61-3.63-1.15-5.15-1.34-2.9-2.4-4.12c-2.14-2.9-5.23-4.89-9.28-5.96s-7.6-1.6-10.65-1.6c-5.5 0-9.78 0.8-12.83 2.41-3.06 1.6-5.35 3.48-6.87 5.61-1.53 2.14-2.48 4.32-2.86 6.53-0.38 2.22-0.57 3.86-0.57 4.92h-21.53c0.3-3.05 0.88-6.45 1.72-10.19s2.94-7.6 6.3-11.57c2.14-2.44 4.73-4.47 7.79-6.07 3.05-1.6 6.22-2.86 9.51-3.78 3.28-0.92 6.64-1.56 10.08-1.95 3.44-0.38 6.68-0.57 9.74-0.57 4.12 0 8.28 0.34 12.48 1.03s8.13 1.72 11.8 3.09 6.95 3.13 9.85 5.27 5.12 4.66 6.64 7.56c1.83 3.51 2.94 6.68 3.32 9.51s0.57 5.54 0.57 8.13l-0.92 54.98c0 0.46 0.04 1.68 0.11 3.67s0.15 4.35 0.23 7.1 0.23 5.73 0.46 8.93c0.23 3.21 0.57 6.26 1.03 9.16h-19.48zm-2.52-55.9c-1.99-0.3-3.89-0.49-5.73-0.57-1.83-0.08-4.05-0.11-6.64-0.11-2.14 0-5.5 0.11-10.08 0.34s-9.2 1.07-13.86 2.52-8.74 3.78-12.26 6.99c-3.51 3.21-5.27 7.71-5.27 13.52 0 1.83 0.34 3.89 1.03 6.18s1.91 4.47 3.66 6.53 4.16 3.78 7.22 5.15c3.05 1.37 7.02 2.06 11.91 2.06 11 0 19.17-4.12 24.51-12.37 1.22-1.98 2.18-3.89 2.86-5.73 0.69-1.83 1.18-3.89 1.49-6.18 0.3-2.29 0.53-4.93 0.69-7.9 0.16-2.98 0.32-6.46 0.47-10.43z"/>
  <path d="m735.43 260.26c0 2.14 0.3 4.43 0.92 6.87 0.61 2.44 1.87 4.7 3.78 6.76s4.5 3.78 7.79 5.15c3.28 1.37 7.52 2.06 12.71 2.06 4.43 0 8.32-0.49 11.68-1.49 3.36-0.99 6.19-2.94 8.48-5.84 2.44-3.21 3.67-6.79 3.67-10.77 0-2.75-0.5-5.04-1.49-6.87-1-1.83-2.52-3.32-4.58-4.47s-4.7-2.18-7.9-3.09c-3.21-0.92-6.95-1.83-11.23-2.75-5.96-1.38-11.65-2.82-17.07-4.35-5.42-1.52-10.12-3.51-14.09-5.96-3.97-2.44-7.14-5.57-9.51-9.39s-3.55-8.71-3.55-14.66c0-5.19 1.11-9.97 3.32-14.32s5.27-8.02 9.16-11 8.59-5.3 14.09-6.99c5.5-1.68 11.61-2.52 18.33-2.52 3.66 0 7.56 0.31 11.68 0.92s8.09 1.6 11.91 2.98c3.82 1.37 7.33 3.21 10.54 5.5s5.65 5.12 7.33 8.48c1.52 3.21 2.41 6.18 2.63 8.93 0.23 2.75 0.34 5.35 0.34 7.79h-21.99c0.15-4.27-0.54-7.67-2.06-10.19-1.53-2.52-3.48-4.43-5.84-5.73-2.37-1.3-4.85-2.1-7.45-2.41-2.6-0.3-4.89-0.46-6.87-0.46-0.77 0-2.41 0.08-4.92 0.23-2.52 0.15-5.15 0.77-7.9 1.83-2.75 1.07-5.19 2.71-7.33 4.92-2.14 2.22-3.21 5.38-3.21 9.51 0 2.6 0.57 4.78 1.72 6.53 1.15 1.76 2.56 3.17 4.24 4.24s3.44 1.87 5.27 2.41 3.51 1.03 5.04 1.49c7.94 1.83 14.47 3.4 19.59 4.7 5.11 1.3 9.31 2.52 12.6 3.67 3.28 1.15 5.92 2.29 7.9 3.44s3.82 2.48 5.5 4.01c3.21 3.06 5.46 6.45 6.76 10.19s1.95 7.45 1.95 11.11c0 6.41-1.53 12.22-4.58 17.41-3.06 5.19-6.72 9.09-11 11.68-5.04 3.06-10.5 5.11-16.38 6.18s-11.8 1.6-17.75 1.6c-5.81 0-11.42-0.65-16.84-1.95s-10.23-3.4-14.43-6.3-7.52-6.76-9.97-11.57c-2.44-4.81-3.67-10.65-3.67-17.53h22.68z"/>
  <path d="m819.96 178.94h20.39v-24.05l21.3-6.87v30.93h25.66v15.81h-25.66v68.96c0 1.37 0.08 2.98 0.23 4.81s0.72 3.52 1.72 5.04c0.99 1.53 2.52 2.83 4.58 3.89 2.06 1.07 5 1.6 8.82 1.6 2.14 0 4.16-0.11 6.07-0.34s3.32-0.49 4.24-0.8v16.72c-1.99 0.3-4.47 0.61-7.45 0.92-2.98 0.3-6.45 0.46-10.42 0.46-9.93 0-17.26-1.72-21.99-5.15-4.74-3.44-7.1-9.89-7.1-19.36v-76.74h-20.39z"/>
  <path d="m475 334.5v-1.65c0-0.51-0.02-1.1-0.05-1.76-0.04-0.66-0.07-1.43-0.11-2.31s-0.09-1.98-0.16-3.3h10.44l0.22 9.12c1.32-2.2 2.82-3.94 4.5-5.22s3.41-2.29 5.16-3.02c1.76-0.73 3.44-1.21 5.05-1.43s2.97-0.33 4.07-0.33c2.93 0 5.8 0.53 8.62 1.59s5.29 2.75 7.42 5.05c2.12 2.31 3.85 5.26 5.16 8.84 1.32 3.59 1.98 7.95 1.98 13.07 0 5.13-0.7 9.56-2.09 13.29-1.39 3.74-3.24 6.81-5.55 9.23s-4.98 4.19-8.02 5.33-6.21 1.7-9.5 1.7c-4.03 0-7.49-0.77-10.38-2.31s-5.07-3.52-6.54-5.93v27.36h-10.22zm9.89 20.22c0 1.69 0.13 3.7 0.38 6.04 0.26 2.35 0.9 4.58 1.92 6.7 1.03 2.13 2.56 3.94 4.61 5.44s4.91 2.25 8.57 2.25c0.66 0 1.46-0.05 2.42-0.17 0.95-0.11 1.98-0.35 3.08-0.71 1.1-0.37 2.18-0.9 3.24-1.59 1.06-0.7 2.03-1.67 2.91-2.91 0.95-1.32 1.74-2.78 2.36-4.4 0.62-1.61 1.08-3.2 1.37-4.78 0.29-1.57 0.49-3.06 0.6-4.45s0.16-2.6 0.16-3.63c0-2.49-0.22-4.94-0.66-7.36s-1.23-4.58-2.36-6.48c-1.14-1.9-2.67-3.44-4.61-4.61s-4.45-1.76-7.53-1.76c-4.1 0-7.27 0.93-9.5 2.8-2.24 1.87-3.86 4.05-4.89 6.54s-1.63 4.98-1.81 7.47c-0.17 2.49-0.26 4.36-0.26 5.61z"/>
  <path d="m541.47 301.54h12.42v11.32h-12.42zm1.1 23.95h10.33v55.16h-10.33z"/>
  <path d="m568.94 353.73c0-3.37 0.44-6.81 1.32-10.33s2.4-6.7 4.56-9.56 5.04-5.2 8.63-7.03 8.09-2.75 13.51-2.75c5.49 0 10 0.97 13.51 2.91 3.52 1.94 6.28 4.36 8.3 7.25 2.01 2.89 3.39 6.03 4.12 9.39 0.73 3.37 1.1 6.48 1.1 9.34 0 4.03-0.57 7.84-1.7 11.43-1.14 3.59-2.86 6.72-5.16 9.39-2.31 2.68-5.22 4.8-8.73 6.37-3.52 1.57-7.62 2.36-12.31 2.36-4.54 0-8.52-0.75-11.92-2.25-3.41-1.5-6.25-3.53-8.52-6.1-2.27-2.56-3.96-5.6-5.05-9.12-1.11-3.5-1.66-7.27-1.66-11.3zm10.77-0.66c0 2.86 0.31 5.59 0.93 8.19s1.61 4.91 2.97 6.92c1.35 2.02 3.08 3.63 5.16 4.83 2.09 1.21 4.6 1.81 7.53 1.81 1.98 0 3.96-0.38 5.93-1.15 1.98-0.77 3.75-2.01 5.33-3.74 1.57-1.72 2.87-3.99 3.9-6.81s1.54-6.32 1.54-10.49c0-6.88-1.47-12.1-4.39-15.66-2.93-3.55-6.81-5.33-11.65-5.33-1.69 0-3.52 0.31-5.49 0.93-1.98 0.62-3.85 1.72-5.6 3.3-1.76 1.58-3.22 3.75-4.39 6.54-1.19 2.79-1.77 6.34-1.77 10.66z"/>
  <path d="m640.47 331.86-0.11-6.37h10.33l0.11 8.9c0.29-0.59 0.79-1.43 1.48-2.53 0.7-1.1 1.72-2.2 3.08-3.3 1.35-1.1 3.09-2.07 5.22-2.91 2.12-0.84 4.76-1.26 7.91-1.26 1.25 0 2.98 0.18 5.22 0.55 2.23 0.37 4.45 1.19 6.65 2.47s4.1 3.17 5.71 5.66 2.42 5.86 2.42 10.11v37.47h-10.55v-35.05c0-1.83-0.18-3.55-0.55-5.16s-1.17-3.04-2.42-4.28c-1.32-1.25-2.84-2.18-4.56-2.8s-3.46-0.93-5.22-0.93c-1.91 0-3.72 0.33-5.44 0.99s-3.24 1.69-4.56 3.08-2.38 3.11-3.19 5.16-1.21 4.47-1.21 7.25v31.75h-10.33v-48.8z"/>
  <path d="m706.28 301.54h12.42v11.32h-12.42zm1.1 23.95h10.33v55.16h-10.33z"/>
  <path d="m744.07 354.94c-0.07 2.86 0.18 5.49 0.77 7.91s1.52 4.52 2.8 6.32 2.93 3.19 4.94 4.18 4.45 1.48 7.31 1.48c3.37 0 6.26-0.92 8.68-2.75s3.85-4.72 4.29-8.68h10.33c-0.15 1.39-0.48 3.13-0.99 5.22s-1.76 4.19-3.74 6.32c-0.59 0.66-1.39 1.43-2.42 2.31s-2.31 1.69-3.85 2.42-3.35 1.35-5.44 1.87c-2.09 0.51-4.52 0.77-7.31 0.77-8.72 0-15.16-2.53-19.34-7.58s-6.26-11.94-6.26-20.66c0-5.42 0.73-10.34 2.2-14.78 1.46-4.43 4.36-8.15 8.68-11.15 1.32-0.95 2.69-1.68 4.12-2.2 1.43-0.51 2.82-0.92 4.18-1.21 1.35-0.29 2.62-0.48 3.79-0.55s2.16-0.11 2.97-0.11c4.1 0 7.56 0.55 10.38 1.65s5.11 2.55 6.87 4.34c1.76 1.8 3.11 3.81 4.07 6.04 0.95 2.24 1.63 4.5 2.03 6.81s0.6 4.52 0.6 6.65v5.38zm29.12-7.26c0-1.32-0.11-2.91-0.33-4.78s-0.79-3.64-1.7-5.33c-0.92-1.68-2.29-3.13-4.12-4.34s-4.32-1.81-7.47-1.81c-1.69 0-3.41 0.27-5.16 0.82-1.76 0.55-3.35 1.47-4.78 2.75s-2.62 2.95-3.57 5-1.47 4.61-1.54 7.69z"/>
  <path d="m799.45 336.7c0-1.9-0.05-3.79-0.16-5.66s-0.24-3.72-0.39-5.55h10.44l0.22 10.66c0.51-1.9 1.26-3.52 2.25-4.83 0.99-1.32 2.1-2.4 3.35-3.24s2.53-1.48 3.85-1.92 2.56-0.73 3.74-0.88c1.54-0.22 2.89-0.33 4.07-0.33 1.17 0 2.2 0.04 3.08 0.11v10.11c-0.44-0.15-1.1-0.29-1.98-0.44-0.37-0.07-0.81-0.11-1.32-0.11h-1.65c-3.08 0-5.59 0.42-7.53 1.26s-3.46 2.02-4.56 3.52-1.87 3.28-2.31 5.33-0.66 4.25-0.66 6.59v29.34h-10.44z"/>
  <path d="m847.9 354.94c-0.07 2.86 0.18 5.49 0.77 7.91s1.52 4.52 2.8 6.32 2.93 3.19 4.94 4.18 4.45 1.48 7.31 1.48c3.37 0 6.26-0.92 8.68-2.75s3.85-4.72 4.29-8.68h10.33c-0.15 1.39-0.48 3.13-0.99 5.22s-1.76 4.19-3.74 6.32c-0.59 0.66-1.39 1.43-2.42 2.31s-2.31 1.69-3.85 2.42-3.35 1.35-5.44 1.87c-2.09 0.51-4.52 0.77-7.31 0.77-8.72 0-15.16-2.53-19.34-7.58s-6.26-11.94-6.26-20.66c0-5.42 0.73-10.34 2.2-14.78 1.46-4.43 4.36-8.15 8.68-11.15 1.32-0.95 2.69-1.68 4.12-2.2 1.43-0.51 2.82-0.92 4.18-1.21 1.35-0.29 2.62-0.48 3.79-0.55s2.16-0.11 2.97-0.11c4.1 0 7.56 0.55 10.38 1.65s5.11 2.55 6.87 4.34c1.76 1.8 3.11 3.81 4.07 6.04 0.95 2.24 1.63 4.5 2.03 6.81s0.6 4.52 0.6 6.65v5.38zm29.12-7.26c0-1.32-0.11-2.91-0.33-4.78s-0.79-3.64-1.7-5.33c-0.92-1.68-2.29-3.13-4.12-4.34s-4.32-1.81-7.47-1.81c-1.69 0-3.41 0.27-5.16 0.82-1.76 0.55-3.35 1.47-4.78 2.75s-2.62 2.95-3.57 5-1.47 4.61-1.54 7.69z"/>
 </g>
</svg>
