<?xml version="1.0" encoding="UTF-8"?>
<svg width="24" height="24" version="1.1" viewBox="0 0 6.3499 6.3499" xmlns="http://www.w3.org/2000/svg">
 <path d="m1.2472 0.52916c-0.03672 1e-7 -0.066239 0.029734-0.066239 0.066455v0.18771c0 0.03672 0.029519 0.066239 0.066239 0.066239h0.18793c0.03672 0 0.066239-0.029519 0.066239-0.066239v-0.18771c0-0.03672-0.029519-0.066455-0.066239-0.066455zm3.6677 0c-0.03672 1e-7 -0.066455 0.029734-0.066455 0.066455v0.18771c1e-7 0.03672 0.029734 0.066239 0.066455 0.066239h0.18771c0.03672 0 0.066239-0.029519 0.066239-0.066239v-0.18771c0-0.03672-0.029519-0.066455-0.066239-0.066455zm-3.9881 0.33141c-0.03672 0-0.066239 0.029734-0.066239 0.066455v0.18771c0 0.03672 0.029519 0.066239 0.066239 0.066239h0.18793c0.03672 0 0.066239-0.029519 0.066239-0.066239v-0.18771c0-0.03672-0.029519-0.066455-0.066239-0.066455zm4.3083 0c-0.03672 0-0.066239 0.029734-0.066239 0.066455v0.18771c0 0.03672 0.029519 0.066239 0.066239 0.066239h0.18793c0.03672 0 0.066239-0.029519 0.066239-0.066239v-0.18771c0-0.03672-0.029519-0.066455-0.066239-0.066455zm-4.6397 0.33141c-0.03672 0-0.066239 0.029734-0.066239 0.066455v0.18771c0 0.03672 0.029519 0.066239 0.066239 0.066239h0.18793c0.03672 0 0.066239-0.029519 0.066239-0.066239v-0.18771c0-0.03672-0.029519-0.066455-0.066239-0.066455zm0.99423 0c-0.03672 0-0.066239 0.029734-0.066239 0.066455v0.18771c0 0.03672 0.029519 0.066239 0.066239 0.066239h0.18793c0.03672 0 0.066239-0.029519 0.066239-0.066239v-0.18771c0-0.03672-0.029519-0.066455-0.066239-0.066455zm2.9827 0c-0.03672 0-0.066239 0.029734-0.066239 0.066455v0.18771c0 0.03672 0.029519 0.066239 0.066239 0.066239h0.18793c0.03672 0 0.066239-0.029519 0.066239-0.066239v-0.18771c0-0.03672-0.029519-0.066455-0.066239-0.066455zm0.99423 0c-0.03672 0-0.066239 0.029734-0.066239 0.066455v0.18771c0 0.03672 0.029519 0.066239 0.066239 0.066239h0.18793c0.03672 0 0.066239-0.029519 0.066239-0.066239v-0.18771c0-0.03672-0.029519-0.066455-0.066239-0.066455zm-4.9712 0.33141c-0.03672 0-0.066239 0.029734-0.066239 0.066455v0.18771c0 0.03672 0.029519 0.066239 0.066239 0.066239h0.18793c0.03672 0 0.066239-0.029519 0.066239-0.066239v-0.18771c0-0.03672-0.029519-0.066455-0.066239-0.066455zm0.66282 0c-0.03672 0-0.066239 0.029734-0.066239 0.066455v0.18771c0 0.03672 0.029519 0.066239 0.066239 0.066239h0.18793c0.03672 0 0.066239-0.029519 0.066239-0.066239v-0.18771c0-0.03672-0.029519-0.066455-0.066239-0.066455zm3.6455 0c-0.03672 0-0.066239 0.029734-0.066239 0.066455v0.18771c0 0.03672 0.029519 0.066239 0.066239 0.066239h0.18793c0.03672 0 0.066239-0.029519 0.066239-0.066239v-0.18771c0-0.03672-0.029519-0.066455-0.066239-0.066455zm0.66282 0c-0.03672 0-0.066239 0.029734-0.066239 0.066455v0.18771c0 0.03672 0.029519 0.066239 0.066239 0.066239h0.18793c0.03672 0 0.066239-0.029519 0.066239-0.066239v-0.18771c0-0.03672-0.029519-0.066455-0.066239-0.066455zm-4.9712 0.33141c-0.03672 0-0.066239 0.029734-0.066239 0.066455v0.18771c0 0.03672 0.029519 0.066239 0.066239 0.066239h0.18793c0.03672 0 0.066239-0.029519 0.066239-0.066239v-0.18771c0-0.03672-0.029519-0.066455-0.066239-0.066455zm0.66282 0c-0.03672 0-0.066239 0.029734-0.066239 0.066455v0.18771c0 0.03672 0.029519 0.066239 0.066239 0.066239h0.18793c0.03672 0 0.066239-0.029519 0.066239-0.066239v-0.18771c0-0.03672-0.029519-0.066455-0.066239-0.066455zm0.70705 0c-0.0612 0-0.11047 0.04927-0.11047 0.11047v2.4303c0 0.0612 0.04927 0.11047 0.11047 0.11047h2.4303c0.0612 0 0.11047-0.04927 0.11047-0.11047v-2.4303c0-0.0612-0.04927-0.11047-0.11047-0.11047zm2.9385 0c-0.03672 0-0.066239 0.029734-0.066239 0.066455v0.18771c0 0.03672 0.029519 0.066239 0.066239 0.066239h0.18793c0.03672 0 0.066239-0.029519 0.066239-0.066239v-0.18771c0-0.03672-0.029519-0.066455-0.066239-0.066455zm0.66282 0c-0.03672 0-0.066239 0.029734-0.066239 0.066455v0.18771c0 0.03672 0.029519 0.066239 0.066239 0.066239h0.18793c0.03672 0 0.066239-0.029519 0.066239-0.066239v-0.18771c0-0.03672-0.029519-0.066455-0.066239-0.066455zm-4.9712 0.33141c-0.03672 0-0.066239 0.029734-0.066239 0.066455v0.18771c0 0.03672 0.029519 0.066239 0.066239 0.066239h0.18793c0.03672 0 0.066239-0.029519 0.066239-0.066239v-0.18771c0-0.03672-0.029519-0.066455-0.066239-0.066455zm0.66282 0c-0.03672 0-0.066239 0.029734-0.066239 0.066455v0.18771c0 0.03672 0.029519 0.066239 0.066239 0.066239h0.18793c0.03672 0 0.066239-0.029519 0.066239-0.066239v-0.18771c0-0.03672-0.029519-0.066455-0.066239-0.066455zm0.99423 0h0.18793c0.03672 0 0.066239 0.029734 0.066239 0.066455v0.18771c0 0.03672-0.029519 0.066239-0.066239 0.066239h-0.18793c-0.03672 0-0.066239-0.029519-0.066239-0.066239v-0.18771c0-0.03672 0.029519-0.066455 0.066239-0.066455zm0.33141 0h0.18793c0.03672 0 0.066239 0.029734 0.066239 0.066455v0.18771c0 0.03672-0.029519 0.066239-0.066239 0.066239h-0.18793c-0.03672 0-0.066239-0.029519-0.066239-0.066239v-0.18771c0-0.03672 0.029519-0.066455 0.066239-0.066455zm0.99423 0h0.18793c0.03672 0 0.066239 0.029734 0.066239 0.066455v0.18771c0 0.03672-0.029519 0.066239-0.066239 0.066239h-0.18793c-0.03672 0-0.066239-0.029519-0.066239-0.066239v-0.18771c0-0.03672 0.029519-0.066455 0.066239-0.066455zm0.33141 0h0.18793c0.03672 0 0.066239 0.029734 0.066239 0.066455v0.18771c0 0.03672-0.029519 0.066239-0.066239 0.066239h-0.18793c-0.03672 0-0.066239-0.029519-0.066239-0.066239v-0.18771c0-0.03672 0.029519-0.066455 0.066239-0.066455zm0.99423 0c-0.03672 0-0.066239 0.029734-0.066239 0.066455v0.18771c0 0.03672 0.029519 0.066239 0.066239 0.066239h0.18793c0.03672 0 0.066239-0.029519 0.066239-0.066239v-0.18771c0-0.03672-0.029519-0.066455-0.066239-0.066455zm0.66282 0c-0.03672 0-0.066239 0.029734-0.066239 0.066455v0.18771c0 0.03672 0.029519 0.066239 0.066239 0.066239h0.18793c0.03672 0 0.066239-0.029519 0.066239-0.066239v-0.18771c0-0.03672-0.029519-0.066455-0.066239-0.066455zm-4.9712 0.33141c-0.03672 0-0.066239 0.029734-0.066239 0.066455v0.18771c0 0.03672 0.029519 0.066239 0.066239 0.066239h0.18793c0.03672 0 0.066239-0.029519 0.066239-0.066239v-0.18771c0-0.03672-0.029519-0.066455-0.066239-0.066455zm0.66282 0c-0.03672 0-0.066239 0.029734-0.066239 0.066455v0.18771c0 0.03672 0.029519 0.066239 0.066239 0.066239h0.18793c0.03672 0 0.066239-0.029519 0.066239-0.066239v-0.18771c0-0.03672-0.029519-0.066455-0.066239-0.066455zm0.99423 0h0.18793c0.03672 0 0.066239 0.029734 0.066239 0.066455v0.18771c0 0.03672-0.029519 0.066239-0.066239 0.066239h-0.18793c-0.03672 0-0.066239-0.029519-0.066239-0.066239v-0.18771c0-0.03672 0.029519-0.066455 0.066239-0.066455zm0.66282 0h0.18793c0.03672 0 0.066239 0.029734 0.066239 0.066455v0.18771c0 0.03672-0.029519 0.066239-0.066239 0.066239h-0.18793c-0.03672 0-0.066239-0.029519-0.066239-0.066239v-0.18771c0-0.03672 0.029519-0.066455 0.066239-0.066455zm0.66282 0h0.18793c0.03672 0 0.066239 0.029734 0.066239 0.066455v0.18771c0 0.03672-0.029519 0.066239-0.066239 0.066239h-0.18793c-0.03672 0-0.066239-0.029519-0.066239-0.066239v-0.18771c0-0.03672 0.029519-0.066455 0.066239-0.066455zm1.3256 0c-0.03672 0-0.066239 0.029734-0.066239 0.066455v0.18771c0 0.03672 0.029519 0.066239 0.066239 0.066239h0.18793c0.03672 0 0.066239-0.029519 0.066239-0.066239v-0.18771c0-0.03672-0.029519-0.066455-0.066239-0.066455zm0.66282 0c-0.03672 0-0.066239 0.029734-0.066239 0.066455v0.18771c0 0.03672 0.029519 0.066239 0.066239 0.066239h0.18793c0.03672 0 0.066239-0.029519 0.066239-0.066239v-0.18771c0-0.03672-0.029519-0.066455-0.066239-0.066455zm-4.9712 0.33141c-0.03672 0-0.066239 0.029734-0.066239 0.066455v0.18771c0 0.03672 0.029519 0.066239 0.066239 0.066239h0.18793c0.03672 0 0.066239-0.029519 0.066239-0.066239v-0.18771c0-0.03672-0.029519-0.066455-0.066239-0.066455zm0.66282 0c-0.03672 0-0.066239 0.029734-0.066239 0.066455v0.18771c0 0.03672 0.029519 0.066239 0.066239 0.066239h0.18793c0.03672 0 0.066239-0.029519 0.066239-0.066239v-0.18771c0-0.03672-0.029519-0.066455-0.066239-0.066455zm0.99423 0h0.18793c0.03672 0 0.066239 0.029734 0.066239 0.066455v0.18771c0 0.03672-0.029519 0.066239-0.066239 0.066239h-0.18793c-0.03672 0-0.066239-0.029519-0.066239-0.066239v-0.18771c0-0.03672 0.029519-0.066455 0.066239-0.066455zm0.66282 0h0.18793c0.03672 0 0.066239 0.029734 0.066239 0.066455v0.18771c0 0.03672-0.029519 0.066239-0.066239 0.066239h-0.18793c-0.03672 0-0.066239-0.029519-0.066239-0.066239v-0.18771c0-0.03672 0.029519-0.066455 0.066239-0.066455zm0.66282 0h0.18793c0.03672 0 0.066239 0.029734 0.066239 0.066455v0.18771c0 0.03672-0.029519 0.066239-0.066239 0.066239h-0.18793c-0.03672 0-0.066239-0.029519-0.066239-0.066239v-0.18771c0-0.03672 0.029519-0.066455 0.066239-0.066455zm1.3256 0c-0.03672 0-0.066239 0.029734-0.066239 0.066455v0.18771c0 0.03672 0.029519 0.066239 0.066239 0.066239h0.18793c0.03672 0 0.066239-0.029519 0.066239-0.066239v-0.18771c0-0.03672-0.029519-0.066455-0.066239-0.066455zm0.66282 0c-0.03672 0-0.066239 0.029734-0.066239 0.066455v0.18771c0 0.03672 0.029519 0.066239 0.066239 0.066239h0.18793c0.03672 0 0.066239-0.029519 0.066239-0.066239v-0.18771c0-0.03672-0.029519-0.066455-0.066239-0.066455zm-4.9712 0.33141c-0.03672 0-0.066239 0.029734-0.066239 0.066455v0.18771c0 0.03672 0.029519 0.066239 0.066239 0.066239h0.18793c0.03672 0 0.066239-0.029519 0.066239-0.066239v-0.18771c0-0.03672-0.029519-0.066455-0.066239-0.066455zm0.66282 0c-0.03672 0-0.066239 0.029734-0.066239 0.066455v0.18771c0 0.03672 0.029519 0.066239 0.066239 0.066239h0.18793c0.03672 0 0.066239-0.029519 0.066239-0.066239v-0.18771c0-0.03672-0.029519-0.066455-0.066239-0.066455zm0.99423 0h0.18793c0.03672 0 0.066239 0.029734 0.066239 0.066455v0.18771c0 0.03672-0.029519 0.066239-0.066239 0.066239h-0.18793c-0.03672 0-0.066239-0.029519-0.066239-0.066239v-0.18771c0-0.03672 0.029519-0.066455 0.066239-0.066455zm0.33141 0h0.18793c0.03672 0 0.066239 0.029734 0.066239 0.066455v0.18771c0 0.03672-0.029519 0.066239-0.066239 0.066239h-0.18793c-0.03672 0-0.066239-0.029519-0.066239-0.066239v-0.18771c0-0.03672 0.029519-0.066455 0.066239-0.066455zm0.99423 0h0.18793c0.03672 0 0.066239 0.029734 0.066239 0.066455v0.18771c0 0.03672-0.029519 0.066239-0.066239 0.066239h-0.18793c-0.03672 0-0.066239-0.029519-0.066239-0.066239v-0.18771c0-0.03672 0.029519-0.066455 0.066239-0.066455zm0.33141 0h0.18793c0.03672 0 0.066239 0.029734 0.066239 0.066455v0.18771c0 0.03672-0.029519 0.066239-0.066239 0.066239h-0.18793c-0.03672 0-0.066239-0.029519-0.066239-0.066239v-0.18771c0-0.03672 0.029519-0.066455 0.066239-0.066455zm0.99423 0c-0.03672 0-0.066239 0.029734-0.066239 0.066455v0.18771c0 0.03672 0.029519 0.066239 0.066239 0.066239h0.18793c0.03672 0 0.066239-0.029519 0.066239-0.066239v-0.18771c0-0.03672-0.029519-0.066455-0.066239-0.066455zm0.66282 0c-0.03672 0-0.066239 0.029734-0.066239 0.066455v0.18771c0 0.03672 0.029519 0.066239 0.066239 0.066239h0.18793c0.03672 0 0.066239-0.029519 0.066239-0.066239v-0.18771c0-0.03672-0.029519-0.066455-0.066239-0.066455zm-4.9712 0.33141c-0.03672 0-0.066239 0.029734-0.066239 0.066455v0.18771c0 0.03672 0.029519 0.066239 0.066239 0.066239h0.18793c0.03672 0 0.066239-0.029519 0.066239-0.066239v-0.18771c0-0.03672-0.029519-0.066455-0.066239-0.066455zm0.66282 0c-0.03672 0-0.066239 0.029734-0.066239 0.066455v0.18771c0 0.03672 0.029519 0.066239 0.066239 0.066239h0.18793c0.03672 0 0.066239-0.029519 0.066239-0.066239v-0.18771c0-0.03672-0.029519-0.066455-0.066239-0.066455zm0.99423 0h0.18793c0.03672 0 0.066239 0.029734 0.066239 0.066455v0.18771c0 0.03672-0.029519 0.066239-0.066239 0.066239h-0.18793c-0.03672 0-0.066239-0.029519-0.066239-0.066239v-0.18771c0-0.03672 0.029519-0.066455 0.066239-0.066455zm1.3256 0h0.18793c0.03672 0 0.066239 0.029734 0.066239 0.066455v0.18771c0 0.03672-0.029519 0.066239-0.066239 0.066239h-0.18793c-0.03672 0-0.066239-0.029519-0.066239-0.066239v-0.18771c0-0.03672 0.029519-0.066455 0.066239-0.066455zm1.3256 0c-0.03672 0-0.066239 0.029734-0.066239 0.066455v0.18771c0 0.03672 0.029519 0.066239 0.066239 0.066239h0.18793c0.03672 0 0.066239-0.029519 0.066239-0.066239v-0.18771c0-0.03672-0.029519-0.066455-0.066239-0.066455zm0.66282 0c-0.03672 0-0.066239 0.029734-0.066239 0.066455v0.18771c0 0.03672 0.029519 0.066239 0.066239 0.066239h0.18793c0.03672 0 0.066239-0.029519 0.066239-0.066239v-0.18771c0-0.03672-0.029519-0.066455-0.066239-0.066455zm-4.9712 0.33141c-0.03672 0-0.066239 0.029734-0.066239 0.066455v0.18771c0 0.03672 0.029519 0.066239 0.066239 0.066239h0.18793c0.03672 0 0.066239-0.029519 0.066239-0.066239v-0.18771c0-0.03672-0.029519-0.066455-0.066239-0.066455zm0.66282 0c-0.03672 0-0.066239 0.029734-0.066239 0.066455v0.18771c0 0.03672 0.029519 0.066239 0.066239 0.066239h0.18793c0.03672 0 0.066239-0.029519 0.066239-0.066239v-0.18771c0-0.03672-0.029519-0.066455-0.066239-0.066455zm0.99423 0h0.18793c0.03672 0 0.066239 0.029734 0.066239 0.066455v0.18771c0 0.03672-0.029519 0.066239-0.066239 0.066239h-0.18793c-0.03672 0-0.066239-0.029519-0.066239-0.066239v-0.18771c0-0.03672 0.029519-0.066455 0.066239-0.066455zm1.3256 0h0.18793c0.03672 0 0.066239 0.029734 0.066239 0.066455v0.18771c0 0.03672-0.029519 0.066239-0.066239 0.066239h-0.18793c-0.03672 0-0.066239-0.029519-0.066239-0.066239v-0.18771c0-0.03672 0.029519-0.066455 0.066239-0.066455zm1.3256 0c-0.03672 0-0.066239 0.029734-0.066239 0.066455v0.18771c0 0.03672 0.029519 0.066239 0.066239 0.066239h0.18793c0.03672 0 0.066239-0.029519 0.066239-0.066239v-0.18771c0-0.03672-0.029519-0.066455-0.066239-0.066455zm0.66282 0c-0.03672 0-0.066239 0.029734-0.066239 0.066455v0.18771c0 0.03672 0.029519 0.066239 0.066239 0.066239h0.18793c0.03672 0 0.066239-0.029519 0.066239-0.066239v-0.18771c0-0.03672-0.029519-0.066455-0.066239-0.066455zm-4.9712 0.33141c-0.03672 0-0.066239 0.029734-0.066239 0.066455v0.18771c0 0.03672 0.029519 0.066239 0.066239 0.066239h0.18793c0.03672 0 0.066239-0.029519 0.066239-0.066239v-0.18771c0-0.03672-0.029519-0.066455-0.066239-0.066455zm0.66282 0c-0.03672 0-0.066239 0.029734-0.066239 0.066455v0.18771c0 0.03672 0.029519 0.066239 0.066239 0.066239h0.18793c0.03672 0 0.066239-0.029519 0.066239-0.066239v-0.18771c0-0.03672-0.029519-0.066455-0.066239-0.066455zm3.6455 0c-0.03672 0-0.066239 0.029734-0.066239 0.066455v0.18771c0 0.03672 0.029519 0.066239 0.066239 0.066239h0.18793c0.03672 0 0.066239-0.029519 0.066239-0.066239v-0.18771c0-0.03672-0.029519-0.066455-0.066239-0.066455zm0.66282 0c-0.03672 0-0.066239 0.029734-0.066239 0.066455v0.18771c0 0.03672 0.029519 0.066239 0.066239 0.066239h0.18793c0.03672 0 0.066239-0.029519 0.066239-0.066239v-0.18771c0-0.03672-0.029519-0.066455-0.066239-0.066455zm-4.9712 0.33141c-0.03672 0-0.066239 0.029734-0.066239 0.066455v0.18771c0 0.03672 0.029519 0.066239 0.066239 0.066239h0.18793c0.03672 0 0.066239-0.029519 0.066239-0.066239v-0.18771c0-0.03672-0.029519-0.066455-0.066239-0.066455zm0.66282 0c-0.03672 0-0.066239 0.029734-0.066239 0.066455v0.18771c0 0.03672 0.029519 0.066239 0.066239 0.066239h0.18793c0.03672 0 0.066239-0.029519 0.066239-0.066239v-0.18771c0-0.03672-0.029519-0.066455-0.066239-0.066455zm3.6455 0c-0.03672 0-0.066239 0.029734-0.066239 0.066455v0.18771c0 0.03672 0.029519 0.066239 0.066239 0.066239h0.18793c0.03672 0 0.066239-0.029519 0.066239-0.066239v-0.18771c0-0.03672-0.029519-0.066455-0.066239-0.066455zm0.66282 0c-0.03672 0-0.066239 0.029734-0.066239 0.066455v0.18771c0 0.03672 0.029519 0.066239 0.066239 0.066239h0.18793c0.03672 0 0.066239-0.029519 0.066239-0.066239v-0.18771c0-0.03672-0.029519-0.066455-0.066239-0.066455zm-4.9712 0.33141c-0.03672 0-0.066239 0.029734-0.066239 0.066455v0.18771c0 0.03672 0.029519 0.066239 0.066239 0.066239h0.18793c0.03672 0 0.066239-0.029519 0.066239-0.066239v-0.18771c0-0.03672-0.029519-0.066455-0.066239-0.066455zm0.99423 0c-0.03672 0-0.066239 0.029734-0.066239 0.066455v0.18771c0 0.03672 0.029519 0.066239 0.066239 0.066239h0.18793c0.03672 0 0.066239-0.029519 0.066239-0.066239v-0.18771c0-0.03672-0.029519-0.066455-0.066239-0.066455zm2.9827 0c-0.03672 0-0.066239 0.029734-0.066239 0.066455v0.18771c0 0.03672 0.029519 0.066239 0.066239 0.066239h0.18793c0.03672 0 0.066239-0.029519 0.066239-0.066239v-0.18771c0-0.03672-0.029519-0.066455-0.066239-0.066455zm0.99423 0c-0.03672 0-0.066239 0.029734-0.066239 0.066455v0.18771c0 0.03672 0.029519 0.066239 0.066239 0.066239h0.18793c0.03672 0 0.066239-0.029519 0.066239-0.066239v-0.18771c0-0.03672-0.029519-0.066455-0.066239-0.066455zm-4.6397 0.33141c-0.03672 0-0.066239 0.029734-0.066239 0.066455v0.18771c0 0.03672 0.029519 0.066239 0.066239 0.066239h0.18793c0.03672 0 0.066239-0.029519 0.066239-0.066239v-0.18771c0-0.03672-0.029519-0.066455-0.066239-0.066455zm4.3083 0c-0.03672 0-0.066239 0.029734-0.066239 0.066455v0.18771c0 0.03672 0.029519 0.066239 0.066239 0.066239h0.18793c0.03672 0 0.066239-0.029519 0.066239-0.066239v-0.18771c0-0.03672-0.029519-0.066455-0.066239-0.066455zm-3.9879 0.33141c-0.03672 0-0.066239 0.029734-0.066239 0.066455v0.18771c0 0.03672 0.029519 0.066239 0.066239 0.066239h0.18793c0.03672 0 0.066239-0.029519 0.066239-0.066239v-0.18771c0-0.03672-0.029519-0.066455-0.066239-0.066455zm3.6677 0c-0.03672 0-0.066455 0.029734-0.066455 0.066455v0.18771c0 0.03672 0.029734 0.066239 0.066455 0.066239h0.18771c0.03672 0 0.066239-0.029519 0.066239-0.066239v-0.18771c0-0.03672-0.029519-0.066455-0.066239-0.066455z" stroke-width=".083505"/>
</svg>
