<svg version="1.1" viewBox="0 0 24 24" xmlns="http://www.w3.org/2000/svg">
 <path id="Layer" d="m7.3712 12.632c.25188-3.7234 1.2025-4.7757 4.664-4.468 2.9008.25715 3.5 1.3184 3.5637 3.1132.07535 2.1326.43684 2.9841-2.2722 4.4564-.49006.26611-2.5657 1.3042-3.3451 1.7342-1.2947.71454-.6492 2.2427-.12067 3.6085.27559.71191 2.9941-.42208 4.4801-1.086 2.3212-1.037 3.7371-1.4728 5.2336-3.041 1.663-1.7426 2.5125-3.9626 2.2859-6.7123-.38046-4.6197-4.9317-8.6356-10.144-8.2056-5.7711.47478-9.1378 6.4973-9.5451 11.848-.0938 1.2357-.1486 5.1219.23923 7.1897.000527.0037.32513.91162 2.0414.92637 1.2726.01054 3.0326.04321 2.9609-.59703-.47004-4.1892-.23976-5.8412-.04163-8.7668z" fill-rule="evenodd" stroke-width=".052695"/>
</svg>
