<?xml version="1.0" encoding="UTF-8"?>
<svg version="1.1" viewBox="0 0 24 24" xml:space="preserve" xmlns="http://www.w3.org/2000/svg"><path d="m4.0808 21.821c0.64084-3.3417 3.3924-5.8016 6.9233-6.1895 4.0013-0.43959 7.5627 1.7362 8.7085 5.3203 0.1057 0.33064 0.24101 0.88732 0.24101 0.99155v0.05639h-2.7453l-0.049-0.16549c-1.4197-4.7992-8.869-4.7992-10.298 0l-0.0493 0.16549h-2.7656zm7.2675-7.6221c-3.0854-0.37584-5.2085-2.4022-5.5468-5.2941-0.45151-3.8598 2.298-6.9111 6.222-6.9051 3.5326 0.0055 6.1363 2.478 6.2282 5.9146 0.085 3.1771-1.9202 5.6371-5.0632 6.2115-0.35951 0.06571-1.5217 0.11184-1.8402 0.07305zm1.0894-2.3942c2.2147-0.22191 3.6231-2.3058 3.1199-4.6161-0.42161-1.9358-2.2264-3.0969-4.2663-2.7448-2.0816 0.35927-3.3243 2.4065-2.8172 4.6411 0.40732 1.7946 2.037 2.9129 3.9635 2.7199z"/></svg>
