<svg version="1.1" viewBox="0 0 24 24" xmlns="http://www.w3.org/2000/svg" xmlns:xlink="http://www.w3.org/1999/xlink">
 <defs>
  <rect id="SVGID_1_" x="9.4" y="5.8" width="82.5" height="82.5"/>
  <clipPath id="SVGID_2_">
   <use width="100%" height="100%" xlink:href="#SVGID_1_"/>
  </clipPath>
 </defs>
 <style type="text/css">.st0{clip-path:url(#SVGID_2_);fill:#DB4615;}
	.st1{clip-path:url(#SVGID_2_);fill:#FFFFFF;}</style>
 <path d="m12.012 2c-5.503 0-10.012 4.461-10.012 9.9883 0 5.5273 4.4844 10.012 10.012 10.012 5.5273 0 9.9883-4.4853 9.9883-9.9883 0-5.503-4.4853-10.012-9.9883-10.012zm-.29102 3.0547h.63086c.21818 0 .33984.096271.33984.31445v9.334c0 .21818-.12166.31445-.33984.31445h-.63086c-.21818 0-.31445-.096271-.31445-.31445v-9.334c0-.19394.096271-.31445.31445-.31445zm-2.5449 2.3262h.63086c.21818 0 .31445.098224.31445.31641v3.9023c0 .21818-.096272.31641-.31445.31641h-.63086c-.21818 0-.33984-.098225-.33984-.31641v-3.9023c0-.19394.12166-.31641.33984-.31641zm-2.5703 2.5703h.63086c.21818 0 .3387.098224.31445.31641v3.1758c1e-7.21818-.096271.33789-.31445.33789h-.63086c-.21818 0-.33789-.11971-.33789-.33789v-3.1758c0-.19394.11971-.31641.33789-.31641zm-2.5449 2.0605h.63086c.21818 0 .3387.098224.31445.31641v1.1152c0 .21818-.096271.31445-.31445.31445h-.63086c-.21818 2e-6-.33984-.096271-.33984-.31445v-1.1152c0-.19394.12166-.31641.33984-.31641zm10.207 0h.62891c.21818 0 .34065.098224.31641.31641v6.084c0 .24242-.098225.33984-.31641.33984h-.62891c-.21818 0-.33984-.12166-.33984-.33984v-6.084c0-.19394.12166-.31641.33984-.31641zm2.5449 0h.63086c.21818 0 .3387.098224.31445.31641v3.1758c0 .21818-.096271.33789-.31445.33789h-.63086c-.21818 0-.33984-.11971-.33984-.33789v-3.1758c0-.19394.12166-.31641.33984-.31641zm2.5684 0h.63086c.21818 0 .31641.098224.31641.31641v1.1152c0 .21818-.098224.31445-.31641.31445h-.63086c-.21818 2e-6-.33789-.096271-.33789-.31445v-1.1152c0-.19394.11971-.31641.33789-.31641z" color="#000000" stroke-width=".24242" style="-inkscape-stroke:none"/>
</svg>
