<svg viewBox="0 0 24 24" xmlns="http://www.w3.org/2000/svg"><path d="M12.012 2C6.509 2 2 6.461 2 11.988 2 17.516 6.484 22 12.012 22 17.539 22 22 17.515 22 12.012 22 6.509 17.515 2 12.012 2zm-.291 3.055h.63c.219 0 .34.096.34.314v9.334c0 .218-.121.315-.34.315h-.63c-.218 0-.314-.097-.314-.315V5.37c0-.194.096-.314.314-.314zM9.176 7.38h.63c.22 0 .315.098.315.316V11.6c0 .218-.096.316-.314.316h-.63c-.22 0-.34-.098-.34-.316V7.697c0-.194.12-.316.34-.316zm-2.57 2.57h.63c.219 0 .34.098.315.317v3.175c0 .219-.096.338-.314.338h-.631c-.218 0-.338-.12-.338-.338v-3.175c0-.194.12-.317.338-.317zm-2.545 2.06h.63c.219 0 .34.099.315.317v1.115c0 .218-.096.315-.314.315H4.06c-.218 0-.34-.097-.34-.315v-1.115c0-.194.122-.316.34-.316zm10.207 0h.629c.218 0 .34.099.316.317v6.084c0 .243-.098.34-.316.34h-.63c-.217 0-.339-.122-.339-.34v-6.084c0-.194.122-.316.34-.316zm2.545 0h.63c.219 0 .34.099.315.317v3.176c0 .218-.096.338-.314.338h-.631c-.218 0-.34-.12-.34-.338v-3.176c0-.194.122-.316.34-.316zm2.568 0h.631c.218 0 .316.099.316.317v1.115c0 .218-.098.315-.316.315h-.63c-.219 0-.339-.097-.339-.315v-1.115c0-.194.12-.316.338-.316z" color="#000" style="-inkscape-stroke:none"/></svg>