<svg viewBox="0 0 24 24" xmlns="http://www.w3.org/2000/svg"><path d="M7.48 21.854c-.585-.226-1.078-.695-1.383-1.314l-.258-.525-.022-7.7c-.014-4.972.006-7.852.058-8.131a2.564 2.564 0 0 1 .847-1.518c.743-.679.64-.666 5.37-.666 4.129 0 4.129 0 4.573.208a2.787 2.787 0 0 1 1.314 1.314c.208.444.208.444.208 8.506s0 8.062-.171 8.433c-.227.49-.792 1.084-1.26 1.323-.378.193-.378.193-4.625.21-4.074.016-4.263.01-4.652-.14zm8.82-1.063c.173-.09.42-.315.55-.499.236-.334.236-.334.26-8.094.016-5.444-.003-7.848-.063-8.056a1.58 1.58 0 0 0-.889-.96c-.29-.11-.815-.123-4.276-.103-3.945.022-3.945.022-4.28.258-.184.13-.417.392-.518.583-.183.346-.183.346-.183 8.03 0 5.671.024 7.754.092 7.951.147.426.38.686.808.9.398.197.398.197 4.29.176 3.774-.021 3.904-.027 4.209-.186zm-5.26-.787c-1.753-.424-2.985-2.01-2.988-3.847-.007-3.946 5.122-5.457 7.294-2.149.476.724.622 1.303.584 2.313-.03.807-.054.916-.322 1.48-.834 1.757-2.698 2.656-4.567 2.203zm2.054-1.15c.585-.215 1.214-.816 1.532-1.463.234-.474.258-.59.258-1.234s-.024-.76-.258-1.234c-.729-1.482-2.486-2.104-3.905-1.383-.474.241-1.095.875-1.348 1.377-.205.406-.229.533-.23 1.201 0 .658.026.806.225 1.237.654 1.414 2.233 2.05 3.726 1.5zm-1.617-1.873c-.528-.322-.61-1.028-.174-1.516.206-.23.265-.252.697-.252.392 0 .507.033.676.192.872.82-.177 2.199-1.199 1.576zm-1.332-7.335C8.13 7.617 8.003 7.428 8.003 6.444c0-1.263.822-2.215 2.066-2.395.496-.071 1.134.068 1.566.343.316.2.365.21.502.107.605-.46 1.72-.591 2.403-.282 1.278.578 1.8 2.082 1.162 3.346-.175.347-3.566 3.836-3.728 3.836-.048 0-.87-.79-1.829-1.753zm4.668-2.708c.366-.842-.282-1.826-1.205-1.83-.555-.002-.872.206-1.279.84l-.363.564-.315-.526c-.371-.617-.749-.876-1.283-.878-.902-.003-1.573.946-1.261 1.783.045.122.708.85 1.474 1.617l1.391 1.396 1.366-1.356c.75-.746 1.415-1.47 1.475-1.61z"/></svg>