<svg viewBox="0 0 24 24" xmlns="http://www.w3.org/2000/svg"><path d="M2.49 10.51a.27.27 0 0 1 .37-.09l2.63 1.66a.27.27 0 0 1 .08.38.26.26 0 0 1-.22.12.28.28 0 0 1-.15 0l-2.63-1.7a.27.27 0 0 1-.08-.37Zm3.61 1a.28.28 0 0 0 .23.13.23.23 0 0 0 .14 0 .27.27 0 0 0 .1-.37L5.32 9.14A.27.27 0 0 0 5 9.05a.28.28 0 0 0-.1.37ZM4.92 14a.28.28 0 0 0 .27-.24.27.27 0 0 0-.23-.3l-2.41-.33a.27.27 0 1 0-.08.53l2.41.34ZM21.6 6.89a.71.71 0 0 0-1-.09l-4.1 3.42-3.04-5.13a1.49 1.49 0 0 0-1-.73V1.89a.27.27 0 0 0-.54 0v2.45a1.5 1.5 0 0 0-1.1.75l-7 13.81a.73.73 0 0 0 1.26.72l7-13.78a.09.09 0 0 1 .09 0 .12.12 0 0 1 .09 0l3.13 5.3-5.48 4.57a.69.69 0 0 0 .88 1.07l5.31-4.42 3.3 5.58a.11.11 0 0 1-.1.16L5.34 20.24a.69.69 0 0 0-.68.69.7.7 0 0 0 .7.69l14-2.13a1.53 1.53 0 0 0 1.3-2.29l-3.44-5.77 4.28-3.55a.71.71 0 0 0 .1-.99Z"/></svg>