<svg version="1.1" viewBox="0 0 24 24" xmlns="http://www.w3.org/2000/svg">
 <style>tspan { white-space:pre }
		.shp0 { fill: #0e81d2 } 
		.shp1 { fill: #233150 }</style>
 <path d="m7.4794 21.854c-.58398-.22607-1.0769-.69487-1.3819-1.3144l-.25851-.52503-.0219-7.6993c-.01414-4.9722.0064-7.8524.05799-8.1315.11479-.62096.37398-1.0856.84656-1.5175.74289-.67896.6403-.66623 5.3701-.66623 4.1292 0 4.1292 0 4.5734.20826.5657.26522 1.0486.74809 1.3138 1.3138.20826.44422.20826.44422.20826 8.5059 0 8.0617 0 8.0617-.1714 8.4327-.2269.49114-.79151 1.0844-1.2597 1.3236-.37787.19304-.37787.19304-4.625.20964-4.0746.01592-4.2636.01024-4.6517-.14001zm8.8202-1.0634c.17303-.09037.42078-.31461.55056-.49832.23595-.33402.23595-.33402.25935-8.094.01641-5.4438-.0023-7.8484-.06253-8.0563-.11743-.40483-.49132-.8086-.88868-.95969-.28998-.11027-.81536-.12297-4.2761-.10342-3.9455.022293-3.9455.022293-4.2804.25825-.18421.12977-.41728.39194-.51793.58259-.183.34664-.183.34664-.183 8.0303 0 5.671.02415 7.7537.0922 7.951.14694.42606.38084.68643.80777.89918.39771.19819.39771.19819 4.291.17643 3.7736-.02108 3.9029-.0268 4.2078-.18606zm-5.2591-.7863c-1.7531-.42432-2.985-2.0103-2.9883-3.8471-.007-3.9462 5.1219-5.4574 7.2939-2.149.47544.72421.62142 1.3026.58369 2.3125-.03016.80716-.05387.91625-.32168 1.4802-.83444 1.7571-2.6978 2.656-4.5676 2.2034zm2.0538-1.1499c.58426-.2154 1.2139-.8166 1.5321-1.4629.23336-.47403.25751-.58977.25751-1.2342 0-.64447-.02415-.76022-.25751-1.2342-.72937-1.4816-2.4862-2.1036-3.9052-1.3828-.47459.24109-1.0947.8744-1.3483 1.377-.20445.40523-.22888.53297-.22966 1.2007-.000763.65804.0261.80557.22519 1.2366.65339 1.4145 2.2328 2.0504 3.7259 1.4999zm-1.6168-1.8734c-.52848-.3222-.60976-1.0283-.17447-1.5155.20614-.23072.26539-.25214.6973-.25214.39188 0 .50663.03252.67587.1915.87214.81934-.17712 2.199-1.1987 1.5761zm-1.3322-7.3354c-2.0154-2.0282-2.1418-2.2172-2.1418-3.2018 0-1.2626.82162-2.2152 2.0652-2.3943.49603-.071451 1.1342.067997 1.5668.3424.31561.20015.36467.21059.50139.10663.60479-.45989 1.7198-.59064 2.4027-.28177 1.2789.57839 1.8012 2.082 1.1625 3.3465-.17495.3464-3.5665 3.8356-3.7283 3.8356-.04749 0-.87032-.78895-1.8285-1.7532zm4.6679-2.7077c.36566-.84166-.2826-1.8263-1.2048-1.8299-.55494-.00216-.87265.20623-1.2792.83907l-.363.56508-.31549-.52576c-.37068-.61773-.74834-.8764-1.2824-.87839-.90182-.00336-1.5733.94566-1.2615 1.7829.04535.12178.7086.84963 1.4739 1.6175l1.3914 1.3961 1.3656-1.3567c.75106-.7462 1.415-1.4706 1.4755-1.6098z" stroke-width=".078651"/>
</svg>
