<svg viewBox="0 0 24 24" xmlns="http://www.w3.org/2000/svg"><path d="M12.026 2c-4.28 0-6.509 2.123-6.684 6.368V22h1.79c1.192 0 1.789-.596 1.789-1.789v-5.88h.432v-.545l-.05-.03a.496.496 0 0 1-.209-.63l.492-1.114a2.02 2.02 0 0 1-.444-2.537l.182-.318 1.075.614.267-.467L9.59 8.69l.273-.478 1.075.614.267-.466-1.076-.615.273-.477 1.076.614.266-.467-1.076-.614.123-.216a2.02 2.02 0 0 1 2.756-.753l.958.546a2.02 2.02 0 0 1 .753 2.756l-.124.216-1.879-1.072-.266.466 1.879 1.073-.273.478-1.879-1.073-.266.467 1.879 1.072-.273.478-1.879-1.072-.266.466 1.879 1.073-.182.318a2.019 2.019 0 0 1-2.447.894l-.8 1.003a.449.449 0 0 1-.247.156v.254h.433v1.759c.691.395 1.5.595 2.426.595 3.79-.14 5.685-2.632 5.685-7.474 0-4.807-2.211-7.21-6.632-7.21"/></svg>