<svg viewBox="0 0 24 24" xmlns="http://www.w3.org/2000/svg"><path d="M6.05 18.881a866.994 866.994 0 0 0-1.169-1.95c-.081-.132-.045-.072-1.548-2.584a664.744 664.744 0 0 0-1.298-2.164L2 12.12l.18-.32a305.7 305.7 0 0 0 1.165-2.08 9712.825 9712.825 0 0 0 1.14-2.042c.106-.189.235-.424.287-.523.052-.1.105-.195.119-.211.014-.017.064-.103.112-.191.047-.089.172-.315.277-.503a1375.455 1375.455 0 0 0 1.26-2.258c.24-.43.327-.571.36-.577.024-.005.604-.014 1.29-.02 1.281-.013 4.357-.053 7.108-.094.868-.013 1.563-.015 1.571-.005.009.01.747 1.239 1.642 2.733l2.557 4.27c.513.854.932 1.558.932 1.564 0 .006-.058.113-.128.237-.109.192-.389.692-.587 1.05a627.436 627.436 0 0 1-1.004 1.8 3543.36 3543.36 0 0 1-1.943 3.48 1634.18 1634.18 0 0 1-1.094 1.962l-.102.18-2.414.034a16609.195 16609.195 0 0 1-6.639.09l-.945.014zm7.893.554c1.063-.012 2.061-.028 2.22-.036l.288-.013.151-.272.64-1.146a345.263 345.263 0 0 0 .916-1.64l.124-.221-.044-.14a41.065 41.065 0 0 0-.246-.714c-1.35-3.838-3.413-6.09-6.302-6.88-.744-.202-1.385-.292-2.263-.315-1.022-.028-2.03.078-3.316.346l-.586.122a.773.773 0 0 0-.175.051.85.85 0 0 0-.093.144l-.305.546c-.32.57-.613 1.097-.775 1.388-.12.218-.226.408-.672 1.204-.073.13-.133.241-.133.246 0 .006.938 1.573 2.793 4.668l.376.626.15-.075a2.94 2.94 0 0 1 .7-.24c1.036-.207 1.932.189 2.426 1.071.166.297.301.768.328 1.141l.013.187.927-.013c.51-.007 1.796-.023 2.859-.035zm-1.76-1.3a10.07 10.07 0 0 0-.61-1.133c-.306-.452-.74-.936-1.08-1.207-.636-.507-1.306-.793-2.175-.929-.246-.038-.369-.045-.832-.045-.476 0-.595.007-.964.055a6.28 6.28 0 0 1-.427.048c-.018-.018-.128-.927-.114-.94.022-.02.686-.095 1.083-.122a6.902 6.902 0 0 1 2.102.196c.254.068.724.249.989.381 1.242.622 2.213 1.734 2.93 3.361a9.4 9.4 0 0 1 .148.344c.004.015-.145.093-.392.205-.219.099-.414.185-.434.191-.029.01-.067-.06-.225-.405zm2.759-1.067a9.53 9.53 0 0 1-.154-.389c-.391-1.032-.844-1.889-1.353-2.56-.962-1.271-2.135-2.02-3.595-2.297-.539-.102-.73-.119-1.358-.12-.721 0-1.129.04-2.072.208a2.117 2.117 0 0 1-.344.046 17.03 17.03 0 0 1-.206-1.157l-.003-.083.352-.064c.813-.15 1.32-.205 2.011-.222 1.175-.027 2.098.119 3.098.49.569.212 1.242.6 1.767 1.019 1.051.838 1.885 1.973 2.568 3.493.116.259.473 1.161.473 1.196 0 .027-.08.06-.714.304l-.416.16c-.022.01-.04 0-.054-.024zm4.658-3.325.253-.452c.06-.111.217-.392.347-.624.379-.677.432-.774.432-.784 0-.006-.406-.687-.901-1.514l-1.804-3.013a471.023 471.023 0 0 0-1.409-2.347l-.321-.537-.433.009c-.445.01-2.297.033-5.462.069-.995.011-2.02.026-2.277.033l-.467.012-.064.113-.22.395a147.9 147.9 0 0 1-.391.704c-.35.625-.453.811-.453.82 0 .004.102-.009.226-.029 1.092-.178 2.364-.257 3.21-.199 1.565.107 2.805.426 4.027 1.038 1.959.98 3.554 2.678 4.743 5.049.269.536.608 1.306.717 1.629.015.044-.004.072.247-.372z"/></svg>