<svg viewBox="0 0 24 24" xmlns="http://www.w3.org/2000/svg"><path d="M11.694 21.884c-.363-.213-.533-.311-.982-.57a826.014 826.014 0 0 1-1.993-1.15l-.593-.343c-.34-.198-.636-.368-.801-.462l-.134-.076V16.5c-.001-2.597 0-2.784.03-2.795.017-.007.157-.085.31-.175.41-.24.616-.36.947-.55a184.002 184.002 0 0 0 1.205-.694l.658-.38c1.456-.84 1.656-.955 1.677-.955a.14.14 0 0 1 .056.026c.02.014.179.107.352.207a1178.213 1178.213 0 0 1 1.557.898c.01.008.144.085.297.172.153.087.428.244.611.35a193.672 193.672 0 0 0 .974.562 100.214 100.214 0 0 0 .783.452l.18.104v5.561l-.125.072-1.08.623c-.675.392-1.065.616-1.315.76-.138.078-.551.316-.918.528-.367.213-.805.465-.972.561a11.71 11.71 0 0 0-.343.201.135.135 0 0 1-.065.025c-.016 0-.158-.077-.316-.17zm2.334-1.71.39-.228a181.825 181.825 0 0 0 1.335-.769l.376-.218.07-.04v-4.832l-.126-.073a777.109 777.109 0 0 0-2.961-1.71l-.732-.421a7.146 7.146 0 0 1-.324-.192c-.028-.027-.061-.02-.135.027-.038.024-.207.123-.375.22a531.784 531.784 0 0 0-1.872 1.08 264.876 264.876 0 0 0-1.41.812l-.435.251-.01 4.838.395.227a256.14 256.14 0 0 1 1.08.623l.654.378c.156.09.288.165.294.165.005 0 .072-.052.148-.116a2.24 2.24 0 0 1 .516-.338 2.199 2.199 0 0 1 1.038-.237c.604 0 1.125.199 1.586.605l.157.137.072-.036c.04-.02.16-.09.269-.153zm-3.751-.57-.089-.132.044-.034c.158-.123.588-.335.87-.429.287-.095.426-.115.824-.115.41 0 .59.028.915.142.278.098.855.392.855.436 0 .016-.169.265-.18.265a1.42 1.42 0 0 1-.142-.082 3.207 3.207 0 0 0-1.003-.399 2.715 2.715 0 0 0-.846-.009 3.237 3.237 0 0 0-1.032.415 1.954 1.954 0 0 1-.122.075 1.45 1.45 0 0 1-.094-.132zm-.554-.748c-.097-.127-.16-.225-.154-.24a1.88 1.88 0 0 1 .266-.197c.922-.61 1.851-.81 2.804-.606.497.106 1.094.378 1.572.715.065.045.115.092.112.104-.009.031-.3.436-.315.437-.007 0-.113-.064-.234-.143a3.9 3.9 0 0 0-1.301-.563c-.163-.034-.253-.041-.547-.042-.39 0-.57.028-.918.142a4.463 4.463 0 0 0-.907.466 6.83 6.83 0 0 1-.21.141c-.002 0-.078-.096-.168-.214zm4.742-.684a6.569 6.569 0 0 0-.899-.566c-.92-.465-1.79-.546-2.705-.25-.388.126-.929.425-1.357.751-.081.062-.158.11-.17.105a2.462 2.462 0 0 1-.21-.24l-.19-.233.153-.119c.736-.577 1.496-.923 2.292-1.045a4.4 4.4 0 0 1 1.065 0c.27.039.647.134.893.225.271.1.743.339 1.022.517.272.174.579.399.579.424 0 .02-.372.495-.387.494a.504.504 0 0 1-.086-.063zm-7.73-5.15a57.276 57.276 0 0 0-.954-.551l-.612-.353-1.158-.666-.417-.242c-.117-.069-.3-.175-.408-.236-.107-.06-.357-.205-.556-.32a76.5 76.5 0 0 0-.495-.285L2 10.293V7.508c0-1.738.005-2.785.016-2.785.01 0 .112-.055.227-.123.116-.067.322-.187.46-.265.138-.079.292-.168.343-.2l.343-.2a485.8 485.8 0 0 0 2.29-1.32l.407-.236c.545-.319.723-.42.741-.42.018 0 .11.052.76.428a177.44 177.44 0 0 0 .927.535l.547.314c.117.066.31.176.426.245.296.173.796.461.973.561l.492.282.523.304.181.104v5.561l-.171.099-.367.21c-.107.062-.282.164-.389.228-.107.063-.253.147-.324.186-.072.04-.238.135-.37.213l-.4.233-.49.283c-.184.106-.451.26-.594.34-.142.082-.29.168-.327.192a5.783 5.783 0 0 1-.24.14c-.096.052-.291.164-.434.248-.36.21-.7.408-.713.412a.482.482 0 0 1-.102-.054zm.318-.798c.187-.11.403-.235 1.221-.707l.987-.573a.626.626 0 0 0-.023-.104c-.082-.311-.075-.755.018-1.121.192-.756.808-1.42 1.53-1.65.086-.027.177-.057.202-.067l.045-.018-.012-1.014c-.007-.558-.013-1.21-.013-1.45v-.435l-.135-.076a139.2 139.2 0 0 1-3.868-2.228c-.167-.098-.177-.101-.222-.075a312.977 312.977 0 0 1-1.586.917A2721.778 2721.778 0 0 1 2.903 4.95l-.255.148.01 4.84.194.114c.107.062.374.217.593.342l.63.363c.414.239.928.536 1.317.759.722.416.974.561 1.195.692.123.072.232.131.244.132.012 0 .112-.052.222-.116zm-.712-1.602c-.07-.528-.075-1.196-.013-1.598.182-1.18.804-2.125 1.865-2.832.313-.21 1.03-.577 1.14-.585.044-.003.054.013.156.265.06.148.11.278.11.29 0 .011-.064.047-.143.08a7.742 7.742 0 0 0-.428.207c-1.006.519-1.635 1.207-1.931 2.11a4.057 4.057 0 0 0-.167 1.463c.018.281.053.613.067.636.005.007 0 .018-.011.024a4.517 4.517 0 0 1-.565.102h-.059zm1.101.073c-.02-.032-.048-.409-.048-.643 0-1.509.729-2.642 2.166-3.369.137-.068.254-.125.26-.125.012 0 .234.478.234.503 0 .006-.117.071-.26.145-.88.456-1.426 1.05-1.678 1.82-.12.367-.176.96-.131 1.395.011.112.018.205.016.207a3.77 3.77 0 0 1-.237.035c-.127.017-.25.034-.272.039-.022.005-.045.002-.05-.007zm1.038-.288c-.015-.206.015-.59.063-.822.173-.83.706-1.51 1.546-1.97.168-.092.154-.098.253.097l.055.106-.042.026-.222.13c-.596.346-1.007.841-1.199 1.444a2.631 2.631 0 0 0-.12.832c-.002.16-.007.295-.012.3a.992.992 0 0 1-.16.017l-.15.01zm8.502 2.558c-.183-.11-.699-.41-.988-.575a300.619 300.619 0 0 1-1.64-.948 121.665 121.665 0 0 1-.899-.52 48.593 48.593 0 0 1-.454-.262 79.726 79.726 0 0 0-.468-.27l-.17-.097v-2.78l-.001-2.78.371-.214.58-.334c.238-.14.648-.376.956-.55.116-.066.241-.139.278-.162.037-.023.192-.113.345-.2.152-.086.44-.25.639-.366s.457-.263.574-.33c.116-.065.27-.155.343-.198.072-.044.238-.14.37-.214.133-.074.27-.153.307-.176l.066-.041.213.124.351.203.445.257a375.842 375.842 0 0 0 1.724.995 5381.546 5381.546 0 0 1 .936.543 111.954 111.954 0 0 1 .978.565l.162.094V10.3l-.18.107c-.21.123-.665.386-.96.553l-.445.256a261.869 261.869 0 0 1-1.557.9c-.183.106-.4.23-.482.276-.153.086-.598.343-.976.564-.12.07-.22.126-.223.125l-.195-.116zm.264-.649c.02-.014.176-.106.347-.204.573-.33.909-.522 2.266-1.305l1.052-.604.458-.262-.008-4.85-.417-.242-.723-.419a1414.157 1414.157 0 0 1-2.558-1.477 34.766 34.766 0 0 1-.346-.201 1.305 1.305 0 0 0-.123-.068c-.004 0-.19.105-.414.234l-.656.377a606.33 606.33 0 0 0-2.085 1.202l-.612.353c-.132.077-.28.16-.329.187l-.088.048-.003 1.158-.005 1.453-.001.295.187.06a2.386 2.386 0 0 1 1.594 2.787l-.025.107.188.109.466.268 1.686.976c.087.05.1.052.15.018zm.043-1.577a2.573 2.573 0 0 1-.251-.053c-.01-.007-.008-.08.006-.183a5.18 5.18 0 0 0-.003-1.469c-.166-.975-.71-1.758-1.64-2.356a8.366 8.366 0 0 0-.857-.445.397.397 0 0 1-.125-.064c0-.024.208-.545.224-.564.043-.047.775.318 1.185.59 1.07.714 1.678 1.637 1.863 2.829.062.4.057 1.054-.013 1.598l-.02.162-.067-.001a3.344 3.344 0 0 1-.302-.044zm-.998-.07a5.11 5.11 0 0 1-.273-.04 2.232 2.232 0 0 1 .016-.207c.044-.436-.01-1.026-.132-1.404a3.304 3.304 0 0 0-.361-.727c-.307-.43-.744-.79-1.322-1.09l-.26-.134.111-.25a7.01 7.01 0 0 1 .119-.257c.015-.016.451.21.672.347.225.14.523.367.69.525.604.57.967 1.324 1.054 2.182.034.334.014 1.04-.031 1.078a1.614 1.614 0 0 1-.283-.023zm-.953-.106-.129-.01-.003-.306c-.005-.46-.071-.77-.242-1.145-.191-.42-.59-.84-1.057-1.114l-.244-.145-.042-.026.068-.124c.038-.069.075-.132.083-.14.034-.04.498.25.78.488.476.401.798.94.923 1.545.08.381.093 1 .021.991a10.832 10.832 0 0 0-.158-.014z"/></svg>