<svg version="1.1" viewBox="0 0 24 24" xmlns="http://www.w3.org/2000/svg">
 <style>tspan { white-space:pre }
		.shp0 { fill: #0e81d2 } 
		.shp1 { fill: #233150 }</style>
 <path d="m14.095 21.59c-1.0634-.38275-1.5519-1.1653-1.5896-2.5464-.02348-.86142-.02348-.86142.50989-.97603 1.8191-.39091 3.4425-2.0845 3.6611-3.8196.12758-1.0127.19234-.90604-.55024-.90604-.66364 0-.66364 0-.66364.31594 0 1.1548-.84384 2.405-1.9911 2.9498-2.205 1.0472-4.6213-.38922-4.9666-2.9525-.042204-.31331-.042204-.31331-.66479-.31331-.71734 0-.69992-.03055-.52901.92744.34816 1.9515 1.7003 3.3076 3.8543 3.8656.18338.0475.07202 1.5657-.15053 2.0524-.58145 1.2717-1.9499 1.7417-3.3027 1.1344-2.8656-1.2866-5.0125-4.0626-5.6032-7.2451-.15974-.86062-.14127-2.9301.033833-3.7916.80525-3.9613 3.8199-6.9725 7.845-7.8359.99478-.2134 3.0199-.21589 3.9949-.0049 3.8948.84273 6.7633 3.5742 7.7611 7.3903.26508 1.0138.33971 3.0834.14972 4.152-.46824 2.6337-2.0517 5.0926-4.2042 6.5285-1.6198 1.0806-2.6895 1.4004-3.5943 1.0748zm-1.3287-5.9082c.45203-.15779.95616-.54044 1.204-.9139.43547-.65607.44414-.73892.42286-4.0406-.02146-3.3289-.04011-3.4353-.71837-4.0997-.92402-.90519-2.5031-.88979-3.4001.03318-.65476.6737-.64973.64108-.64973 4.2078 0 3.1661 0 3.1661.19255 3.5583.53645 1.0926 1.8331 1.6445 2.9488 1.255zm-.9976-3.5271c-.17011-.17011-.16617-.23559.02571-.42747.30263-.30263.71163.03343.47683.39178-.13199.20144-.3232.21502-.50254.03568zm-1.1741-.80472c-.10896-.10896-.09948-.4155.0158-.51118.16494-.13689.45578-.05776.526.1431.10988.3143-.31019.59968-.5418.36808zm2.3266-.05476c-.1737-.19194-.06644-.48455.1884-.51396.23543-.02717.37407.08882.37407.31296 0 .33559-.33298.45458-.56247.201zm-1.07-.79159c-.29405-.11819-.16198-.65755.16102-.65755.1176 0 .35018.24095.35018.36278 0 .10407-.22864.36576-.31331.3586-.02721-.0023-.11626-.03103-.19788-.06384zm-1.2203-.79475c-.17589-.10245-.14938-.43115.04504-.55855.33363-.2186.67989.25794.36984.509-.16851.13645-.24915.14608-.41489.04955zm2.3398-.03144c-.3439-.24088-.0029-.76002.3481-.53001.20653.13533.22815.46228.03732.56441-.16925.09058-.2125.08672-.38542-.0344zm-1.202-.88672c-.17011-.17011-.16617-.23559.02571-.42747.30263-.30263.71163.03343.47683.39178-.13199.20144-.3232.21502-.50254.03568zm-1.1812-.81715c-.14056-.16936-.06222-.45856.14373-.53057.26558-.09286.49921.14076.40638.40636-.07493.21438-.41209.29051-.55011.12421zm2.2882-.07844c-.13488-.29603.14193-.57283.43796-.43796.18625.08486.23737.38233.09087.52883-.1465.1465-.44396.09538-.52883-.09087zm-1.146-.85236c-.22111-.33746.25122-.67497.52352-.37408.14188.15678.13822.29436-.01146.42982-.17419.15764-.38746.13442-.51206-.05574z" stroke-width=".06596"/>
</svg>
