<svg viewBox="0 0 24 24" xmlns="http://www.w3.org/2000/svg"><path d="M14.095 21.59c-1.063-.383-1.552-1.165-1.59-2.546-.023-.862-.023-.862.51-.976 1.82-.391 3.443-2.085 3.661-3.82.128-1.013.193-.906-.55-.906-.663 0-.663 0-.663.316 0 1.155-.844 2.405-1.992 2.95-2.205 1.047-4.62-.39-4.966-2.953-.042-.313-.042-.313-.665-.313-.717 0-.7-.03-.529.927.348 1.952 1.7 3.308 3.854 3.866.184.047.072 1.566-.15 2.052-.582 1.272-1.95 1.742-3.303 1.135-2.866-1.287-5.012-4.063-5.603-7.245-.16-.861-.141-2.93.034-3.792.805-3.961 3.82-6.973 7.845-7.836.994-.213 3.02-.216 3.995-.005 3.894.843 6.763 3.574 7.76 7.39.266 1.014.34 3.084.15 4.152-.468 2.634-2.051 5.093-4.204 6.529-1.62 1.08-2.69 1.4-3.594 1.075zm-1.329-5.908c.452-.158.956-.54 1.204-.914.436-.656.444-.739.423-4.04-.021-3.33-.04-3.436-.718-4.1-.924-.906-2.503-.89-3.4.033-.655.673-.65.64-.65 4.208 0 3.166 0 3.166.193 3.558.536 1.092 1.833 1.644 2.948 1.255zm-.997-3.527c-.17-.17-.166-.236.025-.428.303-.302.712.034.477.392-.132.201-.323.215-.502.036zm-1.174-.805c-.11-.109-.1-.416.015-.511.165-.137.456-.058.526.143.11.314-.31.6-.541.368zm2.326-.055a.304.304 0 0 1 .189-.514c.235-.027.374.09.374.313 0 .336-.333.455-.563.201zm-1.07-.791c-.294-.119-.162-.658.161-.658.118 0 .35.241.35.363 0 .104-.228.366-.313.358a1.114 1.114 0 0 1-.198-.063zm-1.22-.795c-.176-.103-.15-.431.045-.559.334-.218.68.258.37.51-.169.136-.25.145-.415.049zm2.34-.032c-.344-.24-.003-.76.348-.53.206.136.228.463.037.565-.17.09-.212.087-.385-.035zm-1.202-.886c-.17-.17-.166-.236.025-.428.303-.302.712.034.477.392-.132.201-.323.215-.502.036zm-1.181-.817c-.141-.17-.063-.459.143-.531.266-.093.5.14.407.406-.075.215-.412.29-.55.125zm2.288-.079c-.135-.296.142-.573.438-.438.186.085.237.382.09.529-.146.146-.443.095-.528-.09zm-1.146-.852c-.221-.338.25-.675.523-.374.142.156.138.294-.011.43-.174.157-.388.134-.512-.056z"/></svg>