<svg viewBox="0 0 24 24" xmlns="http://www.w3.org/2000/svg"><path d="M10.821 7.11a4.918 4.889 0 0 0-4.811 3.92 1.214 1.214 0 0 1 .72-.248 1.214 1.214 0 0 1 1.214 1.215 1.214 1.214 0 0 1-1.215 1.215 1.214 1.214 0 0 1-.721-.248 4.918 4.889 0 0 0 4.813 3.926A4.918 4.889 0 0 0 15.74 12a4.918 4.889 0 0 0-4.919-4.89zm-7.606 3.671A1.214 1.214 0 0 0 2 11.996a1.214 1.214 0 0 0 1.215 1.215 1.214 1.214 0 0 0 1.213-1.215 1.214 1.214 0 0 0-1.213-1.215zm7.029 0a1.214 1.214 0 0 1 1.21 1.215 1.214 1.214 0 0 1-1.212 1.215 1.214 1.214 0 0 1-1.213-1.215 1.214 1.214 0 0 1 1.215-1.215zm3.514 0a1.214 1.214 0 0 1 1.213 1.215 1.214 1.214 0 0 1-1.213 1.215 1.214 1.214 0 0 1-1.215-1.215 1.214 1.214 0 0 1 1.215-1.215zm3.637 0a1.214 1.214 0 0 0-1.215 1.215 1.214 1.214 0 0 0 1.215 1.215 1.214 1.214 0 0 0 1.214-1.215 1.214 1.214 0 0 0-1.214-1.215zm3.392 0a1.214 1.214 0 0 0-1.215 1.215 1.214 1.214 0 0 0 1.215 1.215A1.214 1.214 0 0 0 22 11.996a1.214 1.214 0 0 0-1.213-1.215z"/></svg>