<?xml version="1.0" encoding="UTF-8"?>
<svg version="1.1" viewBox="0 0 24 24" xml:space="preserve" xmlns="http://www.w3.org/2000/svg"><path d="m6.2383 21.949c0.1829-0.0587 0.44686-0.32521 0.53189-0.53702l0.0622-0.15498 0.0258-7.5584 0.0904 0.0951c4.9164 5.1695 13.594 0.35448 11.831-6.5644-1.7633-6.9181-11.659-6.9925-13.548-0.10194-0.25738 0.93911-0.24963 0.68544-0.24078 7.8787l8e-3 6.2769 0.0692 0.1477c0.21836 0.46588 0.68733 0.67358 1.1706 0.51847zm5.1532-7.8632c-3.6914-0.42416-5.7402-4.5712-3.8353-7.7632 2.1118-3.5387 7.3249-3.2959 9.0972 0.42373 1.7382 3.648-1.2397 7.8017-5.2619 7.3395z" stroke-width=".025831"/></svg>
