<svg viewBox="0 0 24 24" xmlns="http://www.w3.org/2000/svg"><path d="M5.4 21.927a1.684 1.684 0 0 1-.39-.155c-.085-.052-.223-.231-.309-.398-.138-.272-.155-.926-.155-6.15 0-5 .02-5.885.142-6.12.29-.56.342-.57 2.94-.57 2.375 0 2.375 0 2.635-.327.144-.18.392-.404.553-.498.236-.139.285-.222.254-.433-.02-.143-.002-.26.042-.26.044 0 .159.049.256.11.143.089.23.072.454-.089.279-.198.279-.198.589.045.23.18.338.215.417.135.163-.163.274-.128.241.076-.02.124.098.275.37.472.22.16.473.401.562.537.089.136.216.457.283.714.098.379.098.555 0 .936-.068.258-.238.62-.378.804-.14.185-.444.446-.673.58-.337.197-.546.246-1.082.251-.5.005-.772-.045-1.096-.202-.237-.115-.538-.336-.668-.49-.237-.282-.237-.282-1.876-.28-.902 0-1.693.002-1.759.004-.093.002-.118.998-.118 4.655 0 4.652 0 4.652 1.542 4.626 1.542-.026 1.542-.026 1.59-3.096.047-3.07.047-3.07.323-3.289.268-.214.337-.22 2.61-.253 2.322-.034 2.336-.035 2.869-.296a5.64 5.64 0 0 0 .794-.464c.32-.251.804-1.011 1.049-1.643.144-.373.183-.71.181-1.566-.002-1.126-.093-1.536-.526-2.386-.108-.21-.417-.609-.688-.884a2.989 2.989 0 0 0-1.061-.727c-.55-.217-.674-.226-3.527-.254-2.891-.029-2.959-.025-3.018.161-.033.105-.19.3-.348.432-.26.22-.364.242-1.135.242-.477 0-.924.048-1.024.11-.267.167-.485.034-.485-.297 0-.288 0-.288-.562-.288-.309 0-.63-.026-.712-.058-.082-.031-.15-.139-.15-.24 0-.11.101-.22.259-.28.142-.054.452-.086.688-.071.43.026.43.026.457-.754.027-.78.027-.78-.538-.78-.311 0-.633-.026-.716-.057-.177-.068-.197-.332-.036-.493.065-.064.373-.114.712-.114.576 0 .598-.009.598-.24 0-.135.068-.266.155-.3.085-.033.234-.01.33.05.102.064.56.11 1.084.11.823 0 .926.02 1.116.22.115.12.254.297.308.393.093.163.273.174 2.8.164 1.52-.005 2.908.033 3.175.088.87.18 1.513.408 2.088.745.313.184.763.527 1 .762.236.235.583.663.77.95.378.579.772 1.516.94 2.234.155.668.12 2.6-.06 3.305-.082.32-.304.894-.494 1.275a6.64 6.64 0 0 1-.845 1.246c-.275.304-.718.693-.984.863a7.171 7.171 0 0 1-1.117.55c-.57.217-.814.246-2.437.295-1.803.054-1.803.054-1.85 3.043-.034 2.094-.083 3.05-.163 3.19-.064.111-.262.272-.442.357-.278.132-.703.153-2.921.143-1.428-.006-2.702-.038-2.833-.071z"/></svg>