<svg version="1.1" viewBox="0 0 24 24" xmlns="http://www.w3.org/2000/svg">
 <style>tspan { white-space:pre }
		.shp0 { fill: #0e81d2 } 
		.shp1 { fill: #233150 }</style>
 <path d="m5.4002 21.927c-.13049-.03297-.3062-.10265-.39046-.15485-.08427-.05219-.22306-.23157-.30842-.39861-.13871-.27143-.15521-.92508-.15521-6.1494 0-5.0007.0205-5.8854.14181-6.12.28974-.5603.34201-.57044 2.9398-.57045 2.3751-2.8e-6 2.3751-2.8e-6 2.6356-.32652.14329-.17958.39196-.40378.55259-.49822.23603-.13876.28478-.22177.25413-.43267-.02086-.14354-.002-.26097.04182-.26097.04386 0 .15907.049536.25602.11008.14273.089134.22923.072365.45462-.088127.27836-.19821.27836-.19821.58843.044459.23025.1802.33764.2151.41716.13558.16299-.16299.27428-.12814.24117.075524-.02019.12421.09821.27536.37021.47261.21994.1595.47263.401.56153.53668.0889.13567.21614.45681.28275.71363.09835.37915.09824.55519-.00057.9362-.06695.25809-.2368.62013-.37745.80453-.14065.1844-.44347.4453-.67293.57977-.33633.1971-.54609.24571-1.0821.25075-.50029.0047-.77155-.04538-1.0958-.20232-.23698-.11472-.53744-.33523-.66769-.49002-.23681-.28143-.23681-.28143-1.8765-.27997-.90181.000759-1.693.0026-1.7583.0041-.09325.0021-.11862.99784-.11862 4.6551 0 4.6524 0 4.6524 1.5421 4.6263 1.5421-.02607 1.5421-.02607 1.5895-3.0957.04744-3.0696.04744-3.0696.32326-3.2894.26857-.21405.3371-.2207 2.6097-.2535 2.3228-.03353 2.3365-.03493 2.8695-.29512.29455-.14379.65192-.35298.79416-.46487.31912-.25102.80422-1.0108 1.0489-1.6429.14419-.37249.18317-.70911.18129-1.5658-.002458-1.1262-.092885-1.5361-.52628-2.3856-.10757-.21085-.41696-.60899-.68755-.88475-.33752-.34399-.67073-.57206-1.0614-.72649-.54935-.21717-.67352-.22612-3.527-.25429-2.8913-.028539-2.959-.024921-3.0181.16139-.033273.10482-.1896.29922-.3474.432-.26052.21921-.36492.24142-1.135.24142-.4779 0-.9249.047962-1.024.10988-.26796.16735-.48578.034312-.48578-.2967 0-.28768 0-.28768-.56163-.28768-.3089 0-.62918-.025921-.71174-.057603-.08256-.031682-.15011-.1395-.15011-.2396 0-.11085.10116-.22046.25879-.28039.14234-.054116.45194-.086406.68802-.071755.42923.026637.42923.026637.45679-.75335.02756-.77999.02756-.77999-.53791-.77999-.31101 0-.63302-.025921-.71558-.057603-.1776-.068151-.197-.33204-.03623-.49281.06447-.064471.37327-.11388.71174-.11388.57643 0 .59786-.00861.59786-.24023 0-.13465.06808-.26635.15492-.29967.0852-.032697.23409-.010001.33086.050428.10136.063303.56046.10988 1.0831.10988.82391 0 .92634.020103 1.1164.2191.11506.12051.25374.29751.30816.39335.09258.16303.27277.17362 2.7995.1645 1.5204-.00549 2.9079.032873 3.1751.087775.87121.17905 1.5133.40818 2.0878.745.31317.18362.76318.52644 1 .76183.23685.23539.58386.66285.77115.94992.37774.579.77128 1.516.93847 2.2344.15544.66796.12061 2.6001-.05958 3.305-.08177.31985-.30391.89361-.49366 1.275-.18974.3814-.57.94211-.84501 1.246-.27501.3039-.71766.6922-.98365.86289-.26599.17069-.76883.41843-1.1174.55053-.57052.21621-.81385.24559-2.4369.29419-1.8031.05399-1.8031.05399-1.8505 3.0433-.03324 2.0941-.08199 3.0496-.16279 3.1905-.06344.11064-.26206.27078-.44139.35587-.27871.13226-.70287.15309-2.9214.14349-1.4275-.0062-2.7021-.0382-2.8326-.07117z" stroke-width=".094899"/>
</svg>
