<svg viewBox="0 0 24 24" xmlns="http://www.w3.org/2000/svg"><defs><linearGradient id="a" x1="6.25" y1="36" x2="38.25" y2="36" gradientUnits="userSpaceOnUse" gradientTransform="translate(-57.772 -4.107) scale(.57143)"><stop stop-color="#F8B700"/><stop offset=".51" stop-color="#F87900"/><stop offset="1" stop-color="#AE35DD"/></linearGradient><linearGradient id="b" x1="4.001" y1="45.05" x2="22.215" y2="45.05" gradientUnits="userSpaceOnUse" gradientTransform="translate(-57.772 -4.107) scale(.57143)"><stop stop-color="#FE4F45"/><stop offset=".52" stop-color="#F87900"/><stop offset="1" stop-color="#F8B700"/></linearGradient><linearGradient id="c" x1="4" y1="28" x2="52" y2="28" gradientUnits="userSpaceOnUse" gradientTransform="translate(-57.772 -4.107) scale(.57143)"><stop stop-color="#FE4F45"/><stop offset=".52" stop-color="#F87900"/><stop offset="1" stop-color="#F8B700"/></linearGradient></defs><path d="M15.333 22h-4.166a9.137 9.137 0 0 0-2.684-6.483A9.167 9.167 0 0 0 2 12.833V8.667a13.304 13.304 0 0 1 9.43 3.904A13.292 13.292 0 0 1 15.332 22z" fill="url(#a)" style="fill:#000;stroke-width:.416665"/><path d="M7.833 19.104A2.917 2.917 0 1 1 2 19.062a2.917 2.917 0 0 1 5.833.042z" fill="url(#b)" style="display:inline;fill:#000;stroke-width:.416665"/><path d="M22 22h-4.154a15.809 15.809 0 0 0-4.622-11.196 15.724 15.724 0 0 0-11.16-4.637H2V2h.063A19.842 19.842 0 0 1 16.16 7.858 19.954 19.954 0 0 1 22 22Z" fill="url(#c)" style="fill:#000;stroke-width:.416665"/></svg>