<?xml version="1.0" encoding="UTF-8" standalone="no"?>
<svg
   version="1.1"
   viewBox="0 0 24 24"
   id="svg4"
   sodipodi:docname="rsscom.svg"
   inkscape:version="1.1 (1:1.1+202106032006+af4d65493e)"
   xmlns:inkscape="http://www.inkscape.org/namespaces/inkscape"
   xmlns:sodipodi="http://sodipodi.sourceforge.net/DTD/sodipodi-0.dtd"
   xmlns="http://www.w3.org/2000/svg"
   xmlns:svg="http://www.w3.org/2000/svg">
  <defs
     id="defs8">
    <linearGradient
       id="paint0_linear"
       x1="6.25"
       y1="36"
       x2="38.25"
       y2="36"
       gradientUnits="userSpaceOnUse"
       gradientTransform="matrix(0.57142857,0,0,0.57142857,-57.772066,-4.107422)">
      <stop
         stop-color="#F8B700"
         id="stop1048" />
      <stop
         offset=".51"
         stop-color="#F87900"
         id="stop1050" />
      <stop
         offset="1"
         stop-color="#AE35DD"
         id="stop1052" />
    </linearGradient>
    <linearGradient
       id="paint1_linear"
       x1="4.001"
       y1="45.05"
       x2="22.215"
       y2="45.05"
       gradientUnits="userSpaceOnUse"
       gradientTransform="matrix(0.57142857,0,0,0.57142857,-57.772066,-4.107422)">
      <stop
         stop-color="#FE4F45"
         id="stop1055" />
      <stop
         offset=".52"
         stop-color="#F87900"
         id="stop1057" />
      <stop
         offset="1"
         stop-color="#F8B700"
         id="stop1059" />
    </linearGradient>
    <linearGradient
       id="paint2_linear"
       x1="4"
       y1="28"
       x2="52"
       y2="28"
       gradientUnits="userSpaceOnUse"
       gradientTransform="matrix(0.57142857,0,0,0.57142857,-57.772066,-4.107422)">
      <stop
         stop-color="#FE4F45"
         id="stop1062" />
      <stop
         offset=".52"
         stop-color="#F87900"
         id="stop1064" />
      <stop
         offset="1"
         stop-color="#F8B700"
         id="stop1066" />
    </linearGradient>
  </defs>
  <sodipodi:namedview
     id="namedview6"
     pagecolor="#ffffff"
     bordercolor="#666666"
     borderopacity="1.0"
     inkscape:pageshadow="2"
     inkscape:pageopacity="0.0"
     inkscape:pagecheckerboard="0"
     showgrid="false"
     inkscape:zoom="14.979167"
     inkscape:cx="12.617524"
     inkscape:cy="12.851182"
     inkscape:window-width="1920"
     inkscape:window-height="1016"
     inkscape:window-x="1920"
     inkscape:window-y="27"
     inkscape:window-maximized="1"
     inkscape:current-layer="svg4" />
  <path
     d="M 15.333336,21.999913 H 11.166692 A 9.137451,9.137451 0 0 0 8.4833727,15.516615 9.1666175,9.1666175 0 0 0 2.0000741,12.833296 V 8.6666517 a 13.304095,13.304095 0 0 1 9.4291159,3.9041453 13.291595,13.291595 0 0 1 3.904146,9.429116 z"
     fill="url(#paint0_linear)"
     id="path1042"
     style="fill:#000000;stroke-width:0.416665" />
  <path
     d="m 7.8333759,19.104095 a 2.9167253,2.9167253 0 1 1 -5.8333018,-0.04166 2.9166509,2.9166509 0 0 1 5.8328855,0.04166 z"
     fill="url(#paint1_linear)"
     id="path1044"
     style="display:inline;fill:#000000;stroke-width:0.416665" />
  <path
     d="M 21.999967,21.999913 H 17.846239 A 15.808664,15.808664 0 0 0 13.223764,10.80414 15.724081,15.724081 0 0 0 2.063407,6.1666652 H 2.0000719 V 2.000021 h 0.063335 A 19.842393,19.842393 0 0 1 16.159998,7.8583227 19.954059,19.954059 0 0 1 21.999967,21.999913 Z"
     fill="url(#paint2_linear)"
     id="path1046"
     style="fill:#000000;stroke-width:0.416665" />
</svg>
