<?xml version="1.0" encoding="UTF-8"?>
<svg version="1.1" viewBox="0 0 24 24" xml:space="preserve" xmlns="http://www.w3.org/2000/svg"><path d="m12.304 2.4752c-5.6689 0.18842-10.828 5.5471-9.0041 12.047l0.14274 0.5082-0.73604 1.7408c-0.49198 1.1638-0.72575 1.7817-0.70516 1.8646 0.0383 0.15418-0.0617 0.13756 2.3279 0.38638 1.9324 0.2012 1.9322 0.20145 2.2768 0.47113 1.3095 1.025 2.9412 1.7152 4.5892 1.9415 9.2394 1.2688 14.602-10.403 7.6103-16.565-1.9867-1.7511-4.2833-2.4689-6.5016-2.3951zm0.19731 3.999c0.80736 3e-3 1.6425 0.19008 2.4607 0.59913 4.6251 2.3122 3.7119 9.2364-1.3606 10.316-1.4357 0.30554-3.012-4e-3 -4.2052-0.82561-0.36544-0.2517-0.36549-0.25168-1.4618-0.32667-0.60296-0.0412-1.1509-0.0904-1.2178-0.10878-0.11843-0.0326-0.11147-0.0603 0.25908-1.0377 0.38074-1.0043 0.38057-1.0042 0.25084-1.4127-1.1991-3.776 1.7763-7.2165 5.2748-7.2036z"/></svg>
