<svg version="1.1" viewBox="0 0 24 24" xmlns="http://www.w3.org/2000/svg">
 <style type="text/css">.st0{fill:#FFFFFF;}
	.st1{fill:#8DC742;}</style>
 <path d="m3.5205 19.212c-.080409-.02681-.21764-.06448-.30495-.0837-.10749-.02367-.14824-.06236-.12618-.11985.03965-.10333.14399-.13905.50501-.17289.22258-.02087.277-.0081.277.06485 0 .06341-.036988.08114-.1226.05875-.06743-.01763-.16188-.01698-.2099.0014-.067933.02607-.050465.06363.07874.16934.17368.14209.148.16379-.097118.08206zm1.0885-.08266c-.020949-.08347-.073838-.15176-.11753-.15176-.043695 0-.1127-.04007-.15334-.08904-.04266-.0514-.11985-.07446-.1826-.05454-.059787.01898-.1087.0064-.1087-.02792 0-.03433-.052632-.06242-.11696-.06242-.17372 0-.14159-.09741.044407-.13461.088751-.01775.23584-.09627.32687-.17448.14605-.1255.15343-.14684.062773-.18163-.18673-.07165.014223-.17728.30344-.1595.18191.01119.2568-.004.2304-.04672-.023061-.03731-.24172-.06329-.53274-.06329-.2901 0-.49362-.02411-.49362-.05848 0-.03216-.098684-.05454-.2193-.04972-.1764.007-.18784.01353-.058479.03312.08845.0134.16082.05175.16082.08521 0 .03347-.039785.04559-.088412.02693s-.15312-.0044-.2322.03159c-.12405.05652-.16007.04628-.26243-.07467-.11347-.13408-.12225-.13553-.20152-.03334-.047966.06183-.13807.09879-.2139.08772-.074492-.01087-.14312.01644-.15906.0633-.019313.05678.00174.07099.067664.04569.06184-.02373.095699-.0063.095699.04916 0 .05644-.060146.08588-.17544.08588-.18688 0-.21902-.04999-.10526-.16374.054581-.05458.044834-.0707-.04386-.07252-.089863-.0018-.076848-.023.061403-.09982.096491-.05361.20833-.09088.24854-.08281.040205.0081.073099-.01281.073099-.04638s-.057895-.06104-.12866-.06104c-.097448 0-.11223-.01642-.060958-.0677.051276-.05128.089395-.04969.15715.0065.049199.04083.13437.057.18926.03594.083648-.0321.073218-.0521-.064419-.1235-.22406-.11624-.33156-.10696-.36783.03176-.016928.06473-.079767.11696-.14072.11696-.13829 0-.14229-.10857-.0078-.21205.08777-.06753.074858-.06957-.090704-.01431-.10617.03544-.20924.04824-.22904.02844-.019801-.0198-.0053-.036.032225-.036.037524 0 .068226-.02632.068226-.05848s-.039474-.05848-.087719-.05848c-.071475 5e-5-.08772-.097416-.08772-.52627 0-.28947.021286-.52632.047302-.52632s.098385.03864.16082.08586c.062434.04722.16587.0867.22986.08772.14804.0024.61414.19232.61443.2504.0001228.02412-.02765.04386-.061712.04386s-.045667.02632-.025788.05848c.020603.03334-.034486.06064-.12813.06351l-.16427.005.15624.04717c.08593.02594.19073.06849.23289.09454.1519.09388 1.0905.18968 1.8331.1871.79859-.0028.32879-.08734-.61404-.11053l-.78947-.01942.66015-.01868c.8553-.0242.81483-.13176-.049565-.13176-.35309 0-.63982-.02425-.63982-.05411 0-.02976.11184-.04485.24854-.03354s.66532.02584 1.1747.03228c.78512.0099.94056-.0027 1.0206-.08274.086939-.08694.07843-.08985-.10708-.03665-.11084.03179-.35959.05337-.55278.04797-.27313-.0076-.2994-.01512-.11809-.0336.12825-.01307.26841-.05301.31147-.08875.057881-.04804.089768-.04642.12228.0062.030832.04989.08633.05489.1856.01672.17906-.06885.080913-.11235-.32622-.1446-.16082-.01274-.08845-.01595.16082-.0071.24927.0088.45322-.0078.45322-.03692s-.032895-.05335-.073099-.05384c-.05287-.000649-.05077-.01504.00759-.052.05086-.03221.070985-.11721.054441-.22993-.014436-.09836-.00564-.16609.019557-.15052.038946.02407.34239-.39074.34239-.46805 0-.01459-.062617-.01517-.13915-.0013-.079449.01441-.17034-.01234-.21184-.06235-.039979-.04817-.10587-.08758-.14643-.08758-.040556 0-.089222-.05921-.10815-.13158-.018925-.07237-.038045-.14474-.042488-.16082-.00444-.01608-.061578-.10437-.12696-.1962-.10539-.14801-.14401-.16294-.34025-.13156-.16178.02587-.2468.01-.31585-.05908-.086981-.08698-.10277-.08698-.19886-2e-5-.057408.05195-.12204.09446-.14363.09446-.057091 0-.21542.17031-.44861.48255-.11257.15074-.22849.27488-.2576.27587-.029108.000995-.00529-.05082.052923-.11515.058216-.06433.082031-.11506.052923-.11274-.029108.0023-.13183.10101-.22828.2193-.096447.11829-.12934.17896-.073099.13482.060571-.04754.10226-.05498.10226-.01825 0 .0341.050809.05818.11291.0535.062099-.0047.10172-.0266.088055-.04872-.013669-.02212.016622-.05613.067314-.07558.12551-.04816.15361-.04448.11666.01531-.01759.02846.088616.02827.2423-.000468.30994-.0579.77224-.01139 1.054.10605.27216.11342.2349.14675-.051212.0458-.1327-.04682-.33665-.08207-.45322-.07834-.11657.0037-.15931.01775-.094987.03114.95537.19897 1.073.24384.99029.37768-.028854.04669-.051758.0457-.082191-.0035-.023204-.03755-.14491-.06622-.27047-.06373-.12555.0025-.37301.0084-.54992.01316-.1769.0047-.47106-.01053-.65368-.03391-.39075-.05003-.56592.02017-.84718.33952-.20241.22982-.42897.28258-.42897.0999 0-.06063.06579-.15334.1462-.20603.080409-.05269.1462-.12558.1462-.16199 0-.03651-.051393-.01968-.1146.03752-.085513.07739-.15602.09192-.27778.05727l-.16318-.04645.20003-.03358c.33721-.05662.26927-.1518-.097602-.13674-.24125.0099-.30328-.0013-.21939-.03975.078643-.03601.088375-.0549.029705-.05767-.04799-.0023.044116-.07218.20468-.15538.16056-.0832.34456-.2082.40889-.27778.064327-.06958.19591-.19194.2924-.27191.12641-.10476.11006-.07421-.058479.10931-.12866.14009-.31287.3041-.40936.36448-.09716.06079-.13568.10987-.086337.10999.1109.000292.73559-.61773.71333-.70568-.00896-.03538.063411-.1551.16082-.26605.20831-.23725.21809-.28662.059162-.2986-.070604-.0053-.15806.05423-.21789.14837-.054973.08649-.13054.17666-.16793.20037-.037387.02371-.083815.10266-.10317.17544-.042491.15974-.42813.44168-.67044.49014-.21292.04258-.67373-.18878-.62563-.31412.01803-.04699.00435-.06296-.033757-.03941-.042212.02609-.051366-.000467-.026827-.07776.024523-.07727.00669-.12908-.052214-.15169-.049204-.01888-.086409-.09437-.082678-.16774.00528-.10386.01284-.11006.034126-.02797.018225.07029.050086.08773.095555.05231.10614-.08269.32779-.12313.36296-.06623.040796.06601.3646-.22107.40973-.36326.020014-.06306.089218-.10838.1655-.10838.10142 0 .19252-.10325.40237-.45603.31602-.53126.90076-1.1229 1.1098-1.1229.11101 0 .16841.06247.28212.30702.10452.2248.20186.33834.36348.42398.19271.10211.22785.10582.27688.02924.030887-.04825.056964-.0614.057949-.02924.0009848.03216.022772.02543.048416-.01496.032156-.05065.088838.0017.18265.16858.13179.23449.13259.24405.025579.30736-.060743.03594-.16307.06534-.2274.06534-.17589 0-.19668.42084-.029645.60013.16934.18176.52446.18137.64201-.000713.046721-.07237.080412-.14818.074868-.16848-.00554-.02029.038845-.08117.098643-.13529.1025-.09276.11395-.09093.19998.03189.073772.10532.16171.13508.45903.15532.20227.01377.38182.04777.39899.07555s.3988.04698.84806.04267c.79717-.0077.81729-.0048.83553.11951.010528.07175.061595.12826.11696.12944.73981.01571 1.2601.11942 1.9984.3984.43168.1631.79231.28912.80139.28004.0091-.0091-.03848-.07555-.1057-.14771-.06722-.07215-.10444-.14897-.08272-.1707.02173-.02173.06293.0023.09156.05351.02863.05116.15824.22151.28801.37856.25067.30334.27001.34745.17748.40464-.03216.01988-.05848.01134-.05848-.01897 0-.0817-.20884-.1214-.30054-.05713-.0618.04331-.06325.06239-.0065.08543.2035.08257-.06679.16752-.71638.22514-.06433.0057-.25432.03001-.4222.05402-.26162.0374-.33057.02561-.48246-.08254-.09747-.0694-.17721-.16387-.17721-.20992 0-.04606-.01974-.0871-.04386-.0912s-.09649-.01506-.16082-.02435c-.22775-.03289-.6448-.12986-.75521-.1756-.078515-.03253-.099432-.02615-.070063.02137.027817.04501.00976.05543-.05379.03104-.076493-.02935-.080031-.04653-.017657-.08572.042902-.02695.12195-.03534.17567-.01864.1539.04784.28445.06777.69181.10559.39807.03696.38206.0064-.05848-.11177l-.26316-.07057.34183-.0032c.188-.0018.35418-.01556.36927-.03065.01509-.01509-.16504-.05506-.40031-.08882l-.42775-.06138.4386.02456c.24123.01351.57018.03605.73099.05009.22547.01969.25992.01292.15051-.02956-.07804-.0303-.1833-.0483-.23392-.04-.05062.0083-.13121-.0094-.17911-.0394-.04789-.02997-.33736-.10094-.64328-.15772-.55362-.10275-.5543-.10308-.14684-.07281.58637.04358 1.2096.18247 1.7091.38091.46704.18553.71897.17212.29934-.01594-.65953-.29556-1.1454-.46283-1.5079-.51906-.50907-.07898-1.0854-.05274-1.0854.04942 0 .04138-.036729.09793-.081621.12568-.044954.02778-.065482.0925-.045695.14407.019759.05149.010436.09362-.020718.09362s-.10739.04605-.16941.10234c-.24398.22142-.28728.23932-.50882.21034-.25278-.03307-.46093-.04016-.63572-.02167-.11725.01241-.34243-.02802-.4242-.07615-.024002-.01413-.10285-.0033-.17522.02404-.16416.06204-.18895.33745-.02924.32478.078188-.0062.098375.02978.085541.15247-.00924.08833.010404.21142.04365.27354.066363.124.021225.3154-.06222.26383-.078022-.04822-.063246.05638.020748.14687.05878.06333.058014.0702-.00391.03507-.048627-.02759-.07217-.01458-.063876.03528.00722.04343-.00767.12679-.033094.18524-.025815.05934-.020515.13198.012002.1645.079058.07906.87816.18541 1.0839.14426.10159-.02032.15196-.01085.13014.02445-.019579.03168.00543.0576.055573.0576.050144 0 .091171-.02632.091171-.05848s.06579-.05848.1462-.05848c.080409 0 .1462.02632.1462.05848s.051078.05848.11351.05848c.062429 0 .12977-.02632.14965-.05848.020555-.03326.31839-.05887.69059-.05937.65061-.000889.8519-.0443.77586-.16734-.0425-.06876.07143-.04416.29905.06458.14221.06793.3258.05004 1.2971-.12642.36573-.06644.85389-.1208 1.0848-.1208.3792 0 .56018-.0576.56018-.17828 0-.02086-.13816-.0181-.30702.0061-.62635.08991-1.1288.11749-1.038.05698.04824-.03217.16667-.06012.26316-.06211.09649-.002.34649-.0408.55556-.08623l.38012-.0826-.5845.03143c-.32148.01729-.56905.01598-.55016-.0029.05384-.05384 1.1819-.19818 1.2736-.16297.06509.02498.0592.04875-.0284.11453-.10458.07853-.10265.08197.03566.06369.13086-.01729.1481.0037.16435.19998.02051.24788.07621.27114.24501.10234.06433-.06433.11696-.08724.11696-.05093 0 .16895 1.8753-.17862 1.9967-.37009.03942-.06215.04841-.06197.04914.000983.000597.05114.0415.06415.12169.0387.10962-.03479.11909-.01757.10234.18612l-.01846.22445-.33173.05264c-.24181.03837-.33916.08105-.35914.15743-.03603.13778.0033.17004.20699.17004.09787 0 .15391-.02464.133-.05848-.02246-.03634.08832-.05848.29257-.05848.46995 0 .87891-.2093 1.2921-.66126.18207-.19917.3026-.30703.26784-.23968-.20331.39402-.83206.86304-1.2969.96744-.14551.03268-.08049.04031.22488.02638.36098-.01646.44968-.04143.55556-.1564l.12599-.13682-.13194.10956c-.07257.06026-.14666.09483-.16466.07683-.018-.018.06174-.10478.1772-.19284.11546-.08807.31872-.29467.4517-.45912s.22528-.25295.20511-.19667c-.02017.05629-.0094.10234.02391.10234.03516 0 .04403.05215.02115.12426-.02474.07796-.0099.143.03992.17454.06607.04186.0656.05043-.0028.05118-.0638.000696-.05933.02613.02.11379.09844.10878.09718.11167-.0348.07924l-.13696-.03365.14053.12543c.07729.06899.1672.12544.1998.12544.0326 0 .04399.01529.0253.03398s-.09112.0034-.16095-.03398c-.16287-.08716-.20902-.04194-.08439.08269.09719.09719.36713.11317.86179.05101.18246-.02293.20974-.04246.15366-.11003-.0375-.04518-.15706-.08215-.2657-.08215-.157 0-.19752-.02345-.19752-.11431 0-.08674.05288-.12294.2193-.15009.36716-.05991.40948-.08325.11187-.0617-.16697.01209-.26137-.001-.2304-.03198.04409-.04409 1.2074-.16255 1.639-.1669.18988-.0019.16194-.08351-.07165-.20931-.11177-.06019-.21674-.14465-.23325-.18768-.01896-.0494-.0033-.06331.04241-.03773.03984.02228.03008-.0046-.02168-.05974s-.18334-.1223-.2924-.14924c-.10906-.02694-.46144-.14028-.78308-.25187-.48305-.16759-1.0493-.28908-1.414-.30336-.03793-.0015-.08837-.0221-.11209-.04582-.02371-.02371-.11612-.04311-.20535-.04311-.08923 0-.1785-.02632-.19838-.05848-.01988-.03216-.09683-.05848-.171-.05848-.07417 0-.20291-.05353-.28607-.11894-.14321-.11265-.16291-.11406-.37224-.02659-.20229.08452-.22687.08435-.29005-.0021-.06123-.08373-.07334-.07908-.10716.04121-.06419.22824-.1641.39877-.23365.39877-.03638 0-.09885.03289-.13883.0731-.03998.0402-.19656.11886-.34795.17479l-.27526.10169.26316-.03483c.34141-.04519.65658-.2225.78654-.4425.1143-.1935.15976-.17235.25738.11976.06101.18257.05739.19451-.0505.16629-.08597-.02248-.11623-.0014-.11623.08109 0 .08792-.04226.11148-.1999.11148-.44333 0-.52496.14814-.0925.16788.16082.0073.2924-.0112.2924-.04121 0-.03.05419-.06872.12043-.08604.09749-.02549.11698-.0073.10234.09552-.01775.12466-.03323.12661-.8368.10518-.45029-.01201-.82749-.0449-.83821-.0731-.01072-.0282-.06335-.05086-.11696-.05037-.07769.000714-.08122.01119-.01737.05163.10256.06497-.28039.20014-.47382.16724-.11422-.01943-.10424-.03143.07209-.08665l.20468-.06409-.21481-.0053c-.2126-.0052-.57466-.23678-.57466-.36753 0-.03271.07469.02049.16598.11822.15876.16996.18225.17643.53974.1487.4579-.03551.52443-.07769.13735-.08707l-.28752-.007.37674-.0746c.20721-.04103.40877-.06231.44791-.04729.03914.01502.21172-.03954.38349-.12125.22418-.10664.35647-.21923.46878-.39896.20967-.33555.34583-.73735.26649-.78638-.03793-.02344-.04306-.0088-.01358.03891.03168.05127.0245.06245-.02176.03386-.03799-.02348-.06179-.0858-.05289-.13849.03455-.20469-.17756-.13546-.31068.10141-.0733.13042-.16575.23714-.20545.23714-.03969 0-.11811.01763-.17426.03918-.06961.02671-.08864.01741-.05981-.02924.02326-.03763.021-.07043-.005-.07289-.36358-.03439-.58476-.03163-.63411.0079-.03326.02664-.15826.02639-.27778-.000585-.12652-.02854-.2173-.02695-.2173.0038 0 .02905-.05143.02069-.1143-.01857-.16274-.10163-.20363-.02596-.0906.16766l.09685.16589-.1068-.14302c-.29424-.39405-.2935-.39355-.40996-.27895-.10238.10076-.10233.11081.0015.2924l.10756.18805-.14065-.13158c-.20339-.19027-.30203-.17209-.2581.04757.03278.16389.02491.17569-.0923.13848-.07047-.02237-.16241-.07495-.2043-.11684-.0419-.0419-.12865-.09283-.19279-.11318-.124-.03933-.16124-.14607-.05098-.14607.04424 0 .04097-.02972-.01003-.09118-.04162-.05015-.08279-.15798-.0915-.23962-.0087-.08164-.05917-.18013-.11215-.21887-.05298-.03874-.09086-.10854-.08417-.15512.02183-.15211-.000679-.23842-.05363-.20569-.02856.01765-.06348-.04662-.0776-.14284-.01755-.1196.0081-.20551.08117-.27162.05876-.05318.10684-.07796.10684-.05507s.05849.000655.12997-.04942c.07148-.05007.22938-.09103.35088-.09103.1215 0 .22091-.02787.22091-.06193s.02632-.04567.05848-.02579.05848-.0018.05848-.04821c0-.04639.05093-.09767.11318-.11395.08519-.02228.10491-.06373.07976-.16764-.02682-.1108-.01853-.12416.04198-.06768.0925.08633.2914-.003.2914-.1309 0-.04711.02251-.08566.05002-.08566s.07444-.08553.10429-.19006c.03798-.133.09462-.19586.18866-.20937.12841-.01845.12962-.02322.02729-.10711-.07731-.06338-.08212-.08019-.01728-.06043.07124.02171.08634-.01661.07298-.18528-.01335-.1686-.0055-.18843.03765-.0957.02997.06433.05634.08406.0586.04386.0023-.0402.07055-.0731.15176-.0731.10209 0 .16413-.04336.20107-.14052.02938-.07728.08264-.15858.11835-.18064.04716-.02915.04618-.06271-.0036-.12264-.05416-.06526-.04864-.08251.0264-.08251.05218 0 .09488-.03947.09488-.08772s.0282-.08772.06266-.08772.10213-.03947.15038-.08772c.10747-.10747.10871-.10746-.24628-.0022-.37326.11065-.73834.15563-.69508.08563.05082-.08222.0051-.06777-.3213.10157-.27314.14171-.64628.45684-.64628.5458 0 .01984-.11841.16322-.26314.31863-.14472.15541-.33551.43549-.42398.62241-.15324.32379-.1712.33998-.38014.34278-.12061.0016-.2193-.01808-.2193-.04377s-.09868-.04768-.2193-.04886c-.12061-.0012-.28509-.02178-.3655-.04577-.08041-.02399-.22551-.05075-.32245-.05946-.09694-.0087-.25822-.05822-.3584-.11003-.16998-.0879-.18848-.08719-.27697.01058-.05215.05762-.09482.1356-.09482.17327 0 .03767-.02193.06849-.04873.06849s-.04873.03586-.04873.0797c0 .04932.04207.06869.11037.05083.06485-.01696.21157.04218.35575.14339.23692.16631.74262.33618 1.1963.40184.30631.04433.37782.07472.3358.1427-.02225.036-.07505.03903-.13528.0077-.05434-.02822-.25668-.06803-.44967-.08846-.19298-.02044-.58061-.08128-.8614-.13521-.517-.0993-.61127-.08915-.55417.05967.02342.06104.21124.09321.7236.12395.43194.02591.7469.07362.83816.12696l.1462.08545-.17544-.02891c-.09649-.0159-.38596-.04525-.64328-.06522s-.57962-.04559-.71625-.05693c-.23425-.01944-.24478-.01383-.18464.09853.10166.18995-.0073.23894-.43069.1936l-.37939-.04063-.056237-.3492c-.054477-.33827-.052411-.34815.066008-.31555.067234.01851.21738.04959.33366.06907.19552.03276.21604.02214.273-.14126.033876-.09717.046197-.19208.02738-.21089-.018816-.01882-.00351-.03421.034015-.03421.037524 0 .068226-.02632.068226-.05848s-.042696-.05848-.09488-.05848c-.076439 0-.081143-.01655-.024205-.08516.038871-.04684.053698-.11263.032949-.1462-.020749-.03357-.00986-.06104.024205-.06104.034062 0 .062334-.04605.062826-.10234.0006842-.07841.012461-.0841.050366-.0243.03762.05934.05711.04884.08133-.0438.01752-.06701.0078-.13671-.02158-.15487-.02939-.01816-.01526-.0712.03139-.11786.10002-.10002.03116-.36466-.13369-.51385-.11616-.10512-.3596-.06626-.3596.05741 0 .09846-.065254.10195-.25867.01382-.10857-.04947-.16788-.04993-.22593-.0017-.096756.0803-.41272.0024-.81398-.20063-.39447-.19962-.64753-.49078-.42655-.49078.048246 0 .087719-.03947.087719-.08772 0-.04824.027869-.08772.061931-.08772s.043154.03038.020204.06752c-.026664.04314-.01595.05158.029679.02338.039273-.02427.05644-.0591.038148-.07739s.012852-.08757.069209-.15396c.09856-.11609.098339-.11749-.00577-.03655-.1445.11234-.25359.1233-.32852.033-.044464-.05358-.037652-.09441.024329-.14586.071595-.05942.082235-.05145.063208.04735-.015832.08221.00188.10929.057496.08795.059284-.02275.066284-.0679.026679-.17206-.056809-.14942-.00729-.18549.1031-.0751.049177.04918.061712.03794.048913-.04386-.011078-.07079-.055399-.10292-.12438-.09016-.091767.01697-.096087.0065-.030057-.0731.089399-.10772.0034-.12709-.10095-.02274-.053699.0537-.070175.05388-.070175.000784 0-.03816.085526-.10514.19006-.14884.10453-.043691.22755-.12465.27337-.1799.076335-.09204.068989-.09709-.087719-.06024-.094067.02212-.30994.18013-.47971.35114-.16977.17101-.36714.32917-.4386.35146-.071456.0223-.14308.06029-.15916.08444-.043124.06475-.65687.41899-.61857.35702.01794-.02903-.23028-.08628-.5516-.12723s-.58422-.09973-.58422-.13064c0-.0309-.044525-.02007-.098945.02408-.067232.05454-.084869.05683-.055028.0072.031312-.05212-.00743-.0731-.13497-.0731-.098389 0-.17889-.0282-.17889-.06267 0-.03446-.05921-.05787-.13158-.05201-.28821.02335-.34486.00086-.3257-.12929.010278-.06985.055245-.13905.099927-.15378.044682-.01473.065808-.0018.046948.0287-.019854.03212.038271.04483.13806.03019.094793-.01391.17275-.0552.17325-.09176.0004912-.03655.026405-.02699.057584.02126.037792.05848.056987.06335.057584.01462.0004912-.0402.028365-.0731.061939-.0731s.056771.03289.051551.0731c-.018806.14482.00538.22557.05785.19315.029417-.01818.06889 3e-6.087719.04041.027478.05897.040991.05897.068469 0 .018829-.04041.061245-.05677.094258-.03637s.079916.0049.10423-.03443c.029023-.04696.057908-.01694.084097.08741.035821.14272.059983.15567.23689.12696.11312-.01836.26949-.10782.36725-.21012.13419-.14042.18547-.16304.24214-.10679.056726.0563.063676.04976.032937-.03098-.023855-.06266-.011436-.10234.032032-.10234.039046 0 .056169-.03863.03805-.08585-.018118-.04722-.00708-.10183.024534-.12137.031612-.01954.0502-.07959.041306-.13345-.011085-.06713.023351-.09667.1095-.09392.080963.0026.11515-.02342.096083-.0731-.019829-.05167.020701-.07711.12287-.07711.097918 0 .15246-.03204.15246-.08956 0-.04926.046053-.10673.10234-.12773.056287-.021.13703-.0864.17944-.14534.042405-.05894.099998-.09302.12798-.07572.027986.0173.072238-.0047.098338-.04896.0261-.04423.10666-.1115.17903-.14949.072369-.03799.13158-.12128.13158-.18509 0-.09676-.026685-.10972-.16082-.07811-.13223.03117-.14783.02409-.087719-.03982.087626-.09317.096318-.22977.01462-.22977-.032164 0-.05848.03947-.05848.08772s-.026316.08772-.05848.08772-.058479-.02954-.058479-.06564c0-.04737-.022828-.04669-.082032.0024-.065976.05476-.093688.03613-.14158-.09518-.051902-.14229-.060142-.1468-.064166-.03513-.00254.07047-.034999.1469-.072132.16985-.037133.02295-.052028.01667-.033098-.01396.018929-.03063.01024-.0939-.019309-.14061-.029549-.04671-.054128-.0551-.054621-.01865-.0004912.03645-.055949.08068-.12324.09827-.11518.03012-.11667.02572-.02543-.07509.071908-.07946.078854-.11825.026922-.15034-.040068-.02476-.09294-.0022-.12367.05267-.062981.11254-.22291.12883-.22421.02283-.0005555-.04527-.017252-.05084-.04386-.01462-.05465.07438-.20919.10895-.16461.03682.018288-.02959-.00822-.06972-.058916-.08917-.16103-.06179-.2182-.04057-.14108.05235.062738.07559.039.08772-.17173.08772-.13449 0-.22978-.02386-.21176-.05303.018024-.02916-.022121-.03867-.089212-.02113-.095037.02485-.10474.04407-.04394.08699.051987.0367.01947.04223-.097396.01657-.096436-.021113-.21486-.071871-.2631-.11272-.048246-.04085-.12719-.09648-.17544-.12363-.075608-.04255-.076638-.0357-.00746.04958.047509.05857.054883.09895.018071.09895-.10084 0-.14282-.11584-.072633-.20041.049368-.05949.041531-.08734-.032575-.11577-.16996-.06522-.046344-.09923.13035-.03586l.16893.06059-.16285-.14561-.16285-.14562.19209.03238c.17338.02923.18212.02422.089754-.05136-.13717-.11225-.13028-.17763.010775-.10214.18175.09727.22376.07202.20128-.12099-.016522-.1419-.00208-.17422.06615-.14803.048007.01842.087286.0121.087286-.01405s.063583-.12154.1413-.21199l.1413-.16444.54584.042245c.30021.023235.63794.05485.75052.070256s.50731.033405.87719.039997c.36988.00659.70295.031759.74016.055926.04651.030211.05754.0053.035303-.079736-.029317-.11211-.020137-.11714.098182-.053822.16274.087096.22214.037365.11422-.095633-.053883-.066405-.056702-.0855-.00833-.056441.12272.073729.081626-.060838-.075668-.24777-.081822-.09724-.20063-.19326-.26401-.21338-.063382-.020116-.10113-.059404-.083887-.087306.017244-.027901-.015269-.05056-.07225-.050354-.22388.0008129-.60068-.084225-.60068-.13556 0-.029827-.024498-.039091-.054439-.020586s-.070968.0069-.091171-.025788c-.021712-.035132.033857-.059433.1359-.059433.10619 0 .18683-.036984.20951-.096089.02028-.052849.052748-.080215.07215-.060812.019403.019402.10755-.0021.19589-.047777.088336-.04568.17053-.073139.18264-.06102.019547.019547.019614-.2215.000117-.37758-.00402-.032164-.046784-.05848-.095029-.05848-.048246 0-.087719-.026316-.087719-.058479 0-.10391.19323-.062129.33806.073099l.14092.13158-.020192-.14091c-.01204-.084013-.064599-.14731-.13017-.15677-.06049-.00872-.13944-.047222-.17544-.085551-.050592-.053865-.035577-.054318.066123-.002.072368.037232.13158.044678.13158.016545-1.28e-5-.086419-.28544-.18688-.53096-.18688-.30582 0-.58849.12247-.7466.32348-.17541.22301-.21582.15037-.052782-.094871.1789-.26909.57833-.45602.93965-.43975.15845.00714.3028.046611.32972.090173.026337.042615.078056.058837.11493.036049.087705-.054205.54036.43925.74144.80828.13474.24727.15112.33195.12446.64327-.032043.37415-.22397.88685-.30378.81148-.025391-.02398-.00693.035347.041029.13184.16126.32446.34829.9682.31017 1.0675-.020784.05416-.019684.08037.00244.05824.022129-.02213.14659.09051.27659.25032.13.1598.25614.29056.28033.29056.02419 0 .14164.09211.261.20468.1914.18051.20225.20468.09188.20468-.14828 0-.16432.08922-.02959.16462.07606.04257.08765.10612.05683.31164-.0306.20408-.10576.33078-.3587.60475-.35324.38259-.41685.53957-.17379.42882.08041-.03664.1462-.08683.1462-.11153 0-.06136.17184-.22871.23484-.22871.02808 0 .03449.11184.01426.24854-.02024.1367-.03851.33183-.04061.43362-.0025.12072-.02488.1676-.06438.13482-.0381-.03162-.06057-.0097-.06057.05916 0 .06018.01797.09832.03994.08474s.12159-.0084.22139.0116c.12552.0251.18144.07008.18144.14594 0 .06031-.03865.10965-.08588.10965-.05625 0-.07371-.03532-.05061-.10234.02933-.08511.02033-.08314-.05343.01165-.10734.13794-.09457.28903.02642.31269.05285.01033.11869-.05531.16316-.16269.04101-.09901.0884-.16618.10531-.14928.01691.01691.06672-.02062.11069-.0834.04969-.07094.11617-.10024.17566-.07741.05672.02176.08094.01282.05945-.02194-.01994-.03227 9e-4-.05867.04631-.05867.04542 0 .06897.02201.05235.04891-.05419.08768.20256.01567.31862-.08936.06216-.05626.17076-.10663.24132-.11195.07056-.0053.15286-.05555.18288-.11164.03002-.05609.08943-.0886.13203-.07225.0426.01635.11121-.01095.15247-.06066.04125-.04971.10277-.09038.13669-.09038.03392 0 .13777-.08553.23076-.19006.093-.10453.1496-.15058.12578-.10234-.02903.05883-.0015.05102.08371-.02368.06986-.06127.12701-.0892.12701-.06207s.05263-.0072.11696-.07621c.06433-.06905.11696-.15618.11696-.19363 0-.05053.02201-.04982.08536.0028.07037.0584.08156.05107.06369-.04168-.0303-.15731.04684-.25968.1623-.21537.05353.02054.07927.06748.0572.10432-.02207.03683.0044.03085.05882-.01329s.09894-.05426.09894-.02247c0 .03732.08804.039.24854.0048.1367-.02917.28028-.05634.31906-.06037.03879-.004.05671-.029701.03982-.05703-.01689-.02733-.06178-.03188-.09977-.01012-.03972.02276-.04836.01696-.02033-.01367.0268-.02928.07944-.05387.11696-.05465.03752-.000778.06462-.04655.06021-.10171-.0044-.05517.01-.08916.03203-.07555s.07738.0017.12302-.02652c.05116-.03162.11605-.02453.16925.01848.06764.05468.0768.05396.04237-.0033-.0573-.09538-.0098-.09226.19311.01266.21957.11354.58259.53602.76316.88814.14676.28619.25418.42961.32177.42961.02028 0 .02025-.03289-5.3e-5-.0731-.02031-.0402.03133.0058.11476.10234.23522.27207.24142.3946.03794.75024-.20233.35363-.2221.44859-.09343.44859.04825 0 .08772-.0307.08772-.06823 0-.03752.01665-.05157.037-.03122s.08612-.02544.14615-.10175c.07327-.09315.1479-.12862.22707-.10792.13068.03417.22892.14605.10583.12051-.04694-.0097-.07565.03547-.07288.11476.0028.08068-.03888.14462-.10878.1668-.13498.04284-.39286.25844-.39286.32845 0 .02719.07764.0093.17254-.03979.19126-.09891.504-.11887.55554-.03546.01828.02957-.0052.09223-.05224.13924-.04701.04701-.06699.10598-.0444.13105.02259.02507.01065.02817-.02653.0069-.03719-.02127-.05385-.09128-.03704-.15558.04012-.1534-.05511-.14594-.42167.03306-.21238.10371-.24919.13711-.13451.12204.22552-.02963.25756.11567.0353.16012-.15052.0301-.16696.04934-.10549.12341.10732.12932-.0128.12022-.80897-.06127-.07899-.01801-.12194-.0076-.10198.02472.01898.0307.0014.07135-.03896.09033-.0404.01898.0055.02296.10198.0089.18913-.02764 1.4515.23806 1.478.31109.0088.02432.09435.03272.19006.01868.10414-.01528.17401.000608.17401.03958 0 .03581.03728.06512.08285.06512.04556 0 .09317.03098.10579.06883.01483.04449.05275.05024.10721.01627.12611-.07867.22849-.08271.21403-.0084-.007.03618.0793.0829.19187.10382.11257.02092.17023.0415.12813.04573-.0421.0042-.06002.03444-.03982.06713s.06537.04173.10038.0201c.0414-.02559.05232.004.03124.08461-.04422.1691.06055.23971.38363.25854.15018.0088.27319.03236.27334.05246.000176.0201.08098.05269.1796.07241.09964.01993.16307.06215.14275.09503-.02011.03254-.0087.05917.02536.05917s.06193-.02665.06193-.05921c0-.03257.10434.0067.23187.08716.15708.09916.22108.11826.19842.05921-.02275-.05928.0039-.08716.08327-.08716.0642 0 .11306.03289.1086.0731-.0045.04021.01819.07968.05036.08772.03216.008.05967-.01827.06114-.05848.0015-.04021.03436-.06652.0731-.05848.03874.008.07044-.0117.07044-.04386s.05419-.05848.12041-.05848c.06623 0 .10415-.02632.08427-.05848-.01988-.03216.01649-.05848.08082-.05848s.13304-.02602.15269-.05781c.02056-.03326-.009-.04527-.06965-.02828-.05796.01624-.000116-.02285.12854-.08688.12866-.06403.31286-.13225.40936-.15162.09649-.01936.24518-.09241.33043-.16233.14178-.11629.15136-.15039.11234-.40011-.05555-.35557.01986-.48167.30285-.50644l.2193-.019368v1.4394c0 1.4223-.0014 1.4386-.11721 1.3766-.09855-.05274-.12744-.04028-.18146.07826-.04707.1033-.04645.17424.0023.26535.08088.15113.15287.15782.23693.02202.07202-.11636.05193 1.6403-.02061 1.8019-.03142.06997-.09765.08367-.28275.05848-.2667-.0363-.35567-.1458-.16004-.19696.06888-.01801.11171-.05463.09519-.08137-.04204-.06803-.56651-.01906-.56651.05289 0 .03237.03909.04385.08686.02552.07266-.02788.07514-.01456.01517.08146-.03943.06314-.11141.1152-.15996.11569-.07834.000795-.0784.0074-.000526.05848.07797.05119.07797.06398 0 .11517-.06706.04402-.04297.05779.10234.05848.13035.000614.19006-.02666.19006-.08682 0-.0648.06784-.08772.25971-.08772.28059 0 .41761.10371.20907.15825-.07806.02041-.10234.04915-.06238.07384.10552.06522.0019.24912-.12206.2167-.05989-.01566-.10889-.0031-.10889.02784 0 .03098-.05433.01826-.12074-.02825-.06641-.04651-.17159-.07127-.23374-.05502-.0887.0232-.13769-.02536-.22779-.22576l-.11481-.25531.15434-.02924c.14701-.02785.14948-.0341.05195-.13158-.1245-.12444-.1862-.12653-.49707-.01685-.13327.04702-.28588.06877-.33914.04833-.06745-.02588-.05718.0025.03387.09355.0753.0753.12299.18496.11249.25869-.0152.10676-.05618.12798-.24718.12798-.14061 0-.23919-.03058-.25546-.07924-.01957-.05854.0082-.06823.10623-.03711.10908.03462.12594.02445.09464-.05713-.02095-.05459-.03809-.12623-.03809-.1592 0-.03437-.04367-.04174-.10234-.01727-.05629.02348-.21656.03811-.35616.03253-.16464-.0066-.24048.01143-.21585.05129.02089.0338.07745.06145.1257.06145.04824 0 .07284.02407.05466.05349s3e-6.06681.04041.0831c.04364.01759.03117.03149-.03071.03423-.0573.0025-.11932-.03486-.13784-.0831-.02465-.06424-.1259-.08772-.37828-.08772-.30297 0-.43383.05732-.30076.13174.05331.02982-.0724-.0026-.17977-.04633-.04259-.01735-.14552.03654-.22874.11976-.09275.09275-.16606.12743-.18943.08962-.02097-.03393.003-.07747.0533-.09677.16104-.0618.09795-.13953-.11325-.13953-.11257 0-.20468-.02682-.20468-.05959 0-.03526.06326-.04372.15492-.02071.10903.02736.14265.01903.11351-.02813-.02278-.03685-.11662-.06701-.20853-.06701-.09191 0-.17706-.02984-.18922-.06631-.01449-.04346-.05503-.03339-.11766.02924-.05255.05255-.1369.09555-.18745.09555-.12534 0-.11537.05364.03403.18322l.12593.10922-.19903-.02272c-.10946-.0125-.22379-.02566-.25406-.02926s-.01369-.03943.03684-.07964.1087-.14547.12925-.23392l.03737-.16082-.39585.0041c-.21772.0023-.4479.02444-.51151.0493-.11402.04455-.11394.0461.0057.11011.07053.03775.14343.04325.17413.01315.08154-.07993.38859-.097.41465-.02306.03138.08902-.15503.15487-.23963.08466-.04187-.03475-.10033-.0355-.15341-.002-.04717.02979-.17509.0378-.28427.0178-.14081-.0258-.18655-.01702-.15737.03021.02296.03716.0064.06657-.03742.06657-.04321 0-.1252.07895-.1822.17544-.057.09649-.12188.17758-.14419.18019-.41012.04805-.55813-.000233-.49611-.16185.02916-.07599-.0037-.08361-.21018-.04872-.26747.04519-.4965-.05714-.3458-.15451.06074-.03925.05838-.0605-.01185-.10661-.05166-.03392-.05939-.05795-.0188-.05848.03791-.000468.10966.03984.15944.08962.07511.07511.11315.07807.22348.01743.1247-.06854.11298-.07724-.18868-.13998-.2874-.05978-.30296-.07016-.1462-.09761.11013-.01928.08836-.02372-.05848-.01194-.12866.01032-.28655.03123-.35088.04646-.06433.01523-.17836.02971-.25341.03217-.25839.0085-.09724.15067.17075.15067.14183 0 .25833.02632.25888.05848.000526.03216.02297.09313.04982.13547.03139.04951.0102.10625-.05937.15896-.10408.07885-.10364.08204.01169.08383.06594.001.15102-.02928.18908-.06734.03806-.03806.08746-.05095.10977-.02864.06011.06012-.1627.20945-.33101.22184-.25984.01914-.2754.02303-.35757.08944-.04936.03989-.1301.04686-.20662.01784-.21377-.0811-.20465-.15818.02377-.20079.12033-.02245.26339-.08846.3179-.14671.09426-.10071.08916-.10777-.10396-.144-.11169-.02096-.18798-.06254-.16952-.0924.01975-.03195-.11593-.04623-.32959-.03468-.2741.01481-.34288.0037-.28048-.04529.18816-.14772.1004-.27123-.11197-.15758-.05458.02921-.22682.06714-.38276.08429-.2558.02813-.27288.02289-.17469-.05361.10206-.07952.09897-.08368-.04978-.06701-.16762.01879-.29781.10018-.16024.10018.06077 0 .05567.02508-.02059.10135-.07756.07756-.12468.08663-.20076.03864-.06887-.04344-.15881-.04448-.29274-.0034-.1965.06031-.38704-.02179-.28088-.12102.02638-.02466.05879-.01471.07203.02212.01791.04985.06828.05026.1972.0016.17488-.06601.20058-.15652.05795-.20406-.04625-.01542-.06109.000818-.03675.0402.04206.06805-.05391.08883-.3107.06726-.12674-.01065-.13654.0053-.1038.16897.03261.16303.02198.18072-.10859.18072-.0796 0-.14474-.02724-.14474-.06054 0-.0388-.04724-.03525-.13158.0099-.07237.03873-.13816.06597-.1462.06054-.05692-.03848-.18981.0017-.16082.0486.01988.03216-.0077.05848-.06128.05848-.06481 0-.08554-.03096-.06193-.0925.01952-.05088.0355-.10351.0355-.11696 0-.01345.05921-.02486.13158-.02535.11274-.000766.36052-.10649.27778-.11852-.38833-.05648-.52632-.04813-.52632.03181 0 .05388-.05066.085-.13158.08082-.10411-.0054-.10952-.0125-.0259-.03417.05984-.01551.0976-.06934.08705-.12412-.02104-.10923-.21805-.16862-.27344-.08242-.04429.06892-.71554.13033-.67304.06158.029004-.04693-.11026-.22343-.17629-.22343-.017583 0-.00696.06579.023615.1462.043722.115.037173.1462-.030687.1462-.12966 0-.10372.14959.042822.24689l.12909.08572-.15833.03027c-.13597.02599-.15833.01076-.15833-.10782 0-.07595-.02549-.13809-.056645-.13809-.031154 0-.041496-.03947-.022983-.08772.03968-.1034-.00268-.11038-.15977-.02631-.063114.03378-.10082.08395-.083794.11151.017027.02755-.022119.03621-.086992.01925s-.13225-.05398-.14973-.08226c-.045185-.07311-.49271-.06402-.49271.01001 0 .03707-.11593.05446-.29239.04386-.20029-.01204-.29239-.04285-.2924-.09783-9e-6-.06353-.017708-.06557-.084924-.0098-.046702.03876-.13881.05337-.20468.03246-.14442-.04584-.16084.06865-.033906.23647.11686.1545.1105.20124-.02738.20124-.064328 0-.11696.02787-.11696.06193s.032895.04413.073099.02237c.040205-.02176-.00585.02849-.10234.11166-.38475.33165-.38974.33932-.27662.42523.091506.06949.085977.07702-.057798.0787-.11005.0013-.14964-.02249-.12863-.07723.024474-.06378-.069095-.07474-.48326-.05659-.28249.01238-.53908.04797-.5702.07909-.077736.07774-.21192.07137-.19401-.0092.00804-.03618-.018275-.07785-.058479-.09259-.040205-.01474-.073099.01642-.073099.06924s-.025167.08049-.055925.06148c-.030759-.01901-.041187-.07297-.023172-.11992.076795-.20012-.35861-.10845-.51258.10792-.019869.02792-.053265-.01752-.074213-.10099zm1.9412-.21848c.31504-.07659.48527-.20006.43967-.31889-.018467-.04813.00483-.08223.056167-.08223.13913 0 .16652-.15975.033367-.19458-.11621-.03039-.11615-.03176.00618-.15409.13048-.13048.10734-.26654-.035985-.21154-.047378.01818-.069065.007-.049113-.02525.056774-.09186-.070423-.06753-.30544.05843-.14279.07653-.23661.09651-.27464.05848-.031769-.03177-.098551-.05736-.1484-.05687-.079902.000789-.080248.0077-.00292.05848.077973.05119.077973.06415 0 .11665-.048246.03248-.14693.04514-.2193.02812-.13506-.03175-.1624.008-.086824.12623.041425.06481.37544.05685.48616-.01158.029632-.01831.053876-.0097.053876.01925 0 .13716-.53906.25111-.61404.1298-.019878-.03216-.10038-.05848-.17889-.05848-.078511 0-.14275-.01552-.14275-.03449 0-.07267.26857-.25415.38012-.25686.097406-.0024.10229-.01247.02924-.06043-.07228-.04745-.061988-.06491.058479-.0992l.1462-.04161-.17544-.03918c-.3216-.07183-.4541-.06082-.41745.0347.025339.06603-.00998.08772-.14285.08772-.19612 0-.52158.1469-.52158.23542 0 .03134.037594.05698.083542.05698.097188 0 .26734.15587.26734.24491 0 .04031-.12739.04747-.37418.02104-.24426-.02616-.38759-.01837-.41281.02243-.021244.03438-.10286.0625-.18137.0625-.078511 0-.14275.02581-.14275.05737 0 .09828.29521.13713.56787.07474.20603-.04715.29768-.0413.43622.02781.12903.06437.19264.07025.24062.02227.10079-.10079.33424-.08066.33424.02883 0 .06745.03722.08557.13158.06404.072368-.01651.18421-.0081.24854.01879.064328.02685.12504.05066.13492.05292.00988.0023.14146-.02591.2924-.06261zm.18671-.28416c0-.03216.026316-.05848.05848-.05848s.05848.02632.05848.05848-.026316.05848-.05848.05848-.05848-.02632-.05848-.05848zm8.8889-.23392.1462-.04682-.14675-.0058c-.1727-.0069-.34535-.22902-.23228-.2989.03869-.02391.12006-.03047.18083-.01458.06077.01589.11049.0025.11049-.02977 0-.06531-.26284-.11609-.429-.08288-.08446.01688-.09913.05464-.06878.17702.02122.08556.06296.16434.09274.17506.02979.01072.05415.05677.05415.10234 0 .09042.06836.09612.2924.02437zm4.5614-.17544c0-.03216-.04103-.05848-.09117-.05848s-.07491.02632-.05503.05848.06091.05848.09117.05848c.03027 0 .05503-.02632.05503-.05848zm-12.104-.17319c-.074507-.04712-.073351-.05932.0086-.09077.052074-.01998.13028-.03144.1738-.02546.16157.02221.2838-.0047.2838-.06258 0-.03436-.061892-.04406-.1462-.0229-.091424.02295-.1462.0119-.1462-.02947 0-.04139-.054575-.03041-.14575.02933-.080161.05252-.18123.08188-.2246.06524-.04337-.01664-.11594-.0068-.16127.02191-.062548.0396-.050696.05239.049163.05307.072368.000468.13158.02721.13158.05938 0 .03216.059211.05808.13158.05758.104-.000708.11353-.01231.045499-.05533zm5.7147-.15333c-.05573-.05573-.16746.03454-.12592.10174.02469.03994.0574.03893.09939-.0031.03443-.03443.04637-.07883.02653-.09867zm-4.9415.05387c-.040205-.01622-.10599-.01622-.1462 0-.040205.01622-.00731.0295.073099.0295s.1133-.01327.0731-.0295zm1.3616-.18352c-.01436-.01436-.0733-.0055-.13097.01964-.05767.02516-.1246.04157-.14872.03646-.094926-.02009-.037439.10058.05848.12276.096887.0224.27692-.12316.22122-.17886zm.49516.16378c0-.03216-.02476-.05848-.05503-.05848-.03026 0-.07129.02632-.09117.05848s.0049.05848.05503.05848c.05014 0 .09117-.02632.09117-.05848zm7.8789.02315c-.01943-.01943-.06987-.02151-.11209-.0046-.04665.01867-.03279.03252.03533.03533.06165.0025.09619-.01128.07675-.03072zm-8.7934-.11087c.024319-.06337-.00641-.08772-.1107-.08772-.14037 0-.18458.05725-.10538.13645.067827.06783.18116.04227.21608-.04873zm-6.4912-.05848c-.023357-.06087.00406-.08772.089555-.08772.067769 0 .12322.02787.12322.06193s.027594.04488.061319.02403c.089097-.05507-.048823-.20292-.18928-.20292-.062504 0-.16592-.02798-.22982-.06218-.063899-.0342-.16085-.05015-.21545-.03544-.080293.02163-.073258.03504.036791.07017.074836.02389.15971.10562.18861.18164.0289.07601.078687.1382.11064.1382s.042944-.03947.02443-.08772zm1.0156.05239c-.019432-.01943-.069871-.02151-.11209-.0046-.046651.01867-.032794.03252.035331.03533.061647.0025.096187-.01128.076754-.03072zm-.3858-.2046c.060361-.03824.050754-.0509-.039132-.05158-.081735-.000614-.12223.04018-.12899.12995-.00695.09225.00459.10746.039132.05158.026944-.0436.084989-.10207.12899-.12995zm.15188.14611c-.019432-.01943-.069871-.02151-.11209-.0046-.046651.01867-.032794.03252.035331.03533.061647.0025.096187-.01128.076754-.03072zm8.3918-.49296c.26602-.03059.62182-.05581.79068-.05606.16886-.000234.30702-.02676.30702-.05892 0-.07408-.25759-.06968-1.1537.0197-.43854.04374-.74387.1017-.78947.14987-.06181.06527-.03754.07199.14372.03978.11995-.02132.43574-.06378.70176-.09437zm7.1637-.09183c-.01943-.01943-.06987-.02151-.11209-.0046-.04665.01867-.03279.03252.03533.03533.06165.0025.09619-.01128.07676-.03072zm-14.094-.12431c-.12133-.01266-.30554-.01245-.40936.000468-.10381.01292-.00454.02328.2206.02302.22515-.000234.31009-.01083.18875-.02349zm14.183-.05707c-.07237-.01394-.19079-.01394-.26316 0-.07237.01394-.01316.02534.13158.02534.14474 0 .20395-.0114.13158-.02534zm.89106-.19143c.03273-.05296-1.2481-.01761-1.3102.03616-.0134.01161.26794.0211.6252.0211.36078 0 .6653-.02546.68496-.05727zm-17.221-.41057c.034427-.06433.046781-.11696.027453-.11696-.077791 0-.26137.12467-.26137.1775 0 .1026.17018.05856.23392-.06054zm18.187.02538c0-.04233-.03038-.09574-.06752-.11868-.04492-.02776-.0515-.01581-.01965.03573.03525.05704.02083.06708-.05472.03808-.11458-.04397-.22665.0021-.18178.0747.04855.07855.32366.05319.32366-.02983zm.06833-.15588c-.0434-.0434-.05101-.02056-.02557.07671.02068.07908.04719.10558.06179.06179.01406-.04219-.0022-.10451-.03622-.1385zm-10.053-.20026c-.03959-.01602-.11854-.01699-.17544-.0022-.0569.01483-.0245.02793.07199.02912.09649.0012.14304-.01094.10345-.02696zm-8.0551-.12578c-.018005-.018-.065193-3.8e-5-.10486.03993-.057325.05776-.050608.06447.032737.03274.057674-.02196.09013-.05466.072124-.07267zm7.8025-.0087.13185-.11435-.16676-.03537c-.09172-.01945-.21432-.04487-.27244-.05648-.14405-.02878-.09376.09916.07167.18236.09259.04657.10873.07584.05386.09772-.04308.01718-.04946.03332-.01418.03586.03528.0025.12348-.04684.196-.10974zm.55856.05587c-.01988-.03216-.0938-.05808-.16427-.05758-.10417.000731-.11172.0115-.04041.05758.11521.07446.25069.07446.20468 0zm-7.1796-.21077c-.019432-.01943-.069871-.02151-.11209-.0046-.046651.01867-.032794.03253.035331.03533.061647.0025.096187-.01128.076754-.03072zm16.741-.02315c0-.03216-.0116-.05848-.02579-.05848-.01418 0-.04205.02632-.06193.05848s-.0083.05848.02579.05848c.03406 0 .06193-.02632.06193-.05848zm-10.617-.05434c-.03056-.02989-.1345-.07139-.23099-.09223l-.17544-.03789.1462.0865c.16628.09838.34722.12872.26023.04363zm11.019-.03812c.01201-.0107.0071-.05779-.01085-.10466-.04414-.11504-.6647-.25444-.75054-.1686-.09481.09481-.01146.18122.21593.22388.1118.02097.21836.06254.23679.09236.02863.04632.2417.01665.30868-.04299zm-17.887-.5508c.034427-.06433.049437-.11696.033355-.11696s-.057407.05263-.091834.11696c-.034427.06433-.049437.11696-.033355.11696s.057407-.05263.091834-.11696zm-1.4035-.19779c0-.03216-.038637-.0074-.085859.05504-.047223.06243-.08586.13983-.08586.172 0 .03216.038637.0074.08586-.05504.047223-.06243.085859-.13983.085859-.172zm4.4166-.01385c-.052075-.05207-.10922-.08014-.12699-.06237-.052059.05206.037008.15705.13323.15705.076373 0 .075522-.01292-.00624-.09468zm1.2088.02884c-.022357-.02013-.20992-.05096-.41681-.06852-.21646-.01837-.34202-.01082-.29575.01778.054538.03371.00622.05639-.15016.07048-.12681.01143.024564.0199.33639.01882.31183-.0011.54867-.01843.52632-.03856zm-3.8126-.09985c0-.0268-.038316-.04873-.085147-.04873s-.071594.02193-.055028.04873c.016565.0268.054881.04873.085147.04873.030265 0 .055028-.02193.055028-.04873zm4.1813-.12948c-.56395-.06349-1.8456-.09429-1.7945-.04312.038231.03822.75288.07179 1.7945.0843l.40936.0049-.40936-.04609zm-4.4766-.72474c.038454-.04633.10747-.06983.15336-.05222s.083444.0029.083444-.03272c0-.03561-.039474-.06474-.087719-.06474-.048246 0-.087719-.0283-.087719-.0629 0-.03646.10448-.05902.24854-.05368.1367.0051.30999-.0098.3851-.03295.12091-.03734.13204-.06637.097106-.25334-.10442-.55886-.40469-.44489-.79174.30052-.16215.31228-.16235.44719-.0003684.25201zm5.872-.12044c-.018514-.04825-.044003-.08772-.056644-.08772-.01264 0-.022983.03947-.022983.08772s.02549.08772.056644.08772.041497-.03947.022983-.08772zm5.2273-.73099c.01938-.07212.01355-.07339-.03282-.0071-.06546.09354-.208.03085-.14855-.06533.0251-.04062.006-.05141-.05181-.02923-.05038.01933-.10809.01866-.12824-.0015-.05995-.05995-.21212-.0666-.1757-.0077.01846.02987.05806.03916.088.02065.02994-.0185.05444.02221.05444.09047 0 .10427.02966.12119.18556.10579.10351-.01022.19598-.05711.20913-.10604zm-1.5053-.26251c-.03975-.04789-.09603-.07239-.12507-.05444-.07465.04614-.0033.14152.10591.14152.07434 0 .07792-.01628.01916-.08708zm-3.1194-1.1118c0-.08181-.1483-.17333-.19889-.12274-.01442.01442-.0093.07948.01136.14459.04094.129.18753.11193.18753-.02185zm5.7505-.03614c0-.03216-.02632-.04222-.05848-.02234s-.05848.06246-.05848.09462.02632.04222.05848.02234.05848-.06246.05848-.09462zm-7.3392-.16854c-.058216-.06433-.14782-.11518-.19912-.113-.06467.0027-.052923.02342.038303.06742.072368.0349.13158.08575.13158.113 0 .02725.030394.04954.067543.04954.038303 0 .021722-.05063-.038303-.11696zm6.8713-.09117c0-.05014.02331-.07677.05179-.05916.02849.01761.06547-.03955.08219-.12702.02903-.15188.02652-.15382-.05608-.04318-.15432.20674-.20347.32052-.13844.32052.0333 0 .06054-.04103.06054-.09117zm.46784-.22702c0-.01418-.02632-.04205-.05848-.06193s-.05848-.0083-.05848.02579c0 .03406.02632.06193.05848.06193s.05848-.0116.05848-.02579zm-1.904-.41467c.1093-.08267.10794-.08586-.0367-.08586-.08262 0-.18298.03947-.22302.08772-.06034.0727-.05405.0874.0367.08586.06022-.001.16058-.0405.22302-.08772zm-5.9907-.26475c0-.03026-.02193-.05503-.048733-.05503s-.048733.03832-.048733.08515.02193.07159.048733.05503.048733-.05488.048733-.08515zm.326-.06209c.049463-.08003-.057524-.06054-.18324.03339-.10952.08182-.10885.08364.018974.05142.07287-.01836.14679-.05653.16427-.08481zm4.9372-.4023c0-.03216-.0116-.05848-.02579-.05848-.01418 0-.04205.02632-.06193.05848s-.0083.05848.02579.05848c.03406 0 .06193-.02632.06193-.05848zm-3.2456-.52632c.01988-.03216.0083-.05848-.02579-.05848-.03406 0-.06193.02632-.06193.05848s.01161.05848.02579.05848.04205-.02632.06193-.05848zm-1.2731-.09381c-.019433-.01943-.069871-.02151-.11209-.0046-.046651.01867-.032794.03252.035332.03533.061647.0025.096186-.01128.076754-.03072zm.7059-.09332c.12802-.12802.073288-.14755-.23684-.0845-.28793.05853-.29611.06485-.13158.10162.26699.05967.29282.05847.36842-.01713zm-4.471-1.1312c-.019046-.04963-.047171-.0777-.0625-.06237s-.010525.05594.010676.09024c.057664.0933.091367.07518.051824-.02787zm.62309.0025c.059042-.07114.056711-.08772-.012333-.08772-.046823 0-.085133.03947-.085133.08772s.00555.08772.012333.08772c.00678 0 .045093-.03947.085133-.08772zm.46784-.14618c0-.03216-.011605-.05848-.025788-.05848-.014184 0-.042053.02632-.061931.05848s-.00827.05848.025788.05848c.034062 0 .061931-.02632.061931-.05848zm.1596-.62013c-.019432-.01943-.069871-.02151-.11209-.0046-.046651.01867-.032794.03253.035331.03533.061647.0025.096187-.01128.076754-.03071zm2.7007-.36428c.042674-.079736.036827-.10721-.022814-.10721-.044106 0-.076558.048246-.072116.10721.00444.058967.014708.10721.022813.10721.00811 0 .040558-.048246.072116-.10721zm-2.1585 12.107c0-.06053.12661-.18713.18713-.18713.025731 0 .046784.03728.046784.08285 0 .04556.032895.09612.073099.11234.040205.01622-.012427.03157-.11696.03411-.10453.0025-.19006-.01644-.19006-.04217zm.62865-.04233c.10453-.04766.19006-.10331.19006-.12365 0-.02034-.069896-.10176-.15532-.18094-.13613-.12616-.16178-.13241-.20758-.05057-.030677.05482-.12862.09338-.23716.09338h-.1849l.22941-.11696c.12617-.06433.28174-.11696.3457-.11696.082731 0 .098199-.01809.053602-.06269-.10925-.10925.036646-.33096.19754-.3002.074735.01429.15272.05322.17329.08651.021639.03501.00895.04294-.030104.01881-.037133-.02295-.067515-.01386-.067515.0202s.042543.06193.09454.06193c.068281 0 .085302.03533.061281.12718-.056719.21689.314.3968.39306.19075.019296-.05028.062738-.07433.096538-.05344s.098891.0069.14465-.03106c.045756-.03797.11697-.05547.15826-.03889.047187.01895.037058.03187-.027274.03477-.056287.0025-.10234.03093-.10234.0631 0 .03216-.051078.05848-.11351.05848-.16938 0-.19986.10162-.053903.17974.079086.04233.2703.05724.49871.03891.20375-.01636.37045-.0109.37045.01213 0 .09512-.28972.19233-.449.15065-.18135-.04745-.26921-.0478-1.0422-.0042-.49988.0282-.51677.02534-.33626-.05697zm3.7625-.04373c-.14186-.07168-.26028-.15317-.26316-.1811-.0029-.02793.09346-.05677.21407-.06409.23058-.014.26498.01655.14912.13241-.05458.05458-.01451.07017.18031.07017.17424 0 .24316.02225.22641.0731-.03944.11975-.23236.10814-.50676-.0305zm2.0845.05974c-.01543-.04021-.03145-.09792-.0356-.12826-.0093-.06768.81035-.08151.85185-.01438.04692.07593-.17704.21379-.24955.15361-.03746-.03109-.14454-.02912-.26294.0048-.25454.073-.27.0722-.30377-.01581zm1.653.01462c.04825-.03118.1346-.05709.19189-.05758.0573-.000468.11932-.04037.13784-.08861.03714-.09679.31354-.12257.31354-.02924 0 .03216-.04941.05848-.1098.05848-.06039 0-.14256.03947-.1826.08772s-.1551.08732-.2557.08682c-.13959-.000684-.16213-.01432-.09518-.05758zm1.1111 0c0-.03216.02632-.05848.05848-.05848s.05848.02632.05848.05848-.02632.05848-.05848.05848-.05848-.02632-.05848-.05848zm.35088.03538c0-.0127.10526-.03314.23392-.0454.12866-.01227.23392-.0019.23392.0231 0 .02497-.10526.0454-.23392.0454s-.23392-.01039-.23392-.0231zm1.7296-.05509c.01992-.0519-.0187-.14885-.08961-.22496-.16428-.17633-.0516-.20759.17267-.0479.10937.07788.24924.12106.36635.11311.10419-.0071.26214.007.35101.03134.10054.02751.19275.01833.2441-.02429.09409-.07809.51927-.02185.46755.06184-.0177.02864-.16065.05207-.31768.05207s-.30331.02883-.32509.06407c-.02425.03924-.1219.04965-.25199.02687-.31516-.05521-.43498-.05658-.54931-.0063-.07877.03466-.09477.02386-.068-.04589zm1.6622-.0095c0-.04825.04605-.08856.10234-.08958.09747-.0018.09747-.0056 0-.07955-.14333-.1088-.12787-.14783.05848-.14764.32573.000351.59942-.07484.59942-.16463 0-.07202.01632-.07494.08772-.01568.13357.11085.10539.17544-.07654.17544-.09034 0-.21534.03766-.27778.08369-.11053.08149-.10978.08508.02833.13667.1316.04915.12234.05789-.12824.12099-.34968.08805-.39373.08585-.39373-.01971zm-2.3099-.02924c.16253-.06984.36619-.06984.40936 0 .0223.03608-.07157.05691-.24509.05437-.21095-.0031-.252-.01667-.16427-.05437zm-7.1345-.05848c.01988-.03216.04775-.05848.06193-.05848s.02579.02632.02579.05848-.02787.05848-.06193.05848-.04567-.02632-.02579-.05848zm1.6334-.0065c-.0221-.03576-.0077-.08508.03196-.1096.05531-.03418.04902-.07987-.02697-.19584-.0983-.15002-.09751-.15196.09617-.23709l.19528-.08583-.36482.01043c-.22951.0066-.37524.03755-.3929.08353-.03331.08672-.20719.09899-.20719.01462 0-.03216-.04605-.05888-.10234-.05937-.08738-.000766-.08952-.0091-.01462-.05714.04825-.03094.13707-.04087.19738-.02208.06559.02044.0951.01061.07343-.02445-.01992-.03224-.0035-.07057.03654-.08519.10444-.03814.73928-.01118.78374.03328.02056.02056.09926.02185.1749.0029.10434-.02619.13752-.01031.13752.0658 0 .06514-.03076.08851-.08772.06665-.04825-.01851-.08772-.01102-.08772.01664 0 .02767-.06579.06682-.1462.087-.08041.02018-.1462.07524-.1462.12235 0 .07301.03012.0713.20394-.01159.11217-.05349.22397-.07723.24845-.05275.05777.05777-.15123.21038-.28813.21038-.05818 0-.10578.03947-.10578.08772s.03289.08812.0731.08862c.04873.000597.04386.01979-.01462.05758-.11679.07547-.21804.073-.2672-.0065zm.62977-.06364c-.11345-.11345-.08098-.16868.07602-.12928.12665.03179.1462.01721.1462-.10902 0-.14537.12692-.22497.27778-.17421.11499.03869.08615.10709-.0764.18115-.0855.03896-.13236.09584-.10947.13288.04041.06539-.06919.1661-.18256.16776-.03377.000468-.09298-.03068-.13158-.06928zm-1.9972-.04382c-.04671-.02955-.10592-.04075-.13158-.02489-.02566.01586-.04665.000116-.04665-.03493 0-.12798.18618-.13382.31026-.0097.09211.09211.10239.12485.03899.12419-.04735-.000468-.12431-.02507-.17102-.05462zm-.8215-.07128c0-.08259.12305-.11508.29382-.07757.24777.05442.21519.1193-.05991.1193-.12866 0-.23392-.01878-.23392-.04174zm7.1548.002c.07738-.04498.12626-.04448.17251.0018.04707.04707.01783.06406-.10798.06276-.15124-.0016-.1592-.0095-.06454-.06454zm.59378.0078c-.01988-.03216.0049-.05848.05503-.05848.05014 0 .09117.02632.09117.05848s-.02476.05848-.05503.05848c-.03026 0-.07129-.02632-.09117-.05848zm1.6527-.11501c-.11146-.13018-.07752-.1777.12609-.17649.1088.000644.12852.01518.07048.05194-.04432.02807-.06363.07849-.0429.11202.06946.11239-.05918.12288-.15366.01253zm-4.2147-.0052c.03822-.03926.17936-.07758.31363-.08516.13427-.0076.26418-.04622.28869-.08587.03005-.04863.05699-.05198.08274-.01031.05264.08518-.11532.16194-.46216.21119-.22967.03262-.27749.02621-.2229-.02986zm2.2823.02569c-.05041-.05041.12036-.21198.19703-.18643.03503.01168.01346.06514-.04913.12178-.06136.05553-.12792.08462-.1479.06464zm-6.5606-.07795c-.03735-.06043.19292-.20782.24434-.15639.0173.0173.01587.07206-.0032.1217-.03835.09993-.18758.1214-.24116.0347zm5.5635.01656c-.06943-.06943-.04219-.10648.13642-.18554.22477-.09949.29098-.07259.22873.09295-.04784.12721-.27334.18439-.36514.09259zm3.5283-.0469c0-.05232.03428-.07273.08772-.05222.04824.01851.08772.05716.08772.08588s-.03947.05222-.08772.05222-.08772-.03865-.08772-.08588zm-17.471-.013921c-.27639-.05324-.10539-.18356.29491-.22477.16083-.01655.23129.0019.2563.06705.047964.12499-.085391.25552-.1516.14839-.033998-.05501-.06083-.05928-.088735-.01413-.040656.06578-.076901.06852-.31088.02345zm6.8147-.03183c.03302-.04021.069137-.13889.08026-.2193.01638-.11842.048006-.14236.16642-.126.080409.01111.24531.02297.36646.02636.12114.0034.21259.02916.20322.05728-.0094.02812-.03208.04258-.05045.03212-.01837-.01045-.07035.01064-.1155.04687-.04515.03623-.13345.04718-.19622.02434-.080501-.0293-.15141-.0013-.24062.09495-.13245.14291-.32607.20038-.21356.06338zm.9192.01462c.01988-.03216.04775-.05848.06193-.05848s.02579.02632.02579.05848-.02787.05848-.06193.05848-.04567-.02632-.02579-.05848zm5.8187.0035c0-.03027.02632-.07129.05848-.09117s.05848.0049.05848.05503c0 .05014-.02632.09117-.05848.09117s-.05848-.02476-.05848-.05503zm2.3684-.0035c-.01988-.03216.0196-.05848.08772-.05848s.1076.02632.08772.05848c-.01988.03216-.05935.05848-.08772.05848s-.06784-.02632-.08772-.05848zm-15.082-.14645c-.1194-.09037-.1298-.07976.1698-.17335.20229-.0632.065268-.12871-.21324-.10195-.17319.01664-.28702.0064-.26812-.0242.018057-.02922.22586-.05811.46177-.06421s.39447.0036.35234.02166c-.12424.05312-.39248.32276-.37661.37859.019143.06735.00646.06367-.12594-.03653zm4.9505.04601c-.040205-.01444-.073099-.06437-.073099-.11094 0-.04657-.039474-.09983-.087719-.11834-.10064-.03862-.11869-.13811-.025063-.13811.097269 0 .24145.16766.20078.23347-.020031.03241.00305.05893.0513.05893.048246 0 .10398-.02632.12386-.05848.019878-.03216.13327-.05545.25199-.05175l.21585.0067-.21623.04205c-.11893.02313-.25051.0692-.2924.10238-.04189.03318-.10906.04852-.14926.03407zm12.12-.01651c-.01988-.03216.01649-.05848.08082-.05848s.13322.02632.1531.05848c.01988.03216-.01649.05848-.08082.05848s-.13322-.02632-.1531-.05848zm-7.5325-.09588c-.02057-.02057-.02558-.05651-.01114-.07988.03559-.05759.32144.00076.32144.06561 0 .05909-.25381.07076-.3103.01427zm5.2226-.02108c0-.03216.05263-.05848.11696-.05848s.11696.02632.11696.05848-.05263.05848-.11696.05848c-.06433 0-.11696-.02632-.11696-.05848zm1.9298.0063c0-.02533.06703-.07659.14895-.11392.1793-.0817.20193-.08339.20193-.01511 0 .02902-.07895.08028-.17544.11392-.09649.03364-.17544.04044-.17544.01511zm-4.0936-.06566c0-.03468.07818-.04554.18828-.02614.26605.04687.27785.08546.02614.08546-.11793 0-.21442-.02669-.21442-.05931zm1.6374.000834c0-.03216.02632-.05848.05848-.05848s.05848.02632.05848.05848-.02632.05848-.05848.05848-.05848-.02632-.05848-.05848zm-10.245-.03991c.042215-.01689.092654-.01482.11209.0046.019432.01943-.015107.03325-.076754.03072-.068125-.0028-.081982-.01666-.035331-.03533zm-4.6791-.14719c.054581-.05458.08577-.05458.14035 0 .054581.05458.038986.07017-.070175.07017-.10916 0-.12476-.0156-.070176-.07017zm17.534-.01754c.01851-.04825.07354-.08772.12228-.08772.07215 0 .07509.01631.01582.08772-.04004.04824-.09507.08772-.12228.08772-.02722 0-.03434-.03947-.01582-.08772zm-18.258-.035689c-.020333-.0329-.021404-.07538-.00238-.0944.019023-.01902.007-.06783-.026726-.10847-.047-.05663-.032688-.06639.061306-.04181.067441.01764.10865.04604.091569.06312-.017079.01708-.00429.06329.028413.1027.041905.05049.033674.08155-.027874.10516-.048036.01843-.10397.0066-.12431-.0263zm8.9531-.99048c.034-.05501.58808-.19065.66786-.16348.03239.01103-.11075.06221-.31807.11374-.20732.05153-.36473.07391-.34979.04974zm-2.0631-.09893c.18494-.01161.48757-.01161.67251 0 .18494.0116.033626.0211-.33626.0211-.36988 0-.5212-.0095-.33626-.0211zm1.3518-.07525c-.1035-.10428-.0312-.28251.10062-.24804.11306.02957.15791.13258.05772.13258-.0298 0-.0627.04102-.0731.09115-.01416.06827-.03555.07437-.08524.02431zm-2.3167-.03977c.072368-.01394.19079-.01394.26316 0 .072368.01394.013158.02534-.13158.02534-.14474 0-.20395-.0114-.13158-.02534zm3.8743.01885c0-.01233.05263-.03618.11696-.053s.11696-.0067.11696.02242c0 .02915-.05263.053-.11696.053-.06433 0-.11696-.01009-.11696-.02242zm-7.9083-.13691c.10511-.01301.263-.01275.35088.000597.087874.01334.00188.02399-.19111.02366-.19298-.000347-.26488-.011241-.15977-.024257zm.58375.0037c.15439-.0623.06173-.1312-.20468-.1522-.17196-.01356-.099561-.02416.19006-.02783.25731-.0033.42836.009.38012.02727-.048246.01826-.10876.06881-.13448.11234-.025721.04353-.10467.07707-.17544.07453-.07077-.0025-.095778-.01789-.055574-.03411zm-.9905-.11822c.042215-.01689.092653-.01482.11209.0046.019432.01943-.015107.03325-.076754.03072-.068125-.0028-.081983-.01666-.035331-.03533zm4.4423-.0029c.13755-.01235.34807-.01218.46784.000409.11976.01257.00723.02267-.25008.02246-.25731-.000234-.3553-.01049-.21775-.02285zm-5.7235-.31383c-.045179-.02241-.14193-.06317-.21499-.09058-.10519-.03945-.074751-.05054.1462-.05325.15348-.0019.22745.0077.1644.02128-.097946.0211-.089425.03562.05848.09964.13222.05723.14418.0736.050596.0693-.067394-.0031-.1595-.02398-.20468-.04639zm6.3506.0046c-.23863-.02481-.17948-.03706.32164-.06667.33772-.01995.63666-.01522.66432.0105.063345.05892-.59735.09656-.98595.05617zm4.2836.0209c.0402-.01622.10599-.01622.1462 0 .04021.01622.0073.0295-.0731.0295-.08041 0-.1133-.01327-.0731-.0295zm.60059-.22302c-.04612-.05558-.05056-.08913-.01178-.08913.07067 0 .15308.11095.11252.1515-.01472.01472-.06005-.01335-.10074-.06237zm-.90522-.10375c.11974-.39877.40573-.64062.69267-.58577l.14158.02707-.14434.21356c-.19171.28365-.42744.47203-.59391.47462-.11357.0018-.12912-.01921-.09601-.12948zm-10.163.03437c.040205-.01622.10599-.01622.1462 0 .040205.01622.00731.0295-.073099.0295s-.1133-.01327-.0731-.0295zm-.42398-.0645c-.087988-.06464-.097871-.18973-.01462-.18505.040205.0023.12573.02912.19006.05968.10899.05178.108.05387-.01462.03061-.15389-.0292-.18011.05979-.02924.09921.072513.01895.076774.02846.01462.03263-.048246.0032-.11404-.01345-.1462-.03708zm.42506-.25749c.033983-.03398.096305-.05028.13849-.03622.043798.0146.01729.04111-.061787.06179-.097272.02544-.1201.01783-.076708-.02557zm9.9551-.01452c0-.05093.04167-.09259.09259-.09259.05093 0 .08218.03125.06944.06944-.03614.10843-.16204.12642-.16204.02315zm-10.322-.034068c-.073721-.03168-.084531-.05026-.02924-.05026.048246 0 .14035.02262.20468.05026.073722.03168.084531.05026.02924.05026-.048246 0-.14035-.02262-.20468-.05026zm12.343-.0828c.67435-.11202.8858-.2424 1.1935-.73592.10036-.16095.11899-.17344.08719-.05848-.14198.51334-.62264.82174-1.3305.85369l-.42171.01903zm-5.1353-.30681c.040205-.01622.10599-.01622.1462 0 .040205.01622.00731.0295-.073099.0295s-.1133-.01327-.0731-.0295zm2.2466-.24642c-.06358-.0403-.06193-.05561.0089-.0828.09039-.03468.15682.0015.15682.0853 0 .06188-.06573.06088-.16572-.0025zm-3.0507-.709c.16709-.02598.20979-.0459.11696-.05457-.24576-.02296-.37103-.04053-.59633-.08364-.14776-.02828-.28662-.01173-.4386.05225-.15036.0633-.30243.08182-.46955.05717-.38725-.05711-.36821-.15299.023815-.11994l.34032.02869-.31108-.08079c-.17109-.04443-.35911-.12426-.41782-.17739-.10284-.09307-.10152-.10183.036318-.23966.10646-.10646.18344-.13475.30086-.11057.14025.02888.13667.02273-.032255-.0553-.10453-.04828-.19006-.09766-.19006-.10972 0-.01207.085526-.01243.19006-.000807l.19006.02113-.35088-.1796.46784.0546-.19006-.08589c-.37505-.16947-.17556-.14969.32157.03189.10449.03817.17683.0907.16074.11673-.016088.02603.028203.0323.098425.01394.10891-.02848.085279-.05275-.16074-.16512-.41332-.18878-.28734-.17076.27777.03972.26754.09965.61802.22046.77884.26847.29776.08889.4728.19362.32359.19362-.07745 0-.031617.08681.046784.08862.12222.0028.18213.10022.12607.20496-.032685.06107-.055956.13184-.051712.15727.026451.1585-.00779.20538-.096333.13189-.068319-.0567-.10662-.05844-.15789-.0072-.037233.03723-.18743.06374-.33378.05891l-.26608-.0088zm.52632-.26196c0-.07598-.11869-.11427-.54094-.17451l-.19006-.02712.17544.05342c.096491.02938.25439.07264.35088.09614.17191.04187.1725.04325.02924.0687-.13518.02402-.13739.02928-.02924.06985.13791.05174.20468.02352.20468-.08649zm-.47271.007c-.013402-.011525-.10331-.038641-.19981-.060224-.12812-.02866-.15178-.02323-.087719.02012.078969.05344.34621.09075.28752.04014zm-1.3322-.31742c-.04219-.01406-.10451.0022-.13849.03622-.043396.0434-.020563.05101.076708.02557.079076-.02068.10558-.04719.061787-.06179zm.92768.04607c-.080409-.025753-.19883-.047597-.26316-.048542l-.11696-.0017.11696.05026c.064328.027623.18275.049465.26316.04852l.1462-.0017zm-1.1111-.09398c0-.01264-.039474-.02298-.087719-.02298-.048246 0-.087719.02549-.087719.05664s.039474.0415.087719.02298c.048246-.01851.087719-.044.087719-.05664zm.52632-.02298c-.080409-.02575-.18567-.04904-.23392-.05175-.077973-.0044-.077973.0014 0 .05175.048246.03118.15351.05447.23392.05175l.1462-.0049zm1.2427.01975c-.040205-.01622-.10599-.01622-.1462 0-.040205.01622-.00731.0295.073099.0295s.1133-.01327.0731-.0295zm-.32392-.08419c-.10264-.05973-.61074-.13435-.55839-.082.031891.03189.45092.13298.57529.13879.065659.0031.061409-.01121-.016898-.05679zm2.2099.41532c-.01988-.03216.0064-.05848.05848-.05848.05204 0 .07836.02632.05848.05848s-.04619.05848-.05848.05848-.0386-.02632-.05848-.05848zm.39394-.12653c-.02606-.02606-.21747-.08456-.42534-.13-.20788-.04543-.32532-.08405-.261-.08581.06433-.0018.34064.04353.61404.10064.41245.08616.46495.10884.30838.1332-.10378.01615-.21002.008-.23608-.01803zm-8.4977-.1899c.040433-.04872.04608-.09636.013787-.11632-.030081-.01859-.087213.0054-.12696.05327-.039746.04789-.15457.08628-.25516.0853-.15308-.0015-.16614-.01154-.080096-.06164.056541-.03293.12324-.04724.14821-.0318.024976.01544.1336-.04893.24138-.14303.18894-.16496.19096-.17116.056465-.17288-.13349-.0017-.13446-.0045-.022544-.06608.064327-.03537.20906-.14992.32164-.25457.23101-.21474.6073-.45852.80409-.52093.10657-.03379.13158-.01944.13158.07551 0 .0869-.10215.16663-.39474.3081-.21711.10498-.4575.2382-.5342.29606l-.13947.10519h.18333c.1525 0 .18255.02213.17871.13158-.00254.07237-.016615.10251-.03128.06698-.034246-.08297-.29096-.03481-.37883.07108-.051404.06194-.050127.08124.00537.08124.058081 0 .058081.01774 0 .08772-.04004.04824-.099116.08772-.13128.08772-.034261 0-.03012-.03417.01-.08251zm16.145-.27133c.24913-.19992.39152-.24671.17765-.05837-.11136.09806-.22978.17771-.26316.17699-.03338-.000713.0051-.0541.08551-.11862zm.20812.03406c.14851-.11233.23538-.11346.14276-.0019-.04004.04825-.11408.08772-.16454.08772-.07344 0-.06909-.01713.02178-.08586zm2.1116-.01161c-.09705-.09705-.02853-.19493.13645-.19493.19964 0 .22975.08378.06232.17338-.13323.0713-.14748.07285-.19878.02155zm-2.729-.04248c0-.01264.04084-.03866.09076-.05781.05204-.01997.07552-.01017.05503.02298-.03434.05557-.14578.08219-.14578.03483zm-12.9-.35712c-.024043-.09649-.048493-.20175-.054334-.23392-.00584-.03216-.051142-.14897-.10067-.25958-.076781-.17146-.078738-.23317-.013281-.41869.042224-.11968.065365-.229.051423-.24294-.030622-.03062.85185-.30478.95469-.2966.039859.0032.057927-.01776.040153-.04652-.0563-.09109.14777-.12648.25022-.04339.075192.06098.087461.06179.052365.0034-.028719-.04775.00246-.11809.083494-.18837.10302-.08935.1535-.09923.24815-.04857.10296.0551.11332.04926.077628-.04377-.022659-.05905-.023189-.08935-.00118-.06734.022011.02201.09577.01032.16391-.02598.11163-.05946.11594-.05637.04363.0313-.069024.08367-.067102.09729.013723.09729.07985 0 .088978.05496.060702.3655-.045833.50334-.054192.52088-.22756.47736-.085601-.02149-.18499-.0067-.2352.03496-.10567.0877-.1151.28974-.01386.29704.040205.0029-.015411.03074-.12359.06187-.17964.05169-.19364.07184-.16154.23236.032115.16058.023846.17244-.095707.13739l-.13086-.03837.13158.09645c.072368.05305.13158.12315.13158.15579 0 .03264-.041353.01799-.091896-.03256-.1061-.1061-.2005-.11992-.2005-.02935 0 .0344-.05921.05351-.13158.04247-.072368-.01104-.12435-.0543-.11551-.09613.00884-.04183-.011328-.05912-.044814-.03843-.033485.0207-.047446.05937-.031025.08594.016422.02657-.015306.06564-.070507.08683-.086008.033-.088051.04628-.014284.0928.059586.03758.011023.05011-.15778.04071-.21775-.01212-.24854-.03236-.28758-.18901zm13.439.11236c.05552-.05797.11354-.09281.12892-.07742.01538.01539-.03004.06281-.10095.10539-.12318.07397-.12442.07273-.02797-.02797zm1.6096-.06845c-.11567-.02627-.13402-.10514-.03825-.16433.03525-.02179.10356-.000117.15181.04811.09726.09726.04381.15196-.11356.11622zm-13.348-.072475c-.020488-.03315.00299-.04295.055028-.02298.10131.03888.11985.08079.035728.08079-.030266 0-.071106-.02602-.090757-.05781zm-.29222-.11858c.020202-.03269.061229-.04429.091171-.02579.081114.05013.065989.08522-.036732.08522-.050144 0-.074641-.02675-.054439-.05943zm2.207.01912c.056287-.01471.14839-.01471.20468 0 .056287.01471.010234.02674-.10234.02674s-.15863-.01203-.10234-.02674zm7.8801-.01817c0-.03216.02787-.05848.06193-.05848s.04567.02632.02579.05848-.04775.05848-.06193.05848-.02579-.02632-.02579-.05848zm-14.971-.212c0-.15912.021675-.20163.095352-.18702.052444.0104.13261.07512.17815.14382.077122.11636.070589.12917-.095352.18702-.17657.061553-.17815.060283-.17815-.14382zm5.8913-.01891c-.24987-.15846-.27924-.16498-.3324-.07379-.051977.08916-.058507.08969-.060092.0048-.004-.214.14451-.23435.48348-.06626.30179.14965.37949.24356.24.29006-.031296.01043-.18024-.05925-.33099-.15485zm.57401.11941c-.018025-.02917.019896-.03925.084268-.02242.13655.03571.15381.07545.032772.07545-.046347 0-.099015-.02386-.11704-.05303zm11.605-.002c0-.03406-.03947-.06193-.08772-.06193-.04824 0-.08772-.03947-.08772-.08772s.01101-.08772.02446-.08772.06272-.01468.10949-.03263c.09447-.03625.18089.24578.09212.30064-.02785.01721-.05064.0034-.05064-.03064zm-11.279-.12621c-.39643-.10646-.88507-.31232-.88507-.37289 0-.01399.16447.03648.3655.11214.20102.07567.39181.14041.42398.14387.12024.01294.46985.13867.52339.18822.06918.06402.087963.06716-.4278-.07134zm-5.766-.21456c-.020622-.05374-.019679-.07989.0021-.05812.021775.02177.084418-.01577.13921-.08343.071909-.0888.12582-.10836.19382-.0703.079278.04437.063166.07306-.10171.18114-.17701.11603-.19953.119-.23341.03071zm4.2158-.06021c-.015858-.02566-.00993-.07724.013178-.11463.028905-.04677.064343-.03221.1136.04665.058737.09405.056371.11463-.013178.11463-.04662 0-.097738-.02099-.1136-.04665zm13.18-.006c-.25258-.03367-.34172-.14299-.13083-.16044.05587-.0046.14012-.0112.18722-.01462.07039-.0051.06787-.02398-.0142-.10605-.07416-.07416-.11681-.08285-.16586-.03381-.03631.03631-.10229.05211-.14662.0351-.16803-.06448-.06875-.12827.25566-.16428.18494-.02053.39342-.06525.46329-.09938.10376-.05068.182-.03032.42702.11115.24977.1442.28582.18495.21538.24342-.04654.03862-.10712.06618-.13463.06125-.16126-.02894-.31317.01597-.31317.09259 0 .09347-.14559.10141-.64327.03508zm-18.013-.13415c.092412-.08609.1136-.13637.06439-.15278-.040344-.01345-.10263.0048-.13841.04061-.08576.08576-.27558.08358-.27558-.0032 0-.03752.016231-.05199.03607-.03216.019838.01984.17115-.12087.33626-.31269.17943-.20846.30733-.31556.31794-.26624.023802.11063.2166.15566.31312.07313.042668-.03648.00212.01749-.090098.11993-.096257.10693-.16768.25281-.16768.3425 0 .1097-.014974.1326-.050274.07689-.046489-.07337-.077231-.02752-.057541.08582.00461.02651-.014717.03394-.042939.01649-.028222-.01744-.10124.0061-.16227.05227-.17423.13188-.2358.10175-.082985-.04062zm5.2881-.12021-.1114-.13158.13158.1114c.072368.06127.13158.12048.13158.13158 0 .0468-.047064.01225-.15176-.1114zm-4.1757-.015c0-.05493.43821-.26278.55402-.26278.07589 0 .14822-.03071.16073-.06824s.12488-.07628.24971-.08611c.19167-.01509.2139-.0057.14295.06008-.10793.10014-1.1074.42238-1.1074.35704zm5.29-.03275c-.021201-.0343-.022754-.07816-.00345-.09747.019303-.0193.035096-.0063.035096.02884 0 .03517.046053.07597.10234.09068.092264.02411.092604.02741.00345.03353-.054388.0037-.11623-.02128-.13744-.05559zm-5.8163-.021234c0-.01608.052632-.05741.11696-.09183.064328-.03443.11696-.04944.11696-.03335 0 .01608-.052632.05741-.11696.09183-.064328.03443-.11696.04944-.11696.03336zm5.5131-.12738c.022952-.02295-.015246-.0704-.084884-.10543-.069638-.03503-.13763-.0971-.1511-.13792-.014765-.04476.058856-.02505.18544.04963.24187.14271.24338.14544.10937.19686-.055306.02122-.081778.01981-.058826-.0031zm.9781-.07957c0-.03115.039474-.0415.087719-.02298.048246.01851.087719.044.087719.05664s-.039474.02298-.087719.02298c-.048246 0-.087719-.02549-.087719-.05664zm-5.4094-.20628c.096491-.04547.22807-.0822.2924-.08161l.11696.0011-.11696.04608c-.064328.02534-.19591.06207-.2924.08161l-.17544.03553.17544-.08268zm5.0902.03305c-.018505-.02994-.00966-.06926.01966-.08738.029318-.01812.068395.0064.086838.05444.036357.09474-.051506.12192-.1065.03294zm-5.8212-.02917c0-.01608.052632-.05741.11696-.09183.064328-.03443.11696-.04944.11696-.03336s-.052632.05741-.11696.09183c-.064327.03443-.11696.04944-.11696.03336zm1.1696-.03336c0-.03216.027869-.05848.061931-.05848s.045667.02632.025788.05848c-.019878.03216-.047747.05848-.061931.05848s-.025788-.02632-.025788-.05848zm-.79793-.18922c.059679-.04066.20442-.14912.32164-.24102s.27798-.19208.35723-.22261c.17321-.06674.87929-.0011.87929.0817 0 .03217-.054987.04411-.12219.02653-.067206-.01758-.27115.01546-.45322.07341s-.42313.12506-.5357.14914c-.11257.02407-.28363.08045-.38012.12528-.11041.05129-.13522.0541-.066931.0076zm.61152.03232c.042215-.01689.092653-.01481.11209.0046.019432.01943-.015107.03325-.076754.03072-.068125-.0028-.081983-.01666-.035331-.03533zm-1.8595-.20514c-.00117-.20558.092496-.2591.17703-.10115.048332.09031.049144.14256.00293.18877-.04621.04621-.064145.04042-.064792-.0209-.0007615-.07212-.00937-.07168-.057584.0029-.044339.06861-.056884.05344-.057584-.06965zm.67162.06965c.15973-.06864.20468-.06864.20468 0 0 .03216-.072368.05663-.16082.05437-.14251-.0036-.1475-.0098-.04386-.05437zm11.14.0355c0-.01264.03947-.03813.08772-.05664s.08772-.0082.08772.02298c0 .03115-.03947.05664-.08772.05664s-.08772-.01034-.08772-.02298zm-8.7427-.09398c.019878-.03216.080642-.05808.13503-.05758.085221.000772.086764.0087.011169.05758-.11452.07401-.19194.07401-.1462 0zm-2.0175-.11218c0-.09975.070659-.2387.12138-.2387.027713 0 .03524.03947.016726.08772-.01967.05126-.0006772.08809.045695.08862.061233.00069.059323.01384-.00836.05758-.11109.07179-.17544.07354-.17544.0048zm1.9773-.16169c.042215-.01689.092653-.01482.11209.0046.019432.01943-.015107.03325-.076754.03072-.068125-.0028-.081982-.01666-.035331-.03533zm-2.0645-1.2864c-.34439-.36067-.51033-.42298-.96197-.36122-.28461.03892-.38744.0335-.42351-.02235-.164-.25388.20757-.45365.84402-.45378l.45322-9.1e-5v-.22744c0-.14336.043569-.27848.11785-.3655l.11785-.13806-.03644.16069c-.020042.08838-.017619.2068.00538.26316.038429.09415.045732.09298.089993-.01449.036257-.08804.047275-.05911.044552.11696-.00199.12866.023737.33918.05717.46784s.077962.35892.098953.5117.067255.27778.10281.27778c.035554 0 .047735.01691.02707.03757-.020665.02067-.079689.0026-.13116-.0401-.05524-.045841-.10974-.05525-.13299-.02295-.021671.0301-.14443-.055271-.27279-.18971zm16.286-.0837c-.11257-.02479-.37833-.03574-.59058-.02433-.21224.01141-.60698.0014-.87719-.02234-.27021-.0237-.57024-.02622-.66673-.0056-.21046.04497-.68357-.06213-.71696-.1623-.04031-.12093-.449-.07956-.73942.07485-.38461.2045-.54175.19026-.78083-.07076-.29634-.32353-.32992-.40825-.17363-.43806.07157-.01365.31435-.0085.53949.01144s.90936.02929 1.5205.02078c.7366-.01026 1.2294.0097 1.462.05925.19298.0411.48246.0664.64328.05622.75752-.04796 1.7384.02886 1.8528.1451.02196.02232.0053.08747-.03704.14477-.05681.07691-.21276.11926-.59548.16173-.28518.03165-.54483.06581-.57699.07592-.03216.01011-.15058-.0019-.26316-.0267zm-14.813-.090976c.016456-.04289.049035-.07797.072397-.07797s.042476.03509.042476.07797c0 .04289-.032579.07797-.072397.07797s-.058933-.03509-.042476-.07797zm10.281-.02199c-.09649-.061-.25164-.15384-.34477-.20631-.13205-.0744-.15136-.10678-.08772-.14708.0633-.04008.06444-.05188.0051-.05257-.0421-.000468-.06181-.02474-.0438-.05388s.08506-.03931.14899-.02259c.06393.01672.10183.05372.08421.08223-.01762.02851-.0052.05183.02762.05183.06825 0 .28073.21368.36344.3655.06675.12252.06808.12267-.15304-.01712zm-10.459-.10241c.011126-.01749-.02588-.08452-.082237-.14894-.056357-.06443-.071564-.09913-.033793-.07713.039838.02321.077942-.0033.090747-.06305.036019-.16816-.017742-.30233-.10737-.26794-.052746.02024-.071574.0029-.052071-.04791.016802-.04379.09537-.07961.17459-.07961.11701 0 .13961.02444.12043.1302-.012986.07161-.00573.12424.016127.11696.021856-.0073.039738.01307.039738.04523s-.024191.05042-.053759.04056c-.029567-.0099-.018575.02447.024427.07629.066531.08016.060651.11008-.039443.20067-.064696.05855-.10852.09215-.097398.07466zm9.5963-.35417c-.29642-.10307-.38566-.20458-.11726-.13338.08845.02346.22003.03838.2924.03314.09278-.0067.13158.02261.13158.09946 0 .05993-.0066.10634-.01462.10312-.008-.0032-.13949-.04927-.2921-.10234zm-9.2544-.30021c-.020584-.06485-.075126-.11792-.1212-.11792-.046078 0-.083779-.03947-.083779-.08772s.024436-.08772.054302-.08772.090476-.03617.13469-.08039c.055102-.0551.15106-.0689.30509-.04386.21866.03554.29514.12971.13896.17109-.051768.01372-.048617.000527.0095-.03981.070652-.04902.062674-.05851-.042499-.05059-.1243.0094-.12569.01569-.034718.15823.052119.08166.074214.12952.0491.10634-.025114-.02317-.11909.01015-.20884.07406-.163.11607-.16321.11607-.2006-.0017zm.23361-.1764c.045742-.07401-.031674-.07401-.1462 0-.075596.04885-.074052.05681.011169.05758.054388.000492.11515-.02542.13503-.05758zm-.172-.08586c.062434-.04722.085651-.0867.051594-.08772-.034057-.001-.113.03678-.17544.084s-.085651.0867-.051594.08772c.034057.001.113-.03678.17544-.084zm.13179.33831c.042215-.01689.092653-.01482.11209.0046.019432.01943-.015107.03325-.076754.03071-.068125-.0028-.081982-.01666-.035331-.03533zm.4788-.33301c0-.01214.046053-.0582.10234-.10234.092752-.07274.09482-.07067.022079.02208-.076396.09741-.12442.12839-.12442.08026zm-1.8962-.34342c.0619-.3837.22464-.87557.29916-.90417.042138-.01617.076614-.06401.076614-.10631 0-.15968.46372-.477.8339-.57062.53964-.13648.73645-.16143.77547-.09828.019924.032238-.051391.056564-.16582.056564-.29929 0-.65191.14385-1.0372.42311-.3861.27985-.60697.64487-.67285 1.112-.021547.15278-.061845.27778-.089553.27778s-.03658-.08553-.019716-.19006zm3.2997-1.4674c-.49182-.090168-.37609-.17025.22246-.15394.24753.00675.66058.00788.91789.00251.46464-.00969.46684-.00904.32164.095474-.18159.13071-.90353.15834-1.462.055952zm-.80409-.13723c.056286-.014709.14839-.014709.20468 0 .056287.014709.010234.026744-.10234.026744-.11257 0-.15863-.012035-.10234-.026744z" stroke-width=".05848"/>
</svg>
