<svg viewBox="0 0 24 24" xmlns="http://www.w3.org/2000/svg"><path d="M12.861 2.037A10 10 0 0 0 2.037 11.14a10 10 0 0 0 9.102 10.824 10 10 0 0 0 10.824-9.102A10 10 0 0 0 12.86 2.037zm1.116 1.602-1.344 3.207 2.934-2.78-1.341 3.208c.516.175.942.385 1.278.63.358.279.612.65.763 1.115.15.464.17.92.06 1.367-.09.358-.26.676-.51.956a2.3 2.3 0 0 1-.233.24l.942.235-1.563 1.321c.16.152.297.31.405.473.353.524.442 1.135.269 1.832-.107.43-.292.792-.555 1.087a2.564 2.564 0 0 1-.996.679c-.389.15-.839.227-1.353.232a5.596 5.596 0 0 1-.8-.05l-.046.04-3.32 2.804 1.771-3.19L7.02 19.85l1.771-3.19-2.8-.696.162-.645.255.063c.287.072.514.124.687.158.174.024.308.024.4 0 .1-.023.173-.07.22-.145.049-.082.093-.2.13-.353l.586-2.353-1.557-.385 2.164-2.05.682-2.75c.036-.143.05-.258.044-.345a.331.331 0 0 0-.124-.244c-.067-.074-.185-.136-.353-.188a7.02 7.02 0 0 0-.676-.197l-.256-.064.16-.645 2.5.622.028-.025zm-1.929 3.762-.886.841-.726 2.915 1.26.315c.904.225 1.58.236 2.029.034.153-.066.291-.163.412-.284l-1.418-.354 1.21-2.889c-.26-.15-.602-.277-1.025-.382l-.551-.136a3.02 3.02 0 0 0-.305-.06zm-1.772 4.401-.315 1.269.721.18-1.34 2.415v.005a.56.56 0 0 0 .04.296c.048.078.121.14.224.184.103.045.245.088.424.133l.589.147c.122.03.24.057.352.081l3.039-2.568a1.62 1.62 0 0 0-.622-1.083c-.367-.281-.988-.531-1.864-.75z"/></svg>