<svg viewBox="0 0 24 24" xmlns="http://www.w3.org/2000/svg"><path d="M3.52 19.212a3.646 3.646 0 0 0-.304-.084c-.108-.023-.149-.062-.127-.12.04-.103.144-.139.505-.172.223-.021.277-.009.277.064 0 .064-.037.082-.122.06a.411.411 0 0 0-.21 0c-.068.027-.05.064.079.17.173.142.148.164-.097.082zm1.089-.083c-.02-.083-.074-.151-.118-.151-.043 0-.112-.04-.153-.09a.177.177 0 0 0-.182-.054c-.06.019-.11.006-.11-.028s-.052-.062-.116-.062c-.174 0-.142-.098.044-.135a.882.882 0 0 0 .327-.174c.146-.126.154-.147.063-.182-.187-.072.014-.177.303-.16.182.012.257-.004.23-.046-.022-.038-.241-.064-.532-.064-.29 0-.494-.024-.494-.058 0-.032-.098-.055-.219-.05-.176.007-.188.014-.058.033.088.014.16.052.16.086 0 .033-.04.045-.088.026s-.153-.004-.232.032c-.124.057-.16.046-.263-.075-.113-.134-.122-.135-.201-.033a.243.243 0 0 1-.214.088c-.075-.011-.143.016-.16.063-.018.057.003.071.069.046.061-.024.095-.007.095.049s-.06.086-.175.086c-.187 0-.22-.05-.105-.164.054-.054.044-.07-.044-.072-.09-.002-.077-.023.061-.1.097-.054.208-.091.249-.083.04.008.073-.013.073-.046s-.058-.061-.129-.061c-.097 0-.112-.017-.06-.068.05-.051.089-.05.156.006.05.041.135.057.19.036.083-.032.073-.052-.065-.123-.224-.116-.331-.107-.368.032-.017.064-.08.116-.14.116-.139 0-.143-.108-.008-.212.088-.067.075-.07-.09-.014-.107.036-.21.048-.23.029-.02-.02-.005-.036.032-.036.038 0 .068-.027.068-.059s-.039-.058-.087-.058c-.072 0-.088-.098-.088-.527 0-.29.021-.526.047-.526s.099.039.161.086a.469.469 0 0 0 .23.088c.148.002.614.192.614.25 0 .024-.027.044-.061.044s-.046.026-.026.058c.02.034-.035.061-.128.064l-.164.005.156.047c.086.026.19.068.233.095.152.093 1.09.19 1.833.187.798-.003.329-.088-.614-.11l-.79-.02.66-.019c.856-.024.815-.132-.05-.132-.352 0-.639-.024-.639-.054s.112-.045.249-.033.665.025 1.174.032c.785.01.94-.003 1.02-.083.088-.087.08-.09-.106-.037-.111.032-.36.054-.553.048-.273-.007-.3-.015-.118-.033.128-.013.268-.053.311-.089.058-.048.09-.046.123.006.03.05.086.055.185.017.18-.069.081-.112-.326-.145-.16-.012-.088-.016.16-.007.25.01.454-.007.454-.037s-.033-.053-.073-.053c-.053-.001-.05-.015.008-.052.05-.033.07-.118.054-.23-.014-.099-.006-.166.02-.15.039.023.342-.392.342-.469 0-.015-.063-.015-.14-.001-.079.014-.17-.013-.211-.063-.04-.048-.106-.087-.146-.087-.041 0-.09-.06-.109-.132a22.804 22.804 0 0 0-.042-.16 1.646 1.646 0 0 0-.127-.197c-.105-.148-.144-.163-.34-.131-.162.026-.247.01-.316-.06-.087-.086-.103-.086-.199 0-.057.053-.122.095-.144.095-.057 0-.215.17-.448.483-.113.15-.229.274-.258.275-.029.001-.005-.05.053-.115.058-.064.082-.115.053-.112-.03.002-.132.1-.228.219-.097.118-.13.179-.073.135.06-.048.102-.055.102-.019 0 .035.05.059.113.054.062-.005.102-.027.088-.049-.014-.022.016-.056.067-.075.126-.049.154-.045.117.015-.018.028.088.028.242 0 .31-.058.772-.012 1.054.106.272.113.235.146-.051.045a1.505 1.505 0 0 0-.453-.078c-.117.004-.16.018-.095.031.955.2 1.073.244.99.378-.029.047-.052.046-.082-.004-.023-.037-.145-.066-.27-.063l-.55.013a5.152 5.152 0 0 1-.654-.034c-.391-.05-.566.02-.847.34-.203.23-.43.282-.43.1 0-.061.066-.154.147-.207.08-.052.146-.125.146-.162 0-.036-.051-.02-.115.038-.085.077-.156.092-.277.057l-.164-.046.2-.034c.338-.057.27-.152-.097-.137-.241.01-.303-.001-.22-.04.08-.036.089-.054.03-.057-.048-.002.044-.072.205-.156.16-.083.344-.208.409-.277.064-.07.196-.192.292-.272.127-.105.11-.074-.058.11-.129.14-.313.303-.41.364-.097.06-.135.11-.086.11.11 0 .736-.618.713-.706-.009-.036.064-.155.161-.266.208-.237.218-.287.06-.299-.071-.005-.159.054-.219.149a.83.83 0 0 1-.168.2c-.037.024-.083.103-.103.175-.042.16-.428.442-.67.49-.213.043-.674-.188-.626-.314.018-.047.005-.063-.034-.039-.042.026-.05 0-.026-.078.024-.077.006-.129-.053-.151-.049-.02-.086-.095-.082-.168.005-.104.013-.11.034-.028.018.07.05.088.095.052.107-.083.328-.123.363-.066.041.066.365-.221.41-.363.02-.063.09-.109.166-.109.101 0 .192-.103.402-.456.316-.531.9-1.123 1.11-1.123.11 0 .168.063.282.307.104.225.202.339.363.424.193.102.228.106.277.03.031-.049.057-.062.058-.03.001.033.023.026.049-.015.032-.05.088.002.182.169.132.234.133.244.026.307a.532.532 0 0 1-.228.066c-.175 0-.196.42-.03.6.17.182.525.181.643 0 .047-.073.08-.15.075-.17-.006-.02.039-.08.098-.135.103-.092.114-.09.2.032.074.106.162.135.46.156.202.013.381.047.398.075s.4.047.848.043c.798-.008.818-.005.836.12.01.071.062.128.117.129.74.015 1.26.12 1.998.398.432.163.793.29.802.28.009-.009-.039-.075-.106-.148-.067-.072-.104-.149-.083-.17.022-.022.063.002.092.053.028.051.158.222.288.379.25.303.27.347.177.404-.032.02-.058.012-.058-.019 0-.081-.209-.12-.3-.057-.063.044-.064.063-.007.086.203.082-.067.167-.717.225-.064.006-.254.03-.422.054-.261.037-.33.026-.482-.083-.098-.069-.177-.163-.177-.21 0-.046-.02-.087-.044-.09l-.161-.025a5.074 5.074 0 0 1-.755-.176c-.079-.032-.1-.026-.07.022.027.045.01.055-.054.03-.077-.029-.08-.046-.018-.085a.242.242 0 0 1 .176-.019c.154.048.284.068.692.106.398.037.382.006-.059-.112l-.263-.07.342-.004c.188-.001.354-.015.37-.03.014-.015-.166-.055-.401-.09l-.428-.06.439.024c.24.014.57.036.73.05.226.02.26.013.151-.03a.562.562 0 0 0-.234-.04.302.302 0 0 1-.179-.039c-.048-.03-.337-.1-.643-.157-.554-.103-.554-.104-.147-.073a6.04 6.04 0 0 1 1.71.38c.466.186.718.173.298-.015-.66-.296-1.145-.463-1.507-.52-.51-.078-1.086-.052-1.086.05 0 .041-.037.098-.082.126a.123.123 0 0 0-.045.144c.02.051.01.093-.02.093s-.108.046-.17.103c-.244.221-.288.24-.51.21a2.745 2.745 0 0 0-.635-.022.95.95 0 0 1-.424-.076c-.024-.014-.103-.003-.175.024-.164.062-.19.338-.03.325.079-.006.099.03.086.153-.01.088.01.211.044.273.066.124.02.316-.063.264-.078-.048-.063.056.021.147.059.063.058.07-.004.035-.048-.028-.072-.015-.064.035a.403.403 0 0 1-.033.185c-.026.06-.02.132.012.165.08.079.878.185 1.084.144.102-.02.152-.01.13.025-.02.031.006.057.056.057s.091-.026.091-.058.066-.059.146-.059c.08 0 .146.027.146.059s.052.058.114.058c.062 0 .13-.026.15-.058.02-.034.318-.06.69-.06.65 0 .852-.044.776-.167-.042-.069.072-.044.3.065.141.068.325.05 1.296-.127.366-.066.854-.12 1.085-.12.38 0 .56-.058.56-.179 0-.02-.138-.018-.307.006-.626.09-1.129.118-1.038.057a.603.603 0 0 1 .263-.062 3.91 3.91 0 0 0 .556-.086l.38-.083-.584.032c-.322.017-.57.016-.55-.003.053-.054 1.181-.198 1.273-.163.065.025.06.049-.028.114-.105.079-.103.082.035.064.131-.017.148.004.165.2.02.248.076.271.245.102.064-.064.117-.087.117-.05 0 .168 1.875-.18 1.996-.37.04-.063.049-.063.05 0 0 .051.04.064.121.039.11-.035.12-.018.102.186l-.018.225-.332.052c-.242.039-.339.081-.359.158-.036.137.003.17.207.17.098 0 .154-.025.133-.059-.022-.036.088-.058.293-.058.47 0 .879-.21 1.292-.662.182-.199.302-.307.268-.24-.204.395-.832.864-1.297.968-.146.033-.08.04.225.027.36-.017.45-.042.555-.157l.126-.137-.132.11c-.072.06-.146.095-.164.077-.018-.018.061-.105.177-.193.115-.088.318-.295.451-.46s.226-.252.206-.196c-.02.056-.01.102.023.102.036 0 .044.053.022.125-.025.078-.01.143.04.174.066.042.065.05-.003.051-.064.001-.06.027.02.114.098.109.097.112-.035.08l-.137-.034.14.125c.078.07.168.126.2.126.033 0 .044.015.026.034s-.092.003-.161-.034c-.163-.087-.21-.042-.085.082.097.098.367.114.862.051.183-.023.21-.042.154-.11-.038-.045-.157-.082-.266-.082-.157 0-.198-.023-.198-.114 0-.087.053-.123.22-.15.367-.06.41-.083.112-.062-.167.012-.262 0-.23-.032.043-.044 1.207-.162 1.638-.167.19-.002.162-.083-.071-.209-.112-.06-.217-.145-.234-.188-.019-.05-.003-.063.043-.037.04.022.03-.005-.022-.06s-.183-.122-.292-.15a13.93 13.93 0 0 1-.783-.251c-.483-.168-1.05-.29-1.414-.304a.193.193 0 0 1-.112-.045c-.024-.024-.117-.044-.206-.044-.09 0-.178-.026-.198-.058-.02-.032-.097-.059-.171-.059a.569.569 0 0 1-.286-.118c-.143-.113-.163-.115-.373-.027-.202.084-.226.084-.29-.002-.06-.084-.073-.08-.107.041-.064.228-.164.399-.233.399-.037 0-.1.033-.14.073-.04.04-.196.119-.347.175l-.275.101.263-.034c.341-.046.656-.223.786-.443.115-.193.16-.172.258.12.06.182.057.194-.05.166-.087-.022-.117-.001-.117.081 0 .088-.042.112-.2.112-.443 0-.525.148-.092.168.16.007.292-.012.292-.042 0-.03.054-.068.12-.086.098-.025.117-.007.103.096-.018.124-.034.126-.837.105-.45-.012-.828-.045-.838-.073-.011-.028-.064-.051-.117-.05-.078 0-.081.01-.018.051.103.065-.28.2-.473.167-.115-.019-.105-.031.072-.086l.204-.064-.214-.006c-.213-.005-.575-.236-.575-.367 0-.033.075.02.166.118.159.17.182.176.54.149.457-.036.524-.078.137-.087l-.288-.007.377-.075c.207-.041.409-.062.448-.047.04.015.212-.04.384-.121.224-.107.356-.22.468-.4.21-.335.346-.737.267-.786-.038-.023-.043-.009-.014.04.032.05.025.062-.022.033-.038-.024-.061-.086-.052-.139.034-.204-.178-.135-.311.102-.073.13-.166.237-.206.237a.61.61 0 0 0-.174.04c-.07.026-.088.017-.06-.03.024-.038.021-.07-.005-.073-.363-.034-.584-.032-.634.008-.033.027-.158.026-.278 0-.126-.03-.217-.028-.217.003 0 .03-.051.02-.114-.018-.163-.102-.204-.026-.09.167l.096.166-.107-.143c-.294-.394-.293-.393-.41-.279-.102.101-.102.111.002.293l.107.188-.14-.132c-.204-.19-.302-.172-.258.048.032.164.025.175-.093.138a.598.598 0 0 1-.204-.117.563.563 0 0 0-.193-.113c-.124-.04-.16-.146-.05-.146.044 0 .04-.03-.01-.091a.529.529 0 0 1-.092-.24.352.352 0 0 0-.112-.219c-.053-.038-.091-.108-.085-.155.022-.152 0-.238-.053-.205-.029.017-.064-.047-.078-.143-.017-.12.008-.206.081-.272.06-.053.107-.078.107-.055s.059 0 .13-.05a.725.725 0 0 1 .351-.09c.122 0 .221-.028.221-.062s.026-.046.058-.026.059-.002.059-.048c0-.047.05-.098.113-.114.085-.023.105-.064.08-.168-.027-.11-.019-.124.042-.068.092.087.291-.003.291-.13 0-.048.023-.086.05-.086s.075-.086.105-.19c.038-.133.094-.196.188-.21.129-.018.13-.023.028-.107-.078-.063-.083-.08-.018-.06.072.022.087-.017.073-.185-.013-.169-.005-.189.038-.096.03.064.056.084.058.044.003-.04.071-.073.152-.073.102 0 .164-.044.201-.14a.435.435 0 0 1 .119-.182c.047-.029.046-.062-.004-.122-.054-.065-.049-.083.026-.083.053 0 .095-.04.095-.087s.029-.088.063-.088.102-.04.15-.088c.108-.107.11-.107-.246-.002-.373.11-.738.156-.695.086.05-.083.005-.068-.321.101-.273.142-.647.457-.647.546 0 .02-.118.163-.263.319a2.955 2.955 0 0 0-.424.622c-.153.324-.17.34-.38.343-.12.001-.22-.018-.22-.044s-.098-.048-.218-.049a1.634 1.634 0 0 1-.366-.046 1.99 1.99 0 0 0-.322-.06 1.17 1.17 0 0 1-.359-.11c-.17-.087-.188-.086-.277.011-.052.058-.095.136-.095.174 0 .037-.021.068-.048.068s-.049.036-.049.08c0 .05.042.069.11.05.065-.016.212.043.356.144.237.166.743.336 1.196.402.307.044.378.075.336.143-.022.036-.075.039-.135.007-.054-.028-.257-.068-.45-.088a12.94 12.94 0 0 1-.861-.135c-.517-.1-.611-.09-.554.06.023.06.21.093.723.123.432.026.747.074.838.127l.147.086-.176-.03a12.248 12.248 0 0 0-.643-.064l-.716-.057c-.235-.02-.245-.014-.185.098.102.19-.007.24-.43.194l-.38-.04-.056-.35c-.055-.338-.053-.348.066-.316.067.019.217.05.333.07.196.032.216.022.273-.142.034-.097.047-.192.028-.21-.019-.02-.004-.035.034-.035.037 0 .068-.026.068-.058s-.043-.059-.095-.059c-.076 0-.081-.016-.024-.085.039-.047.054-.113.033-.146-.02-.034-.01-.061.024-.061s.062-.046.063-.103c0-.078.012-.084.05-.024.038.06.057.049.082-.044.017-.067.007-.136-.022-.155-.03-.018-.015-.07.031-.117.1-.1.032-.365-.133-.514-.116-.105-.36-.067-.36.057 0 .099-.065.102-.259.014-.108-.05-.167-.05-.225-.002-.097.08-.413.003-.814-.2-.395-.2-.648-.491-.427-.491.048 0 .088-.04.088-.088 0-.048.028-.088.062-.088s.043.03.02.068c-.027.043-.016.052.03.023.039-.024.056-.059.038-.077s.013-.088.069-.154c.098-.116.098-.118-.006-.037-.144.113-.253.124-.328.033-.045-.053-.038-.094.024-.145.072-.06.082-.052.063.047-.016.082.002.11.058.088.059-.023.066-.068.026-.172-.057-.15-.007-.186.103-.075.05.049.062.038.05-.044-.012-.07-.056-.103-.125-.09-.092.017-.096.006-.03-.073.09-.108.003-.127-.101-.023-.054.054-.07.054-.07 0 0-.038.085-.104.19-.148a.851.851 0 0 0 .273-.18c.077-.092.07-.097-.088-.06-.094.022-.31.18-.48.35-.169.172-.366.33-.438.352-.071.023-.143.06-.159.085-.043.064-.657.419-.619.357.018-.03-.23-.087-.551-.128s-.584-.1-.584-.13c0-.031-.045-.02-.1.024-.067.054-.084.057-.054.007.03-.052-.008-.073-.135-.073-.099 0-.18-.028-.18-.063 0-.034-.058-.058-.13-.052-.289.024-.346.001-.327-.129.01-.07.056-.139.1-.154.045-.014.066-.002.047.029-.02.032.039.045.138.03.095-.014.173-.055.174-.092 0-.036.026-.027.057.022.038.058.057.063.058.014 0-.04.028-.073.062-.073s.057.033.051.073c-.018.145.006.226.058.193.03-.018.07 0 .088.04.027.06.04.06.068 0 .02-.04.062-.056.095-.036s.08.005.104-.034c.029-.047.058-.017.084.087.036.143.06.156.237.127a.755.755 0 0 0 .367-.21c.134-.14.186-.163.242-.106.057.056.064.05.033-.031-.024-.063-.011-.103.032-.103.04 0 .056-.038.038-.086-.018-.047-.007-.101.025-.121.031-.02.05-.08.041-.133-.011-.068.023-.097.11-.094.08.002.115-.024.096-.073-.02-.052.02-.078.123-.078.097 0 .152-.032.152-.09 0-.048.046-.106.102-.127a.471.471 0 0 0 .18-.145c.042-.06.1-.093.128-.076.028.017.072-.005.098-.049a.528.528 0 0 1 .18-.15c.072-.037.13-.12.13-.184 0-.097-.026-.11-.16-.079-.132.032-.148.024-.088-.04.088-.093.097-.23.015-.23-.032 0-.059.04-.059.089s-.026.087-.058.087-.059-.03-.059-.065c0-.048-.022-.047-.082.002-.066.055-.093.036-.141-.095-.052-.142-.06-.147-.064-.035-.003.07-.035.147-.073.17-.037.022-.052.016-.033-.014.02-.031.01-.094-.019-.141-.03-.047-.054-.055-.055-.019 0 .037-.056.081-.123.099-.115.03-.116.025-.025-.075.072-.08.079-.119.027-.15-.04-.026-.093-.003-.124.052-.063.112-.223.129-.224.023 0-.046-.017-.051-.044-.015-.055.074-.21.109-.165.037.019-.03-.008-.07-.059-.09-.16-.061-.218-.04-.14.053.062.076.038.088-.172.088-.135 0-.23-.024-.212-.053.018-.03-.022-.039-.09-.021-.094.024-.104.044-.043.087.052.036.02.042-.098.016a.736.736 0 0 1-.263-.113 1.372 1.372 0 0 0-.175-.123c-.076-.043-.077-.036-.008.05.048.058.055.098.018.098-.1 0-.142-.115-.072-.2.05-.06.041-.087-.033-.116-.17-.065-.046-.1.13-.036l.17.06-.163-.145-.163-.145.192.032c.173.03.182.024.09-.051-.138-.113-.13-.178.01-.102.182.097.224.072.202-.121-.017-.142-.002-.175.066-.148.048.018.087.012.087-.015s.064-.121.141-.212l.142-.164.546.042c.3.024.637.055.75.07s.507.034.877.04c.37.007.703.032.74.056.047.03.058.006.036-.08-.03-.111-.02-.116.098-.053.163.087.222.037.114-.096-.054-.066-.057-.085-.008-.056.122.074.081-.061-.076-.248-.082-.097-.2-.193-.264-.213-.063-.02-.101-.06-.084-.088.017-.028-.015-.05-.072-.05-.224 0-.6-.084-.6-.136 0-.03-.025-.039-.055-.02s-.071.007-.091-.026c-.022-.035.034-.06.136-.06.106 0 .186-.036.21-.095.02-.053.052-.08.071-.061.02.02.108-.002.196-.048.088-.046.17-.073.183-.061.02.02.02-.222 0-.378-.004-.032-.047-.058-.095-.058s-.088-.026-.088-.059c0-.103.193-.062.338.074l.141.131-.02-.14c-.012-.085-.065-.148-.13-.158a.347.347 0 0 1-.176-.085c-.05-.054-.035-.054.066-.002.073.037.132.045.132.016 0-.086-.285-.186-.531-.186-.306 0-.588.122-.747.323-.175.223-.215.15-.052-.095.179-.269.578-.456.94-.44.158.008.302.047.329.09.026.043.078.06.115.037.088-.055.54.439.741.808.135.247.152.332.125.643-.032.374-.224.887-.304.812-.025-.024-.007.035.041.131.161.325.348.969.31 1.068-.02.054-.02.08.003.058.022-.022.146.09.276.25.13.16.256.291.28.291.025 0 .142.092.262.205.191.18.202.204.092.204-.149 0-.165.09-.03.165.076.043.088.106.057.312-.03.204-.106.33-.359.604-.353.383-.417.54-.174.43.08-.037.146-.088.146-.112 0-.062.172-.229.235-.229.028 0 .035.112.015.249-.02.136-.039.331-.041.433-.003.12-.025.168-.064.135-.039-.032-.061-.01-.061.06 0 .06.018.098.04.084s.122-.008.221.012c.126.025.182.07.182.145 0 .06-.039.11-.086.11-.056 0-.074-.035-.05-.102.029-.085.02-.083-.054.011-.107.138-.095.29.026.313.053.01.119-.055.163-.163.041-.099.089-.166.106-.149.017.017.066-.02.11-.083.05-.071.117-.1.176-.078.057.022.081.013.06-.022-.02-.032 0-.058.046-.058.045 0 .069.022.052.049-.054.087.203.015.319-.09a.483.483 0 0 1 .241-.112.25.25 0 0 0 .183-.111c.03-.056.09-.089.132-.073.043.017.111-.01.153-.06.04-.05.102-.09.136-.09.034 0 .138-.086.231-.19.093-.105.15-.151.126-.103-.03.059-.002.051.083-.024.07-.06.127-.089.127-.062s.053-.007.117-.076c.065-.069.117-.156.117-.194 0-.05.022-.05.086.003.07.059.081.051.063-.041-.03-.158.047-.26.163-.216.053.02.079.068.057.104-.022.037.004.031.059-.013s.099-.054.099-.022c0 .037.088.039.248.005.137-.03.28-.057.32-.06.038-.005.056-.03.04-.058-.018-.027-.063-.032-.1-.01-.04.023-.049.017-.021-.014a.189.189 0 0 1 .117-.054c.038-.001.065-.047.06-.102-.004-.055.01-.09.032-.076s.078.002.123-.026c.051-.032.116-.025.17.018.067.055.076.054.042-.003-.057-.095-.01-.092.193.013.22.113.583.536.763.888.147.286.254.43.322.43.02 0 .02-.033 0-.074-.02-.04.031.006.115.103.235.272.241.394.038.75-.203.354-.223.449-.094.449.048 0 .088-.031.088-.069 0-.037.016-.051.037-.03s.086-.026.146-.103c.073-.093.148-.128.227-.108.13.035.229.146.106.121-.047-.01-.076.035-.073.115.003.08-.039.144-.109.167-.135.042-.393.258-.393.328 0 .027.078.01.173-.04.191-.099.504-.119.555-.035.019.03-.005.092-.052.139-.047.047-.067.106-.044.131.022.025.01.028-.027.007s-.054-.091-.037-.156c.04-.153-.055-.146-.421.033-.213.104-.25.137-.135.122.226-.03.258.116.035.16-.15.03-.167.05-.105.124.107.13-.013.12-.81-.061-.078-.018-.121-.008-.101.024.019.031.001.072-.039.09-.04.02.005.024.102.01.19-.028 1.451.238 1.478.31.009.025.094.033.19.02.104-.016.174 0 .174.039 0 .036.037.065.083.065.045 0 .093.031.106.069.014.044.052.05.107.016.126-.078.228-.083.214-.008-.007.036.08.083.192.104.112.02.17.041.128.045-.042.005-.06.035-.04.067s.065.042.1.02c.042-.025.053.005.032.085-.045.17.06.24.383.259.15.009.274.032.274.052 0 .02.08.053.18.073.099.02.162.062.142.095-.02.032-.009.059.025.059s.062-.027.062-.06c0-.032.105.007.232.088.157.099.221.118.199.059-.023-.06.003-.087.083-.087.064 0 .113.033.108.073-.004.04.019.08.05.088.033.008.06-.019.062-.059a.059.059 0 0 1 .073-.058c.039.008.07-.012.07-.044s.055-.059.12-.059c.067 0 .105-.026.085-.058-.02-.032.017-.059.081-.059s.133-.026.153-.057c.02-.034-.01-.046-.07-.029-.058.017 0-.023.129-.087.128-.064.312-.132.409-.151a.906.906 0 0 0 .33-.163c.142-.116.152-.15.113-.4-.056-.355.02-.481.303-.506l.219-.02v1.44c0 1.422-.002 1.439-.117 1.377-.099-.053-.128-.04-.182.078-.047.103-.046.174.002.265.081.151.153.158.237.022.072-.116.052 1.64-.02 1.802-.032.07-.098.084-.283.059-.267-.037-.356-.146-.16-.197.069-.018.112-.055.095-.082-.042-.068-.566-.019-.566.053 0 .032.039.044.087.026.072-.028.075-.015.015.081-.04.063-.112.115-.16.116-.079 0-.079.007 0 .058.077.051.077.064 0 .115-.068.044-.044.058.102.059.13 0 .19-.027.19-.087 0-.065.067-.088.26-.088.28 0 .417.104.208.159-.078.02-.102.049-.062.073.106.066.002.25-.122.217-.06-.016-.109-.003-.109.028s-.054.018-.12-.028a.33.33 0 0 0-.234-.055c-.09.023-.138-.026-.228-.226l-.115-.255.154-.03c.147-.027.15-.034.052-.131-.124-.125-.186-.127-.497-.017-.133.047-.286.069-.339.048-.067-.026-.057.003.034.094.075.075.123.185.112.259-.015.106-.056.128-.247.128-.14 0-.239-.031-.255-.08-.02-.058.008-.068.106-.037.11.035.126.025.095-.057a.577.577 0 0 1-.038-.16c0-.034-.044-.04-.103-.016a1.142 1.142 0 0 1-.356.032c-.165-.006-.24.012-.216.051.021.034.078.062.126.062s.073.024.055.053 0 .067.04.083c.044.018.031.032-.03.035-.058.002-.12-.035-.139-.083-.024-.065-.125-.088-.378-.088-.303 0-.434.057-.3.132.053.03-.073-.003-.18-.047-.043-.017-.146.037-.23.12-.092.093-.165.127-.189.09-.02-.034.003-.078.054-.097.16-.062.098-.14-.113-.14-.113 0-.205-.026-.205-.06 0-.035.063-.043.155-.02.109.027.142.02.113-.028-.022-.037-.116-.067-.208-.067-.092 0-.177-.03-.19-.066-.014-.044-.054-.034-.117.029-.053.052-.137.095-.188.095-.125 0-.115.054.034.184l.126.109-.199-.023-.254-.03c-.03-.003-.013-.039.037-.079s.109-.145.13-.234l.037-.16-.396.004c-.218.002-.448.024-.512.049-.114.044-.114.046.006.11.07.038.144.043.174.013.082-.08.389-.097.415-.023.031.09-.155.155-.24.085-.042-.035-.1-.036-.153-.002-.047.03-.175.038-.284.018-.141-.026-.187-.018-.158.03.023.037.007.066-.037.066-.043 0-.125.08-.182.176-.057.096-.122.177-.145.18-.41.048-.558 0-.496-.162.03-.076-.003-.084-.21-.049-.267.046-.496-.057-.346-.154.061-.04.059-.06-.012-.107-.051-.034-.059-.058-.018-.058.038 0 .11.04.16.09.074.074.112.077.223.017.124-.069.113-.077-.19-.14-.287-.06-.302-.07-.145-.098.11-.02.088-.024-.059-.012-.128.01-.286.032-.35.047-.065.015-.179.03-.254.032-.258.008-.097.15.17.15.142 0 .259.027.26.06 0 .031.023.092.05.135.03.049.01.106-.06.158-.104.08-.104.083.012.084a.299.299 0 0 0 .189-.067c.038-.038.087-.051.11-.029.06.06-.163.21-.331.222-.26.02-.276.023-.358.09-.05.04-.13.046-.207.017-.213-.08-.204-.158.024-.2a.685.685 0 0 0 .318-.147c.094-.1.09-.108-.104-.144-.112-.021-.188-.063-.17-.092.02-.032-.115-.047-.33-.035-.273.015-.342.004-.28-.045.189-.148.1-.272-.112-.158a1.48 1.48 0 0 1-.382.084c-.256.028-.273.023-.175-.053.102-.08.099-.084-.05-.067-.167.018-.298.1-.16.1.06 0 .056.025-.02.101-.078.078-.125.087-.201.039-.07-.044-.16-.045-.293-.004-.197.06-.387-.021-.281-.12.026-.025.059-.015.072.022.018.05.068.05.197.001.175-.066.2-.156.058-.204-.046-.015-.06 0-.037.04.043.068-.053.09-.31.068-.127-.011-.137.005-.104.169.033.163.022.18-.109.18-.08 0-.144-.027-.144-.06 0-.04-.048-.036-.132.01a.452.452 0 0 1-.146.06c-.057-.038-.19.002-.161.049.02.032-.008.058-.061.058-.065 0-.086-.03-.062-.092a.598.598 0 0 0 .035-.117c0-.014.06-.025.132-.026.113 0 .36-.106.278-.118-.389-.057-.527-.048-.527.032 0 .054-.05.085-.131.08-.104-.005-.11-.012-.026-.034.06-.015.097-.069.087-.124-.021-.109-.218-.168-.273-.082-.045.069-.716.13-.674.061.03-.047-.11-.223-.176-.223-.017 0-.007.066.024.146.044.115.037.146-.03.146-.13 0-.105.15.042.247l.129.086-.158.03c-.136.026-.159.011-.159-.108 0-.076-.025-.138-.056-.138s-.042-.04-.023-.087c.04-.104-.003-.11-.16-.027-.063.034-.1.084-.084.112.017.027-.022.036-.087.02s-.132-.055-.15-.083c-.045-.073-.492-.064-.492.01 0 .037-.116.054-.293.044-.2-.012-.292-.043-.292-.098 0-.064-.018-.066-.085-.01a.243.243 0 0 1-.205.032c-.144-.045-.16.07-.034.237.117.154.11.201-.027.201-.064 0-.117.028-.117.062s.033.044.073.023c.04-.022-.006.028-.102.111-.385.332-.39.34-.277.425.092.07.086.077-.058.08-.11 0-.15-.023-.128-.078.024-.064-.07-.075-.483-.057-.283.013-.54.048-.57.08-.078.077-.213.07-.195-.01.008-.036-.018-.078-.058-.092-.04-.015-.073.016-.073.069s-.025.08-.056.061c-.03-.019-.041-.073-.023-.12.076-.2-.359-.108-.513.108-.02.028-.053-.017-.074-.1zm1.941-.218c.315-.077.485-.2.44-.319-.019-.048.005-.082.056-.082.14 0 .167-.16.033-.195-.116-.03-.116-.032.007-.154.13-.13.107-.266-.036-.211-.048.018-.07.007-.05-.026.057-.092-.07-.067-.305.059-.143.076-.237.096-.275.058a.237.237 0 0 0-.148-.057c-.08.001-.08.008-.003.059.078.051.078.064 0 .116a.321.321 0 0 1-.22.029c-.134-.032-.162.008-.086.126.041.065.375.057.486-.012.03-.018.054-.01.054.02 0 .137-.54.25-.614.13-.02-.033-.1-.06-.179-.06-.078 0-.143-.015-.143-.034 0-.072.269-.254.38-.257.098-.002.103-.012.03-.06-.073-.047-.062-.065.058-.1l.146-.04-.175-.04c-.322-.072-.454-.06-.418.035.026.066-.01.087-.142.087-.197 0-.522.147-.522.236 0 .031.038.057.084.057.097 0 .267.156.267.245 0 .04-.127.047-.374.02-.245-.025-.388-.018-.413.023-.021.035-.103.063-.181.063-.079 0-.143.026-.143.057 0 .098.295.137.568.075.206-.047.297-.041.436.028.129.064.193.07.24.022.101-.1.335-.08.335.029 0 .067.037.085.131.064a.48.48 0 0 1 .249.019c.064.026.125.05.135.052.01.003.141-.025.292-.062zm.187-.284c0-.032.026-.059.058-.059s.059.027.059.059-.026.058-.059.058-.058-.026-.058-.058zm8.889-.234.146-.047-.147-.006c-.172-.007-.345-.229-.232-.299a.271.271 0 0 1 .18-.014c.062.016.111.002.111-.03 0-.065-.263-.116-.429-.083-.084.017-.099.055-.068.177.02.086.062.164.092.175.03.01.054.057.054.102 0 .09.069.097.293.025zm4.561-.176c0-.032-.04-.058-.091-.058s-.075.026-.055.058.06.059.091.059c.03 0 .055-.027.055-.059zm-12.104-.173c-.074-.047-.073-.06.009-.09a.424.424 0 0 1 .174-.026c.161.022.283-.005.283-.063 0-.034-.061-.044-.146-.023-.091.023-.146.012-.146-.029s-.055-.03-.146.03c-.08.052-.181.081-.224.065a.206.206 0 0 0-.162.021c-.062.04-.05.053.05.054.072 0 .131.027.131.059s.06.058.132.057c.104 0 .113-.012.045-.055zm5.715-.153c-.056-.056-.168.034-.126.102.025.04.057.038.1-.004.034-.034.046-.078.026-.098zm-4.942.054a.226.226 0 0 0-.146 0c-.04.016-.007.03.073.03s.114-.014.073-.03zm1.362-.184c-.014-.014-.073-.005-.131.02a.355.355 0 0 1-.149.036c-.095-.02-.037.1.059.123.097.022.277-.123.221-.179zm.495.164c0-.032-.025-.059-.055-.059s-.071.027-.091.059.005.058.055.058.091-.026.091-.058zm7.88.023c-.02-.02-.07-.021-.113-.005-.047.02-.033.033.035.036.062.002.096-.011.077-.03zm-8.794-.11c.024-.064-.007-.088-.111-.088-.14 0-.185.057-.105.136a.131.131 0 0 0 .216-.049zm-6.492-.06c-.023-.06.005-.087.09-.087.068 0 .123.028.123.062s.028.045.062.024c.089-.055-.05-.203-.19-.203a.584.584 0 0 1-.23-.062.348.348 0 0 0-.215-.036c-.08.022-.073.035.037.07.075.025.16.106.188.182.03.076.08.138.111.138s.043-.039.024-.087zm1.016.053c-.02-.02-.07-.021-.112-.004-.047.018-.033.032.035.035.062.002.096-.011.077-.03zm-.386-.204c.06-.039.051-.051-.039-.052-.082 0-.122.04-.129.13-.007.092.005.107.04.051a.486.486 0 0 1 .128-.13zm.152.146c-.02-.02-.07-.022-.112-.005-.047.019-.033.033.035.035.062.003.097-.01.077-.03zm8.392-.493a8.88 8.88 0 0 1 .79-.056c.17 0 .308-.027.308-.06 0-.073-.258-.069-1.154.02-.439.044-.744.102-.79.15-.061.066-.037.072.144.04.12-.021.436-.064.702-.094zm7.164-.092c-.02-.02-.07-.022-.112-.005-.047.019-.033.033.035.036.062.002.096-.012.077-.031zM5.55 17.064a2.185 2.185 0 0 0-.41 0c-.104.013-.004.023.22.023.226 0 .311-.01.19-.023zm14.183-.058a.833.833 0 0 0-.264 0c-.072.014-.013.026.132.026.145 0 .204-.012.132-.026zm.89-.191c.033-.053-1.247-.018-1.31.036-.013.012.268.021.626.021.36 0 .665-.025.685-.057zm-17.22-.41c.034-.065.046-.117.027-.117-.078 0-.261.124-.261.177 0 .103.17.059.234-.06zm18.187.025a.156.156 0 0 0-.068-.119c-.045-.028-.051-.016-.02.036.036.057.021.067-.054.038-.115-.044-.227.002-.182.075.049.078.324.053.324-.03zm.068-.156c-.043-.043-.051-.02-.026.077.021.079.048.105.062.061a.15.15 0 0 0-.036-.138zm-10.053-.2a.335.335 0 0 0-.175-.002c-.057.014-.025.027.072.029.096 0 .143-.011.103-.027zm-8.055-.126c-.018-.018-.065 0-.105.04-.057.058-.05.064.033.033.057-.022.09-.055.072-.073zm7.802-.009.132-.114-.166-.035a29.88 29.88 0 0 0-.273-.057c-.144-.029-.094.1.072.182.092.047.108.076.054.098-.043.017-.05.033-.015.036.036.002.124-.047.196-.11zm.559.056c-.02-.032-.094-.058-.164-.057-.104 0-.112.011-.04.057.115.075.25.075.204 0zm-7.18-.21c-.019-.02-.07-.022-.112-.005-.046.018-.032.032.036.035.061.003.096-.011.076-.03zm16.741-.024c0-.032-.011-.058-.025-.058-.015 0-.042.026-.062.058s-.009.059.025.059a.06.06 0 0 0 .062-.059zm-10.617-.054a.615.615 0 0 0-.23-.092l-.176-.038.146.086c.166.099.347.129.26.044zm11.02-.038c.011-.011.006-.058-.011-.105-.045-.115-.665-.254-.751-.169-.095.095-.011.182.216.224.112.021.218.063.237.093.028.046.241.016.308-.043zm-17.888-.551c.035-.064.05-.117.034-.117s-.058.053-.092.117c-.035.064-.05.117-.033.117s.057-.053.091-.117zm-1.403-.198c0-.032-.039-.007-.086.055a.42.42 0 0 0-.086.172c0 .032.039.008.086-.055a.42.42 0 0 0 .086-.172zM7 14.906c-.052-.052-.109-.08-.126-.062-.053.052.037.157.133.157.076 0 .075-.013-.007-.095zm1.21.03c-.023-.021-.21-.052-.418-.07-.216-.018-.342-.01-.295.018.054.034.006.057-.15.07-.127.012.024.02.336.02.312-.001.549-.019.526-.039zm-3.813-.1c0-.028-.039-.05-.085-.05s-.072.022-.055.05a.112.112 0 0 0 .085.048c.03 0 .055-.022.055-.049zm4.181-.13c-.564-.064-1.846-.094-1.795-.043.039.038.753.071 1.795.084l.41.005-.41-.046zm-4.477-.725c.039-.046.108-.07.154-.052s.083.003.083-.033c0-.035-.04-.065-.088-.065-.048 0-.087-.028-.087-.063 0-.036.104-.059.248-.053.137.005.31-.01.385-.033.121-.037.132-.067.098-.253-.105-.56-.405-.445-.792.3-.162.312-.163.447 0 .252zm5.872-.12c-.018-.049-.044-.088-.056-.088-.013 0-.023.04-.023.088s.025.087.056.087.042-.04.023-.087zm5.228-.731c.02-.072.013-.074-.033-.007-.066.093-.208.03-.149-.066.025-.04.006-.051-.051-.029-.05.02-.109.019-.129-.002-.06-.06-.212-.066-.175-.007.018.03.058.039.088.02.03-.018.054.023.054.09 0 .105.03.122.186.107.103-.01.196-.057.209-.106zm-1.506-.263c-.04-.048-.096-.072-.125-.054-.074.046-.003.141.106.141.075 0 .078-.016.02-.087zm-3.119-1.112c0-.081-.148-.173-.199-.122-.014.014-.01.08.011.144.041.13.188.112.188-.022zm5.75-.036c0-.032-.026-.042-.058-.022s-.058.062-.058.094.026.043.058.023.058-.063.058-.095zm-7.339-.168c-.058-.065-.148-.116-.199-.113-.064.002-.053.023.038.067.073.035.132.086.132.113 0 .027.03.05.068.05.038 0 .021-.051-.039-.117zm6.872-.092c0-.05.023-.076.051-.059.029.018.066-.04.083-.127.029-.152.026-.154-.057-.043-.154.207-.203.32-.138.32.033 0 .06-.04.06-.09zm.467-.227c0-.014-.026-.042-.058-.061s-.059-.009-.059.025.027.062.059.062.058-.011.058-.026zm-1.904-.414c.11-.083.108-.086-.036-.086-.083 0-.183.04-.223.088-.06.072-.054.087.036.085a.46.46 0 0 0 .223-.087zm-5.99-.265c0-.03-.022-.055-.049-.055s-.049.038-.049.085.022.072.049.055.049-.055.049-.085zm.326-.062c.05-.08-.058-.06-.184.033-.109.082-.108.084.02.052.072-.019.146-.057.164-.085zm4.937-.402c0-.033-.012-.059-.026-.059-.014 0-.042.026-.062.059s-.008.058.026.058.062-.026.062-.058zm-3.246-.527c.02-.032.009-.058-.025-.058-.035 0-.062.026-.062.058s.011.059.025.059.042-.027.062-.059zM9.177 9.47c-.02-.02-.07-.022-.112-.005-.047.019-.033.032.035.035.062.003.097-.011.077-.03zm.706-.094c.128-.128.073-.147-.237-.084-.288.058-.296.065-.131.101.267.06.293.059.368-.017zm-4.47-1.131c-.02-.05-.048-.078-.063-.062s-.01.056.01.09c.058.093.092.075.052-.028zm.622.002c.06-.07.057-.087-.012-.087-.047 0-.085.04-.085.087s.005.088.012.088a.45.45 0 0 0 .085-.088zm.468-.146c0-.032-.012-.058-.026-.058-.014 0-.042.026-.062.058s-.008.059.026.059.062-.027.062-.059zm.16-.62c-.02-.02-.07-.021-.112-.004-.047.018-.033.032.035.035.062.002.096-.011.077-.03zm2.7-.364c.043-.08.037-.107-.022-.107-.045 0-.077.048-.073.107.005.059.015.107.023.107s.04-.048.072-.107zM7.205 19.223c0-.06.126-.187.187-.187.026 0 .047.037.047.083a.13.13 0 0 0 .073.112c.04.016-.013.032-.117.034-.105.003-.19-.016-.19-.042zm.629-.042c.104-.048.19-.104.19-.124 0-.02-.07-.102-.156-.181-.136-.126-.162-.132-.207-.05-.031.054-.129.093-.237.093h-.185l.229-.117c.126-.065.282-.117.346-.117.082 0 .098-.018.053-.063-.109-.11.037-.33.198-.3.075.014.153.053.173.086.022.035.01.043-.03.02-.037-.024-.067-.015-.067.02s.042.061.094.061c.068 0 .085.036.061.128-.056.216.314.396.393.19.02-.05.063-.074.097-.053s.099.007.145-.031c.045-.038.117-.056.158-.039.047.019.037.032-.027.035-.057.002-.103.03-.103.063 0 .032-.05.058-.113.058-.17 0-.2.102-.054.18.079.042.27.057.499.039.203-.016.37-.01.37.012 0 .095-.29.192-.449.15-.181-.047-.27-.047-1.042-.003-.5.028-.517.025-.336-.057zm3.762-.044c-.142-.072-.26-.153-.263-.181-.003-.028.093-.057.214-.064.23-.014.265.016.149.132-.055.055-.014.07.18.07.175 0 .244.022.227.073-.04.12-.233.108-.507-.03zm2.085.06a.716.716 0 0 1-.036-.129c-.01-.067.81-.081.852-.014.047.076-.177.214-.25.154-.037-.032-.144-.03-.263.004-.254.073-.27.073-.303-.015zm1.653.014a.424.424 0 0 1 .191-.057c.058 0 .12-.04.138-.089.037-.097.314-.123.314-.03 0 .033-.05.06-.11.06s-.143.039-.183.087-.155.087-.255.087c-.14 0-.162-.015-.095-.058zm1.11 0c0-.032.027-.058.06-.058s.058.026.058.058-.027.059-.059.059-.058-.027-.058-.059zm.352.036c0-.013.105-.034.233-.046.13-.012.234-.002.234.023s-.105.046-.234.046-.233-.01-.233-.023zm1.73-.056c.019-.051-.02-.148-.09-.224-.165-.177-.052-.208.172-.048.11.078.25.12.367.113a1.28 1.28 0 0 1 .35.031c.101.028.193.018.245-.024.094-.078.519-.022.467.062-.018.028-.16.052-.318.052s-.303.029-.325.064c-.024.039-.121.05-.252.027-.315-.056-.435-.057-.549-.007-.079.035-.095.024-.068-.046zm1.661-.009c0-.048.046-.089.103-.09.097-.001.097-.005 0-.08-.144-.108-.128-.147.058-.147.326 0 .6-.075.6-.164 0-.072.016-.075.087-.016.134.11.106.175-.076.175a.547.547 0 0 0-.278.084c-.11.082-.11.085.028.137.132.049.123.058-.128.12-.35.089-.394.087-.394-.019zm-2.31-.03c.163-.07.367-.07.41 0 .022.037-.072.058-.245.055-.211-.003-.252-.017-.165-.054zm-7.134-.058c.02-.032.048-.058.062-.058s.026.026.026.058-.028.059-.062.059-.046-.027-.026-.059zm1.633-.006c-.022-.036-.007-.085.032-.11.056-.034.05-.08-.027-.196-.098-.15-.097-.152.096-.237l.196-.086-.365.01c-.23.007-.375.038-.393.084-.033.087-.207.1-.207.015 0-.032-.046-.059-.103-.06-.087 0-.089-.008-.014-.057a.268.268 0 0 1 .197-.022c.066.02.095.011.074-.024-.02-.032-.004-.07.036-.085.105-.038.74-.011.784.033.02.02.1.022.175.003.104-.026.137-.01.137.066 0 .065-.03.088-.087.066-.049-.018-.088-.01-.088.017 0 .028-.066.067-.146.087-.08.02-.146.075-.146.122 0 .073.03.072.203-.011.113-.054.224-.077.249-.053.058.058-.151.21-.288.21-.058 0-.106.04-.106.088s.033.088.073.089c.049 0 .044.02-.014.057-.117.076-.219.073-.268-.006zm.63-.064c-.113-.113-.08-.169.076-.13.127.033.146.018.146-.108 0-.146.127-.225.278-.174.115.038.086.107-.076.18-.086.04-.133.097-.11.134.04.065-.069.166-.182.167-.034 0-.093-.03-.132-.069zm-1.997-.044c-.047-.03-.106-.04-.132-.025-.025.016-.046 0-.046-.035 0-.127.186-.133.31-.01.092.093.102.126.039.125a.39.39 0 0 1-.171-.055zm-.822-.071c0-.083.123-.115.294-.078.248.055.215.12-.06.12-.128 0-.234-.019-.234-.042zm7.155.002c.078-.045.126-.044.173.002.047.047.018.064-.108.063-.152-.002-.16-.01-.065-.065zm.594.008c-.02-.032.005-.059.055-.059s.091.027.091.059-.025.058-.055.058-.071-.026-.091-.058zm1.653-.115c-.112-.13-.078-.178.126-.177.109.001.128.016.07.052-.044.028-.063.079-.043.112.07.113-.059.123-.153.013zm-4.215-.005c.038-.04.18-.078.314-.086.134-.007.264-.046.288-.085.03-.049.057-.052.083-.01.053.084-.115.161-.462.21-.23.033-.278.027-.223-.03zm2.282.025c-.05-.05.12-.212.197-.186.035.012.014.065-.049.122-.061.055-.128.084-.148.064zm-6.56-.078c-.038-.06.193-.207.244-.156.017.017.016.072-.003.122-.039.1-.188.121-.241.034zm5.563.017c-.07-.07-.042-.107.137-.186.224-.1.29-.072.228.093-.048.128-.273.185-.365.093zm3.528-.047c0-.052.035-.073.088-.052.048.018.088.057.088.086s-.04.052-.088.052-.088-.039-.088-.086zm-17.47-.014c-.277-.053-.106-.183.294-.225.161-.016.232.002.257.067.048.125-.086.256-.152.149-.034-.055-.06-.06-.089-.014-.04.065-.077.068-.31.023zm6.814-.032a.53.53 0 0 0 .08-.219c.017-.118.048-.142.167-.126.08.011.245.023.366.026.121.004.213.03.204.058-.01.028-.033.042-.05.032-.02-.01-.071.01-.116.047a.228.228 0 0 1-.197.024c-.08-.03-.151-.001-.24.095-.133.143-.326.2-.214.063zm.92.015c.02-.032.047-.059.061-.059s.026.027.026.059-.028.058-.062.058-.046-.026-.026-.058zm5.818.003c0-.03.026-.07.059-.09s.058.004.058.054-.026.091-.058.091-.059-.024-.059-.055zm2.368-.003c-.02-.032.02-.059.088-.059s.108.027.088.059c-.02.032-.06.058-.088.058s-.068-.026-.088-.058zm-15.082-.147c-.119-.09-.13-.08.17-.173.203-.063.066-.129-.213-.102-.173.017-.287.007-.268-.024.018-.03.226-.058.462-.064s.394.003.352.021c-.124.054-.392.323-.377.379.02.067.007.064-.126-.037zm4.951.046c-.04-.014-.073-.064-.073-.11 0-.047-.04-.1-.088-.119-.1-.038-.119-.138-.025-.138.097 0 .242.168.2.234-.02.032.004.058.052.058s.104-.026.124-.058c.02-.032.133-.055.252-.052l.216.007-.216.042a.897.897 0 0 0-.293.102c-.042.034-.109.049-.149.034zm12.12-.016c-.02-.032.016-.059.08-.059s.134.027.154.059c.02.032-.017.058-.081.058s-.133-.026-.153-.058zm-7.533-.096a.068.068 0 0 1-.01-.08c.035-.057.32 0 .32.066 0 .059-.253.07-.31.014zm5.223-.021c0-.032.053-.059.117-.059s.117.027.117.059-.053.058-.117.058-.117-.026-.117-.058zm1.93.006c0-.025.067-.076.149-.114.18-.081.202-.083.202-.015 0 .03-.08.08-.176.114-.096.034-.175.04-.175.015zm-4.094-.065c0-.035.078-.046.189-.027.266.047.277.086.026.086-.118 0-.215-.027-.215-.06zm1.638 0c0-.032.026-.058.058-.058s.059.026.059.058-.027.059-.059.059-.058-.026-.058-.059zm-10.245-.04c.042-.016.092-.014.112.005.02.02-.015.033-.077.03-.068-.002-.082-.016-.035-.034zm-4.68-.147c.055-.054.086-.054.14 0 .055.055.04.07-.07.07-.108 0-.124-.015-.07-.07zm17.535-.017a.143.143 0 0 1 .122-.088c.072 0 .075.016.016.088-.04.048-.095.088-.123.088-.027 0-.034-.04-.015-.088zm-18.258-.036c-.02-.033-.022-.075-.003-.094.02-.02.007-.068-.027-.109-.047-.056-.032-.066.062-.042.067.018.108.046.091.064-.017.017-.004.063.029.102.042.05.033.082-.028.105-.048.019-.104.007-.124-.026zm8.953-.99c.034-.055.588-.191.668-.164.032.011-.111.062-.319.114-.207.051-.364.074-.35.05zm-2.063-.1c.184-.01.487-.01.672 0 .185.012.034.022-.336.022s-.521-.01-.336-.021zm1.351-.075c-.103-.104-.03-.282.101-.248.113.03.158.133.058.133-.03 0-.063.041-.073.091-.015.068-.036.075-.086.024zm-2.316-.04a.833.833 0 0 1 .263 0c.072.015.013.026-.132.026-.145 0-.204-.011-.131-.025zm3.874.02c0-.013.053-.037.117-.053s.117-.007.117.022c0 .03-.053.053-.117.053s-.117-.01-.117-.022zm-7.908-.137c.105-.013.263-.013.35 0 .088.014.002.024-.19.024-.194 0-.265-.011-.16-.024zm.583.003c.155-.062.062-.13-.204-.152-.172-.013-.1-.024.19-.028.257-.003.428.01.38.028a.309.309 0 0 0-.135.112c-.025.043-.104.077-.175.074-.07-.002-.096-.017-.056-.034zm-.99-.118c.042-.017.093-.015.112.005.02.02-.015.033-.077.03-.068-.002-.082-.016-.035-.035zm4.442-.003c.138-.012.348-.012.468 0 .12.013.007.023-.25.023s-.355-.01-.218-.023zm-5.723-.314a2.896 2.896 0 0 0-.215-.09c-.105-.04-.075-.05.146-.053.153-.002.227.007.164.02-.098.022-.09.036.059.1.132.058.144.074.05.07a.62.62 0 0 1-.204-.047zm6.35.005c-.238-.025-.18-.037.322-.067.338-.02.637-.015.664.01.064.06-.597.097-.986.057zm4.284.02a.226.226 0 0 1 .146 0c.04.017.007.03-.073.03s-.113-.013-.073-.03zm.6-.222c-.046-.056-.05-.09-.011-.09.07 0 .153.112.112.152-.014.015-.06-.013-.1-.062zm-.905-.104c.12-.399.406-.64.693-.586l.142.027-.145.214c-.192.284-.427.472-.594.475-.113.001-.129-.02-.096-.13zm-10.163.034a.226.226 0 0 1 .146 0c.04.017.008.03-.073.03s-.113-.013-.073-.03zm-.424-.064c-.088-.065-.098-.19-.014-.185.04.002.125.03.19.06.109.051.108.053-.015.03-.154-.029-.18.06-.03.1.073.018.078.028.015.032a.258.258 0 0 1-.146-.037zm.425-.258a.15.15 0 0 1 .139-.036c.044.015.017.041-.062.062-.097.026-.12.018-.077-.026zm9.955-.014c0-.051.042-.093.093-.093s.082.032.07.07c-.037.108-.163.126-.163.023zm-10.322-.034c-.073-.032-.084-.05-.029-.05a.64.64 0 0 1 .205.05c.074.032.084.05.03.05a.644.644 0 0 1-.206-.05zm12.343-.083c.675-.112.886-.242 1.194-.736.1-.16.119-.173.087-.058-.142.513-.622.821-1.33.853l-.422.02zm-5.135-.307a.226.226 0 0 1 .146 0c.04.017.008.03-.073.03s-.113-.013-.073-.03zm2.247-.246c-.064-.04-.062-.056.009-.083.09-.035.156.002.156.085 0 .062-.065.061-.165-.002zm-3.05-.71c.166-.025.209-.045.116-.054a5.304 5.304 0 0 1-.596-.083.73.73 0 0 0-.439.052.852.852 0 0 1-.47.057c-.387-.057-.368-.153.024-.12l.34.029-.31-.081c-.172-.044-.36-.124-.418-.177-.103-.093-.102-.102.036-.24.107-.106.184-.135.3-.11.141.028.138.022-.031-.056-.105-.048-.19-.098-.19-.11 0-.012.085-.012.19 0l.19.02-.351-.179.468.055-.19-.086c-.375-.17-.176-.15.321.032.105.038.177.09.161.116-.016.026.028.033.098.014.11-.028.086-.052-.16-.165-.414-.189-.288-.17.277.04.268.1.618.22.78.268.297.09.472.194.323.194-.078 0-.032.087.047.089.122.003.182.1.126.205a.37.37 0 0 0-.052.157c.026.158-.008.205-.096.132-.069-.057-.107-.059-.158-.007-.037.037-.188.063-.334.059l-.266-.01zm.525-.261c0-.076-.118-.114-.54-.175l-.19-.027.175.054c.096.03.254.072.35.096.173.042.173.043.03.069-.135.024-.137.029-.03.07.139.051.205.023.205-.087zm-.472.007a.926.926 0 0 0-.2-.06c-.128-.029-.152-.024-.088.02.08.053.346.09.288.04zm-1.333-.318a.15.15 0 0 0-.138.037c-.043.043-.02.05.077.025.079-.02.105-.047.061-.062zm.928.047a1.112 1.112 0 0 0-.263-.049l-.117-.002.117.05c.064.028.183.05.263.05l.146-.003zm-1.111-.094c0-.013-.04-.023-.088-.023-.048 0-.087.025-.087.056s.04.042.087.023c.049-.018.088-.044.088-.056zm.526-.023a1.217 1.217 0 0 0-.234-.052c-.078-.005-.078.001 0 .052a.483.483 0 0 0 .234.051l.147-.005zm1.243.02a.226.226 0 0 0-.146 0c-.04.016-.007.029.073.029s.113-.013.073-.03zm-.324-.085c-.102-.06-.61-.134-.558-.082.032.032.45.133.575.139.066.003.061-.011-.017-.057zm2.21.415c-.02-.032.006-.058.059-.058.052 0 .078.026.058.058s-.046.059-.058.059-.04-.026-.059-.059zm.394-.126c-.026-.026-.217-.085-.425-.13s-.326-.084-.261-.086c.064-.002.34.044.614.1.412.087.465.11.308.134-.104.016-.21.008-.236-.018zm-8.498-.19c.04-.049.046-.096.014-.116-.03-.019-.087.005-.127.053-.04.048-.154.086-.255.085-.153-.001-.166-.011-.08-.061.056-.033.123-.048.148-.032.025.015.134-.05.241-.143.19-.165.191-.171.057-.173-.134-.002-.135-.005-.023-.066.065-.035.21-.15.322-.255.231-.214.607-.458.804-.52.107-.034.132-.02.132.075 0 .087-.102.167-.395.308a4.488 4.488 0 0 0-.534.296l-.14.105h.184c.152 0 .182.022.178.132-.002.072-.016.102-.031.067-.034-.083-.29-.035-.379.07-.051.063-.05.082.006.082.058 0 .058.018 0 .088-.04.048-.1.088-.132.088-.034 0-.03-.035.01-.083zm16.145-.271c.25-.2.392-.247.178-.059-.111.098-.23.178-.263.177-.034 0 .005-.054.085-.118zm.208.034c.149-.113.236-.114.143-.002a.252.252 0 0 1-.164.088c-.074 0-.07-.018.021-.086zm2.112-.012c-.097-.097-.029-.195.136-.195.2 0 .23.084.063.174-.133.07-.148.072-.199.021zm-2.729-.042c0-.013.04-.039.09-.058.053-.02.076-.01.056.023-.035.055-.146.082-.146.035zm-12.9-.357a5.788 5.788 0 0 1-.054-.234 1.972 1.972 0 0 0-.101-.26c-.077-.171-.079-.233-.013-.419.042-.12.065-.229.051-.243-.03-.03.852-.304.955-.296.04.003.058-.018.04-.047-.056-.09.148-.126.25-.043.075.06.088.062.053.003-.03-.047.002-.118.083-.188.103-.09.154-.1.248-.049.103.055.114.05.078-.043-.023-.06-.023-.09-.001-.068.022.022.095.01.164-.026.111-.06.116-.056.043.032-.069.083-.067.097.014.097.08 0 .089.055.06.365-.045.504-.054.521-.227.478-.086-.022-.185-.007-.235.035-.106.087-.115.29-.014.297.04.003-.015.03-.124.062-.18.051-.193.071-.161.232.032.16.024.172-.096.137l-.13-.038.13.096c.073.054.132.124.132.156 0 .033-.04.018-.091-.032-.107-.106-.2-.12-.2-.03 0 .035-.06.054-.133.043-.072-.011-.124-.054-.115-.096.009-.042-.011-.06-.045-.039-.033.02-.047.06-.03.086.016.027-.016.066-.071.087-.086.033-.088.046-.015.093.06.037.011.05-.157.04-.218-.012-.249-.032-.288-.188zm13.439.112c.056-.058.114-.093.129-.077.015.015-.03.062-.101.105-.123.074-.124.073-.028-.028zm1.61-.069c-.116-.026-.134-.105-.039-.164.036-.022.104 0 .152.048.097.098.044.152-.113.116zM7.175 13.13c-.02-.033.003-.043.055-.023.1.039.12.08.035.08-.03 0-.07-.025-.09-.057zm-.293-.119c.02-.032.062-.044.092-.025.08.05.066.085-.037.085-.05 0-.075-.027-.055-.06zm2.207.02a.48.48 0 0 1 .205 0c.056.014.01.026-.102.026s-.159-.012-.103-.026zm7.88-.019c0-.032.028-.058.062-.058s.046.026.026.058-.048.059-.062.059-.026-.026-.026-.059zM2 12.8c0-.159.021-.201.095-.187.052.01.132.075.178.144.077.117.07.13-.095.187-.177.062-.179.06-.179-.144zm5.89-.019c-.25-.158-.278-.165-.332-.073-.052.089-.058.09-.06.004-.004-.214.145-.234.484-.066.302.15.38.244.24.29-.032.01-.18-.059-.331-.155zm.575.12c-.018-.03.02-.04.084-.023.137.036.154.076.033.076-.047 0-.1-.024-.117-.053zm11.605-.002c0-.034-.04-.062-.088-.062-.048 0-.088-.04-.088-.088s.011-.087.025-.087.063-.015.11-.033c.094-.036.18.246.091.3-.027.018-.05.004-.05-.03zm-11.28-.126c-.396-.107-.884-.313-.884-.373 0-.014.164.036.365.112.201.076.392.14.424.144.12.013.47.138.524.188.069.064.088.067-.428-.071zm-5.765-.215c-.02-.054-.02-.08.002-.058s.084-.016.14-.083c.071-.09.125-.109.193-.07.08.044.063.072-.102.18-.177.116-.2.12-.233.031zm4.216-.06c-.016-.026-.01-.077.013-.115.029-.046.064-.032.113.047.06.094.057.115-.013.115-.046 0-.098-.021-.113-.047zm13.18-.006c-.253-.034-.342-.143-.131-.16l.187-.015c.07-.005.068-.024-.014-.106-.074-.074-.117-.083-.166-.034a.151.151 0 0 1-.147.035c-.168-.064-.068-.128.256-.164a1.87 1.87 0 0 0 .463-.1c.104-.05.182-.03.427.112.25.144.286.185.216.243-.047.039-.107.066-.135.061-.161-.029-.313.016-.313.093 0 .093-.146.101-.643.035zm-18.013-.134c.092-.086.113-.137.064-.153-.04-.013-.103.005-.138.04-.086.086-.276.084-.276-.003 0-.037.016-.052.036-.032.02.02.171-.12.336-.312.18-.209.308-.316.318-.267.024.11.217.156.313.073.043-.036.002.018-.09.12-.096.107-.167.253-.167.343 0 .11-.015.132-.05.077-.047-.074-.078-.028-.058.086.004.026-.015.034-.043.016-.028-.017-.101.006-.162.052-.175.132-.236.102-.083-.04zm5.288-.12-.112-.132.132.111a.65.65 0 0 1 .131.132c0 .047-.047.012-.151-.111zm-4.176-.015c0-.055.438-.263.554-.263.076 0 .148-.03.16-.068s.126-.077.25-.087c.192-.015.214-.005.143.06-.108.1-1.107.423-1.107.358zm5.29-.033c-.021-.035-.023-.078-.003-.098.019-.019.035-.006.035.03 0 .034.046.075.102.09.092.024.093.027.003.033-.054.004-.116-.02-.137-.055zm-5.816-.021c0-.017.052-.058.117-.092.064-.035.117-.05.117-.034s-.053.058-.117.092c-.065.035-.117.05-.117.034zm5.513-.128c.023-.023-.015-.07-.085-.105-.07-.035-.138-.097-.151-.138-.015-.045.059-.025.185.05.242.142.244.145.11.196-.056.022-.082.02-.06-.003zm.978-.08c0-.03.04-.04.088-.022.048.018.087.044.087.056s-.04.023-.087.023c-.049 0-.088-.025-.088-.056zm-5.41-.206a.857.857 0 0 1 .293-.081h.117l-.117.047a2.15 2.15 0 0 1-.293.082l-.175.035.175-.083zm5.09.033a.064.064 0 0 1 .02-.087c.03-.018.069.006.087.054.037.095-.051.122-.106.033zm-5.82-.029c0-.016.052-.057.116-.092.065-.034.117-.05.117-.033s-.052.057-.117.092c-.064.034-.117.05-.117.033zm1.17-.033c0-.032.027-.059.061-.059s.046.027.026.059-.048.058-.062.058-.026-.026-.026-.058zm-.799-.19c.06-.04.205-.148.322-.24s.278-.192.357-.223c.173-.067.88-.001.88.082 0 .032-.056.044-.123.026-.067-.017-.271.016-.453.074s-.423.125-.536.149a2.17 2.17 0 0 0-.38.125c-.11.051-.135.054-.067.008zm.612.033c.042-.017.092-.015.112.005.02.019-.015.033-.077.03-.068-.003-.082-.016-.035-.035zm-1.86-.205c-.001-.206.093-.26.177-.101.049.09.05.142.003.188-.046.047-.064.04-.065-.02 0-.073-.009-.072-.057.002-.045.069-.057.054-.058-.07zm.672.07c.16-.07.204-.07.204 0 0 .032-.072.056-.16.054-.143-.004-.148-.01-.044-.055zm11.14.035c0-.013.04-.038.088-.057s.087-.008.087.023-.04.057-.087.057-.088-.01-.088-.023zm-8.743-.094c.02-.032.08-.058.135-.058.085.001.087.01.011.058-.114.074-.192.074-.146 0zm-2.017-.112c0-.1.07-.239.121-.239.028 0 .035.04.017.088-.02.051-.001.088.045.088.062.001.06.014-.008.058-.111.072-.175.074-.175.005zm1.977-.162c.042-.017.093-.015.112.005.02.02-.015.033-.077.03-.068-.002-.082-.016-.035-.035zM3.43 9.815c-.344-.361-.51-.423-.962-.362-.284.04-.387.034-.423-.022-.164-.254.207-.454.844-.454h.453V8.75c0-.144.044-.279.118-.366l.118-.138-.037.161a.533.533 0 0 0 .006.263c.038.094.046.093.09-.014.036-.088.047-.06.044.117-.002.128.024.339.058.467s.077.36.098.512.068.278.103.278c.036 0 .048.017.027.037-.02.021-.08.003-.13-.04-.056-.045-.11-.055-.134-.023-.021.03-.144-.055-.273-.19zm16.286-.084a2.855 2.855 0 0 0-.59-.024 7.611 7.611 0 0 1-.877-.023c-.27-.023-.57-.026-.667-.005-.21.045-.684-.062-.717-.163-.04-.12-.45-.08-.74.075-.384.205-.541.19-.78-.07-.297-.324-.33-.409-.174-.439.072-.013.314-.008.54.012s.909.03 1.52.02c.737-.01 1.23.01 1.462.06a2.9 2.9 0 0 0 .643.056c.758-.048 1.739.029 1.853.145.022.023.005.088-.037.145-.057.077-.213.12-.595.162a8.656 8.656 0 0 0-.577.076.833.833 0 0 1-.264-.027zM4.904 9.64c.017-.043.05-.078.073-.078s.042.035.042.078-.032.078-.072.078-.06-.035-.043-.078zm10.281-.022a9.618 9.618 0 0 0-.344-.206c-.132-.075-.152-.107-.088-.147.063-.04.064-.052.005-.053-.042 0-.062-.025-.044-.054s.085-.04.15-.022c.063.016.101.053.083.082-.017.028-.005.052.028.052.068 0 .28.213.363.365.067.123.069.123-.153-.017zM4.726 9.516c.012-.018-.025-.085-.082-.15-.056-.064-.071-.098-.034-.076.04.023.078-.004.091-.063.036-.169-.018-.303-.107-.268-.053.02-.072.002-.052-.048.016-.044.095-.08.174-.08.117 0 .14.024.12.13-.012.072-.005.124.017.117.022-.007.04.013.04.045s-.025.05-.054.041c-.03-.01-.019.024.024.076.067.08.06.11-.04.201-.064.059-.108.092-.097.075zm9.597-.355c-.297-.103-.386-.204-.118-.133.089.024.22.038.293.033.093-.006.131.023.131.1 0 .06-.006.106-.014.103a36.69 36.69 0 0 0-.292-.103zm-9.255-.3c-.02-.065-.075-.118-.12-.118-.047 0-.085-.04-.085-.087s.025-.088.055-.088.09-.036.134-.08c.055-.056.151-.07.305-.044.22.035.296.13.14.17-.052.014-.05.001.009-.04.07-.048.063-.058-.043-.05-.124.01-.125.016-.034.159.052.081.074.13.049.106-.025-.023-.12.01-.21.074-.162.116-.162.116-.2-.002zm.234-.176c.046-.074-.032-.074-.146 0-.076.049-.074.057.01.057.055 0 .116-.025.136-.057zm-.172-.086c.062-.047.086-.087.052-.088-.035 0-.113.037-.176.084s-.086.087-.052.088c.035.001.113-.037.176-.084zm.132.338c.042-.017.092-.015.112.005.02.02-.015.033-.077.03-.068-.002-.082-.016-.035-.035zm.478-.333c0-.012.047-.058.103-.102.093-.073.095-.07.022.022-.076.097-.125.128-.125.08zm-1.896-.343c.062-.384.225-.876.3-.904a.125.125 0 0 0 .076-.107c0-.16.464-.477.834-.57.54-.137.736-.162.775-.099.02.033-.05.057-.165.057-.3 0-.652.144-1.038.423-.386.28-.607.645-.672 1.112-.022.153-.062.278-.09.278s-.037-.086-.02-.19zm3.3-1.468c-.492-.09-.376-.17.222-.153.248.006.661.007.918.002.465-.01.467-.009.322.096-.182.13-.904.158-1.462.055zm-.804-.137a.48.48 0 0 1 .205 0c.056.015.01.027-.103.027-.112 0-.158-.012-.102-.027z"/></svg>