<?xml version="1.0" encoding="UTF-8"?>
<svg version="1.1" viewBox="0 0 24 24" xml:space="preserve" xmlns="http://www.w3.org/2000/svg"><path d="m11.83 2c-0.269 0.10729-0.539 0.21182-0.80653 0.32399-0.21253 0.091963-0.4298 0.18962-0.63649 0.29412-0.16176 0.081723-0.31707 0.17423-0.46415 0.27803-0.30082 0.19394-0.55152 0.45085-0.733 0.75023-0.19685 0.32509-0.28561 0.69901-0.2562 1.0731 0.029406 0.37406 0.17616 0.73115 0.42165 1.0248 0.15592 0.16375 0.33171 0.30902 0.5239 0.43313 0.12019 0.082212 2.8151 1.7097 4.6576 2.8355 0.25941-0.10241 0.52178-0.20377 0.78125-0.31595 0.21471-0.091941 0.43196-0.18682 0.63649-0.29412 0.16182-0.083176 0.31854-0.17677 0.4676-0.27918 0.29706-0.19812 0.54682-0.453 0.733-0.74908 0.19424-0.32502 0.28188-0.69798 0.25276-1.0708-0.02906-0.37279-0.17446-0.72831-0.41705-1.0225 5.29e-4 -0.00159 5.29e-4 -0.00416 0-0.00574-0.26747-0.26023-0.56843-0.48638-0.89614-0.67441-0.16488-0.10659-4.2647-2.6011-4.2647-2.6011zm-4.2808 4.56c-0.26898 0.10729-0.53787 0.21182-0.80538 0.32399-0.21254 0.091959-0.43023 0.18961-0.63764 0.29412-0.16175 0.081741-0.31705 0.1754-0.46415 0.27918-0.30088 0.19389-0.55158 0.44961-0.733 0.74908-0.19685 0.32506-0.28561 0.69901-0.2562 1.0731 0.029405 0.37406 0.17615 0.73117 0.42165 1.0248 0.15579 0.16388 0.33159 0.30913 0.5239 0.43313 0.12019 0.08218 9.0364 5.5699 10.879 6.6958 0.25947-0.10241 0.52069-0.20377 0.7801-0.31595 0.21476-0.09194 0.43202-0.18682 0.63649-0.29412 0.16188-0.08312 0.31854-0.17562 0.4676-0.27803 0.29694-0.19823 0.54676-0.45423 0.733-0.75023 0.19418-0.32488 0.28176-0.69698 0.25276-1.0696-0.02894-0.37265-0.17355-0.72828-0.4159-1.0225 5.88e-4 -0.0016 5.88e-4 -0.0042 0-0.0057-0.26741-0.26024-0.56843-0.48646-0.89614-0.6744-0.16565-0.10663-10.486-6.4626-10.486-6.4626zm1.9416 8.4283c-0.26897 0.10729-0.53901 0.21181-0.80653 0.32399-0.21254 0.09194-0.42908 0.18844-0.63649 0.29297-0.16179 0.08165-0.31711 0.1753-0.46415 0.27918-0.30089 0.19388-0.5516 0.45076-0.733 0.75023-0.19679 0.32494-0.28561 0.69798-0.2562 1.0719 0.029406 0.37394 0.17622 0.73129 0.42165 1.0248 0.15588 0.16382 0.33169 0.30902 0.5239 0.43313 0.12019 0.08218 2.8151 1.7097 4.6576 2.8355 0.25941-0.10241 0.52184-0.20377 0.78125-0.31595 0.21476-0.092 0.43202-0.18682 0.63649-0.29412 0.16153-0.08329 0.31757-0.17683 0.46645-0.27918 0.29712-0.19829 0.54688-0.45394 0.733-0.75023 0.19453-0.32471 0.28291-0.69704 0.25391-1.0696-0.02894-0.37265-0.1744-0.72858-0.41705-1.0225 5.3e-4 -0.0016 5.3e-4 -3e-3 0-0.0046-0.26747-0.26023-0.56849-0.48749-0.89614-0.67555-0.16488-0.10659-4.2647-2.6-4.2647-2.6z"/></svg>
