<svg viewBox="0 0 24 24" xmlns="http://www.w3.org/2000/svg"><path d="M11.588 2C9.626 2 8.066 3.778 8.066 5.943v1.399l7.254 6.17v1.576c0 1.894-1.334 3.371-2.949 3.371h-.803c-1.612 0-2.949-1.499-2.949-3.371v-4.529l2.752 2.326a.755.755 0 0 0 .719.965.756.756 0 0 0 .752-.752c0-.412-.34-.75-.752-.75a.746.746 0 0 0-.36.093L8.048 9.326v5.762c0 2.147 1.557 3.943 3.522 3.943h.802c1.962 0 3.524-1.777 3.524-3.943v-1.842L8.639 7.078V5.943c0-1.893 1.334-3.37 2.949-3.37h.805c1.615 0 2.949 1.477 2.949 3.37v4.024L12.773 7.78a.74.74 0 0 0 .069-.31c0-.412-.34-.75-.752-.75s-.75.338-.75.75.338.752.75.752c.092 0 .18-.018.262-.05l3.562 3.032V5.943c0-2.165-1.56-3.943-3.521-3.943h-.805zm.502 5.176c.15 0 .295.144.295.295s-.144.295-.295.295a.31.31 0 0 1-.293-.295.31.31 0 0 1 .293-.295z" style="-inkscape-stroke:none"/><path d="M11.869 20.754v.305c-.496.01-.99.067-1.486.177-.543.141-1.087.301-1.63.643 0 0 .002.082.022.082l.823.02h.804l1.627.02 1.63-.02h.802l.805-.02v-.102a5.422 5.422 0 0 0-1.627-.623 7.533 7.533 0 0 0-1.368-.175v-.307h-.402zM6.88 14.906c0 2.88 1.942 5.27 4.567 5.27h1.106c2.625 0 4.566-2.39 4.566-5.27h-.572c0 2.626-1.716 4.698-3.994 4.698h-1.106c-2.278 0-3.994-2.071-3.994-4.698z"/></svg>