<?xml version="1.0" encoding="UTF-8" standalone="no"?>
<svg
   version="1.1"
   viewBox="0 0 24 24"
   id="svg4"
   sodipodi:docname="transistor.svg"
   inkscape:version="1.1 (1:1.1+202106032006+af4d65493e)"
   xmlns:inkscape="http://www.inkscape.org/namespaces/inkscape"
   xmlns:sodipodi="http://sodipodi.sourceforge.net/DTD/sodipodi-0.dtd"
   xmlns="http://www.w3.org/2000/svg"
   xmlns:svg="http://www.w3.org/2000/svg">
  <defs
     id="defs8">
    <linearGradient
       id="paint0_linear"
       x1="6.25"
       y1="36"
       x2="38.25"
       y2="36"
       gradientUnits="userSpaceOnUse"
       gradientTransform="matrix(0.57142857,0,0,0.57142857,-57.772066,-4.107422)">
      <stop
         stop-color="#F8B700"
         id="stop1048" />
      <stop
         offset=".51"
         stop-color="#F87900"
         id="stop1050" />
      <stop
         offset="1"
         stop-color="#AE35DD"
         id="stop1052" />
    </linearGradient>
    <linearGradient
       id="paint1_linear"
       x1="4.001"
       y1="45.05"
       x2="22.215"
       y2="45.05"
       gradientUnits="userSpaceOnUse"
       gradientTransform="matrix(0.57142857,0,0,0.57142857,-57.772066,-4.107422)">
      <stop
         stop-color="#FE4F45"
         id="stop1055" />
      <stop
         offset=".52"
         stop-color="#F87900"
         id="stop1057" />
      <stop
         offset="1"
         stop-color="#F8B700"
         id="stop1059" />
    </linearGradient>
    <linearGradient
       id="paint2_linear"
       x1="4"
       y1="28"
       x2="52"
       y2="28"
       gradientUnits="userSpaceOnUse"
       gradientTransform="matrix(0.57142857,0,0,0.57142857,-57.772066,-4.107422)">
      <stop
         stop-color="#FE4F45"
         id="stop1062" />
      <stop
         offset=".52"
         stop-color="#F87900"
         id="stop1064" />
      <stop
         offset="1"
         stop-color="#F8B700"
         id="stop1066" />
    </linearGradient>
  </defs>
  <sodipodi:namedview
     id="namedview6"
     pagecolor="#ffffff"
     bordercolor="#666666"
     borderopacity="1.0"
     inkscape:pageshadow="2"
     inkscape:pageopacity="0.0"
     inkscape:pagecheckerboard="0"
     showgrid="false"
     inkscape:zoom="14.979167"
     inkscape:cx="12.751043"
     inkscape:cy="12.984701"
     inkscape:window-width="1920"
     inkscape:window-height="1016"
     inkscape:window-x="1920"
     inkscape:window-y="27"
     inkscape:window-maximized="1"
     inkscape:current-layer="svg4" />
  <g
     id="g1699"
     transform="matrix(0.13888889,0,0,0.13888889,1.9999999,1.9999999)">
    <path
       d="m 72,119.9 c -2.6,0 -4.8,-2.1 -4.8,-4.8 V 28.9 c 0,-2.6 2.1,-4.8 4.8,-4.8 2.6,0 4.8,2.1 4.8,4.8 v 86.2 c 0,2.6 -2.2,4.8 -4.8,4.8 z M 52,76.8 H 29 c -2.6,0 -4.8,-2.1 -4.8,-4.8 0,-2.7 2.1,-4.8 4.8,-4.8 h 23 c 2.6,0 4.8,2.1 4.8,4.8 0,2.7 -2.2,4.8 -4.8,4.8 z m 63.1,0 H 92 c -2.6,0 -4.8,-2.1 -4.8,-4.8 0,-2.7 2.1,-4.8 4.8,-4.8 h 23 c 2.6,0 4.8,2.1 4.8,4.8 0,2.7 -2.1,4.8 -4.7,4.8 z"
       id="path1695" />
    <path
       d="M 72,144 C 32.3,144 0,111.7 0,72 0,32.3 32.3,0 72,0 c 39.7,0 72,32.3 72,72 0,39.7 -32.3,72 -72,72 z M 72,9.6 C 37.6,9.6 9.6,37.6 9.6,72 c 0,34.4 28,62.4 62.4,62.4 34.4,0 62.4,-28 62.4,-62.4 0,-34.4 -28,-62.4 -62.4,-62.4 z"
       id="path1697" />
  </g>
</svg>
