<svg viewBox="0 0 24 24" xmlns="http://www.w3.org/2000/svg"><path d="M12 18.653a.667.667 0 0 1-.667-.667V6.014a.667.667 0 0 1 1.334 0v11.972a.676.676 0 0 1-.667.667zm-2.778-5.986H6.028A.667.667 0 0 1 5.36 12c0-.375.292-.667.667-.667h3.194a.667.667 0 0 1 0 1.334zm8.764 0h-3.208A.667.667 0 0 1 14.11 12c0-.375.292-.667.667-.667h3.194c.361 0 .667.292.667.667a.655.655 0 0 1-.653.667z"/><path d="M12 22C6.486 22 2 17.514 2 12S6.486 2 12 2s10 4.486 10 10-4.486 10-10 10zm0-18.667c-4.778 0-8.667 3.89-8.667 8.667 0 4.778 3.89 8.667 8.667 8.667 4.778 0 8.667-3.89 8.667-8.667 0-4.778-3.89-8.667-8.667-8.667z"/></svg>