<svg viewBox="0 0 24 24" xmlns="http://www.w3.org/2000/svg"><path d="M13.968 3.498c-.188.187-.188.455 0 .522.08.027-.188.548-.602 1.164-.415.615-.75 1.163-.75 1.217 0 .053-.334.441-.735.856-.776.79-.87.976-.522 1.11.321.12 1.432-.482 2.729-1.471.91-.71 1.177-.843 1.378-.75.187.108.294.067.495-.173.334-.402.334-.495-.054-1.378-.24-.522-.441-.776-.709-.883-.789-.307-1.083-.361-1.23-.214zM10.797 5.01c-.16.107-.655.294-1.11.4l-.816.215-.415-.348c-.227-.187-.468-.347-.548-.347-.348 0 .227 1.538 1.043 2.835.254.388.415.509.696.509.2 0 .441-.067.535-.161.187-.187.214-1.124.026-1.244-.16-.093.067-.709.389-1.07.28-.294.588-.87.521-.936-.027-.014-.174.053-.32.147z"/><path d="M14.048 7.444c-.321.348-.28.548.107.642.294.067.334.16.334.655 0 .71-.254 1.004-.896 1.004-.334 0-.615-.12-1.003-.455-.522-.455-1.123-.709-1.284-.549-.054.04-.027.12.053.174.228.148.482.696.415.897-.04.093-.24.2-.455.227-.2.04-.468.107-.588.16-.16.068-.295-.04-.482-.4-.16-.308-.428-.576-.669-.683l-.414-.16.12.495c.187.789.147.922-.28 1.07-.362.133-.429.107-.63-.201-.4-.589-.949-1.07-1.31-1.137-.442-.094-.508.014-.201.281.16.12.268.428.294.736.04.495.014.535-.414.642-.254.067-.602.107-.776.067-.267-.054-.308-.014-.227.227.12.361.856 1.284 1.043 1.297.08.014.214.014.307 0 .188-.026.268.228.375 1.204l.094.736-.856.254c-2.542.722-3.05.87-3.786 1.017-.441.093-.856.2-.91.267-.066.054.228.348.643.67l.775.574.348-.414c.188-.228.562-.469.816-.55.254-.08.856-.293 1.338-.48a7.502 7.502 0 0 1 1.591-.442c.402-.04.883-.16 1.07-.267.201-.094.616-.174.95-.174.348 0 .682-.067.75-.134.12-.12 2.835-.441 3.464-.415.147.014.628.014 1.07 0 .976-.013 4.213.602 5.484 1.03 1.11.375 1.19.388 1.458.107.561-.548.08-1.364-1.124-1.953-.562-.267-.79-.28-2.93-.254l-2.326.027.093-.509c.053-.28.134-.829.174-1.217.04-.401.147-.749.227-.775.08-.027.575.093 1.084.267l.936.334.04-.481c.054-.562-.16-.83-1.043-1.27-.428-.215-.615-.402-.642-.63-.08-.481-.642-1.163-1.244-1.47-.642-.349-.696-.349-.963-.04zm.174 3.719c0 .267-.094.669-.187.896a3.4 3.4 0 0 0-.241.83c-.027.32-.107.414-.388.44l-.334.04-.014-1.243c-.013-1.351.027-1.445.736-1.445.401 0 .428.027.428.482zm-2.501-.04c.027.093.027.4-.027.695a4.045 4.045 0 0 0 0 1.137c.054.335.08.602.067.615 0 .014-.294.054-.642.094l-.629.08-.04-1.163c-.027-.643-.027-1.231 0-1.325.027-.094.268-.187.535-.214.28-.026.535-.053.575-.066.054-.014.12.053.16.146zM9.433 12.42c.014.588.027 1.177.027 1.297.013.255-.709.509-.896.322-.067-.067-.12-.549-.12-1.07 0-1.057.24-1.62.695-1.62.24 0 .267.108.294 1.071z"/><path d="M11.908 16.193c-.08.548.508 2.501.789 2.608.294.107.856-.482.856-.896 0-.2.147-.642.335-.99l.334-.629-.468.094c-.375.067-.535.013-.883-.267-.575-.482-.87-.455-.963.08zm-2.635.079c0 .2-.067.441-.148.522-.107.107-.107.334.014.87.294 1.31.32 1.377.682 1.417.521.067.695-.268.695-1.298 0-.882-.013-.922-.521-1.39-.629-.59-.722-.603-.722-.121zm5.844-.254c-.214.08-.2.12.134.361.227.174.682.883 1.11 1.74.402.802.856 1.59.99 1.751.335.388 1.084.415 1.27.067.174-.334-.066-1.378-.467-1.966-.174-.267-.322-.522-.322-.588 0-.12-.615-.696-1.136-1.044-.442-.294-1.204-.454-1.579-.32zM6.21 17.035c-.683.789-.857 1.324-.67 2.193.161.776.375 1.351.509 1.351.401-.026 1.097-1.47 1.35-2.836.081-.427.054-.561-.24-.842-.174-.188-.374-.334-.428-.334-.067 0-.294.213-.522.468z"/></svg>