<svg version="1.1" viewBox="0 0 24 24" xmlns="http://www.w3.org/2000/svg">
 <path d="m4.6665 16.265c-0.84323-0.11987-1.7951-1.4861-2.2239-3.192-0.51232-2.038-0.57755-3.3556-0.20751-4.1916 0.43468-0.98204 1.5922-1.2407 2.3377-0.52234 0.10742 0.10351 0.11556 0.14352 0.049898 0.24526-0.36703 0.56872-0.53354 1.4318-0.45944 2.3816 0.039931 0.5118 0.079122 0.83078 0.16304 1.3269 0.084571 0.49997 0.25477 1.3124 0.30341 1.4483 0.013298 0.03715 0.032102 0.09508 0.041795 0.12874 0.00969 0.03366 0.026727 0.08549 0.037852 0.11518 0.011132 0.02969 0.027295 0.08094 0.035923 0.11388 0.019451 0.07425 0.010751 0.09951 0.10943-0.3179 0.82324-3.4823 1.4308-5.1303 2.1104-5.7246 0.75276-0.65823 1.9202-0.34698 2.1073 0.56182l0.01587 0.077083 0.07895-0.029629c0.91295-0.34264 1.6133 0.16451 1.2001 0.86901-0.25824 0.44026-0.52424 0.58239-1.0233 0.54673-0.57258-0.04092-0.76863-0.2362-0.69839-0.69567 0.01703-0.11144 0.02391-0.10605-0.06233-0.048857-0.39554 0.26231-0.80618 0.94893-1.4151 2.3662-0.35666 0.8301-0.46992 1.1431-1.0869 3.004-0.21712 0.65479-0.28718 0.85513-0.32617 0.93265-0.2164 0.43027-0.64467 0.6684-1.0886 0.6053zm10.666-0.60816c-0.58529-0.06532-1.1426-0.62014-1.1426-1.1375 0-0.01959-0.01687-0.0017-0.08889 0.09406-0.3039 0.40424-0.54289 0.61291-0.97805 0.854-0.44209 0.24492-0.91229 0.25485-1.2573 0.02653l-0.03565-0.02359-0.1032 0.02401c-0.53776 0.12513-0.93276-0.02523-1.2592-0.47933l-0.04105-0.05709-0.02484 0.02046c-0.3672 0.30246-0.83178 0.58088-1.0716 0.64221-0.72154 0.18454-1.5228-0.28276-1.7691-1.0318-0.26152-0.79515-0.11678-2.3506 0.31898-3.4278 0.38606-0.95438 1.336-1.1335 2.0675-0.38976 0.22234 0.22605 0.22691 0.243 0.11814 0.43842-0.45399 0.81564-0.82745 1.7839-1.1008 2.8539-0.07889 0.30885-0.0787 0.3554 0.0019 0.44714 0.17139 0.1952 0.5436 0.06646 1.1847-0.40977l0.02973-0.02209-2.76e-4 -0.16199c-8.64e-4 -0.5148 0.11516-1.4206 0.2728-2.1294 0.30344-1.3644 0.9177-2.7736 1.6131-3.7007 0.29723-0.39628 0.83892-0.4767 1.2985-0.19279 0.53262 0.32904 0.74122 0.65765 0.74292 1.1703 7.91e-4 0.23251-0.04108 0.28945-0.24073 0.3275-0.14616 0.02785-0.24819 0.074516-0.39998 0.18293l-0.07286 0.052042-0.06194 0.129c-0.03407 0.070953-0.12253 0.25279-0.19657 0.40409-0.08929 0.18246-0.12922 0.27294-0.1186 0.26871 0.17049-0.06777 0.63441 0.01731 0.89029 0.16327 0.75508 0.43071 1.0853 1.2466 0.93091 2.3002-0.01679 0.11459-0.02281 0.10706 0.06618 0.08276 0.31771-0.08677 0.68247 0.03576 0.91762 0.30825l0.05402 0.0626-0.09491 0.09405c-0.50919 0.50461-0.64404 1.2944-0.19548 1.1449 0.53271-0.17749 0.9738-0.63486 1.0919-1.1322 0.13512-0.56893-0.0414-0.80961-0.49773-0.67862-0.20813 0.05974-0.19452 0.06788-0.36829-0.22046-0.18985-0.31504-0.21992-0.41848-0.17919-0.6164 0.05078-0.24676 0.1327-0.32942 0.5999-0.60532 0.07698-0.04546 0.13918-0.0834 0.13822-0.08432-9.36e-4 -9.36e-4 -0.04321 0.0042-0.09389 0.01147-0.87842 0.12521-1.3803-0.12331-1.379-0.6829 7.2e-4 -0.32649 0.1179-0.48377 0.29341-0.39385 0.31121 0.15945 0.69465 0.19056 1.832 0.14867 0.64459-0.02375 0.67061-0.01527 0.7614 0.2481 0.11915 0.34565 0.02323 0.54177-0.48619 0.99408l-0.08416 0.07472 0.06532 0.02885c0.48282 0.21326 0.81036 0.82004 0.81211 1.5045 4.14e-4 0.16143 6.08e-4 0.163 0.01885 0.14977 0.38454-0.27904 0.73345-0.36763 1.1164-0.28347 0.08313 0.01826 0.09494 0.03352 0.12201 0.15755 0.1068 0.48935 0.40482 0.89593 0.65649 0.89563 0.21895-2.56e-4 0.28904-0.13279 0.18366-0.34728-0.12696-0.25842-0.32307-0.44903-0.92218-0.89631-0.53847-0.40201-0.70391-0.65702-0.70261-1.083 0.0041-1.3434 1.9891-2.0879 3.134-1.1754 0.56588 0.45102 0.29159 1.2456-0.4588 1.329-0.13042 0.0145-0.13951 0.01002-0.19423-0.09586-0.13965-0.2702-0.33968-0.40345-0.6053-0.40322-0.45894 3.93e-4 -0.4271 0.2605 0.06393 0.52225 1.4908 0.79473 1.9155 2.0307 1.0213 2.9727-1.0947 1.1533-3.3416 0.85921-3.7517-0.49104-0.01095-0.03605-0.021-0.06429-0.02233-0.06275-0.0014 0.0015-0.03041 0.04426-0.06462 0.09494-0.50079 0.7419-1.5643 1.2806-2.3543 1.1924zm-3.0911-1.1866c0.72106-0.33743 1.3624-2.6174 0.80379-2.8577-0.31467-0.13537-0.86503 0.67734-1.1093 1.6381-0.21826 0.85846-0.08233 1.4011 0.30551 1.2196z"/>
</svg>
