<?xml version="1.0" encoding="UTF-8"?>
<svg version="1.1" viewBox="0 0 24 24" xmlns="http://www.w3.org/2000/svg">
 <style type="text/css">.st0{fill:#FFFFFF;}
	.st1{fill:#8DC742;}</style>
 <path d="m7.6115 21.832c0.46693 0.25459 1.0387 0.21764 1.469-0.09489l8.1289-5.9043-8.1393 5.9119c-0.28912 0.21-0.69443 0.0036-0.69469-0.35372l-0.009597-14.155c-9.005e-4 -1.3263-0.72585-2.5464-1.8903-3.1813l-3.7685-2.0547-0.0020326 15.009c-1.801e-4 1.3237 0.72294 2.5418 1.8852 3.1754z" clip-rule="evenodd" stroke-linejoin="round" stroke-miterlimit="2" stroke-width=".025729"/>
 <path d="m10.1 7.5547 8.69e-4 5.6524c5e-3 0.42502-0.1983 0.82882-0.54611 1.0842l-1.0872 0.78282 0.00533 6.216c5.567e-4 0.35897 0.40436 0.56224 0.70271 0.35501l7.274-5.2875 4.6715-3.383c0.39443-0.28779 0.35758-0.89799-0.08145-1.1321l-11.37-6.2005c0.2759 0.59619 0.42982 1.2356 0.43015 1.9127z" clip-rule="evenodd" stroke-linejoin="round" stroke-miterlimit="2" stroke-width="11.352"/>
</svg>
