<?xml version="1.0" encoding="UTF-8"?>
<svg version="1.1" viewBox="0 0 24 24" xmlns="http://www.w3.org/2000/svg">
 <style type="text/css">.st0{fill:#FFFFFF;}
	.st1{fill:#8DC742;}</style>
 <path d="m8.8104 15.452c-0.5772-0.18332-1.0466-0.60129-1.2521-1.115-0.26331-0.65808-0.25035-1.0446 0.05625-1.678 0.33054-0.6828 0.9561-1.075 1.7146-1.075 1.9618 0 2.7129 2.4653 1.1063 3.6311-0.36838 0.26731-1.164 0.38327-1.625 0.23684zm1.2532-1.2136c-0.0068-0.82478-1.0743-2.1817-1.3631-1.7326-0.24362 0.37889 0.15764 1.3757 0.75666 1.8798 0.43862 0.36907 0.61031 0.32739 0.60644-0.14721zm2.8333 1.06c-0.75591-0.38816-1.1082-0.94772-1.1082-1.7601 0-1.034 0.45501-1.5422 1.8298-2.0439 0.54045-0.19723 0.75379-0.7116 0.75379-1.8174 0-0.94952 0.07278-1.2501 0.28699-1.1853 0.07898 0.023908 0.28636 0.074447 0.46084 0.11231 0.53029 0.11507 0.60565 0.4977 0.60345 3.0639-0.0019 2.2162-0.01904 2.3925-0.27688 2.8477-0.52689 0.93022-1.6131 1.2637-2.5497 0.78274zm1.3434-1.0385c0.1973-0.25083 0.25498-0.50131 0.25498-1.1072 0-0.4307-0.03043-0.78308-0.06762-0.78308s-0.2276 0.08272-0.42313 0.18384c-0.68314 0.35326-0.91466 1.0195-0.59675 1.7173 0.18373 0.40326 0.51015 0.39902 0.83251-0.0108zm5.3186 1.1872c-0.5385-0.1289-1.2214-0.8013-1.392-1.3705-0.40843-1.3632 0.7747-2.7226 2.1854-2.5111 0.98774 0.14812 1.6476 0.95314 1.6476 2.0101 0 1.2621-1.1866 2.1718-2.441 1.8716zm0.93192-1.6838c0.27294-0.46788 0.38271-1.3938 0.16525-1.3938-0.19875 0-0.87279 0.63153-1.0596 0.99276-0.09907 0.19158-0.18012 0.57795-0.18012 0.85862v0.5103l0.39984-0.24844c0.21991-0.13664 0.52349-0.46041 0.67462-0.71949zm-16.207 1.527c-0.20211-0.10345-0.64642-0.76825-1.2958-1.9389l-0.98826-1.7815 0.54489-0.03824c0.88357-0.062 1.1463 0.12256 1.7276 1.2135 0.52038 0.97666 0.74976 1.1992 0.74976 0.72752 0-0.28063-0.54186-1.4187-0.83277-1.749-0.17949-0.20383-0.09687-0.2153 1.5519-0.2153 1.313 0 1.7406 0.03784 1.7379 0.15378-0.0019 0.08458-0.40333 0.95654-0.89195 1.9377l-0.8884 1.7839-0.55362 0.03199c-0.30449 0.01759-0.69203-0.03886-0.86119-0.12544zm12.465 0.0334c-0.14782-0.06083-0.32775-0.22082-0.39984-0.35551-0.1381-0.25805-0.18428-2.9319-0.05639-3.2652 0.10469-0.27281 0.5698-0.24219 0.95786 0.06305l0.32756 0.25766-0.03415 1.68c-0.03206 1.5768-0.04927 1.6816-0.28021 1.7053-0.13533 0.0139-0.367-0.02449-0.51482-0.08533z" stroke-width=".12303"/>
</svg>
