<svg version="1.1" viewBox="0 0 24 24" xmlns="http://www.w3.org/2000/svg">
 <style type="text/css">.st0{fill:#003DA6;}
	.st1{fill:#FFFFFF;}</style>
 <g transform="matrix(.018272 0 0 .018272 -.78829 -.22207)">
  <path d="m1246.2 818.2c-19.8-375.5-256.9-610.4-544.6-610.4-289.9 0-524.8 237.2-546.8 612.6v-2.2c-2.2 13.2-2.2 28.5-2.2 43.9 0 158.1 65.9 267.9 252.5 267.9s250.3-109.8 250.3-267.9-63.7-267.9-250.3-267.9c-87.8 0-149.3 24.2-188.8 65.9 68.1-252.5 259.1-366.7 483.1-366.7s415 114.2 483.1 366.7c-39.5-41.7-101-65.9-188.8-65.9-188.8 0-250.3 109.8-250.3 267.9s63.7 267.9 250.3 267.9 252.5-107.6 252.5-267.9c2.2-15.4 0-30.7 0-43.9zm-841-131.8c105.4 0 127.4 94.4 127.4 173.5 0 76.9-22 171.3-127.4 171.3h-2.2zm590.7 344.8c-105.4 0-127.4-92.2-127.4-171.3s22-173.5 127.4-173.5z" color="#000000" style="-inkscape-stroke:none"/>
 </g>
</svg>
