<svg viewBox="0 0 24 24" xmlns="http://www.w3.org/2000/svg"><path d="M15.293 11.214c-.134.09-.337.157-.584.157-.382 0-.741-.045-1.1-.157-.09-.023-.158-.045-.203-.045-.067 0-.09.045-.09.135v.224c0 .068.023.113.045.157a.343.343 0 0 0 .135.09c.36.158.764.225 1.213.225.472 0 .832-.112 1.124-.337s.427-.517.427-.899c0-.27-.068-.472-.203-.651-.134-.158-.36-.315-.674-.427l-.629-.247c-.247-.09-.427-.18-.494-.27a.424.424 0 0 1-.135-.337c0-.337.247-.517.764-.517.292 0 .584.045.854.135.09.023.157.045.18.045.067 0 .112-.045.112-.135v-.224c0-.068-.023-.113-.045-.158s-.067-.067-.135-.09a3.198 3.198 0 0 0-1.011-.18c-.427 0-.786.113-1.056.315s-.404.494-.404.831c0 .517.292.9.876 1.124l.674.247c.225.09.36.157.45.247s.112.18.112.315c0 .18-.068.337-.203.427zm-3.527-3.236v2.988c-.382.248-.764.382-1.146.382-.247 0-.427-.067-.54-.202s-.156-.337-.156-.629V7.978c0-.112-.045-.157-.158-.157h-.472c-.112 0-.157.045-.157.157v2.786c0 .382.09.697.292.899s.495.315.876.315c.517 0 1.034-.18 1.528-.54l.045.27c0 .067.023.09.068.112.022.023.067.023.134.023h.337c.113 0 .158-.045.158-.158V7.978c0-.112-.045-.157-.158-.157h-.471c-.135 0-.18.067-.18.157zm-4.269 3.887h.472c.112 0 .157-.045.157-.157V8.899c0-.382-.09-.674-.292-.876s-.472-.314-.854-.314c-.517 0-1.056.18-1.573.561-.18-.382-.516-.561-1.01-.561s-.99.18-1.483.516l-.045-.247c0-.067-.023-.09-.068-.112-.022-.023-.067-.023-.112-.023h-.36c-.112 0-.157.045-.157.158v3.73c0 .112.045.157.157.157h.472c.113 0 .157-.045.157-.158V8.697c.382-.224.764-.36 1.169-.36.224 0 .382.068.472.203s.157.314.157.584v2.584c0 .112.045.157.157.157h.472c.112 0 .157-.045.157-.157V8.697c.405-.247.787-.36 1.169-.36.224 0 .382.068.471.203s.158.314.158.584v2.584c0 .112.045.157.157.157zm12.245 2.988c-2.449 1.034-5.123 1.55-7.55 1.55-3.594 0-7.077-.988-9.885-2.628-.045-.022-.09-.045-.135-.045-.157 0-.247.18-.09.337 2.606 2.36 6.067 3.775 9.886 3.775 2.741 0 5.91-.854 8.089-2.472.382-.27.067-.674-.315-.517zm-.067-6.133c.202-.225.516-.337.966-.337.224 0 .45.022.651.09.068.022.09.022.135.022.068 0 .113-.045.113-.157v-.225c0-.067-.023-.135-.045-.157s-.068-.068-.113-.09c-.292-.067-.584-.135-.854-.135-.629 0-1.1.18-1.46.562-.337.36-.517.899-.517 1.573s.158 1.19.495 1.55.808.54 1.438.54c.337 0 .651-.046.898-.158.068-.023.113-.045.135-.09.023-.023.023-.09.023-.157v-.225c0-.112-.045-.157-.113-.157-.022 0-.067 0-.112.022a2.805 2.805 0 0 1-.72.113c-.426 0-.74-.113-.943-.338s-.292-.584-.292-1.056v-.112c.023-.494.112-.854.315-1.078z"/><path d="M20.686 16.965c1.168-.988 1.483-3.033 1.235-3.347-.112-.135-.651-.27-1.325-.27-.72 0-1.573.157-2.224.607-.203.135-.158.314.044.292.697-.09 2.27-.27 2.562.09.27.36-.315 1.842-.584 2.494-.068.202.09.27.292.134zm-3.123-9.144h-.472c-.113 0-.157.045-.157.157v3.73c0 .112.044.157.157.157h.472c.112 0 .157-.045.157-.157v-3.73c0-.09-.045-.157-.157-.157zm.134-1.528c-.09-.09-.224-.135-.381-.135s-.27.045-.36.135-.135.202-.135.337.045.27.135.337c.09.09.202.135.36.135s.27-.045.359-.135.135-.202.135-.337-.023-.27-.113-.337z"/></svg>