<svg version="1.1" viewBox="0 0 24 24" xmlns="http://www.w3.org/2000/svg">
 <g>
  <path d="m12.019 5.3002c-.55731-.016968-1.1131.067749-1.64.25-1.1552.39483-2.1469 1.1615-2.82 2.18-.35058.59852-.60057 1.2505-.74 1.93-.064776.55478-.064776 1.1152 0 1.67.136.86557.47906 1.6855 1 2.39.21071.27944.44854.53736.71.77.098978-.21154.18579-.42856.26-.65.12-.36.23-.67.23-.69-.046918-.09266-.10393-.17986-.17-.26-.50375-.68226-.76747-1.5121-.75-2.36-.021249-.70265.1592-1.3967.52-2 2.4671-4.6654 9.4671-.96536 7 3.7-.09912.21495-.21974.41933-.36.61l-.19.26.17.44c.09.24.19.54.24.67.02.0818.05382.15958.1.23.29506-.26986.563-.56795.8-.89.41496-.60271.70406-1.283.85-2 .24275-1.1235.10192-2.2959-.4-3.33-.23763-.54869-.57693-1.0475-1-1.47-.57758-.59341-1.2917-1.0363-2.08-1.29-.56085-.16495-1.1484-.21929-1.73-.16z"/>
  <path d="m12.079 1.9902c-2.9172-.026551-5.6467 1.4362-7.24 3.88-.49908.80816-.87962 1.6837-1.13 2.6-.78348 3.1412.25481 6.4568 2.69 8.59.31876.2627.65266.50645 1 .73.09733-.19608.17763-.40017.24-.61.12-.34.21-.64.21-.66-.061357-.07228-.13196-.13616-.21-.19-.43869-.34453-.8408-.73324-1.2-1.16-1.0609-1.3008-1.6339-2.9315-1.62-4.61-.024628-1.1104.21531-2.2107.7-3.21 1.0508-2.1635 3.1086-3.6628 5.49-4 .66441-.077601 1.3356-.077601 2 0 3.1995.45659 5.7134 2.9705 6.17 6.17.06491.62499.06491 1.255 0 1.88-.17299 1.3815-.73478 2.6854-1.62 3.76-.34973.39987-.73095.77106-1.14 1.11-.08474.0606-.16196.1311-.23.21 0 0 .1.31.22.64l.22.61.26-.17c.41014-.29732.79178-.63209 1.14-1 .66684-.65 1.2151-1.4114 1.62-2.25.88009-1.7673 1.1238-3.784.69-5.71-.34485-1.5216-1.1066-2.917-2.2-4.03-1.5839-1.6501-3.7728-2.582-6.06-2.58z"/>
  <path d="m12.019 8.5802c-.52076.00243-1.0184.21521-1.38.59-.42794.37691-.65694.93094-.62 1.5.0186.41778.1731.81806.44 1.14l.15.19-.11.3c0 .16-.49 1.4-1 2.75-.51 1.35-1.12 3.34-1.48 4.42s-.64 1.8-.7 1.95c.51015.21899 1.0347.40275 1.57.55l.13-.5c.1-.27.34-1 .55-1.55l.37-1h.08l.55.1c.47245.07761.95184.10443 1.43.08.47151.02519.94436-.0016 1.41-.08l.54-.1h.1l.59 1.55c.27.78.5 1.44.53 1.54.53826-.14412 1.0661-.32453 1.58-.54 0 0-.73-2.11-1.63-4.61l-1.66-4.7-.06-.16.17-.22c.47514-.60547.56069-1.4299.22-2.12-.20784-.35934-.50828-.65633-.87-.86-.27864-.14277-.58692-.21812-.9-.22zm0 4.51s1.5 4.12 1.51 4.21c-.68593.14961-1.3893.20346-2.09.16-.3037-.02447-.60478-.07465-.9-.15 0 0 1.48-4.17 1.48-4.22z"/>
 </g>
</svg>
