<svg viewBox="0 0 24 24" xmlns="http://www.w3.org/2000/svg"><path d="M12.019 5.3a4.59 4.59 0 0 0-1.64.25 5.52 5.52 0 0 0-2.82 2.18 6.34 6.34 0 0 0-.74 1.93 7.2 7.2 0 0 0 0 1.67 5.44 5.44 0 0 0 1 2.39c.21.28.449.538.71.77a6.13 6.13 0 0 0 .26-.65c.12-.36.23-.67.23-.69a1.41 1.41 0 0 0-.17-.26 3.84 3.84 0 0 1-.75-2.36 3.68 3.68 0 0 1 .52-2c2.467-4.665 9.467-.965 7 3.7-.1.215-.22.42-.36.61l-.19.26.17.44c.09.24.19.54.24.67a.74.74 0 0 0 .1.23 6.13 6.13 0 0 0 .8-.89 5.44 5.44 0 0 0 .85-2 5.14 5.14 0 0 0-.4-3.33 4.74 4.74 0 0 0-1-1.47 5.07 5.07 0 0 0-2.08-1.29 4.51 4.51 0 0 0-1.73-.16z"/><path d="M12.079 1.99a8.55 8.55 0 0 0-7.24 3.88 9.93 9.93 0 0 0-1.13 2.6 8.64 8.64 0 0 0 2.69 8.59c.319.263.653.507 1 .73.097-.196.178-.4.24-.61.12-.34.21-.64.21-.66a1.08 1.08 0 0 0-.21-.19 8.14 8.14 0 0 1-1.2-1.16 7.2 7.2 0 0 1-1.62-4.61 7 7 0 0 1 .7-3.21 7.23 7.23 0 0 1 5.49-4 8.62 8.62 0 0 1 2 0 7.27 7.27 0 0 1 6.17 6.17 9.1 9.1 0 0 1 0 1.88 7.35 7.35 0 0 1-1.62 3.76c-.35.4-.731.771-1.14 1.11a1.31 1.31 0 0 0-.23.21s.1.31.22.64l.22.61.26-.17a8.15 8.15 0 0 0 1.14-1 7.999 7.999 0 0 0 1.62-2.25 8.58 8.58 0 0 0 .69-5.71 8.4 8.4 0 0 0-2.2-4.03 8.39 8.39 0 0 0-6.06-2.58z"/><path d="M12.019 8.58a1.93 1.93 0 0 0-1.38.59 1.84 1.84 0 0 0-.62 1.5c.019.418.173.818.44 1.14l.15.19-.11.3c0 .16-.49 1.4-1 2.75s-1.12 3.34-1.48 4.42-.64 1.8-.7 1.95c.51.22 1.035.403 1.57.55l.13-.5c.1-.27.34-1 .55-1.55l.37-1h.08l.55.1a6.71 6.71 0 0 0 1.43.08c.472.025.944-.001 1.41-.08l.54-.1h.1l.59 1.55c.27.78.5 1.44.53 1.54a12.34 12.34 0 0 0 1.58-.54s-.73-2.11-1.63-4.61l-1.66-4.7-.06-.16.17-.22a2 2 0 0 0 .22-2.12 2.32 2.32 0 0 0-.87-.86 2 2 0 0 0-.9-.22zm0 4.51s1.5 4.12 1.51 4.21a7.6 7.6 0 0 1-2.09.16 5.39 5.39 0 0 1-.9-.15s1.48-4.17 1.48-4.22z"/></svg>