<svg viewBox="0 0 24 24" xmlns="http://www.w3.org/2000/svg"><path d="M12.337 21.992a11.81 11.81 0 0 0 1.266-.1c.27-.045.712-.14.982-.21.27-.071.69-.202.93-.29.242-.088.684-.283.983-.432s.752-.41 1.008-.579c.256-.169.641-.449.856-.622.216-.174.601-.535.857-.802a12.4 12.4 0 0 0 .808-.947c.188-.253.47-.681.624-.952.155-.27.389-.743.52-1.05.131-.308.31-.796.395-1.085.087-.29.204-.793.262-1.12.057-.327.117-.955.133-1.396.017-.48.004-1.03-.032-1.37-.034-.312-.11-.79-.167-1.06-.058-.27-.187-.746-.286-1.059-.1-.313-.317-.853-.482-1.2a11.394 11.394 0 0 0-.597-1.085c-.162-.25-.402-.594-.532-.764-.131-.171-.448-.53-.704-.797-.257-.267-.69-.665-.965-.885a11.904 11.904 0 0 0-.96-.684 13.046 13.046 0 0 0-.777-.445 13.01 13.01 0 0 0-.835-.366c-.284-.114-.78-.276-1.101-.361a14.868 14.868 0 0 0-1.1-.243c-.358-.06-.82-.087-1.5-.088-.694 0-1.133.025-1.498.088-.285.048-.738.146-1.008.217-.27.072-.69.202-.93.29-.242.089-.673.277-.957.418-.284.142-.715.386-.956.543-.242.157-.58.392-.75.523-.17.131-.494.413-.719.626-.224.214-.578.592-.786.841a12.55 12.55 0 0 0-.636.834c-.141.21-.373.599-.515.865A11.48 11.48 0 0 0 2.7 8.27a12.52 12.52 0 0 0-.317.92c-.058.208-.152.604-.209.88-.072.35-.112.809-.133 1.518-.02.656-.008 1.197.032 1.525.034.28.119.753.189 1.052.07.298.188.728.261.956a12.122 12.122 0 0 0 1.081 2.234c.163.25.403.593.533.764.13.17.448.529.704.796.257.267.69.665.965.885.274.22.706.527.96.684.253.157.603.357.777.445.174.088.557.256.85.372.293.117.835.29 1.205.384.37.094.88.197 1.137.228.255.032.546.067.646.078.1.012.53.012.956.001zm-.103-1.284c-.597.008-1.23-.008-1.406-.035a10.766 10.766 0 0 1-2.04-.562 10.279 10.279 0 0 1-1.025-.492c-.27-.152-.69-.423-.93-.602a10.45 10.45 0 0 1-1.925-1.958c-.192-.27-.497-.783-.68-1.14a10.152 10.152 0 0 1-.513-1.216c-.101-.312-.233-.8-.293-1.083-.073-.342-.12-.804-.14-1.374-.024-.671-.011-.999.06-1.499.05-.352.167-.91.262-1.239.094-.33.274-.83.398-1.115.125-.283.352-.722.505-.974.152-.253.46-.687.684-.965a9.96 9.96 0 0 1 .83-.896c.233-.215.633-.54.889-.723.256-.183.71-.459 1.008-.613a11.16 11.16 0 0 1 1.034-.462c.27-.1.77-.246 1.11-.324.52-.119.777-.146 1.581-.166.583-.014 1.139 0 1.413.037.25.033.716.126 1.038.208a10.7 10.7 0 0 1 1.12.361c.294.118.756.34 1.026.492s.688.424.93.602a10.326 10.326 0 0 1 1.923 1.958c.191.27.474.736.628 1.034.155.298.363.764.463 1.034.1.27.242.762.315 1.093.074.331.162.909.195 1.284a6.89 6.89 0 0 1 0 1.388c-.034.388-.117.95-.186 1.248a10.7 10.7 0 0 1-.29 1.008 10.55 10.55 0 0 1-.424.981c-.143.284-.376.691-.52.905-.142.214-.418.579-.612.811a9.273 9.273 0 0 1-.734.768c-.21.19-.588.493-.841.674a9.9 9.9 0 0 1-1.002.61c-.299.154-.764.362-1.034.462-.27.1-.77.245-1.112.324-.554.127-.734.144-1.705.156zm-3.929-1.104c.057-.012.325-.148.595-.301s1.34-.786 2.377-1.406c1.764-1.053 1.885-1.134 1.861-1.253-.014-.07-.026-1.232-.026-2.583 0-1.9.016-2.52.07-2.74.04-.156.143-.435.232-.62a2.51 2.51 0 0 1 .498-.672c.185-.185.455-.4.6-.477.144-.076.399-.175.566-.219.168-.043.503-.079.746-.079s.522.023.62.051c.096.028.184.043.194.033.01-.01-1.838-1.128-4.106-2.485-2.907-1.739-4.17-2.468-4.282-2.472a.922.922 0 0 0-.32.061.67.67 0 0 0-.255.204c-.087.127-.094.336-.107 2.825l-.014 2.688.246-.265c.136-.145.377-.348.537-.45.16-.1.439-.235.62-.297.254-.087.45-.113.847-.113.385 0 .604.028.857.11.187.06.478.198.646.307.17.11.402.306.518.438.116.132.284.376.373.544.09.167.197.453.24.635.06.25.079.66.08 1.684v1.353l-.134.159c-.111.132-.171.159-.357.159-.186 0-.246-.027-.357-.159-.105-.125-.134-.215-.134-.418v-.26l-.272.246a2.919 2.919 0 0 1-.594.397 3.02 3.02 0 0 1-.685.208c-.26.04-.464.04-.723 0a3.12 3.12 0 0 1-.702-.215 2.414 2.414 0 0 1-.672-.491l-.332-.332v2.78c0 1.529.015 2.854.033 2.944.018.09.1.232.181.314a.647.647 0 0 0 .29.169c.078.011.188.01.245-.002zm5.86-3.432c.023-.01.627-.365 1.342-.79.714-.424 1.293-.778 1.285-.785a.852.852 0 0 0-.218.034c-.113.027-.37.049-.57.05-.202 0-.492-.037-.647-.083a3.414 3.414 0 0 1-.472-.18 3.514 3.514 0 0 1-.479-.332l-.286-.233v1.168c0 .642.02 1.16.044 1.15zm3.573-2.115c.071-.045.7-.42 1.397-.835.872-.517 1.29-.795 1.342-.89a.786.786 0 0 0 .073-.312.783.783 0 0 0-.072-.31c-.05-.092-.473-.376-1.29-.866-.67-.4-1.273-.765-1.342-.809-.102-.065-.09-.034.068.172.106.14.25.365.32.502.069.137.16.382.203.545a3.442 3.442 0 0 1-.003 1.459 3.182 3.182 0 0 1-.24.635c-.09.167-.257.414-.374.547-.156.18-.177.222-.082.162zm-1.86-.27c.33-.01.502-.045.686-.134.136-.065.348-.22.473-.345.124-.125.276-.33.337-.455.06-.126.137-.373.17-.548.044-.235.044-.406.002-.651a2.632 2.632 0 0 0-.176-.578 2.14 2.14 0 0 0-.365-.487 1.655 1.655 0 0 0-.546-.354c-.243-.091-.378-.108-.737-.092-.363.017-.487.047-.713.17a2.092 2.092 0 0 0-.459.353 2.412 2.412 0 0 0-.32.495c-.119.253-.136.356-.136.808 0 .481.012.542.17.863.105.213.26.425.406.553.13.114.356.255.502.313.21.083.358.102.706.09zm-5.961-.21c.272-.012.446-.054.656-.156a1.97 1.97 0 0 0 .518-.399 2.17 2.17 0 0 0 .347-.553c.085-.22.114-.404.114-.734 0-.325-.03-.513-.11-.723a2.09 2.09 0 0 0-.27-.479 2.26 2.26 0 0 0-.386-.349 2.073 2.073 0 0 0-.55-.238 1.665 1.665 0 0 0-.61-.05c-.158.018-.406.09-.552.161a2.142 2.142 0 0 0-.507.388c-.134.143-.292.37-.352.504a1.96 1.96 0 0 0-.131.662c-.016.29.003.505.06.704.046.158.16.399.255.535.094.137.283.326.42.42.136.094.356.206.487.248.15.048.379.07.61.06z"/></svg>