<?xml version="1.0" encoding="UTF-8"?>
<svg version="1.1" viewBox="0 0 24 24" xmlns="http://www.w3.org/2000/svg">
 <path d="m22 10.247v1.6875l-10 6.25-10-6.2469v-1.6875l10 6.25zm-6.0781 2.25 1.4719-0.91875c-1.1625-1.7438-3.1469-2.8938-5.3969-2.8938s-4.2344 1.1469-5.3938 2.8875h0.009375c0.078125-0.07188 0.15938-0.14062 0.24062-0.20938 2.8031-2.325 6.8562-1.8156 9.0688 1.1344zm-6.8781 0.5875c0.52812-0.37188 1.1406-0.58438 1.7938-0.58438 1.075 0 2.0375 0.575 2.7 1.4875l1.4188-0.8875c-0.65312-0.93438-1.7375-1.5469-2.9625-1.5469-1.2156 0-2.2938 0.60625-2.95 1.5312zm-3.8062-4.05c4.1188-3.2594 9.9438-2.3875 13.047 1.9406l0.02187 0.03125 1.525-0.95c-1.6719-2.5531-4.5562-4.2406-7.8344-4.2406-3.2344 0-6.1438 1.6719-7.8281 4.2375 0.30938-0.32812 0.70938-0.73438 1.0688-1.0188z"/>
</svg>
