<?xml version="1.0" encoding="UTF-8"?>
<svg version="1.1" viewBox="0 0 24 24" xml:space="preserve" xmlns="http://www.w3.org/2000/svg"><path d="m15.607 8.2708c-0.46863 0-0.93691 0.1941-1.2864 0.5768-0.1047 0.1146-0.14886 0.1801-0.31082 0.4607-0.0374 0.065-0.1428 0.2465-0.23416 0.4037-0.0914 0.1572-0.19669 0.3389-0.23405 0.4037-0.0374 0.065-0.0767 0.1324-0.0874 0.1501-0.0107 0.018-0.0496 0.084-0.0865 0.1482-0.0803 0.1391-0.0608 0.1391-0.14174 0-0.0867-0.1491-0.32309-0.5566-0.5419-0.9342-0.31073-0.5364-0.38229-0.6334-0.59896-0.8118-1.2352-1.0173-3.0826 0.058-2.8143 1.6385 0.0524 0.3088 0.0455 0.2955 0.9966 1.9278 0.10095 0.1733 0.47548 0.8182 0.79667 1.3719 0.16414 0.2829 0.37791 0.6511 0.47504 0.8181 0.0971 0.167 0.19845 0.3423 0.22516 0.3894 0.30563 0.5397 0.7632 0.8405 1.3898 0.914 0.0563 0.01 0.32842 0 0.39657-0.013 0.54294-0.086 0.99258-0.3973 1.2649-0.8755 0.0334-0.059 0.44125-0.7623 0.65021-1.1218 0.056-0.096 0.11096-0.1919 0.12224-0.2125 0.0232-0.043 0.026-0.044 0.0365-0.021 0.097 0.1733 0.19435 0.3364 0.30006 0.5194 0.61683 1.0637 0.60059 1.0379 0.75062 1.1942 0.71332 0.7432 1.9398 0.704 2.6002-0.083 0.10712-0.1277 0.0839-0.089 1.0993-1.8399 0.11545-0.1991 0.51825-0.8931 0.74655-1.2862 0.11526-0.1985 0.21972-0.3785 0.23213-0.4001 0.0124-0.022 0.11695-0.2017 0.23229-0.4002 0.20978-0.3609 0.26476-0.4649 0.30606-0.5788 0.50466-1.3911-0.84097-2.7372-2.2282-2.2291-0.46 0.1685-0.69021 0.3909-1.0539 1.018-0.25691 0.443-0.42174 0.7269-0.47505 0.8182-0.0264 0.045-0.0811 0.1394-0.12145 0.2094-0.0404 0.07-0.0757 0.1247-0.0785 0.1215-3e-3 0-0.0292-0.048-0.0589-0.099-0.0296-0.051-0.1117-0.1926-0.18239-0.3144-0.0707-0.1218-0.22267-0.3839-0.33771-0.5824-0.32172-0.5549-0.33874-0.5813-0.46004-0.7127-0.35093-0.3802-0.81993-0.5693-1.2886-0.5677zm-9.6461 0c-0.41803 0.021-0.8306 0.1934-1.1496 0.5207-0.16457 0.1689-0.14699 0.1417-0.60657 0.9352-0.0558 0.096-0.20693 0.3567-0.33592 0.5787-0.12899 0.2221-0.25217 0.4343-0.27373 0.4716-0.0215 0.037-0.0897 0.1547-0.15145 0.2608-0.0618 0.1061-0.1299 0.2235-0.15144 0.2608-0.0215 0.037-0.26053 0.4489-0.53106 0.9146-0.27052 0.4657-0.50295 0.8661-0.51651 0.8896-0.65316 1.1356 0.0684 2.5088 1.3776 2.6217 0.0649 0.01 0.27739 0 0.35727-0.014 0.48403-0.068 0.9279-0.3467 1.196-0.7499 0.0392-0.059 0.69966-1.1896 0.85266-1.4596 0.0161-0.028 0.0232-0.035 0.0286-0.029 4e-3 0.01 0.18332 0.313 0.39857 0.6844 0.55231 0.9529 0.56742 0.9749 0.79725 1.1657 1.0787 0.8953 2.7067 0.2207 2.8442-1.1786 0.043-0.4375-0.0375-0.6964-0.42231-1.359-0.11527-0.1985-0.31794-0.5474-0.45038-0.7753s-0.33408-0.5752-0.44809-0.7717-0.30621-0.5277-0.42711-0.736c-0.33201-0.572-0.32843-0.5658-0.56778-0.9789-0.25883-0.4467-0.29458-0.5046-0.36802-0.5966-0.36824-0.4612-0.91473-0.683-1.4522-0.6556z"/></svg>
