<svg version="1.1" viewBox="0 0 24 24" xmlns="http://www.w3.org/2000/svg">
 <path d="m12 2a10 10 0 0 0-10 10 10 10 0 0 0 10 10 10 10 0 0 0 10-10 10 10 0 0 0-10-10zm0 0.87448a9.1378 9.1378 0 0 1 9.1324 9.1255 9.126 9.126 0 1 1-9.1324-9.1255zm-0.45224 0.63221a8.5058 8.5058 0 0 0 0.45224 16.999 8.5176 8.5176 0 0 0 8.5118-8.506 8.5058 8.5058 0 0 0-8.964-8.4933zm-0.2215 2.0904h2.7653c1.967 0.15358 2.7998 1.1341 2.5104 2.9534a3.7981 3.7981 0 0 1-2.605 2.7527v0.06461c1.5889 0.31897 2.2085 1.3473 1.8482 3.078-0.83286 2.2741-2.534 3.5028-5.1211 3.6387h-2.0258a1.3054 1.3054 0 0 1-1.3233-1.3706 3.1483 3.1483 0 0 1 0.088832-0.51454c0.01772-0.11814 0.92755-3.2487 0.92755-3.2487l2.4458-0.09345a2.1678 2.1678 0 0 0 0.12921 2.1204c0.55524 1.0928 1.6004 1.4706 2.327 1.0925 0.72653-0.37803 0.8634-1.3706 0.30226-2.4515-0.50208-0.96871-1.3829-1.53-2.0858-1.3706l-2.9534 0.11883 1.3879-4.7254 1.967-0.059991a1.5948 1.5948 0 0 0 0.08306 1.584c0.41348 0.82104 1.1639 1.1338 1.7132 0.85025 0.54933-0.28353 0.70895-1.0397 0.28957-1.8666a1.6185 1.6185 0 0 0-1.5713-1.051l-2.3627 0.070374 0.21228-0.74988a1.0101 1.0101 0 0 1 1.051-0.82141z" fill="currentColor"/>
</svg>
