<?xml version="1.0" encoding="UTF-8"?>
<svg version="1.1" viewBox="0 0 24 24" xml:space="preserve" xmlns="http://www.w3.org/2000/svg"><path d="m2.4961 21.946c-0.024-0.03879 0.0164-0.11583 0.0935-0.17825 0.0747-0.06046 0.50885-0.46307 0.96484-0.89468 0.456-0.43161 0.9179-0.86738 1.0264-0.96838 0.21046-0.19581 0.21618-0.35993 0.0126-0.35993-0.11003 0-0.88007-0.16767-1.3712-0.29856-0.42106-0.11222-0.32397-0.32351 0.3528-0.76774 0.31531-0.20697 1.0552-0.70212 1.6443-1.1003 0.97216-0.65722 1.2335-0.78371 1.1813-0.57179-0.01 0.04012-0.25609 0.27921-0.54714 0.5313-1.8202 1.5765-1.6545 1.4149-1.5632 1.5249 0.043 0.05182 0.15039 0.09423 0.23863 0.09423 0.0882 0 0.23713 0.0236 0.33089 0.05245 0.0938 0.02885 0.32923 0.08614 0.52327 0.1273 0.74659 0.1584 0.76234 0.31272 0.0818 0.80107-1.0168 0.7296-1.643 1.1828-2.2399 1.621-0.66831 0.49064-0.66592 0.48936-0.72895 0.38737zm8.5244-1.9868c-0.1583-0.06636-0.1758-0.16535-0.28633-1.6198-0.0492-0.64679-0.10487-1.2847-0.1238-1.4176l-0.0344-0.24158-0.65606 0.23238c-0.85154 0.30162-1.0139 0.34767-1.3322 0.37783l-0.26459 0.02507-1.0976-1.0873c-1.3189-1.3066-1.2394-1.0834-0.8219-2.3082l0.34342-1.0074-0.21157-0.03222c-0.11636-0.01772-0.59522-0.06161-1.0642-0.09754-2.2679-0.17376-2.2775-0.17944-1.8509-1.1026 0.95865-2.0749 3.3734-4.1304 5.9604-5.0736l0.34667-0.1264 0.34279-0.47951c0.89888-1.2574 2.3356-2.3729 3.8739-3.0079 2.4792-1.0233 7.1438-1.3555 7.2821-0.5186 0.28584 1.7299-0.18155 5.0964-0.973 7.0083-0.17121 0.41361-0.26198 0.59434-0.60048 1.1957-0.50977 0.90555-1.706 2.1534-2.5695 2.6802-0.15131 0.09233-0.24251 0.21004-0.31694 0.40911-0.5087 1.3604-1.5479 3.015-2.5885 4.1211-1.1616 1.2348-2.8568 2.2803-3.3573 2.0705zm0.98796-1.1013c1.2205-0.71098 2.4838-2.0478 3.3792-3.576 0.58762-1.0028 0.62166-1.1473 0.21054-0.89368-0.42698 0.26341-2.8856 1.4343-3.7914 1.8056-0.52331 0.21452-0.4915 0.12507-0.39705 1.1166 0.0323 0.33956 0.0745 0.87537 0.0938 1.1907 0.0401 0.65762 0.0167 0.64111 0.50487 0.35676zm-3.0386-2.4286c0.097-0.02444 0.37485-0.11625 0.61739-0.20402 0.24255-0.08777 0.50714-0.18084 0.58799-0.20683 0.88379-0.28408 2.7007-1.0943 4.4393-1.9796 3.0782-1.5674 4.4834-2.9671 5.3242-5.3033l0.13404-0.37243-4.9399-4.9399-0.61197 0.25093c-2.1117 0.86588-3.3817 2.0641-4.6999 4.4343-0.23466 0.42193-1.5274 3.0044-1.5274 3.0512 0 0.01803-0.0825 0.21204-0.18342 0.43114-0.45974 0.99854-1.1873 3.0102-1.1576 3.2006 0.0276 0.17665 1.6452 1.7628 1.7526 1.7186 0.0485-0.01996 0.16758-0.05629 0.26459-0.08074zm3.3038-5.1048c-0.20908-0.21824-0.20538-0.23383 0.13523-0.56932l0.29323-0.28882 0.17716 0.16973c0.2286 0.21901 0.22743 0.22546-0.10213 0.56432-0.32949 0.33879-0.30385 0.33247-0.50349 0.12409zm1.1407-1.153-1.2576-1.2586 0.14117-0.17769c0.0777-0.09773 0.17023-0.19036 0.20575-0.20584 0.0355-0.01548 0.63052 0.53825 1.3222 1.2305l1.2577 1.2587-0.4116 0.41159zm0.86168-0.90228c-1.3688-1.37-1.2829-1.2462-1.0315-1.4865l0.18809-0.17975 2.5304 2.5304-0.17073 0.1782c-0.2421 0.2527-0.17897 0.2961-1.5163-1.0424zm0.9476-0.92829c-1.2892-1.3012-1.2498-1.248-1.0858-1.4663 0.17552-0.23373 0.20152-0.21492 1.5101 1.0925l1.2416 1.2405-0.16356 0.17072c-0.23868 0.24913-0.20388 0.27316-1.5023-1.0374zm0.84184-0.86835c-0.17478-0.18604-0.16734-0.21163 0.15347-0.52761 0.32874-0.3238 0.30473-0.31747 0.50388-0.1329 0.20442 0.18945 0.19993 0.21272-0.10196 0.5278-0.29233 0.3051-0.3749 0.32483-0.55539 0.13271zm-8.7456 4.0462c0.42239-0.99152 1.094-2.379 1.6438-3.3956 0.32215-0.59576 0.30872-0.60464-0.36791-0.24343-1.7017 0.90847-3.4073 2.4085-3.9484 3.4727-0.0465 0.09149-0.1435 0.26311-0.21551 0.38137l-0.13091 0.21502 0.62937 0.03803c0.34616 0.02092 0.84105 0.06011 1.0998 0.08708 0.25872 0.02698 0.59841 0.0454 0.75488 0.04094l0.28448-0.0081zm13.089-4.385c0.19608-1.0009 0.24234-1.4856 0.27309-2.862l0.03318-1.4847h-0.97564c-1.2485 0-2.8183 0.15936-3.5341 0.35876l-0.23166 0.06453 2.1581 2.1493c1.187 1.1821 2.1708 2.1366 2.1863 2.1211 0.01549-0.01549 0.05628-0.17168 0.09064-0.34708z"/></svg>
