<svg viewBox="0 0 24 24" xmlns="http://www.w3.org/2000/svg"><path d="M13.3 13.07c.16-.02.32-.02.48 0a2.51 2.51 0 0 1 1.88 1.63c.08.26.19.66.26.93l.09.37h.38a5.49 5.49 0 0 0 5.38-5.46c0-4.52-3.77-8.28-9.54-8.28a10.16 10.16 0 0 0-6.33 2.3 10 10 0 0 0-3.67 7.74c.006.791.1 1.58.28 2.35a10 10 0 0 0 9.72 7.65c.435-.001.869-.028 1.3-.08A10 10 0 0 0 20 18.6l.1-.12-.2-.73-.38.1a14.32 14.32 0 0 1-3.72.48 14.14 14.14 0 0 1-3-.31 2.51 2.51 0 0 1-1.87-1.65 2.5 2.5 0 0 1 2.37-3.3zm-1.07-9.83c5.34 0 8.6 3.42 8.6 7.34a4.55 4.55 0 0 1-4.1 4.5c-.06-.22-.13-.45-.18-.62a15.25 15.25 0 0 0-9.36-9.7c1.606-1.021 3.244-1.54 5.04-1.52zM3.17 12.3A9 9 0 0 1 6.3 5.45a14.35 14.35 0 0 1 8.38 7 3.26 3.26 0 0 0-.68-.25 15.86 15.86 0 0 0-3.17-.33 15.65 15.65 0 0 0-7.51 1.94 9.33 9.33 0 0 1-.15-1.51zm9.44 6.64a15.9 15.9 0 0 0 3.19.33 16.764 16.764 0 0 0 2.46-.19 9 9 0 0 1-4.6 2.17 13.908 13.908 0 0 1-1.73-2.52c.22.091.447.161.68.21zm-.07 2.42h-.31a8.82 8.82 0 0 1-4.16-1A14.24 14.24 0 0 1 9.88 16c.032.241.086.479.16.71a15.68 15.68 0 0 0 2.5 4.65zm-1.83-8a15.6 15.6 0 0 0-3.48 6.55 9 9 0 0 1-3.72-5.1 14.27 14.27 0 0 1 7.29-1.95h.44a3.57 3.57 0 0 0-.53.45z"/></svg>