<?xml version="1.0" encoding="UTF-8"?>
<svg version="1.1" viewBox="0 0 24 24" xmlns="http://www.w3.org/2000/svg">
 <path d="m13.3 13.07c0.15936-0.02018 0.32064-0.02018 0.48 0 0.87083 0.17263 1.5857 0.79243 1.88 1.63 0.08 0.26 0.19 0.66 0.26 0.93l0.09 0.37h0.38c2.9774-0.05963 5.3643-2.4821 5.38-5.46 0-4.52-3.77-8.28-9.54-8.28-2.3101 0.024686-4.5429 0.83595-6.33 2.3-2.3224 1.8989-3.6695 4.7401-3.67 7.74 0.00565 0.79131 0.099569 1.5795 0.28 2.35 1.0851 4.4883 5.1024 7.65 9.72 7.65 0.43453-0.0011 0.86861-0.02784 1.3-0.08 2.5408-0.3331 4.8568-1.6289 6.47-3.62l0.1-0.12-0.2-0.73-0.38 0.1c-1.2136 0.32241-2.4643 0.48379-3.72 0.48-1.0082 0.0039-2.0139-0.10001-3-0.31-0.8718-0.17953-1.5833-0.80734-1.87-1.65-0.28246-0.84101-0.09997-1.7687 0.48-2.44 0.47553-0.54712 1.1651-0.8609 1.89-0.86zm-1.07-9.83c5.34 0 8.6 3.42 8.6 7.34-0.01417 2.328-1.7834 4.2698-4.1 4.5-0.06-0.22-0.13-0.45-0.18-0.62-1.4441-4.5116-4.9028-8.0959-9.36-9.7 1.6061-1.0213 3.2442-1.5401 5.04-1.52zm-9.06 9.06c-0.0081-2.6311 1.1355-5.134 3.13-6.85 3.6066 1.1379 6.6182 3.6536 8.38 7-0.21667-0.10834-0.44475-0.19219-0.68-0.25-1.0429-0.21616-2.1049-0.32672-3.17-0.33-2.6265 0.006236-5.2091 0.67339-7.51 1.94-0.090916-0.49843-0.14108-1.0034-0.15-1.51zm9.44 6.64c1.0495 0.21723 2.1183 0.32779 3.19 0.33 0.82355-0.0028 1.6458-0.06635 2.46-0.19-1.2928 1.1506-2.8899 1.904-4.6 2.17-0.66749-0.7739-1.2477-1.619-1.73-2.52 0.21966 0.09095 0.44731 0.16126 0.68 0.21zm-0.07 2.42h-0.31c-1.4477 0.01315-2.8764-0.33029-4.16-1 0.35655-1.5439 0.96829-3.0175 1.81-4.36 0.032023 0.24097 0.085571 0.47859 0.16 0.71 0.56453 1.6802 1.4098 3.2524 2.5 4.65zm-1.83-8c-1.6697 1.8718-2.8635 4.1186-3.48 6.55-1.8151-1.1951-3.1364-3.0066-3.72-5.1 2.211-1.2924 4.729-1.9659 7.29-1.95h0.44c-0.19089 0.1324-0.3684 0.28311-0.53 0.45z"/>
</svg>
