<svg viewBox="0 0 24 24" xmlns="http://www.w3.org/2000/svg"><path d="M14.42 6.47c-.63.014-1.105.457-1.11 1.06v2.56c0 .33-.28.55-.67.55a.63.63 0 0 1-.67-.55V6.64a1.11 1.11 0 0 0-1.11-1.06 1.07 1.07 0 0 0-1.11 1.06v2.77c0 .34-.28.56-.67.56a.63.63 0 0 1-.66-.56v-1a1.1 1.1 0 0 0-1.11-1 1.07 1.07 0 0 0-1.12 1v2.39a.58.58 0 0 1-.66.56.63.63 0 0 1-.67-.56v-.27c.053-1.48-2.167-1.56-2.22-.08v3.41c0 1.48 2.22 1.48 2.22 0v-.28c0-.33.28-.55.67-.55a.61.61 0 0 1 .66.55v3.78a1.11 1.11 0 0 0 1.12 1.06 1.07 1.07 0 0 0 1.11-1.06V12.2a.58.58 0 0 1 .66-.56.63.63 0 0 1 .67.56v2.55a1.1 1.1 0 0 0 1.11 1.06A1.07 1.07 0 0 0 12 14.75v-1.89c0-.33.28-.55.67-.55a.63.63 0 0 1 .67.55v2.06A1.11 1.11 0 0 0 14.42 16a1.07 1.07 0 0 0 1.11-1.06V7.53a1.11 1.11 0 0 0-1.11-1.06M18 9.36a1.07 1.07 0 0 0-1.11 1.06v4.22A1.1 1.1 0 0 0 18 15.7a1.07 1.07 0 0 0 1.11-1.06v-4.22A1.07 1.07 0 0 0 18 9.36m3.56 2.11a1.07 1.07 0 0 0-1.11 1.06v1.06a1.1 1.1 0 0 0 1.11 1.06 1.07 1.07 0 0 0 1.11-1.06v-1.06a1.07 1.07 0 0 0-1.11-1.06" fill-rule="evenodd"/></svg>