<svg viewBox="0 0 24 24" xmlns="http://www.w3.org/2000/svg"><path d="M8.109 22c.178.003.543-.02.81-.05s.767-.117 1.11-.193c.341-.075 1.048-.28 1.57-.452s1.376-.499 1.901-.724a40.399 40.399 0 0 0 1.783-.822 50.608 50.608 0 0 0 1.424-.741c.327-.18.923-.522 1.324-.76a49.446 49.446 0 0 0 1.429-.888l.698-.454-1.671-1.673c-.92-.92-1.692-1.672-1.716-1.672-.025 0-.39.216-.812.48a44.39 44.39 0 0 1-1.388.83c-.343.194-.954.522-1.36.73a21.01 21.01 0 0 1-1.14.546 8.49 8.49 0 0 1-.931.305 3.723 3.723 0 0 1-.996.136c-.336 0-.529-.029-.686-.1-.12-.055-.324-.219-.453-.364s-.317-.435-.416-.643c-.1-.208-.228-.563-.285-.787s-.136-.651-.175-.947c-.04-.308-.07-1.08-.07-1.808 0-.72.03-1.482.068-1.757.037-.268.116-.691.174-.94s.183-.615.277-.812a2.6 2.6 0 0 1 .473-.66c.246-.245.357-.315.593-.372a2.14 2.14 0 0 1 .659-.035c.202.019.562.08.798.137.237.056.668.204.96.329s.737.33.992.459a45.34 45.34 0 0 1 2.922 1.655c.401.25.75.464.777.475.027.011.797-.739 1.71-1.667l1.663-1.687-.55-.368a44.886 44.886 0 0 0-3.326-1.974 47.287 47.287 0 0 0-1.746-.872 36.141 36.141 0 0 0-1.625-.705c-.422-.167-1.06-.4-1.417-.518s-.94-.283-1.298-.368a14.11 14.11 0 0 0-1.071-.212A7.88 7.88 0 0 0 8.199 2c-.258 0-.63.035-.827.077s-.477.137-.622.21c-.152.078-.46.338-.727.613a7.596 7.596 0 0 0-.628.721c-.091.134-.255.422-.365.64s-.283.648-.386.955-.248.833-.324 1.17c-.076.336-.184.94-.24 1.343a36.921 36.921 0 0 0-.171 1.516c-.042.472-.069 1.592-.067 2.812 0 1.522.025 2.264.096 2.974.052.52.155 1.306.23 1.745.073.44.216 1.096.316 1.46.1.364.274.88.386 1.147.113.267.344.693.514.948s.515.66.765.9c.346.332.53.465.767.553.17.064.436.138.59.163.153.026.424.05.603.053z"/></svg>