<?xml version="1.0" encoding="UTF-8"?>
<svg version="1.1" viewBox="0 0 24 24" xml:space="preserve" xmlns="http://www.w3.org/2000/svg"><path d="m12.131 21.975c-0.14409-0.01488-0.2165-0.03098-1.1005-0.24472-5.1107-1.2357-8.4343-6.2303-7.5608-11.362 1.3072-7.6799 10.416-10.998 16.418-5.9814 0.81163 0.67837 1.0254 0.31787-1.9296 3.2548-1.3634 1.3551-2.8323 2.823-3.2642 3.262-1.3954 1.4184-1.7128 1.3898-0.79493-0.07153 0.48187-0.7672 0.39784-1.0192-0.35582-1.0669-2.0797-0.13177-3.1999 2.2806-1.7652 3.8015 0.91106 0.96578 2.5422 0.88528 3.5487-0.17513 0.18882-0.19893 0.25141-0.19478 0.25141 0.01668 0 0.26963 0.0921 0.42593 0.37952 0.64378 0.1453 0.11014 0.36117 0.29037 0.47972 0.40051 0.30129 0.27992 0.4307 0.26812 0.888-0.08094 0.5018-0.38302 0.0129 0.55273-0.64187 1.2286-1.8738 1.9342-5.3467 1.7405-7.0872-0.39521-3.174-3.8947 0.52579-9.3909 5.3381-7.93l0.33223 0.10086 0.16322-0.08878c0.8424-0.4582 1.0011-1.5547 0.26571-1.8357-4.7906-1.8306-10.01 2.4639-9.2341 7.5975 0.93714 6.1995 9.0284 8.1374 12.766 3.0574 0.39537-0.53745 0.43074-0.58141 0.46768-0.58141 0.0517 0-3e-3 0.23515-0.13192 0.56247-0.24508 0.62465-0.22627 0.69378 0.32403 1.1909 0.90902 0.82117 0.96482 1.0104 0.48336 1.639-1.0585 1.3821-3.3563 2.6114-5.498 2.9415-0.10278 0.01584-0.28892 0.05488-0.41363 0.08676-0.21157 0.05407-1.8843 0.07539-2.3273 0.02966z"/></svg>
