<svg version="1.1" viewBox="0 0 24 24" xml:space="preserve" xmlns="http://www.w3.org/2000/svg"><path d="m11.832 4.34c-0.98797 0.031609-1.9104 0.29622-2.7667 0.7937-1.6369 1.0431-2.5337 2.537-2.6908 4.4824v0.58963c0.02134 0.24616 0.053971 0.49325 0.098138 0.74094 0.10987 0.49525 0.2713 0.95825 0.48406 1.3896-0.22495-0.02534-0.45253-0.03925-0.68073-0.04184h-3.91e-4c-0.06061-6.28e-4 -0.12119-5.51e-4 -0.18181 3.91e-4 -1.6166 0.02359-3.2216 0.60359-3.9495 1.6078-0.24192 0.33376-0.20967 0.39452 0.34252 0.64397 0.48349 0.21842 1.6005 1.2586 3.117 2.9031 2.3478 2.5457 3.6283 2.8291 5.323 1.1765l0.53958-0.48718-0.35464-0.47741c-0.18145-0.24417-0.58961-0.80734-0.97009-1.2613-0.58363-0.69659-0.87852-0.97386-1.5436-1.3036-0.2581-0.12794-0.93795-0.47332-1.5785-0.67565-0.6492-0.20506-3.8376-0.52081-1.1746-0.37731 0.028825 0.0016 1.1508 0.14058 1.6625 0.25376 0.49685 0.10995 1.0214 0.32422 1.1753 0.37184 0.74692 0.23112 1.5451 0.90698 2.0778 1.5378l0.35503 0.41993c0.0074 0.01171 0.01631 0.02581 0.02111 0.03323 0.0061 0.01117 0.01225 0.02244 0.01838 0.03362 0.0011 0.0019 0.0018 0.0033 0.0027 0.0051 0.05892 0.04876 0.12112 0.09365 0.17947 0.14311 0.01303 0.01105 0.02548 0.02236 0.03832 0.03363 0.02464 0.02281 0.04867 0.04625 0.07194 0.07038 0.12887 0.03538 0.26159 0.05612 0.39804 0.06178h0.12082c0.03939-2e-3 0.07866-5e-3 0.11769-0.0094 0.06821-0.03318 0.13665-0.06586 0.20567-0.09736 0.08869-0.0591 0.17908-0.11568 0.2737-0.165 0.10622-0.05435 0.2145-0.10515 0.31554-0.16892 0.0067-0.0044 0.0133-0.0088 0.01994-0.0133 0.1095-0.03626 0.15835-0.04864 0.28661-0.09227 1.0595-0.37092 1.62-0.53616 2.3351-0.6471 0.28465-0.04416 1.6633-0.16672 2.751-0.0067 0.97033 0.1428 1.8454 0.48592 1.9237 0.56734 0.0763 0.07924-0.53918-0.04425-2.3007-0.18964-0.34642-0.02859-0.55899-0.02948-0.98883-0.01603-0.25498 8e-3 -0.54362 0.02721-1.0057 0.04771-1.1685 0.05191-2.5449 0.74777-3.3005 1.4565l-0.71749 0.47898 0.55365 0.4387c1.4286 1.1325 3.654 1.5502 6.4949 0.22521 1.4056-0.65554 2.3085-1.1025 2.7941-1.7211l0.27527-0.3503-0.79095-0.95206c-0.58395-0.70289-0.97017-1.0615-1.476-1.3701-1.0354-0.63151-2.19-0.94736-3.2954-0.95951-0.04441-4.71e-4 -0.0887-4.71e-4 -0.13294 0-0.06487 7.23e-4 -0.12832 0.0078-0.19276 0.01056 0.78421-0.93128 1.2273-2.0209 1.3282-3.2684v-0.58962c-0.05708-0.90447-0.31173-1.7509-0.76363-2.5395-1.091-1.7236-2.6606-2.6357-4.7092-2.7362h-0.13607zm0.05826 0.75698c0.72059-0.00252 1.442 0.1659 2.1638 0.50556 1.3826 0.73326 2.2318 1.8697 2.5474 3.4091 0.29018 1.9062-0.30744 3.4617-1.7896 4.6677-0.52765 0.15329-1.0152 0.39204-1.4459 0.70575 0.05359-0.40538 0.09156-0.8133 0.11222-1.2243-0.01011-0.08854-0.02245-0.1769-0.03754-0.26471-0.04105-0.21709-0.14968-0.39098-0.32531-0.52159-0.2813-0.17744-0.58849-0.27334-0.92196-0.28738-0.10339-0.01008-0.20603-0.0147-0.30811-0.01408-0.30627 0.0019-0.60673 0.0519-0.90126 0.15015-0.43148 0.16449-0.64835 0.47963-0.65023 0.94508 0.01883 0.37349 0.05188 0.74431 0.09814 1.1132-0.41415-0.57111-0.9668-1.0663-1.6027-1.3998-0.28046-0.14708-0.58396-0.26495-0.90204-0.35581-0.57273-0.84011-0.83682-1.8096-0.78946-2.9098 0.15491-1.8009 1.0193-3.1336 2.5927-3.9984 0.71937-0.34469 1.4393-0.51828 2.1599-0.52081zm0.03636 1.2375c-0.07626-0.0017-0.15339-0.0014-0.23147 7.82e-4v-3.91e-4c-1.2782 0.11347-2.2434 0.71813-2.8954 1.8142-0.58619 1.1474-0.59098 2.2965-0.014858 3.4471 0.096068 0.19187 0.24966 0.26985 0.46099 0.2342 0.2278-0.08009 0.31612-0.23885 0.26471-0.47623-0.065507-0.14108-0.13117-0.28196-0.19668-0.42306-0.091161-0.21849-0.15164-0.44531-0.18142-0.68034-0.1006-0.9229 0.17396-1.7119 0.8238-2.3664 0.54336-0.52568 1.1959-0.79511 1.9577-0.80859 1.1811 0.06309 2.033 0.62251 2.5552 1.6782 0.35166 0.85932 0.30629 1.6957-0.13607 2.5094-0.0257 0.06851-0.0436 0.13894-0.05318 0.21153 0.02356 0.17085 0.11428 0.28944 0.27213 0.35542 0.15701 0.03888 0.2907 0.0011 0.40078-0.11339 0.24602-0.40542 0.4024-0.84395 0.46881-1.3154 0.11429-0.98122-0.11252-1.873-0.68033-2.6756-0.73275-0.9022-1.671-1.3661-2.8148-1.3916zm-0.17204 1.9812c-0.60718 0.08577-1.0377 0.40847-1.2922 0.96774-0.24007 0.68999-0.09643 1.2873 0.43088 1.7915 0.67522 0.49385 1.3505 0.49385 2.0258 0 0.5273-0.50423 0.67056-1.1015 0.43049-1.7915-0.32141-0.66359-0.85304-0.98632-1.5949-0.96774zm0.13255 0.74759c0.2362-9.17e-4 0.43543 0.07895 0.59744 0.23851-0.19148-0.18856-0.43491-0.26508-0.73-0.22952-0.18871 0.04394-0.33772 0.12489-0.4473 0.2432 0.1096-0.11842 0.25848-0.19962 0.4473-0.24359 0.0454-0.0055 0.0896-0.0084 0.13255-0.0086zm0.64085 0.28386c0.02816 0.0316 0.05522 0.06556 0.08094 0.10244 0.02133 0.04258 0.03918 0.08501 0.05434 0.12707-0.01512-0.04183-0.03314-0.08396-0.05434-0.12629-0.02578-0.03697-0.05271-0.07156-0.08094-0.10323zm-1.3274 0.11769c-0.01998 0.03659-0.03737 0.07567-0.05239 0.11691 0.01504-0.04138 0.03238-0.08021 0.05239-0.11691z"/></svg>
