<?xml version="1.0" encoding="UTF-8"?>
<svg version="1.1" viewBox="0 0 24 24" xmlns="http://www.w3.org/2000/svg">
 <path d="m14.42 6.47c-0.62988 0.014067-1.1048 0.45701-1.11 1.06v2.56c0 0.33-0.28 0.55-0.67 0.55-0.33401 0.02386-0.62833-0.21774-0.67-0.55v-3.45c-0.026758-0.59343-0.51597-1.0606-1.11-1.06-0.60259-0.022565-1.1048 0.45701-1.11 1.06v2.77c0 0.34-0.28 0.56-0.67 0.56-0.33371 0.01793-0.62335-0.22783-0.66-0.56v-1c-0.052167-0.57201-0.53566-1.0076-1.11-1-0.5838-0.02852-1.0825 0.41671-1.12 1v2.39c-0.0086193 0.34631-0.31691 0.60789-0.66 0.56-0.33746 0.023482-0.63323-0.22373-0.67-0.56v-0.27c0.053333-1.48-2.1667-1.56-2.22-0.08v3.41c0 1.48 2.22 1.48 2.22 0v-0.28c0-0.33 0.28-0.55 0.67-0.55 0.33369-0.02896 0.62831 0.21656 0.66 0.55v3.78c0.026903 0.59732 0.52211 1.066 1.12 1.06 0.60259 0.02256 1.1048-0.45701 1.11-1.06v-5.16c0.00862-0.34631 0.31691-0.60789 0.66-0.56 0.33746-0.02348 0.63323 0.22373 0.67 0.56v2.55c0.021649 0.59574 0.5139 1.0658 1.11 1.06 0.61413 0.04028 1.1356-0.44456 1.14-1.06v-1.89c0-0.33 0.28-0.55 0.67-0.55 0.33401-0.02386 0.62833 0.21774 0.67 0.55v2.06c0.01574 0.58983 0.49017 1.0643 1.08 1.08 0.60259 0.02257 1.1048-0.45701 1.11-1.06v-7.41c-0.026758-0.59343-0.51597-1.0606-1.11-1.06m3.58 2.89c-0.60259-0.022565-1.1048 0.45701-1.11 1.06v4.22c0.02165 0.59574 0.5139 1.0658 1.11 1.06 0.60259 0.02257 1.1048-0.45701 1.11-1.06v-4.22c-0.005213-0.60299-0.50741-1.0826-1.11-1.06m3.56 2.11c-0.60259-0.02257-1.1048 0.45701-1.11 1.06v1.06c0.02165 0.59574 0.5139 1.0658 1.11 1.06 0.60259 0.02257 1.1048-0.45701 1.11-1.06v-1.06c-0.0052-0.60299-0.50741-1.0826-1.11-1.06" fill-rule="evenodd"/>
</svg>
