<svg viewBox="0 0 24 24" xmlns="http://www.w3.org/2000/svg"><path d="M3.572 17.208H2.151v-.189a.397.397 0 0 0-.112-.29c-.11-.099-.084-.128 1.416-1.655.84-.855 2.632-2.642 3.981-3.97a207.274 207.274 0 0 1 3.215-3.116c.419-.385.91-.812 1.091-.948l.33-.249.171.099c.095.054.459.373.81.708a48.09 48.09 0 0 1 1.56 1.605c.507.547 1.423 1.552 2.036 2.233a156.17 156.17 0 0 0 1.79 1.961c.402.43 1.02 1 1.525 1.408.467.377 1.08.913 1.364 1.192.284.279.559.592.612.696.063.125.077.209.04.245-.034.034-1.037.076-2.525.105-1.357.027-5.167.075-8.465.107s-6.636.058-7.418.058zm17.15-.518.75.01-.181-.228c-.1-.126-1.122-1.174-2.271-2.329a313.978 313.978 0 0 0-4.54-4.441L12.033 7.36l-.96.968c-.528.533-2.539 2.578-4.468 4.544l-3.507 3.575.667.035c.366.02 2.934.05 5.706.068 3.7.023 5.005.015 4.911-.03a.34.34 0 0 1-.161-.195c-.018-.073-.003-.17.035-.214.044-.053.054-.162.029-.31-.026-.152-.018-.226.025-.226.034 0 .077.038.095.084.018.047.093.085.167.085.097 0 .135-.032.135-.113 0-.088-.038-.113-.174-.113-.114 0-.165-.024-.15-.07.015-.044.134-.071.318-.073.168 0 .318.028.352.068.032.039.04.099.02.133-.022.034-.075.049-.118.032-.05-.019-.08.008-.08.074 0 .057-.03.13-.07.161a.557.557 0 0 1-.182.085c-.1.024-.098.028.017.034.072.004.18.033.24.065a.22.22 0 0 1 .109.173.564.564 0 0 1-.059.223c-.032.06-.1.109-.15.109-.05 0-.073.019-.05.042.024.023 1.212.056 2.642.074l3.35.042zm-15.88-.275a1.134 1.134 0 0 1-.229-.061.32.32 0 0 1-.196-.207 2.108 2.108 0 0 1-.033-.468c.005-.175.05-.396.1-.492.049-.095.15-.19.226-.208.075-.019.163-.018.196.003.033.02.06.073.06.117 0 .045-.05.082-.11.082a.34.34 0 0 0-.202.094c-.074.074-.09.17-.072.451.016.245.054.388.123.455.095.093.108.089.255-.086.085-.1.172-.166.193-.145.02.02.038.073.038.115s-.063.14-.139.216c-.076.076-.17.136-.21.134zm1.012-.014c-.228.01-.348-.012-.409-.073-.047-.047-.085-.12-.085-.163s.027-.094.06-.114c.033-.02.092.007.132.061.052.072.112.088.225.06.105-.026.147-.069.133-.135-.014-.07-.07-.094-.2-.088-.115.005-.182-.018-.182-.064 0-.04.04-.088.09-.107a.66.66 0 0 1 .197-.034c.059 0 .108-.04.108-.087a.14.14 0 0 0-.087-.12c-.048-.017-.132.009-.187.059-.056.05-.133.091-.171.091-.039 0-.062-.044-.052-.098.01-.054.087-.13.17-.17a.51.51 0 0 1 .297-.037c.08.02.167.078.194.129.026.05.058.268.069.484l.02.392zm.873.017a.623.623 0 0 1-.255-.06.213.213 0 0 1-.099-.163c0-.059.026-.123.057-.142.03-.02.072.005.09.053.02.051.1.088.194.088.087 0 .177-.03.2-.065.021-.035-.007-.099-.065-.14a.46.46 0 0 0-.231-.076.231.231 0 0 1-.187-.109.297.297 0 0 1-.02-.211c.021-.057.065-.121.099-.144s.165-.042.293-.042c.167-.001.244.026.27.093.02.051.01.12-.021.15-.038.039-.094.024-.169-.044-.063-.057-.152-.086-.202-.066a.123.123 0 0 0-.072.133c.012.065.074.1.183.105a.384.384 0 0 1 .266.132c.057.07.103.151.103.18 0 .03-.062.115-.138.191a.453.453 0 0 1-.296.137zm1.074.001c-.076 0-.168-.057-.22-.137a.63.63 0 0 1-.072-.38c.014-.183-.002-.241-.065-.242-.046 0-.092-.043-.102-.095-.01-.055.03-.108.098-.13.075-.024.115-.085.115-.174 0-.087.033-.137.089-.137.063 0 .083.044.07.154-.015.13.003.153.123.155.085 0 .14.033.14.083 0 .045-.063.097-.14.116-.127.031-.14.059-.124.282.009.136.028.26.044.275.015.015.1-.016.189-.068a.915.915 0 0 1 .193-.096c.018 0 .017.044-.003.099a.761.761 0 0 1-.12.197.324.324 0 0 1-.215.098zm.982-.002a1.01 1.01 0 0 1-.25-.08c-.154-.066-.182-.112-.214-.349-.02-.15-.012-.399.018-.552.033-.177.1-.318.18-.383.07-.057.18-.096.244-.086.064.009.125.06.135.115.014.073-.018.098-.124.098a.233.233 0 0 0-.207.12c-.037.07-.055.263-.04.453.015.217.057.365.122.429.094.091.107.087.254-.087.086-.1.172-.166.193-.145.02.02.038.072.038.115s-.062.14-.138.216c-.076.076-.171.137-.211.136zm.893-.001a.807.807 0 0 1-.19-.054.306.306 0 0 1-.16-.188.82.82 0 0 1-.016-.265c.01-.07.049-.138.086-.15.04-.013.073.05.084.158.01.1.062.209.116.243.072.045.126.045.198 0 .054-.034.106-.128.116-.208a.53.53 0 0 0-.047-.267c-.054-.1-.098-.115-.257-.085-.106.02-.193.015-.193-.012s.03-.078.068-.115c.037-.037.148-.067.247-.067.13 0 .205.04.274.144.052.08.097.214.1.297a.814.814 0 0 1-.087.327c-.05.096-.132.191-.182.21a.473.473 0 0 1-.157.032zm1.989.003c-.162 0-.24-.032-.306-.125a.58.58 0 0 1-.088-.283c0-.087.037-.245.081-.352.05-.118.132-.206.214-.226a.569.569 0 0 1 .286.025c.085.032.17.099.188.148.02.048.006.15-.028.226-.036.08-.11.137-.176.137-.064 0-.114-.037-.114-.085 0-.046.025-.084.056-.084s.057-.037.057-.081c0-.045-.024-.096-.053-.114-.028-.017-.117-.002-.197.034-.08.037-.145.085-.145.107 0 .022.057.057.127.076.122.035.123.039.021.117-.06.046-.091.118-.072.168.019.049.1.087.186.087a.439.439 0 0 0 .255-.093c.096-.088.103-.086.103.024 0 .064-.04.157-.089.206-.05.05-.183.088-.306.088zm.808-.016a.094.094 0 0 1-.103-.04c-.022-.034-.03-.194-.02-.355.01-.16-.002-.324-.027-.363-.025-.039-.029-.096-.01-.127a.153.153 0 0 1 .116-.056c.045 0 .081.03.081.065 0 .038.045.024.108-.033a.339.339 0 0 1 .24-.079c.084.012.137.063.148.143.016.112-.004.122-.222.112l-.24-.01-.003.36c-.001.22-.028.37-.068.383zm1.243-.002c-.207.01-.368-.01-.408-.05a.318.318 0 0 1-.066-.196c0-.074.034-.13.079-.13.043 0 .093.038.11.085.018.046.081.084.14.084a.26.26 0 0 0 .176-.082c.037-.045.05-.111.028-.146-.023-.038-.107-.051-.202-.032-.115.023-.162.01-.162-.045 0-.042.04-.092.09-.111a.682.682 0 0 1 .202-.034c.081 0 .104-.026.08-.09a.576.576 0 0 1-.034-.112c0-.013-.042-.024-.092-.024-.051 0-.124.042-.161.094-.04.055-.107.079-.16.058-.053-.02-.078-.07-.06-.119.018-.046.118-.112.222-.146.136-.045.22-.045.303-.002a.498.498 0 0 1 .174.173c.033.062.057.22.053.35-.005.132 0 .289.011.35.017.097-.019.11-.323.125zm1.876.018c-.147 0-.229-.035-.292-.125a.64.64 0 0 1-.087-.312c0-.103.038-.262.085-.353.047-.091.143-.18.214-.197a.546.546 0 0 1 .275.024c.082.03.164.107.184.17a.351.351 0 0 1-.028.234c-.05.093-.1.114-.217.09-.084-.016-.187-.01-.229.017-.041.026-.06.087-.04.137.019.052.098.09.186.09a.439.439 0 0 0 .255-.093c.096-.088.103-.086.103.02a.328.328 0 0 1-.103.205.533.533 0 0 1-.306.093zm1.757-.004a.69.69 0 0 1-.166-.036.74.74 0 0 1-.183-.117c-.075-.066-.098-.174-.098-.467 0-.21.026-.451.058-.536a.602.602 0 0 1 .155-.227.366.366 0 0 1 .181-.073c.046 0 .157.06.245.132.095.077.152.172.14.233-.01.056-.044.104-.075.106-.031.002-.064-.062-.074-.143-.014-.123-.04-.142-.158-.12a.416.416 0 0 0-.23.163c-.066.102-.08.216-.056.456.023.216.067.346.135.395.088.066.12.053.255-.097.085-.094.167-.172.183-.172s.03.06.03.131a.42.42 0 0 1-.131.254c-.072.067-.167.12-.211.118zm.949 0a.735.735 0 0 1-.188-.05.56.56 0 0 1-.186-.133c-.04-.048-.065-.17-.055-.274.011-.114.049-.186.098-.186.047 0 .082.062.086.154a.398.398 0 0 0 .071.218c.037.037.127.049.213.027.133-.033.146-.06.13-.269-.01-.145-.054-.254-.115-.293-.072-.045-.127-.044-.206.006-.086.053-.114.051-.138-.01-.016-.043.005-.107.048-.143.042-.035.161-.056.264-.046.148.014.209.06.294.218.073.138.095.25.068.357a.762.762 0 0 1-.175.292c-.075.075-.169.135-.21.133zm.695-.029c-.027.017-.065.014-.085-.006s-.036-.231-.036-.47v-.434l.352.005c.194.002.37.03.394.063.022.032.041.23.042.439 0 .295-.018.38-.081.38-.061 0-.086-.09-.099-.352-.009-.194-.042-.352-.073-.352s-.063.158-.073.352c-.012.262-.037.352-.098.352-.063 0-.082-.08-.082-.338 0-.188-.025-.338-.056-.338-.032 0-.057.15-.057.335 0 .184-.021.348-.048.364zm-8.352-.023c-.063 0-.116-.072-.155-.211a1.677 1.677 0 0 1-.059-.286c0-.04-.04-.113-.087-.161-.048-.048-.08-.124-.07-.168.008-.045.039-.086.066-.092.028-.006.07.027.093.073l.143.292c.056.115.12.197.143.183.023-.014.083-.152.134-.306.052-.155.118-.281.147-.281s.067.035.084.079c.017.043-.053.259-.156.478-.125.268-.218.4-.283.4zm5.824-.01c-.076.01-.14-.018-.16-.07a.286.286 0 0 1 0-.177c.02-.053.084-.082.16-.07.093.012.127.055.127.158 0 .103-.034.146-.127.159zm-4.32-1.464c-.016.016-.032-.058-.036-.164l-.006-.192-.037.169c-.031.14-.044.151-.078.066-.023-.057-.04-.328-.04-.602 0-.275.024-.515.055-.534.031-.019.052-.204.047-.411l-.01-.377-.032.378c-.028.319-.046.37-.117.325-.056-.036-.061-.054-.014-.055.048 0 .07-.107.07-.343 0-.188-.02-.334-.046-.324-.025.01-.221.108-.436.216s-.403.21-.419.226a.892.892 0 0 1-.174.094c-.124.054-.161.048-.235-.04-.071-.082-.074-.108-.014-.131a.352.352 0 0 1 .18-.001c.06.015.33-.092.631-.252.456-.24.51-.284.399-.319-.115-.036-.119-.047-.035-.094.053-.03.08-.077.063-.105-.018-.03.013-.037.07-.017.068.025.082.018.044-.022-.03-.032-.335-.139-.675-.238-.341-.1-.898-.27-1.24-.379-.34-.108-.666-.243-.724-.299-.076-.073-.096-.144-.07-.248.025-.097.075-.146.151-.146.063 0 .626.18 1.252.398l1.64.575.503.177.764-.402c.42-.22.772-.441.782-.49.01-.049-.028-.104-.084-.123a22.58 22.58 0 0 1-.582-.22l-1.148-.448a12.891 12.891 0 0 1-.816-.34c-.081-.044-.122-.08-.09-.081.03 0 .372.122.76.273s.957.38 1.266.508c.31.129.65.245.756.258.106.014.21.051.229.083.02.032.262.15.539.261.277.112.564.227.638.255.074.028.121.064.106.08-.016.015-.297-.078-.624-.207l-.595-.235-.878.444c-.483.244-.858.452-.834.462.024.01.485.175 1.025.367s.991.38 1.003.417c.014.04-.063.024-.193-.04a15.092 15.092 0 0 0-1.032-.391c-.45-.157-.861-.286-.915-.286-.081 0-.087.018-.034.104.036.057.22.156.41.22.188.064.664.232 1.057.372.504.182.722.237.742.189.02-.052.028-.052.032-.001a.12.12 0 0 1-.046.098c-.028.017-.222-.033-.431-.112s-.67-.243-1.023-.365c-.352-.121-.782-.235-.955-.251-.192-.019-.343-.007-.39.032-.057.048-.075.309-.076 1.136 0 .59-.014 1.086-.03 1.102zm.228-2.472c.032.003.106-.03.163-.071.068-.05.082-.09.042-.114-.034-.021-.564-.218-1.177-.437s-1.312-.463-1.553-.543c-.31-.102-.456-.127-.498-.084-.033.033-.044.113-.023.178.03.096.25.185 1.202.49.64.204 1.304.418 1.474.474.17.057.337.105.37.107zm-2.988.558c-.062 0-.594-.11-1.182-.243-.589-.134-1.032-.246-.986-.249.047-.002.554.097 1.127.222.572.124 1.067.236 1.097.249.031.012.006.022-.056.021zm5.202 3.388c.095 0 .177-.036.196-.087.019-.047.002-.096-.036-.107a3.686 3.686 0 0 0-.219-.054c-.121-.027-.146-.014-.131.065.01.054.02.118.023.14.003.024.078.043.167.043z"/></svg>