<svg viewBox="0 0 24 24" xmlns="http://www.w3.org/2000/svg"><path d="M4.264 8.62c-.371 1.142-.404 2.356-.322 3.541-.787.22-1.723.71-1.865 1.649-.047.96-.223 2.031.195 2.928.502 1.006 1.67 1.084 2.652 1.034.538.072 1.561-.132 1.8-.04-.63.868-1.774 2.08-1.594 2.195.317.204 1.791-.95 2.615-.67 1 .37.85 1.673 1.488 1.839 1.541-1.168 2.025-1.255 2.748-1.23 1.237.01 2.192 1.338 2.596 1.13.24-.172.492-1.585 1.293-1.705 1.094-.27 2.765 1.131 2.99.863.085-.229-1.27-1.708-1.785-2.49 1.107.186 2.253.097 3.371.03 1.094-.2 1.627-1.364 1.536-2.389.057-.951.027-2.076-.848-2.671-.515-.418-.6-.25-1.097-.51.39-3.717-1.38-6.66-4.017-8.145-1.173-.68-1.4-.856-3.875-1.075-4.972.279-7.06 3.166-7.881 5.717zm7.851-4.606c3.281-.004 6.313 2.608 6.79 5.855.287 1.635-.074 4.198-1.94 5.982-.466.56-.458.797-.475 1.148.01.35.13.69.218.841.258.397.766.936 1.283 1.63-.875-.472-1.675-.687-2.45-.483-.63.282-.939 1.082-1.134 1.648-.978-.876-1.89-1.216-2.73-1.159-.692.052-1.732.436-2.482 1.217-.341-.954-.773-1.832-1.74-1.893-.43.028-.655.106-1.422.433.433-.717 1.069-1.103 1.388-2.051.19-.824-.512-1.427-1.164-2.187-1.834-2.53-1.62-6.306.5-8.608 1.337-1.508 3.337-2.415 5.358-2.373zm-2.64 11.729c-.987 0-.987 1.48 0 1.48s.987-1.48 0-1.48zm5.048 0c-.987 0-.987 1.48 0 1.48s.987-1.48 0-1.48zM9.186 20.73c.036.09-.025 0 0 0z"/></svg>