<svg viewBox="0 0 24 24" xmlns="http://www.w3.org/2000/svg"><path d="M17.784 22.978a8.602 8.602 0 0 1-.368-.081c-.165-.04-.6-.06-.967-.046-.483.018-.701-.015-.787-.12a.46.46 0 0 0-.313-.143c-.106 0-.166.045-.132.1.034.055-.022.1-.124.1a.477.477 0 0 1-.295-.109c-.06-.06-.283-.114-.495-.12-.212-.007-.464.025-.56.07-.136.063-.175.035-.175-.126a.393.393 0 0 0-.193-.31c-.107-.058-.281-.104-.389-.104s-.324-.068-.481-.15c-.157-.082-.491-.15-.741-.15s-.51-.056-.579-.124c-.08-.08-.15-.089-.195-.025a.466.466 0 0 1-.22.14 4.746 4.746 0 0 1-.52.086c-.236.027-.45-.015-.596-.117a.952.952 0 0 0-.456-.16c-.125 0-.228.052-.228.116 0 .065-.034.083-.075.042s-.075-.126-.075-.189c0-.062-.092-.16-.206-.216-.113-.057-.47-.34-.794-.628-.324-.288-.526-.525-.45-.525.089 0 .105-.034.046-.093-.052-.051-.276-.11-.498-.13-.236-.022-.588-.163-.85-.341-.245-.167-.588-.332-.76-.365-.256-.05-.325-.025-.365.13-.043.163-.097.178-.357.104a2.361 2.361 0 0 1-.403-.147c-.052-.033-.125-.205-.161-.383a9.558 9.558 0 0 0-.17-.674 4.287 4.287 0 0 0-.183-.508.341.341 0 0 1 .011-.3.825.825 0 0 0 .091-.366c0-.134-.06-.225-.148-.225-.083 0-.15-.035-.15-.078s.105-.087.235-.098c.166-.014.269.056.353.24.099.218.095.25-.027.204-.116-.044-.142.036-.129.388.01.264.065.443.135.443.065 0 .188.14.273.313.086.171.131.351.101.4-.03.049.024.119.12.155.16.062.158.073-.02.139-.184.069-.185.074-.007.147.115.047.215.027.264-.053.055-.089.193-.106.46-.056.209.04.487.155.617.258.134.105.307.158.401.122.132-.05.105-.09-.13-.19-.29-.126-.292-.13-.068-.195.126-.036.212-.116.192-.178-.02-.061-.16-.172-.31-.245-.15-.074-.299-.197-.328-.275-.03-.078-.136-.142-.236-.142-.1 0-.252.028-.338.06-.087.034-.133.102-.103.15.03.05.008.09-.05.09s-.106-.064-.106-.143c0-.078-.066-.209-.147-.29-.13-.129-.13-.161 0-.269a.485.485 0 0 0 .145-.335c0-.116-.109-.314-.24-.439-.173-.164-.253-.37-.29-.75a12.98 12.98 0 0 0-.101-.81c-.029-.158-.1-.336-.16-.395-.077-.078-.104-.039-.094.137.008.135-.058.403-.145.596-.144.315-.16.325-.161.1 0-.138.042-.43.096-.65s.122-.544.153-.72a.783.783 0 0 0-.113-.577c-.159-.243-.157-.287.046-.843.124-.339.184-.665.144-.773a.771.771 0 0 0-.215-.295c-.125-.094-.123-.117.019-.171.09-.035.164-.153.164-.261s.061-.235.136-.278c.076-.044.172-.193.215-.33.07-.223.06-.234-.087-.112-.14.115-.165.115-.168-.001-.002-.092-.051-.073-.15.057a.844.844 0 0 0-.146.434c0 .156-.07.258-.201.293-.11.029-.23.17-.267.315-.036.145-.181.387-.323.538-.142.151-.337.275-.434.275-.096 0-.175-.064-.175-.143 0-.078-.072-.215-.161-.304-.149-.149-.149-.176 0-.34a.845.845 0 0 0 .17-.47c.003-.161.03-.236.058-.167.028.07.083.105.124.08.04-.025.053.088.03.25-.024.162.001.294.056.294.054 0 .149-.06.21-.134.062-.074.14-.272.173-.44.05-.246.023-.317-.134-.367-.108-.034-.247-.176-.31-.315a1.803 1.803 0 0 1-.116-.294c0-.023.082-.086.182-.14.15-.08.181-.06.175.112-.004.115.044.227.107.248.067.024.168-.18.245-.49.072-.29.122-.562.111-.604-.011-.04.047-.075.13-.075.082 0 .15.081.15.18a.487.487 0 0 1-.12.3c-.066.066-.091.12-.056.12.035 0 .236-.101.445-.225.21-.123.513-.225.675-.225.27 0 .296-.031.32-.384.014-.212.117-.562.23-.778.113-.216.205-.479.205-.583 0-.104-.07-.26-.157-.347-.118-.118-.124-.157-.025-.16.096-.002.088-.037-.027-.125-.087-.067-.141-.172-.12-.234.02-.062-.032-.14-.117-.172-.084-.033-.154-.016-.154.038s-.045.097-.1.097c-.055 0-.1-.065-.1-.143a.496.496 0 0 0-.146-.289c-.118-.119-.123-.193-.025-.402.096-.202.172-.244.357-.198.178.045.295-.01.483-.23.146-.17.224-.216.192-.113-.03.096-.011.175.042.175a.095.095 0 0 0 .097-.093c0-.051.079-.118.176-.15.096-.03.22-.154.275-.275.054-.12.303-.344.552-.496.25-.152.655-.3.9-.327.245-.029.367-.027.27.002-.095.03-.174.096-.174.147 0 .05.04.093.088.093s.137-.06.199-.135c.061-.073.087-.158.057-.188-.03-.03.173-.22.45-.424.278-.203.505-.447.505-.541s-.056-.232-.125-.306c-.1-.11-.096-.125.025-.084.083.028.24.019.35-.02.154-.055.2-.163.201-.462 0-.227.05-.39.117-.39.063 0 .153-.04.199-.09.048-.053.033-.063-.035-.024-.065.038-.143.027-.175-.023-.03-.05-.028-.232.006-.403.057-.282.075-.295.19-.137.122.166.139.167.32.002.106-.096.234-.172.285-.17.05.001.181.07.291.153.161.122.173.167.062.236-.11.068-.096.108.069.196.114.061.231.073.26.026.03-.047-.008-.169-.082-.27-.097-.133-.108-.247-.038-.4.078-.172.188-.214.563-.22.436-.005.448.002.191.104-.151.06-.275.143-.275.184 0 .042.04.1.089.13.049.03.144-.012.212-.094a.423.423 0 0 1 .286-.146c.09.002.25.07.357.15.189.143.187.153-.075.427-.148.154-.269.38-.269.5s-.045.22-.1.22-.1.064-.1.144c0 .079.048.173.106.21.059.035.186-.007.283-.095.097-.088.23-.16.294-.16s.117-.042.117-.094-.079-.141-.175-.197c-.096-.056-.143-.104-.105-.105.039-.002.185.049.325.113s.281.09.313.058c.032-.031.012-.142-.043-.246-.064-.118-.067-.243-.008-.333.08-.126.107-.125.2.005.081.113.12.119.158.025.028-.069.09-.125.14-.125.048 0 .064.062.036.137-.03.075.028.165.128.2.099.034.243.091.319.126.081.037.113.02.076-.04-.035-.056-.006-.124.065-.152.07-.027.214.014.318.09.173.126.175.139.015.139-.096 0-.15.041-.118.092.032.05.26.084.506.075.292-.011.449-.063.449-.147 0-.09.049-.103.162-.04.101.057.312.047.563-.027.22-.065.455-.192.52-.281.07-.096.2-.141.317-.11.109.028.246.179.305.334.09.241.162.284.476.284.203 0 .393.024.422.053.03.03.313-.079.63-.24.318-.161.71-.293.87-.293.162 0 .381.063.487.141.186.136.183.146-.083.267-.199.09-.241.15-.15.207.103.066.103.082-.003.083a.984.984 0 0 1-.35-.11c-.18-.093-.196-.09-.093.02.068.072.125.213.125.313s.056.271.125.382c.103.165.095.252-.042.491-.123.216-.145.382-.084.65.044.198.136.426.203.507.067.081.088.147.047.147s-.022.063.04.139c.09.107.078.152-.051.202-.092.035-.24.002-.328-.075a1.291 1.291 0 0 0-.456-.21c-.162-.038-.355-.155-.428-.26-.1-.142-.206-.174-.429-.13-.171.035-.358.008-.442-.062-.08-.066-.193-.092-.25-.056-.057.035-.104.02-.104-.035 0-.057-.117-.04-.27.04-.15.077-.292.12-.317.094-.025-.025.036-.135.136-.246.1-.11.164-.203.141-.206a27.826 27.826 0 0 1-.74-.211c-.473-.14-1.072-.217-1.85-.24l-1.48-.046c-.183-.006-.393.04-.469.103-.075.063-.287.128-.47.145-.185.017-.618.214-.963.437-.346.223-.827.482-1.07.575-.247.094-.413.213-.377.27.037.061.013.073-.059.028-.069-.043-.21.004-.324.108-.112.101-.276.184-.365.185-.09 0-.214.104-.277.23a2.36 2.36 0 0 1-.328.456c-.118.125-.214.323-.214.44 0 .117-.05.243-.11.28-.06.038-.177.227-.258.421-.11.265-.118.37-.03.425.088.054.09.126.008.279-.06.113-.111.332-.113.487-.003.256-.016.265-.136.107-.073-.096-.207-.175-.297-.175-.095 0-.164.08-.164.194 0 .107-.045.222-.1.256a.223.223 0 0 0-.1.166c0 .058.068.079.15.047.083-.031.15-.02.15.024s-.078.15-.175.232a1.35 1.35 0 0 1-.35.212c-.096.034-.179.165-.184.29-.005.125-.01.408-.01.628-.001.22.032.613.073.875.05.317.038.474-.034.474-.059 0-.1.087-.092.193.008.106.05.171.093.144.044-.027.08.04.08.149 0 .108-.048.213-.106.232-.057.02-.124.26-.148.533-.024.274-.048.566-.054.648-.005.083.003.263.018.4.015.138.086.339.158.447a.785.785 0 0 1 .132.342c0 .08.071.224.159.321.087.097.217.154.287.127.088-.034.15.095.197.404.037.25.11.48.162.512.052.032.094.14.094.24 0 .1.068.238.15.306.118.098.15.098.15.002 0-.069.067-.098.15-.066.082.032.15.014.15-.04 0-.052.066-.096.146-.096.08 0 .19.081.243.18.06.11.061.237.005.325a.615.615 0 0 0-.093.255c0 .06.1.22.226.356.125.134.304.274.398.31.103.04.147.127.112.22-.037.097-.003.153.094.153.084 0 .297.121.473.27s.416.277.532.286c.117.009.24-.024.271-.074.033-.05.18.093.329.317.148.224.315.38.37.346.056-.034.164-.01.242.054a.39.39 0 0 0 .33.057c.103-.033.357.011.565.098.207.087.4.246.428.354.037.142.106.18.246.135.123-.039.24 0 .316.104.09.123.317.174.885.198.42.018.81.062.87.099.06.037.085.01.056-.065-.027-.071.04-.186.148-.253.165-.104.188-.1.14.025-.031.082-.016.148.034.148s.145-.054.211-.12c.095-.095.072-.149-.105-.247-.211-.117-.2-.125.174-.127.22-.001.461.036.536.084.075.047.22.064.324.037s.163-.09.133-.138c-.03-.049.012-.088.093-.088s.219-.028.306-.061c.103-.04.158-.005.158.1 0 .088.045.16.1.16s.1-.089.1-.198c0-.134.121-.251.374-.36.207-.09.533-.206.725-.26.192-.052.462-.116.6-.141.137-.026.49-.099.785-.162.294-.063.557-.174.585-.246.027-.072.097-.101.155-.066.06.037.075.017.037-.044-.037-.06.013-.156.11-.213.097-.056.123-.104.058-.106a.229.229 0 0 0-.18.097.252.252 0 0 1-.196.1c-.073 0-.161-.072-.195-.16-.043-.113-.019-.145.082-.107.079.03.197-.01.263-.089a.441.441 0 0 1 .296-.144c.107 0 .171.07.163.175-.011.14.061.173.365.164a.943.943 0 0 0 .624-.242c.188-.177.218-.26.131-.365-.088-.106-.08-.123.036-.079.082.032.196.21.253.397.057.186.079.364.048.395-.03.03-.185.055-.343.055-.159 0-.415.066-.57.146-.156.08-.31.12-.342.087-.033-.033-.174.015-.313.106-.14.091-.253.245-.253.342 0 .097-.084.342-.187.544s-.22.335-.258.296c-.04-.04-.13.01-.202.108a.509.509 0 0 0-.08.375c.028.107.127.195.22.195s.268-.091.388-.204c.12-.112.219-.247.219-.3 0-.052.04-.095.09-.095s.07.084.042.187c-.037.143.048.233.356.375.222.103.427.243.455.312a.436.436 0 0 1-.007.275c-.032.083-.124.15-.204.15a.492.492 0 0 1-.288-.141.876.876 0 0 0-.267-.184c-.1-.033-.098-.077.01-.209.122-.148.107-.166-.145-.166-.208 0-.253.03-.17.112.062.062.09.17.063.242a.132.132 0 0 0 .083.173c.072.024.042.03-.069.013a.583.583 0 0 0-.34.054.203.203 0 0 0-.08.235c.032.084-.041.242-.168.36-.123.116-.502.32-.842.453-.34.133-.688.313-.775.4-.086.086-.188.153-.225.147zm-1.522-.29c.04 0 .128-.121.196-.27.09-.196.144-.234.203-.139.063.102.098.103.156.01.042-.069.014-.163-.063-.213-.075-.049-.317-.078-.537-.063-.277.018-.4.072-.4.176a.336.336 0 0 1-.1.231c-.055.045.002.053.126.018.155-.044.244-.014.285.094.033.086.093.156.134.156zm3.156-2.674c.136-.026.247-.084.247-.129 0-.044-.078-.096-.175-.116-.155-.03-.15-.056.05-.229.124-.107.225-.25.225-.32 0-.076-.067-.099-.175-.058a.829.829 0 0 0-.312.256c-.08.111-.164.15-.2.092-.034-.055-.13-.11-.212-.122a1.253 1.253 0 0 0-.3 0c-.087.013-.053.05.08.087.128.036.218.094.2.13-.016.035.05.152.147.26.117.13.261.18.425.149zm-.484-16.38a.403.403 0 0 0 .039-.372c-.05-.135-.182-.227-.355-.248-.152-.018-.327.02-.39.086-.086.091-.054.102.138.047.2-.058.226-.047.13.054-.096.1-.074.176.1.359.195.206.233.215.338.075zm2.404 2.951a1.316 1.316 0 0 1-.373-.147c-.138-.076-.329-.114-.425-.084-.12.038-.179-.002-.187-.127a1.49 1.49 0 0 1 .004-.268c.009-.048-.057-.198-.146-.334-.09-.135-.138-.27-.108-.3.03-.03.266.087.526.26.29.191.543.29.654.255.114-.036.205.001.243.099.033.086.032.27-.003.407-.034.137-.118.245-.185.24zm-.812-1.589c-.028 0-.087-.061-.131-.136-.044-.075-.215-.212-.38-.305l-.3-.17.313.05c.2.033.452-.02.696-.144.21-.107.484-.195.608-.195s.273.09.332.2c.094.175.076.2-.134.2a.536.536 0 0 0-.366.151c-.111.134-.141.131-.263-.025-.13-.167-.143-.166-.283.014-.08.104-.123.228-.094.275.029.047.03.085.002.085z"/></svg>