<svg viewBox="0 0 24 24" xmlns="http://www.w3.org/2000/svg"><path d="M12 0C3.732 0 0 3.732 0 12s3.732 12 12 12 12-3.732 12-12S20.268 0 12 0zm-3.847 4.154c.164-.006.324.076.413.227.13.22.057.502-.163.631-.769.453-1.465.934-2.02 1.533-.173.187-.465.197-.652.023s-.197-.465-.023-.652c.645-.694 1.427-1.229 2.227-1.7.091-.04.192-.06.218-.063zm2.257 1.107c.215-.009.413.134.467.35.062.248-.088.498-.335.56-1.88.47-3.384 1.84-4.116 3.605-.098.235-.368.348-.604.25s-.347-.368-.249-.603c.837-2.019 2.563-3.603 4.745-4.148.03-.008.062-.012.092-.013zm1.59 1.662c2.803 0 5.077 2.273 5.077 5.077 0 2.324-1.562 4.283-3.693 4.885v3.422c0 .255-.207.461-.461.461-.254 0-.46-.204-.462-.458v-6.048c1.054-.214 1.846-1.145 1.846-2.262 0-1.274-1.033-2.307-2.307-2.307s-2.307 1.033-2.307 2.307c0 1.117.792 2.048 1.845 2.262v.936c-1.565-.224-2.77-1.57-2.77-3.198 0-1.784 1.447-3.231 3.232-3.231 1.784 0 3.23 1.447 3.23 3.231 0 1.29-.754 2.401-1.846 2.92v.997c1.614-.57 2.77-2.108 2.77-3.917 0-2.294-1.86-4.154-4.154-4.154s-4.154 1.86-4.154 4.154c0 2.138 1.616 3.898 3.693 4.128v.929c-2.588-.233-4.616-2.408-4.616-5.057 0-2.804 2.274-5.077 5.077-5.077zm6.056 2.354c.18.004.348.113.419.29.301.753.448 1.596.448 2.433 0 .837-.147 1.68-.448 2.433-.095.237-.364.351-.601.256-.236-.094-.351-.362-.256-.599.253-.632.382-1.358.382-2.09 0-.733-.13-1.459-.382-2.09-.095-.237.02-.505.256-.6.06-.023.122-.034.182-.033zm2.196 1.154c.234-.005.439.167.469.404.05.398.048.79.048 1.152v.034c0 .356 0 .775-.105 1.2-.062.247-.313.397-.56.335-.247-.062-.397-.312-.335-.56.076-.305.077-.618.077-.996 0-.374 0-.714-.042-1.05-.032-.253.148-.484.401-.516.016-.002.031-.003.047-.003zm-8.252.185c.765 0 1.384.62 1.384 1.384s-.62 1.384-1.384 1.384-1.384-.62-1.384-1.384.62-1.384 1.384-1.384zm-5.997 3.322c.18 0 .35.11.423.286.733 1.766 2.236 3.135 4.117 3.605.247.062.397.312.335.56-.062.247-.312.399-.56.337-2.181-.546-3.907-2.13-4.744-4.149-.098-.235.013-.506.249-.603.059-.025.12-.036.18-.036zm.016 3.324c.133-.008.267.043.365.148.562.606 1.258 1.128 2 1.52.226.12.312.4.192.625-.12.225-.399.311-.624.192-.827-.438-1.606-1.023-2.244-1.71-.174-.186-.164-.478.023-.651.082-.076.184-.117.287-.123z"/></svg>