<svg viewBox="0 0 24 24" xmlns="http://www.w3.org/2000/svg"><path d="M11.939 21.996c-.33-.003-.781-.025-1.002-.047s-.637-.09-.926-.149a12.46 12.46 0 0 1-1.127-.303c-.33-.109-.879-.332-1.22-.496a11.72 11.72 0 0 1-1.1-.616 13.116 13.116 0 0 1-.86-.62 13.045 13.045 0 0 1-1.609-1.643 14.853 14.853 0 0 1-.513-.736c-.157-.24-.418-.713-.582-1.051a11.901 11.901 0 0 1-.493-1.217c-.109-.33-.243-.826-.3-1.101a12.36 12.36 0 0 1-.155-1.02A12.102 12.102 0 0 1 2 11.972c0-.28.023-.722.05-.984.028-.261.097-.712.155-1.001.058-.29.194-.796.302-1.127s.33-.877.493-1.216c.164-.338.425-.811.582-1.051.156-.24.387-.572.513-.737A12.037 12.037 0 0 1 5.758 4.18c.264-.212.683-.512.932-.665.248-.154.63-.37.847-.478.218-.11.602-.28.854-.38s.713-.25 1.026-.332c.313-.083.817-.188 1.12-.236.364-.056.855-.085 1.452-.086.496 0 1.115.028 1.377.065s.77.141 1.13.233c.361.092.89.26 1.178.374s.732.317.99.453.653.37.876.52c.224.15.588.418.808.595.22.178.604.534.853.792s.594.656.767.884c.173.228.424.59.557.804.132.215.33.569.44.787.11.22.282.61.385.87a11.589 11.589 0 0 1 .585 2.257c.036.262.066.881.065 1.377 0 .597-.03 1.088-.087 1.452a13.45 13.45 0 0 1-.235 1.12 10.51 10.51 0 0 1-.332 1.026c-.1.252-.271.636-.38.854-.109.217-.324.599-.478.847a11.21 11.21 0 0 1-.665.932 13.19 13.19 0 0 1-.88.956c-.272.262-.63.58-.795.706-.165.127-.497.358-.737.514-.24.157-.713.418-1.051.582-.339.163-.886.385-1.216.493-.33.108-.838.244-1.127.302-.29.058-.74.127-1.002.154a11.42 11.42 0 0 1-1.076.044zm-2.127-3.899c.015 0 .385-.748.822-1.664l.834-1.744c.031-.062-.064-.136-.446-.35a3.801 3.801 0 0 1-.813-.597 4.25 4.25 0 0 1-.562-.727l-.275-.47c-.032-.055-.412.102-1.804.747-.97.448-1.763.833-1.763.854 0 .02.896.918 1.99 1.994 1.095 1.076 2.003 1.957 2.017 1.957zm4.95-4.617.682-.014-.015-.367a5.057 5.057 0 0 0-.135-.84 5.261 5.261 0 0 0-.324-.879 6.513 6.513 0 0 0-.424-.716 6.135 6.135 0 0 0-.642-.706 5.37 5.37 0 0 0-.768-.6 7.907 7.907 0 0 0-.655-.34 5.57 5.57 0 0 0-.7-.238 5.475 5.475 0 0 0-.831-.131l-.438-.03v1.36l.238.03c.13.016.403.064.606.108.202.044.54.167.75.273.212.106.52.303.686.438a3.8 3.8 0 0 1 .523.54c.122.162.296.444.386.627.09.183.198.476.24.651.04.176.075.402.075.503 0 .101.015.22.032.264.027.07.124.079.714.067zm2.81.011h.701v-.306c0-.17-.035-.541-.077-.828a9.175 9.175 0 0 0-.229-1.032 8.59 8.59 0 0 0-.4-1.037 9.903 9.903 0 0 0-.579-1.02c-.181-.271-.544-.717-.805-.99s-.682-.651-.933-.84a9.908 9.908 0 0 0-.857-.576 8.22 8.22 0 0 0-.827-.403 10.707 10.707 0 0 0-.875-.303 8.757 8.757 0 0 0-.902-.2 14.719 14.719 0 0 0-.864-.103l-.413-.034v1.398l.463.035c.255.02.655.077.889.128.234.05.57.141.747.201.177.06.487.187.69.283.201.096.575.313.83.483.254.17.667.515.918.768.25.252.583.65.738.883.155.233.382.635.505.894s.27.64.327.846c.058.207.138.59.179.852.04.261.073.571.073.688v.213zm-5.924-.063c.306-.012.392-.036.573-.164.118-.082.257-.224.31-.314a1.49 1.49 0 0 0 .137-.35 1.062 1.062 0 0 0-.008-.41 1.403 1.403 0 0 0-.178-.412 1.116 1.116 0 0 0-.383-.313 1.192 1.192 0 0 0-.463-.127c-.114 0-.284.026-.378.057a1.475 1.475 0 0 0-.338.182c-.093.069-.222.24-.288.38-.065.142-.12.325-.12.407 0 .083.024.236.053.34s.122.268.208.365c.085.098.236.221.335.275.14.077.259.095.54.084z"/></svg>