<svg version="1.1" viewBox="0 0 24 24" xmlns="http://www.w3.org/2000/svg">
 <path d="m16.945 3.2281v17.544c1.537-0.88947 2.8131-2.1683 3.7004-3.708 0.88731-1.5398 1.3545-3.2861 1.3545-5.0639s-0.46722-3.5241-1.3545-5.0639c-0.88731-1.5397-2.1634-2.8186-3.7004-3.708zm-6.8298 2.9747v11.593c1.5278-0.0112 2.9893-0.62678 4.0657-1.7127 1.0764-1.0859 1.6803-2.5541 1.6803-4.0841 0-1.5301-0.60392-2.998-1.6803-4.0839-1.0764-1.0859-2.5379-1.7015-4.0657-1.7127zm-4.6653 2.3424c-0.91497 0-1.7924 0.36421-2.4394 1.0121-0.64699 0.64792-1.0106 1.5265-1.0106 2.4428-6.17e-5 0.68341 0.20236 1.3516 0.58145 1.9199 0.37909 0.56825 0.91779 1.011 1.5483 1.2726 0.63045 0.26156 1.3241 0.3302 1.9934 0.19689 0.66932-0.13332 1.2842-0.46247 1.7668-0.94572 0.48255-0.48325 0.81128-1.0989 0.9444-1.7691 0.13312-0.67029 0.064543-1.3652-0.19663-1.9966-0.26119-0.63138-0.70328-1.171-1.2707-1.5506-0.56744-0.37963-1.2346-0.5823-1.917-0.58224z"/>
</svg>
