<svg viewBox="0 0 24 24" xmlns="http://www.w3.org/2000/svg"><path d="M8.82 21.874c.136-.173.128-.239-.097-.764-.362-.847-.482-1.866-.38-3.218.108-1.448.339-2.26.892-3.148.118-.19.304-.421.412-.514a1.579 1.579 0 0 1 1.557-.259c.83.31 1.633.42 2.423.331 1.188-.132 2.039-.5 2.73-1.18.8-.787.944-1.645.453-2.676-.361-.756-1.116-1.304-2.181-1.581-.59-.154-1.861-.21-2.567-.115-2.624.356-4.626 2.418-5.223 5.38-.445 2.204-.12 4.936.816 6.856.328.673.629 1.014.893 1.014.13 0 .198-.031.272-.126zm-.857-11.627c.234-.348 1.031-1.085 1.514-1.4.47-.306.48-.318.686-.714.364-.704.717-.962 1.364-.998.33-.018.434-.003.741.109.694.25.912.31 1.318.36 1.056.131 2.17-.29 3.044-1.15.565-.557.802-1.159.708-1.8-.186-1.268-1.226-2.252-2.703-2.557-1.728-.356-3.585.278-4.928 1.684-1.17 1.224-1.836 2.901-1.963 4.935-.033.533.013 1.71.068 1.709.017 0 .085-.08.15-.178z"/></svg>