<svg viewBox="0 0 24 24" xmlns="http://www.w3.org/2000/svg"><path d="M3.428 4.857C2.636 4.857 2 5.494 2 6.285v11.43c0 .792.636 1.428 1.428 1.428H20.57c.791 0 1.43-.637 1.43-1.428V6.285c0-.791-.639-1.428-1.43-1.428H3.428zm1.43 1.428h14.284l1.428 1.43v1.07H3.427v-1.07l1.43-1.43zm2.857 3.93a1.071 1.071 0 1 1-.002 2.143 1.071 1.071 0 0 1 .002-2.143zm2.142 0h4.286v2.142H9.857v-2.142zm6.428 0a1.071 1.071 0 1 1 .002 2.142 1.071 1.071 0 0 1-.002-2.142zm-12.857 3.57h17.143v1.072H3.428v-1.072zm4.287 2.5h8.57L17 18.072H7l.715-1.787z"/></svg>