<svg version="1.1" viewBox="0 0 24 24" xmlns="http://www.w3.org/2000/svg">
 <path d="m3.4277 4.8574c-.79142 0-1.4277.63631-1.4277 1.4277v11.43c0 .79142.63631 1.4277 1.4277 1.4277h17.143c.79142 0 1.4297-.63631 1.4297-1.4277v-11.43c0-.79142-.63827-1.4277-1.4297-1.4277h-17.143zm1.4297 1.4277h14.285l1.4277 1.4297v1.0703h-17.143v-1.0703l1.4297-1.4297zm2.8574 3.9297c.59173 0 1.0703.47858 1.0703 1.0703 0 .59173-.47858 1.0723-1.0703 1.0723-.59173 0-1.0723-.48054-1.0723-1.0723 0-.59173.48054-1.0703 1.0723-1.0703zm2.1426 0h4.2852v2.1426h-4.2852v-2.1426zm6.4277 0c.59173 0 1.0723.47858 1.0723 1.0703 0 .59173-.48054 1.0723-1.0723 1.0723s-1.0703-.48054-1.0703-1.0723c0-.59173.47858-1.0703 1.0703-1.0703zm-12.857 3.5703h17.143v1.0723h-17.143v-1.0723zm4.2871 2.5h8.5703l.71484 1.7871h-10l.71484-1.7871z" stroke-width=".17857"/>
</svg>
