<svg viewBox="0 0 24 24" xmlns="http://www.w3.org/2000/svg"><path d="M11.84 2.834a9.167 9.167 0 0 0-8.754 11.887c.042-.01.084-.022.127-.03A9.034 9.034 0 0 1 11.84 2.966a9.032 9.032 0 0 1 8.074 13.085v.287A9.167 9.167 0 0 0 11.84 2.834zm-.273 2.453a1.175 1.175 0 0 0-.301.031c-.273.056-.45.219-.77.368-.32.148-.45.143-.668.332-.218.188-.168.246-.351.4-.183.154-.293.24-.54.662-.245.421-.425.848-.513 1.047-.088.199-.169.26-.18.482-.01.223.035.188-.017.444s-.108.465-.108.465-.322-.007-.508.35c-.185.355-.17.498-.195.706-.025.209.027.76.065 1.125s.062.884.125 1.069c.063.184.291.705.787.861.495.155.607.176.754.139.146-.038.404-.112.588-.174.183-.062.402-.262.503-.715.102-.453.107-.677.067-1.303-.04-.625-.036-.955-.21-1.43-.172-.473-.425-.541-.54-.648-.115-.106-.125-.074-.11-.219.016-.145-.018-.474.346-1.05.364-.576.742-.936 1.287-1.098a1.744 1.744 0 0 1 1.15.043c.202.074.26.1.434.133.175.033.295.138.405.27.109.13.336.454.437.679.1.225.043.332.156.58.114.248.225.327.201.498-.023.17-.048.12-.09.242-.041.121-.203.352-.226.631-.023.28-.044.508-.039.816.005.309.073.408.068.764-.004.357-.035.95.069 1.238.103.288.174.478.297.528.122.05.094.055.17.049 0 0 .085-.05.308-.045.223.005.831.046 1.158-.14.327-.188.388-.292.46-.901.071-.61.11-1.17.027-1.414-.085-.244-.048-.465-.114-.86-.065-.395-.234-.531-.234-.531s-.08-.243-.398-.334c-.319-.09-.227-.017-.26-.201a7.177 7.177 0 0 0-.08-.403 2.26 2.26 0 0 1-.06-.468c-.01-.196-.011-.416-.098-.59-.088-.174-.251-.504-.424-.795-.173-.291-.282-.437-.553-.664-.27-.227-.439-.466-.713-.613-.274-.148-.255-.19-.53-.264-.273-.074-.31-.03-.667-.06-.18-.016-.278-.029-.365-.032zm.162.51c.21.004.583.063.693.074.126.013.114.02.252.133s.337.32.516.451c.178.13.375.267.445.33.07.064.213.173.228.283.016.11.099.167.157.243.057.075.068.159.209.697.14.538.173.542.207.752.033.21.001.354-.06.433-.063.08-.081.04-.126-.002-.044-.042-.072-.292-.164-.57-.092-.278-.136-.403-.187-.666-.052-.263-.027-.108-.2-.447-.172-.34-.266-.327-.572-.53-.305-.202-.954-.389-1.053-.423-.098-.035-.065-.014-.173-.02-.108-.006-.278-.08-.823 0-.545.08-.981.404-1.295.777-.313.374-.505.797-.668 1.1-.162.303-.135.56-.154.734-.019.174-.049.15-.11.188-.06.037-.195 0-.195 0-.064-.013.02-.176.034-.31.013-.135-.028-.298-.034-.41-.005-.113.026-.135.061-.194.035-.06.162-.3.227-.432.064-.131.219-.458.29-.588.072-.13.135-.323.53-.67.395-.347.611-.427.814-.511.203-.085.622-.315.737-.354a1.116 1.116 0 0 1 .414-.068zM5.676 7.869a.108.108 0 0 0-.045.012c-.04.021-.107.067-.105.139.008.21.077.414.205.609.184.283.418.537.714.777.084.069.182.122.276.168.058.03.122.031.183.033h.006c.103 0 .198-.092.213-.212a.237.237 0 0 0-.115-.22c-.043-.026-.088-.046-.13-.066a.695.695 0 0 1-.067-.033l-.055-.025a.518.518 0 0 1-.115-.065c-.3-.252-.606-.53-.758-.914a.678.678 0 0 0-.084-.148.153.153 0 0 0-.123-.055zm12.25.34c-.018.001-.033.005-.047.008-.123.026-.185.111-.234.181l-.065.092c-.165.24-.337.488-.54.701a.743.743 0 0 0-.134.194.373.373 0 0 0-.025.183.164.164 0 0 0 .059.112c.04.035.093.054.146.054h.018l.027-.005a.2.2 0 0 0 .094-.043.923.923 0 0 0 .13-.147 35.931 35.931 0 0 0 .727-1.055.307.307 0 0 0 .041-.152.105.105 0 0 0-.037-.086c-.04-.033-.106-.04-.16-.037zM15.01 9.826c.083 0 .158.012.205.041.126.078.188.228.285.664.097.436.171 1.08.153 1.365-.02.285-.105.284-.108.551-.003.268-.003.405-.117.45a2.624 2.624 0 0 1-.805.128c-.349 0-.35.02-.43-.076-.078-.096-.106-.462-.119-.86-.012-.396-.026-.728-.082-.997-.056-.27.02-.856.104-1.041.084-.185.068-.163.133-.192 0 0 .253.014.394 0 .089-.008.249-.034.387-.033zm-5.91.08a.437.437 0 0 1 .199.032c.155.07.349.326.416.761s.184 1.37.11 1.762c-.075.392-.203.587-.342.68-.14.093-.447.147-.8.039-.351-.109-.485-.193-.61-.567-.126-.374-.058-.313-.104-.562-.047-.25-.104-.332-.094-.526.01-.193-.03-.82.014-1.029s.03-.413.222-.447c.192-.035.306.049.432 0s.114-.07.242-.092c.076-.013.197-.046.315-.05zm-2.703.93c-.04 0-.08.004-.123.012a1.795 1.795 0 0 1-.211.02 2.11 2.11 0 0 0-.469.068.187.187 0 0 0-.139.189c.004.078.057.142.143.172a.466.466 0 0 0 .142.027h.063l.088.002c.062 0 .127-.003.19-.011.174-.024.4-.046.591-.006l.053.002.054-.002c.105-.006.193-.082.202-.174a.184.184 0 0 0-.12-.192 1.125 1.125 0 0 0-.464-.107zm12.24.002c-.054.001-.118.022-.149.066-.035.053-.09.076-.205.09a1.678 1.678 0 0 1-.363.008 6.51 6.51 0 0 1-.201-.02.959.959 0 0 0-.383.05.247.247 0 0 0-.149.122.19.19 0 0 0-.013.15c.026.076.12.129.228.13h.022l.03.002a.226.226 0 0 0 .06-.008c.117-.034.24-.036.37-.037.073 0 .148-.001.223-.008l.098.002c.104 0 .209 0 .313-.002.039 0 .112-.01.164-.05.162-.134.166-.268.14-.358a.205.205 0 0 0-.137-.131.185.185 0 0 0-.048-.006zM7.06 12.768a.34.34 0 0 0-.139.035v.002c-.094.051-.187.103-.281.156-.25.142-.51.29-.776.406a.848.848 0 0 0-.172.11.327.327 0 0 0-.076.095.168.168 0 0 0-.008.143.225.225 0 0 0 .14.137c.03.01.065.015.1.015a.524.524 0 0 0 .249-.07l.228-.123c.091-.048.186-.097.278-.149.087-.05.172-.104.255-.156.053-.033.106-.066.159-.097a.589.589 0 0 0 .236-.262c.028-.06.008-.126-.02-.168a.152.152 0 0 0-.128-.074H7.06zm9.996.41a.223.223 0 0 0-.182.105.388.388 0 0 0-.031.063c-.028.067-.055.155-.014.232.041.078.129.103.192.115.16.033.299.101.459.194.091.053.202.116.316.172a.921.921 0 0 0 .28.078.253.253 0 0 0 .254-.227 1.13 1.13 0 0 0 .003-.043l.002-.03v-.019a1.268 1.268 0 0 0-.006-.068.206.206 0 0 0-.08-.15.204.204 0 0 0-.166-.032.465.465 0 0 1-.314-.056 3.44 3.44 0 0 0-.15-.073 1.498 1.498 0 0 1-.325-.181.417.417 0 0 0-.148-.067l-.018-.006a.211.211 0 0 0-.072-.007zm-13.52 1.619c-.847 0-1.537.587-1.537 1.512 0 .92.69 1.511 1.48 1.511.92 0 1.479-.632 1.479-1.674H3.386v.55h.897c-.09.306-.336.572-.746.572-.527 0-.906-.408-.906-.96s.379-.958.906-.958c.302 0 .55.175.683.38l.504-.279a1.342 1.342 0 0 0-1.187-.654zm8.135.064v1.073a.786.786 0 0 0-.63-.323h-.015c-.526 0-.916.41-.924 1.082v.02c0 .699.393 1.1.908 1.107h.016a.8.8 0 0 0 .635-.31l.01-.012v.27h.552V14.86zm7.556 0v1.073a.79.79 0 0 0-.63-.323h-.014c-.527 0-.916.41-.924 1.082v.02c0 .699.392 1.1.908 1.107h.016a.8.8 0 0 0 .634-.31l.01-.012v.27h.553V14.86zm-15.725.625a.866.866 0 0 0-.137.014c.073.174.15.345.233.514h.146a8.973 8.973 0 0 1-.242-.528zm2.723.116c-.69 0-1.108.507-1.108 1.107 0 .594.408 1.101 1.086 1.111h.022c.687 0 1.103-.502 1.111-1.094v-.017c0-.594-.408-1.098-1.09-1.108zm2.474 0c-.69 0-1.105.507-1.105 1.107 0 .594.407 1.101 1.086 1.111h.02c.687 0 1.103-.502 1.11-1.094l.003-.017c0-.594-.41-1.098-1.092-1.108zm5.266 0a.805.805 0 0 0-.644.318v-.266h-.551v2.905h.55v-1.07c.17.213.39.318.631.322h.014c.532 0 .92-.398.928-1.086v-.022c0-.694-.384-1.094-.912-1.101zm2.293 0c-.69 0-1.11.507-1.11 1.107 0 .594.41 1.101 1.089 1.111h.021c.687 0 1.101-.502 1.11-1.094v-.017c0-.594-.409-1.098-1.09-1.108zm4.781 0c-.519.018-.8.32-.8.664 0 .831 1.23.548 1.23.894 0 .131-.113.223-.35.223a1.16 1.16 0 0 1-.716-.293l-.237.402c.22.205.568.328.93.328.577 0 .902-.284.902-.674 0-.853-1.234-.591-1.234-.902 0-.118.127-.205.326-.205a.89.89 0 0 1 .615.246l.221-.394a1.315 1.315 0 0 0-.836-.29h-.05zm-7.258.492h.012c.312 0 .527.242.531.597v.012c0 .362-.211.61-.521.615h-.01a.619.619 0 0 1-.473-.244v-.74a.607.607 0 0 1 .461-.24zm-7.568.002h.012c.343 0 .533.277.537.601v.012c0 .328-.186.611-.525.617h-.012c-.344 0-.533-.285-.533-.617 0-.325.185-.607.521-.613zm2.477 0h.01c.343 0 .534.278.538.601v.012c0 .328-.187.611-.527.617H8.7c-.343 0-.533-.285-.533-.617 0-.325.188-.607.524-.613zm7.556 0h.012c.343 0 .533.278.537.601v.012c0 .328-.188.611-.527.617h-.01c-.343 0-.535-.285-.535-.617 0-.325.187-.607.523-.613zm-5.056.008h.01c.177 0 .37.095.464.23l.006.01v.744a.593.593 0 0 1-.459.24H11.2c-.316 0-.532-.25-.532-.615 0-.358.212-.604.522-.61zm7.554 0h.01a.6.6 0 0 1 .467.23l.006.01v.744a.597.597 0 0 1-.461.24h-.012c-.315 0-.531-.25-.531-.615 0-.358.212-.604.521-.61zM4.653 17.473a1.39 1.39 0 0 1-.093.095 9.15 9.15 0 0 0 7.279 3.598 9.145 9.145 0 0 0 7.008-3.262.776.776 0 0 1-.211.043 9.01 9.01 0 0 1-6.797 3.086 9.02 9.02 0 0 1-7.186-3.56z" color="#000" fill-rule="evenodd" style="-inkscape-stroke:none"/></svg>