<svg viewBox="0 0 24 24" xmlns="http://www.w3.org/2000/svg"><path d="M20.207 18.299c-.296-.128-1.792-.495-.99-1.165.728.2 1.48.544 2.053.71.175.913-.703.753-1.063.455zm-17.911-.297c-.304-.48 1.123-.933 1.728-1.302.76-.44.945.247.176.647-.579.287-1.518 1.088-1.904.655zm4.341-.128c-.89-.202-1.471-1.058-1.492-1.944-.105-1.173-.355-2.405.02-3.551.258-.85 1.076-.238 1.005-1.756.08-.896.624-1.674 1.024-2.458.491-.744 1.022-1.595 1.875-1.937.792-.317 1.29-.85 2.445-.758 1.184.023 1.815.233 2.466.901.982.772 1.745 1.822 2.111 3.019.106.674.16 1.357.309 2.024.815.113 1.305.918 1.343 1.694.152 1.281.311 2.64-.12 3.883-.474.844-1.568.702-2.392.74-1.068.112-1.046-1.248-1.083-1.987-.009-1.346-.305-2.785.331-4.041.22-.276.058-.543-.085-.81-.293-.764-.482-1.594-1.124-2.168-.77-.502-1.79-.754-2.714-.572-1.204.266-2.008 1.375-2.457 2.452-.232 1.746.673.617 1.018 2.726.132 1.144.275 2.335.013 3.47-.175.909-1.176 1.218-1.987 1.184a2.437 2.437 0 0 1-.506-.111zm1.42-.799c.724-.658.515-1.759.459-2.632-.127-.74-.074-1.869-.933-2.157-.68.21-2.08-.13-1.907.996.04 1.188-.174 2.523.542 3.559.485.393 1.275.532 1.839.234zm8.453-.226c.894-.085.424-.606.755-1.82-.024-.87-.145-1.762-.45-2.58-.5-.471-1.99-.415-2.002.45-.14 1.127.082 2.262.124 3.39-.077.933 1.02.595 1.573.56zm-9.338-5.473c.144-.77.376-1.535.816-2.197.594-1.07 1.679-1.944 2.955-1.898 1.119-.067 2.19.44 3.09 1.06.743.806.713 1.985 1.17 2.932.679-.084-.091-1.586-.19-2.394-.336-1.057-1.495-1.657-2.208-2.409-.546-.328-1.212-.228-1.823-.291-1.189.584-2.593 1.028-3.245 2.282-.332.743-1.005 1.446-.912 2.304.032.313-.28.966.347.611zM19.64 14.48c-.494-.865 1.314-.403 1.82-.692.889-.44.572.92-.158.687-.551.027-1.114.086-1.662.005zM2.1 14.255c-.353-.67 1.147-.554 1.615-.54.805.15.743.685-.013.642-.53.005-1.093.066-1.602-.102zm17.073-2.3c-.2-.702.855-1.414 1.227-2.1 1.18-.353.043 1.01-.213 1.344-.276.292-.497.982-1.014.756zm-15.357-.206c-.71-.538-1.503-1.195-1.67-2.12.201-1.076.817.773 1.276.95.285.394 1.626.805.74 1.277-.124-.002-.236-.057-.346-.107z"/></svg>