<svg viewBox="0 0 24 24" xmlns="http://www.w3.org/2000/svg"><path d="M3.22 10.08A1.24 1.24 0 0 0 2 11.31v1.39a1.22 1.22 0 0 0 2.44 0v-1.39a1.17 1.17 0 0 0-1.22-1.23zm17.56 0a1.23 1.23 0 0 0-1.22 1.23v1.39a1.21 1.21 0 0 0 1.22 1.22A1.22 1.22 0 0 0 22 12.7v-1.39a1.24 1.24 0 0 0-1.22-1.23zM7.56 14.2a1.24 1.24 0 0 0-1.23 1.23v1.4a1.23 1.23 0 0 0 2.45 0v-1.4a1.17 1.17 0 0 0-1.22-1.23zm0-8.2a1.24 1.24 0 0 0-1.23 1.24v4.46a1.23 1.23 0 0 0 2.45 0V7.24A1.17 1.17 0 0 0 7.56 6zm8.88 0a1.24 1.24 0 0 0-1.22 1.23v1.4a1.23 1.23 0 0 0 2.45 0V7.24A1.24 1.24 0 0 0 16.44 6zM12 2a1.23 1.23 0 0 0-1.22 1.23v1.39a1.22 1.22 0 1 0 2.44 0V3.23A1.23 1.23 0 0 0 12 2zm0 16.16a1.22 1.22 0 0 0-1.22 1.22v1.4a1.22 1.22 0 1 0 2.44 0v-1.4A1.26 1.26 0 0 0 12 18.16zm4.44-7a1.23 1.23 0 0 0-1.22 1.22v4.47a1.23 1.23 0 0 0 2.45 0v-4.49a1.23 1.23 0 0 0-1.23-1.22zm-3.22-2.75a1.22 1.22 0 0 0-2.44 0v7.36a1.22 1.22 0 1 0 2.44 0V8.41z"/></svg>