<?xml version="1.0" encoding="UTF-8"?>
<svg version="1.1" viewBox="0 0 24 24" xmlns="http://www.w3.org/2000/svg">
 <path d="m3.22 10.08a1.24 1.24 0 0 0-1.22 1.23v1.39a1.22 1.22 0 0 0 2.44 0v-1.39a1.17 1.17 0 0 0-1.22-1.23zm17.56 0a1.23 1.23 0 0 0-1.22 1.23v1.39a1.21 1.21 0 0 0 1.22 1.22 1.22 1.22 0 0 0 1.22-1.22v-1.39a1.24 1.24 0 0 0-1.22-1.23zm-13.22 4.12a1.24 1.24 0 0 0-1.23 1.23v1.4a1.23 1.23 0 0 0 2.45 0v-1.4a1.17 1.17 0 0 0-1.22-1.23zm0-8.2a1.24 1.24 0 0 0-1.23 1.24v4.46a1.23 1.23 0 0 0 2.45 0v-4.46a1.17 1.17 0 0 0-1.22-1.24zm8.88 0a1.24 1.24 0 0 0-1.22 1.23v1.4a1.23 1.23 0 0 0 2.45 0v-1.39a1.24 1.24 0 0 0-1.23-1.24zm-4.44-4a1.23 1.23 0 0 0-1.22 1.23v1.39a1.22 1.22 0 1 0 2.44 0v-1.39a1.23 1.23 0 0 0-1.22-1.23zm0 16.16a1.22 1.22 0 0 0-1.22 1.22v1.4a1.22 1.22 0 1 0 2.44 0v-1.4a1.26 1.26 0 0 0-1.22-1.22zm4.44-7a1.23 1.23 0 0 0-1.22 1.22v4.47a1.23 1.23 0 0 0 2.45 0v-4.49a1.23 1.23 0 0 0-1.23-1.22zm-3.22-2.75a1.22 1.22 0 0 0-2.44 0v7.36a1.22 1.22 0 1 0 2.44 0v-7.36z"/>
</svg>
