<svg viewBox="0 0 24 24" xmlns="http://www.w3.org/2000/svg"><path d="M9.938 20.799c-1.358-.008-2.898-.055-3.422-.104a23.095 23.095 0 0 1-1.627-.214c-.37-.068-.999-.235-1.396-.372-.407-.14-.891-.406-1.108-.61L2 19.136l.048-.997c.033-.697.107-1.088.244-1.298.108-.164.324-.348.48-.408.202-.076.751-.04 1.874.127.874.129 2.12.235 2.767.236.7.001 1.356-.06 1.617-.15.24-.082.536-.283.657-.446.175-.236.203-.39.14-.767-.072-.42-.107-.464-.321-.393a4.662 4.662 0 0 1-.666.134 1.767 1.767 0 0 1-.761-.084c-.186-.077-.511-.343-.723-.59a3.893 3.893 0 0 1-.574-.944l-.188-.493-.769.076c-.422.041-.769.056-.77.033 0-.023-.098-.876-.215-1.894-.118-1.018-.18-1.885-.139-1.927.042-.041.227-.092.412-.112.335-.037.337-.04.408-.918.059-.72.156-1.051.532-1.809.347-.702.637-1.093 1.19-1.61a6.536 6.536 0 0 1 1.544-1.07c.448-.213 1.082-.442 1.409-.51.327-.067.96-.123 1.407-.123a7.27 7.27 0 0 1 1.481.17c.368.094.997.334 1.398.534.435.216 1.006.639 1.418 1.049.44.438.81.945 1.026 1.402.186.394.373.88.415 1.081.068.323.119.365.45.365.346 0 .379.031.437.42.035.232.115.926.179 1.543.064.617.141 1.312.173 1.543.054.401.041.42-.263.42-.175 0-.349.03-.385.067-.036.036-.012.225.054.42.065.196.193.442.285.548.09.105.323.24.517.299.193.059.74.19 1.215.291.744.159.944.255 1.431.693.311.28.566.574.566.655 0 .08-.07.172-.155.205-.086.033-.323-.116-.533-.334-.208-.217-.504-.459-.659-.538-.154-.08-.628-.204-1.054-.277-.426-.073-.963-.23-1.195-.348a1.865 1.865 0 0 1-.642-.583 2.954 2.954 0 0 1-.296-.684c-.05-.216-.134-.304-.264-.28-.127.025-.218.202-.275.54a5.708 5.708 0 0 1-.265.953 4.22 4.22 0 0 1-.463.824c-.156.206-.442.47-.636.589a1.644 1.644 0 0 1-.716.214c-.312 0-.365.04-.365.275 0 .15.119.412.264.58.222.259.374.315.962.358a7.92 7.92 0 0 0 1.51-.08c.447-.073 1.31-.281 1.918-.464.608-.182 1.244-.332 1.414-.332.17 0 .391.032.491.07s.256.213.346.387c.102.199.164.643.164 1.186 0 .649-.059.989-.233 1.35a2.825 2.825 0 0 1-.664.822c-.237.188-.7.459-1.03.603a9.66 9.66 0 0 1-1.383.445c-.432.1-1.19.233-1.683.295a59.95 59.95 0 0 1-2.525.225c-.895.062-2.738.107-4.095.1zm.898-.601c1.974-.023 4.12-.096 4.768-.162a27.153 27.153 0 0 0 2.076-.3 11.94 11.94 0 0 0 1.475-.396c.318-.118.783-.364 1.034-.546s.544-.496.65-.697c.131-.248.195-.632.198-1.18.002-.572-.046-.862-.163-.979-.147-.147-.326-.122-1.538.217-.754.211-1.78.444-2.28.517-.501.073-1.162.103-1.47.067-.307-.037-.726-.17-.932-.297a1.507 1.507 0 0 1-.553-.68c-.099-.247-.18-.567-.18-.71 0-.144-.1-.352-.224-.464-.22-.2-.225-.196-.224.235 0 .241.056.64.125.885.068.245.308.63.533.855.306.306.572.446 1.06.555.518.116.853.119 1.645.013.547-.073 1.49-.266 2.097-.429.607-.163 1.23-.301 1.384-.307.241-.01.286.043.318.381a2.53 2.53 0 0 1-.086.803c-.067.226-.295.561-.505.746s-.675.445-1.032.579c-.358.134-1.006.315-1.44.402-.434.087-1.294.213-1.912.28-.617.067-2.663.15-4.546.186-2.323.043-3.803.02-4.6-.07a22.2 22.2 0 0 1-1.906-.3c-.4-.092-.949-.272-1.217-.402l-.488-.235.077-.63c.042-.346.114-.669.16-.717.046-.048.61-.007 1.252.09.644.098 1.675.205 2.292.24.8.043 1.36.01 1.948-.116.454-.097 1.04-.302 1.304-.456.28-.165.553-.44.66-.666.101-.212.184-.583.184-.825s-.082-.68-.182-.971c-.17-.5-.19-.519-.337-.31-.116.166-.127.3-.043.52.062.162.113.497.113.743s-.074.59-.164.763c-.09.174-.335.397-.545.497-.21.1-.654.24-.986.31-.376.081-1.093.106-1.895.066-.71-.035-1.837-.15-2.504-.256-1.116-.178-1.228-.179-1.394-.012-.105.105-.22.497-.272.937-.073.607-.057.808.083 1.021.095.146.39.358.653.471.264.114.854.289 1.312.39a19.92 19.92 0 0 0 1.729.284c.493.056 2.513.082 4.488.06zM8.68 14.756c.297 0 .516-.095.809-.352.22-.193.525-.564.677-.823.151-.259.377-.866.5-1.349.135-.528.224-1.24.223-1.785 0-.5-.076-1.225-.168-1.613-.091-.388-.262-.892-.38-1.122a2.874 2.874 0 0 0-.477-.662 2.11 2.11 0 0 0-.572-.362.816.816 0 0 0-.617 0c-.17.064-.452.252-.628.418-.175.165-.442.542-.592.836-.15.294-.355.85-.457 1.234-.11.416-.186 1.155-.189 1.822-.003.884.053 1.298.264 1.954.197.614.39.96.733 1.319.382.398.539.485.874.485zm.27-1.795c-.205 0-.44-.119-.649-.328-.241-.242-.328-.435-.328-.735 0-.224.077-.555.17-.736.094-.18.325-.409.512-.506.279-.144.414-.153.73-.048a.996.996 0 0 1 .554.45c.091.176.166.452.166.613s-.075.437-.167.616c-.093.178-.28.403-.418.499a1.166 1.166 0 0 1-.57.175zm6.032 1.513c.183-.032.47-.19.637-.35.168-.16.406-.527.53-.815.123-.287.285-.869.358-1.292a6.74 6.74 0 0 0 .058-1.608 9.874 9.874 0 0 0-.354-1.72c-.153-.485-.44-1.093-.64-1.352-.198-.259-.5-.573-.67-.7s-.479-.229-.686-.229c-.208 0-.515.09-.683.2-.176.115-.454.517-.655.947-.313.67-.354.879-.395 2.043-.039 1.077-.006 1.447.193 2.17.132.48.337 1.064.456 1.298.12.234.356.59.526.792.17.202.462.436.65.52.189.085.492.128.675.096zm-.41-1.566c-.237.058-.367.011-.59-.212-.229-.229-.286-.396-.286-.835 0-.387.076-.663.256-.93.14-.209.393-.428.56-.487a.937.937 0 0 1 .614.001c.212.075.35.235.441.511.095.29.1.53.017.857-.063.25-.249.581-.412.737-.164.155-.434.316-.6.358zM6.394 9.146c.056 0 .188-.265.293-.589.104-.324.308-.795.451-1.047a4.27 4.27 0 0 1 .71-.864c.247-.222.624-.438.838-.478.215-.04.49-.041.612-.002.187.059.276-.046.564-.66.235-.504.457-.801.713-.957.205-.125.503-.227.664-.227.16 0 .46.113.665.252.217.146.542.563.775.994l.401.743.392-.216c.277-.153.535-.202.877-.166.315.032.631.166.898.38.227.18.572.564.767.85.195.288.377.587.405.666.028.079.08.117.115.086.034-.032-.027-.323-.136-.647a5.9 5.9 0 0 0-.581-1.156c-.21-.312-.673-.788-1.028-1.057a6.426 6.426 0 0 0-1.29-.739c-.43-.166-.984-.266-1.666-.3-.756-.04-1.193-.003-1.679.138a8.48 8.48 0 0 0-1.213.473c-.306.155-.82.53-1.14.835-.322.304-.737.841-.923 1.195a5.76 5.76 0 0 0-.463 1.236 5.914 5.914 0 0 0-.125.926c0 .182.047.331.103.331zm6.137-2.156a.605.605 0 0 0 .034-.505 8.207 8.207 0 0 0-.282-.622 3.486 3.486 0 0 0-.472-.672c-.185-.198-.405-.309-.61-.309-.2 0-.421.108-.588.289-.147.158-.342.508-.434.776-.153.45-.15.503.033.67.188.17.204.154.27-.255.038-.24.175-.57.303-.734.13-.163.331-.297.45-.297.122 0 .356.194.54.448.179.247.392.676.474.954.14.476.157.49.282.257z"/></svg>