<svg viewBox="0 0 24 24" xmlns="http://www.w3.org/2000/svg"><path d="m14.209 20.92 2.4.012.23-.12.231-.12.247-.348.051-.226.051-.225-.296-2.541-.116-.928-.115-.927.058-.191.052-.232.05-.232 1.3-1.346.56-.787.624-1.26.206-.59.206-.59.097-.354.097-.354-.045-.63-.15-.568c-.137-.374-.108-.298-.311-.77l-.45-.707c-.054-.032-.062-.053-.093-.08l-.002-.097-.003-.099-.024-.118-.251-.208.088.044.09.044.089-.45.283-.092.945-.526.865-.545.82-.392.004-.053L22 4.26l-.512.162-1.338.381-.968.233-.92.523-.174.11-.173.109-.025-.036-.026-.037.028-.565.028-.566c-.11-.847-.023-.365-.399-1.112l-.29-.196-.29-.197h-.804l-.536.327-.283.342-.088.416-.089.415-.173-.256-.173-.257-.53-.358h-.82l-.53.358-.18.266-.179.265v.921h-.118l-.133-.234-.133-.234-.52-.327-.873.056-.424.307-.317.64-.001.349-.001.348-.16-.248-.159-.248-.634-.254-.59.158-.333.356-.168.443v2.435l.216.506.417.385h.769l.28-.214.279-.213.053-.294.052-.293.133-.236.005.195.653.473h.941l.664-.668.112-.709.226.315.174.185.173.185.387.147.565.02.351.227.882.273-.997.353-3.14 1.245-.06-.098-.062-.097.234-.052-.106-.172.257.099.438-.229.314-.003-.118-.085-.118-.085.271.087.516-.173.236-.201.472-.104.35-.169-.084-.134-.237.237h-.225V9.59l.14.086.09-.11.092-.11-.483-.106-.624.106-.592.402-.515.143-.477-.122-.477-.122h-.056l-.72.623-.558.104-.581-.092-.298-.318-.298-.317-1.057.336-.157.118-.51.109-.083.135 1.537.936.984.606v.13l-.374.159-.374.16-.472.21-1.416.571-.315.15-1.732.717-1.416.564-.096.149-.061-.037-.366.116.065.066 2.897-.716 1.26-.306 1.652-.405 1.023-.24.866-.208 1.416-.323 1.38-.4h.312v-.163l.354.19-.63.194-1.888.434-1.472.358-.086.086.281.424.282.424.68.547.254.146.253.145-.065.323-.128 1.141-.127 1.141-.226 1.837v.571l.113.219.113.218.135.112.135.112.96.094 2.4.012z"/></svg>