<svg version="1.1" viewBox="0 0 24 24" xmlns="http://www.w3.org/2000/svg">
 <path d="m21.92 8.948c-.21126-1.2412-.79223-2.2975-1.7429-3.1425-1.1883-1.0299-2.5616-1.4788-4.146-1.3468-.55456.052815-1.0827.18485-1.6109.42252-.95068.42252-1.7165 1.0299-2.3239 1.8749-.0264.052815-.05282.10563-.10563.13204-.0264-.026408-.05282-.079224-.07922-.10563-.21127-.29049-.42253-.55456-.68661-.79223-.97709-.92427-2.139-1.4524-3.4858-1.5316-.44893-.026408-.87146 0-1.3204.10563-1.2148.23767-2.2447.81864-3.0633 1.7429-.76582.87146-1.1883 1.8749-1.3204 3.0105-.052815.50175-.052815 1.0299.052815 1.5316.26408 1.294.92427 2.4031 1.9014 3.301.052815.05281.10563.07922.15845.13204.97709.89786 1.9278 1.7957 2.9049 2.6672.89786.84505 1.8221 1.6637 2.72 2.5087.02641.0264.05281.07922.13204.07922v-.21126-3.6971c0-.15845 0-.29049.0264-.44893.10563-.58097.36971-1.0299.87145-1.3204.63379-.39612 1.3204-.42252 2.007-.18485.6866.26408 1.0827.73942 1.2148 1.4788.0264.18485.0264.3433.0264.52816v3.6971.18485c.07922-.0264.10563-.07922.15845-.13204 1.5316-1.426 3.0369-2.8784 4.5685-4.3045.3433-.31689.6866-.66019 1.0299-.95068.21126-.18485.39612-.36971.58097-.58097.39612-.44893.76582-.92427 1.0299-1.4524.31689-.60738.50175-1.2412.55456-1.9278.05282-.42252.0264-.84505-.05282-1.2676zm-14.762 5.1231c-.079224.13204-.18485.21126-.3433.21126-.10563 0-.15845-.05282-.23767-.10563-.079223-.052816-.15845-.13204-.21126-.21126-.50175-.47534-.97709-.97709-1.3468-1.5581-.31689-.50175-.58097-1.0299-.73942-1.5845-.13204-.52816-.18485-1.0299-.10563-1.5581.079223-.60738.29049-1.1619.60738-1.6901.26408-.44893.58097-.84505 1.0035-1.1619.079223-.052815.15845-.13204.23767-.15845.23767-.13204.50175 0 .55456.26408.026408.13204-.026408.23767-.10563.31689-.026408.026408-.052815.052815-.079223.079224-.42252.26408-.71301.63379-.97709 1.0563-.26408.44893-.44893.92427-.50175 1.426-.052815.3433-.026408.66019.026408 1.0035.10563.52816.31689 1.0035.58097 1.4524.31689.52816.73942 1.0035 1.1883 1.4524.10563.10563.21126.18485.31689.29048.026408.02641.079223.05281.10563.10563.10563.10563.10563.23767.026408.36971zm2.3767-1.294c-.10563.18485-.3433.23767-.47534.15845-.079223-.026408-.13204-.079223-.18485-.10563-.84505-.58097-1.3996-1.3468-1.6109-2.3503-.026408-.18486-.052815-.36971-.052815-.55456.052815-1.1619.55456-2.0598 1.5845-2.6672.10563-.052815.21126-.079223.31689-.052815.15845.052815.23767.13204.26408.29048.02641.15845-.02641.26408-.15845.36971-.02641.026408-.07922.052815-.10563.052815-.60738.3433-.97709.87146-1.1355 1.5581-.10563.44893-.026408.89786.13204 1.3468.23767.58097.63379 1.0563 1.1883 1.3996.05281.02641.07922.05282.13204.07922.18485.10563.18485.31689.10563.47534zm2.4559-.97709c-.87146 0-1.6373-.73942-1.6373-1.6373 0-.89786.76582-1.6109 1.6373-1.6109.81864 0 1.6373.63379 1.6373 1.6373 0 .97709-.81864 1.6373-1.6373 1.6109zm3.0369 1.0827c-.07922.05282-.15845.07922-.26408.07922-.13204 0-.26408-.05282-.3433-.23767-.05282-.13204-.0264-.31689.10563-.42252.05282-.02641.10563-.05282.15845-.10563.60738-.39612 1.0563-.92427 1.2676-1.6109.07922-.26408.10563-.44893.10563-.71301-.02641-.84505-.39612-1.4788-1.1091-1.9542-.05281-.026408-.10563-.052816-.15845-.079223-.13204-.079223-.21126-.23767-.15845-.39612.0264-.15845.15845-.26408.3433-.29048.07922 0 .15844.026408.23767.052815.21126.10563.42252.26408.60738.42252.52816.47534.84505 1.0563.95068 1.7693.10563.58097.0264 1.1091-.21126 1.6637-.29048.76582-.81864 1.3732-1.5316 1.8221zm2.4823 1.2412c-.0264.02641-.07922.07922-.13204.10563-.15845.10563-.36971.07922-.50175-.07922-.10563-.13204-.10563-.3433 0-.47534.0264-.05282.07922-.07922.13204-.13204.47534-.42252.89786-.89786 1.2676-1.426.31689-.44893.55456-.92427.6866-1.4788.10563-.39612.15844-.79224.10563-1.1884-.026404-.39611-.15844-.76582-.31689-1.1355-.18485-.42252-.42252-.79223-.76582-1.1091-.10563-.10563-.23767-.21126-.36971-.29049-.02641-.026408-.07922-.052815-.10563-.079223-.13204-.13204-.15845-.31689-.05282-.47534.10563-.15845.29048-.21126.47534-.13204.07922.026408.13204.079223.18485.13204.39612.29048.73942.66019 1.0035 1.0827.31689.50175.55456 1.0299.66019 1.6109.0264.10563.0264.21126.05282.3433 0 .13204 0 .26408.0264.31689 0 .81864-.21126 1.5052-.55456 2.1918-.29048.55456-.63378 1.0299-1.0563 1.4788-.21126.26408-.47534.50175-.73942.73942" stroke-width=".26408"/>
</svg>
