<svg viewBox="0 0 24 24" xmlns="http://www.w3.org/2000/svg"><path d="M21.92 8.948a5.289 5.289 0 0 0-1.743-3.143c-1.188-1.03-2.561-1.478-4.146-1.346a5.018 5.018 0 0 0-1.61.422 5.562 5.562 0 0 0-2.325 1.875c-.026.053-.053.106-.105.132-.027-.026-.053-.08-.08-.105a4.931 4.931 0 0 0-.686-.793c-.977-.924-2.14-1.452-3.486-1.531-.449-.027-.871 0-1.32.105a5.372 5.372 0 0 0-3.064 1.743c-.765.872-1.188 1.875-1.32 3.01-.053.502-.053 1.03.053 1.532.264 1.294.924 2.403 1.901 3.301.053.053.106.08.159.132.977.898 1.927 1.796 2.905 2.668.897.845 1.822 1.663 2.72 2.508.026.027.052.08.132.08v-3.91c0-.158 0-.29.026-.449.106-.58.37-1.03.871-1.32.634-.396 1.32-.423 2.007-.185.687.264 1.083.74 1.215 1.479.027.185.027.343.027.528v3.882c.079-.027.105-.08.158-.132 1.532-1.426 3.037-2.879 4.569-4.305.343-.317.686-.66 1.03-.95.21-.185.396-.37.58-.581.397-.45.766-.925 1.03-1.453a4.917 4.917 0 0 0 .555-1.928 4.092 4.092 0 0 0-.053-1.267zM7.158 14.071c-.08.132-.185.211-.343.211-.106 0-.159-.052-.238-.105a.804.804 0 0 1-.211-.212c-.502-.475-.977-.977-1.347-1.558-.317-.501-.581-1.03-.74-1.584-.131-.528-.184-1.03-.105-1.558a4.34 4.34 0 0 1 .607-1.69c.264-.45.581-.845 1.004-1.162.079-.053.158-.132.237-.159.238-.132.502 0 .555.264a.34.34 0 0 1-.106.317l-.079.08c-.422.264-.713.633-.977 1.056-.264.449-.449.924-.502 1.426-.052.343-.026.66.027 1.003.105.528.317 1.004.58 1.453.318.528.74 1.003 1.189 1.452.106.106.211.185.317.29.026.027.08.053.106.106.105.106.105.238.026.37zm2.377-1.294c-.106.185-.344.238-.476.159-.079-.027-.132-.08-.184-.106-.846-.581-1.4-1.347-1.611-2.35a3.86 3.86 0 0 1-.053-.555c.053-1.162.554-2.06 1.584-2.667a.455.455 0 0 1 .317-.053c.159.053.238.132.264.29.027.159-.026.265-.158.37a.2.2 0 0 1-.106.053c-.607.343-.977.872-1.135 1.558-.106.45-.027.898.132 1.347a2.916 2.916 0 0 0 1.188 1.4c.053.026.08.052.132.079.185.105.185.317.106.475zm2.456-.977c-.872 0-1.638-.74-1.638-1.637 0-.898.766-1.611 1.638-1.611.818 0 1.637.634 1.637 1.637 0 .977-.819 1.637-1.637 1.611zm3.037 1.083a.446.446 0 0 1-.265.079c-.132 0-.264-.053-.343-.238a.375.375 0 0 1 .106-.422.553.553 0 0 0 .158-.106c.608-.396 1.057-.924 1.268-1.61a2.24 2.24 0 0 0 .105-.714c-.026-.845-.396-1.479-1.109-1.954l-.158-.08a.34.34 0 0 1-.159-.395c.027-.159.159-.264.344-.29.079 0 .158.026.237.052.212.106.423.264.608.423a2.86 2.86 0 0 1 .95 1.769c.106.58.027 1.109-.21 1.664-.291.765-.82 1.373-1.532 1.822zm2.482 1.24a.576.576 0 0 1-.132.107.374.374 0 0 1-.502-.08.396.396 0 0 1 0-.475c.026-.053.08-.08.132-.132a8.166 8.166 0 0 0 1.268-1.426 4.21 4.21 0 0 0 .686-1.479c.106-.396.159-.792.106-1.188-.027-.396-.159-.766-.317-1.136a3.216 3.216 0 0 0-.766-1.109 1.994 1.994 0 0 0-.37-.29c-.026-.027-.079-.053-.105-.08a.364.364 0 0 1-.053-.475c.106-.158.29-.211.475-.132.08.026.132.08.185.132.396.29.74.66 1.004 1.083.317.502.554 1.03.66 1.61.026.106.026.212.053.344 0 .132 0 .264.026.317 0 .819-.211 1.505-.554 2.192a6.551 6.551 0 0 1-1.057 1.478c-.211.265-.475.502-.74.74"/></svg>