<svg viewBox="0 0 24 24" xmlns="http://www.w3.org/2000/svg"><path d="M16.615 4.438a6.371 6.371 0 0 0-.584.021c-.556.05-1.1.193-1.61.422a5.566 5.566 0 0 0-2.326 1.875c-.026.053-.053.107-.105.133-.027-.026-.053-.08-.08-.106a4.94 4.94 0 0 0-.686-.793c-.977-.924-2.14-1.452-3.486-1.531-.449-.027-.87 0-1.318.106a5.372 5.372 0 0 0-3.065 1.742c-.765.872-1.188 1.875-1.32 3.01-.053.502-.053 1.03.053 1.533.264 1.294.923 2.403 1.9 3.3.053.054.107.08.16.131.977.898 1.926 1.796 2.904 2.668.897.845 1.823 1.663 2.721 2.508.026.027.051.08.131.08V15.63c0-.158.001-.29.027-.45.106-.58.37-1.03.871-1.32.634-.395 1.32-.423 2.006-.185.687.264 1.083.74 1.215 1.478.027.185.027.345.027.53v3.88c.08-.026.106-.078.159-.13 1.532-1.426 3.036-2.879 4.568-4.305.343-.317.687-.661 1.031-.951.21-.185.396-.37.58-.58.397-.45.766-.925 1.03-1.453a4.916 4.916 0 0 0 .554-1.928 4.09 4.09 0 0 0-.052-1.268 5.287 5.287 0 0 0-1.743-3.142c-1.04-.901-2.221-1.356-3.562-1.367zm1.18 1.755c.045.004.09.016.136.036.08.026.133.078.186.13.396.29.74.661 1.004 1.084.317.502.554 1.03.66 1.61.026.106.026.212.053.344 0 .132 0 .265.025.318 0 .819-.21 1.504-.553 2.191a6.554 6.554 0 0 1-1.056 1.479c-.211.265-.475.502-.74.74v-.002a.572.572 0 0 1-.131.108.374.374 0 0 1-.502-.08.395.395 0 0 1 0-.475c.026-.053.079-.081.13-.133a8.163 8.163 0 0 0 1.268-1.426 4.2 4.2 0 0 0 .688-1.478c.106-.396.158-.792.105-1.188-.027-.396-.158-.766-.316-1.136a3.222 3.222 0 0 0-.768-1.11 1.983 1.983 0 0 0-.369-.289c-.026-.027-.08-.053-.105-.08a.366.366 0 0 1-.053-.477.362.362 0 0 1 .338-.166zM6.2 6.203a.374.374 0 0 1 .377.315.343.343 0 0 1-.108.318l-.078.08c-.422.264-.712.632-.976 1.055-.264.449-.45.924-.502 1.426-.052.343-.028.66.025 1.003.105.528.317 1.005.58 1.454.318.528.74 1.002 1.19 1.45.106.107.21.187.316.292.026.027.081.052.107.105.105.106.105.237.026.37-.08.131-.186.212-.344.212-.106 0-.157-.052-.236-.105a.815.815 0 0 1-.213-.213c-.502-.475-.976-.976-1.346-1.557a6.168 6.168 0 0 1-.74-1.584c-.131-.528-.185-1.03-.106-1.558.083-.6.29-1.175.608-1.69.264-.45.58-.845 1.004-1.162.079-.053.157-.133.236-.16a.397.397 0 0 1 .18-.05zm8.773.95c.08 0 .16.026.238.052.212.106.423.265.608.424a2.85 2.85 0 0 1 .949 1.768c.106.58.028 1.109-.209 1.664-.291.765-.821 1.373-1.533 1.822a.443.443 0 0 1-.264.08c-.132 0-.265-.053-.344-.238a.375.375 0 0 1 .106-.422.558.558 0 0 0 .158-.108c.608-.396 1.059-.923 1.27-1.609.073-.23.107-.47.103-.713-.026-.845-.396-1.48-1.11-1.955l-.156-.08a.34.34 0 0 1-.16-.395c.027-.159.159-.265.344-.29zm-5.943.044c.027 0 .053.003.08.008.159.053.24.133.265.291.027.16-.026.264-.158.37a.204.204 0 0 1-.107.052c-.607.343-.977.873-1.135 1.559-.106.45-.026.898.133 1.347a2.911 2.911 0 0 0 1.187 1.399c.053.026.081.053.133.08.185.105.185.316.106.474-.106.185-.345.238-.477.159-.079-.027-.132-.08-.184-.106-.846-.58-1.4-1.346-1.61-2.35a3.855 3.855 0 0 1-.054-.554c.053-1.162.554-2.061 1.584-2.668a.458.458 0 0 1 .237-.06zm2.959 1.356c.818 0 1.638.634 1.638 1.637 0 .977-.82 1.637-1.638 1.61-.872 0-1.637-.739-1.637-1.636 0-.898.765-1.611 1.637-1.611z"/></svg>