<svg viewBox="0 0 24 24" xmlns="http://www.w3.org/2000/svg"><path d="M13.855 22a1.311 1.311 0 0 1-.275-.072 1.254 1.254 0 0 1-.259-.12c-.035-.028-.313-.063-.618-.078-.393-.02-.61-.055-.748-.124a1.243 1.243 0 0 1-.346-.287 1.155 1.155 0 0 1-.197-.415c-.024-.123-.043-.643-.043-1.156l-.001-.998c-.001-.037-.072-.065-.17-.065a4.48 4.48 0 0 1-.625-.102 7.422 7.422 0 0 1-.932-.29 6.935 6.935 0 0 1-.66-.294 16.549 16.549 0 0 1-.543-.344 6.427 6.427 0 0 1-1.503-1.51 8.648 8.648 0 0 1-.474-.828 6.797 6.797 0 0 1-.325-.8 7.954 7.954 0 0 1-.187-.798c-.054-.307-.077-.828-.077-1.758V10.64l1.413.027c1.22.023 1.468.042 1.826.137.228.061.559.178.735.26.176.083.468.25.648.372s.456.351.614.51a4.845 4.845 0 0 1 .868 1.255c.061.133.161.424.222.648.087.314.118.61.139 1.305l.026.9.211-.034a3.2 3.2 0 0 0 .562-.181 4.23 4.23 0 0 0 .69-.39c.187-.133.456-.382.6-.554.143-.172.339-.47.435-.661.097-.192.216-.487.265-.656.074-.255.094-.596.112-1.979l.023-1.671h-.935c-.912 0-.94.003-1.126.13a.717.717 0 0 1-.804.012.958.958 0 0 1-.269-.299.693.693 0 0 1-.071-.4.951.951 0 0 1 .11-.354.899.899 0 0 1 .323-.239c.16-.07.29-.093.405-.071.094.017.257.09.362.161.187.127.206.13 1.08.115l.89-.014.016-.348.015-.35-1.896-.027V7.31l1.905-.028-.03-.764c-.017-.46-.062-.886-.114-1.074a4.593 4.593 0 0 0-.234-.622 3.978 3.978 0 0 0-.46-.681 3.709 3.709 0 0 0-.705-.634 3.464 3.464 0 0 0-.818-.397 4.05 4.05 0 0 0-.866-.162 2.981 2.981 0 0 0-.827.055c-.213.045-.56.164-.77.264s-.478.258-.594.35a5.55 5.55 0 0 0-.453.419 3.685 3.685 0 0 0-.409.528 4.375 4.375 0 0 0-.304.656c-.123.34-.14.469-.157 1.222l-.019.842h.942c.86 0 .954-.009 1.073-.102a.828.828 0 0 1 .302-.135.833.833 0 0 1 .35.026.948.948 0 0 1 .32.21c.108.111.153.219.17.406a.806.806 0 0 1-.06.434.761.761 0 0 1-.296.299.586.586 0 0 1-.42.09.912.912 0 0 1-.356-.136c-.135-.1-.216-.107-1.08-.107h-.936v.725h1.866v.933H8.52l-.032.44h-.932V8.036c0-2.256.003-2.346.117-2.77a5.6 5.6 0 0 1 .27-.765c.083-.18.24-.458.347-.62s.355-.453.551-.647a5.14 5.14 0 0 1 .734-.588 5.28 5.28 0 0 1 .704-.363c.18-.07.497-.163.704-.206a5.395 5.395 0 0 1 1.807 0c.2.041.514.138.7.214s.525.262.755.413c.23.151.574.439.763.64.189.2.45.544.58.766.13.221.31.624.402.895l.165.492.017 3.808c.014 3.352.006 3.858-.068 4.224a5.814 5.814 0 0 1-.227.785 4.848 4.848 0 0 1-.395.752c-.139.21-.404.533-.591.72-.187.186-.479.43-.649.541-.17.112-.485.28-.699.372-.214.093-.57.209-.791.256l-.403.087v3.717h.443c.369 0 .467-.019.59-.11.082-.06.25-.12.374-.132a.68.68 0 0 1 .403.07.96.96 0 0 1 .278.23c.055.076.11.239.123.363a.699.699 0 0 1-.07.408.732.732 0 0 1-.325.298c-.127.064-.267.115-.311.114zm-2.58-4.251c.078.003.09-.046.09-.354v-.357l-.391-.087a5.567 5.567 0 0 1-.756-.238 5.03 5.03 0 0 1-.71-.38 5.691 5.691 0 0 1-.718-.61 5.216 5.216 0 0 1-.632-.81 4.803 4.803 0 0 1-.372-.777 1.756 1.756 0 0 0-.286-.539.95.95 0 0 1-.204-.367.674.674 0 0 1 .05-.373.939.939 0 0 1 .19-.291c.06-.052.19-.121.289-.154a.842.842 0 0 1 .352-.026.861.861 0 0 1 .314.143.833.833 0 0 1 .212.282 1 1 0 0 1 .072.326.923.923 0 0 1-.083.328c-.078.165-.076.189.047.491.071.175.214.446.318.602s.351.438.55.625c.205.194.511.417.71.517.192.097.476.213.63.26.155.045.313.083.35.083.054 0 .069-.171.069-.793 0-.535-.026-.892-.079-1.1a4.651 4.651 0 0 0-.281-.724c-.15-.305-.3-.511-.569-.777-.2-.2-.51-.451-.689-.56a3.854 3.854 0 0 0-.662-.305c-.28-.091-.503-.114-1.31-.134l-.97-.023v.642c0 .353.024.835.053 1.072.03.236.114.62.188.853.073.233.213.585.31.781.097.197.278.5.402.674.125.174.375.46.556.636.182.176.406.383.5.46.093.076.347.24.564.363.217.124.56.285.763.359.203.073.52.166.705.205.186.04.378.075.428.077zm2.064.781c-.1 0-.108-.028-.107-.427 0-.235.018-.452.039-.483.02-.03.216-.119.434-.197.218-.079.591-.262.83-.407.272-.166.605-.438.9-.735.258-.26.58-.65.715-.867.135-.218.329-.602.43-.853s.218-.621.26-.822.089-.81.106-1.354c.03-.988.03-.99-.1-1.218a1.79 1.79 0 0 1-.161-.363.742.742 0 0 1 .018-.307.927.927 0 0 1 .191-.32.882.882 0 0 1 .346-.202c.164-.044.249-.038.429.03a.85.85 0 0 1 .342.25c.086.12.117.238.117.433 0 .196-.03.31-.116.425-.111.15-.117.204-.117 1.106 0 .604-.03 1.126-.08 1.44-.044.27-.152.702-.24.959a7.525 7.525 0 0 1-.315.777 8.321 8.321 0 0 1-.462.76c-.169.246-.5.633-.735.86a7.54 7.54 0 0 1-.814.67 7.629 7.629 0 0 1-.696.417c-.171.086-.49.217-.709.292-.218.075-.446.136-.505.136zm.255-6.788h-.83v-.933h1.66v.933z"/></svg>