<?xml version="1.0" encoding="UTF-8"?>
<svg version="1.1" viewBox="0 0 24 24" xmlns="http://www.w3.org/2000/svg">
 <path d="m2.748 2.6641c-0.1754 0.72267-0.25764 1.4738-0.27734 2.25-0.10515 4.1423 2.7314 7.7781 6.5156 9.041l-0.50195 1.5059c-2.8543-0.95072-5.1867-3.0301-6.4844-5.7051v1.0684c1.414 2.3849 3.6508 4.225 6.3242 5.1172l-1.7988 5.3945h1.0586l1.707-5.1172c0.65791 0.1574 1.3373 0.25871 2.0332 0.29883l4.8184 4.8184h1.334l-0.03711-0.11328-0.41992-1.2637-1.3379-4.0176c2.6693-0.89133 4.9044-2.7272 6.3184-5.1074v-1.0703c-1.2981 2.6711-3.6276 4.7471-6.4785 5.6973l-0.50195-1.5059c3.7833-1.2635 6.5137-4.8343 6.5137-9.041 0-0.7764-0.10194-1.5273-0.27734-2.25h-0.42969c0.18318 0.72089 0.29102 1.4719 0.29102 2.25 0 4.0278-2.6098 7.4399-6.2305 8.6465l-0.45508-1.3672c3.0462-1.0176 5.2441-3.8918 5.2441-7.2793 0-0.78318-0.11968-1.5381-0.33789-2.25h-0.34961c0.22803 0.70924 0.35352 1.4646 0.35352 2.25 0 3.2439-2.1013 5.9918-5.0176 6.9629l-0.53125-1.5957c2.2455-0.75008 3.8652-2.8702 3.8652-5.3672 0-0.80003-0.16894-1.5601-0.46875-2.25h-0.27148c0.31395 0.68552 0.49414 1.4462 0.49414 2.25 0 2.3907-1.5483 4.4167-3.6973 5.1328l-0.53125-1.5937c1.4807-0.495 2.5488-1.8923 2.5488-3.5391 0-0.84607-0.28486-1.6241-0.75977-2.25h-0.20312c0.49982 0.61402 0.80078 1.3959 0.80078 2.25 0 1.5761-1.0212 2.9118-2.4375 3.3848l-0.57617-1.7285c0.71269-0.23818 1.1938-0.90476 1.1953-1.6562 0-0.9665-0.7835-1.75-1.75-1.75s-1.75 0.7835-1.75 1.75c0.0012 0.75321 0.48427 1.4211 1.1992 1.6582l-0.57617 1.7266c-1.4182-0.47189-2.4414-1.8074-2.4414-3.3848 0-0.85407 0.30096-1.636 0.80078-2.25h-0.20312c-0.47529 0.62594-0.76172 1.4039-0.76172 2.25 0 1.6476 1.0703 3.0467 2.5527 3.541l-0.53125 1.5918c-2.1498-0.71562-3.6992-2.7415-3.6992-5.1328 0-0.80376 0.18019-1.5645 0.49414-2.25h-0.27344c-0.3 0.68995-0.46875 1.45-0.46875 2.25 0 2.4977 1.6222 4.6176 3.8691 5.3672l-0.5332 1.5957c-2.9163-0.97108-5.0176-3.7189-5.0176-6.9629 0-0.78536 0.12549-1.5408 0.35352-2.25h-0.35156c-0.21832 0.71185-0.33789 1.4668-0.33789 2.25 0 3.3883 2.2001 6.2644 5.248 7.2813l-0.45508 1.3652c-3.6216-1.206-6.2324-4.618-6.2324-8.6465 0-0.77814 0.10783-1.5291 0.29102-2.25zm9.2559 5.4141 0.13281 0.40234c-0.04481 0.00167-0.08954 0.00195-0.13477 0.00195-0.04457 0-0.08864-3.358e-4 -0.13281-0.00195zm-0.1875 0.56445c0.06165 0.00303 0.12315 0.00391 0.18555 0.00391 0.06371 0 0.12652-7.439e-4 0.18945-0.00391l0.54297 1.6309c-0.23975 0.03243-0.48373 0.05078-0.73242 0.05078-0.24803 0-0.49133-0.01852-0.73047-0.05078zm-0.625 1.8711c0.26484 0.03807 0.53524 0.05859 0.81055 0.05859 0.27597 0 0.54709-0.02035 0.8125-0.05859l0.10547 0.31445-1.8359 1.3672c-0.14434-0.018-0.28809-0.04016-0.42969-0.06641zm2.0625 1.3145 0.09961 0.30078c-0.20511 0.03813-0.41426 0.06914-0.625 0.08984zm-2.707 0.62109c0.05178 0.0099 0.10411 0.02039 0.15625 0.0293l-0.2207 0.16406zm2.9141 0 0.45898 1.377c-0.61841 0.13229-1.2599 0.20312-1.918 0.20312-0.52281 0-1.0345-0.04646-1.5332-0.13086l1.7676-1.3145c0.41723-0.01257 0.82666-0.05807 1.2246-0.13477zm0.5918 1.7715 0.50391 1.5117c-0.74533 0.17515-1.5195 0.27608-2.3145 0.29297l-1.6895-1.6895c0.47254 0.07216 0.9566 0.10938 1.4492 0.10938 0.70444 0 1.3898-0.07941 2.0508-0.22461zm-4.3281 0.69726 1.0449 1.0449c-0.44734-0.049308-0.8867-0.12779-1.3164-0.22852zm4.9941 1.2988 1.1406 3.4258-3.1289-3.1289c0.68024-0.04218 1.3446-0.14251 1.9883-0.29688z" stroke-width="1.8897" style="font-feature-settings:normal;font-variant-alternates:normal;font-variant-caps:normal;font-variant-east-asian:normal;font-variant-ligatures:normal;font-variant-numeric:normal;font-variant-position:normal;font-variation-settings:normal;inline-size:0;isolation:auto;mix-blend-mode:normal;shape-margin:0;shape-padding:0;text-decoration-color:#000000;text-decoration-line:none;text-decoration-style:solid;text-indent:0;text-orientation:mixed;text-transform:none;white-space:normal"/>
</svg>
