<svg viewBox="0 0 24 24" xmlns="http://www.w3.org/2000/svg"><path d="M2.748 2.664a10.664 10.664 0 0 0-.277 2.25c-.105 4.142 2.731 7.778 6.515 9.041l-.502 1.506A11.14 11.14 0 0 1 2 9.756v1.068a11.664 11.664 0 0 0 6.324 5.118l-1.799 5.394h1.059l1.707-5.117c.658.157 1.337.259 2.033.299l4.819 4.818h1.334l-.038-.113-.42-1.264-1.337-4.018A11.666 11.666 0 0 0 22 10.834v-1.07a11.139 11.139 0 0 1-6.479 5.697l-.501-1.506c3.783-1.263 6.513-4.834 6.513-9.04 0-.777-.102-1.528-.277-2.25h-.43a9.11 9.11 0 0 1 .291 2.25c0 4.027-2.61 7.44-6.23 8.646l-.455-1.368a7.679 7.679 0 0 0 4.906-9.529h-.35a7.337 7.337 0 0 1-4.664 9.213l-.531-1.596a5.662 5.662 0 0 0 3.865-5.367c0-.8-.169-1.56-.469-2.25h-.271c.314.686.494 1.446.494 2.25a5.41 5.41 0 0 1-3.697 5.133l-.532-1.594a3.733 3.733 0 0 0 2.55-3.539c0-.846-.286-1.624-.76-2.25h-.204A3.569 3.569 0 0 1 13.132 8.3l-.576-1.729a1.75 1.75 0 0 0 1.196-1.656 1.75 1.75 0 1 0-3.5 0 1.75 1.75 0 0 0 1.199 1.658L10.875 8.3a3.567 3.567 0 0 1-1.64-5.635H9.03a3.708 3.708 0 0 0-.762 2.25 3.736 3.736 0 0 0 2.553 3.541l-.531 1.592a5.409 5.409 0 0 1-3.7-5.133c0-.804.18-1.564.495-2.25h-.274c-.3.69-.468 1.45-.468 2.25a5.662 5.662 0 0 0 3.869 5.367l-.534 1.596a7.337 7.337 0 0 1-4.664-9.213h-.351a7.681 7.681 0 0 0 4.91 9.531l-.455 1.366a9.112 9.112 0 0 1-6.233-8.647c0-.778.108-1.529.291-2.25zm9.256 5.414.133.403a3.614 3.614 0 0 1-.268 0zm-.188.565a3.77 3.77 0 0 0 .375 0l.543 1.63a5.356 5.356 0 0 1-1.462.001zm-.625 1.87a5.692 5.692 0 0 0 1.623 0l.106.315-1.836 1.367a7.353 7.353 0 0 1-.43-.066zm2.063 1.315.1.301c-.206.038-.415.07-.625.09zm-2.707.621.156.03-.22.164zm2.914 0 .459 1.377a9.16 9.16 0 0 1-3.451.073l1.767-1.315a7.694 7.694 0 0 0 1.225-.135zm.592 1.772.504 1.512c-.746.175-1.52.276-2.315.293l-1.69-1.69a9.597 9.597 0 0 0 3.5-.115zm-4.328.697 1.045 1.045c-.448-.05-.887-.128-1.317-.229zm4.994 1.299 1.14 3.426-3.129-3.13a11.6 11.6 0 0 0 1.989-.296z" style="font-feature-settings:normal;font-variant-alternates:normal;font-variant-caps:normal;font-variant-east-asian:normal;font-variant-ligatures:normal;font-variant-numeric:normal;font-variant-position:normal;font-variation-settings:normal;inline-size:0;isolation:auto;mix-blend-mode:normal;shape-margin:0;shape-padding:0;text-decoration-color:#000;text-decoration-line:none;text-decoration-style:solid;text-indent:0;text-orientation:mixed;text-transform:none;white-space:normal"/></svg>