<svg viewBox="0 0 24 24" xmlns="http://www.w3.org/2000/svg"><path d="M9.658 20.283a22.074 22.074 0 0 1-.801-.279c-.125-.052-.137-.217-.137-1.851v-1.794l.203.025c.19.023.25.147.861 1.782a279 279 0 0 0 .773 2.051c.112.286.11.293-.06.29-.096-.001-.474-.102-.84-.224zm3.675.169c.002-.032.328-.938.725-2.012.687-1.86.732-1.955.935-1.978l.212-.025v3.515l-.41.154c-.888.331-1.468.469-1.462.346zm-7.87-.835a2.52 2.52 0 0 1-1.15-.75c-.238-.263-.328-.31-.594-.31-.208 0-.365-.052-.469-.156-.151-.152-.156-.26-.156-3.636 0-3.246.01-3.483.137-3.522.342-.106.37-.16.43-.82.338-3.793 3.602-6.661 7.872-6.917 1.972-.119 4.275.554 5.793 1.69 1.714 1.285 2.74 3.02 2.978 5.037.1.853.124.903.469 1.01.127.04.137.276.137 3.522 0 3.375-.005 3.484-.157 3.636-.108.108-.26.156-.495.156-.3 0-.366.035-.585.308-.305.379-1.12.795-1.656.847l-.39.037V9.802l-2.445.043-2.616 6.329-1.076.045-.646-1.533-.646-1.534.293-.325c1.05-1.169 5.688-5.99 5.76-5.989.048.001.509.245 1.024.542.515.297.948.528.963.513.099-.099-.235-.388-.86-.745-.982-.56-.95-.53-.804-.755.187-.285.055-.384-.194-.145l-.215.206-.89-.517c-.49-.284-.922-.548-.96-.586-.042-.041.015-.11.14-.166.314-.143.055-.265-.295-.139-.24.087-.298.074-.692-.151-.25-.143-.541-.246-.695-.246-.251 0-.238.015.302.326l.565.327-.292.164c-.16.09-2.129 1.13-4.374 2.31-3.062 1.61-4.082 2.182-4.083 2.286 0 .108.031.124.137.069l4.507-2.36 4.37-2.288.396.21c.218.114.686.377 1.04.583l.645.373-2.941 3.11c-2.058 2.176-2.96 3.08-3 3.005a64.8 64.8 0 0 1-.66-1.532l-.602-1.426H6.279l.03 4.961.03 4.962-.275-.005a2.624 2.624 0 0 1-.6-.107zm-2.812-2.169a1.058 1.058 0 0 1-.45-.304c-.183-.218-.2-.302-.2-.927 0-.586.024-.718.168-.902.158-.2.667-.48.74-.407.018.018.023.611.011 1.318l-.02 1.286zm18.382.034c-.078-.078-.05-2.507.03-2.556.125-.078.592.16.779.398.159.203.173.293.15.946-.024.649-.047.74-.225.918-.197.198-.65.379-.734.294zm-9.216-.494c-.116-.266-.195-.499-.177-.517.018-.018.205-.022.415-.009l.383.024-.412.985zm3.077-.795c0-.01.068-.195.152-.41l.153-.39.003.41c.004.359-.015.41-.152.41-.086 0-.156-.009-.156-.02zM8.72 15.77c0-.418.007-.417.182.033.125.322.124.332-.027.332-.133 0-.155-.053-.155-.365z"/></svg>