<svg version="1.1" viewBox="0 0 24 24" xmlns="http://www.w3.org/2000/svg">
 <style type="text/css">.st0{fill:#FFFFFF;}
	.st1{fill:#8DC742;}</style>
 <path d="m9.6576 20.283c-.3653-.12185-.72571-.24734-.80092-.27886-.1246-.052225-.13674-.21667-.13674-1.8513v-1.794l.20342.02473c.18917.023.24945.14787.86065 1.7828.36148.96697.70918 1.89.77268 2.0511.11268.28598.11125.29295-.05973.29003-.09635-.0017-.47406-.10268-.83936-.22453zm3.6758.16891c.0018-.03223.32797-.93766.72483-2.0121.68696-1.8598.73178-1.9547.9344-1.9782l.21283-.02473v3.5154l-.41023.15327c-.888.33178-1.4687.46935-1.4618.34632zm-7.8699-.83526c-.44841-.14021-.81823-.38087-1.1506-.74875-.23835-.26382-.32815-.31085-.59359-.31085-.20857 0-.36482-.05206-.46904-.15628-.1516-.1516-.15628-.26046-.15628-3.6359 0-3.2457.00919-3.4825.13674-3.5219.34234-.10578.37074-.16003.4297-.82063.33852-3.7927 3.603-6.6608 7.8725-6.9167 1.9718-.1182 4.2752.55421 5.7928 1.691 1.7146 1.2844 2.741 3.0201 2.9783 5.0366.10031.85241.12389.90319.46875 1.0098.12755.03941.13674.27614.13674 3.5219 0 3.3754-.0047 3.4843-.15628 3.6359-.10818.10818-.26046.15628-.49482.15628-.30008 0-.36662.03493-.58562.30745-.30459.37902-1.1189.79551-1.6563.84715l-.38882.03736v-9.9475l-2.4452.043038-2.6164 6.3292-1.0765.0452-.64565-1.5334-.64565-1.5334.29262-.32544c1.0509-1.1687 5.6879-5.9902 5.7596-5.9886.04831.00103.50917.24485 1.0241.54182.51497.29697.94856.52769.96353.51272.098467-.098464-.23561-.38731-.86095-.74438-.98139-.56038-.94991-.53078-.80298-.75503.18712-.28558.055094-.3844-.19432-.14545l-.21476.20575-.89015-.51674c-.48958-.28421-.92187-.54804-.96064-.58629-.04157-.041023.01609-.109.14057-.16572.31416-.14314.05461-.26495-.2951-.13849-.23937.086558-.29802.073701-.69195-.15168-.25025-.14318-.5409-.24612-.69438-.24593-.25193.0003125-.2382.015205.30124.32657l.56522.32624-.29173.16453c-.16045.090493-2.1288 1.1303-4.3742 2.3106-3.0624 1.6099-4.0825 2.1809-4.0827 2.2856-.0002266.10785.030721.12338.13645.06843.075209-.03908 2.1034-1.1009 4.5072-2.3596l4.3704-2.2885.39602.20959c.21781.11528.68605.3778 1.0405.5834l.64451.37381-2.9417 3.1103c-2.0576 2.1755-2.9592 3.0784-2.9999 3.0041-.03199-.05842-.32907-.74794-.66017-1.5323l-.602-1.426h-2.5034l.030132 4.9618.030132 4.9618-.27499-.0053c-.15125-.002868-.42182-.051093-.60129-.1072zm-2.8123-2.1686c-.13611-.035312-.33829-.17214-.4493-.30406-.1835-.21808-.20183-.3022-.20183-.92657 0-.58613.024813-.71826.1694-.90207.15776-.20056.6663-.48071.73958-.40742.01791.01791.0229.61121.01109 1.3184l-.021475 1.2859zm18.382.03395c-.07774-.07774-.04947-2.5073.02975-2.5563.12551-.07756.59194.1611.77859.39839.15946.20273.17376.29293.14986.94548-.02377.64913-.04622.74116-.22405.91888-.19772.19759-.64947.37822-.73415.29353zm-9.2167-.49443c-.11531-.26588-.19489-.49818-.17684-.51623.01804-.01804.20502-.02205.4155-.0089l.38269.02392-.4117.98462zm3.077-.79422c3.5e-5-.01074.06871-.19535.15262-.41023l.15256-.39069.0037.41023c.0032.35935-.01573.41023-.15262.41023-.08595 0-.15625-.0088-.15621-.01954zm-6.173-.42325c0-.41799.0071-.41672.18201.03256.12567.32282.12494.33209-.026362.33209-.1332 0-.15564-.05259-.15564-.36465z" stroke-width=".078139"/>
</svg>
