<svg version="1.1" viewBox="0 0 24 24" xml:space="preserve" xmlns="http://www.w3.org/2000/svg"><path d="m12 2c-5.5228 0-10 4.4772-10 10s4.4772 10 10 10 10-4.4772 10-10-4.4772-10-10-10zm4.2773 5.0391c0.50868-0.00712 0.9582 0.34967 1.0186 0.83887 8.31e-4 0.00616 0.0013 0.012341 2e-3 0.018555 0.0031 0.030681 0.0059 0.062118 0.0059 0.09375v8.3398c0 0.55545-0.53706 0.93164-1.0664 0.93164-0.2278 0-0.45996-0.06916-0.66016-0.22461 0 0-1.7901-1.3748-3.5977-2.7783l-3.6329 2.7783c-0.2002 0.1555-0.43328 0.22461-0.66113 0.22461-0.5293 0-1.0313-0.37624-1.0313-0.93164l9.765e-4 -6.209v-2.0889c0-0.00562 8.743e-4 -0.011014 9.766e-4 -0.016602 0-0.026528 0.00166-0.052435 0.00391-0.078125 6.555e-4 -0.00621 0.00117-0.012395 0.00195-0.018554 0.079551-0.73099 1.0499-1.1051 1.6885-0.61035l3.6289 2.7705 0.03027-0.02344c0.06942-0.0536 0.13119-0.10182 0.20801-0.16113l3.3115-2.5576c0.23772-0.20406 0.49949-0.29437 0.74805-0.29785z"/></svg>
