<svg viewBox="0 0 24 24" xmlns="http://www.w3.org/2000/svg"><path d="M12.241 21.995c-.35.007-.745.006-.879-.003a8.286 8.286 0 0 1-.636-.08 19.613 19.613 0 0 0-.624-.093 2 2 0 0 1-.38-.085c-.08-.03-.148-.044-.148-.029s-.075-.002-.166-.039a3.75 3.75 0 0 0-.349-.114c-.1-.027-.36-.116-.58-.198a12.745 12.745 0 0 1-.817-.349 9.25 9.25 0 0 1-.832-.462c-.226-.144-.428-.262-.45-.262-.02 0-.244-.168-.497-.373a16.453 16.453 0 0 1-.874-.773c-.227-.22-.554-.577-.725-.793s-.328-.408-.346-.425a10.964 10.964 0 0 1-.4-.606 9.69 9.69 0 0 1-.463-.787l-.31-.682c-.118-.259-.201-.47-.185-.47.015 0-.014-.082-.066-.182-.052-.1-.08-.182-.063-.182.018 0-.006-.102-.052-.227a4.728 4.728 0 0 1-.152-.56 39.426 39.426 0 0 1-.149-.796c-.053-.297-.077-.836-.067-1.515.009-.66.052-1.256.115-1.596.055-.298.17-.782.254-1.076.084-.294.222-.704.306-.912.085-.208.274-.62.422-.914.147-.295.375-.694.506-.886s.398-.552.594-.797c.196-.246.56-.647.81-.891s.723-.645 1.05-.89c.328-.246.912-.61 1.299-.81.386-.198.978-.457 1.314-.573s.875-.27 1.198-.34c.322-.069.926-.155 1.343-.19a8.35 8.35 0 0 1 1.514 0c.416.035 1.02.121 1.343.19.322.07.86.224 1.197.34.336.118.878.347 1.204.51.326.163.795.432 1.041.598s.607.435.801.597c.194.163.563.511.82.775.257.263.553.588.658.721.106.134.325.439.488.679.163.24.417.678.566.974.148.296.33.686.402.867.073.18.172.451.22.601.048.15.124.41.169.576.044.167.127.535.184.818.068.338.109.885.12 1.587.01.716-.011 1.23-.068 1.546-.046.26-.114.623-.151.807a4.592 4.592 0 0 1-.122.484c-.03.084-.067.206-.081.273a6.088 6.088 0 0 1-.174.515c-.081.217-.238.585-.348.818-.11.234-.365.684-.566 1-.201.317-.548.794-.77 1.061a12.14 12.14 0 0 1-.76.823c-.195.187-.562.507-.815.713-.252.205-.481.373-.507.373-.027 0-.174.09-.328.2-.154.11-.526.318-.826.462s-.723.33-.94.412c-.216.081-.475.17-.575.197a3.75 3.75 0 0 0-.348.114c-.092.037-.167.054-.167.04 0-.016-.067-.003-.149.028-.081.031-.252.07-.378.085-.127.015-.408.058-.625.095a8.82 8.82 0 0 1-1.03.081zm-.303-1.356c.565.003 1.157-.03 1.485-.084.3-.05.79-.16 1.09-.247a9.274 9.274 0 0 0 2.223-1.03c.244-.157.656-.462.915-.678s.647-.594.862-.84c.214-.246.524-.645.687-.888.164-.242.414-.672.556-.955.143-.283.325-.69.406-.906.081-.215.214-.665.294-1 .08-.335.174-.93.208-1.32.04-.465.042-.94.005-1.364a12.04 12.04 0 0 0-.154-1.123 10.614 10.614 0 0 0-.25-.939c-.084-.258-.302-.77-.485-1.14-.183-.37-.547-.957-.809-1.306a9.606 9.606 0 0 0-.89-1.02c-.226-.213-.645-.56-.93-.772-.284-.211-.843-.546-1.243-.744s-.937-.428-1.192-.512a13.291 13.291 0 0 0-1.09-.287c-.512-.11-.829-.135-1.718-.138-.825-.003-1.217.022-1.606.104-.284.06-.734.177-1 .262s-.73.274-1.03.419c-.3.145-.756.404-1.012.575-.256.171-.679.496-.94.722-.26.226-.668.64-.905.92s-.573.726-.745.992c-.173.265-.41.684-.527.93-.117.247-.292.69-.388.986s-.224.777-.283 1.07c-.08.392-.108.824-.109 1.652 0 .85.026 1.246.108 1.637.06.283.167.706.237.939a10.58 10.58 0 0 0 1.123 2.323c.192.286.593.776.892 1.088.298.313.77.74 1.048.948.279.21.714.499.967.644.254.145.709.363 1.012.485.304.122.743.27.976.329.233.059.615.142.848.185.234.043.847.08 1.364.083zm1.515-1.244c-.117.02-.244.015-.284-.01a.496.496 0 0 1-.132-.203c-.033-.086-.131-.604-.219-1.15l-.254-1.59c-.07-.431-.078-.633-.032-.734.05-.109.156-.16.491-.236.236-.053.558-.165.717-.25.158-.084.317-.153.354-.153.036 0 .122.061.192.136.07.075.444.815.831 1.643.474 1.014.691 1.546.666 1.625-.023.073-.208.197-.478.32-.242.11-.71.283-1.04.383-.33.1-.695.2-.812.219zm-3.568-4.63a.348.348 0 0 1-.12-.053c-.045-.028-.072-.103-.06-.165.012-.063.08-.123.15-.133.077-.01.144.023.167.084a.205.205 0 0 1-.03.185c-.038.046-.086.083-.107.082zm3.079-.072c-.114.013-.173-.019-.217-.116-.056-.127-.098-.135-.722-.14-.615-.005-.69-.02-1.054-.197-.385-.189-.392-.19-.534-.078-.079.062-.182.097-.23.079a.143.143 0 0 1-.087-.122c0-.048.029-.142.064-.208.052-.098.026-.171-.141-.405a3.824 3.824 0 0 1-.307-.508 2.85 2.85 0 0 1-.162-.539 3.507 3.507 0 0 1-.06-.513c0-.167-.03-.209-.187-.263-.13-.045-.18-.098-.166-.173.014-.076.087-.113.247-.126.125-.01.227-.052.228-.091 0-.04.065-.213.145-.384.08-.171.25-.428.378-.57a3.01 3.01 0 0 1 .506-.434c.243-.155.273-.2.273-.398 0-.164.028-.228.106-.244.07-.014.127.035.167.141.062.162.063.162.53.122.285-.025.59-.014.773.027.166.038.447.139.623.225l.32.156.146-.136c.079-.074.173-.117.21-.095.035.022.064.101.064.176 0 .074-.03.167-.068.204-.052.052-.014.145.149.366.12.164.276.431.346.595.07.164.144.483.163.71.033.398.041.415.237.497.112.046.204.111.204.144 0 .033-.045.104-.1.159a.252.252 0 0 1-.23.067c-.112-.028-.153.02-.298.353-.092.212-.267.501-.389.644s-.345.337-.496.433c-.246.156-.275.199-.275.4 0 .196-.02.226-.156.242zm-.875-.86a1.86 1.86 0 0 0 .725-.162c.165-.078.4-.241.52-.362.12-.12.285-.353.366-.517.12-.246.147-.39.146-.814 0-.44-.024-.56-.161-.818a2.514 2.514 0 0 0-.393-.527 2.264 2.264 0 0 0-.536-.361c-.23-.104-.411-.136-.757-.134-.35.003-.525.037-.758.148-.167.079-.413.254-.547.388s-.309.38-.388.547c-.11.232-.145.408-.147.757-.002.336.03.528.123.735.07.154.23.395.357.535.127.14.341.31.477.38.135.07.314.148.398.176.083.027.342.04.575.03zm.03-.74a1.02 1.02 0 0 1-.445-.05 1.457 1.457 0 0 1-.417-.257 1.33 1.33 0 0 1-.266-.366 1.346 1.346 0 0 1-.083-.442c0-.136.054-.353.12-.484s.218-.31.336-.4a.983.983 0 0 1 .509-.193c.161-.015.39.004.508.043.119.04.311.177.428.307.118.13.243.346.28.481a.876.876 0 0 1-.003.504 1.54 1.54 0 0 1-.21.446c-.08.103-.234.23-.344.283-.11.052-.296.11-.412.129zm3.228-.398c-.084.011-.152-.02-.175-.08-.021-.055-.01-.128.024-.162s.113-.052.175-.04a.144.144 0 0 1 .112.142c0 .079-.047.127-.136.14zm-8.617-.183a76.443 76.443 0 0 1-1.806-.035c-.31-.016-.391-.043-.446-.145-.044-.083-.053-.313-.025-.679.022-.304.082-.799.132-1.099.05-.3.13-.638.177-.75.085-.203.09-.205.373-.166.159.021.56.123.894.226l1.47.458c.575.181.891.312.948.392.072.104.071.166-.002.435a3.489 3.489 0 0 0-.09.738c-.002.3-.031.456-.1.532-.088.099-.22.107-1.525.093zm8.107-2.958c-.065 0-.26-.133-.433-.297a4.181 4.181 0 0 0-.618-.473c-.202-.118-.31-.224-.323-.317-.014-.096.262-.607.875-1.621.493-.815.947-1.51 1.01-1.543.09-.048.2-.01.526.185.227.134.587.387.8.56.211.173.501.425.643.56.141.134.257.3.257.369 0 .077-.213.335-.56.677-.309.303-.898.855-1.31 1.226-.416.375-.8.674-.867.674zm-3.982-.546a.348.348 0 0 1-.12-.053c-.045-.029-.072-.103-.06-.166.012-.063.083-.122.158-.133.082-.012.15.019.173.076a.21.21 0 0 1-.038.186c-.042.05-.092.09-.113.09z"/></svg>