<?xml version="1.0" encoding="UTF-8"?>
<svg version="1.1" viewBox="0 0 24 24" xmlns="http://www.w3.org/2000/svg">
 <style type="text/css">.st0{fill:#FFFFFF;}
	.st1{fill:#8DC742;}</style>
 <path d="m12 2c-2.7582 0-5.1173 0.97416-7.0781 2.9219-1.9477 1.9608-2.9219 4.32-2.9219 7.0781 0 2.7582 0.97416 5.1109 2.9219 7.0586 1.9608 1.9608 4.32 2.9414 7.0781 2.9414 2.7582 0 5.1109-0.98062 7.0586-2.9414 1.9608-1.9477 2.9414-4.3004 2.9414-7.0586 0-2.7582-0.98062-5.1173-2.9414-7.0781-1.9477-1.9477-4.3004-2.9219-7.0586-2.9219zm0.074219 2.5078 1.127 0.082031c0.3754 0.052261 0.72577 0.13036 1.0508 0.23242 0.35006 0.10221 0.68699 0.22871 1.0117 0.38086 0.32472 0.15215 0.6363 0.34121 0.93555 0.56836l-1.0566 1.084c-0.22454-0.15158-0.46301-0.27923-0.71289-0.38086l-0.75-0.26562c-0.25002-0.076583-0.51175-0.12961-0.78711-0.15625l-0.82617-0.041016c-0.82651-0.0047734-1.604 0.14115-2.332 0.4375-0.72806 0.29635-1.3696 0.7178-1.9238 1.2656-0.52914 0.54797-0.95732 1.1838-1.2871 1.9082-0.32979 0.72444-0.49899 1.5117-0.50391 2.3633-0.0047733 0.82651 0.15516 1.6038 0.47656 2.332s0.74285 1.3698 1.2656 1.9238c0.54797 0.52914 1.1838 0.95927 1.9082 1.2891 0.72444 0.32979 1.4997 0.49718 2.3262 0.50195l0.82812-0.070312c0.27565-0.023454 0.53817-0.072793 0.78906-0.14648l0.75391-0.29492 0.71484-0.33398 1.0449 1.0938c-0.3017 0.19863-0.61494 0.37309-0.94141 0.52148l-1.0176 0.4082c-0.32617 0.098302-0.67676 0.17083-1.0527 0.21875-0.37612 0.072966-0.75127 0.10764-1.127 0.10547-1.0269-0.005933-1.9893-0.21125-2.8887-0.61719-0.92437-0.40608-1.7242-0.94877-2.3965-1.6289-0.67233-0.68014-1.2062-1.4851-1.6016-2.4141-0.39552-0.90396-0.58991-1.8696-0.58398-2.8965 0.0060752-1.0519 0.21306-2.0405 0.61914-2.9648 0.40594-0.89933 0.94877-1.6851 1.6289-2.3574s1.4851-1.2062 2.4141-1.6016c0.90381-0.37048 1.8677-0.55281 2.8945-0.54688zm5.3223 2.2109c0.34861 0.35266 0.66041 0.72854 0.93359 1.1309 0.27304 0.42737 0.49525 0.86848 0.66797 1.3203 0.19776 0.45198 0.34592 0.91613 0.44336 1.3926 0.072244 0.50135 0.10641 1.001 0.10352 1.502-0.002733 0.47587-0.043049 0.96436-0.12109 1.4648-0.10293 0.47529-0.25602 0.93901-0.45898 1.3887-0.17792 0.44981-0.40578 0.8743-0.68359 1.2734-0.27782 0.39914-0.5925 0.78454-0.94531 1.1582l-1.084-1.0586c0.30228-0.29881 0.55557-0.60916 0.75781-0.93359 0.22729-0.32429 0.41606-0.66195 0.56836-1.0117 0.15244-0.37482 0.2684-0.74975 0.3457-1.125 0.077451-0.4003 0.11697-0.78838 0.11914-1.1641 0.002466-0.42578-0.020433-0.82715-0.06836-1.2031-0.072825-0.40116-0.18378-0.7774-0.33203-1.1289-0.1481-0.37655-0.33311-0.72779-0.55664-1.0547-0.22353-0.3269-0.48606-0.61695-0.78516-0.86914l1.0957-1.082zm-6.6484 2.2324c0.10587 1e-7 0.20439 0.027194 0.29883 0.082031l4.2363 2.4492c0.12186 0.073117 0.20712 0.1765 0.25586 0.31055 0.052808 0.13811 0.052808 0.27595 0 0.41406-0.048746 0.13811-0.13775 0.24329-0.26367 0.31641l-4.2344 2.4434c-0.12592 0.073117-0.26017 0.098589-0.40234 0.074219-0.14623-0.024374-0.26595-0.091498-0.35938-0.20117-0.093427-0.11374-0.13867-0.24439-0.13867-0.39062l0.005859-4.8984c0-0.14217 0.045245-0.27103 0.13867-0.38477 0.093427-0.10968 0.21134-0.1786 0.35352-0.20703 0.036558-0.006093 0.074086-0.0078126 0.10938-0.0078125z" stroke-width=".19608"/>
</svg>
