<svg viewBox="0 0 24 24" xmlns="http://www.w3.org/2000/svg"><path d="M2.73 11.096c.206-.145.383-.262.679-.262.4 0 1.01.277 1.01 1.088 0 .923-.513 1.197-1.07 1.197-.23 0-.418-.082-.62-.203v1.877H2v-3.912h.73zm0 1.339c.112.136.255.258.472.258.439 0 .502-.43.502-.693 0-.243-.083-.65-.487-.65-.212 0-.36.118-.488.239zm1.879-.458c0-.584.404-1.143 1.212-1.143s1.212.56 1.212 1.143c0 .579-.409 1.142-1.212 1.142-.803 0-1.212-.563-1.212-1.142m1.675 0c0-.274-.07-.717-.463-.717s-.463.443-.463.717.069.716.463.716.463-.442.463-.716m2.707.911c-.222.157-.394.231-.7.231-.556 0-1.068-.274-1.068-1.197 0-.81.61-1.088 1.01-1.088.295 0 .472.117.68.262V9.03h.729v4.044h-.587zm-.566-1.596c-.404 0-.488.407-.488.65 0 .262.064.684.502.684.217 0 .36-.113.473-.25v-.845c-.128-.122-.275-.24-.487-.24m3.197.224c-.093-.2-.24-.415-.546-.407-.592 0-.705.516-.705.884s.113.885.705.885c.33-.012.517-.223.635-.435l.31.11a1.042 1.042 0 0 1-.945.583c-.606 0-1.09-.332-1.09-1.142s.484-1.143 1.09-1.143c.448 0 .724.223.871.548zm2.198 1.558-.04-.274c-.221.172-.468.336-.788.336-.419 0-.754-.278-.754-.618 0-.619.818-.752 1.42-.88l.123-.028v-.122c0-.246-.213-.38-.518-.38-.3 0-.507.157-.665.341l-.27-.16c.226-.258.521-.439.935-.439.37 0 .902.18.902.674v1.072c.005.16-.005.325.074.478zm-.193-1.179c-.364.087-1.03.204-1.03.592 0 .18.178.36.41.36.305 0 .586-.169.773-.353v-.633zm2.414-.5a.75.75 0 0 0-.62-.286c-.252 0-.488.102-.488.32 0 .53 1.433.299 1.433 1.026 0 .423-.38.681-.892.681-.438 0-.793-.152-1.014-.453l.305-.153c.148.223.384.348.71.348.28 0 .531-.12.531-.368 0-.543-1.433-.285-1.433-1.06 0-.372.384-.6.832-.6.38 0 .695.126.907.377zm1.242-.482h.616v.259h-.616v1.358c0 .211-.005.348.31.348.11 0 .213-.008.306-.027v.223a1.397 1.397 0 0 1-.384.062c-.65 0-.616-.348-.616-.744v-1.22h-.414v-.259h.414v-.7h.384zm.809 1.826h.374v.344h-.374zm1.796-1.854h.29v2.198h-.29v-.186a.712.712 0 0 1-.523.233c-.278 0-.75-.203-.75-.828 0-.64.409-.893.76-.893.197 0 .379.104.512.216v-.74zm0 .988a.56.56 0 0 0-.479-.262c-.404 0-.489.441-.489.686 0 .477.286.633.486.633.204 0 .4-.165.482-.303zm.859.435c0 .466.248.628.544.628.216 0 .397-.139.501-.28l.208.109c-.111.209-.386.365-.738.365-.456 0-.82-.25-.82-.86s.364-.86.82-.86c.59 0 .76.5.72.898zm.93-.194c.008-.21-.133-.51-.437-.51-.326 0-.482.28-.486.51zM2.931 14.926l.576-.455c.222.323 2.83 2.06 4.901-.57l.665.3c-1.92 2.783-5.12 1.874-6.142.725"/><path d="m4.069 14.047.422-.333c.185.212 1.659.932 2.775-.327l.495.22c-1.07 1.405-2.93 1.157-3.692.44m3.169-4.154-.429.345c-.093-.103-1.44-.884-2.644.339l-.495-.229a2.6 2.6 0 0 1 3.568-.455"/><path d="m8.362 8.989-.577.461c-1.817-1.413-3.82-.642-4.753.598l-.67-.3c.896-1.424 3.607-2.789 6-.76"/></svg>