<svg viewBox="0 0 24 24" xmlns="http://www.w3.org/2000/svg"><path d="M12 2c-1.371.884-2.265 1.848-2.85 2.742-1.127-.326-2.553-.408-4.22.188-.345 1.593-.297 2.906-.078 3.95C3.824 9.449 2.758 10.4 2 12c.884 1.371 1.848 2.265 2.742 2.85-.326 1.127-.408 2.553.188 4.22 1.593.345 2.905.297 3.95.078C9.449 20.176 10.4 21.242 12 22c1.371-.884 2.265-1.848 2.85-2.742 1.127.326 2.553.408 4.22-.188.345-1.593.297-2.905.078-3.95C20.176 14.551 21.242 13.6 22 12c-.884-1.371-1.848-2.265-2.742-2.85.326-1.127.408-2.553-.188-4.22-1.593-.345-2.905-.297-3.95-.078C14.551 3.824 13.6 2.758 12 2zm-.018 3.563a2.25 2.25 0 0 1 2.25 2.25v1.912H9.734V7.813a2.25 2.25 0 0 1 2.248-2.25zm-2.248 4.892h4.498v1.912a2.25 2.25 0 1 1-4.498 0v-1.912zm-1.267.393c.2 0 .361.16.361.36v1.189a3.158 3.158 0 0 0 3.152 3.158h.01a3.16 3.16 0 0 0 3.155-3.158v-1.19a.36.36 0 0 1 .72 0v1.19a3.879 3.879 0 0 1-3.517 3.863l-.004 2.053a.361.361 0 1 1-.723 0l.002-2.053a3.88 3.88 0 0 1-3.518-3.863v-1.19c0-.2.162-.36.362-.36z" fill-rule="evenodd" opacity=".861" style="mix-blend-mode:screen"/></svg>