<svg viewBox="0 0 24 24" xmlns="http://www.w3.org/2000/svg"><path d="M4.435 20.756c-.047 0-.085-.01-.085-.024 0-.013-.072-.48-.16-1.036a8383.528 8383.528 0 0 0-.864-5.472l-.368-2.334c-.099-.62-.229-1.447-.288-1.836a75.07 75.07 0 0 0-.185-1.155 140.086 140.086 0 0 1-.45-2.878c-.028-.213-.042-.396-.031-.406.01-.011.3-.066.644-.122l1.308-.21c.375-.058 1.213-.19 1.862-.29a264.436 264.436 0 0 0 2.613-.421c.269-.044.73-.116 1.023-.16.295-.043.83-.126 1.191-.183.36-.058.821-.129 1.023-.157.202-.029.721-.112 1.154-.185a76.808 76.808 0 0 1 1.285-.208 197.846 197.846 0 0 0 2.218-.343c.398-.064.736-.104.752-.088.016.016.061.179.1.361.04.183.085.416.101.517.03.173.065.2.62.486.325.167.779.444 1.01.617.23.172.625.517.876.768s.59.64.753.865c.162.225.395.585.517.8a7.992 7.992 0 0 1 .705 1.762c.057.217.135.594.174.84a8.466 8.466 0 0 1-.03 2.36 9.397 9.397 0 0 1-.272 1.091 8.76 8.76 0 0 1-.419 1.02c-.133.265-.325.612-.427.772-.102.16-.293.421-.425.58-.131.159-.403.46-.604.67l-.365.383.033.405c.017.222.047.5.065.618l.033.214-.91.147c-.501.08-1.123.194-1.383.25s-.78.16-1.154.228c-.375.068-.907.149-1.18.179-.275.03-.64.067-.814.082-.173.015-.468.051-.656.08s-.624.098-.97.154l-1.154.183-1.155.183c-.346.056-.936.15-1.311.208l-1.653.26-1.816.29a19.72 19.72 0 0 1-.931.135zm1.054-1.155a.257.257 0 0 0 .102-.04c.045-.029.042-.065-.013-.14-.055-.076-.09-.087-.134-.043a.144.144 0 0 0-.028.142c.018.045.05.081.073.081zm.696-.104c.025 0 .083-.037.128-.083.046-.045.083-.057.083-.026s.03.05.065.043a.198.198 0 0 0 .104-.065c.022-.03.04-.006.041.052.002.09.012.094.067.026a.298.298 0 0 1 .169-.092 7.23 7.23 0 0 1 .275-.026c.121-.01.17-.039.17-.103 0-.074-.031-.085-.17-.058a.94.94 0 0 0-.19.049c-.012.01-.062-.005-.113-.033-.066-.035-.101-.029-.12.021-.019.048-.112.068-.293.062-.183-.006-.273.014-.293.065-.015.04-.014.094.002.12.016.026.05.048.075.048zm1.325-.23c.093-.015.177-.051.187-.08.01-.033.069-.021.145.028.11.073.13.074.156.006.019-.05.087-.073.184-.065.12.01.155-.009.155-.082 0-.053-.024-.11-.053-.128-.029-.018-.052-.013-.052.01s-.053.045-.118.048c-.065.004-.225.022-.354.042s-.244.057-.253.083c-.01.026-.05.034-.092.018-.047-.018-.075.004-.075.059 0 .069.035.082.17.06zm-1.285-.264.284-.024c.06-.005.078-.04.06-.111-.022-.08-.057-.097-.152-.073a1.666 1.666 0 0 1-.257.038c-.086.005-.132.039-.132.098 0 .071.04.086.197.072zm.494-.03c.024 0 .044-.04.044-.09 0-.07.014-.075.063-.026.034.034.082.063.105.063.023 0 .042-.036.042-.079 0-.055-.056-.079-.184-.079-.118 0-.184.025-.184.07 0 .039.016.086.035.105a.13.13 0 0 0 .08.035zm.434-.106c.07 0 .14-.019.154-.042.014-.023.01-.069-.012-.102-.02-.034-.09-.048-.154-.031s-.116.063-.116.103c0 .042.054.072.128.072zM5.37 18.71c.041 0 .09-.024.108-.053.018-.029-.004-.067-.05-.084-.044-.017-.068-.053-.052-.078.016-.026.004-.047-.027-.047-.03 0-.055.059-.055.13 0 .08.03.132.076.132zm.86-.094c.024-.037.112-.08.196-.098.084-.016.212-.037.284-.045.073-.008.196-.017.276-.02.087-.003.144-.035.144-.08 0-.04.03-.088.066-.105s-.041-.02-.17-.005a6.198 6.198 0 0 0-.748.13c-.114.025-.197.024-.197-.004 0-.025-.024-.046-.053-.046s-.052.061-.052.137c0 .111.02.132.105.11.06-.016.105-.002.106.033 0 .04.015.038.043-.007zm1.243-.238c.046 0 .07-.03.055-.07-.015-.039.005-.07.045-.07s.082.028.094.062.047.045.08.024.048-.07.032-.11c-.018-.047-.103-.073-.234-.072-.158.003-.205.024-.205.093 0 .05.012.102.026.116.015.015.063.027.107.027zm5.782-.009c.08-.02.239-.047.354-.06s.24-.032.275-.045c.035-.012.05-.06.033-.104a.098.098 0 0 0-.117-.058c-.047.014-.18.04-.296.06s-.25.034-.301.033c-.059-.002-.092.036-.092.104 0 .091.022.102.144.07zm-5.312-.079c.044 0 .079-.035.079-.078s-.035-.08-.079-.08-.078.036-.078.08.035.078.078.078zm.224-.026c.021-.029.121-.058.222-.065l.276-.016c.055-.002.091-.046.091-.109 0-.058-.019-.093-.042-.078s-.165.031-.315.038c-.254.012-.272.022-.271.148 0 .074.018.11.04.082zm-2.85-.026c.122 0 .129-.01.07-.105-.036-.058-.09-.097-.119-.088-.029.01-.06.057-.07.105-.012.064.02.088.119.088zm8.817-.012c.086-.007.131-.043.131-.104 0-.067-.037-.09-.131-.082-.087.007-.131.043-.131.104 0 .067.036.09.13.082zm.43-.064a.494.494 0 0 1 .147-.03c.04 0 .082-.04.095-.09.018-.07.025-.064.03.025.003.065.03.118.059.118.028 0 .054-.053.056-.118.002-.065.016-.088.03-.052s.06.065.102.065c.04 0 .074-.01.074-.022a.474.474 0 0 0-.03-.097c-.022-.06-.078-.067-.272-.03-.134.025-.286.032-.338.015-.052-.016-.095-.007-.095.022a.5.5 0 0 0 .033.137c.019.049.067.074.11.057zm-8.553-.03c.038 0 .07-.029.07-.065.001-.047.014-.045.047.007.025.04.072.056.105.036a.78.78 0 0 1 .268-.04c.17-.001.21-.021.21-.101 0-.089-.03-.096-.276-.066a1.771 1.771 0 0 0-.315.055c-.021.013-.041-.007-.044-.045-.003-.038-.024-.01-.048.062-.028.088-.043.101-.047.04-.003-.05-.029-.092-.058-.092s-.052.031-.052.07.016.086.035.105c.02.02.066.035.105.035zm2.985-.023c.074-.003.156-.041.183-.083.033-.053.048-.056.049-.011 0 .036.06.065.132.065.092 0 .131-.028.131-.096 0-.053-.016-.112-.035-.13-.019-.02-.066-.009-.104.023-.039.032-.13.047-.202.033-.095-.018-.132-.002-.135.06-.003.054-.014.06-.031.019a.116.116 0 0 0-.1-.066c-.042 0-.075.031-.075.07s.012.082.027.097.087.023.16.02zm3.438-.134c.023-.083.039-.097.042-.039.003.05.029.092.058.092s.052-.022.052-.048-.013-.082-.029-.124c-.018-.047-.076-.066-.157-.05-.07.013-.129.035-.129.048 0 .013.029.075.063.138l.062.115zm-5.45.02c.03-.02.1-.037.154-.04.054-.003.098-.023.098-.045v-.085c0-.025-.096-.04-.212-.034-.116.007-.224.025-.239.04-.015.015.011.066.058.112.047.047.11.07.141.052zm2.667.033c.028 0 .052-.03.054-.066.003-.052.01-.052.03 0 .015.037.049.053.075.037.027-.016.048-.076.048-.132 0-.056-.023-.101-.052-.101s-.053.022-.053.05c0 .028-.033.039-.073.023s-.09-.003-.108.028a.11.11 0 0 0-.002.108c.017.03.054.053.081.053zm5.676 0c.057 0 .091-.028.079-.066-.012-.036-.057-.072-.1-.08-.044-.009-.08.02-.08.065s.046.08.101.08zm.243-.022a1.61 1.61 0 0 1 .328-.062c.155-.018.299-.043.319-.055.02-.012.025-.054.01-.094-.016-.04-.07-.082-.12-.096a.253.253 0 0 0-.185.044c-.057.041-.164.055-.28.037-.163-.027-.183-.019-.153.06.02.05.035.115.035.143 0 .028.02.038.046.023zm-5.557-.08c.02-.03.06-.032.109-.001.042.027.095.05.116.05.022 0 .04-.038.04-.085 0-.066.016-.072.072-.025.04.033.11.045.157.027s.086-.06.086-.093c0-.04.013-.042.04-.004.02.03.091.055.156.054.088 0 .118-.032.118-.12 0-.067-.022-.12-.05-.12s-.073.04-.103.091c-.03.05-.054.066-.055.035 0-.031-.037-.057-.08-.057-.043 0-.079.033-.079.074 0 .057-.02.053-.09-.016-.057-.058-.096-.068-.109-.03-.01.033-.051.06-.09.06s-.081.03-.096.065c-.014.036-.029.019-.031-.04-.004-.087-.014-.091-.057-.025-.046.07-.057.07-.103 0-.043-.065-.052-.06-.053.03 0 .06.016.126.035.145.02.02.05.013.067-.014zm-2.603-.003a.172.172 0 0 0 .105-.036c.02-.02.124-.037.232-.039.162-.003.2-.024.213-.122.01-.065-.007-.118-.036-.118a.102.102 0 0 0-.079.041c-.014.023-.133.038-.265.033-.22-.008-.24.001-.24.116 0 .07.031.125.07.125zm5.661-.015a.082.082 0 0 0 .05-.095c-.013-.052.007-.049.078.013.065.056.159.075.292.058.108-.014.197-.049.197-.077 0-.03.056-.039.127-.02.08.02.157.002.206-.047.046-.047.086-.056.096-.024.012.034.102.041.24.02.161-.026.223-.061.223-.126 0-.049-.036-.09-.079-.09s-.079.015-.079.033-.1.029-.223.026a.787.787 0 0 0-.388.091c-.113.067-.172.079-.186.038-.013-.04-.079-.048-.189-.023-.095.02-.154.06-.136.09.019.03-.024.016-.095-.03s-.145-.069-.164-.05c-.02.02-.035.08-.035.136 0 .058.027.09.065.077zm-4.855-.12c.075-.008.156-.046.18-.084a.292.292 0 0 0 .045-.105c0-.02-.07-.016-.157.01-.108.03-.157.026-.157-.015 0-.04-.017-.042-.054-.005-.03.03-.04.09-.024.134.02.05.083.074.167.065zm.466-.043c.07-.032.127-.093.128-.137.002-.061.014-.058.056.014.03.052.08.077.112.058.032-.02.13-.045.22-.057s.203-.02.254-.02c.05 0 .093-.041.095-.09.003-.054.015-.063.031-.023.015.036.06.066.1.066.042 0 .075-.025.075-.056s.026-.04.059-.02c.032.02.078.004.104-.036.033-.052.046-.054.046-.006 0 .036.035.065.076.065.041 0 .086-.041.099-.091.018-.07.025-.063.03.026.003.065.03.118.058.118.03 0 .053-.06.053-.131 0-.109-.025-.131-.144-.13a.508.508 0 0 0-.222.049.117.117 0 0 1-.144-.008c-.048-.04-.067-.038-.067.003 0 .033-.018.057-.04.053a.777.777 0 0 0-.127 0 .325.325 0 0 0-.17.089c-.048.047-.083.057-.083.023 0-.033-.024-.045-.052-.027s-.053.007-.053-.024c0-.037-.03-.039-.092-.005-.05.027-.2.064-.333.08-.218.029-.24.044-.218.154.02.108.037.115.15.063zm-2.755-.032c.027 0 .05-.03.05-.065 0-.041.015-.046.04-.014.02.03.078.053.128.052.05 0 .137-.04.194-.088.056-.048.11-.066.119-.04.01.03.146.027.344-.008.218-.038.328-.082.328-.131 0-.04-.035-.073-.079-.073s-.079.03-.08.066c0 .05-.01.05-.043-.002-.03-.05-.079-.054-.173-.019a2.734 2.734 0 0 1-.494.085c-.2.019-.384.054-.409.079a.084.084 0 0 0-.01.101c.02.032.057.057.085.057zm8.944-.052c.042 0 .076-.025.076-.056s-.024-.04-.053-.023c-.028.018-.052.007-.052-.023s.025-.056.056-.056.04-.026.02-.057c-.025-.04-.06-.033-.115.021-.043.043-.062.105-.043.136.02.032.07.058.111.058zm-2.571-.053c.01 0 .077-.023.15-.05.09-.034.124-.078.103-.132-.017-.044-.063-.08-.104-.08-.04 0-.074.041-.076.092-.004.08-.01.079-.044-.01-.025-.063-.053-.08-.075-.044-.02.032-.021.095-.003.14.017.047.04.084.049.084zm2.827 0a.86.86 0 0 0 .259-.05c.093-.035.138-.031.154.014.012.034.035.05.05.036a.315.315 0 0 0 .047-.13c.014-.079-.009-.104-.087-.098a2.487 2.487 0 0 0-.236.036 1.736 1.736 0 0 1-.223.031c-.05.002-.092.04-.092.083 0 .048.05.078.128.078zm.752-.078c.05-.02.18-.05.288-.065.147-.02.196-.053.196-.126 0-.083-.028-.093-.196-.067-.109.017-.238.03-.288.03-.05-.001-.105.021-.123.05-.017.028-.017.088 0 .133.02.053.063.069.123.045zm-2.782-.046a4.43 4.43 0 0 1 .302-.067 1.3 1.3 0 0 1 .307-.025c.068.01.09-.013.078-.081-.014-.072-.064-.095-.202-.092a.794.794 0 0 0-.293.063c-.082.044-.125.044-.17-.001-.045-.046-.076-.046-.12-.001-.033.032-.045.098-.027.145.02.051.07.075.125.059zm3.434-.118c.028-.018.209-.043.4-.057l.416-.03c.036-.001.066-.018.066-.037a.414.414 0 0 0-.079-.135c-.078-.101-.08-.101-.157 0-.044.056-.08.075-.08.042 0-.04-.094-.054-.287-.04-.159.011-.31.034-.336.05-.027.016-.036.077-.02.134.014.057.05.09.077.073zm.2-.073c-.03 0-.053-.025-.053-.055s.024-.041.053-.023c.029.018.052.043.052.055s-.023.023-.052.023zm-11.535.053c.087 0 .098-.015.053-.07-.033-.04-.043-.086-.024-.105.019-.02-.005-.035-.053-.035-.053 0-.088.042-.088.105 0 .072.035.105.112.105zm8.852-.021a.84.84 0 0 0 .152-.034.545.545 0 0 1 .13-.019c.066-.005.137.016.158.046.026.035.058.027.092-.025a.243.243 0 0 0 .036-.157.076.076 0 0 0-.092-.06c-.041.01-.155.028-.253.04a.9.9 0 0 0-.218.048c-.023.014-.052-.004-.065-.04-.018-.048-.041-.05-.085-.01-.034.031-.046.097-.027.145.024.062.076.082.172.066zm-8.234-.078c.025-.04.068-.058.095-.041.028.017.207.004.4-.027.192-.032.35-.076.35-.098 0-.023.034-.035.076-.03a.236.236 0 0 1 .113.047c.019.02.06.02.09 0a.581.581 0 0 1 .19-.048c.072-.008.141-.042.152-.075.014-.042.034-.039.066.01.036.058.045.055.046-.014 0-.047-.037-.1-.083-.118-.046-.018-.105-.019-.13-.003a.73.73 0 0 1-.166.057 6.092 6.092 0 0 1-.446.065c-.192.023-.333.018-.343-.01-.009-.028-.05-.016-.093.026-.047.047-.144.069-.254.056-.147-.017-.172-.006-.144.066a.537.537 0 0 1 .034.148c0 .04.018.035.047-.01zm6.495-.143c.048-.066.05-.11.008-.16-.031-.038-.078-.056-.104-.04-.025.016-.046.07-.046.122 0 .05.017.11.038.13.02.021.067-.002.104-.052zm.723-.06c.076-.014.132-.061.132-.11.001-.075.008-.076.052-.008.043.067.051.066.052-.013 0-.073-.044-.092-.215-.092-.175 0-.21.016-.184.083a.477.477 0 0 1 .032.124c0 .023.06.03.131.016zm-5.47-.109c.028-.027.042-.087.032-.133-.011-.053-.042-.068-.085-.04-.039.023-.052.08-.032.133.022.058.053.073.085.04zm.264.014c.093-.02.205-.042.249-.047l.355-.052c.152-.023.29-.065.308-.093.017-.027.01-.071-.017-.097-.028-.028-.116-.028-.217.001-.105.03-.157.03-.139 0 .017-.027.006-.05-.025-.05a.056.056 0 0 0-.055.057c0 .032-.077.05-.181.04-.1-.008-.198.002-.219.023-.02.02-.08.038-.134.038-.062 0-.096.038-.096.109 0 .096.02.104.17.071zm5.605-.023c.034-.049.064-.057.079-.022.017.04.118.04.35-.003.247-.044.33-.082.345-.155.014-.076-.006-.09-.092-.068-.065.017-.11.004-.11-.032-.001-.043-.013-.044-.04-.003-.021.032-.08.06-.13.064l-.224.015c-.072.004-.131.034-.132.066 0 .033-.023.024-.051-.02-.04-.06-.051-.041-.051.08 0 .125.011.14.056.078zm-8.3 0c.06 0 .11-.023.11-.05 0-.029-.035-.038-.079-.021-.056.022-.07.006-.046-.054.022-.06.003-.083-.065-.08-.054.002-.07.015-.035.03.034.013.05.059.033.1-.019.05.008.075.082.075zm.62-.124a.45.45 0 0 0 .04-.131c.014-.073-.005-.112-.054-.112-.042 0-.076.043-.076.096s.016.112.035.131c.02.02.044.027.054.016zm.334-.034c.084-.024.154-.028.155-.009.001.02.036-.01.079-.066.042-.056.077-.076.077-.044s.03.052.065.044a.974.974 0 0 0 .158-.053c.05-.022.092-.055.092-.074 0-.019-.154-.034-.341-.034-.233 0-.341.021-.341.065 0 .035-.036.05-.08.033-.047-.018-.078 0-.078.046 0 .041.014.089.03.106.017.016.1.01.184-.014zm8.31.053c.044 0 .082-.03.084-.065.003-.045.012-.047.029-.006.013.033.07.048.127.033.056-.014.102-.065.102-.112 0-.066-.049-.085-.21-.082-.114.003-.224.02-.242.037-.018.019-.019.07-.002.114a.132.132 0 0 0 .112.081zm-5.428-.067c.058-.004.106-.044.109-.088.002-.054.012-.06.03-.015.015.036.084.065.153.065.07 0 .127-.02.127-.045s.069-.038.152-.028c.127.015.148.001.127-.08-.017-.065-.065-.093-.14-.083a7.12 7.12 0 0 0-.296.05c-.101.019-.193.06-.203.09-.012.034-.037.028-.064-.015-.033-.054-.058-.057-.104-.01-.034.033-.046.084-.028.113.019.03.08.05.137.046zm6.18-.059c.135-.034.282-.06.325-.058.043.002.096-.02.117-.05a.217.217 0 0 0 .04-.097c0-.023-.087-.029-.193-.012-.107.017-.205.042-.217.054s-.067 0-.121-.03c-.076-.04-.098-.034-.098.027 0 .049-.03.068-.079.049-.048-.018-.079 0-.079.045 0 .042.014.09.03.105.016.016.14.002.275-.033zm-8.266-.047c.065-.011.16-.038.21-.06.05-.022.092-.071.092-.109 0-.037-.042-.06-.092-.05-.05.01-.145.019-.21.021-.082.003-.118.036-.118.11 0 .082.028.103.118.088zm3.087-.051c.118-.011.235-.054.261-.095.026-.04.048-.05.048-.02 0 .03.046.058.102.062.055.004.113-.025.129-.066.015-.04.01-.084-.01-.097a.598.598 0 0 0-.221-.002c-.1.012-.23.03-.288.041a2.47 2.47 0 0 1-.17.027c-.036.004-.066.044-.066.088 0 .064.047.077.215.062zm2.99-.011c.06-.005.13-.042.156-.083.036-.057.048-.059.049-.006 0 .052.06.06.25.032.137-.02.256-.056.265-.08.01-.022.05-.028.092-.013.043.017.076-.002.076-.042 0-.059.009-.06.045-.001.035.054.05.047.071-.032.025-.092.002-.1-.241-.088a1.742 1.742 0 0 0-.4.062.878.878 0 0 1-.302.037c-.144-.009-.17.007-.17.106 0 .085.029.114.109.108zm2.947-.007c.122-.016.31-.048.415-.07.12-.026.214-.021.248.013.038.038.064.029.087-.03.018-.046.066-.07.106-.055.05.019.075-.009.075-.083 0-.096-.02-.107-.144-.075a.946.946 0 0 1-.237.03.09.09 0 0 0-.097.083c-.006.08-.009.079-.03-.003-.014-.05-.032-.092-.04-.092-.009 0-.11.033-.223.073-.137.048-.237.056-.295.023-.073-.04-.088-.025-.088.083 0 .125.011.13.223.103zm-8.455-.1c.04-.103.04-.103.048.001l.007.105.045-.105c.025-.057.047-.08.049-.05.002.03.05.058.108.062.068.005.105-.024.105-.083 0-.073-.043-.09-.223-.084a3.323 3.323 0 0 0-.264.016c-.023.004-.013.06.021.125.061.114.064.114.104.013zm-2.432-.095c.013-.052.01-.11-.008-.126a.044.044 0 0 0-.063.001c-.018.018-.015.075.008.127.039.09.042.09.063-.002zm3.017.06c.065-.009.134-.052.154-.095.03-.068.036-.067.04.004.002.062.043.077.16.06.097-.014.144-.046.123-.083-.02-.035-.004-.033.038.006.038.036.089.066.112.066.023 0 .042-.043.042-.094 0-.067-.046-.097-.161-.106-.098-.008-.148.008-.129.04.02.032 0 .04-.049.022a.649.649 0 0 0-.265.003c-.113.021-.183.065-.183.114 0 .053.04.074.118.063zm6.182-.1c.032-.05.047-.053.047-.01 0 .036.03.054.067.041.036-.012.16-.035.275-.05s.257-.037.315-.05c.058-.012.123-.025.146-.027s.062-.057.088-.122c.028-.068.05-.085.052-.04.004.07.01.07.055 0 .028-.043.051-.051.052-.017 0 .035.045.049.105.033.058-.015.105-.045.105-.068s-.044-.051-.097-.065a.548.548 0 0 0-.272.048c-.096.04-.26.087-.362.104-.103.017-.31.032-.462.034-.152.002-.276.012-.276.023s.026.07.058.13c.047.086.068.093.104.035zm-8.53.005c.044 0 .08-.03.08-.065 0-.046.012-.048.04-.008.02.032.085.048.143.036.058-.013.147-.023.198-.022.05 0 .081-.018.067-.041s.032-.031.103-.017a1.1 1.1 0 0 0 .323-.012c.143-.027.174-.049.118-.084-.062-.04-.06-.048.013-.048.048 0 .095.022.105.05.01.03.102.038.214.02.13-.022.198-.061.2-.117.003-.055.014-.062.031-.02.015.036.074.066.131.066.072 0 .099-.03.086-.092-.013-.065-.056-.086-.148-.073l-.182.028a.4.4 0 0 0-.118.05c-.04.024-.068.013-.07-.028-.004-.038-.025-.01-.048.062-.031.098-.044.106-.047.034-.005-.08-.032-.09-.15-.061-.078.02-.157.059-.175.086-.018.03-.06.016-.1-.032-.046-.055-.082-.065-.104-.028-.02.031-.092.067-.16.08-.07.014-.205.03-.302.036-.097.007-.19.033-.205.06-.016.025-.05.014-.074-.025-.033-.052-.046-.04-.046.047 0 .07.03.118.077.118zm3.49-.073c.243-.04.314-.071.3-.134-.01-.047-.06-.075-.12-.066-.056.008-.202.03-.325.046-.123.017-.223.06-.223.094s.011.074.025.088.168.001.343-.028zm2.964-.032c.118 0 .125-.01.066-.105-.036-.057-.095-.105-.132-.105-.036 0-.066.048-.066.105 0 .077.035.105.132.105zm.875-.06c.02.004.056-.022.08-.058.022-.036.112-.072.199-.08l.353-.028a.479.479 0 0 0 .312-.14l.115-.123-.18.038c-.1.021-.26.05-.359.063a.861.861 0 0 0-.23.057c-.03.018-.168.028-.308.024-.144-.006-.254.014-.254.044s.03.054.065.054c.047 0 .044.015-.008.048-.058.036-.046.052.052.07l.163.032zm1.293-.276a6.06 6.06 0 0 1 .428-.059c.159-.016.296-.05.304-.073.008-.023.084-.034.168-.024.084.01.164 0 .178-.023.014-.022.001-.075-.028-.117-.041-.06-.059-.062-.08-.008-.02.049-.046.052-.095.011-.05-.041-.091-.034-.153.028-.046.046-.084.063-.084.036 0-.027-.1-.033-.225-.014a1.148 1.148 0 0 0-.288.074c-.035.022-.064.017-.064-.01 0-.026-.053-.042-.118-.035a1.354 1.354 0 0 0-.138.019c-.01.004.013.047.053.095.061.076.06.083-.002.045-.051-.031-.062-.025-.034.019.023.037.097.052.178.036zm-1.54-.206c.041 0 .09-.037.106-.082.025-.063.041-.066.073-.014.03.048.117.057.311.031.148-.02.26-.051.248-.07-.012-.02.062-.026.163-.014.159.019.183.008.165-.076-.012-.062-.058-.094-.123-.086l-.304.035a.706.706 0 0 0-.23.051c-.015.016-.073.005-.126-.023-.066-.035-.099-.035-.099 0 0 .029-.034.04-.077.023s-.11.002-.148.041c-.04.04-.063.097-.053.128.01.03.053.056.094.056zm2.926-.005c.122-.018.306-.051.407-.075a.993.993 0 0 1 .276-.03c.054.008.092-.022.095-.074.002-.054.014-.062.03-.021.015.036.062.065.105.065.047 0 .07-.037.06-.092-.013-.056-.06-.086-.123-.077l-.339.048a3.9 3.9 0 0 1-.485.033c-.23 0-.25.01-.25.127 0 .12.014.125.224.096zM5 15.615a.275.275 0 0 0 .188-.079c.036-.043.045-.078.02-.078a.32.32 0 0 0-.123.05.117.117 0 0 1-.145-.008c-.037-.03-.067-.115-.067-.187 0-.119.016-.128.162-.099.116.023.155.014.14-.033-.012-.035-.074-.072-.138-.082a.28.28 0 0 0-.193.046.243.243 0 0 0-.076.165c0 .056.025.147.055.203.03.056.109.102.177.102zm.385-.17c.014-.103.05-.145.123-.145.058 0 .124.052.15.118.042.103.048.094.051-.074a.986.986 0 0 0-.028-.276c-.018-.046-.055-.083-.083-.083s-.036.045-.019.099c.02.064.002.11-.053.131-.047.018-.107.02-.133.003-.026-.016-.048-.063-.048-.105 0-.041-.024-.075-.053-.075s-.041.059-.026.13c.015.073.043.197.063.276l.037.144zm.478.043c.033-.02.06-.07.06-.112 0-.042.032-.076.072-.076s.102.036.138.08c.037.044.077.07.089.057s-.026-.117-.085-.233-.13-.226-.158-.242c-.027-.017-.06-.013-.074.01a1.616 1.616 0 0 0-.063.296c-.028.186-.022.247.02.22zm.486-.083c.025 0 .046-.045.046-.099 0-.056.047-.111.109-.127.078-.02.104-.063.091-.15-.013-.095-.055-.126-.187-.139-.14-.013-.17.002-.17.085 0 .056.014.176.032.266.018.09.053.164.079.164zm.059-.276c-.039.013-.066-.023-.066-.087s.034-.11.083-.11c.048 0 .075.036.065.088-.01.048-.046.097-.082.11zm5.61.236c.071-.019.084-.04.04-.067-.035-.021-.047-.065-.027-.097.021-.035-.005-.058-.065-.058-.078 0-.095.028-.077.124.018.095.05.119.128.098zM6.91 15.11c.01-.11.044-.218.077-.238.033-.02.045-.053.026-.072-.019-.018-.106-.018-.195.002-.089.02-.161.057-.161.083s.035.049.079.049c.05 0 .078.051.078.148 0 .082.018.167.04.189s.047-.05.056-.161zm5.937.152a.958.958 0 0 0 .166-.047c.019-.01.022-.066.007-.123-.021-.082-.061-.1-.192-.082l-.204.025c-.021.002-.039.049-.039.104 0 .055.03.112.066.126a.446.446 0 0 0 .196-.003zm-5.505-.014c.085 0 .154-.025.154-.055 0-.031-.05-.049-.113-.04-.062.01-.122-.01-.133-.042-.011-.033.034-.077.1-.099l.12-.04-.118-.022c-.065-.013-.118-.042-.118-.064 0-.023.053-.067.118-.098.112-.054.11-.057-.05-.06-.092-.003-.176.014-.188.035-.01.022 0 .14.027.262.042.202.062.223.2.223zm.298-.144c.012-.065.035-.118.052-.118s.079.041.136.092c.072.064.11.073.125.029.015-.043.06-.049.14-.019a.267.267 0 0 0 .206-.005c.049-.027.089-.085.089-.128 0-.044-.07-.104-.157-.134-.087-.03-.144-.077-.127-.104.017-.028.076-.036.131-.018.055.017.1.008.1-.02 0-.03-.043-.067-.097-.084a.325.325 0 0 0-.184.002c-.047.018-.086.079-.086.135 0 .067.056.122.16.158.088.03.146.07.129.087-.018.018-.114.035-.215.038-.156.006-.183-.01-.175-.103.004-.06.005-.139.002-.175-.003-.039-.08-.066-.186-.066-.178 0-.18.003-.153.197.015.108.041.232.058.275.023.058.037.047.052-.039zm.092-.223c-.048 0-.079-.025-.068-.056.01-.031.04-.057.068-.057s.059.026.069.057c.01.03-.02.056-.069.056zm5.496.288.38-.055c.144-.02.298-.044.341-.052.043-.008.132-.017.197-.02.07-.002.118-.037.118-.085 0-.045-.024-.067-.053-.05s-.052.01-.052-.016c0-.027-.087-.044-.193-.039-.136.007-.204.04-.232.111-.022.056-.042.075-.044.042-.002-.038-.107-.057-.292-.051-.16.005-.289.026-.289.047v.112c0 .047.043.067.119.056zm1.285-.21c.05-.02.192-.038.315-.037.207 0 .222-.01.219-.138-.003-.077-.015-.113-.028-.082-.014.034-.149.052-.337.044-.172-.007-.326.008-.342.035-.017.026-.005.048.026.048.03 0 .055.038.055.084 0 .06.027.073.092.046zm-.008-.04c-.017.018-.03-.013-.027-.068.002-.062.015-.074.031-.032.016.038.014.083-.004.1zm.847-.07c.108-.019.204-.053.213-.075.008-.021.061-.027.118-.012.07.018.102 0 .102-.058 0-.062-.05-.085-.184-.085-.138 0-.184.023-.187.092-.003.055-.015.065-.03.026-.015-.036-.073-.066-.128-.066-.066 0-.1.037-.1.108 0 .095.021.103.196.07zm.666-.125c.067 0 .195-.015.285-.033.129-.026.164-.06.164-.157 0-.069-.022-.125-.05-.125s-.063.024-.082.053c-.018.03-.052.042-.076.027-.024-.015-.13.01-.234.053-.106.044-.178.103-.16.131.017.028.086.05.153.05zm.62-.066c.036-.012.065-.053.065-.092s-.03-.08-.065-.091c-.04-.013-.066.024-.066.091 0 .068.027.105.066.092zm.262-.07a.81.81 0 0 1 .184-.039c.036 0 .065-.043.065-.096s-.01-.096-.023-.096c-.012 0-.081.022-.154.05-.093.035-.138.031-.156-.014-.014-.034-.028.004-.03.085-.004.13.01.143.114.11zm.485-.086c.097-.008.131-.041.131-.126 0-.103-.012-.109-.13-.054-.072.034-.131.09-.132.126 0 .037.056.06.131.054zm-6.436-.744c.16-.019.325-.062.366-.096.056-.046.067-.132.044-.33a6.89 6.89 0 0 0-.065-.431c-.03-.15-.019-.17.118-.201.082-.02.305-.116.494-.214.189-.097.455-.287.591-.422.136-.134.324-.398.417-.587.15-.304.171-.405.188-.86a5.25 5.25 0 0 0-.099-1.174c-.098-.554-.106-.676-.048-.783.049-.092.054-.183.02-.324-.043-.172-.07-.198-.224-.213a.792.792 0 0 0-.35.066c-.095.045-.187.082-.204.082s-.032-.033-.032-.074-.069-.097-.153-.127c-.138-.048-.156-.082-.19-.359-.02-.168-.09-.6-.153-.961-.064-.361-.167-.755-.229-.876-.062-.12-.137-.234-.167-.252-.03-.019-.038-.062-.018-.096s.016-.045-.007-.024c-.023.02-.107-.01-.188-.067a1.796 1.796 0 0 0-.367-.182 1.648 1.648 0 0 0-.462-.076c-.134 0-.432.034-.663.075-.23.041-.507.112-.614.157-.107.045-.274.16-.37.257a1.751 1.751 0 0 0-.278.38c-.077.154-.102.315-.102.651 0 .245.043.716.095 1.046.053.33.109.666.125.747.023.115.01.148-.057.148-.047 0-.112.057-.144.127-.051.112-.09.126-.349.124-.218-.002-.307.02-.358.09-.04.054-.055.16-.038.256.016.09.069.2.117.243.06.054.13.338.228.93.106.65.179.935.304 1.197.094.197.275.454.424.6.142.142.406.33.586.417.18.088.454.184.609.213.155.029.384.053.507.053.204 0 .228.013.254.144.015.08.044.262.063.406.019.145.047.283.061.309.015.025.158.03.318.011zm-.671-1.187c-.346-.001-.58-.031-.764-.097a2.938 2.938 0 0 1-.474-.228 2.025 2.025 0 0 1-.367-.311 2.523 2.523 0 0 1-.296-.465c-.091-.19-.176-.52-.249-.97l-.134-.83c-.015-.088.006-.179.05-.223a.26.26 0 0 1 .151-.074c.042 0 .09.035.107.078.017.044.089.08.16.08.107 0 .136.03.16.17.016.093.05.312.076.485.036.244.031.333-.025.395a.24.24 0 0 0-.05.184l.051.247c.017.08.065.144.108.144.042 0 .11.079.15.175.04.096.15.262.245.37.094.108.264.243.377.3.113.058.317.119.454.135.138.016.46.002.718-.031a2.71 2.71 0 0 0 .743-.193c.15-.073.356-.228.456-.345.1-.117.219-.32.264-.452.045-.132.081-.284.081-.339a.3.3 0 0 1 .082-.181c.062-.062.074-.137.048-.298-.02-.119-.076-.252-.127-.295-.058-.05-.116-.225-.156-.472a8.04 8.04 0 0 0-.09-.485c-.02-.067.004-.092.087-.092a.14.14 0 0 0 .142-.108c.022-.084.063-.104.187-.092.124.013.162.045.176.147.01.073.057.344.106.604s.089.708.09.997c0 .49-.01.546-.17.858-.095.183-.27.427-.391.542-.121.116-.33.266-.464.335a4.16 4.16 0 0 1-.629.23 3.153 3.153 0 0 1-.883.105zM8.69 8.26c-.065.012-.092-.016-.092-.095s.027-.107.092-.095c.05.01.092.053.092.095s-.042.085-.092.095zm.459-.043c-.037 0-.08-.033-.096-.074a.122.122 0 0 1 .035-.129c.035-.029.094-.035.13-.012.036.022.05.08.032.128-.019.048-.064.088-.101.088zm.485-.114c-.064.012-.092-.016-.092-.095s.028-.108.092-.095c.05.01.092.052.092.095 0 .042-.041.085-.092.095zm.46-.043c-.038 0-.081-.034-.097-.075-.016-.04.001-.1.037-.13.047-.038.084-.037.124.003.032.032.046.09.03.13-.015.04-.058.072-.095.072zm.484-.115c-.064.013-.091-.016-.091-.095s.027-.107.091-.095c.05.01.092.053.092.095 0 .043-.041.085-.092.095zm.473-.052c-.045.008-.1-.011-.12-.044-.02-.033-.012-.085.018-.115s.094-.04.142-.022.076.063.064.099c-.012.036-.059.073-.104.081zm.518-.101c-.054.045-.086.043-.128-.008a.123.123 0 0 1-.012-.14c.024-.04.082-.057.128-.04.046.019.084.055.084.08 0 .027-.033.075-.072.108zm-2.953-.009a.086.086 0 0 1-.095-.035.113.113 0 0 1-.002-.108c.018-.028.068-.052.112-.052.046 0 .072.037.063.087-.01.049-.045.097-.078.108zm.446-.038c-.026 0-.062-.037-.08-.082s-.005-.108.026-.14c.042-.04.08-.038.14.011.061.052.067.085.021.14-.033.04-.08.071-.107.071zm.51-.105c-.042 0-.09-.023-.109-.052a.11.11 0 0 1 0-.105c.018-.029.067-.052.108-.052s.076.047.076.105c0 .057-.034.104-.076.104zm.445-.052a.123.123 0 0 1-.073-.035.171.171 0 0 1-.035-.105c0-.038.044-.07.097-.07.052 0 .111.016.13.035.02.019.008.066-.024.105-.032.038-.075.07-.095.07zm.47-.105c-.08 0-.108-.027-.095-.092.01-.05.052-.092.094-.092s.086.042.095.092c.013.065-.015.092-.095.092zm.495-.069c-.031.01-.072.003-.092-.017a.172.172 0 0 1-.036-.106c0-.039.049-.07.108-.07.074 0 .104.028.092.087-.009.048-.042.096-.072.106zm-2.428-.088c-.053 0-.11-.014-.127-.032-.018-.017-.02-.064-.004-.105.016-.04.073-.073.128-.073.064 0 .1.037.1.105 0 .067-.036.105-.097.105zm2.877 0c-.08 0-.108-.028-.095-.092.01-.05.052-.092.095-.092.042 0 .085.041.095.092.012.064-.016.092-.095.092zm-2.414-.053c-.03 0-.07-.038-.087-.084s0-.104.04-.129c.041-.025.093-.024.12.002.025.026.032.084.015.129-.018.045-.057.082-.088.082zm.477-.105c-.076 0-.11-.033-.11-.108 0-.076.029-.104.092-.092.05.01.1.059.109.11.012.062-.016.09-.091.09zm.463-.052c-.028 0-.065-.037-.082-.082s-.01-.106.02-.134c.032-.033.073-.023.116.028.035.043.05.103.03.133-.018.03-.056.055-.084.055zm.48-.105c-.056 0-.118-.026-.138-.058-.02-.032-.006-.078.032-.1a.176.176 0 0 1 .138-.015c.038.015.07.06.07.1 0 .04-.046.073-.102.073zm.464-.053c-.028 0-.065-.037-.082-.082s-.009-.105.02-.133c.033-.033.073-.024.116.027.036.044.05.104.031.134-.018.03-.057.054-.085.054zm.498-.068c-.031.01-.084-.013-.117-.053s-.045-.087-.026-.106c.02-.02.08-.035.135-.035.065 0 .094.03.083.088-.01.048-.043.096-.075.106zM8.48 6.843c-.045.01-.099-.01-.12-.044-.02-.033-.012-.084.018-.114s.094-.04.142-.022c.048.018.077.063.065.099-.012.036-.06.073-.105.081zm.524-.081a.226.226 0 0 1-.13 0c-.037-.012-.066-.053-.066-.09s.032-.082.072-.097.099-.002.131.03c.032.033.059.076.059.096s-.03.047-.066.06zm.474-.084c-.067.066-.084.066-.142-.003-.036-.044-.05-.104-.031-.134a.137.137 0 0 1 .106-.055.14.14 0 0 1 .108.058c.02.031.001.092-.04.134zm.454-.052c-.027.01-.084-.006-.127-.033-.06-.038-.064-.064-.017-.111a.151.151 0 0 1 .148-.029c.048.018.078.061.066.096s-.043.069-.07.077zm.418-.087c-.037 0-.082-.024-.1-.053s-.017-.076 0-.105a.132.132 0 0 1 .103-.052c.038 0 .082.033.098.074.015.04.014.087-.003.104-.017.018-.062.032-.098.032zm.48-.053c-.041 0-.09-.023-.108-.052a.11.11 0 0 1 0-.105c.018-.029.067-.053.109-.053.041 0 .075.048.075.105 0 .058-.034.105-.075.105zm.47-.105c-.04 0-.085-.018-.099-.041-.014-.023-.005-.075.02-.115.036-.06.059-.06.126-.005.046.038.07.09.054.115-.016.026-.062.046-.101.046zm-2.417-.068c-.03.01-.072.002-.092-.018a.172.172 0 0 1-.036-.106c0-.038.05-.07.109-.07.073 0 .103.029.092.088-.01.048-.042.095-.073.106zm.479-.089a.143.143 0 0 1-.111-.057c-.02-.031-.011-.081.018-.11.03-.03.08-.039.111-.02.032.02.057.07.057.111a.076.076 0 0 1-.075.076zm.442-.052c-.03 0-.07-.037-.087-.083s-.01-.103.015-.129c.027-.026.079-.027.12-.001a.11.11 0 0 1 .04.129c-.017.046-.057.084-.088.084zm.473-.105c-.08 0-.108-.028-.095-.092.01-.05.052-.092.095-.092.042 0 .085.041.095.092.012.064-.016.092-.095.092zm.459-.063c-.065.013-.092-.016-.092-.095s.027-.107.092-.095c.05.01.091.053.091.095s-.04.085-.091.095zm-1.469-.262c-.045.008-.099-.011-.12-.044-.02-.033-.012-.085.018-.115s.094-.04.142-.022c.048.019.077.063.065.1-.012.035-.06.072-.105.08zm.522-.104a.123.123 0 0 1-.137.012c-.04-.024-.055-.07-.035-.102a.141.141 0 0 1 .109-.058c.04 0 .085.02.101.046s-.001.072-.038.102zm.465-.026a.122.122 0 0 1-.128-.036.12.12 0 0 1-.009-.135c.024-.04.082-.057.128-.04.046.018.084.066.084.108a.122.122 0 0 1-.075.103z"/></svg>