<svg viewBox="0 0 24 24" xmlns="http://www.w3.org/2000/svg"><path d="M12 2c-2.758 0-5.117.974-7.078 2.922C2.974 6.882 2 9.242 2 12s.974 5.11 2.922 7.059C6.882 21.019 9.242 22 12 22s5.11-.98 7.059-2.941C21.019 17.11 22 14.759 22 12c0-2.758-.98-5.117-2.941-7.078C17.11 2.974 14.759 2 12 2zm.074 2.508 1.127.082c.376.052.726.13 1.051.232.35.102.687.229 1.012.381.324.152.636.341.935.568l-1.056 1.084a3.9 3.9 0 0 0-.713-.38l-.75-.266a3.99 3.99 0 0 0-.787-.156l-.827-.041a6.032 6.032 0 0 0-2.332.437 5.84 5.84 0 0 0-1.923 1.266 6.74 6.74 0 0 0-1.287 1.908 5.717 5.717 0 0 0-.504 2.363c-.005.827.155 1.604.476 2.332s.743 1.37 1.266 1.924a6.74 6.74 0 0 0 1.908 1.29c.724.329 1.5.496 2.326.501l.828-.07c.276-.024.539-.073.79-.147l.753-.295.715-.334 1.045 1.094a6.91 6.91 0 0 1-.941.522l-1.018.408c-.326.098-.677.17-1.053.219a5.726 5.726 0 0 1-1.127.105 7.039 7.039 0 0 1-2.888-.617 7.666 7.666 0 0 1-2.397-1.629 7.663 7.663 0 0 1-1.601-2.414 7.043 7.043 0 0 1-.584-2.897 7.4 7.4 0 0 1 .619-2.964c.406-.9.948-1.685 1.629-2.358S8.25 5.45 9.18 5.055a7.438 7.438 0 0 1 2.894-.547zm5.323 2.21c.348.353.66.73.933 1.132.273.427.495.868.668 1.32.198.452.346.916.443 1.393a9.872 9.872 0 0 1-.018 2.967 6.941 6.941 0 0 1-.458 1.388c-.178.45-.406.874-.684 1.273-.278.4-.592.785-.945 1.159l-1.084-1.059c.302-.299.556-.61.758-.934a5.78 5.78 0 0 0 .568-1.011 6.43 6.43 0 0 0 .346-1.125c.077-.4.117-.789.119-1.164a9.111 9.111 0 0 0-.068-1.203 5.358 5.358 0 0 0-.332-1.13 5.291 5.291 0 0 0-.557-1.054 4.328 4.328 0 0 0-.785-.87l1.096-1.081zm-6.649 2.233a.58.58 0 0 1 .299.082l4.236 2.45a.585.585 0 0 1 .256.31.56.56 0 0 1 0 .414.58.58 0 0 1-.264.316l-4.234 2.444a.583.583 0 0 1-.402.074.583.583 0 0 1-.498-.592l.006-4.898a.59.59 0 0 1 .138-.385.608.608 0 0 1 .354-.207.67.67 0 0 1 .11-.008z"/></svg>