<svg viewBox="0 0 24 24" xmlns="http://www.w3.org/2000/svg"><path d="M4.898 3.733C1.033 7.598 1.034 13.943 4.9 17.81l1.357-1.358a8.018 8.018 0 0 1 0-11.36zm14.203 0L17.744 5.09a8.018 8.018 0 0 1 0 11.36l1.356 1.36c3.866-3.865 3.866-10.212.001-14.077zm-11.804 2.4c-2.516 2.516-2.516 6.759 0 9.276l1.358-1.357c-.899-.899-1.374-2.04-1.375-3.28 0-1.258.477-2.382 1.376-3.28zm9.404 0L15.342 7.49c.899.9 1.376 2.023 1.377 3.281-.001 1.24-.477 2.381-1.376 3.28l1.358 1.357c2.517-2.517 2.517-6.76 0-9.276zM10.074 9.44c-.329.01-.654.142-.907.395a1.332 1.332 0 0 0-.009 1.878c.352.353.862.463 1.316.328.012.063.02.128.02.195v1.217a2.336 2.336 0 0 0-.837 1.793v3.515a.501.501 0 0 1-.502.5h-.837v1.005h7.362v-1.004h-.837a.501.501 0 0 1-.502-.501v-3.515c0-.72-.325-1.363-.836-1.793v-1.217c0-.067.007-.132.02-.195.453.135.963.025 1.315-.328a1.332 1.332 0 0 0-.009-1.878 1.336 1.336 0 0 0-.97-.395 1.311 1.311 0 0 0-.909.387 1.328 1.328 0 0 0-.244 1.524 1.991 1.991 0 0 0-.207.885v.723a2.352 2.352 0 0 0-1.004 0v-.723a1.99 1.99 0 0 0-.207-.885 1.328 1.328 0 0 0-.244-1.524 1.314 1.314 0 0 0-.972-.387zm.027.901a.427.427 0 0 1 .427.427.427.427 0 0 1-.427.427.427.427 0 0 1-.426-.427.427.427 0 0 1 .426-.427zm3.796 0a.427.427 0 0 1 .426.427.427.427 0 0 1-.426.427.427.427 0 0 1-.427-.427.427.427 0 0 1 .427-.427zm-2.902 4.571h2.008a1.005 1.005 0 0 1-2.008 0z"/></svg>