<svg viewBox="0 0 24 24" xmlns="http://www.w3.org/2000/svg"><path d="m2.46 15.14.07.48a7.24 7.24 0 0 0 1.56 3.22C5.29 20.28 7.63 22 12 22s6.71-1.72 7.9-3.16a7.2 7.2 0 0 0 1.57-3.22l.07-.48Zm9.54 6a10.56 10.56 0 0 1-5.34-1.24 9.09 9.09 0 0 1 .3-1.1 5.35 5.35 0 0 1 .78-1.45A5.06 5.06 0 0 1 9.54 16H13a6 6 0 0 0-1.2 3c0 .18 0 .41.14.49a.33.33 0 0 0 .37-.1 1 1 0 0 0 .17-.37 7.32 7.32 0 0 1 1.88-3h6.17c-.42 1.32-2.18 5.15-8.53 5.15Zm8.24-11.65c0-.39-.76-7.41-8.18-7.49h-.12c-7.41.08-8.14 7.09-8.18 7.49 0 .19-.28 2.38.77 3.58a2.24 2.24 0 0 0 1.78.76h11.38a2.24 2.24 0 0 0 1.78-.76c1.05-1.2.79-3.39.77-3.58Zm-7.6-1.57a1.25 1.25 0 1 1 1.25 1.24 1.25 1.25 0 0 1-1.25-1.24Zm6.21 4.6a1.45 1.45 0 0 1-1.16.48H14a4.35 4.35 0 1 0-4 0H6.31a1.45 1.45 0 0 1-1.16-.48c-.82-.94-.57-2.91-.57-2.93 0-.27.55-6.69 7.41-6.73s7.39 6.46 7.41 6.73a4.39 4.39 0 0 1-.55 2.93Z"/></svg>