<svg viewBox="0 0 24 24" xmlns="http://www.w3.org/2000/svg"><path d="M22 9.69C21.74 8 21.37 7.38 18.94 5s-3-2.78-4.5-3.07c-.45-.09-3-.13-5.23-.13H4.43v17.5l.07.07 1.43 1.43 1.42 1.43.07.07h6.36v-5.63H15a17.15 17.15 0 0 0 2.2-.13A6.08 6.08 0 0 0 22 9.69ZM7.22 19.46v1.26l-.66-.65-.56-.61Zm0-14.27v13.29h-1.8V3.39Zm.65-.65-1.79-1.8H10v1.8Zm.33 13.94v-13H10v13Zm0 2.79v-1.81h2.14l1.07 1.08.73.73ZM11 12.9V5.52h1.8v7.38Zm1.81 1v6.7l-.81-.75-1-1.05v-4.91ZM11 4.54V3.4l.55.54.59.59H11Zm7 5.13a5.32 5.32 0 0 1-2.89 2.89 5.61 5.61 0 0 1-1.13.3h-.24V5.52h1.49a9.07 9.07 0 0 1 2.27.18l.49.14.17.64A5.86 5.86 0 0 1 18 9.67Zm-4.26 4.19h.25a7.76 7.76 0 0 0 2.56-1 6.1 6.1 0 0 0 2.66-6c0-.12 0-.24-.06-.34.12.1.25.23.4.37a5.46 5.46 0 0 1 1.14 1.55 3.41 3.41 0 0 1 .37 2.06 4.39 4.39 0 0 1-.26 1.9 5.42 5.42 0 0 1-2.92 2.92 6.39 6.39 0 0 1-2.49.29l-1.65.05Zm3.39-9.19A15.74 15.74 0 0 0 15 4.55h-1.55l-1.79-1.82h1.2c1.65 0 1.81.06 2.43.35a5.66 5.66 0 0 1 2 1.59Z"/></svg>