<svg viewBox="0 0 24 24" xmlns="http://www.w3.org/2000/svg"><path d="M12.307 22.011c-.544.015-1.218-.002-1.497-.036a12.35 12.35 0 0 1-1.184-.233 12.42 12.42 0 0 1-1.195-.369 12.58 12.58 0 0 1-.947-.415 11.888 11.888 0 0 1-.903-.52c-.26-.169-.687-.48-.947-.694-.26-.214-.658-.583-.882-.82a12.513 12.513 0 0 1-.72-.838 13.13 13.13 0 0 1-.628-.93 11.45 11.45 0 0 1-.587-1.144 12.189 12.189 0 0 1-.437-1.2 13.022 13.022 0 0 1-.275-1.223c-.067-.401-.107-1.04-.105-1.693.001-.801.036-1.216.148-1.759.08-.39.221-.939.314-1.218.092-.279.345-.873.561-1.32.216-.446.588-1.084.825-1.417A12.41 12.41 0 0 1 4.89 4.956c.335-.34.839-.788 1.12-.994.28-.205.783-.53 1.115-.72.333-.191.91-.465 1.282-.61a12.45 12.45 0 0 1 1.253-.403c.316-.077.872-.169 1.234-.205a11.9 11.9 0 0 1 1.387-.034c.4.017 1.003.075 1.338.128.335.054.87.173 1.189.265.318.093.85.287 1.183.432.332.145.846.407 1.141.583.295.175.785.513 1.09.75.304.238.804.7 1.11 1.029.307.328.74.868.964 1.201.223.333.526.847.675 1.143.149.295.388.89.533 1.323.144.432.316 1.075.381 1.428.087.468.118.966.114 1.827-.004.94-.035 1.327-.15 1.874-.08.379-.24.957-.354 1.285-.115.328-.341.865-.504 1.193a12.62 12.62 0 0 1-.665 1.15c-.204.305-.572.777-.818 1.05-.247.273-.653.679-.903.902-.25.223-.722.586-1.05.807-.33.22-.847.52-1.151.664-.304.145-.821.358-1.15.473-.327.115-.902.272-1.276.348-.434.089-1.04.149-1.67.166zm-.165-8.78a1.28 1.28 0 0 0 .618-.202c.158-.105.325-.298.41-.473.08-.163.144-.425.144-.582 0-.158-.058-.4-.128-.537-.07-.138-.185-.3-.254-.361a2.01 2.01 0 0 0-.342-.22 1.41 1.41 0 0 0-.527-.11c-.176 0-.425.058-.573.133a1.427 1.427 0 0 0-.399.31 1.633 1.633 0 0 0-.217.415 1.517 1.517 0 0 0-.046.538c.018.164.11.415.205.558.095.143.303.326.465.408.222.113.38.143.644.123zm5.007-.455c.202 0 .458-.047.57-.105.111-.058.226-.17.255-.247.03-.079.013-.372-.036-.652a8.297 8.297 0 0 0-.233-.954 8.57 8.57 0 0 0-.364-.894 10.17 10.17 0 0 0-.547-.948 8.147 8.147 0 0 0-.874-1.04 8.444 8.444 0 0 0-1.031-.865 8.903 8.903 0 0 0-.986-.554 9.518 9.518 0 0 0-1.103-.406 6.737 6.737 0 0 0-1.111-.215c-.437-.034-.524-.022-.61.081-.063.077-.107.307-.12.635-.017.423.004.553.117.734.134.213.152.22.602.22.255 0 .698.06.985.133.287.074.711.224.943.335.232.11.625.355.874.543.248.188.607.532.797.765.19.232.464.666.61.964.144.298.307.74.361.981.054.242.118.615.143.828.035.305.082.417.218.524.126.099.275.137.54.137zm2.825-.341c.11.001.326-.059.48-.134.156-.075.313-.203.349-.284.044-.1.036-.335-.026-.726a14.15 14.15 0 0 0-.264-1.215c-.095-.35-.29-.908-.432-1.24a12.65 12.65 0 0 0-.632-1.224c-.205-.341-.615-.91-.912-1.264a10.406 10.406 0 0 0-.913-.963 15.93 15.93 0 0 0-.881-.684c-.28-.2-.808-.518-1.174-.705a12.38 12.38 0 0 0-1.261-.55 11.176 11.176 0 0 0-1.252-.34 12.94 12.94 0 0 0-1.172-.177c-.284-.026-.578-.027-.654-.002-.076.024-.17.138-.211.254-.04.115-.074.39-.074.608 0 .219.045.504.098.633.054.129.123.235.153.235s.34.014.69.031c.351.018.884.082 1.185.143a9 9 0 0 1 1.02.281c.261.094.704.285.984.426.28.14.752.436 1.049.658.296.221.74.613.987.87.247.258.624.739.839 1.068s.493.843.619 1.14c.125.298.285.76.356 1.03.07.268.147.667.172.888.024.22.058.504.075.632a.808.808 0 0 0 .114.331c.046.055.175.14.286.189.112.048.293.09.402.09z"/></svg>