<svg viewBox="0 0 24 24" xmlns="http://www.w3.org/2000/svg"><path d="M2 19.493v-2.507l.388.035c1.521.136 2.898.924 3.708 2.124.535.792.797 1.525.881 2.467l.035.388H2.001zm7.48 1.994c-.124-1.847-.865-3.474-2.179-4.788a7.333 7.333 0 0 0-4.788-2.179l-.512-.034V9.5h.237c.43.001 1.378.1 1.95.203 2.913.526 5.519 2.05 7.441 4.356.78.934 1.582 2.303 2.045 3.489.465 1.19.824 3.021.826 4.214V22H9.514zm7.52.22c0-.783-.158-2.117-.354-2.982-.485-2.145-1.353-4.02-2.693-5.817-.56-.751-1.943-2.163-2.653-2.707-2.436-1.869-5.103-2.91-8.07-3.149A16.012 16.012 0 0 0 2.293 7H2V2h.296c.586 0 1.845.108 2.644.226 6.352.941 11.887 4.913 14.838 10.646a19.857 19.857 0 0 1 1.995 6.188c.119.8.227 2.058.227 2.644V22h-5z"/></svg>