<?xml version="1.0" encoding="UTF-8"?>
<svg version="1.1" viewBox="0 0 24 24" xmlns="http://www.w3.org/2000/svg">
 <path d="m21.21 12.757c0.46217 0.70814 0.73792 1.5728 0.73792 2.6388-0.02978 3.9358-3.2873 6.6045-10.294 6.6045-4.3831 0-9.1986-1.3344-9.6012-6.4257v-0.25337h6.5673l-1.4536 4.2862 4.7931-3.3321 4.7931 3.3321-1.2448-3.6825c-0.19382-0.38015-0.69325-0.58885-0.69325-0.58885-2.6165-1.4536-12.165-0.66348-12.165-7.0891 0-4.8379 5.0764-6.2467 9.057-6.2467 4.167 0 9.0571 0.93924 9.4968 5.956v0.19381h-7.3947l-1.8337-5.3969-1.8338 5.3969h-5.9262l3.3097 2.2811c0.96907-0.38764 2.0052-0.55908 3.0414-0.67097 1.1107-0.11919 2.2289-0.14157 3.347-0.06704 0.93923 0.059644 1.8711 0.19382 2.7879 0.41002 0.82743 0.19382 1.6697 0.40992 2.4226 0.81994 0.84232 0.46217 1.5803 1.051 2.0873 1.8338z"/>
</svg>
