<svg viewBox="0 0 24 24" xmlns="http://www.w3.org/2000/svg"><path style="fill:#000;stroke-width:.0100068" d="M11.041 16.325a.258.258 0 0 1-.168-.177 36.277 36.277 0 0 1-.058-1.09l-.047-1.045.012-.65.043-2.252c.043-2.26.04-2.164.056-2.221.06-.22.372-.236.464-.025.024.056.022-.016.067 2.136.019.914.04 1.97.05 2.35l.014.687-.055 1.053-.055 1.053-.026.054a.249.249 0 0 1-.297.127zm1.623 0a.285.285 0 0 1-.178-.166c-.02-.045-.02-.048-.02-4.022l-.001-3.978.024-.051c.036-.077.093-.115.286-.186.46-.171.974-.261 1.491-.261.261 0 .406.01.636.043a4.326 4.326 0 0 1 2.618 1.42c.36.407.647.891.832 1.403.11.305.194.661.228.978.01.096.015.111.028.105.062-.027.317-.107.413-.128a2.66 2.66 0 0 1 .889-.031 2.51 2.51 0 0 1 1.13.479c.125.093.367.336.46.46.248.333.401.686.473 1.093.025.144.036.5.019.657a2.477 2.477 0 0 1-.505 1.254 3.42 3.42 0 0 1-.431.432 2.496 2.496 0 0 1-.976.459c-.255.058-.043.055-3.867.054-2.846 0-3.52-.003-3.55-.013zm-6.583-.017c-.081-.043-.072.03-.16-1.18l-.08-1.085.08-1.67c.061-1.291.083-1.674.093-1.695.07-.133.246-.107.276.04.005.03.049.794.096 1.699l.087 1.646-.09 1.078c-.078.934-.092 1.081-.109 1.11-.043.073-.118.096-.193.057zm.802.005a.174.174 0 0 1-.082-.1c-.005-.016-.041-.51-.082-1.099l-.072-1.07.072-2.037c.06-1.653.076-2.045.088-2.079a.163.163 0 0 1 .308.002c.004.011.046.941.092 2.067l.084 2.046-.085 1.083c-.05.64-.089 1.092-.096 1.106a.212.212 0 0 1-.08.084.19.19 0 0 1-.147-.003zm.823-.002a.19.19 0 0 1-.103-.12c-.006-.02-.04-.507-.077-1.082l-.068-1.046.022-.705.066-2.197c.025-.82.05-1.515.055-1.544a.25.25 0 0 1 .03-.083c.046-.063.153-.088.228-.052.046.021.09.084.097.136.003.023.03.758.06 1.633l.077 2.197.021.605-.076 1.05a39.671 39.671 0 0 1-.087 1.089.2.2 0 0 1-.174.137.213.213 0 0 1-.07-.018zm.81 0a.196.196 0 0 1-.104-.12c-.006-.02-.039-.518-.073-1.107l-.064-1.071.023-.786.064-2.276.041-1.491.025-.052a.221.221 0 0 1 .052-.072.197.197 0 0 1 .296.071l.025.053.072 2.294.071 2.293-.071 1.054c-.04.58-.076 1.068-.08 1.087-.031.113-.166.173-.276.123zm.832 0a.226.226 0 0 1-.124-.153 41.26 41.26 0 0 1-.068-1.08L9.1 14.054l.057-2.216c.031-1.22.062-2.241.067-2.27.009-.044.02-.063.057-.102a.204.204 0 0 1 .162-.07c.087 0 .18.082.2.174.005.028.026.614.045 1.302l.065 2.206.029.956-.064 1.03a46.19 46.19 0 0 1-.074 1.086.206.206 0 0 1-.114.155.207.207 0 0 1-.182.007zm.814-.005a.24.24 0 0 1-.118-.159 40.225 40.225 0 0 1-.062-1.073l-.052-1.021.016-.645c.01-.355.032-1.31.052-2.122.02-.812.04-1.504.044-1.54a.23.23 0 0 1 .103-.168c.033-.022.055-.029.113-.031.083-.005.128.013.182.07.065.067.06-.01.103 1.548.022.785.05 1.756.06 2.158l.021.73-.06 1.04a37.353 37.353 0 0 1-.071 1.08.264.264 0 0 1-.125.138.263.263 0 0 1-.206-.005zm1.74.013a.267.267 0 0 1-.213-.244c-.003-.028-.03-.499-.06-1.046l-.054-.996.014-.7c.017-.794.07-3.415.085-4.208.012-.642.014-.677.033-.722a.338.338 0 0 1 .13-.14.267.267 0 0 1 .377.184c.006.029.015.275.02.548l.096 4.365.015.679-.06 1.022c-.041.683-.066 1.04-.076 1.074a.271.271 0 0 1-.307.184zm-6.633-.032a.124.124 0 0 1-.047-.063 29.781 29.781 0 0 1-.096-1.11l-.083-1.071.084-1.026c.089-1.1.085-1.07.144-1.113.053-.039.144-.02.179.037.018.03.031.151.116 1.068l.097 1.035-.096 1.082c-.074.831-.1 1.09-.112 1.113a.13.13 0 0 1-.186.048zm-.757-.014c-.02-.004-.082-.065-.083-.081l-.089-1.078-.089-1.071.089-1.106c.07-.883.092-1.112.105-1.137a.134.134 0 0 1 .102-.064c.036 0 .087.044.1.086.007.022.058.53.112 1.13l.1 1.092-.1 1.055c-.054.58-.105 1.073-.112 1.095a.116.116 0 0 1-.135.079zm-.82-.099a.11.11 0 0 1-.033-.052 44.29 44.29 0 0 1-.102-1.057l-.092-1.02.073-.831c.112-1.278.117-1.331.131-1.355.043-.068.157-.049.174.03.003.012.053.502.111 1.087l.106 1.064-.106 1.032a36.702 36.702 0 0 1-.117 1.06.11.11 0 0 1-.032.043c-.027.019-.086.019-.114 0zm-.78-.318-.026-.022-.1-.896-.1-.895.097-.886c.052-.487.1-.902.106-.922.018-.066.076-.087.125-.045l.026.022.115.914.114.913-.114.897-.114.897-.027.023c-.034.03-.067.03-.101 0zm-.74-.672a.1.1 0 0 1-.024-.032l-.074-.559-.074-.55.074-.565c.082-.619.08-.613.145-.619.072-.006.068-.019.167.614l.09.57-.09.56c-.077.487-.091.563-.11.583-.029.03-.072.03-.104-.002z"/></svg>