<?xml version="1.0" encoding="UTF-8" standalone="no"?>
<svg
   version="1.1"
   viewBox="0 0 24 24"
   id="svg4"
   sodipodi:docname="soundcloud.svg"
   inkscape:version="1.1 (1:1.1+202106032006+af4d65493e)"
   xmlns:inkscape="http://www.inkscape.org/namespaces/inkscape"
   xmlns:sodipodi="http://sodipodi.sourceforge.net/DTD/sodipodi-0.dtd"
   xmlns="http://www.w3.org/2000/svg"
   xmlns:svg="http://www.w3.org/2000/svg">
  <defs
     id="defs8">
    <linearGradient
       id="paint0_linear"
       x1="6.25"
       y1="36"
       x2="38.25"
       y2="36"
       gradientUnits="userSpaceOnUse"
       gradientTransform="matrix(0.57142857,0,0,0.57142857,-57.772066,-4.107422)">
      <stop
         stop-color="#F8B700"
         id="stop1048" />
      <stop
         offset=".51"
         stop-color="#F87900"
         id="stop1050" />
      <stop
         offset="1"
         stop-color="#AE35DD"
         id="stop1052" />
    </linearGradient>
    <linearGradient
       id="paint1_linear"
       x1="4.001"
       y1="45.05"
       x2="22.215"
       y2="45.05"
       gradientUnits="userSpaceOnUse"
       gradientTransform="matrix(0.57142857,0,0,0.57142857,-57.772066,-4.107422)">
      <stop
         stop-color="#FE4F45"
         id="stop1055" />
      <stop
         offset=".52"
         stop-color="#F87900"
         id="stop1057" />
      <stop
         offset="1"
         stop-color="#F8B700"
         id="stop1059" />
    </linearGradient>
    <linearGradient
       id="paint2_linear"
       x1="4"
       y1="28"
       x2="52"
       y2="28"
       gradientUnits="userSpaceOnUse"
       gradientTransform="matrix(0.57142857,0,0,0.57142857,-57.772066,-4.107422)">
      <stop
         stop-color="#FE4F45"
         id="stop1062" />
      <stop
         offset=".52"
         stop-color="#F87900"
         id="stop1064" />
      <stop
         offset="1"
         stop-color="#F8B700"
         id="stop1066" />
    </linearGradient>
  </defs>
  <sodipodi:namedview
     id="namedview6"
     pagecolor="#ffffff"
     bordercolor="#666666"
     borderopacity="1.0"
     inkscape:pageshadow="2"
     inkscape:pageopacity="0.0"
     inkscape:pagecheckerboard="0"
     showgrid="false"
     inkscape:zoom="14.979167"
     inkscape:cx="12.751043"
     inkscape:cy="12.984701"
     inkscape:window-width="1920"
     inkscape:window-height="1016"
     inkscape:window-x="1920"
     inkscape:window-y="27"
     inkscape:window-maximized="1"
     inkscape:current-layer="svg4" />
  <path
     style="fill:#000000;stroke-width:0.0100068"
     d="m 11.040981,16.325154 c -0.08465,-0.03017 -0.147646,-0.0967 -0.167505,-0.176869 -0.006,-0.02413 -0.03225,-0.514449 -0.0584,-1.089588 l -0.04752,-1.045706 0.01267,-0.65044 c 0.007,-0.357742 0.02627,-1.370926 0.04289,-2.251522 0.04266,-2.2609752 0.04023,-2.1643372 0.05605,-2.2215008 0.06057,-0.2187595 0.371681,-0.2355567 0.463366,-0.025017 0.02442,0.056076 0.02218,-0.015323 0.06699,2.1364438 0.01902,0.913618 0.0414,1.970734 0.04973,2.349149 l 0.01514,0.688027 -0.05529,1.05315 -0.05529,1.05315 -0.02598,0.05321 c -0.05344,0.10944 -0.186886,0.166771 -0.296859,0.127537 z m 1.622745,5.67e-4 c -0.08681,-0.03102 -0.138749,-0.07957 -0.178221,-0.166592 -0.02028,-0.04471 -0.0203,-0.04772 -0.02042,-4.022433 l -1.2e-4,-3.9776884 0.02384,-0.051205 c 0.03576,-0.076802 0.09351,-0.1143124 0.285976,-0.185767 0.460684,-0.1710294 0.974535,-0.261072 1.491201,-0.2613045 0.261421,-1.177e-4 0.406434,0.00974 0.636151,0.043227 1.011134,0.1474151 1.937125,0.6498587 2.618319,1.4207023 0.359282,0.4065653 0.646234,0.8903716 0.831836,1.4024926 0.110483,0.30485 0.193433,0.66097 0.227831,0.97812 0.0104,0.09587 0.01441,0.110908 0.02798,0.104839 0.06161,-0.02757 0.316436,-0.106677 0.412411,-0.128029 0.265172,-0.059 0.626246,-0.07165 0.889292,-0.03117 0.408687,0.0629 0.791474,0.225091 1.129884,0.478753 0.125098,0.09377 0.367197,0.335985 0.459904,0.460123 0.248576,0.332853 0.401737,0.68653 0.473248,1.092813 0.02546,0.14464 0.03573,0.50066 0.01899,0.657871 -0.04857,0.45593 -0.213464,0.865644 -0.504456,1.253421 -0.0774,0.103146 -0.328646,0.35439 -0.431792,0.431792 -0.310958,0.233346 -0.620654,0.37912 -0.975656,0.459243 -0.255285,0.05761 -0.04296,0.05464 -3.867317,0.05416 -2.845942,-3.56e-4 -3.519545,-0.0029 -3.548875,-0.01337 z m -6.5826928,-0.01806 c -0.0815,-0.04243 -0.07169,0.02982 -0.160379,-1.179715 l -0.07955,-1.084939 0.07963,-1.66908 c 0.06163,-1.291957 0.08281,-1.675195 0.09371,-1.696146 0.06915,-0.132905 0.245973,-0.106845 0.275126,0.04055 0.0057,0.02886 0.04931,0.793219 0.0969,1.698581 l 0.08652,1.646112 -0.08985,1.077507 c -0.07789,0.934 -0.09236,1.081794 -0.108705,1.109704 -0.04335,0.07404 -0.118577,0.09638 -0.193393,0.05743 z m 0.802144,0.0053 c -0.03596,-0.01773 -0.06797,-0.05698 -0.08194,-0.100496 -0.0049,-0.01538 -0.04173,-0.509594 -0.08176,-1.098258 l -0.07278,-1.070296 0.07268,-2.036803 c 0.05898,-1.652732 0.07553,-2.0447347 0.08778,-2.0788655 0.05247,-0.1461623 0.253673,-0.1448334 0.308164,0.00203 0.0041,0.011007 0.04521,0.9408855 0.0914,2.0663965 l 0.08398,2.046383 -0.08427,1.082961 c -0.04986,0.64069 -0.08907,1.092267 -0.09603,1.105747 -0.01726,0.03346 -0.05057,0.06779 -0.0813,0.08378 -0.03592,0.01869 -0.105253,0.01745 -0.145913,-0.0026 z m 0.822962,-0.0022 c -0.04983,-0.02264 -0.09109,-0.07017 -0.103501,-0.119242 -0.0052,-0.02039 -0.03976,-0.507639 -0.07689,-1.082777 l -0.06751,-1.045707 0.02154,-0.705477 c 0.01185,-0.388012 0.0418,-1.37643 0.06654,-2.196484 0.02475,-0.820054 0.04932,-1.5147858 0.05462,-1.543848 0.0053,-0.029062 0.01921,-0.066314 0.03095,-0.082783 0.04536,-0.063697 0.15179,-0.088468 0.226926,-0.052814 0.04595,0.021803 0.09052,0.08433 0.09746,0.1367269 0.003,0.022936 0.03029,0.7576861 0.06055,1.6327781 0.03026,0.875092 0.06453,1.86351 0.07614,2.196485 l 0.02112,0.605409 -0.07623,1.05071 c -0.04193,0.577891 -0.08083,1.067393 -0.08645,1.087784 -0.02014,0.07309 -0.102092,0.137605 -0.174796,0.137605 -0.01651,0 -0.04822,-0.0083 -0.07046,-0.01837 z m 0.810547,0 c -0.04924,-0.02237 -0.09056,-0.0695 -0.104533,-0.119238 -0.0058,-0.02039 -0.03886,-0.5189 -0.07363,-1.107798 l -0.06322,-1.070724 0.02252,-0.785531 c 0.01238,-0.432041 0.04112,-1.456484 0.06386,-2.276538 l 0.04134,-1.4910078 0.02513,-0.052294 c 0.01383,-0.028762 0.03723,-0.060784 0.05204,-0.07116 0.104325,-0.073165 0.242578,-0.040024 0.295787,0.070905 l 0.02521,0.052549 0.07156,2.2937788 0.07156,2.293779 -0.07144,1.053483 c -0.03929,0.579416 -0.07548,1.06847 -0.08042,1.086788 -0.03056,0.113336 -0.165008,0.173309 -0.275754,0.123004 z m 0.830975,1.37e-4 c -0.06134,-0.02794 -0.111178,-0.08941 -0.123981,-0.15293 -0.0059,-0.02946 -0.03622,-0.515115 -0.0673,-1.079246 l -0.05651,-1.025694 0.05716,-2.216498 c 0.03144,-1.219074 0.06171,-2.2405798 0.06727,-2.2700135 0.0082,-0.043221 0.01908,-0.06276 0.05673,-0.1015701 0.04848,-0.049975 0.09511,-0.070102 0.161697,-0.06979 0.08756,4.102e-4 0.181156,0.081865 0.199537,0.1736446 0.0057,0.028177 0.02637,0.614112 0.04605,1.302077 0.01968,0.687965 0.04874,1.680886 0.06457,2.206491 l 0.02879,0.955646 -0.06382,1.030697 c -0.0351,0.566883 -0.06851,1.055113 -0.07424,1.084955 -0.01405,0.07319 -0.05164,0.124518 -0.113916,0.155552 -0.06094,0.03037 -0.124864,0.03271 -0.182028,0.0067 z m 0.8146228,-0.0046 c -0.05876,-0.03103 -0.10497,-0.09324 -0.118208,-0.159138 -0.0058,-0.02902 -0.0338,-0.512076 -0.06215,-1.073455 l -0.05155,-1.02069 0.01609,-0.645436 c 0.0088,-0.35499 0.03195,-1.309635 0.05133,-2.121434 0.01939,-0.811799 0.03944,-1.504538 0.04456,-1.5394209 0.01114,-0.075894 0.04423,-0.1304431 0.102546,-0.1690349 0.03344,-0.022129 0.05556,-0.028198 0.113405,-0.031119 0.08237,-0.00416 0.127604,0.013246 0.182187,0.070107 0.06438,0.067074 0.05925,-0.010198 0.102897,1.5480738 0.02199,0.785002 0.04922,1.755999 0.06051,2.15777 l 0.02053,0.730494 -0.06053,1.040703 c -0.03329,0.572387 -0.06531,1.057908 -0.07116,1.078937 -0.01358,0.04885 -0.07291,0.114789 -0.124372,0.138229 -0.05877,0.02677 -0.150509,0.02472 -0.206066,-0.0046 z m 1.739448,0.0125 c -0.122176,-0.02914 -0.199835,-0.117839 -0.21301,-0.243301 -0.0029,-0.02812 -0.02983,-0.499179 -0.05972,-1.046799 l -0.05435,-0.995673 0.01474,-0.700473 c 0.01669,-0.793141 0.06941,-3.4142558 0.08464,-4.2078437 0.01231,-0.6416198 0.01389,-0.6762306 0.03302,-0.7218835 0.02071,-0.049434 0.0824,-0.1158007 0.130378,-0.1402776 0.150907,-0.076987 0.342816,0.017261 0.376412,0.1848587 0.0058,0.028533 0.01506,0.2747803 0.02076,0.5472145 0.01539,0.7353593 0.07764,3.5868516 0.0953,4.3656916 l 0.01538,0.678198 -0.06088,1.022951 c -0.04064,0.682767 -0.06563,1.03988 -0.07517,1.073857 -0.03536,0.126016 -0.181888,0.213442 -0.307524,0.183481 z M 5.2688842,16.28673 c -0.02157,-0.01449 -0.03884,-0.03735 -0.04722,-0.06254 -0.0078,-0.02357 -0.04678,-0.4748 -0.09581,-1.110425 l -0.08258,-1.070724 0.08324,-1.025693 c 0.08933,-1.100696 0.08531,-1.069773 0.144555,-1.113394 0.05265,-0.03877 0.143484,-0.01974 0.178838,0.03747 0.01777,0.02875 0.03107,0.15079 0.116356,1.067537 l 0.09629,1.035068 -0.09564,1.082042 c -0.07345,0.831045 -0.09937,1.089272 -0.111751,1.113204 -0.03486,0.06742 -0.123105,0.0899 -0.186278,0.04746 z m -0.75651,-0.01399 c -0.02046,-0.0042 -0.08286,-0.06496 -0.08318,-0.08109 -8.1e-5,-0.004 -0.04019,-0.489015 -0.08914,-1.077913 l -0.089,-1.070724 0.08884,-1.105747 c 0.07097,-0.883407 0.09218,-1.112181 0.105443,-1.137742 0.01686,-0.03249 0.06613,-0.06307 0.101614,-0.06307 0.03581,0 0.08679,0.04339 0.100328,0.08538 0.007,0.02183 0.05736,0.530681 0.111831,1.130768 l 0.09903,1.091067 -0.09894,1.055383 c -0.05442,0.580461 -0.10474,1.072988 -0.111831,1.094504 -0.01919,0.05822 -0.07543,0.09119 -0.134993,0.07915 z m -0.821017,-0.09865 c -0.01208,-0.0085 -0.02655,-0.0321 -0.03217,-0.05253 -0.0056,-0.02044 -0.05155,-0.495966 -0.102065,-1.056724 l -0.09184,-1.019561 0.07269,-0.83169 c 0.111638,-1.277274 0.116843,-1.330897 0.131444,-1.354275 0.04251,-0.06807 0.156485,-0.04914 0.173936,0.02889 0.0029,0.01286 0.05289,0.502333 0.111134,1.087725 l 0.105906,1.064347 -0.106011,1.032069 c -0.05831,0.567638 -0.111005,1.044632 -0.117109,1.059987 -0.0061,0.01535 -0.02049,0.03449 -0.03196,0.04253 -0.02723,0.01907 -0.0862,0.01868 -0.113956,-7.6e-4 z m -0.778496,-0.317704 -0.02659,-0.02287 -0.09986,-0.895254 -0.09986,-0.895253 0.09603,-0.885599 c 0.05282,-0.487079 0.100595,-0.902322 0.10617,-0.922761 0.018,-0.06601 0.07627,-0.08703 0.125011,-0.04511 l 0.02652,0.02281 0.11427,0.91355 0.114271,0.91355 -0.114114,0.896957 -0.114116,0.896958 -0.02667,0.02294 c -0.03386,0.02912 -0.06726,0.02914 -0.101055,7e-5 z m -0.740504,-0.67215 c -0.01351,-0.01351 -0.02463,-0.02814 -0.02469,-0.03252 -7.3e-5,-0.0044 -0.03332,-0.255626 -0.0739,-0.558331 l -0.07377,-0.550372 0.07427,-0.565382 c 0.08126,-0.618582 0.0799,-0.612762 0.144876,-0.618391 0.07171,-0.0062 0.06823,-0.01895 0.167053,0.613372 l 0.08906,0.569886 -0.08898,0.560308 c -0.07744,0.487597 -0.09177,0.563273 -0.110441,0.583152 -0.02855,0.03038 -0.07211,0.02966 -0.103484,-0.0017 z"
     id="path2464"
     sodipodi:nodetypes="cccccccssscccsccssccssssssscssssssssssssssccccccccssccccccsscsscccccccccccscsscscsccccccsscccscccscccccccccsscsccsscccscscscsssssscccsssccscscssccscsccccccccsssccscccssccsscscccccccsccscscsccccccccccsccccccccccccccccsccc" />
</svg>
