<svg viewBox="0 0 24 24" xmlns="http://www.w3.org/2000/svg"><path d="M12 2C6.48 2 2 6.48 2 12s4.48 10 10 10 10-4.48 10-10S17.52 2 12 2zm4.06 14.714c-.169 0-.274-.052-.43-.145-2.517-1.516-5.445-1.58-8.336-.988-.157.04-.363.105-.48.105a.628.628 0 0 1-.637-.637c0-.416.246-.613.549-.678 3.302-.73 6.677-.665 9.556 1.057.246.157.391.298.391.665a.61.61 0 0 1-.613.62zm1.085-2.645c-.21 0-.35-.093-.496-.17-2.52-1.491-6.278-2.092-9.62-1.185-.194.052-.3.105-.48.105-.432 0-.783-.351-.783-.782s.21-.718.625-.835a13.563 13.563 0 0 1 3.944-.549c2.617 0 5.145.65 7.137 1.835.326.194.455.444.455.795a.781.781 0 0 1-.782.786zm1.25-3.073c-.21 0-.339-.052-.52-.157C15.004 9.125 9.871 8.714 6.548 9.64c-.145.04-.327.105-.52.105a.93.93 0 0 1-.94-.951c0-.549.34-.86.702-.964 1.42-.415 3.008-.613 4.738-.613 2.943 0 6.028.613 8.282 1.927.315.182.52.432.52.912 0 .548-.443.94-.935.94z" fill="currentColor"/></svg>