<svg version="1.1" viewBox="0 0 24 24" xmlns="http://www.w3.org/2000/svg">
 <path d="m12 2c-5.5202 0-10 4.4798-10 10s4.4798 10 10 10 10-4.4798 10-10-4.4798-10-10-10zm4.0605 14.714c-.16935 0-.27419-.0524-.43145-.14516-2.5161-1.5161-5.4436-1.5806-8.3347-.9879-.15725.0403-.3629.10483-.47983.10483-.39113 0-.6371-.31048-.6371-.63709 0-.41533.24597-.61291.54839-.67742 3.3024-.72984 6.6774-.66532 9.5564 1.0564.24597.15726.39113.29839.39113.66532 0 .36694-.28629.62097-.61291.62097zm1.0847-2.6452c-.20968 0-.35081-.0927-.49597-.16936-2.5202-1.4919-6.2782-2.0927-9.621-1.1855-.19355.0524-.29839.10484-.47984.10484-.43145 0-.78226-.35081-.78226-.78226s.20968-.71774.625-.83468c1.121-.31451 2.2661-.54838 3.9436-.54838 2.6169 0 5.1452.64919 7.1371 1.8347.32662.19355.45565.44355.45565.79436-.004.43548-.34274.78629-.78226.78629zm1.25-3.0726c-.20968 0-.33871-.0524-.52016-.15726-2.871-1.7137-8.004-2.125-11.327-1.1976-.14516.0403-.32662.10484-.52016.10484-.53226 0-.93952-.41532-.93952-.95162 0-.54838.33871-.85887.70161-.9637 1.4194-.41533 3.0081-.61291 4.7379-.61291 2.9435 0 6.0282.61291 8.2822 1.9274.31452.18145.52017.43145.52017.91129 0 .54839-.44355.93952-.93549.93952z" fill="currentColor" stroke-width=".040323"/>
</svg>
