<svg version="1.1" viewBox="0 0 24 24" xml:space="preserve" xmlns="http://www.w3.org/2000/svg"><path d="m7.1011 2.0195c0.86459 0 1.7288 0.31486 2.3581 0.94402l9.774 9.7679c0.04167 0.05 0.08506 0.1083 0.10173 0.17498l2.6489 8.5411c0.04167 0.15 3.1e-4 0.30894-0.0997 0.40894-0.075 0.08333-0.18261 0.12411-0.29094 0.12411-0.04167 0-0.08448 3.9e-4 -0.12615-0.01633l-8.5411-2.6511c-0.06667-0.01667-0.12496-0.0497-0.17498-0.0997l-9.776-9.7657c-1.3-1.3-1.3-3.4181 0-4.7182l1.7679-1.7659c0.62918-0.62918 1.4934-0.94402 2.3581-0.94402zm0.4069 0.86061c-0.14167 0.19168-0.28211 0.39186-0.39877 0.6002 0.45 0.041667 0.89114 0.12564 1.3245 0.23398 0.075-0.10834 0.16671-0.20091 0.25839-0.30926-0.34167-0.28334-0.75076-0.45825-1.1841-0.52492zm-1.0336 0.050864c-0.40002 0.1-0.77423 0.28226-1.0742 0.5656 0.25834-0.025001 0.52477-0.048828 0.79144-0.048828 0.083334-0.17499 0.18278-0.35011 0.28281-0.51677zm0.25839 1.3652c-0.15 0.39167-0.24886 0.80996-0.30722 1.235 0.42502 0.008333 0.84088 0.04891 1.2492 0.13225 0.058335-0.41667 0.167-0.82538 0.33367-1.2004-0.40834-0.091667-0.84233-0.14183-1.2757-0.16683zm-0.88299 0.010166c-0.45834 0.025006-0.90742 0.091252-1.3408 0.19126-0.10834 0.43334-0.16605 0.88242-0.19939 1.3408 0.40834-0.125 0.83196-0.21653 1.2736-0.26653 0.05-0.43334 0.13319-0.85714 0.26653-1.2655zm2.9847 0.39064c-0.17501 0.36667-0.29181 0.77518-0.34181 1.2085 0.43334 0.14167 0.84146 0.33224 1.2248 0.5656 0-0.05002-0.01628-0.098325-0.01628-0.15666 0-0.40834 0.1078-0.78343 0.28281-1.1251-0.36668-0.19168-0.74952-0.35902-1.1495-0.49237zm-5.3265 0.68361c-0.29167 0.32501-0.49205 0.70066-0.59205 1.1007 0.17499-0.10836 0.35989-0.20944 0.54322-0.30111 0.0083331-0.26668 0.023829-0.5329 0.048829-0.79958zm7.1921 0.22379c-0.1 0.21668-0.16683 0.45172-0.16683 0.71006 0 0.10834 0.01773 0.20721 0.04273 0.30722 0.28334-0.15834 0.57485-0.30002 0.87486-0.43335-0.24168-0.20834-0.48407-0.4089-0.75075-0.58392zm-4.3254 0.75889c0 0.43335 0.058867 0.85104 0.15056 1.2594 0.48334 0.025001 0.94996 0.11633 1.3916 0.27466-0.16666-0.43334-0.25781-0.90016-0.28281-1.3835-0.40834-0.091689-0.82603-0.15056-1.2594-0.15056zm-0.83213 0.059002c-0.425 0.058355-0.84126 0.16555-1.2329 0.30722 0.025001 0.43334 0.07313 0.85899 0.1648 1.2757 0.37501-0.16666 0.77538-0.28347 1.2004-0.34181-0.083334-0.4-0.12391-0.81604-0.13225-1.2411zm2.9582 0.36622c0.05 0.38334 0.17553 0.7346 0.32552 1.0763 0.21668-0.19168 0.44029-0.36842 0.6653-0.53508-0.30834-0.20834-0.64081-0.39952-0.99082-0.54118zm3.1494 0.21769c-0.26668 0.125-0.52515 0.25711-0.77516 0.39877l5.7598 5.7598 0.9481-0.22583zm-8.1586 0.091556c-0.21668 0.125-0.41647 0.26504-0.61647 0.41505 0.066668 0.41667 0.24953 0.81783 0.54118 1.1678 0.1-0.08333 0.19278-0.18338 0.30111-0.25839-0.1-0.43334-0.18416-0.87447-0.22583-1.3245zm6.6753 0.74871c-0.45834 0.32501-0.89212 0.67626-1.2838 1.0763l6.5166 6.5248 0.04273-0.01633 0.6246-1.6846zm-4.2584 0.63478c-0.43334 0.05-0.83351 0.15847-1.2085 0.34181 0.13334 0.4 0.30069 0.78284 0.49235 1.1495 0.34167-0.17501 0.71676-0.28281 1.1251-0.28281 0.05 0 0.10664 0.01628 0.15666 0.01628-0.22503-0.38334-0.4156-0.79146-0.5656-1.2248zm0.88299 0.01628c0.14167 0.35001 0.33286 0.67415 0.54118 0.99082 0.17501-0.23334 0.35176-0.44882 0.53508-0.65716-0.34167-0.15833-0.69293-0.28366-1.0763-0.33367zm-0.47405 2.0244c-0.25834 0-0.49339 0.06683-0.71006 0.16683 0.17501 0.26668 0.37557 0.50907 0.58392 0.75074 0.13334-0.30001 0.28336-0.59152 0.43335-0.87486-0.1-0.025-0.19888-0.04272-0.30722-0.04272zm12.333 3.0336-1.7761 0.41709-0.71616 1.9409c-0.04166 0.10833-0.13358 0.20044-0.25024 0.24211l-1.9409 0.71616-0.41709 1.7761 4.9745 1.5402c0.35834-0.72501 0.94312-1.3078 1.6764-1.6744z"/></svg>
