<svg viewBox="0 0 24 24" xmlns="http://www.w3.org/2000/svg"><path d="M11.43 22c-.487 0-.61-.026-.972-.207-.228-.114-.496-.304-.596-.422a2.795 2.795 0 0 1-.324-.52c-.138-.298-.142-.415-.176-5l-.033-4.694-1.707-.626c-.938-.345-1.897-.727-2.13-.848-.252-.132-.62-.42-.909-.709-.37-.37-.549-.62-.755-1.05-.148-.311-.302-.726-.343-.923a5.856 5.856 0 0 1-.074-.937c0-.319.048-.763.107-.989.058-.225.209-.615.335-.865.127-.251.398-.638.604-.86.206-.223.568-.53.805-.685.236-.154.601-.34.81-.414s.61-.168.889-.21a3.113 3.113 0 0 1 1.017.001c.369.055 1.822.554 5.258 1.808 2.612.953 4.962 1.842 5.222 1.977.311.16.64.412.959.733.34.342.557.636.726.982.132.271.287.675.343.896.056.222.102.664.102.984 0 .319-.046.761-.102.983-.056.222-.207.616-.334.876s-.387.647-.576.859-.559.527-.821.702c-.263.174-.71.393-.996.486-.411.135-.658.17-1.194.17-.535.002-.79-.034-1.218-.168a30.475 30.475 0 0 1-1.2-.413l-.66-.243v3.805c0 3.215-.015 3.86-.103 4.153a2.376 2.376 0 0 1-.324.638c-.14.184-.376.37-.646.51-.38.196-.486.22-.984.22z"/></svg>