<svg viewBox="0 0 24 24" xmlns="http://www.w3.org/2000/svg"><path d="M21.5 5.23h-9.44a.49.49 0 0 0-.5.49v2.6H2.5a.5.5 0 0 0-.5.5v9.45a.5.5 0 0 0 .49.5h9.45a.49.49 0 0 0 .5-.49v-2.6h9.06a.49.49 0 0 0 .5-.49V5.67a.49.49 0 0 0-.5-.44Zm-10 12.6H2.94V9.26h8.56Zm6.41-5.36a.11.11 0 0 1-.11.11h-2a.11.11 0 0 1-.11-.11v-.61a.12.12 0 0 1 .11-.11h.5v-2.6h-.45A.12.12 0 0 1 15.7 9v-.6a.11.11 0 0 1 .11-.11h1.88a.11.11 0 0 1 .11.11V9a.11.11 0 0 1-.11.11h-.44c-.05 0-.05 0-.05.06v2.53c0 .05 0 .05.05.05h.5a.12.12 0 0 1 .11.11l.06.61Zm-12-.33v-.61a.11.11 0 0 1 .09-.11h2.46a.11.11 0 0 1 .11.11v.61a.12.12 0 0 1-.11.11H7.7c-.06 0-.06 0-.06.05v3.26a.11.11 0 0 1-.11.11h-.61a.11.11 0 0 1-.11-.11V12.3c0-.05 0-.05-.06-.05H6a.12.12 0 0 1-.13-.11Z" fill-rule="evenodd"/></svg>