<svg version="1.1" viewBox="0 0 24 24" xml:space="preserve" xmlns="http://www.w3.org/2000/svg"><path d="m12 4.9997s-6.2544 1e-5 -7.8135 0.41819c-0.86104 0.23049-1.5377 0.90715-1.7682 1.7682-0.41818 1.5591-0.41819 4.8139-0.41819 4.8139s1e-5 3.2548 0.41819 4.8139c0.23049 0.86103 0.90716 1.5378 1.7682 1.7682 1.5591 0.4182 7.8135 0.41819 7.8135 0.41819s6.2547 1e-5 7.8137-0.41819c0.86104-0.23045 1.5378-0.90717 1.7682-1.7682 0.4182-1.5591 0.41819-4.8139 0.41819-4.8139s-2e-3 -3.2548-0.41819-4.8139c-0.23045-0.86105-0.90716-1.5377-1.7682-1.7682-1.559-0.41818-7.8137-0.41819-7.8137-0.41819zm-2.0019 4.001 5.196 2.9996-5.196 2.9998z"/></svg>
