<svg viewBox="0 0 24 24" xmlns="http://www.w3.org/2000/svg"><path d="M8.2 20.988a3.066 3.066 0 0 1-.613-.063 3.346 3.346 0 0 1-.493-.202 2.887 2.887 0 0 1-.5-.336 2.795 2.795 0 0 1-.395-.458 3.09 3.09 0 0 1-.263-.496 3.211 3.211 0 0 1-.135-.568c-.036-.26-.03-.43.022-.735.043-.243.13-.515.224-.703.085-.168.271-.422.413-.565.142-.143.438-.369.658-.502.22-.133.53-.357.691-.497.161-.14.42-.4.577-.576a3.47 3.47 0 0 0 .43-.618c.13-.266.143-.328.123-.613a1.496 1.496 0 0 0-.122-.51 2.113 2.113 0 0 0-.214-.332 1.583 1.583 0 0 0-.366-.276c-.22-.121-.298-.139-.626-.139-.33 0-.407.018-.63.14a1.78 1.78 0 0 0-.5.451c-.136.17-.342.393-.458.495a2.56 2.56 0 0 1-.47.313 3.42 3.42 0 0 1-.53.197c-.15.04-.408.071-.573.071s-.428-.033-.585-.074a3.453 3.453 0 0 1-.57-.217 2.614 2.614 0 0 1-.591-.455 2.585 2.585 0 0 1-.434-.576 3.598 3.598 0 0 1-.2-.539 2.904 2.904 0 0 1-.07-.604c0-.183.032-.456.072-.608s.14-.405.223-.562a2.96 2.96 0 0 1 .437-.572c.174-.174.404-.345.587-.435.165-.08.46-.18.653-.222.23-.048.453-.064.644-.045.161.016.427.07.59.12.165.051.426.175.58.275.156.1.376.294.49.43s.287.338.385.447c.1.114.283.245.422.306.166.072.338.107.528.107s.361-.035.53-.108c.152-.067.326-.196.453-.337.113-.125.239-.327.28-.448a1.66 1.66 0 0 0 .073-.457 1.52 1.52 0 0 0-.064-.41 2.76 2.76 0 0 0-.285-.486 5.345 5.345 0 0 0-.47-.56 6.332 6.332 0 0 0-.522-.456 7.034 7.034 0 0 0-.611-.406 2.902 2.902 0 0 1-.578-.46 2.757 2.757 0 0 1-.354-.485 3.092 3.092 0 0 1-.281-.944 2.643 2.643 0 0 1 .02-.563 2.53 2.53 0 0 1 .237-.744c.134-.281.264-.467.458-.657.15-.145.4-.333.556-.416.156-.083.42-.183.585-.222.166-.04.42-.072.565-.072.145 0 .377.02.516.047.14.026.408.121.597.21a2.2 2.2 0 0 1 .638.458c.196.196.35.41.466.646.096.194.194.479.22.634.025.155.045.377.045.493 0 .116-.043.41-.094.652-.051.243-.093.55-.093.684s.022.368.05.521c.027.154.148.48.268.725.173.353.293.52.573.804.226.23.454.408.635.498.155.077.455.197.666.267.212.07.508.206.658.303a2.9 2.9 0 0 1 .483.412c.117.13.27.34.34.47.07.129.16.359.199.51.04.153.072.448.072.656s-.032.5-.07.649a3.024 3.024 0 0 1-.188.5 2.972 2.972 0 0 1-.4.534c-.184.197-.39.357-.598.465-.174.09-.486.22-.693.288a3.407 3.407 0 0 0-.666.313c-.16.104-.394.303-.523.444s-.307.388-.398.55c-.09.162-.212.432-.27.6-.085.244-.107.41-.108.822-.001.335.022.582.066.704.044.122.067.368.066.704-.002.457-.018.555-.136.845a3.46 3.46 0 0 1-.265.521 3.058 3.058 0 0 1-.384.423 3.05 3.05 0 0 1-.487.358c-.13.07-.36.16-.511.2a3.14 3.14 0 0 1-.678.067zm7.674-.018a3.344 3.344 0 0 1-.631-.026 3.277 3.277 0 0 1-.556-.209 2.225 2.225 0 0 1-.642-.46 2.693 2.693 0 0 1-.443-.587 3.203 3.203 0 0 1-.216-.585 2.897 2.897 0 0 1-.07-.538c0-.134.023-.356.051-.493a3.52 3.52 0 0 1 .21-.592c.112-.244.242-.427.452-.637a2.417 2.417 0 0 1 1.383-.696c.288-.042.468-.042.726-.003.223.035.474.119.722.242.267.132.457.269.64.46.142.15.316.371.386.492.07.12.168.356.216.524a2.748 2.748 0 0 1 0 1.374c-.047.166-.15.414-.228.55a2.736 2.736 0 0 1-.414.507c-.15.142-.349.304-.443.362a2.88 2.88 0 0 1-.446.2c-.17.06-.436.103-.697.115zm3.685-6.51a3.743 3.743 0 0 1-.406-.045 3.232 3.232 0 0 1-.495-.135 2.819 2.819 0 0 1-.542-.305 2.722 2.722 0 0 1-.477-.46 3.236 3.236 0 0 1-.304-.506 2.878 2.878 0 0 1-.172-.562 2.766 2.766 0 0 1-.024-.654c.02-.211.088-.496.175-.722.118-.304.203-.435.466-.712a2.76 2.76 0 0 1 .597-.486c.151-.08.399-.178.55-.218.152-.04.437-.072.632-.072s.48.033.632.072.405.14.561.223c.157.083.403.27.546.416.144.145.328.39.41.544.082.154.181.415.22.58.04.166.072.44.072.609 0 .169-.032.43-.071.583-.04.152-.14.404-.222.561a2.95 2.95 0 0 1-.433.571 2.184 2.184 0 0 1-.6.437c-.174.083-.46.182-.634.218a2.72 2.72 0 0 1-.48.063zm-3.833-6.571a2.96 2.96 0 0 1-.6-.068 3.508 3.508 0 0 1-.53-.215 2.226 2.226 0 0 1-.59-.461c-.16-.17-.35-.43-.42-.576s-.161-.399-.2-.562a2.94 2.94 0 0 1-.07-.555c0-.142.032-.394.071-.56a2.81 2.81 0 0 1 .211-.563c.078-.144.225-.361.329-.482a2.75 2.75 0 0 1 .468-.407c.154-.103.423-.235.598-.293.241-.081.425-.107.763-.107s.523.026.76.106c.173.058.437.184.587.281.15.097.374.289.496.425.123.137.285.378.36.537.076.158.164.433.194.61.031.178.045.474.032.658s-.061.44-.105.57a3.386 3.386 0 0 1-.217.477 2.867 2.867 0 0 1-.391.496c-.14.14-.377.32-.527.4a3.09 3.09 0 0 1-.561.219c-.16.04-.455.072-.658.07z"/></svg>