<?xml version="1.0" standalone="no"?>
<!DOCTYPE svg PUBLIC "-//W3C//DTD SVG 1.1//EN" "http://www.w3.org/Graphics/SVG/1.1/DTD/svg11.dtd" >
<svg xmlns="http://www.w3.org/2000/svg" xmlns:xlink="http://www.w3.org/1999/xlink" version="1.1" viewBox="-10 0 459 1000">
   <path fill="currentColor"
d="M318 231h-34l-52 -91l-52 91h-33l71 -112h29zM99 348l-2 -33c37 -23 76 -34 127 -34c84 0 145 49 145 140v344h-29l-4 -95c-28 72 -89 105 -150 105c-65 0 -127 -48 -127 -130c0 -111 99 -162 202 -162c30 0 51 2 74 7v-63c0 -82 -51 -115 -121 -115
c-35 0 -75 12 -115 36zM335 570v-50c-23 -4 -49 -6 -77 -6c-98 0 -163 57 -163 125c0 66 46 105 104 105c66 0 136 -60 136 -174z" />
</svg>
