<svg xmlns="http://www.w3.org/2000/svg" viewBox="-10 0 459 1000"><path fill="currentColor" d="M172 146c15 0 27 12 27 27s-12 27-27 27-27-12-27-27 12-27 27-27zm120 0c15 0 27 12 27 27s-12 27-27 27-27-12-27-27 12-27 27-27zM99 348l-2-33c37-23 76-34 127-34 84 0 145 49 145 140v344h-29l-4-95c-28 72-89 105-150 105-65 0-127-48-127-130 0-111 99-162 202-162 30 0 51 2 74 7v-63c0-82-51-115-121-115-35 0-75 12-115 36zm236 222v-50c-23-4-49-6-77-6-98 0-163 57-163 125 0 66 46 105 104 105 66 0 136-60 136-174z"/></svg>