<?xml version="1.0" standalone="no"?>
<!DOCTYPE svg PUBLIC "-//W3C//DTD SVG 1.1//EN" "http://www.w3.org/Graphics/SVG/1.1/DTD/svg11.dtd" >
<svg xmlns="http://www.w3.org/2000/svg" xmlns:xlink="http://www.w3.org/1999/xlink" version="1.1" viewBox="-10 0 753 1000">
   <path fill="currentColor"
d="M103 348l-2 -33c37 -23 78 -34 129 -34c72 0 131 41 149 113c30 -71 84 -113 149 -113c117 0 162 107 162 214c0 12 -1 28 -3 40h-300c0 137 59 209 158 209c41 0 80 -11 118 -33l2 32c-34 21 -77 32 -134 32c-76 0 -138 -46 -165 -135c-24 87 -109 135 -177 135
s-130 -48 -130 -130c0 -104 101 -149 204 -149c31 0 64 1 89 5v-54c0 -92 -60 -135 -132 -135c-35 0 -77 12 -117 36zM388 505h268c0 -130 -50 -192 -129 -192c-76 0 -132 74 -139 192zM352 567v-35c-25 -4 -63 -5 -92 -5c-98 0 -165 48 -165 112c0 66 43 105 101 105
c66 0 156 -65 156 -177z" />
</svg>
