<svg xmlns="http://www.w3.org/2000/svg" viewBox="-10 0 753 1000"><path fill="currentColor" d="m103 348-2-33c37-23 78-34 129-34 72 0 131 41 149 113 30-71 84-113 149-113 117 0 162 107 162 214 0 12-1 28-3 40H387c0 137 59 209 158 209 41 0 80-11 118-33l2 32c-34 21-77 32-134 32-76 0-138-46-165-135-24 87-109 135-177 135S59 727 59 645c0-104 101-149 204-149 31 0 64 1 89 5v-54c0-92-60-135-132-135-35 0-77 12-117 36zm285 157h268c0-130-50-192-129-192-76 0-132 74-139 192zm-36 62v-35c-25-4-63-5-92-5-98 0-165 48-165 112 0 66 43 105 101 105 66 0 156-65 156-177z"/></svg>