<?xml version="1.0" standalone="no"?>
<!DOCTYPE svg PUBLIC "-//W3C//DTD SVG 1.1//EN" "http://www.w3.org/Graphics/SVG/1.1/DTD/svg11.dtd" >
<svg xmlns="http://www.w3.org/2000/svg" xmlns:xlink="http://www.w3.org/1999/xlink" version="1.1" viewBox="-10 0 591 1000">
   <path fill="currentColor"
d="M502 766l-67 -80c-52 54 -122 89 -208 89c-100 0 -185 -68 -185 -163c0 -93 65 -161 153 -216c-57 -71 -79 -115 -79 -170c0 -93 74 -159 155 -159c84 0 134 67 134 132c0 75 -51 134 -164 204l196 235c40 -55 65 -128 69 -209h30c-3 85 -31 169 -80 232l88 105h-42z
M268 98c-59 0 -118 52 -118 123c0 54 14 87 72 158c112 -66 149 -120 149 -174c0 -70 -41 -107 -103 -107zM416 663l-202 -244c-93 61 -138 118 -138 184c0 86 71 141 154 141c75 0 139 -30 186 -81z" />
</svg>
