<svg xmlns="http://www.w3.org/2000/svg" viewBox="-10 0 459 1000"><path fill="currentColor" d="M232 100c36 0 65 27 65 64s-29 64-65 64-65-27-65-64 29-64 65-64zm0 24c-21 0-37 14-37 40s16 40 37 40 37-14 37-40-16-40-37-40zM99 348l-2-33c37-23 76-34 127-34 84 0 145 49 145 140v344h-29l-4-95c-28 72-89 105-150 105-65 0-127-48-127-130 0-111 99-162 202-162 30 0 51 2 74 7v-63c0-82-51-115-121-115-35 0-75 12-115 36zm236 222v-50c-23-4-49-6-77-6-98 0-163 57-163 125 0 66 46 105 104 105 66 0 136-60 136-174z"/></svg>