<?xml version="1.0" standalone="no"?>
<!DOCTYPE svg PUBLIC "-//W3C//DTD SVG 1.1//EN" "http://www.w3.org/Graphics/SVG/1.1/DTD/svg11.dtd" >
<svg xmlns="http://www.w3.org/2000/svg" xmlns:xlink="http://www.w3.org/1999/xlink" version="1.1" viewBox="-10 0 871 1000">
   <path fill="currentColor"
d="M622 817l3 30c-70 36 -141 54 -225 54c-178 0 -332 -124 -332 -331c0 -250 200 -414 407 -414c195 0 315 164 315 323c0 138 -77 235 -182 235c-51 0 -88 -38 -93 -92c-24 55 -80 98 -146 98c-55 0 -110 -47 -110 -138c0 -145 99 -249 229 -249c34 0 66 5 97 17l-38 240
c-9 59 20 98 71 98c60 0 140 -65 140 -201c0 -167 -108 -303 -296 -303c-171 0 -364 154 -364 376c0 216 157 313 313 313c74 0 144 -19 211 -56zM525 523l25 -150c-19 -6 -43 -9 -66 -9c-87 0 -191 76 -191 211c0 66 32 114 90 114c57 0 122 -43 142 -166z" />
</svg>
