<svg xmlns="http://www.w3.org/2000/svg" viewBox="-10 0 871 1000"><path fill="currentColor" d="m622 817 3 30c-70 36-141 54-225 54-178 0-332-124-332-331 0-250 200-414 407-414 195 0 315 164 315 323 0 138-77 235-182 235-51 0-88-38-93-92-24 55-80 98-146 98-55 0-110-47-110-138 0-145 99-249 229-249 34 0 66 5 97 17l-38 240c-9 59 20 98 71 98 60 0 140-65 140-201 0-167-108-303-296-303-171 0-364 154-364 376 0 216 157 313 313 313 74 0 144-19 211-56zm-97-294 25-150c-19-6-43-9-66-9-87 0-191 76-191 211 0 66 32 114 90 114 57 0 122-43 142-166z"/></svg>