<svg xmlns="http://www.w3.org/2000/svg" viewBox="-10 0 459 1000"><path fill="currentColor" d="M326 147v7c0 28-18 43-42 43-19 0-38-5-60-13-19-7-34-10-43-10-14 0-20 10-20 23h-23v-7c0-28 18-43 42-43 19 0 38 5 60 13 18 7 34 10 43 10 14 0 20-10 20-23h23zM99 348l-2-33c37-23 76-34 127-34 84 0 145 49 145 140v344h-29l-4-95c-28 72-89 105-150 105-65 0-127-48-127-130 0-111 99-162 202-162 30 0 51 2 74 7v-63c0-82-51-115-121-115-35 0-75 12-115 36zm236 222v-50c-23-4-49-6-77-6-98 0-163 57-163 125 0 66 46 105 104 105 66 0 136-60 136-174z"/></svg>