<?xml version="1.0" standalone="no"?>
<!DOCTYPE svg PUBLIC "-//W3C//DTD SVG 1.1//EN" "http://www.w3.org/Graphics/SVG/1.1/DTD/svg11.dtd" >
<svg xmlns="http://www.w3.org/2000/svg" xmlns:xlink="http://www.w3.org/1999/xlink" version="1.1" viewBox="-10 0 407 1000">
   <path fill="currentColor"
d="M101 39v-28c97 0 127 43 116 168l-14 156c-6 66 15 87 72 87v34c-57 0 -75 21 -70 87l12 156c10 125 -19 168 -116 168v-28c69 0 94 -32 88 -107l-16 -196c-4 -55 10 -86 55 -96c-49 -11 -60 -40 -55 -98l16 -194c6 -75 -19 -109 -88 -109z" />
</svg>
