<?xml version="1.0" standalone="no"?>
<!DOCTYPE svg PUBLIC "-//W3C//DTD SVG 1.1//EN" "http://www.w3.org/Graphics/SVG/1.1/DTD/svg11.dtd" >
<svg xmlns="http://www.w3.org/2000/svg" xmlns:xlink="http://www.w3.org/1999/xlink" version="1.1" viewBox="-10 0 605 1000">
   <path fill="currentColor"
d="M556 109l-4 33c-50 -29 -95 -43 -166 -43c-154 0 -289 128 -289 319c0 219 134 325 281 325c69 0 113 -14 166 -43l3 33c-49 27 -98 40 -163 42l-14 23c43 5 62 30 62 60c0 46 -39 68 -86 68c-16 0 -35 -4 -53 -13l5 -24c19 9 34 12 51 12c30 0 49 -18 49 -40
c0 -28 -17 -41 -73 -41l27 -45c-158 -8 -291 -131 -291 -349c0 -215 148 -359 324 -359c77 0 138 19 171 42z" />
</svg>
