<?xml version="1.0" standalone="no"?>
<!DOCTYPE svg PUBLIC "-//W3C//DTD SVG 1.1//EN" "http://www.w3.org/Graphics/SVG/1.1/DTD/svg11.dtd" >
<svg xmlns="http://www.w3.org/2000/svg" xmlns:xlink="http://www.w3.org/1999/xlink" version="1.1" viewBox="-10 0 422 1000">
   <path fill="currentColor"
d="M381 303l-4 33c-30 -15 -58 -24 -99 -24c-98 0 -189 69 -189 214c0 158 85 218 186 218c34 0 73 -10 100 -23l2 32c-30 14 -60 21 -101 22l-14 23c43 5 62 30 62 60c0 46 -39 68 -86 68c-16 0 -35 -4 -53 -13l5 -24c19 9 34 12 51 12c30 0 49 -18 49 -40
c0 -28 -17 -41 -73 -41l27 -46c-100 -7 -191 -83 -191 -242c0 -168 101 -251 222 -251c50 0 79 9 106 22z" />
</svg>
