<?xml version="1.0" standalone="no"?>
<!DOCTYPE svg PUBLIC "-//W3C//DTD SVG 1.1//EN" "http://www.w3.org/Graphics/SVG/1.1/DTD/svg11.dtd" >
<svg xmlns="http://www.w3.org/2000/svg" xmlns:xlink="http://www.w3.org/1999/xlink" version="1.1" viewBox="-10 0 461 1000">
   <path fill="currentColor"
d="M170 146c15 0 27 12 27 27s-12 27 -27 27s-27 -12 -27 -27s12 -27 27 -27zM290 146c15 0 27 12 27 27s-12 27 -27 27s-27 -12 -27 -27s12 -27 27 -27zM368 711l2 32c-34 21 -81 32 -138 32c-105 0 -184 -82 -184 -236c0 -156 83 -258 185 -258c117 0 165 107 165 214
c0 12 -1 28 -3 40h-311c0 137 59 209 162 209c41 0 84 -11 122 -33zM85 505h279c0 -130 -53 -192 -132 -192c-76 0 -140 74 -147 192z" />
</svg>
