<?xml version="1.0" standalone="no"?>
<!DOCTYPE svg PUBLIC "-//W3C//DTD SVG 1.1//EN" "http://www.w3.org/Graphics/SVG/1.1/DTD/svg11.dtd" >
<svg xmlns="http://www.w3.org/2000/svg" xmlns:xlink="http://www.w3.org/1999/xlink" version="1.1" viewBox="-10 0 466 1000">
   <path fill="currentColor"
d="M241 93c101 0 165 65 165 158c0 80 -60 136 -133 175c93 47 135 106 135 182c0 101 -80 167 -177 167c-98 0 -175 -64 -175 -159c0 -85 70 -156 144 -188c-72 -37 -125 -94 -125 -169c0 -97 77 -166 166 -166zM239 125c-65 0 -128 54 -128 123c0 78 56 132 125 164
c67 -25 134 -90 134 -155c0 -85 -49 -132 -131 -132zM234 442c-76 33 -142 91 -142 165c0 82 61 136 139 136c86 0 141 -62 141 -130c0 -78 -53 -131 -138 -171z" />
</svg>
