<?xml version="1.0" standalone="no"?>
<!DOCTYPE svg PUBLIC "-//W3C//DTD SVG 1.1//EN" "http://www.w3.org/Graphics/SVG/1.1/DTD/svg11.dtd" >
<svg xmlns="http://www.w3.org/2000/svg" xmlns:xlink="http://www.w3.org/1999/xlink" version="1.1" viewBox="-10 0 466 1000">
   <path fill="currentColor"
d="M71 373h22c16 -172 95 -280 228 -280c53 0 90 12 111 28l-4 35c-29 -22 -63 -31 -108 -31c-119 0 -180 107 -193 248h208l-5 28h-206c-2 20 -2 65 -1 88h195l-4 28h-189c17 163 90 226 187 226c45 0 84 -13 111 -33l5 33c-37 24 -69 32 -125 32
c-119 0 -197 -96 -210 -258h-39l4 -28h32c-1 -22 -1 -66 1 -88h-24z" />
</svg>
