<?xml version="1.0" standalone="no"?>
<!DOCTYPE svg PUBLIC "-//W3C//DTD SVG 1.1//EN" "http://www.w3.org/Graphics/SVG/1.1/DTD/svg11.dtd" >
<svg xmlns="http://www.w3.org/2000/svg" xmlns:xlink="http://www.w3.org/1999/xlink" version="1.1" viewBox="-10 0 533 1000">
   <path fill="currentColor"
d="M158 122h27c4 54 31 83 69 83s65 -29 69 -83h27c-4 62 -35 109 -96 109c-62 0 -92 -46 -96 -109zM438 291v447c0 146 -77 242 -212 242c-45 0 -102 -12 -136 -39l4 -34c41 27 89 43 138 43c107 0 172 -81 172 -207v-82c-23 61 -84 114 -160 114
c-120 0 -191 -104 -191 -242c0 -164 100 -252 202 -252c62 0 129 40 151 114l4 -104h28zM405 586v-113c-5 -92 -73 -161 -147 -161c-77 0 -169 64 -169 217c0 105 45 215 163 215c80 0 145 -79 153 -158z" />
</svg>
