<?xml version="1.0" standalone="no"?>
<!DOCTYPE svg PUBLIC "-//W3C//DTD SVG 1.1//EN" "http://www.w3.org/Graphics/SVG/1.1/DTD/svg11.dtd" >
<svg xmlns="http://www.w3.org/2000/svg" xmlns:xlink="http://www.w3.org/1999/xlink" version="1.1" viewBox="-10 0 770 1000">
   <path fill="currentColor"
d="M113 291l4 100c23 -67 75 -110 137 -110c78 0 125 50 140 114c24 -68 79 -114 141 -114c95 0 145 75 145 158v326h-34v-312c0 -81 -40 -139 -115 -139c-72 0 -132 85 -132 166v285h-34v-312c0 -81 -40 -139 -115 -139c-72 0 -132 85 -132 166v285h-34v-474h29z" />
</svg>
