<?xml version="1.0" standalone="no"?>
<!DOCTYPE svg PUBLIC "-//W3C//DTD SVG 1.1//EN" "http://www.w3.org/Graphics/SVG/1.1/DTD/svg11.dtd" >
<svg xmlns="http://www.w3.org/2000/svg" xmlns:xlink="http://www.w3.org/1999/xlink" version="1.1" viewBox="-10 0 466 1000">
   <path fill="currentColor"
d="M84 775l-2 -31c181 -19 289 -196 291 -379c-25 57 -81 102 -160 102c-101 0 -164 -86 -164 -185c0 -109 81 -189 182 -189c115 0 179 112 179 246c0 247 -144 420 -326 436zM225 125c-75 0 -137 63 -137 151c0 84 45 158 134 158c84 0 146 -71 146 -130
c0 -89 -52 -179 -143 -179z" />
</svg>
