<?xml version="1.0" standalone="no"?>
<!DOCTYPE svg PUBLIC "-//W3C//DTD SVG 1.1//EN" "http://www.w3.org/Graphics/SVG/1.1/DTD/svg11.dtd" >
<svg xmlns="http://www.w3.org/2000/svg" xmlns:xlink="http://www.w3.org/1999/xlink" version="1.1" viewBox="-10 0 509 1000">
   <path fill="currentColor"
d="M343 147v7c0 28 -18 43 -42 43c-19 0 -38 -5 -60 -13c-19 -7 -34 -10 -43 -10c-14 0 -20 10 -20 23h-23v-7c0 -28 18 -43 42 -43c19 0 38 5 60 13c18 7 34 10 43 10c14 0 20 -10 20 -23h23zM113 291l5 102c19 -63 78 -112 147 -112c101 0 154 72 154 164v320h-34v-306
c0 -90 -45 -146 -124 -146c-84 0 -143 93 -143 170v282h-34v-474h29z" />
</svg>
