<?xml version="1.0" standalone="no"?>
<!DOCTYPE svg PUBLIC "-//W3C//DTD SVG 1.1//EN" "http://www.w3.org/Graphics/SVG/1.1/DTD/svg11.dtd" >
<svg xmlns="http://www.w3.org/2000/svg" xmlns:xlink="http://www.w3.org/1999/xlink" version="1.1" viewBox="-10 0 821 1000">
   <path fill="currentColor"
d="M728 711l2 32c-34 21 -81 32 -138 32c-80 0 -141 -51 -167 -141c-27 84 -87 141 -178 141c-125 0 -197 -109 -197 -247c0 -139 72 -247 197 -247c92 0 153 58 179 144c28 -88 91 -144 167 -144c117 0 165 107 165 214c0 12 -1 28 -3 40h-311c0 137 59 209 162 209
c41 0 84 -11 122 -33zM247 744c90 0 161 -76 161 -216s-72 -216 -161 -216s-161 76 -161 216s72 216 161 216zM445 505h279c0 -130 -53 -192 -132 -192c-76 0 -140 74 -147 192z" />
</svg>
