<?xml version="1.0" standalone="no"?>
<!DOCTYPE svg PUBLIC "-//W3C//DTD SVG 1.1//EN" "http://www.w3.org/Graphics/SVG/1.1/DTD/svg11.dtd" >
<svg xmlns="http://www.w3.org/2000/svg" xmlns:xlink="http://www.w3.org/1999/xlink" version="1.1" viewBox="-10 0 722 1000">
   <path fill="currentColor"
d="M608 101l-45 58c55 62 88 153 88 262c0 213 -125 354 -295 354c-80 0 -149 -31 -201 -86l-55 72l-26 -20l59 -77c-45 -61 -72 -144 -72 -243c0 -213 125 -354 295 -354c71 0 134 25 184 69l42 -55zM156 634l363 -471c-44 -41 -100 -64 -163 -64c-151 0 -259 132 -259 322
c0 85 22 158 59 213zM541 188l-364 473c45 52 107 82 179 82c151 0 259 -132 259 -322c0 -96 -27 -176 -74 -233z" />
</svg>
