<?xml version="1.0" standalone="no"?>
<!DOCTYPE svg PUBLIC "-//W3C//DTD SVG 1.1//EN" "http://www.w3.org/Graphics/SVG/1.1/DTD/svg11.dtd" >
<svg xmlns="http://www.w3.org/2000/svg" xmlns:xlink="http://www.w3.org/1999/xlink" version="1.1" viewBox="-10 0 500 1000">
   <path fill="currentColor"
d="M446 291l-50 66c31 44 48 104 48 171c0 138 -72 247 -197 247c-54 0 -98 -20 -130 -54l-49 63l-24 -19l53 -69c-31 -44 -47 -102 -47 -168c0 -139 72 -247 197 -247c53 0 96 19 128 52l47 -61zM119 668l236 -308c-29 -32 -67 -48 -108 -48c-89 0 -161 76 -161 216
c0 58 12 104 33 140zM373 386l-236 308c29 33 68 50 110 50c89 0 161 -76 161 -216c0 -59 -13 -107 -35 -142z" />
</svg>
