<?xml version="1.0" standalone="no"?>
<!DOCTYPE svg PUBLIC "-//W3C//DTD SVG 1.1//EN" "http://www.w3.org/Graphics/SVG/1.1/DTD/svg11.dtd" >
<svg xmlns="http://www.w3.org/2000/svg" xmlns:xlink="http://www.w3.org/1999/xlink" version="1.1" viewBox="-10 0 722 1000">
   <path fill="currentColor"
d="M450 -55v7c0 28 -18 43 -42 43c-19 0 -38 -5 -60 -13c-19 -7 -34 -10 -43 -10c-14 0 -20 10 -20 23h-23v-7c0 -28 18 -43 42 -43c19 0 38 5 60 13c18 7 34 10 43 10c14 0 20 -10 20 -23h23zM356 67c170 0 295 141 295 354s-125 354 -295 354s-295 -141 -295 -354
s125 -354 295 -354zM356 99c-151 0 -259 132 -259 322s108 322 259 322s259 -132 259 -322s-108 -322 -259 -322z" />
</svg>
