<?xml version="1.0" standalone="no"?>
<!DOCTYPE svg PUBLIC "-//W3C//DTD SVG 1.1//EN" "http://www.w3.org/Graphics/SVG/1.1/DTD/svg11.dtd" >
<svg xmlns="http://www.w3.org/2000/svg" xmlns:xlink="http://www.w3.org/1999/xlink" version="1.1" viewBox="-10 0 504 1000">
   <path fill="currentColor"
d="M341 147v7c0 28 -18 43 -42 43c-19 0 -38 -5 -60 -13c-19 -7 -34 -10 -43 -10c-14 0 -20 10 -20 23h-23v-7c0 -28 18 -43 42 -43c19 0 38 5 60 13c18 7 34 10 43 10c14 0 20 -10 20 -23h23zM247 281c125 0 197 108 197 247c0 138 -72 247 -197 247s-197 -109 -197 -247
c0 -139 72 -247 197 -247zM247 312c-89 0 -161 76 -161 216s72 216 161 216s161 -76 161 -216s-72 -216 -161 -216z" />
</svg>
