<?xml version="1.0" standalone="no"?>
<!DOCTYPE svg PUBLIC "-//W3C//DTD SVG 1.1//EN" "http://www.w3.org/Graphics/SVG/1.1/DTD/svg11.dtd" >
<svg xmlns="http://www.w3.org/2000/svg" xmlns:xlink="http://www.w3.org/1999/xlink" version="1.1" viewBox="-10 0 752 1000">
   <path fill="currentColor"
d="M206 785h-34l384 -702h34zM195 93c79 0 126 74 126 176c0 101 -47 176 -126 176s-126 -75 -126 -176c0 -102 47 -176 126 -176zM195 121c-54 0 -94 50 -94 148s40 148 94 148c55 0 94 -50 94 -148s-40 -148 -94 -148zM547 423c79 0 126 74 126 176
c0 101 -47 176 -126 176s-126 -75 -126 -176c0 -102 47 -176 126 -176zM547 451c-54 0 -94 50 -94 148s40 148 94 148c55 0 94 -50 94 -148s-40 -148 -94 -148z" />
</svg>
