<?xml version="1.0" standalone="no"?>
<!DOCTYPE svg PUBLIC "-//W3C//DTD SVG 1.1//EN" "http://www.w3.org/Graphics/SVG/1.1/DTD/svg11.dtd" >
<svg xmlns="http://www.w3.org/2000/svg" xmlns:xlink="http://www.w3.org/1999/xlink" version="1.1" viewBox="-10 0 361 1000">
   <path fill="currentColor"
d="M38 749l3 -34c36 20 73 29 108 29c65 0 117 -41 117 -96c0 -51 -32 -76 -102 -105c-62 -26 -108 -58 -108 -130c0 -82 63 -132 141 -132c38 0 73 10 95 25l-3 35c-26 -18 -60 -29 -96 -29c-55 0 -102 41 -102 96c0 60 35 82 100 109c70 29 111 65 111 124
c0 82 -69 134 -154 134c-42 0 -84 -10 -110 -26z" />
</svg>
