<?xml version="1.0" standalone="no"?>
<!DOCTYPE svg PUBLIC "-//W3C//DTD SVG 1.1//EN" "http://www.w3.org/Graphics/SVG/1.1/DTD/svg11.dtd" >
<svg xmlns="http://www.w3.org/2000/svg" xmlns:xlink="http://www.w3.org/1999/xlink" version="1.1" viewBox="-10 0 465 1000">
   <path fill="currentColor"
d="M45 743l6 -33c44 22 91 33 134 33c98 0 169 -64 169 -151c0 -74 -40 -118 -136 -153c-89 -32 -152 -90 -152 -185c0 -117 85 -187 187 -187c55 0 100 16 125 32l-6 34c-30 -21 -74 -34 -120 -34c-85 0 -150 60 -150 148c0 81 41 127 134 162c98 37 156 85 156 179
c0 104 -87 187 -210 187c-46 0 -93 -10 -137 -32z" />
</svg>
