<?xml version="1.0" standalone="no"?>
<!DOCTYPE svg PUBLIC "-//W3C//DTD SVG 1.1//EN" "http://www.w3.org/Graphics/SVG/1.1/DTD/svg11.dtd" >
<svg xmlns="http://www.w3.org/2000/svg" xmlns:xlink="http://www.w3.org/1999/xlink" version="1.1" viewBox="-10 0 361 1000">
   <path fill="currentColor"
d="M292 306l-3 35c-26 -18 -60 -29 -96 -29c-55 0 -102 41 -102 96c0 60 35 82 100 109c70 29 111 65 111 124c0 67 -46 113 -108 129l-17 28c43 5 62 30 62 60c0 46 -39 68 -86 68c-16 0 -35 -4 -53 -13l5 -24c19 9 34 12 51 12c30 0 49 -18 49 -40c0 -28 -17 -41 -73 -41
l27 -45h-11c-42 0 -84 -10 -110 -26l3 -34c36 20 73 29 108 29c65 0 117 -41 117 -96c0 -51 -32 -76 -102 -105c-62 -26 -108 -58 -108 -130c0 -82 63 -132 141 -132c38 0 73 10 95 25z" />
</svg>
