<?xml version="1.0" standalone="no"?>
<!DOCTYPE svg PUBLIC "-//W3C//DTD SVG 1.1//EN" "http://www.w3.org/Graphics/SVG/1.1/DTD/svg11.dtd" >
<svg xmlns="http://www.w3.org/2000/svg" xmlns:xlink="http://www.w3.org/1999/xlink" version="1.1" viewBox="-10 0 499 1000">
   <path fill="currentColor"
d="M451 114l-3 34c-30 -17 -54 -23 -95 -23c-77 0 -136 70 -136 163c0 36 5 77 17 142h169v28h-162c5 31 8 62 8 81c0 107 -58 164 -115 193h307v32h-367v-24c66 -25 139 -91 139 -199c0 -27 -2 -52 -7 -83h-137v-28h129c-11 -61 -17 -107 -17 -138c0 -131 91 -199 172 -199
c45 0 72 7 98 21z" />
</svg>
