<?xml version="1.0" standalone="no"?>
<!DOCTYPE svg PUBLIC "-//W3C//DTD SVG 1.1//EN" "http://www.w3.org/Graphics/SVG/1.1/DTD/svg11.dtd" >
<svg xmlns="http://www.w3.org/2000/svg" xmlns:xlink="http://www.w3.org/1999/xlink" version="1.1" viewBox="-10 0 466 1000">
   <path fill="currentColor"
d="M91 176l-2 -36c36 -29 82 -47 139 -47c108 0 168 68 168 152c0 90 -78 160 -165 177c103 12 168 79 168 174c0 102 -89 179 -203 179c-54 0 -102 -12 -140 -41l3 -36c48 33 91 45 141 45c90 0 163 -61 163 -144c0 -92 -65 -156 -204 -156v-32c107 -4 201 -67 201 -158
c0 -75 -44 -128 -142 -128c-41 0 -87 17 -127 51z" />
</svg>
