<?xml version="1.0" standalone="no"?>
<!DOCTYPE svg PUBLIC "-//W3C//DTD SVG 1.1//EN" "http://www.w3.org/Graphics/SVG/1.1/DTD/svg11.dtd" >
<svg xmlns="http://www.w3.org/2000/svg" xmlns:xlink="http://www.w3.org/1999/xlink" version="1.1" viewBox="-10 0 806 1000">
   <path fill="currentColor"
d="M344 -90l85 117l-31 -2l-98 -118zM55 77l129 488c14 54 27 108 41 168c12 -60 25 -114 37 -168l117 -478h46l115 478c13 54 26 108 39 168c14 -60 29 -114 43 -168l127 -488h35l-184 688h-43l-116 -478c-13 -54 -26 -108 -39 -168c-13 60 -27 114 -40 168l-115 478h-43
l-184 -688h35z" />
</svg>
