<svg version="1.1" viewBox="0 0 24 24" xmlns="http://www.w3.org/2000/svg">
 <path d="m3.1648 4.9125c-0.64495 0.00478-1.1651 0.52864-1.1651 1.1736v9.2275c0.00418 0.56433 0.40675 1.0329 0.93923 1.1413v-9.0645c-2.26e-5 -0.84167 0.68531-1.5325 1.5269-1.5388a0.36585 0.36585 0 0 1 0.0034 0h14.899c-0.10912-0.53588-0.5825-0.93924-1.1498-0.93923zm1.3044 1.3044c-0.64495 0.00478-1.1651 0.52864-1.1651 1.1736v9.2275c0.00418 0.56433 0.40675 1.0329 0.93923 1.1413v-9.0645c-2.27e-5 -0.84167 0.68531-1.5325 1.5269-1.5388a0.36585 0.36585 0 0 1 0.0034 0h14.899c-0.10912-0.53588-0.5825-0.93924-1.1498-0.93923zm1.3044 1.3044a1.1739 1.1739 0 0 0-1.1651 1.1736v9.2275a1.1739 1.1739 0 0 0 1.1736 1.1651h2.9909s0.28697-0.549 0.4348-0.749a0.46958 0.46958 0 0 1 0.40083-0.16475h7.3745a0.49567 0.49567 0 0 1 0.39064 0.16475c0.11304 0.18262 0.4263 0.749 0.4263 0.749h3.0351a1.1653 1.1653 0 0 0 1.1651-1.1736v-9.2275a1.1739 1.1739 0 0 0-1.1736-1.1651zm3.5565 2.4967h7.9401a2.4522 2.4522 0 0 1 2.4695 2.4865 2.4696 2.4696 0 0 1-2.4695 2.4695h-7.9401c-3.3036 8.69e-4 -3.3036-4.9551 0-4.956zm7.2217 1.2619c-0.64382 0-1.2875 0.43965-1.2127 1.3197a1.1826 1.1826 0 0 0 0.25306 0.73881 1.8435 1.8435 0 0 1 0.99867-0.30402 2.5305 2.5305 0 0 1 0.94772 0.26156 1.1131 1.1131 0 0 0 0.22759-0.69635c0.07435-0.88002-0.57055-1.3197-1.2144-1.3197zm-6.4998 0.09341c-0.98872-0.0078-1.5675 1.1106-0.99188 1.9141a2.4696 2.4696 0 0 1 0.94942-0.26156c0.35653 0.0026 0.70127 0.10836 0.99867 0.30402a1.1826 1.1826 0 0 0 0.25306-0.73881 1.2087 1.2087 0 0 0-1.2093-1.2178z" stroke-width=".86959"/>
</svg>
