<svg viewBox="0 0 24 24" xmlns="http://www.w3.org/2000/svg"><path d="M7.107 21.924c-2.189-.106-3.106-.213-3.227-.376-.082-.11-.099-2.141-.082-9.72l.02-9.579.337-.057c.184-.032 1.499-.098 2.92-.148 4.203-.147 5.462.034 7.688 1.108 2.3 1.109 4.09 3.083 4.874 5.374.42 1.227.514 1.8.56 3.432.051 1.845-.063 2.749-.526 4.153-1.054 3.197-3.722 5.22-7.631 5.783-.895.13-2.656.14-4.933.03zm4.645-2.167c1.375-.211 2.383-.576 3.262-1.18 1.711-1.175 2.514-2.707 2.742-5.23.251-2.776-.496-5.147-2.136-6.785a8.067 8.067 0 0 0-3.745-2.143c-.625-.16-1.008-.195-2.464-.225-.948-.02-2.104-.009-2.569.023l-.845.057v2.583l2.24 1.081a990.872 990.872 0 0 0 6.844 3.283c.995.472 1.837.886 1.872.92.035.034-.78.462-1.809.951-1.03.49-2.63 1.255-3.557 1.701-.927.447-2.554 1.23-3.617 1.74l-1.932.927-.046 2.254.27.01c.148.007.695.037 1.215.069 1.723.104 3.46.09 4.275-.036zm-3.247-5.835c.904-.437 1.968-.946 2.365-1.133.718-.336.916-.548.756-.807-.096-.156-4.928-2.462-5.158-2.462-.074 0-.21.081-.303.18-.16.172-.168.28-.168 2.43 0 1.436.032 2.31.088 2.415.11.207.397.317.611.235.09-.035.904-.42 1.809-.858z"/></svg>