<svg viewBox="0 0 24 24" xmlns="http://www.w3.org/2000/svg"><path d="M12.294 21.992c-.35.01-.744.011-.876.002-.133-.01-.409-.037-.614-.062a13.99 13.99 0 0 1-.833-.136c-.253-.05-.755-.187-1.117-.306a11.456 11.456 0 0 1-1.27-.519c-.338-.166-.821-.44-1.074-.609a13.295 13.295 0 0 1-.811-.589 12.277 12.277 0 0 1-.855-.803 12.394 12.394 0 0 1-.773-.873c-.148-.194-.377-.52-.51-.723a10.63 10.63 0 0 1-.484-.856 12.921 12.921 0 0 1-.372-.811c-.07-.179-.19-.517-.265-.752s-.185-.668-.245-.964c-.06-.295-.131-.774-.16-1.063-.03-.313-.04-.827-.025-1.271.013-.41.056-.94.093-1.18.038-.239.128-.67.202-.96.073-.288.203-.714.288-.945.085-.231.28-.678.434-.992.153-.314.435-.807.627-1.095.191-.289.533-.742.76-1.007.228-.265.6-.65.827-.855.228-.205.532-.463.677-.574.145-.111.43-.31.635-.444.205-.133.56-.342.79-.464.228-.122.64-.311.913-.421a12 12 0 0 1 .942-.328c.245-.071.642-.168.883-.216.241-.047.674-.11.963-.14.324-.033.819-.044 1.293-.03.477.016.967.06 1.294.117.289.05.744.15 1.011.222.267.07.671.2.898.285.227.087.653.275.946.419.293.144.749.406 1.013.582.264.176.596.415.738.53.142.116.402.34.578.499s.484.476.684.706c.2.23.482.58.627.777.145.196.394.583.554.858.16.275.372.686.472.913.1.227.256.633.347.903.092.27.216.713.276.986.06.272.135.653.166.846.033.207.056.756.057 1.337 0 .752-.018 1.1-.079 1.468-.043.265-.118.65-.165.854-.048.205-.168.618-.268.919a11.107 11.107 0 0 1-1.074 2.214c-.142.217-.417.592-.61.833a12.31 12.31 0 0 1-.853.92c-.275.265-.687.622-.915.793-.229.171-.623.436-.876.589-.253.152-.665.374-.915.492a11.28 11.28 0 0 1-2.02.69c-.23.051-.614.12-.855.154s-.724.07-1.074.08zm-.024-2.276c.288-.011.652-.039.81-.061.158-.023.435-.072.615-.11a8.88 8.88 0 0 0 .789-.223 9.53 9.53 0 0 0 .943-.389 8.6 8.6 0 0 0 .855-.485c.205-.137.533-.385.73-.55s.507-.463.69-.663c.185-.2.463-.54.618-.758a8.92 8.92 0 0 0 1.03-2.058c.075-.241.177-.626.225-.855.051-.24.103-.714.122-1.118.019-.386.029-.74.022-.789a15.66 15.66 0 0 1-.04-.438 7.727 7.727 0 0 0-.139-.851 9.483 9.483 0 0 0-.243-.877 9.826 9.826 0 0 0-.344-.819 8.72 8.72 0 0 0-.518-.898c-.168-.25-.462-.633-.652-.85-.19-.217-.512-.535-.716-.706s-.534-.424-.735-.56a8.922 8.922 0 0 0-.833-.483 9.211 9.211 0 0 0-.86-.374 10.169 10.169 0 0 0-.82-.243 8.562 8.562 0 0 0-.94-.156 9.81 9.81 0 0 0-1.218-.028c-.46.017-.855.057-1.142.118-.24.05-.667.169-.946.262a8.84 8.84 0 0 0-.964.397 8.952 8.952 0 0 0-.785.448c-.18.12-.467.33-.635.464-.169.135-.446.384-.616.553s-.429.46-.576.646a9.067 9.067 0 0 0-.506.723c-.131.212-.32.557-.419.766-.1.21-.248.584-.331.833a9.626 9.626 0 0 0-.245.91 9.27 9.27 0 0 0-.133 1 8.64 8.64 0 0 0-.017.9c.011.197.05.559.086.804.036.244.115.629.175.853.06.225.18.587.266.804.085.218.245.563.354.768.11.205.298.52.42.7s.343.477.494.658c.15.181.389.44.53.575.14.136.373.341.518.457.144.116.44.328.657.47.217.143.592.356.833.473s.645.282.898.366.665.194.916.244c.25.051.635.11.854.131.22.021.635.03.923.019zm-.304-.899a8.079 8.079 0 0 1-.892-.064 8.657 8.657 0 0 1-.833-.174 7.653 7.653 0 0 1-.822-.284 8.643 8.643 0 0 1-.77-.383 8.447 8.447 0 0 1-.717-.473 8.062 8.062 0 0 1-.697-.613 8.06 8.06 0 0 1-.613-.698 8.165 8.165 0 0 1-.462-.698 9.185 9.185 0 0 1-.39-.79 7.685 7.685 0 0 1-.31-.92 8.516 8.516 0 0 1-.18-.985 7.119 7.119 0 0 1-.028-1.008c.014-.28.067-.72.118-.98.05-.26.16-.672.246-.916.085-.245.24-.615.345-.823.104-.208.314-.565.465-.793.18-.272.464-.603.825-.964.37-.37.696-.646.991-.842.242-.16.627-.38.855-.488.228-.108.592-.255.809-.327.217-.072.552-.164.745-.203a9.94 9.94 0 0 1 .845-.119c.36-.034.646-.033 1.052.003.306.028.704.081.884.12.18.038.486.119.68.18.193.06.557.207.808.325.251.118.655.346.898.507.303.2.614.465.991.843.333.334.658.71.825.957a8.4 8.4 0 0 1 .51.898c.13.271.285.64.345.821.06.18.152.536.204.789.051.253.105.716.118 1.03.014.336.002.757-.03 1.028a8.841 8.841 0 0 1-.178.956c-.07.273-.221.717-.338.987s-.323.668-.459.885a8.98 8.98 0 0 1-.602.82 7.635 7.635 0 0 1-.802.798c-.245.204-.65.494-.9.643a8.396 8.396 0 0 1-.92.46 7.643 7.643 0 0 1-.928.3c-.254.06-.629.13-.833.154a7.964 7.964 0 0 1-.855.041zm1.65-1.836c.012 0 .148-.051.303-.114.154-.063.38-.164.5-.225s.364-.209.542-.329c.177-.119.469-.357.65-.528.18-.171.439-.46.576-.642.137-.182.333-.493.436-.69s.238-.494.3-.658.15-.47.196-.681a6.46 6.46 0 0 0 .11-.833c.016-.25.006-.625-.022-.847a7.15 7.15 0 0 0-.136-.738 6.702 6.702 0 0 0-.24-.714 6.143 6.143 0 0 0-.384-.75 5.339 5.339 0 0 0-.713-.864c-.265-.269-.608-.573-.761-.676a6.995 6.995 0 0 0-.624-.359 6.323 6.323 0 0 0-.65-.276 7.258 7.258 0 0 0-.669-.182c-.257-.056-.555-.078-1.02-.078-.471 0-.764.022-1.03.08a6.087 6.087 0 0 0-.68.19c-.169.06-.445.178-.613.262a7.108 7.108 0 0 0-.614.356c-.169.111-.463.35-.653.531-.191.182-.464.487-.607.68s-.349.524-.456.738c-.108.214-.251.56-.32.768a5.317 5.317 0 0 0-.17.685c-.025.169-.059.403-.074.52l-.027.212.474-.252c.261-.138.493-.268.515-.288.023-.02.087-.2.144-.399.057-.2.17-.504.252-.678a5.38 5.38 0 0 1 .335-.591 5.067 5.067 0 0 1 1.113-1.117c.145-.098.381-.237.526-.31.144-.072.423-.183.62-.244.195-.062.53-.136.744-.165.226-.03.556-.04.787-.023.22.015.565.069.767.12.203.05.53.166.727.258.198.092.473.242.613.335.14.093.38.287.535.431a5.3 5.3 0 0 1 .498.548 4.807 4.807 0 0 1 .733 1.534c.048.205.1.55.116.767.016.228.006.557-.024.782a5.343 5.343 0 0 1-.164.745 5.075 5.075 0 0 1-.245.62 5.502 5.502 0 0 1-.298.508c-.092.135-.269.357-.393.493s-.378.362-.562.5a5.445 5.445 0 0 1-.63.406l-.296.152v.285c-.001.157-.014.389-.029.515s-.018.23-.007.23z"/></svg>