<svg version="1.1" viewBox="0 0 24 24" xmlns="http://www.w3.org/2000/svg">
 <path d="m10.785 20.351c1.0991-.01133 1.1161 1.6373.017 1.6486-1.0991.01133-1.1161-1.6373-.017-1.6486m4.2489-12.237c0 .24644-.19545.44189-.44189.44189-.24404-5.5e-6-.44188-.19784-.44188-.44189v-1.6996c0-.24644.19545-.44189.44188-.44189.24644 0 .44189.20395.44189.44189zm-3.0422-6.1099s-5.0732-.27193-5.0732 5.2941v9.0672h2.5069v-1.5976h-.50137v-7.5036c.00689-1.7203 1.358-3.1349 3.0762-3.2207h.15296c1.2322 0 2.3029.68832 2.8468 1.7081-.52085-.30953-1.1806.065448-1.1812.67133v1.6911c.000581.60588.66035.98086 1.1812.67133-.87251 1.6279-2.9302 2.1937-4.5123 1.2407v4.7418h-.49287v2.8298c0 .44585.36144.80729.80729.80729.44188 0 .79879-.35691.79879-.79879v-.51837c-.0048-.31642.25293-.57418.56935-.56935.31585-3.4e-5.5732.25354.57785.56935v1.4786c0 .22094.09348.41639.23794.56935.14446.14446.33991.23794.56086.23794.44189 0 .79879-.35691.79879-.79879v-1.4786c-.0048-.31642.25293-.57418.56935-.56935.23794 0 .45038.14446.52686.35691.02705.06761.04145.13962.04249.21244v4.0874c0 .22094.09348.41639.23794.56935.14446.14446.33991.23794.56086.23794.44253-.0047.79882-.36474.79879-.80729v-13.639c0-5.9145-4.9984-5.5426-4.9984-5.5426" stroke-width=".084978"/>
</svg>
