<svg viewBox="0 0 24 24" xmlns="http://www.w3.org/2000/svg"><path d="M10.785 20.351c1.1-.011 1.116 1.637.017 1.649-1.1.01-1.116-1.638-.017-1.649m4.249-12.237a.442.442 0 0 1-.884 0v-1.7c0-.246.196-.441.442-.441s.442.203.442.441zm-3.042-6.11s-5.074-.272-5.074 5.294v9.067h2.507v-1.597h-.501V7.264A3.238 3.238 0 0 1 12 4.044h.153A3.22 3.22 0 0 1 15 5.752a.782.782 0 0 0-1.181.67v1.692c0 .606.66.98 1.181.671a3.23 3.23 0 0 1-4.512 1.241v4.742h-.493v2.83c0 .446.361.807.807.807a.798.798 0 0 0 .799-.799v-.518a.56.56 0 0 1 .57-.57c.315 0 .572.254.577.57v1.478a.83.83 0 0 0 .238.57.79.79 0 0 0 .56.238.798.798 0 0 0 .8-.8v-1.478a.56.56 0 0 1 .569-.57c.238 0 .45.145.527.358.027.067.041.14.042.212v4.088c0 .22.094.416.238.569a.79.79 0 0 0 .561.238.807.807 0 0 0 .799-.807V7.544c0-5.914-4.998-5.542-4.998-5.542"/></svg>