<?xml version="1.0" encoding="UTF-8"?>
<svg version="1.1" viewBox="0 0 24 24" xmlns="http://www.w3.org/2000/svg">
 <style type="text/css">.st0{fill:#FFFFFF;}
	.st1{fill:#8DC742;}</style>
 <style type="text/css">.st0{fill:#FFFFFF;}
	.st1{fill:#8DC742;}</style>
 <g transform="matrix(.039063 0 0 .039063 2 2)">
  <path d="m490.67 85.333h-64v-64c0-11.776-9.536-21.333-21.334-21.333h-384c-11.797 0-21.333 9.557-21.333 21.333v426.67c0 11.776 9.536 21.333 21.333 21.333h64v21.333c0 11.776 9.536 21.333 21.333 21.333h384c11.797 0 21.333-9.557 21.333-21.333v-384c1e-3 -11.775-9.535-21.333-21.332-21.333zm-405.33 21.334v320h-42.666v-384h341.33v42.667h-277.33c-11.798-1e-3 -21.334 9.557-21.334 21.333zm320 213.33h-85.333v85.333c0 11.776-9.536 21.333-21.333 21.333s-21.333-9.557-21.333-21.333v-85.333h-85.334c-11.797 0-21.333-9.557-21.333-21.333s9.536-21.333 21.333-21.333h85.333v-85.334c0-11.776 9.536-21.333 21.333-21.333s21.333 9.557 21.333 21.333v85.333h85.333c11.797 0 21.333 9.557 21.333 21.333s-9.534 21.334-21.332 21.334z"/>
 </g>
</svg>
