<svg viewBox="0 0 24 24" xmlns="http://www.w3.org/2000/svg"><path d="M17.13 16.041c-.141-.123-.274-.24-.338-.354a.835.835 0 0 0-.018-.032c-.245-.393-.338-1.373-.393-1.958a35.454 35.454 0 0 0-.027-.278c-.126-.882-.439-2.153-1.214-3.202-.537-.726-1.203-1.217-1.984-1.46a1.168 1.168 0 0 0-2.313 0c-.78.243-1.447.734-1.983 1.46-.775 1.05-1.088 2.32-1.214 3.202l-.001.007a34.99 34.99 0 0 0-.026.271c-.056.586-.148 1.565-.395 1.961l-.015.026c-.066.118-.198.234-.339.357-.345.302-1.062.932-.471 2.03a.654.654 0 0 0 .577.344h10.048a.655.655 0 0 0 .577-.344c.591-1.098-.127-1.727-.472-2.03zm-3.989 3.472h-2.324a.32.32 0 0 0-.247.114c-.114.137-.082.319-.063.427l.002.009a1.509 1.509 0 0 0 1.49 1.251c.75 0 1.394-.56 1.497-1.301l.002-.012c.013-.068.043-.225-.068-.36a.364.364 0 0 0-.289-.128zm-5.267-16.1a.867.867 0 0 0-.995-.715 5.85 5.85 0 0 0-3.398 1.86A5.775 5.775 0 0 0 2.001 8.1a.867.867 0 1 0 1.731.104 4.057 4.057 0 0 1 1.04-2.488A4.055 4.055 0 0 1 7.159 4.41a.867.867 0 0 0 .715-.996zM6.805 9.415A2.16 2.16 0 0 1 7.36 8.09a2.16 2.16 0 0 1 1.27-.697.867.867 0 0 0-.28-1.71 3.928 3.928 0 0 0-2.281 1.249 3.93 3.93 0 0 0-.994 2.378.867.867 0 1 0 1.731.105zM21.998 8.1a5.775 5.775 0 0 0-1.48-3.542 5.85 5.85 0 0 0-3.397-1.86.867.867 0 1 0-.28 1.71 4.055 4.055 0 0 1 2.387 1.308 4.057 4.057 0 0 1 1.04 2.488.867.867 0 1 0 1.73-.104zm-4.066-1.168a3.929 3.929 0 0 0-2.282-1.25.867.867 0 1 0-.28 1.711 2.16 2.16 0 0 1 1.271.697c.333.37.524.828.554 1.325a.867.867 0 0 0 1.73-.105 3.93 3.93 0 0 0-.993-2.378z"/></svg>