<?xml version="1.0" encoding="UTF-8"?>
<svg version="1.1" viewBox="0 0 24 24" xmlns="http://www.w3.org/2000/svg">
 <g transform="matrix(.057801 0 0 .057801 2 2)">
  <path d="m261.75 242.92c-2.429-2.128-4.723-4.138-5.832-6.133-0.088-0.161-0.184-0.324-0.32-0.549-4.244-6.792-5.837-23.742-6.788-33.866-0.142-1.521-0.279-2.975-0.416-4.336-0.014-0.138-0.03-0.274-0.058-0.482-2.181-15.25-7.596-37.241-21.01-55.398-9.281-12.563-20.811-21.047-34.316-25.263-1.391-9.796-9.832-17.353-20.006-17.353s-18.617 7.559-20.006 17.355c-13.504 4.213-25.035 12.697-34.316 25.262-13.414 18.154-18.83 40.146-21.01 55.396l-0.016 0.122c-0.017 0.131-0.032 0.259-0.04 0.353-0.138 1.369-0.275 2.82-0.417 4.34-0.952 10.129-2.545 27.082-6.828 33.934-0.076 0.125-0.147 0.25-0.255 0.438-1.134 2.041-3.428 4.053-5.855 6.182-5.969 5.23-18.388 16.116-8.156 35.115 1.979 3.677 5.804 5.961 9.98 5.961h173.84c4.173 0 7.996-2.283 9.979-5.96 10.23-18.996-2.184-29.883-8.153-35.118z"/>
  <path d="m192.75 302.98h-40.214c-1.652 0-3.205 0.723-4.262 1.981-1.982 2.362-1.427 5.51-1.096 7.39l0.026 0.151c2.188 12.541 13.028 21.644 25.776 21.644 12.984 0 24.125-9.685 25.912-22.511l0.039-0.21c0.221-1.165 0.737-3.892-1.189-6.219-0.689-0.831-2.253-2.226-4.992-2.226z"/>
  <path d="m101.63 24.448c-1.338-8.176-9.046-13.723-17.227-12.379-22.604 3.701-43.479 15.134-58.781 32.191-15.357 17.122-24.208 38.308-25.595 61.269-0.5 8.269 5.799 15.378 14.068 15.877 0.308 0.019 0.614 0.028 0.918 0.028 7.871 0 14.478-6.135 14.958-14.097 0.975-16.132 7.193-31.017 17.982-43.045 10.907-12.159 25.187-19.98 41.296-22.618 8.178-1.339 13.72-9.051 12.381-17.226z"/>
  <path d="m83.133 128.28c0.519-8.591 3.831-16.518 9.576-22.924 5.809-6.475 13.414-10.64 21.993-12.045 8.175-1.339 13.718-9.051 12.379-17.227-1.338-8.175-9.045-13.723-17.227-12.379-15.182 2.485-29.202 10.163-39.478 21.619-10.167 11.334-16.271 25.946-17.189 41.146-0.5 8.269 5.799 15.378 14.068 15.877 0.308 0.019 0.613 0.028 0.918 0.028 7.871 1e-3 14.479-6.134 14.96-14.095z"/>
  <path d="m345.98 105.53c-1.387-22.961-10.238-44.147-25.596-61.27-15.301-17.057-36.176-28.489-58.78-32.19-8.172-1.346-15.889 4.203-17.227 12.379-1.339 8.175 4.203 15.888 12.379 17.227 16.109 2.639 30.39 10.459 41.296 22.617 10.79 12.029 17.008 26.914 17.982 43.046 0.48 7.962 7.087 14.097 14.959 14.097 0.304 0 0.61-0.01 0.918-0.028 8.27-0.5 14.569-7.61 14.069-15.878z"/>
  <path d="m275.64 85.321c-10.276-11.455-24.297-19.133-39.479-21.618-8.179-1.344-15.888 4.203-17.227 12.379s4.204 15.889 12.379 17.227c8.58 1.405 16.186 5.57 21.994 12.045 5.746 6.406 9.057 14.333 9.575 22.923 0.48 7.962 7.087 14.097 14.959 14.097 0.304 0 0.609-9e-3 0.917-0.027 8.27-0.499 14.568-7.606 14.069-15.876-0.915-15.201-7.02-29.814-17.187-41.15z"/>
 </g>
</svg>
