<svg viewBox="0 0 24 24" xmlns="http://www.w3.org/2000/svg"><path d="M19.857 2H4.143C2.96 2 2 2.96 2 4.143v15.714C2 21.04 2.96 22 4.143 22h15.714C21.04 22 22 21.04 22 19.857V4.143C22 2.96 21.04 2 19.857 2zM7.67 17.736a.891.891 0 1 1-1.544-.893l.638-1.103c.719-.218 1.308-.05 1.768.509zm6.2-2.406H5.75a.895.895 0 0 1-.893-.893c0-.49.402-.892.893-.892h2.277l2.92-5.054-.916-1.58a.894.894 0 0 1 .326-1.219.894.894 0 0 1 1.219.326l.397.687.397-.687a.891.891 0 1 1 1.544.893l-3.83 6.634h2.772c.902 0 1.407 1.058 1.014 1.786zm4.38 0h-1.295l.875 1.514a.894.894 0 0 1-.326 1.219.894.894 0 0 1-1.218-.326c-1.469-2.54-2.567-4.45-3.304-5.719-.746-1.295-.214-2.59.317-3.026.585 1.013 1.46 2.531 2.63 4.553h2.32a.893.893 0 1 1 0 1.786z"/></svg>