<svg viewBox="0 0 24 24" xmlns="http://www.w3.org/2000/svg"><path d="M11.989 2.728a.413.413 0 0 0-.32.044c-.22.118-.34.383-.238.603.691 1.617 3.116 7.19 5.145 10.94l1.666 2.29 1.208-.644-.99-2.662c-1.925-3.735-5.265-8.923-6.206-10.379a.437.437 0 0 0-.265-.192zm-.852 1.683L3.619 17.063l2.162 1.25L12.314 6.89zM2 11.285v2.857h2.757l1.671-2.857zm8.343 0-1.644 2.857h7.258c-.4-.785-1.015-2.014-1.43-2.857zm7.558 0c.357.657.828 1.556.971 1.842.029.028.114.202.142.26l.316.755H22v-2.857zm1.853 5.045-1.381.736 1.467 3.5c.265.616.972.91 1.56.588.589-.31.78-1.09.413-1.65zM3.426 17.343l-.779 3.722.193.086 2.793-2.528z"/></svg>