<?xml version="1.0" encoding="UTF-8"?>
<svg version="1.1" viewBox="0 0 24 24" xmlns="http://www.w3.org/2000/svg">
 <path d="m11.989 2.7278c-0.11714-0.028571-0.21801-0.013928-0.32087 0.044642-0.22 0.11714-0.34002 0.38267-0.23716 0.60267 0.69142 1.6171 3.1165 7.1902 5.145 10.94l1.6662 2.2901 1.2083-0.64406-0.99121-2.6617c-1.9243-3.7357-5.2639-8.9237-6.2053-10.379-0.058571-0.10286-0.16221-0.16252-0.26506-0.19252zm-0.85198 1.6834-7.5185 12.652 2.1624 1.25 6.5331-11.423zm-9.1368 6.874v2.8571h2.7567l1.6713-2.8571zm8.3425 0-1.6434 2.8571h7.2572c-0.4-0.78571-1.0143-2.0143-1.4286-2.8571zm7.5585 0c0.35714 0.65714 0.82812 1.5558 0.97097 1.8415 0.02857 0.02857 0.11373 0.20234 0.1423 0.25948l0.31528 0.75613h2.6702v-2.8571zm1.8527 5.0446-1.3811 0.7366 1.4676 3.4988c0.26428 0.61714 0.97113 0.91158 1.5597 0.58872 0.58856-0.31 0.78008-1.0904 0.41294-1.649zm-16.328 1.0128-0.77845 3.7221 0.19252 0.0865 2.7929-2.5279z" stroke-width="1.4286"/>
</svg>
