<svg viewBox="0 0 24 24" xmlns="http://www.w3.org/2000/svg"><path d="M10.486 5.724c-.256 0-.532.105-.818.303L2.694 10.83c-.45.31-.694.726-.694 1.172 0 .447.25.863.698 1.173l6.98 4.801c.287.198.574.299.83.299a.757.757 0 0 0 .643-.33c.16-.216.221-.521.221-.891V6.953c0-.758-.325-1.229-.886-1.229zm10.628 0c-.256 0-.532.105-.818.303L13.32 10.83c-.449.31-.693.726-.693 1.172 0 .447.249.863.698 1.173l6.98 4.801c.287.198.574.299.83.299a.757.757 0 0 0 .643-.33c.16-.216.221-.521.221-.891V6.953c0-.758-.325-1.229-.887-1.229z"/></svg>