<svg viewBox="0 0 24 24" xmlns="http://www.w3.org/2000/svg"><path d="M16.732 11.256c1.069-.545 1.737-1.505 1.58-3.103-.21-2.184-2.097-2.915-4.477-3.123l-.001-2.64c0-.009.005-.016.005-.025a.365.365 0 0 0-.365-.364h-1.111a.364.364 0 0 0-.365.364h-.008l.001 2.586c-.485 0-.98.01-1.472.02l-.001-2.574c0-.011.006-.02.006-.032A.365.365 0 0 0 10.16 2H9.048a.364.364 0 0 0-.364.365h-.009l.001 2.666c-.4.008-.791.016-1.174.016v-.01H4.958v.004a.365.365 0 0 0-.364.365v1.232c0 .201.163.365.364.365h.002v.005s1.362-.027 1.339-.003c.747 0 .99.434 1.061.808l.001 3.452v.013l.002 4.835c-.032.235-.17.61-.692.611.023.021-1.341 0-1.341 0v.002l-.007-.002a.36.36 0 0 0-.35.29H4.96l-.336 1.507.008.001c-.002.014-.008.025-.008.04 0 .193.152.348.343.36l-.001.005h2.4c.446 0 .886.006 1.317.009l.002 2.7h.001c0 .201.163.364.365.364h1.111a.365.365 0 0 0 .364-.364v-2.667c.505.01.995.014 1.473.013v2.654H12c0 .201.164.364.365.364h1.111a.365.365 0 0 0 .364-.364h.003l-.001-2.696c3.1-.18 5.27-.961 5.538-3.873.216-2.344-.887-3.39-2.647-3.811zm-6.17-4.117c1.042 0 4.311-.333 4.313 1.84 0 2.083-3.27 1.841-4.311 1.842zm.004 9.6-.001-4.06c1.25 0 5.169-.361 5.17 2.027.002 2.29-3.92 2.03-5.17 2.033z"/></svg>