<?xml version="1.0" encoding="UTF-8"?>
<svg version="1.1" viewBox="0 0 24 24" xmlns="http://www.w3.org/2000/svg">
 <path d="m16.732 11.256c1.0689-0.54479 1.737-1.5047 1.5802-3.1026-0.21075-2.1844-2.0967-2.9158-4.4773-3.1233l-0.0012-2.6403c5.83e-4 -0.00845 5e-3 -0.01574 5e-3 -0.024485 0-0.20142-0.16324-0.36436-0.36465-0.36465h-1.1115c-0.20113 2.915e-4 -0.36407 0.16323-0.36407 0.36436h-0.0085l0.0015 2.5861c-0.48504 0-0.98057 0.00962-1.4726 0.019821l-8.75e-4 -2.5739c8.75e-4 -0.011077 0.0064-0.020696 0.0064-0.032064 7e-6 -0.20142-0.16323-0.36436-0.36465-0.36465h-1.1115c-0.20113 2.915e-4 -0.36407 0.16323-0.36407 0.36436 0 2.915e-4 2.915e-4 5.83e-4 2.915e-4 8.745e-4h-0.00904l5.83e-4 2.6651c-0.39934 0.00816-0.7914 0.016615-1.1738 0.016615l-2.914e-4 -0.00962h-2.5435v0.00379c-0.20142 0-0.36465 0.16323-0.36465 0.36465v1.2318c0 0.20142 0.16323 0.36465 0.36465 0.36465 5.83e-4 0 8.745e-4 -2.915e-4 0.00146-2.915e-4v0.00554s1.3618-0.026525 1.3391-0.00233c0.7468 2.915e-4 0.99019 0.43374 1.061 0.80772l0.00146 3.4521 2.915e-4 0.01312 0.00146 4.8349c-0.032654 0.23494-0.17082 0.61008-0.69259 0.61096 0.023611 0.020696-1.3406-2.92e-4 -1.3406-2.92e-4l-2.915e-4 0.0017c-0.00233 0-0.00408-0.0015-0.00641-0.0015-0.17519 0-0.31452 0.12592-0.34979 0.29062l-0.014866-8.74e-4 -0.3358 1.5067 0.00787 0.0015c-0.00146 0.01341-0.00787 0.02507-0.00787 0.03906 0 0.19355 0.15216 0.34833 0.34279 0.36028l-8.745e-4 0.0055 2.3998-8.74e-4c0.44656 0 0.88613 0.0073 1.3175 0.0099l0.00204 2.6998h8.745e-4c-2.3e-6 0.20123 0.16323 0.36446 0.36465 0.36446h1.1115c0.20113-2.92e-4 0.36407-0.16353 0.36407-0.36465h5.83e-4l-0.0012-2.6668c0.50574 0.0102 0.99515 0.01399 1.4732 0.01283l5.83e-4 2.6543h8.74e-4c3.26e-4 0.20112 0.16327 0.36436 0.3644 0.36436h1.1115c0.20113-2.92e-4 0.36407-0.16353 0.36407-0.36465v-2.91e-4h0.0023l-5.83e-4 -2.6954c3.1-0.17927 5.2698-0.96104 5.538-3.8727 0.21629-2.3439-0.887-3.3897-2.647-3.8112zm-6.1694-4.1173c1.0409-5.829e-4 4.3108-0.33288 4.312 1.8399 2.91e-4 2.0836-3.2699 1.8416-4.3108 1.8422zm0.0032 9.6002-8.75e-4 -4.0602c1.2499 0 5.169-0.36086 5.1699 2.0273 0.0017 2.2899-3.9191 2.0308-5.169 2.0329z" stroke-width=".29149"/>
</svg>
