<svg viewBox="0 0 24 24" xmlns="http://www.w3.org/2000/svg"><path d="M18.021 2H5.979a1.03 1.03 0 0 0-1.032 1.031v13.56c0 .468.229.904.612 1.173l5.74 4.016c.42.293.982.293 1.402 0l5.74-4.016c.383-.269.611-.705.611-1.174V3.031c0-.57-.46-1.031-1.031-1.031zm-1.692 7.741-1.96 1.668.61 2.507c.115.473-.395.848-.806.591L12 13.141l-2.177 1.362c-.412.257-.921-.118-.807-.591l.611-2.507-1.96-1.668c-.367-.314-.176-.92.31-.954l2.555-.187.966-2.393a.539.539 0 0 1 1 0l.965 2.393 2.556.187a.544.544 0 0 1 .31.958z"/></svg>