<?xml version="1.0" encoding="UTF-8"?>
<svg version="1.1" viewBox="0 0 24 24" xmlns="http://www.w3.org/2000/svg">
 <style type="text/css">.st0{fill:#FFFFFF;}
	.st1{fill:#8DC742;}</style>
 <style type="text/css">.st0{fill:#FFFFFF;}
	.st1{fill:#8DC742;}</style>
 <g stroke-width=".06729">
  <path d="m21.094 4.2094c0.18202-0.12873 0.22515-0.38073 0.096359-0.56274s-0.38066-0.22522-0.56274-0.096359l-1.0083 0.71341c-0.18202 0.12873-0.22515 0.38073-0.09636 0.56274 0.07866 0.11116 0.20335 0.17058 0.32986 0.17058 0.08061 0 0.16203-0.02409 0.23289-0.074288z"/>
  <path d="m18.423 3.9774c0.04677 0.01763 0.09481 0.025974 0.14198 0.025974 0.16338 0 0.31714-0.099858 0.37797-0.26182l0.43469-1.1562c0.07846-0.20867-0.02712-0.44149-0.23585-0.51995-0.20867-0.078527-0.44156 0.027185-0.52002 0.23585l-0.43469 1.1562c-0.07839 0.20867 0.02718 0.44149 0.23592 0.51995z"/>
  <path d="m21.596 5.742h-0.0083l-1.2349 0.010363c-0.22293 0.00451-0.39997 0.17529-0.39546 0.39822 0.0044 0.2201 0.18431 0.39889 0.40354 0.39889h0.0083l1.2348-0.021062c0.22293-0.00458 0.39997-0.18384 0.39546-0.40677-0.0044-0.22011-0.18431-0.37965-0.40354-0.37965z"/>
  <path d="m19.105 11.902c-0.20678-0.16372-0.45158-0.27515-0.71038-0.3275 0.01709-0.03095 0.03304-0.06245 0.04811-0.09441l0.16203-0.16203c0.62405-0.62411 0.68959-1.6065 0.15235-2.2852-0.25362-0.32037-0.60568-0.53327-0.9967-0.61274 0.02792-0.051409 0.05269-0.10396 0.07516-0.15732 0.425-0.61563 0.41807-1.443-0.05262-2.0377-0.25368-0.32057-0.60588-0.53415-0.9971-0.61348 0.32299-0.5939 0.28174-1.3341-0.14972-1.8791-0.32622-0.41215-0.81481-0.64861-1.3406-0.64861-0.42103 0-0.81824 0.15046-1.1299 0.42594-0.04717-0.26775-0.15901-0.52634-0.33726-0.75156-0.32629-0.41215-0.81488-0.64854-1.3407-0.64861-0.4569 0-0.8858 0.17731-1.2077 0.49916l-4.0939 4.0939-0.015611-0.54639c-0.0072-0.93062-0.76657-1.6855-1.6989-1.6855-0.91541 0-1.664 0.72774-1.6977 1.635l-0.8173 5.9421-0.67175 0.78083c-0.4026 0.46814-0.37561 1.1763 0.06157 1.6124l0.99838 0.9967c-0.30778 0.46302-0.25388 1.0945 0.14844 1.4959l4.6879 4.6805c0.22401 0.22347 0.52136 0.34641 0.83749 0.34641 0.25954 0 0.51598-0.08714 0.72195-0.24527l0.97866-0.75149c0.94145-0.22239 1.9794-0.7276 3.0869-1.5026 0.96702-0.6768 2.0161-1.5786 3.118-2.6806l2.3303-2.3303c0.34365-0.34365 0.52452-0.82013 0.49626-1.3072-0.02826-0.4863-0.26357-0.93863-0.64571-1.2411zm-4.4462-7.7481c0.17516-0.17509 0.40589-0.26263 0.6367-0.26263 0.26344 0 0.52695 0.11406 0.70755 0.34224 0.28639 0.36182 0.23619 0.88688-0.0901 1.2131l-0.41565 0.41558c-0.06406 0.042729-0.12644 0.088419-0.18484 0.14016-0.047172-0.26781-0.15908-0.52641-0.33732-0.75156-0.21916-0.27683-0.51167-0.47392-0.83944-0.57378zm-2.8078-0.97415c0.17509-0.17509 0.40589-0.26263 0.6367-0.26263 0.26351 6.73e-5 0.52695 0.11412 0.70755 0.3423 0.28639 0.36182 0.23619 0.88681-0.0901 1.213l-4.7721 4.7228-0.015678-0.54633c-0.0041047-0.52654-0.24897-0.9967-0.62956-1.3058zm-8.9343 10.69c-0.1401-0.13983-0.14864-0.36404-0.019581-0.51409l0.82639-0.9607c4.037e-4 -4.71e-4 7.402e-4 -0.0011 8.075e-4 -0.0017l0.85593-6.2232c0-0.49027 0.40111-0.89139 0.89139-0.89139s0.89146 0.40111 0.89146 0.89139l0.023215 0.80983c-0.80667 0.11076-1.4348 0.78951-1.4656 1.6188l-0.81724 5.9422-0.23774 0.27643zm15.767 0.01-2.3302 2.3303c-1.9902 1.9902-4.0706 3.5878-5.8982 3.986-0.05551 0.01218-0.10773 0.03553-0.15282 0.07018l-1.0534 0.80896c-0.068232 0.05242-0.14932 0.07819-0.23006 0.07819-0.097099 0-0.19379-0.03735-0.26701-0.11042l-4.6881-4.6807c-0.14016-0.13976-0.14871-0.36397-0.019581-0.5141l0.82632-0.96063c4.71e-4 -5.38e-4 7.402e-4 -0.0011 8.747e-4 -0.0017l0.85586-6.2232c0-0.49027 0.40118-0.89146 0.89146-0.89146s0.89139 0.40118 0.89139 0.89146l0.042124 1.4685c7e-3 0.24399 0.20772 0.40286 0.41659 0.40286 0.10188 0 0.20577-0.03788 0.28995-0.122l4.7393-4.7393c0.17516-0.17516 0.40582-0.26263 0.6367-0.26263 0.26344 0 0.52695 0.11406 0.70755 0.34224 0.28639 0.36182 0.23612 0.88688-0.09017 1.2131l-3.2648 3.2648c-0.1695 0.16957-0.1695 0.44432 0 0.61375 0.08579 0.08579 0.19824 0.12873 0.31068 0.12873s0.22495-0.04293 0.31068-0.12873l4.1971-4.1971c0.17509-0.17516 0.40582-0.26263 0.6367-0.26263 0.26344 6.73e-5 0.52695 0.11412 0.70755 0.3423 0.28638 0.36175 0.23612 0.88681-0.09017 1.213l-4.1774 4.1774c-0.17179 0.17186-0.17179 0.4503 0 0.62216 0.08465 0.08465 0.19554 0.12698 0.30657 0.12698 0.11089 0 0.22186-0.04232 0.3065-0.12698l3.2845-3.2844c0.17516-0.17516 0.40589-0.26263 0.6367-0.26263 0.26344 0 0.52695 0.11406 0.70755 0.3423 0.28639 0.36175 0.23612 0.88681-0.09017 1.213l-3.2534 3.2535c-0.17576 0.17569-0.17576 0.46073 0 0.63643l0.0052 0.0053c0.08122 0.08122 0.18767 0.1218 0.29406 0.1218 0.10645 0 0.2129-0.04058 0.29406-0.1218l2.0169-2.0169c0.18175-0.18175 0.42507-0.27784 0.66758-0.27784 0.19292 0 0.3853 0.06083 0.54552 0.18767 0.42796 0.33874 0.45448 0.96918 0.07947 1.3441z"/>
 </g>
</svg>
