<svg viewBox="0 0 24 24" xmlns="http://www.w3.org/2000/svg"><path d="M21.094 4.21a.404.404 0 1 0-.466-.66l-1.009.714a.404.404 0 1 0 .467.659zm-2.671-.233a.402.402 0 0 0 .52-.235l.435-1.157a.404.404 0 1 0-.756-.284l-.435 1.156a.404.404 0 0 0 .236.52zm3.173 1.765h-.008l-1.235.01a.392.392 0 0 0-.396.399c.005.22.185.398.404.398h.008l1.235-.02a.4.4 0 0 0 .395-.407.39.39 0 0 0-.403-.38zm-2.491 6.16a1.682 1.682 0 0 0-.71-.328 1.38 1.38 0 0 0 .048-.094l.162-.162c.624-.624.69-1.606.152-2.285a1.698 1.698 0 0 0-.997-.613 1.76 1.76 0 0 0 .076-.157 1.714 1.714 0 0 0-.053-2.038 1.698 1.698 0 0 0-.997-.613 1.7 1.7 0 0 0-1.49-2.528c-.421 0-.819.15-1.13.426a1.7 1.7 0 0 0-1.678-1.4c-.457 0-.886.177-1.208.499L7.186 6.703l-.016-.547a1.7 1.7 0 0 0-1.698-1.685c-.916 0-1.664.728-1.698 1.635l-.817 5.942-.672.78a1.19 1.19 0 0 0 .061 1.613l.999.997a1.19 1.19 0 0 0 .148 1.496l4.688 4.68a1.186 1.186 0 0 0 1.56.101l.978-.751c.942-.222 1.98-.728 3.087-1.503.967-.676 2.016-1.578 3.118-2.68l2.33-2.33a1.71 1.71 0 0 0-.15-2.549zm-4.446-7.748a.898.898 0 0 1 .636-.263c.264 0 .527.114.708.343.286.361.236.886-.09 1.213l-.416.415a1.694 1.694 0 0 0-.185.14 1.7 1.7 0 0 0-1.177-1.325zM11.85 3.18a.898.898 0 0 1 .637-.263c.263 0 .527.114.707.342.287.362.236.887-.09 1.213L8.333 9.195l-.016-.546a1.697 1.697 0 0 0-.63-1.306zM2.917 13.87a.378.378 0 0 1-.02-.514l.827-.961v-.002L4.58 6.17a.892.892 0 0 1 1.783 0l.023.81c-.806.11-1.434.79-1.465 1.619l-.818 5.942-.237.276zm15.767.01-2.33 2.33c-1.99 1.99-4.071 3.588-5.899 3.986a.385.385 0 0 0-.153.07l-1.053.81a.377.377 0 0 1-.497-.033l-4.688-4.68a.378.378 0 0 1-.02-.515l.827-.96v-.002l.856-6.223c0-.49.402-.892.892-.892s.891.401.891.892l.042 1.468a.414.414 0 0 0 .707.281l4.74-4.74a.897.897 0 0 1 .636-.262c.263 0 .527.114.707.342.287.362.237.887-.09 1.213l-3.265 3.265a.434.434 0 0 0 .311.743.438.438 0 0 0 .31-.13l4.198-4.196a.897.897 0 0 1 .637-.263c.263 0 .527.114.707.343.287.361.236.886-.09 1.213l-4.177 4.177a.44.44 0 0 0 .306.75.433.433 0 0 0 .307-.128l3.284-3.284a.897.897 0 0 1 .637-.263c.263 0 .527.114.707.342.287.362.237.887-.09 1.213l-3.253 3.254a.45.45 0 0 0 0 .636l.005.006a.415.415 0 0 0 .588 0l2.017-2.017a.947.947 0 0 1 .668-.278c.193 0 .385.06.545.188a.902.902 0 0 1 .08 1.344z"/></svg>