<?xml version="1.0" encoding="UTF-8"?>
<svg version="1.1" viewBox="0 0 24 24" xmlns="http://www.w3.org/2000/svg">
 <g transform="matrix(.34204 0 0 .34204 2 2)">
  <path d="m7.501 41.344c-2.929-4.254-4.652-9.396-4.652-14.953 0-14.574 11.812-26.391 26.387-26.391 14.576 0 26.388 11.817 26.388 26.391 0 5.554-1.725 10.699-4.653 14.953 1.8-3.412 2.824-7.294 2.824-11.422 0-13.559-10.99-24.556-24.559-24.556s-24.559 10.997-24.559 24.556c0 4.128 1.031 8.01 2.824 11.422zm36.156-14.202c0-7.958-6.455-14.421-14.421-14.421-7.965 0-14.421 6.463-14.421 14.421 0 2.385 0.631 4.594 1.652 6.572-0.358-1.211-0.613-2.468-0.613-3.794 0-7.386 5.984-13.379 13.382-13.379s13.381 5.991 13.381 13.379c0 1.327-0.246 2.583-0.611 3.794 1.022-1.983 1.651-4.189 1.651-6.572zm-14.421-4.379c-2.418 0-4.375 1.959-4.375 4.375 0 2.42 1.957 4.377 4.375 4.377s4.375-1.957 4.375-4.377c0-2.416-1.957-4.375-4.375-4.375zm-10.207 35.71 5.195-24.8h10.026l5.199 24.8h-2.845l-0.867-4.17h-12.991l-0.871 4.17zm6.263-16.337h7.892l-1.19-5.688h-5.514zm-1.967 9.385h11.824l-1.383-6.602h-9.062z"/>
 </g>
</svg>
