<svg viewBox="0 0 24 24" xmlns="http://www.w3.org/2000/svg"><path d="M4.566 16.141a9.026 9.026 0 1 1 14.868 0A8.4 8.4 0 0 0 12 3.835a8.4 8.4 0 0 0-7.434 12.306zm12.366-4.857a4.934 4.934 0 0 0-9.865 0c0 .815.216 1.571.565 2.248a4.553 4.553 0 0 1-.21-1.298c0-2.526 2.047-4.576 4.578-4.576s4.577 2.049 4.577 4.576c0 .454-.084.883-.21 1.298.35-.679.565-1.433.565-2.248zM12 9.786a1.496 1.496 0 1 0 0 2.992 1.496 1.496 0 0 0 0-2.992zM8.509 22l1.777-8.482h3.429L15.493 22h-.973l-.297-1.426H9.78L9.482 22zm2.142-5.588h2.7l-.408-1.945h-1.886zm-.673 3.21h4.044l-.473-2.258h-3.1z"/></svg>