<svg viewBox="0 0 24 24" xmlns="http://www.w3.org/2000/svg" xmlns:xlink="http://www.w3.org/1999/xlink"><use transform="translate(-9.016 -9.593)" width="100%" height="100%" xlink:href="#use5511"/><path d="M12.659 2.66v6.043c0 .365-.294.66-.66.66a.658.658 0 0 1-.659-.66V2.66c0-.366.294-.66.66-.66.365 0 .659.294.659.66zm4.597 1.596L14.234 9.49c-.182.316-.566.434-.86.264-.295-.17-.385-.561-.202-.877l3.022-5.234c.182-.316.566-.434.86-.264.295.17.385.56.202.877zm3.133 3.579-5.234 3.022c-.316.182-.697.11-.854-.162-.157-.272-.03-.638.287-.82l5.234-3.022c.316-.183.697-.11.855.161.157.272.028.639-.288.821zm.952 4.686h-6.043c-.366 0-.66-.232-.66-.521 0-.289.294-.52.66-.52h6.043c.365 0 .66.231.66.52 0 .289-.295.521-.66.521zm-1.614 4.739-5.234-3.022c-.316-.182-.465-.513-.333-.74.131-.228.492-.265.808-.082l5.234 3.022c.316.182.465.513.334.74-.132.228-.493.265-.809.082zm-3.578 3.111-3.022-5.234c-.182-.316-.164-.666.042-.785.206-.119.518.04.7.357l3.022 5.233c.183.317.165.667-.041.786-.206.119-.518-.04-.701-.357zm-4.531.97v-6.043c0-.366.17-.66.382-.66s.383.294.383.66v6.043c0 .365-.17.66-.383.66-.211 0-.382-.295-.382-.66zm-4.53-1.4 3.022-5.234c.182-.316.46-.496.62-.403.162.094.145.423-.038.74l-3.021 5.233c-.183.317-.46.496-.621.403-.162-.093-.144-.423.038-.739zm-3.306-3.454 5.234-3.022c.316-.182.636-.217.716-.078.08.14-.11.398-.426.581L4.073 16.99c-.317.182-.636.217-.717.078-.08-.14.11-.398.426-.581zM2.66 11.756h6.043c.365 0 .66.109.66.244s-.295.244-.66.244H2.66c-.366 0-.66-.109-.66-.244s.294-.244.66-.244zm1.33-4.61 5.234 3.022c.317.182.527.406.473.5-.055.096-.354.025-.67-.158L3.793 7.49c-.316-.183-.527-.406-.472-.501.055-.095.353-.025.67.158zm3.385-3.301 3.022 5.233c.182.317.27.605.198.647-.073.042-.279-.179-.461-.495L7.112 3.996c-.182-.316-.271-.605-.198-.647.073-.042.278.18.46.496z"/></svg>