<?xml version="1.0" encoding="UTF-8"?>
<svg version="1.1" viewBox="0 0 24 24" xmlns="http://www.w3.org/2000/svg">
 <style type="text/css">.st0{fill:#FFFFFF;}
	.st1{fill:#8DC742;}</style>
 <path d="m11.982 2c2.7972 0 5.1788 0.97656 7.1428 2.9288 0.94 0.94031 1.6547 2.015 2.1428 3.2231 0.48781 1.2084 0.7325 2.4909 0.7325 3.8481 0 1.3691-0.24156 2.6519-0.72312 3.8478-0.48219 1.1962-1.1938 2.2531-2.1338 3.1697-0.97594 0.96406-2.0831 1.7025-3.3216 2.2144-1.2378 0.51188-2.5178 0.76781-3.8391 0.76781s-2.5862-0.2525-3.7947-0.75906c-1.2081-0.50562-2.2916-1.2378-3.25-2.1959s-1.6875-2.0388-2.1875-3.2412c-0.5-1.2025-0.75-2.47-0.75-3.8034 0-1.3216 0.25281-2.5922 0.75875-3.8125s1.2412-2.3125 2.2053-3.2769c1.9047-1.94 4.2438-2.9106 7.0175-2.9106zm0.03625 1.8038c-2.2856 0-4.2084 0.79781-5.7681 2.3928-0.78594 0.79781-1.39 1.6934-1.8125 2.6875-0.42312 0.99406-0.63406 2.0328-0.63406 3.1163 0 1.0716 0.21094 2.1044 0.63406 3.0978 0.42281 0.99469 1.0266 1.8816 1.8125 2.6612 0.78562 0.78 1.6722 1.3747 2.6609 1.7859 0.98781 0.41062 2.0238 0.61594 3.1072 0.61594 1.0712 0 2.1094-0.20781 3.1166-0.62469 1.0059-0.41719 1.9128-1.0178 2.7228-1.8034 1.5594-1.5238 2.3387-3.4344 2.3387-5.7325 0-1.1072-0.2025-2.1547-0.60719-3.1428-0.40406-0.98812-0.99375-1.8688-1.7669-2.6431-1.6081-1.6072-3.5422-2.4109-5.8041-2.4109zm-0.12531 6.5359-1.3397 0.69656c-0.14312-0.29719-0.31844-0.50594-0.52656-0.625-0.20844-0.11875-0.40188-0.17844-0.58062-0.17844-0.8925 0-1.3394 0.58906-1.3394 1.7678 0 0.53562 0.11312 0.96375 0.33906 1.2853 0.22625 0.32156 0.55969 0.4825 1.0003 0.4825 0.58344 0 0.99406-0.28594 1.2325-0.85719l1.2319 0.625c-0.26188 0.48844-0.625 0.87219-1.0894 1.1519-0.46375 0.28-0.97594 0.41969-1.5356 0.41969-0.89281 0-1.6134-0.27344-2.1609-0.82156-0.5475-0.5475-0.82125-1.3094-0.82125-2.2853 0-0.9525 0.27688-1.7081 0.83031-2.2678 0.55344-0.55938 1.2528-0.83938 2.0984-0.83938 1.2384-6.25e-4 2.125 0.48156 2.6609 1.4459zm5.7678 0-1.3216 0.69656c-0.14281-0.29719-0.31875-0.50594-0.52688-0.625-0.20875-0.11875-0.40844-0.17844-0.59812-0.17844-0.89281 0-1.3397 0.58906-1.3397 1.7678 0 0.53562 0.11344 0.96375 0.33937 1.2853 0.22594 0.32156 0.55906 0.4825 1.0003 0.4825 0.58281 0 0.99375-0.28594 1.2316-0.85719l1.25 0.625c-0.27344 0.48844-0.64281 0.87219-1.1066 1.1519-0.46438 0.28-0.97031 0.41969-1.5178 0.41969-0.905 0-1.6278-0.27344-2.1691-0.82156-0.5425-0.5475-0.81312-1.3094-0.81312-2.2853 0-0.9525 0.27656-1.7081 0.83062-2.2678 0.55312-0.55938 1.2525-0.83938 2.0978-0.83938 1.2381-6.25e-4 2.1197 0.48156 2.6431 1.4459z" stroke-width=".3125"/>
</svg>
