<svg viewBox="0 0 24 24" xmlns="http://www.w3.org/2000/svg"><path d="M11.982 2c2.797 0 5.179.977 7.143 2.929a9.617 9.617 0 0 1 2.143 3.223C21.755 9.36 22 10.642 22 12c0 1.37-.241 2.652-.723 3.848a9.181 9.181 0 0 1-2.134 3.17 10.277 10.277 0 0 1-3.321 2.214c-1.238.512-2.518.768-3.84.768s-2.586-.253-3.794-.76c-1.208-.505-2.292-1.237-3.25-2.195s-1.688-2.04-2.188-3.241A9.807 9.807 0 0 1 2 12c0-1.321.253-2.592.759-3.812S4 5.875 4.964 4.91C6.87 2.97 9.208 2 11.982 2zm.036 1.804c-2.285 0-4.208.798-5.768 2.393a8.597 8.597 0 0 0-1.812 2.687A7.876 7.876 0 0 0 3.804 12c0 1.072.21 2.105.634 3.098A8.284 8.284 0 0 0 6.25 17.76a8.24 8.24 0 0 0 2.661 1.786 8.03 8.03 0 0 0 3.107.616 8.09 8.09 0 0 0 3.117-.624 8.637 8.637 0 0 0 2.723-1.804c1.559-1.524 2.338-3.434 2.338-5.732a8.21 8.21 0 0 0-.607-3.143 7.995 7.995 0 0 0-1.767-2.643c-1.608-1.607-3.542-2.411-5.804-2.411zm-.125 6.536-1.34.696c-.143-.297-.318-.506-.526-.625a1.186 1.186 0 0 0-.58-.178c-.893 0-1.34.589-1.34 1.768 0 .535.113.963.339 1.285.226.321.56.482 1 .482.583 0 .994-.286 1.233-.857l1.231.625a2.938 2.938 0 0 1-2.625 1.572c-.892 0-1.613-.274-2.16-.822-.548-.547-.822-1.31-.822-2.285 0-.953.277-1.708.83-2.268.554-.56 1.253-.84 2.099-.84 1.238 0 2.125.482 2.66 1.447zm5.768 0-1.322.696c-.143-.297-.319-.506-.527-.625a1.214 1.214 0 0 0-.598-.178c-.893 0-1.34.589-1.34 1.768 0 .535.114.963.34 1.285.226.321.559.482 1 .482.583 0 .994-.286 1.232-.857l1.25.625a3.07 3.07 0 0 1-1.107 1.152c-.464.28-.97.42-1.518.42-.905 0-1.627-.274-2.169-.822-.542-.547-.813-1.31-.813-2.285 0-.953.277-1.708.83-2.268.554-.56 1.253-.84 2.099-.84 1.238 0 2.12.482 2.643 1.447z"/></svg>