<?xml version="1.0" encoding="UTF-8"?>
<svg version="1.1" viewBox="0 0 24 24" xmlns="http://www.w3.org/2000/svg">
 <style type="text/css">.st0{fill:#FFFFFF;}
	.st1{fill:#8DC742;}</style>
 <path d="m11.982 2c2.8088 0 5.1781 0.96406 7.1069 2.8928 1.94 1.9406 2.9109 4.3097 2.9109 7.1072 0 2.8097-0.95281 5.1488-2.8578 7.0175-2.0238 1.9884-4.4103 2.9825-7.16 2.9825-2.7028 0-5.0478-0.9825-7.0356-2.9469-1.9641-1.9644-2.9466-4.315-2.9466-7.0531 0-2.7378 0.9825-5.1069 2.9466-7.1069 1.9288-1.9291 4.2734-2.8931 7.0356-2.8931zm0.03562 1.8038c-2.2737 0-4.1962 0.79781-5.7678 2.3928-1.6312 1.6669-2.4466 3.6016-2.4466 5.8038 0 2.2144 0.80938 4.1312 2.4281 5.7494 1.6191 1.6194 3.5475 2.4284 5.7856 2.4284 2.2259 0 4.1669-0.81469 5.8216-2.4462 1.5716-1.5119 2.3572-3.4225 2.3572-5.7322 0-2.2738-0.79781-4.2078-2.3925-5.8034-1.595-1.595-3.5237-2.3925-5.7856-2.3925zm2.6788 5.7141v4.0891h-1.1425v4.8569h-3.1075v-4.8566h-1.1425v-4.0894c0-0.17875 0.0625-0.33031 0.18719-0.45531 0.12531-0.12469 0.27719-0.1875 0.45531-0.1875h4.1075c0.16656 0 0.31562 0.0625 0.44625 0.1875 0.13031 0.125 0.19625 0.27688 0.19625 0.45531zm-4.0897-2.5712c0-0.94 0.46406-1.4106 1.3931-1.4106s1.3928 0.47 1.3928 1.4106c0 0.92844-0.46438 1.3928-1.3928 1.3928s-1.3931-0.46438-1.3931-1.3928z" stroke-width=".3125"/>
</svg>
