<svg viewBox="0 0 24 24" xmlns="http://www.w3.org/2000/svg"><path d="M11.982 2c2.809 0 5.178.964 7.107 2.893 1.94 1.94 2.91 4.31 2.91 7.107 0 2.81-.952 5.149-2.857 7.018-2.024 1.988-4.41 2.982-7.16 2.982-2.703 0-5.048-.983-7.036-2.947C2.982 17.09 2 14.738 2 12c0-2.738.982-5.107 2.946-7.107C6.876 2.964 9.22 2 11.982 2zm.036 1.804c-2.274 0-4.197.798-5.768 2.393C4.619 7.864 3.803 9.798 3.803 12c0 2.215.81 4.132 2.428 5.75 1.62 1.62 3.548 2.428 5.786 2.428 2.226 0 4.167-.814 5.822-2.446C19.41 16.22 20.196 14.31 20.196 12c0-2.274-.798-4.208-2.393-5.804-1.595-1.595-3.523-2.392-5.785-2.392zm2.678 5.714v4.089h-1.142v4.857h-3.108v-4.857H9.304v-4.09a.62.62 0 0 1 .187-.454.622.622 0 0 1 .455-.188h4.108c.166 0 .316.063.446.188s.196.276.196.455zm-4.09-2.571c0-.94.465-1.41 1.394-1.41s1.393.47 1.393 1.41c0 .928-.465 1.393-1.393 1.393s-1.393-.465-1.393-1.393z"/></svg>