<svg viewBox="0 0 24 24" xmlns="http://www.w3.org/2000/svg"><path d="M19.096 4.9C17.16 2.967 14.791 2 11.986 2c-2.77 0-5.114.967-7.032 2.9C2.984 6.9 2 9.267 2 12c0 2.733.984 5.084 2.954 7.05C6.922 21.017 9.267 22 11.987 22c2.753 0 5.14-.992 7.159-2.975C21.048 17.142 22 14.8 22 12c0-2.8-.968-5.167-2.904-7.1zm-1.252 12.825c-1.652 1.633-3.596 2.45-5.832 2.45-2.236 0-4.164-.809-5.782-2.426-1.619-1.616-2.428-3.533-2.428-5.75 0-.852.122-1.661.364-2.43l5.12 2.28H8.159v1.557h2.343l.229.475v.754H8.159v1.557h2.572v2.26h2.488v-2.26h2.588v-1.44l3.265 1.455a7.767 7.767 0 0 1-1.228 1.518zm-2.301-3.09H13.22v-.754l.117-.228zm.264-2.07v-.716h-1.556l2.54-4.678h-2.654l-1.749 3.872-.928-.414-1.597-3.458H7.209L8.31 9.227l-3.3-1.47a9.164 9.164 0 0 1 1.246-1.558c1.569-1.6 3.487-2.4 5.757-2.4 2.27 0 4.197.8 5.782 2.4 1.602 1.584 2.403 3.517 2.403 5.8a8.58 8.58 0 0 1-.32 2.378z"/></svg>