<?xml version="1.0" encoding="UTF-8"?>
<svg version="1.1" viewBox="0 0 24 24" xmlns="http://www.w3.org/2000/svg">
 <style type="text/css">.st0{fill:#FFFFFF;}
	.st1{fill:#8DC742;}</style>
 <path d="m19.095 4.8997c-1.9353-1.9331-4.3053-2.8997-7.1081-2.8997-2.7703 0-5.1147 0.96594-7.0338 2.8997-1.9694 2.0003-2.9534 4.3666-2.9534 7.1003 0 2.7328 0.98406 5.0831 2.9534 7.0494 1.9691 1.9675 4.3131 2.9506 7.0338 2.9506 2.7528 0 5.1394-0.99219 7.1584-2.9753 1.9028-1.8834 2.8544-4.225 2.8544-7.0247-3.13e-4 -2.8003-0.96844-5.1675-2.9047-7.1003zm-1.2519 12.825c-1.6519 1.6331-3.5962 2.4491-5.8312 2.4491-2.2363 0-4.1641-0.80844-5.7825-2.4253s-2.4281-3.5331-2.4281-5.7491c0-0.9375 0.14812-1.8241 0.44062-2.6594l2.6497 1.1731h-0.19094v1.1884h0.93781c0 0.16812-0.016875 0.33531-0.016875 0.5025v0.285h-0.92094v1.1884h1.0878c0.15094 0.8875 0.48594 1.6075 0.9375 2.1766 0.9375 1.2391 2.4444 1.9081 4.0847 1.9081 1.0719 0 2.0416-0.31781 2.6116-0.63625l-0.40219-1.8575c-0.35156 0.18406-1.1378 0.43469-1.9075 0.43469-0.8375 0-1.6238-0.25062-2.1597-0.85344-0.25094-0.28438-0.435-0.67-0.55219-1.1719h3.6394l5.1716 2.2891c-0.35781 0.63438-0.8125 1.2209-1.3684 1.7578zm-6.5037-5.2359-0.02188-0.01687 0.0375 0.01687zm3.1138-0.7875h0.14969v-1.1884h-2.8344l-1.1516-0.50938c0.09906-0.22281 0.21656-0.42219 0.35344-0.57812 0.51906-0.63719 1.2553-0.90469 2.0591-0.90469 0.73656 0 1.4228 0.2175 1.8578 0.40156l0.46875-1.9088c-0.60312-0.26719-1.49-0.50156-2.5109-0.50156-1.5734 0-2.9128 0.63594-3.8672 1.7072-0.21188 0.24469-0.39562 0.51938-0.56219 0.80969l-3.2884-1.4553c0.31875-0.47781 0.69344-0.93656 1.1275-1.3744 1.5691-1.6 3.4875-2.4003 5.7575-2.4003 2.2688 0 4.1966 0.8 5.7819 2.4003 1.6012 1.5831 2.4022 3.5162 2.4022 5.8006 0 0.75219-0.085 1.4619-0.25375 2.1312z" stroke-width=".3125"/>
</svg>
