<svg viewBox="0 0 24 24" xmlns="http://www.w3.org/2000/svg"><path d="M11.982 2c2.81 0 5.178.964 7.107 2.893C21.03 6.82 22 9.19 22 12c0 2.81-.952 5.149-2.858 7.018C17.12 21.006 14.732 22 11.982 22c-2.714 0-5.06-.988-7.035-2.964C2.983 17.07 2 14.726 2 12c0-2.738.983-5.107 2.947-7.107C6.875 2.964 9.22 2 11.982 2zM4.25 9.304c-.297.821-.446 1.72-.446 2.696 0 2.215.809 4.132 2.428 5.75 1.63 1.608 3.56 2.411 5.785 2.411 2.25 0 4.19-.815 5.822-2.446.584-.56 1.041-1.143 1.375-1.75l-3.768-1.68a2.578 2.578 0 0 1-.955 1.545c-.507.399-1.105.629-1.795.688v1.535h-1.16v-1.535c-1.108-.012-2.12-.41-3.036-1.196l1.375-1.393c.654.607 1.398.91 2.232.91.345 0 .64-.077.884-.232.244-.154.366-.41.366-.768 0-.25-.09-.452-.268-.607l-.964-.41-1.178-.537-1.59-.696zm7.768-5.518c-2.274 0-4.196.803-5.768 2.41a9.57 9.57 0 0 0-1.107 1.34L8.964 9.25c.167-.524.482-.943.947-1.259.464-.315 1.006-.49 1.625-.527V5.93h1.161v1.535c.917.048 1.75.358 2.5.929l-1.304 1.34c-.56-.394-1.13-.59-1.714-.59-.31 0-.586.06-.83.179s-.366.321-.366.607c0 .083.03.166.089.25l1.267.572.875.393 1.608.714 5.124 2.285c.167-.702.25-1.416.25-2.143 0-2.297-.797-4.232-2.392-5.804-1.584-1.607-3.513-2.41-5.786-2.41z"/></svg>