<svg viewBox="0 0 24 24" xmlns="http://www.w3.org/2000/svg"><path d="M19.095 4.9C17.16 2.967 14.79 2 11.987 2c-2.77 0-5.115.966-7.034 2.9C2.983 6.9 2 9.266 2 12c0 2.733.984 5.083 2.953 7.05C6.923 21.016 9.266 22 11.987 22c2.753 0 5.14-.992 7.158-2.975C21.048 17.14 22 14.8 22 12c0-2.8-.969-5.168-2.905-7.1zm-1.252 12.825c-1.652 1.633-3.596 2.449-5.831 2.449-2.236 0-4.164-.809-5.783-2.425s-2.428-3.534-2.428-5.75c0-.937.148-1.824.44-2.659l2.65 1.173h-.19v1.188h.937c0 .169-.016.336-.016.503v.285H6.7v1.188h1.087c.151.888.486 1.608.938 2.177.937 1.24 2.444 1.908 4.085 1.908 1.072 0 2.041-.318 2.611-.636l-.402-1.858c-.351.184-1.138.435-1.907.435-.838 0-1.624-.25-2.16-.853-.251-.285-.435-.67-.552-1.172h3.64l5.17 2.289a7.69 7.69 0 0 1-1.368 1.758zm-6.504-5.236-.021-.017.037.017zm3.114-.788h.15v-1.188h-2.835l-1.151-.51c.099-.222.216-.422.353-.578.52-.637 1.256-.904 2.06-.904.736 0 1.422.217 1.857.401l.469-1.909c-.603-.267-1.49-.501-2.51-.501-1.574 0-2.914.636-3.868 1.707-.212.245-.396.52-.562.81L5.127 7.573A9.219 9.219 0 0 1 6.255 6.2c1.569-1.6 3.487-2.4 5.757-2.4 2.27 0 4.197.8 5.782 2.4 1.601 1.583 2.402 3.516 2.402 5.8 0 .753-.085 1.463-.253 2.132z"/></svg>