<?xml version="1.0" encoding="UTF-8"?>
<svg version="1.1" viewBox="0 0 24 24" xmlns="http://www.w3.org/2000/svg">
 <style type="text/css">.st0{fill:#FFFFFF;}
	.st1{fill:#8DC742;}</style>
 <path d="m19.096 4.8997c-1.9362-1.9331-4.305-2.8997-7.1094-2.8997-2.7697 0-5.1144 0.96656-7.0328 2.8997-1.9697 2.0003-2.9541 4.3669-2.9541 7.1003 0 2.7331 0.98438 5.0838 2.9541 7.0503 1.9684 1.9666 4.3131 2.9497 7.0328 2.9497 2.7538 0 5.1403-0.99156 7.1591-2.975 1.9028-1.8831 2.8541-4.2253 2.8541-7.025 0-2.8-0.96812-5.1669-2.9038-7.1003zm-1.2522 12.825c-1.6522 1.6334-3.5962 2.4497-5.8316 2.4497-2.2362 0-4.1638-0.80844-5.7822-2.4253-1.6188-1.6159-2.4278-3.5328-2.4278-5.7494 0-0.8525 0.12219-1.6619 0.36375-2.4303l5.1197 2.2797h-1.1266v1.5566h2.3425l0.22906 0.47531v0.75438h-2.5716v1.5562h2.5716v2.2606h2.4884v-2.2606h2.5878v-1.4388l3.265 1.4541c-0.33438 0.54344-0.74344 1.0497-1.2281 1.5178zm-2.3012-3.0894h-2.3228v-0.75438l0.11719-0.2275zm0.26469-2.0703v-0.71594h-1.5559l2.5391-4.6778h-2.6538l-1.7484 3.8713-0.92781-0.41313-1.5978-3.4581h-2.6534l1.1012 2.0556-3.3019-1.4703c0.34312-0.54406 0.7575-1.0634 1.2462-1.5572 1.5688-1.6 3.4875-2.4 5.7575-2.4 2.2688 0 4.1966 0.8 5.7819 2.4 1.6019 1.5834 2.4025 3.5166 2.4025 5.8003 0 0.84594-0.10688 1.6378-0.31906 2.3772z" stroke-width=".3125"/>
</svg>
