<?xml version="1.0" encoding="UTF-8"?>
<svg version="1.1" viewBox="0 0 24 24" xmlns="http://www.w3.org/2000/svg">
 <style type="text/css">.st0{fill:#FFFFFF;}
	.st1{fill:#8DC742;}</style>
 <path d="m11.982 2c2.8094 0 5.1784 0.96406 7.1072 2.8925 1.94 1.9288 2.9109 4.2978 2.9109 7.1075 0 2.81-0.9525 5.1488-2.8578 7.0181-2.0234 1.9881-4.4106 2.9819-7.1603 2.9819-2.7144 0-5.0594-0.98812-7.0353-2.9641-1.9641-1.9647-2.9466-4.3094-2.9466-7.0359 0-2.7381 0.9825-5.1072 2.9466-7.1072 1.9284-1.9284 4.2734-2.8928 7.0353-2.8928zm-7.7319 7.3038c-0.2975 0.82125-0.44656 1.7203-0.44656 2.6966 0 2.2144 0.80938 4.1312 2.4281 5.75 1.6309 1.6075 3.5597 2.4109 5.7856 2.4109 2.2503 0 4.1903-0.815 5.8219-2.4466 0.58344-0.55937 1.0412-1.1428 1.3744-1.7506l-3.7675-1.6784c-0.13156 0.63125-0.44969 1.1459-0.95531 1.5444-0.50688 0.39875-1.1047 0.62844-1.795 0.6875v1.5359h-1.1606v-1.5359c-1.1072-0.01125-2.1194-0.41-3.0356-1.1959l1.375-1.3928c0.65438 0.60688 1.3988 0.91031 2.2322 0.91031 0.345 0 0.64-0.07687 0.88437-0.23219 0.24375-0.15438 0.36625-0.41 0.36625-0.76781 0-0.25031-0.08969-0.4525-0.26812-0.60719l-0.96406-0.41094-1.1784-0.53594-1.5894-0.69656zm7.7678-5.5181c-2.2738 0-4.1963 0.80344-5.7678 2.4106-0.39312 0.39312-0.76219 0.83938-1.1072 1.3397l3.8216 1.7141c0.16656-0.52375 0.48188-0.94344 0.94656-1.2588 0.46375-0.31531 1.0056-0.49094 1.625-0.52688v-1.5359h1.1609v1.5359c0.91688 0.047813 1.75 0.35719 2.5 0.92844l-1.3038 1.3394c-0.56031-0.39281-1.1309-0.58906-1.7144-0.58906-0.30969 0-0.58625 0.059688-0.83 0.17844-0.24406 0.11906-0.36625 0.32156-0.36625 0.60719 0 0.083438 0.02969 0.16656 0.08906 0.25l1.2678 0.57188 0.875 0.39281 1.6075 0.71406 5.1241 2.2856c0.16719-0.7025 0.25031-1.4166 0.25031-2.1428 0-2.2978-0.7975-4.2322-2.3925-5.8041-1.5834-1.6072-3.5128-2.4106-5.7859-2.4106z" stroke-width=".3125"/>
</svg>
