<?xml version="1.0" encoding="UTF-8"?>
<svg version="1.1" viewBox="0 0 24 24" xmlns="http://www.w3.org/2000/svg">
 <style type="text/css">.st0{fill:#FFFFFF;}
	.st1{fill:#8DC742;}</style>
 <path d="m11.982 2c2.7972 0 5.1659 0.97031 7.1069 2.9109 1.94 1.9288 2.9109 4.2916 2.9109 7.0891 0 2.7981-0.95281 5.1428-2.8578 7.0356-2.0116 1.9762-4.3988 2.9644-7.16 2.9644-2.7028 0-5.0478-0.98219-7.0356-2.9469-1.9641-1.9638-2.9466-4.3144-2.9466-7.0528 0-2.7259 0.9825-5.0891 2.9466-7.0891 1.9403-1.9409 4.2856-2.9112 7.0356-2.9112zm0.03562 1.8038c-2.2737 0-4.1962 0.80375-5.7678 2.4109-1.6312 1.655-2.4466 3.5834-2.4466 5.7853 0 2.2266 0.80938 4.1428 2.4281 5.75 1.6191 1.6194 3.5475 2.4284 5.7856 2.4284 2.2259 0 4.1669-0.815 5.8216-2.4463 1.5716-1.5238 2.3572-3.4341 2.3572-5.7322 0-2.2853-0.79781-4.2141-2.3925-5.7853-1.5834-1.6078-3.5122-2.4109-5.7856-2.4109zm3.7681 5.8388v1.7144h-7.2678v-1.7144zm0 3.2147v1.7134h-7.2678v-1.7134z" stroke-width=".3125"/>
</svg>
