<svg viewBox="0 0 24 24" xmlns="http://www.w3.org/2000/svg"><path d="M11.982 2c2.809 0 5.181.968 7.116 2.902C21.032 6.836 22 9.202 22 12s-.953 5.137-2.858 7.018C17.13 21.005 14.743 22 11.982 22c-2.715 0-5.057-.983-7.027-2.947C2.985 17.09 2 14.738 2 12c0-2.738.982-5.107 2.946-7.107C6.876 2.964 9.22 2 11.982 2zm.027 1.804c-2.268 0-4.188.798-5.759 2.393C4.62 7.852 3.804 9.786 3.804 12c0 2.215.809 4.132 2.428 5.75 1.62 1.62 3.547 2.428 5.786 2.428 2.238 0 4.178-.814 5.821-2.446 1.572-1.524 2.357-3.435 2.357-5.732 0-2.286-.797-4.22-2.392-5.804-1.596-1.595-3.528-2.392-5.795-2.392zm-4.706 10.91V9.18h2.75c1.357 0 2.036.625 2.036 1.875 0 .215-.033.42-.098.616a1.88 1.88 0 0 1-.34.59c-.16.196-.401.357-.723.482-.321.125-.702.188-1.142.188h-1.09v1.785H7.303zm1.375-4.5v1.68h1.179c.285 0 .5-.081.643-.242a.866.866 0 0 0 .214-.598c0-.56-.297-.84-.893-.84H8.68zm3.786 4.5V9.18h2.143c.88 0 1.57.226 2.072.679.499.452.749 1.149.749 2.089s-.25 1.638-.75 2.09c-.5.452-1.19.678-2.071.678zm1.375-4.374v3.215h.804c.488 0 .842-.146 1.062-.438.22-.292.33-.681.33-1.17 0-.488-.11-.878-.33-1.17-.22-.291-.58-.437-1.08-.437z"/></svg>