<?xml version="1.0" encoding="UTF-8"?>
<svg version="1.1" viewBox="0 0 24 24" xmlns="http://www.w3.org/2000/svg">
 <style type="text/css">.st0{fill:#FFFFFF;}
	.st1{fill:#8DC742;}</style>
 <path d="m11.982 2c2.8088 0 5.1812 0.9675 7.1156 2.9019 1.9347 1.9344 2.9022 4.3003 2.9022 7.0981 0 2.7981-0.95281 5.1366-2.8578 7.0175-2.0116 1.9884-4.3988 2.9825-7.16 2.9825-2.7147 0-5.0569-0.9825-7.0269-2.9469-1.9706-1.9644-2.9553-4.315-2.9553-7.0531 0-2.7378 0.9825-5.1069 2.9466-7.1069 1.9288-1.9291 4.2734-2.8931 7.0356-2.8931zm0.02688 1.8038c-2.2678 0-4.1878 0.79781-5.7587 2.3928-1.6312 1.655-2.4466 3.5894-2.4466 5.8038 0 2.2144 0.80938 4.1312 2.4284 5.7494 1.6191 1.6194 3.5475 2.4284 5.7856 2.4284 2.2381 0 4.1784-0.81469 5.8216-2.4462 1.5716-1.5241 2.3572-3.4347 2.3572-5.7322 0-2.2856-0.79781-4.22-2.3925-5.8034-1.5956-1.595-3.5275-2.3925-5.795-2.3925zm-4.7056 10.911v-5.5356h2.75c1.3569 0 2.0356 0.62469 2.0356 1.875 0 0.21438-0.03281 0.41938-0.09812 0.61625-0.06531 0.19656-0.17875 0.3925-0.33938 0.58938-0.16062 0.19656-0.40156 0.35719-0.72312 0.48219-0.32125 0.12469-0.70219 0.1875-1.1425 0.1875h-1.0894v1.7856h-1.3931zm1.375-4.5003v1.6788h1.1784c0.28562 0 0.5-0.08062 0.64312-0.24125 0.14312-0.16031 0.21469-0.36 0.21469-0.59844 0-0.55938-0.29781-0.83938-0.89313-0.83938h-1.1428v3.13e-4zm3.7853 4.5003v-5.5356h2.1434c0.88062 0 1.5709 0.22625 2.0716 0.67844 0.49938 0.4525 0.74938 1.1491 0.74938 2.0894 0 0.94062-0.25031 1.6375-0.74938 2.0894-0.50062 0.45219-1.1909 0.67844-2.0716 0.67844zm1.3759-4.375v3.2147h0.80312c0.48812 0 0.84219-0.14562 1.0625-0.43781 0.22031-0.29156 0.33031-0.68094 0.33031-1.1694 0-0.48812-0.11-0.87781-0.33031-1.1697-0.22031-0.29156-0.58031-0.43719-1.0803-0.43719z" stroke-width=".3125"/>
</svg>
