<?xml version="1.0" encoding="UTF-8"?>
<svg version="1.1" viewBox="0 0 24 24" xmlns="http://www.w3.org/2000/svg">
 <style type="text/css">.st0{fill:#FFFFFF;}
	.st1{fill:#8DC742;}</style>
 <path d="m11.982 2c2.7972 0 5.1659 0.97031 7.1069 2.9109 1.94 1.9288 2.9109 4.2916 2.9109 7.0891 0 2.7981-0.95281 5.1428-2.8578 7.0356-2.0116 1.9762-4.3988 2.9644-7.16 2.9644-2.7028 0-5.0478-0.98219-7.0356-2.9466-1.9641-1.9641-2.9466-4.3147-2.9466-7.0531 0-2.7259 0.9825-5.0891 2.9466-7.0891 1.9403-1.9409 4.2856-2.9112 7.0356-2.9112zm0.03562 1.8038c-2.2737 0-4.1962 0.80375-5.7678 2.4109-1.6312 1.655-2.4466 3.5834-2.4466 5.7853 0 2.2266 0.80938 4.1428 2.4281 5.75 1.6191 1.6194 3.5475 2.4284 5.7856 2.4284 2.2259 0 4.1669-0.81531 5.8216-2.4463 1.5716-1.5238 2.3572-3.4344 2.3572-5.7322 0-2.2853-0.79781-4.2141-2.3925-5.7853-1.5834-1.6078-3.5122-2.4109-5.7856-2.4109zm6.5178 8.375 0.19656 0.08937v2.8212l-0.17875 0.08875-2.4284 1.0359-0.10719 0.035938-0.125-0.035625-5.2322-2.1606-0.17875-0.071562-2.5891 1.0716-2.5534-1.1075v-2.5712l2.3928-1.0003-0.017812-0.017813v-2.8216l2.7144-1.1962 6.125 2.5356v2.4822zm-2.8394 3.285v-1.7672h-0.01781v-0.07156l-4.5894-1.875v1.8219l4.5894 1.8931v-0.01812zm0.30344-2.3209 1.6078-0.66062-1.4825-0.625-1.5716 0.66062zm2.1075 1.5359v-1.7319l-1.7859 0.75v1.75z" stroke-width=".3125"/>
</svg>
