<?xml version="1.0" encoding="UTF-8"?>
<svg version="1.1" viewBox="0 0 24 24" xmlns="http://www.w3.org/2000/svg">
 <style type="text/css">.st0{fill:#FFFFFF;}
	.st1{fill:#8DC742;}</style>
 <path d="m11.982 2c2.7972 0 5.1659 0.97031 7.1069 2.9109 1.94 1.9288 2.9109 4.2916 2.9109 7.0891 0 2.7981-0.95281 5.1428-2.8578 7.0356-2.0116 1.9762-4.3988 2.9644-7.16 2.9644-2.7028 0-5.0478-0.98219-7.0356-2.9466-1.9641-1.9641-2.9466-4.3147-2.9466-7.0531 0-2.7259 0.9825-5.0891 2.9466-7.0891 1.9403-1.9409 4.2856-2.9112 7.0356-2.9112zm0.03562 1.8038c-2.2737 0-4.1962 0.80375-5.7678 2.4109-1.6312 1.655-2.4466 3.5834-2.4466 5.7853 0 2.2266 0.80938 4.1428 2.4281 5.75 1.6191 1.6194 3.5475 2.4284 5.7856 2.4284 2.2259 0 4.1669-0.81531 5.8216-2.4463 1.5716-1.5238 2.3572-3.4344 2.3572-5.7322 0-2.2853-0.79781-4.2141-2.3925-5.7853-1.5834-1.6078-3.5122-2.4109-5.7856-2.4109zm-4.4644 6.7853c0.19031-1.2262 0.68406-2.1756 1.4819-2.8481 0.7975-0.6725 1.7675-1.0088 2.9106-1.0088 1.5709 0 2.8216 0.50625 3.75 1.5175 0.92844 1.0119 1.3928 2.3097 1.3928 3.8928 0 1.5359-0.48219 2.8125-1.4459 3.83-0.965 1.0175-2.2144 1.5269-3.7506 1.5269-1.1309 0-2.1072-0.33906-2.9284-1.0178-0.82156-0.67875-1.3153-1.6428-1.4822-2.8928h2.5184c0.05937 1.2144 0.79156 1.8216 2.1966 1.8216 0.70188 0 1.2678-0.30375 1.6962-0.91062 0.42906-0.60688 0.64344-1.4169 0.64344-2.4284 0-1.0597-0.19656-1.8659-0.58906-2.4197-0.39312-0.55344-0.95813-0.83031-1.6969-0.83031-1.3338 0-2.0834 0.58906-2.25 1.7675h0.73219l-1.9819 1.9822-1.9822-1.9822z" stroke-width=".3125"/>
</svg>
