<svg viewBox="0 0 24 24" xmlns="http://www.w3.org/2000/svg"><path d="M11.982 2c2.797 0 5.166.97 7.107 2.91 1.94 1.93 2.91 4.292 2.91 7.09s-.952 5.143-2.857 7.036C17.13 21.012 14.743 22 11.982 22c-2.703 0-5.048-.982-7.036-2.947C2.982 17.09 2 14.74 2 12c0-2.726.982-5.089 2.946-7.089C6.886 2.971 9.232 2 11.982 2zm.036 1.804c-2.274 0-4.197.804-5.768 2.41C4.619 7.87 3.803 9.799 3.803 12c0 2.227.81 4.143 2.428 5.75 1.62 1.62 3.548 2.428 5.786 2.428 2.226 0 4.167-.815 5.822-2.446 1.571-1.524 2.357-3.434 2.357-5.732 0-2.285-.798-4.214-2.393-5.785-1.583-1.608-3.512-2.411-5.785-2.411zm-4.465 6.785c.19-1.226.684-2.176 1.482-2.848.798-.672 1.768-1.009 2.91-1.009 1.572 0 2.822.506 3.75 1.518.93 1.012 1.394 2.31 1.394 3.893 0 1.535-.483 2.812-1.446 3.83-.965 1.017-2.215 1.526-3.751 1.526-1.13 0-2.107-.339-2.928-1.017-.822-.68-1.316-1.643-1.483-2.893H10c.06 1.214.791 1.821 2.196 1.821.702 0 1.268-.303 1.697-.91.429-.607.643-1.417.643-2.429 0-1.06-.197-1.866-.589-2.42-.393-.553-.958-.83-1.697-.83-1.334 0-2.083.59-2.25 1.768h.732L8.75 12.57l-1.982-1.98z"/></svg>