<?xml version="1.0" encoding="UTF-8"?>
<svg version="1.1" viewBox="0 0 24 24" xmlns="http://www.w3.org/2000/svg">
 <style type="text/css">.st0{fill:#FFFFFF;}
	.st1{fill:#8DC742;}</style>
 <path d="m11.982 2c2.7972 0 5.1659 0.97031 7.1069 2.9109 1.94 1.9288 2.9109 4.2916 2.9109 7.0891 0 2.7981-0.95281 5.1428-2.8578 7.0356-2.0116 1.9762-4.3988 2.9644-7.16 2.9644-2.7028 0-5.0478-0.98219-7.0356-2.9466-1.9641-1.9641-2.9466-4.3147-2.9466-7.0531 0-2.7259 0.9825-5.0891 2.9466-7.0891 1.9403-1.9409 4.2856-2.9112 7.0356-2.9112zm0.03562 1.8038c-2.2737 0-4.1962 0.80375-5.7678 2.4109-1.6312 1.655-2.4466 3.5834-2.4466 5.7853 0 2.2266 0.80938 4.1428 2.4281 5.75 1.6191 1.6194 3.5475 2.4284 5.7856 2.4284 2.2259 0 4.1669-0.81531 5.8216-2.4463 1.5716-1.5238 2.3572-3.4344 2.3572-5.7322 0-2.2853-0.79781-4.2141-2.3925-5.7853-1.5834-1.6078-3.5122-2.4109-5.7856-2.4109zm4.0716 5.3391c0.15438 0 0.28562 0.053438 0.3925 0.16031 0.1075 0.10719 0.16125 0.23844 0.16125 0.39312v7.3569c0 0.15469-0.05375 0.28562-0.16125 0.3925-0.10688 0.10719-0.23812 0.16125-0.3925 0.16125h-5.4466c-0.155 0-0.28562-0.05344-0.39312-0.16125-0.1075-0.10719-0.16062-0.23781-0.16062-0.3925v-2.1791h-2.1784c-0.15531 0-0.28594-0.053126-0.39312-0.16031-0.10688-0.10688-0.16062-0.23781-0.16062-0.39312v-7.3562c0-0.14312 0.047188-0.265 0.14312-0.36594 0.094688-0.10094 0.21406-0.16344 0.35688-0.1875h5.4997c0.15438 0 0.28562 0.053438 0.39312 0.16062 0.10688 0.10688 0.16063 0.23844 0.16063 0.39312v2.1788h2.1791zm-7.6431 4.6428h1.6428v-4.0894c0-0.14281 0.04719-0.26469 0.14312-0.36594 0.095-0.10062 0.20844-0.16344 0.33906-0.1875h2.25v-1.625h-4.375zm7.1072-3.5538h-4.375v6.2681h4.375z" stroke-width=".3125"/>
</svg>
