<svg viewBox="0 0 24 24" xmlns="http://www.w3.org/2000/svg"><path d="M11.982 2c2.797 0 5.166.97 7.107 2.91 1.94 1.93 2.91 4.292 2.91 7.09s-.952 5.143-2.857 7.036C17.13 21.012 14.743 22 11.982 22c-2.703 0-5.048-.982-7.036-2.947C2.982 17.09 2 14.74 2 12c0-2.726.982-5.089 2.946-7.089C6.886 2.971 9.232 2 11.982 2zm.036 1.804c-2.274 0-4.197.804-5.768 2.41C4.619 7.87 3.803 9.799 3.803 12c0 2.227.81 4.143 2.428 5.75 1.62 1.62 3.548 2.428 5.786 2.428 2.226 0 4.167-.815 5.822-2.446 1.571-1.524 2.357-3.434 2.357-5.732 0-2.285-.798-4.214-2.393-5.785-1.583-1.608-3.512-2.411-5.785-2.411zm4.071 5.339c.155 0 .286.053.393.16a.534.534 0 0 1 .161.393v7.357a.532.532 0 0 1-.161.393.534.534 0 0 1-.393.161h-5.446a.533.533 0 0 1-.394-.161.532.532 0 0 1-.16-.393v-2.179H7.91a.534.534 0 0 1-.393-.16.535.535 0 0 1-.16-.393V6.965a.51.51 0 0 1 .143-.366.616.616 0 0 1 .357-.188h5.5a.543.543 0 0 1 .553.554v2.179h2.18zm-7.643 4.643h1.643v-4.09c0-.143.047-.264.143-.366a.61.61 0 0 1 .34-.187h2.25V7.518H8.445zm7.107-3.554h-4.375V16.5h4.375z"/></svg>