<?xml version="1.0" encoding="UTF-8"?>
<svg version="1.1" viewBox="0 0 24 24" xmlns="http://www.w3.org/2000/svg">
 <style type="text/css">.st0{fill:#FFFFFF;}
	.st1{fill:#8DC742;}</style>
 <path id="text2809_1_" d="m12 6.2437c-3.3016 0-4.1319 3.1153-4.1319 5.7562 0 2.6412 0.83 5.7562 4.1319 5.7562 3.3012 0 4.1316-3.115 4.1316-5.7562 0-2.6409-0.83031-5.7562-4.1316-5.7562zm0 2.1706c0.13406 0 0.25625 0.020625 0.37125 0.049062 0.23781 0.205 0.35406 0.48781 0.12594 0.88219l-2.1988 4.0406c-0.0675-0.51125-0.07719-1.0125-0.07719-1.3866 0-1.1631 0.08062-3.5853 1.7788-3.5853zm1.6456 1.8628c0.11656 0.62 0.13312 1.2675 0.13312 1.7228 0 1.1634-0.08063 3.5859-1.7781 3.5859-0.13375 0-0.25688-0.01406-0.37125-0.0425-0.02187-0.0066-0.04187-0.01344-0.06312-0.02094-0.035-0.01-0.07188-0.02125-0.105-0.03437-0.37812-0.16094-0.61625-0.45188-0.27312-0.96656z" stroke-width=".3125"/>
 <path id="path2815_1_" d="m11.979 2c-2.7741 0-5.1122 0.96562-7.0169 2.9062-0.96469 0.96469-1.7009 2.0647-2.2131 3.2912-0.5 1.2147-0.74906 2.4809-0.74906 3.8025 0 1.3338 0.24906 2.6 0.74906 3.8025 0.5 1.2031 1.2253 2.285 2.1778 3.2488 0.96406 0.95281 2.0466 1.6872 3.2494 2.1991 1.2144 0.50062 2.4809 0.74938 3.8028 0.74938 1.3216 0 2.6062-0.25812 3.8447-0.77031 1.2381-0.51219 2.3425-1.2481 3.3191-2.2128 0.94094-0.91656 1.6528-1.9678 2.1288-3.1581 0.48781-1.2022 0.72844-2.4887 0.72844-3.8584 0-1.3572-0.24062-2.6419-0.72812-3.8447-0.48812-1.2141-1.2025-2.2875-2.1428-3.2281-1.965-1.9525-4.3525-2.9272-7.15-2.9272zm0.04187 1.7997c2.2619 0 4.1912 0.80188 5.7981 2.4091 0.77406 0.77406 1.3672 1.6594 1.7719 2.6472 0.405 0.98812 0.60906 2.0369 0.60906 3.1441 0 2.2981-0.78625 4.2044-2.3456 5.7281-0.81 0.78625-1.7194 1.3897-2.7312 1.8066-1 0.41688-2.0306 0.62312-3.1022 0.62312-1.0838 0-2.1212-0.20406-3.1091-0.60875-0.98843-0.41688-1.8753-1.0119-2.6612-1.7862-0.78594-0.78562-1.3922-1.6728-1.8206-2.6612-0.41656-0.99969-0.63031-2.0306-0.63031-3.1022 0-1.0834 0.21375-2.1209 0.63031-3.1091 0.42844-1 1.035-1.8981 1.8206-2.6962 1.5594-1.5947 3.4844-2.3944 5.7703-2.3944z" stroke-width=".3125"/>
</svg>
