<svg viewBox="0 0 24 24" xmlns="http://www.w3.org/2000/svg"><path d="M12 6.244c-3.302 0-4.132 3.115-4.132 5.756s.83 5.756 4.132 5.756c3.301 0 4.132-3.115 4.132-5.756S15.302 6.244 12 6.244zm0 2.17c.134 0 .256.02.371.05.238.204.354.487.126.882l-2.199 4.04A10.705 10.705 0 0 1 10.221 12c0-1.164.08-3.586 1.779-3.586zm1.646 1.863c.116.62.133 1.268.133 1.723 0 1.163-.08 3.586-1.778 3.586-.134 0-.257-.014-.372-.043a1.405 1.405 0 0 1-.063-.02 1.147 1.147 0 0 1-.105-.035c-.378-.16-.616-.452-.273-.967z"/><path d="M11.979 2c-2.774 0-5.112.966-7.017 2.906A10.15 10.15 0 0 0 2.75 8.197 9.89 9.89 0 0 0 1.999 12c0 1.334.25 2.6.75 3.802a10.11 10.11 0 0 0 2.178 3.25 10.377 10.377 0 0 0 3.25 2.198c1.214.5 2.48.75 3.802.75a9.98 9.98 0 0 0 3.845-.77 10.267 10.267 0 0 0 3.319-2.213 9.079 9.079 0 0 0 2.129-3.159C21.759 14.656 22 13.37 22 12c0-1.357-.24-2.642-.728-3.845a9.576 9.576 0 0 0-2.143-3.228C17.164 2.975 14.777 2 11.98 2zm.042 1.8c2.262 0 4.191.802 5.798 2.409a8.023 8.023 0 0 1 1.772 2.647c.405.988.609 2.037.609 3.144 0 2.298-.786 4.204-2.346 5.728a8.601 8.601 0 0 1-2.73 1.807c-1 .417-2.031.623-3.103.623a8.129 8.129 0 0 1-3.11-.609 8.435 8.435 0 0 1-2.66-1.786 8.537 8.537 0 0 1-1.821-2.661 7.975 7.975 0 0 1 0-6.212 8.703 8.703 0 0 1 1.82-2.696C7.81 4.6 9.736 3.8 12.02 3.8z"/></svg>