<?xml version="1.0" encoding="UTF-8"?>
<svg version="1.1" viewBox="0 0 24 24" xmlns="http://www.w3.org/2000/svg">
 <style type="text/css">.st0{fill:#FFFFFF;}
	.st1{fill:#8DC742;}</style>
 <style type="text/css">.st0{fill:#FFFFFF;}
	.st1{fill:#8DC742;}</style>
 <path d="m14.061 8.819c-0.60147-0.63489-1.2282-1.1873-1.8804-1.6571-0.65211-0.46982-1.263-0.82221-1.8329-1.0571-0.56978-0.23492-1.0921-0.34762-1.5669-0.3381-0.47485 0.01-0.84521 0.15714-1.1111 0.44286-0.0633 0.0635-0.11711 0.13492-0.16143 0.21428-0.0443 0.0794-0.076 0.14127-0.095 0.18573-0.019 0.0444-0.0443 0.12379-0.076 0.23807-0.0317 0.11429-0.0538 0.18733-0.0665 0.21908l-3.5328 11.657 0.21842 0.22857c-0.24691 0.17143-0.46691 0.37143-0.66001 0.6s-0.36246 0.41586-0.50807 0.56189c-0.14562 0.14604-0.31973 0.24761-0.52232 0.30475-0.0443 0.0127-0.0997 0.0556-0.1662 0.12857-0.0665 0.073-0.0997 0.13811-0.0997 0.19525 0 0.11429 0.057 0.20954 0.17094 0.28572 0.11396 0.0762 0.24058 0.11428 0.37987 0.11428 0.17727 0 0.34821-0.0714 0.51282-0.21428 0.16461-0.14286 0.3308-0.32539 0.49857-0.54761 0.16778-0.22225 0.28965-0.36825 0.36563-0.43811 0.16461-0.14603 0.34821-0.28571 0.5508-0.41903l0.24692 0.23807 11.225-3.819c0.24693-0.0762 0.43685-0.19046 0.56982-0.34285 0.26589-0.28572 0.40361-0.68097 0.41311-1.1857 0.01-0.50475-0.0966-1.0603-0.31815-1.6667-0.2216-0.60632-0.55239-1.254-0.99243-1.9428-0.44-0.6889-0.96071-1.3508-1.5622-1.9857zm-1.0256 1.0381c0.96865 0.99046 1.7046 1.9381 2.208 2.8429s0.62521 1.5 0.36564 1.7857c-0.25961 0.28572-0.82621 0.18097-1.6999-0.31428-0.87368-0.49525-1.7917-1.2349-2.754-2.219-0.97497-0.9905-1.7142-1.9365-2.2175-2.8381s-0.62521-1.4984-0.36561-1.7905c0.25958-0.28572 0.82779-0.18097 1.7046 0.31428 0.87685 0.49522 1.7965 1.2349 2.7588 2.219zm-0.53182-7 0.47482 1.4381-1.2251 0.89524h1.51l0.46532 1.4381 0.46532-1.4381h1.5005l-1.2156-0.89524 0.47482-1.4286-1.2251 0.88572zm-2.6591 0-0.25639 1.3048 1.301 0.25714 0.2564-1.3048zm8.5565 3.9238 1.0446-1.0952 1.358 0.66667-0.70275-1.3333 1.0541-1.0762-1.491 0.25715-0.70275-1.3429-0.20893 1.5048-1.491 0.25714 1.358 0.65715zm-0.35136 2.3429 1.263 0.83807-0.39886 1.4667 1.1776-0.95239 1.2535 0.8381-0.52228-1.4286 1.1776-0.93332-1.51 0.0666-0.53183-1.419-0.38935 1.4571zm-0.54132-3.5334-2.83 2.3238 0.35136 0.42857 2.83-2.3238zm0.98764 4.4952-2.2127-0.2-0.057 0.55239 2.2222 0.2zm0.21843 2.6667-0.40835 1.2762 1.2631 0.40953 0.41785-1.2667z" fill="currentColor" stroke-width=".035714"/>
</svg>
