<svg viewBox="0 0 24 24" xmlns="http://www.w3.org/2000/svg"><path d="M14.061 8.819a13.327 13.327 0 0 0-1.88-1.657c-.653-.47-1.263-.822-1.833-1.057-.57-.235-1.092-.348-1.567-.338-.475.01-.845.157-1.111.443a.976.976 0 0 0-.162.214 2.24 2.24 0 0 0-.095.186 2.175 2.175 0 0 0-.076.238 2.786 2.786 0 0 1-.066.219L3.738 18.724l.218.228c-.247.172-.467.372-.66.6s-.362.416-.508.562c-.145.146-.32.248-.522.305a.422.422 0 0 0-.166.129c-.067.073-.1.138-.1.195 0 .114.057.21.171.285.114.077.24.115.38.115.177 0 .348-.072.513-.215a3.58 3.58 0 0 0 .498-.547c.168-.222.29-.368.366-.438.165-.146.348-.286.55-.42l.248.239 11.225-3.82c.247-.075.436-.19.57-.342.265-.286.403-.681.413-1.186.01-.505-.097-1.06-.319-1.666-.221-.607-.552-1.254-.992-1.943a13.3 13.3 0 0 0-1.562-1.986zm-1.026 1.038c.969.99 1.705 1.938 2.208 2.843s.626 1.5.366 1.786c-.26.285-.826.18-1.7-.315s-1.792-1.234-2.754-2.219c-.975-.99-1.714-1.936-2.217-2.838s-.626-1.498-.366-1.79c.26-.286.828-.181 1.705.314.876.495 1.796 1.235 2.758 2.22zm-.531-7 .474 1.438-1.225.895h1.51l.466 1.439.465-1.439h1.5l-1.215-.895.475-1.428-1.225.885zm-2.66 0-.256 1.305 1.301.257.256-1.305zm8.557 3.924 1.045-1.095 1.358.666L20.1 5.02l1.054-1.076-1.491.257-.703-1.343-.209 1.505-1.49.257 1.357.657zm-.351 2.343 1.263.838-.4 1.467 1.178-.953 1.254.838-.522-1.428L22 8.952l-1.51.067-.532-1.419-.389 1.457zm-.542-3.534-2.83 2.324.352.429 2.83-2.324zm.988 4.496-2.213-.2-.057.552 2.222.2zm.218 2.666-.408 1.276 1.263.41.418-1.267z" fill="currentColor"/></svg>