<svg viewBox="0 0 24 24" xmlns="http://www.w3.org/2000/svg"><path d="M4.82 18.106c.143.098.694.371 1.16-.216l3.15-4.604 3.335 3.216a.824.824 0 0 0 .661.228.847.847 0 0 0 .604-.35l5.531-7.931.2 2.653c.049.673.682.784.894.767a.832.832 0 0 0 .767-.894l-.35-4.665a.83.83 0 0 0-.895-.767l-4.665.35a.83.83 0 0 0-.767.895.83.83 0 0 0 .894.767l2.653-.2-5.07 7.265-3.342-3.224a.815.815 0 0 0-.662-.229.828.828 0 0 0-.604.36l-3.71 5.42a.833.833 0 0 0 .216 1.159z"/><path d="M21.167 20.335H3.665V2.833c0-.462-.371-.833-.832-.833S2 2.371 2 2.833v18.334a.83.83 0 0 0 .833.833h18.334a.832.832 0 1 0 0-1.665z"/></svg>