<?xml version="1.0" encoding="UTF-8"?>
<svg version="1.1" viewBox="0 0 24 24" xmlns="http://www.w3.org/2000/svg">
 <style type="text/css">.st0{fill:#FFFFFF;}
	.st1{fill:#8DC742;}</style>
 <path d="m3.9805 6c-1.0969 0-1.9805 0.88358-1.9805 1.9805v8.0391c0 1.0969 0.88358 1.9805 1.9805 1.9805h16.039c1.0969 0 1.9805-0.88358 1.9805-1.9805v-8.0391c0-1.0969-0.88358-1.9805-1.9805-1.9805h-16.039zm5.2188 2.627c0.27378 0 0.52209 0.020898 0.74609 0.064453 0.224 0.037334 0.41989 0.084625 0.58789 0.14062 0.168 0.049778 0.30792 0.1022 0.41992 0.1582 0.112 0.056 0.19436 0.099748 0.24414 0.13086l-0.41992 1.1758c-0.19911-0.10578-0.43362-0.19682-0.70117-0.27148-0.26133-0.074667-0.55853-0.11133-0.89453-0.11133-0.224 0-0.44628 0.036661-0.66406 0.11133-0.21156 0.074666-0.40036 0.19723-0.56836 0.36523-0.16178 0.16178-0.29302 0.37343-0.39258 0.63477-0.099555 0.26133-0.14844 0.57784-0.14844 0.95117 0 0.29867 0.029575 0.57851 0.091797 0.83984 0.068444 0.25511 0.17525 0.47544 0.31836 0.66211 0.14933 0.18667 0.34168 0.33722 0.57812 0.44922 0.23644 0.10578 0.52338 0.1582 0.85938 0.1582 0.21156-2e-6 0.40036-0.012223 0.56836-0.03711s0.31855-0.052871 0.44922-0.083984c0.13066-0.037334 0.24419-0.077538 0.34375-0.12109 0.099555-0.043553 0.1906-0.083758 0.27148-0.12109l0.40039 1.166c-0.20533 0.12444-0.49385 0.23638-0.86719 0.33594-0.37333 0.099556-0.80532 0.14844-1.2969 0.14844-1.0516 0-1.8544-0.29206-2.4082-0.87695-0.54756-0.58489-0.82227-1.4157-0.82227-2.4922 0-0.53511 0.083953-1.0108 0.25195-1.4277 0.168-0.42311 0.39896-0.77823 0.69141-1.0645 0.29244-0.29244 0.64048-0.51278 1.0449-0.66211 0.40444-0.14933 0.84352-0.22266 1.3164-0.22266zm6.8145 0c0.27378 0 0.52209 0.020898 0.74609 0.064453 0.224 0.037334 0.42184 0.084625 0.58984 0.14062 0.168 0.049778 0.30792 0.1022 0.41992 0.1582 0.112 0.056 0.19241 0.099748 0.24219 0.13086l-0.41992 1.1758c-0.19911-0.10578-0.43362-0.19682-0.70117-0.27148-0.26133-0.074667-0.55853-0.11133-0.89453-0.11133-0.224 0-0.44628 0.036661-0.66406 0.11133-0.21156 0.074666-0.40036 0.19723-0.56836 0.36523-0.16178 0.16178-0.29302 0.37343-0.39258 0.63477-0.099556 0.26133-0.14844 0.57784-0.14844 0.95117 0 0.29867 0.029577 0.57851 0.091797 0.83984 0.068445 0.25511 0.17525 0.47544 0.31836 0.66211 0.14934 0.18667 0.34168 0.33722 0.57813 0.44922 0.23644 0.10578 0.52338 0.1582 0.85937 0.1582 0.21156-2e-6 0.40036-0.012223 0.56836-0.03711 0.168-0.024887 0.31855-0.052871 0.44922-0.083984 0.13067-0.037334 0.24615-0.077538 0.3457-0.12109 0.099555-0.043553 0.18864-0.083758 0.26953-0.12109l0.40234 1.166c-0.20533 0.12444-0.49581 0.23638-0.86914 0.33594-0.37333 0.099556-0.80532 0.14844-1.2969 0.14844-1.0516 0-1.8544-0.29206-2.4082-0.87695-0.54756-0.58489-0.82031-1.4157-0.82031-2.4922 0-0.53511 0.083953-1.0108 0.25195-1.4277 0.168-0.42311 0.39701-0.77823 0.68945-1.0645 0.29244-0.29244 0.64048-0.51278 1.0449-0.66211 0.40444-0.14933 0.84352-0.22266 1.3164-0.22266z" stroke-width=".75591"/>
</svg>
