<svg viewBox="0 0 24 24" xmlns="http://www.w3.org/2000/svg"><path d="m8.743 8.014-3.987 3.987 3.987 3.986A1.143 1.143 0 0 1 7.128 17.6l-4.793-4.793a1.14 1.14 0 0 1 0-1.614L7.128 6.4a1.143 1.143 0 0 1 1.615 1.614zm12.922 3.18-4.793-4.795a1.143 1.143 0 0 0-1.614 1.614l3.986 3.988-3.986 3.986a1.142 1.142 0 1 0 1.614 1.614l4.793-4.793a1.142 1.142 0 0 0 0-1.615zm-7.67-7.007a1.14 1.14 0 0 0-1.39.822L9.18 18.424a1.144 1.144 0 0 0 1.107 1.426c.51 0 .974-.345 1.106-.86l3.425-13.414a1.141 1.141 0 0 0-.822-1.39z"/></svg>