<?xml version="1.0" encoding="UTF-8"?>
<svg version="1.1" viewBox="0 0 24 24" xmlns="http://www.w3.org/2000/svg">
 <style type="text/css">.st0{fill:#FFFFFF;}
	.st1{fill:#8DC742;}</style>
 <g transform="matrix(.33333 0 0 .33333 2 2)">
  <path d="m19.603 21.297-0.257 0.093 3.45 0.722c2.81 0.59 5.825 0.888 8.957 0.888 1.615 0 3.197-0.084 4.737-0.241 2.638-0.238 5.064-0.677 7.235-1.267l0.273-0.056-0.034-0.013c6.819-1.905 11.036-5.28 11.036-8.423 0-4.424-8.603-9-23-9s-23 4.576-23 9c0 3.076 4.04 6.372 10.603 8.297zm8.857-4.402c-1.623-0.529-2.546-1.435-2.746-2.692l-0.108-0.679-0.673-0.143c-0.161-0.034-0.269-0.082-0.333-0.12l0.141-0.462c0.036-0.066 0.253-0.25 0.663-0.368l0.449-0.128 0.19-0.426c0.198-0.444 0.472-0.845 0.813-1.19 0.15-0.152 0.274-0.265 0.374-0.356 0.329-0.3 0.544-0.551 0.646-0.875 1.19 0.393 2.521 0.434 3.443 0.395 0.143-6e-3 0.288-9e-3 0.436-9e-3 4.261 0 5.301 1.169 5.712 2.048l0.193 0.414 0.439 0.125c0.412 0.117 0.631 0.302 0.66 0.352l0.148 0.481c-0.064 0.038-0.172 0.085-0.333 0.119l-0.674 0.142-0.108 0.68c-0.2 1.257-1.124 2.163-2.746 2.692l-0.777 0.253 0.214 1.858c0.076 0.65 0.554 1.215 1.249 1.475l0.734 0.275c-0.24 0.026-0.489 0.036-0.732 0.057-1.193 0.091-2.426 0.153-3.735 0.153-1.74 0-3.376-0.089-4.911-0.245l0.661-0.239c0.709-0.256 1.197-0.825 1.273-1.484l0.213-1.85zm3.54-10.895c13.982 0 21 4.488 21 7 0 2.06-4.316 5.6-12.379 7.171l-4.17-1.562-0.012-0.104c2.005-0.868 2.854-2.203 3.191-3.371 0.47-0.206 0.837-0.515 1.064-0.9 0.255-0.434 0.314-0.94 0.165-1.424l-0.189-0.616c-0.201-0.654-0.786-1.211-1.6-1.542-1.476-2.507-4.854-2.809-7.317-2.809-0.175 0-0.348 4e-3 -0.518 0.011-1.118 0.045-2.13-0.074-2.852-0.337-0.407-0.148-0.569-0.251-0.619-0.288-0.416-0.308-0.952-0.268-1.299-0.093l-0.603 0.342v0.616c0 0.193 0.014 0.423 0.057 0.675 2e-3 0.015 5e-3 0.03 7e-3 0.044-0.015 0.013-0.031 0.027-0.047 0.042-0.119 0.109-0.267 0.244-0.446 0.425-0.407 0.412-0.75 0.875-1.022 1.382-0.801 0.332-1.376 0.884-1.576 1.531l-0.189 0.617c-0.148 0.484-0.09 0.99 0.166 1.424 0.227 0.385 0.594 0.694 1.063 0.9 0.337 1.168 1.187 2.503 3.191 3.371l-0.012 0.103-4.112 1.484c-7.787-1.611-11.942-5.068-11.942-7.092 0-2.512 7.018-7 21-7z"/>
  <path d="m54 29.647v-0.252c3.155-2.219 5-4.954 5-7.947v-8.448c0-7.411-11.607-13-27-13s-27 5.589-27 13v2.27c-3.262 2.186-5 4.846-5 7.73v8.448c0 3.297 2.235 6.283 6 8.609v6.391c0 7.599 11.86 13.552 27 13.552s27-5.953 27-13.552v-8.448c0-3.185-2.086-6.059-6-8.353zm4 8.353c0 6.393-11.682 12-25 12-0.575 0-1.146-0.015-1.714-0.035-0.169-6e-3 -0.338-0.012-0.507-0.02-0.495-0.022-0.987-0.052-1.475-0.09-0.318-0.025-0.633-0.055-0.948-0.086-0.139-0.013-0.278-0.028-0.416-0.042-8.227-0.885-15.225-3.852-18.286-7.6-0.04-0.05-0.083-0.099-0.122-0.15-0.046-0.059-0.087-0.119-0.132-0.179 1.407 0.6 2.938 1.13 4.581 1.575 4.439 2.92 11.346 4.592 19.019 4.592 13.554 0 23-5.252 23-9.965 0-1.389-0.844-2.772-2.448-4.032 0.026-0.071 0.044-0.144 0.068-0.216 0.034-0.104 0.069-0.207 0.098-0.311 0.034-0.121 0.062-0.242 0.09-0.364 0.024-0.105 0.049-0.21 0.069-0.316 0.023-0.123 0.038-0.247 0.054-0.37 0.014-0.107 0.029-0.213 0.039-0.32 3e-3 -0.031 9e-3 -0.062 0.011-0.093 2.069 1.399 4.019 3.412 4.019 6.022zm-20.869 13.836c0.03-2e-3 0.059-6e-3 0.089-8e-3 0.574-0.047 1.139-0.106 1.7-0.171 0.145-0.017 0.289-0.034 0.433-0.052 0.555-0.07 1.106-0.145 1.647-0.232v5.992c-1.293 0.209-2.629 0.371-4 0.478v-5.997c0.043-4e-3 0.087-6e-3 0.131-0.01zm5.869-0.831c0.057-0.012 0.11-0.026 0.166-0.038 0.538-0.114 1.07-0.234 1.59-0.365 0.068-0.017 0.134-0.036 0.202-0.054 0.351-0.09 0.699-0.184 1.041-0.281v5.989c-0.961 0.277-1.963 0.524-3 0.74v-5.991zm5-1.371c0.054-0.019 0.107-0.037 0.16-0.056 0.076-0.027 0.148-0.055 0.224-0.082 0.413-0.149 0.817-0.305 1.214-0.465 0.113-0.046 0.226-0.091 0.337-0.137l0.066-0.027v5.963c-0.638 0.277-1.304 0.54-2 0.786v-5.982zm4-1.698c0.172-0.088 0.338-0.18 0.505-0.27 0.097-0.052 0.194-0.104 0.289-0.157 0.386-0.216 0.761-0.438 1.12-0.666 0.028-0.018 0.057-0.035 0.085-0.053v5.825c-0.608 0.434-1.276 0.85-2 1.243v-5.922zm-40-1.146c0.623 0.399 1.298 0.774 2 1.135v5.933c-0.724-0.394-1.392-0.809-2-1.243zm-6-15c0.028 0.018 0.057 0.035 0.085 0.053 0.36 0.228 0.734 0.45 1.12 0.666 0.095 0.053 0.193 0.105 0.289 0.157 0.167 0.091 0.333 0.182 0.505 0.27v5.064h-1.437c-0.193-0.127-0.38-0.255-0.562-0.385zm4.403 2.24c0.396 0.161 0.8 0.316 1.214 0.465 0.075 0.027 0.148 0.056 0.224 0.082 0.053 0.019 0.107 0.037 0.16 0.056v5.981c-0.696-0.246-1.362-0.509-2-0.786v-5.963l0.066 0.027c0.11 0.048 0.223 0.093 0.336 0.138zm4.84 1.571c0.52 0.131 1.052 0.251 1.59 0.365 0.056 0.012 0.11 0.026 0.166 0.038v5.991c-0.057-0.012-0.114-0.024-0.17-0.036-0.537-0.113-1.065-0.235-1.584-0.366-0.423-0.107-0.837-0.221-1.245-0.338v-5.989c0.342 0.098 0.69 0.191 1.041 0.281 0.068 0.018 0.134 0.037 0.202 0.054zm5.836 1.056c0.561 0.065 1.127 0.124 1.7 0.171 0.03 2e-3 0.059 6e-3 0.089 8e-3 0.043 3e-3 0.087 6e-3 0.131 9e-3v5.984c-0.688-0.053-1.373-0.112-2.048-0.191-0.326-0.038-0.647-0.085-0.969-0.129-0.332-0.046-0.655-0.104-0.983-0.156v-5.98c0.541 0.087 1.092 0.163 1.647 0.232 0.145 0.018 0.289 0.035 0.433 0.052zm5.921 0.343c0.671 0 1.336-0.023 2-0.049v6.007c-0.021 1e-3 -0.042 2e-3 -0.063 2e-3 -0.642 0.024-1.286 0.04-1.937 0.04-0.67 0-1.334-0.036-2-0.062v-5.978c0.044 2e-3 0.09 1e-3 0.134 3e-3 0.617 0.022 1.238 0.037 1.866 0.037zm-20-18.711c0.016 0.02 0.035 0.039 0.051 0.058 0.222 0.277 0.461 0.55 0.715 0.818 0.057 0.06 0.117 0.118 0.175 0.177 0.226 0.229 0.463 0.454 0.711 0.676 0.059 0.053 0.115 0.106 0.176 0.158 0.058 0.05 0.114 0.099 0.172 0.147v5.571c-1.285-1.376-2-2.881-2-4.446zm4 3.501c0.028 0.018 0.057 0.035 0.085 0.053 0.36 0.228 0.734 0.45 1.12 0.666 0.095 0.053 0.193 0.105 0.289 0.157 0.167 0.091 0.333 0.182 0.505 0.27v5.922c-0.724-0.394-1.392-0.809-2-1.243v-5.825zm4 2.076 0.066 0.027c0.111 0.047 0.224 0.092 0.337 0.137 0.396 0.161 0.8 0.316 1.214 0.465 0.075 0.027 0.148 0.056 0.224 0.082 0.053 0.019 0.107 0.037 0.16 0.056v5.981c-0.696-0.246-1.362-0.509-2-0.786v-5.962zm4 1.4c0.342 0.098 0.69 0.191 1.041 0.281 0.068 0.018 0.134 0.037 0.202 0.054 0.52 0.131 1.052 0.251 1.59 0.365 0.056 0.012 0.11 0.026 0.166 0.038v5.991c-1.037-0.216-2.039-0.463-3-0.74v-5.989zm5 1.106c0.541 0.087 1.092 0.163 1.647 0.232 0.144 0.018 0.288 0.035 0.433 0.052 0.561 0.065 1.127 0.124 1.7 0.171 0.03 2e-3 0.059 6e-3 0.089 8e-3 0.043 3e-3 0.087 6e-3 0.131 9e-3v5.997c-1.371-0.107-2.707-0.268-4-0.478zm8 0.628c0.628 0 1.249-0.015 1.866-0.037 0.044-2e-3 0.09-1e-3 0.134-3e-3v5.977c-0.666 0.026-1.329 0.063-2 0.063-0.673 0-1.339-0.017-2-0.042v-5.998c0.044 2e-3 0.09 1e-3 0.134 3e-3 0.617 0.022 1.238 0.037 1.866 0.037zm4.22-0.172c0.574-0.047 1.139-0.106 1.7-0.171 0.145-0.017 0.289-0.034 0.433-0.052 0.555-0.07 1.106-0.145 1.647-0.232v5.979c-0.376 0.06-0.744 0.13-1.126 0.182-0.2 0.027-0.398 0.056-0.6 0.081-0.749 0.092-1.51 0.157-2.274 0.216v-5.984c0.043-3e-3 0.087-6e-3 0.131-9e-3 0.03-4e-3 0.059-8e-3 0.089-0.01zm7.537-1.227c0.068-0.017 0.134-0.036 0.202-0.054 0.351-0.09 0.699-0.184 1.041-0.281v5.989c-0.128 0.037-0.257 0.073-0.386 0.108-1e-3 0-3e-3 0-4e-3 1e-3 -0.224 0.062-0.45 0.124-0.678 0.183-0.551 0.142-1.111 0.273-1.681 0.395-0.084 0.018-0.167 0.036-0.251 0.053v-5.991c0.057-0.012 0.11-0.026 0.166-0.038 0.539-0.114 1.071-0.234 1.591-0.365zm3.627-1.105c0.413-0.149 0.817-0.305 1.214-0.465 0.113-0.046 0.226-0.091 0.337-0.137l0.066-0.027v5.963c-0.638 0.277-1.304 0.54-2 0.786v-5.981c0.054-0.019 0.107-0.037 0.16-0.056 0.075-0.028 0.148-0.056 0.223-0.083zm4.41-1.988c0.386-0.216 0.761-0.438 1.12-0.666 0.028-0.018 0.057-0.035 0.085-0.053v5.825c-0.608 0.434-1.276 0.85-2 1.243v-5.922c0.172-0.088 0.338-0.18 0.505-0.27 0.098-0.052 0.195-0.104 0.29-0.157zm-27.267 22.435c0.038 2e-3 0.076 3e-3 0.113 4e-3 0.042 2e-3 0.085 3e-3 0.128 5e-3 0.084 3e-3 0.168 6e-3 0.252 9e-3 0.654 0.023 1.312 0.039 1.98 0.039 0.468 0 0.932-6e-3 1.393-0.017 0.151-4e-3 0.299-0.011 0.449-0.016 0.062-2e-3 0.124-5e-3 0.187-7e-3 0.091-3e-3 0.183-6e-3 0.274-0.01 0.155-6e-3 0.311-0.01 0.465-0.018 0.18-9e-3 0.358-0.022 0.537-0.033 0.271-0.016 0.543-0.03 0.811-0.05 0.197-0.015 0.391-0.033 0.587-0.05 0.248-0.021 0.497-0.041 0.742-0.065 0.196-0.019 0.388-0.043 0.582-0.064 0.241-0.027 0.484-0.052 0.723-0.082 0.196-0.024 0.388-0.053 0.582-0.079 0.232-0.032 0.464-0.062 0.693-0.097 0.195-0.029 0.386-0.062 0.578-0.094 0.225-0.037 0.45-0.072 0.672-0.112 0.192-0.034 0.38-0.072 0.57-0.108 0.216-0.041 0.434-0.082 0.647-0.126 0.19-0.039 0.377-0.082 0.565-0.123 0.209-0.046 0.418-0.091 0.624-0.139 0.185-0.044 0.367-0.09 0.549-0.136 0.204-0.051 0.408-0.101 0.608-0.154 0.178-0.047 0.352-0.097 0.528-0.146 0.199-0.056 0.399-0.111 0.595-0.17 0.174-0.052 0.345-0.106 0.516-0.16 0.191-0.06 0.381-0.119 0.568-0.181 0.17-0.056 0.337-0.115 0.504-0.173 0.183-0.064 0.366-0.127 0.545-0.193 0.165-0.06 0.326-0.123 0.487-0.185 0.176-0.068 0.352-0.136 0.524-0.206 0.157-0.064 0.311-0.13 0.466-0.195 0.17-0.073 0.341-0.145 0.507-0.22 0.15-0.067 0.297-0.136 0.444-0.205 0.163-0.076 0.325-0.153 0.485-0.232 0.144-0.071 0.286-0.144 0.427-0.217 0.154-0.08 0.308-0.16 0.458-0.242 0.138-0.075 0.273-0.151 0.407-0.227 0.147-0.084 0.293-0.168 0.436-0.253 0.13-0.078 0.257-0.156 0.383-0.236 0.14-0.088 0.278-0.176 0.413-0.265 0.122-0.081 0.242-0.163 0.361-0.245 0.131-0.091 0.261-0.183 0.388-0.276 0.114-0.083 0.226-0.168 0.336-0.253 0.123-0.095 0.244-0.19 0.363-0.287 0.106-0.086 0.21-0.173 0.313-0.261 0.114-0.098 0.226-0.197 0.336-0.296 0.098-0.089 0.194-0.178 0.288-0.269 0.105-0.101 0.207-0.203 0.308-0.305 0.09-0.092 0.178-0.184 0.264-0.277 0.095-0.104 0.187-0.208 0.278-0.313 0.081-0.095 0.162-0.19 0.239-0.286 0.086-0.106 0.168-0.214 0.248-0.322 0.072-0.097 0.144-0.194 0.212-0.292 0.055-0.079 0.109-0.158 0.161-0.238 0.884 0.769 1.374 1.545 1.374 2.206 0 2.704-7.412 7.965-21 7.965-4.115 0-7.484-0.469-10.179-1.12 0.562 0.043 1.132 0.073 1.706 0.098zm17.473-4.328v-6.022c0.064-0.023 0.127-0.046 0.191-0.069 0.367-0.131 0.742-0.255 1.097-0.396 0.244-0.097 0.472-0.206 0.711-0.308v6.009c-0.637 0.277-1.303 0.54-1.999 0.786zm-4.217-4.812c0.419-0.096 0.844-0.185 1.253-0.292 0.328-0.086 0.641-0.188 0.963-0.281v6.025c-0.961 0.277-1.963 0.524-3 0.74v-6.01c0.266-0.056 0.523-0.122 0.784-0.182zm8.217 3.055v-5.764c0.689-0.206 1.354-0.428 2-0.663v5.184c-0.608 0.434-1.276 0.849-2 1.243zm-14.014-2.102c0.33-0.033 0.652-0.082 0.979-0.121 0.482-0.057 0.968-0.108 1.443-0.18 0.2-0.03 0.393-0.071 0.592-0.104v6.014c-0.084 0.014-0.169 0.027-0.253 0.041-0.299 0.046-0.6 0.091-0.904 0.132-0.235 0.032-0.469 0.066-0.707 0.095-0.517 0.062-1.04 0.116-1.568 0.162-0.175 0.016-0.35 0.031-0.526 0.045-0.014 1e-3 -0.029 2e-3 -0.043 3e-3v-6.013c0.329-0.027 0.661-0.042 0.987-0.074zm20.014-5.308c0 0.761-0.172 1.507-0.493 2.231l-0.091 0.188c-0.297 0.617-0.709 1.212-1.206 1.786-0.06 0.068-0.115 0.137-0.178 0.204-0.01 0.011-0.022 0.021-0.032 0.032v-4.263c0.7-0.311 1.369-0.639 2-0.985zm-36 17.416c0.643 0.271 1.31 0.527 2 0.767v5.984c-0.696-0.246-1.362-0.509-2-0.786zm4 1.395c0.968 0.277 1.964 0.531 3 0.746v5.991c-1.037-0.216-2.039-0.463-3-0.74zm5 1.112c0.156 0.025 0.318 0.044 0.476 0.068 0.239 0.036 0.48 0.07 0.721 0.102 0.377 0.051 0.755 0.099 1.138 0.142 0.381 0.043 0.764 0.081 1.15 0.116 0.172 0.015 0.342 0.032 0.515 0.046v5.999c-1.371-0.107-2.707-0.268-4-0.478zm32-33.082v3.16c0 1.565-0.715 3.07-2 4.446v-5.571c0.058-0.048 0.114-0.097 0.171-0.146 0.06-0.052 0.117-0.106 0.176-0.158 0.249-0.222 0.486-0.447 0.711-0.676 0.058-0.059 0.119-0.118 0.175-0.177 0.255-0.268 0.493-0.541 0.715-0.818 0.017-0.022 0.036-0.041 0.052-0.06zm-25-16.289c14.019 0 25 4.832 25 11 0 6.393-11.682 12-25 12s-25-5.607-25-12c0-6.168 10.981-11 25-11zm-27 15.734v3.714c0 0.231 0.012 0.46 0.034 0.688 7e-3 0.076 0.022 0.151 0.031 0.227 0.019 0.151 0.038 0.302 0.066 0.452 0.017 0.089 0.041 0.177 0.062 0.266 0.031 0.134 0.061 0.269 0.099 0.402 0.027 0.094 0.061 0.187 0.092 0.281 0.041 0.125 0.082 0.25 0.13 0.374 0.037 0.097 0.08 0.192 0.121 0.288 0.051 0.119 0.103 0.239 0.16 0.357 0.047 0.096 0.098 0.191 0.149 0.286 0.062 0.116 0.124 0.231 0.191 0.345 0.056 0.095 0.116 0.19 0.176 0.284 0.071 0.112 0.144 0.223 0.22 0.334 0.065 0.094 0.134 0.188 0.203 0.281 0.081 0.108 0.163 0.216 0.249 0.323 0.074 0.092 0.151 0.184 0.229 0.276 0.09 0.106 0.183 0.21 0.279 0.314 0.082 0.09 0.166 0.179 0.252 0.268 0.1 0.103 0.204 0.205 0.309 0.307 0.09 0.087 0.18 0.174 0.274 0.259 0.11 0.1 0.223 0.2 0.338 0.298 0.098 0.084 0.195 0.169 0.296 0.252 0.119 0.098 0.244 0.194 0.368 0.291 0.104 0.081 0.207 0.162 0.315 0.241 0.13 0.096 0.265 0.19 0.4 0.284 0.11 0.077 0.217 0.154 0.33 0.229 0.142 0.095 0.29 0.188 0.438 0.281 0.113 0.071 0.223 0.144 0.339 0.214 0.159 0.097 0.325 0.19 0.49 0.285 0.111 0.063 0.218 0.128 0.331 0.19 0.205 0.113 0.417 0.222 0.629 0.331 0.079 0.041 0.155 0.083 0.235 0.123 0.293 0.147 0.593 0.29 0.899 0.43 0.106 0.048 0.217 0.094 0.325 0.142 0.206 0.091 0.411 0.182 0.623 0.27 0.131 0.054 0.267 0.106 0.4 0.159 0.194 0.077 0.387 0.155 0.586 0.23 0.146 0.055 0.295 0.107 0.443 0.16 0.193 0.069 0.385 0.139 0.581 0.206 0.155 0.053 0.313 0.103 0.471 0.154 0.196 0.064 0.391 0.127 0.59 0.188 0.163 0.05 0.329 0.098 0.494 0.146 0.199 0.058 0.399 0.116 0.601 0.172 0.17 0.047 0.341 0.091 0.513 0.136 0.204 0.053 0.408 0.106 0.615 0.156 0.175 0.043 0.352 0.084 0.53 0.125 0.21 0.048 0.421 0.096 0.634 0.142 0.18 0.039 0.361 0.076 0.542 0.113 0.216 0.044 0.432 0.086 0.651 0.127 0.183 0.034 0.367 0.068 0.552 0.1 0.223 0.039 0.449 0.076 0.675 0.112 0.185 0.03 0.371 0.059 0.558 0.087 0.23 0.034 0.463 0.066 0.696 0.097 0.187 0.025 0.374 0.05 0.563 0.073 0.24 0.029 0.482 0.056 0.724 0.082 0.186 0.02 0.371 0.041 0.558 0.059 0.25 0.024 0.502 0.045 0.754 0.066 0.186 0.015 0.37 0.032 0.557 0.045 0.263 0.019 0.529 0.034 0.795 0.049 0.177 0.01 0.353 0.022 0.532 0.031 0.038 2e-3 0.075 5e-3 0.113 7e-3 -0.797 0.037-1.601 0.057-2.41 0.057-13.318 0-25-5.607-25-12 0-2.203 1.415-3.973 3-5.266zm-3 13.714v-3.16c0.016 0.02 0.035 0.039 0.051 0.058 0.222 0.277 0.461 0.55 0.715 0.818 0.057 0.06 0.117 0.118 0.175 0.177 0.226 0.229 0.463 0.454 0.711 0.676 0.059 0.053 0.115 0.106 0.176 0.158 0.058 0.051 0.114 0.1 0.172 0.148v5.571c-1.285-1.376-2-2.881-2-4.446zm6 15v-3.16c0.558 0.707 1.235 1.382 2 2.026v5.579c-1.285-1.375-2-2.88-2-4.445zm23 11.51v-5.998c0.048 2e-3 0.097 1e-3 0.145 3e-3 0.614 0.022 1.232 0.037 1.855 0.037 0.628 0 1.249-0.015 1.866-0.037 0.044-2e-3 0.09-1e-3 0.134-3e-3v5.998c-0.661 0.025-1.327 0.042-2 0.042s-1.339-0.017-2-0.042zm27-14.669v3.16c0 1.565-0.715 3.07-2 4.446v-5.571c0.058-0.048 0.114-0.097 0.171-0.146 0.06-0.052 0.117-0.106 0.176-0.158 0.249-0.222 0.486-0.447 0.711-0.676 0.058-0.059 0.119-0.118 0.175-0.177 0.255-0.268 0.493-0.541 0.715-0.818 0.017-0.022 0.036-0.041 0.052-0.06z"/>
 </g>
</svg>
