<?xml version="1.0" encoding="UTF-8"?>
<svg version="1.1" viewBox="0 0 24 24" xmlns="http://www.w3.org/2000/svg">
 <style type="text/css">.st0{fill:#FFFFFF;}
	.st1{fill:#8DC742;}</style>
 <g transform="matrix(.34483 0 0 .34483 2 2)">
  <path d="m32 0c-1.021 0-2.025 0.076-3.015 0.21-1.032-0.138-2.013-0.21-2.985-0.21-7.362 0-14.001 3.571-18.66 9.264-0.047 0.042-0.081 0.092-0.119 0.142-1.485 1.839-2.761 3.898-3.793 6.126-0.026 0.049-0.049 0.097-0.068 0.15-0.711 1.557-1.304 3.193-1.76 4.897-0.045 0.096-0.065 0.201-0.078 0.31-0.661 2.576-1.022 5.296-1.022 8.111 0 4.404 0.872 8.579 2.423 12.321 0.014 0.04 0.027 0.078 0.046 0.116 0.93 2.218 2.1 4.28 3.473 6.145 0.035 0.048 0.064 0.099 0.107 0.14 1.39 1.865 2.983 3.526 4.74 4.942 0.05 0.055 0.11 0.096 0.172 0.139 4.127 3.272 9.138 5.197 14.539 5.197 0.972 0 1.953-0.072 2.985-0.21 0.99 0.134 1.994 0.21 3.015 0.21 14.061 0 25.5-13.009 25.5-29s-11.439-29-25.5-29zm-10.56 2.614c-0.331 0.172-0.658 0.352-0.981 0.539-0.181 0.105-0.363 0.206-0.541 0.316-0.277 0.17-0.548 0.35-0.818 0.531h-1.925c1.462-0.684 2.988-1.223 4.579-1.558-0.107 0.053-0.208 0.117-0.314 0.172zm-10.08 43.386h-3.586c-0.882-1.246-1.665-2.585-2.345-4h3.788c0.157 0.354 0.318 0.705 0.487 1.051 0.073 0.149 0.149 0.296 0.225 0.444 0.205 0.402 0.417 0.797 0.638 1.186 0.082 0.145 0.161 0.292 0.246 0.436 0.176 0.299 0.361 0.591 0.547 0.883zm-6.392-29h3.827c-0.175 0.437-0.341 0.879-0.498 1.327-0.043 0.124-0.087 0.247-0.129 0.371-0.144 0.43-0.278 0.864-0.405 1.302h-3.906c0.318-1.031 0.69-2.031 1.111-3zm-2.468 12c0-0.674 0.036-1.338 0.078-2h3.987c-1e-3 0.016-1e-3 0.032-2e-3 0.048-0.037 0.646-0.063 1.295-0.063 1.952 0 0.335 0.012 0.667 0.022 1h-3.983c-0.011-0.334-0.039-0.663-0.039-1zm4.136 3c0.038 0.421 0.087 0.839 0.141 1.255 4e-3 0.03 6e-3 0.061 0.01 0.092 0.074 0.556 0.164 1.107 0.265 1.653h-3.944c-0.195-0.982-0.349-1.981-0.448-3zm0.62-10c-0.026 0.118-0.048 0.238-0.072 0.356-0.027 0.132-0.055 0.263-0.081 0.395-0.122 0.627-0.23 1.26-0.315 1.902-4e-3 0.03-6e-3 0.061-0.01 0.092-0.012 0.085-0.019 0.17-0.03 0.255h-3.969c0.132-1.018 0.299-2.022 0.528-3zm0.239 15c0.031 0.122 0.06 0.246 0.092 0.367 0.012 0.044 0.022 0.09 0.034 0.134 0.165 0.609 0.35 1.208 0.548 1.8 0.042 0.125 0.086 0.247 0.129 0.371 0.037 0.11 0.074 0.22 0.113 0.328h-3.853c-0.379-0.971-0.705-1.973-0.983-3zm3.317-24.116c-0.084 0.143-0.164 0.291-0.246 0.436-0.221 0.389-0.434 0.785-0.638 1.186-0.075 0.148-0.152 0.294-0.225 0.444-8e-3 0.016-0.017 0.033-0.025 0.05h-3.749c0.757-1.427 1.629-2.762 2.596-4h3.503c-0.122 0.175-0.245 0.349-0.364 0.527-0.295 0.443-0.579 0.895-0.852 1.357zm2.92-6.884h2.762c-0.248 0.217-0.496 0.435-0.737 0.662-0.201 0.19-0.396 0.387-0.592 0.584-0.198 0.199-0.394 0.401-0.586 0.606-0.185 0.197-0.37 0.393-0.55 0.596-0.16 0.18-0.313 0.367-0.468 0.552h-3.302c1.074-1.117 2.233-2.124 3.473-3zm-4.408 42h3.432c0.113 0.148 0.225 0.296 0.341 0.441 0.302 0.38 0.613 0.75 0.932 1.111 0.179 0.203 0.365 0.399 0.55 0.596 0.193 0.206 0.389 0.408 0.588 0.607 0.08 0.08 0.156 0.166 0.237 0.245h-3.008c-1.099-0.899-2.126-1.903-3.072-3zm12.429 7.558c-2.293-0.483-4.46-1.369-6.47-2.558h2.419c0.128 0.099 0.26 0.192 0.389 0.288 0.207 0.154 0.414 0.309 0.625 0.456 0.393 0.274 0.794 0.537 1.201 0.787 0.178 0.109 0.36 0.211 0.541 0.316 0.323 0.187 0.65 0.367 0.981 0.539 0.107 0.055 0.208 0.119 0.314 0.172zm10.247 0.442c-0.795 0-1.58-0.047-2.354-0.136l-0.387-0.054c-0.054-7e-3 -0.107-0.016-0.16-0.023-0.346-0.049-0.689-0.106-1.029-0.172-0.029-6e-3 -0.057-0.012-0.085-0.018-0.331-0.065-0.659-0.138-0.984-0.219-0.049-0.012-0.098-0.026-0.147-0.039-0.303-0.078-0.605-0.16-0.903-0.251-0.091-0.028-0.182-0.06-0.273-0.089-0.255-0.081-0.509-0.164-0.76-0.255-0.204-0.074-0.405-0.156-0.606-0.236-0.137-0.054-0.276-0.105-0.411-0.162-5.377-2.275-9.836-6.748-12.549-12.466-0.025-0.052-0.048-0.107-0.072-0.159-0.145-0.311-0.286-0.625-0.421-0.943-0.054-0.127-0.104-0.256-0.156-0.384-0.101-0.248-0.201-0.497-0.295-0.749-0.061-0.162-0.118-0.327-0.176-0.491-0.079-0.222-0.157-0.445-0.23-0.67-0.06-0.184-0.117-0.37-0.174-0.555-0.065-0.211-0.128-0.423-0.188-0.636-0.056-0.195-0.109-0.393-0.16-0.59-0.054-0.209-0.106-0.42-0.156-0.631-0.048-0.202-0.094-0.404-0.138-0.608-0.046-0.213-0.088-0.427-0.129-0.642-0.039-0.205-0.078-0.41-0.114-0.617-0.038-0.221-0.071-0.443-0.104-0.666-0.03-0.202-0.061-0.403-0.087-0.607-0.031-0.24-0.055-0.483-0.08-0.725-0.02-0.189-0.042-0.377-0.058-0.567-0.024-0.278-0.04-0.558-0.056-0.839-9e-3 -0.158-0.022-0.314-0.029-0.472-0.018-0.44-0.029-0.883-0.029-1.329s0.011-0.889 0.029-1.33c7e-3 -0.158 0.02-0.315 0.029-0.472 0.016-0.28 0.032-0.561 0.056-0.839 0.016-0.19 0.038-0.378 0.058-0.567 0.025-0.242 0.05-0.484 0.08-0.725 0.026-0.203 0.057-0.405 0.087-0.607 0.033-0.223 0.066-0.445 0.104-0.666 0.035-0.207 0.074-0.412 0.114-0.617 0.041-0.215 0.084-0.429 0.129-0.642 0.044-0.204 0.09-0.406 0.138-0.608 0.05-0.211 0.102-0.422 0.156-0.631 0.051-0.198 0.104-0.395 0.159-0.591 0.06-0.213 0.123-0.425 0.188-0.636 0.057-0.186 0.114-0.371 0.174-0.555 0.074-0.225 0.152-0.448 0.231-0.671 0.058-0.164 0.115-0.328 0.176-0.49 0.095-0.252 0.194-0.501 0.295-0.749 0.052-0.128 0.102-0.257 0.156-0.384 0.135-0.318 0.276-0.632 0.421-0.943 0.025-0.053 0.047-0.107 0.072-0.159 2.713-5.718 7.172-10.19 12.549-12.466 0.136-0.057 0.274-0.108 0.411-0.162 0.201-0.08 0.402-0.162 0.606-0.236 0.251-0.091 0.505-0.173 0.76-0.255 0.091-0.029 0.181-0.061 0.273-0.089 0.298-0.091 0.6-0.174 0.903-0.251 0.048-0.011 0.097-0.026 0.146-0.038 0.325-0.081 0.653-0.153 0.984-0.219 0.029-6e-3 0.057-0.012 0.085-0.018 0.34-0.066 0.683-0.123 1.029-0.172 0.053-8e-3 0.107-0.016 0.16-0.023l0.387-0.054c0.775-0.088 1.56-0.135 2.355-0.135 12.958 0 23.5 12.112 23.5 27s-10.542 27-23.5 27z"/>
  <path d="m32 4c-11.855 0-21.5 11.215-21.5 25 0 8.618 3.77 16.232 9.493 20.729l0.413-0.758c0.597-1.094 1.453-2.028 2.475-2.701l6.21-3.753c0.1-0.06 0.169-0.19 0.169-0.316v-1.218c-2.642-1.305-4.486-3.725-5.49-7.207-1.52-0.727-2.54-2.315-2.54-4.041v-1.73c0-1.457 0.703-2.767 1.867-3.541 0.208-1.645 0.594-3.159 1.149-4.508 0.236-0.573 0.436-0.998 0.599-1.343 0.496-1.053 0.525-1.116 0.17-3.027-0.132-0.71-0.238-1.433-0.315-2.147-0.042-0.382 0.072-0.744 0.318-1.019 0.536-0.597 1.609-0.502 2.081 0.198 0.369 0.547 0.918 1.135 1.633 1.746 1.828 1.566 3.814 1.965 5.159 2.023 0.287 0.012 0.579 0.038 0.875 0.077 5.95 0.785 9.175 3.845 9.848 9.35 0.834 0.767 1.337 1.926 1.337 3.135v1.438c0 1.461-0.718 2.768-1.833 3.422-0.769 3.041-2.246 5.273-4.399 6.649v1.182c0 0.073 0.022 0.115 0.03 0.125l4.691 2.415c0.909 0.458 1.647 1.247 2.125 2.279l0.278 0.601c4.097-4.554 6.657-10.964 6.657-18.06 0-13.785-9.645-25-21.5-25z"/>
 </g>
</svg>
