<svg viewBox="0 0 24 24" xmlns="http://www.w3.org/2000/svg"><path d="M13.035 2c-.353 0-.699.026-1.04.072A7.719 7.719 0 0 0 10.965 2C8.428 2 6.139 3.231 4.532 5.195c-.016.014-.028.031-.041.048A10.152 10.152 0 0 0 3.16 7.408c-.246.537-.45 1.1-.607 1.688a.346.346 0 0 0-.027.107A11.245 11.245 0 0 0 2.172 12c0 1.519.301 2.958.836 4.249l.016.04c.32.765.724 1.476 1.197 2.119.012.016.022.034.037.048a9.4 9.4 0 0 0 1.635 1.704c.017.02.038.033.06.048C7.374 21.336 9.102 22 10.965 22c.335 0 .673-.025 1.029-.072.341.046.687.072 1.04.072 4.848 0 8.793-4.486 8.793-10S17.883 2 13.035 2zm-3.642.901c-.114.06-.227.122-.338.186-.063.036-.125.071-.187.11-.095.058-.189.12-.282.182h-.664a7.254 7.254 0 0 1 1.58-.537c-.037.018-.072.04-.109.06zM5.917 17.862H4.681a9.53 9.53 0 0 1-.809-1.38h1.306c.054.123.11.244.168.363.025.052.052.102.078.153.07.139.144.275.22.41.028.05.055.1.085.15.06.103.124.203.188.304zm-2.204-10h1.32c-.06.15-.118.303-.172.458l-.044.128c-.05.148-.096.298-.14.449H3.33c.11-.356.238-.7.383-1.035zM2.863 12c0-.232.011-.461.026-.69h1.375v.017c-.014.223-.023.447-.023.673 0 .116.005.23.008.345H2.876c-.004-.115-.014-.229-.014-.345zm1.425 1.035c.013.145.03.289.049.432l.003.032c.026.192.057.382.092.57h-1.36c-.068-.339-.12-.683-.155-1.034zm.214-3.449-.025.123-.028.136c-.042.216-.079.435-.108.656l-.004.032-.01.088H2.958c.046-.351.103-.697.182-1.035zm.083 5.173.031.126.012.046c.057.21.12.417.189.621l.044.128.04.113H3.57c-.13-.335-.242-.68-.338-1.034zm1.143-8.316-.085.15c-.076.134-.15.27-.22.41-.025.05-.052.1-.077.152l-.009.017H4.044c.262-.492.562-.952.896-1.379h1.208c-.042.06-.085.12-.126.182-.102.153-.2.308-.294.468zm1.007-2.374h.953a9.31 9.31 0 0 0-.255.228c-.069.066-.136.134-.204.202a9.628 9.628 0 0 0-.202.209c-.064.068-.127.135-.19.205-.055.062-.107.127-.16.19h-1.14A8.34 8.34 0 0 1 6.736 4.07zm-1.52 14.483H6.4c.039.05.077.102.117.152.104.13.212.259.322.383a8.943 8.943 0 0 0 .392.415c.028.027.054.057.082.084H6.275a8.542 8.542 0 0 1-1.06-1.034zm4.286 2.606a7.364 7.364 0 0 1-2.231-.882h.834l.134.1c.072.052.143.106.216.157.135.094.274.185.414.27.061.039.124.074.187.11.11.064.224.126.338.186.037.019.072.04.108.06zm3.534.152c-.275 0-.545-.016-.812-.046l-.134-.019-.055-.008a7.047 7.047 0 0 1-.355-.06l-.029-.005a6.904 6.904 0 0 1-.34-.076l-.05-.013a7.283 7.283 0 0 1-.311-.087l-.094-.03a6.87 6.87 0 0 1-.263-.089 4.717 4.717 0 0 1-.208-.081c-.048-.019-.096-.036-.142-.056-1.854-.784-3.392-2.327-4.327-4.299-.01-.017-.017-.036-.025-.054a9.499 9.499 0 0 1-.145-.326c-.02-.043-.036-.088-.054-.132a9.336 9.336 0 0 1-.102-.258c-.021-.056-.04-.113-.06-.17a8.675 8.675 0 0 1-.08-.23l-.06-.192a9.43 9.43 0 0 1-.266-1.071l-.04-.213a9.95 9.95 0 0 1-.035-.23c-.01-.07-.021-.139-.03-.21l-.028-.25-.02-.195a9.933 9.933 0 0 1-.019-.289c-.003-.054-.008-.108-.01-.163a11.206 11.206 0 0 1 0-.917c.002-.054.007-.108.01-.162.006-.097.011-.194.02-.29a12.04 12.04 0 0 1 .048-.446c.008-.07.019-.139.029-.208a9.95 9.95 0 0 1 .48-1.937l.061-.17.102-.258.054-.132a8.66 8.66 0 0 1 .145-.325l.025-.055c.935-1.972 2.473-3.514 4.327-4.299.047-.02.094-.037.142-.056.069-.027.138-.055.208-.08.087-.032.175-.06.263-.089l.094-.03a6.81 6.81 0 0 1 .311-.087c.017-.004.034-.01.05-.013.112-.028.226-.053.34-.076l.029-.006a7.047 7.047 0 0 1 .41-.067l.133-.019c.268-.03.538-.046.813-.046 4.468 0 8.103 4.176 8.103 9.31s-3.635 9.31-8.103 9.31z"/><path d="M13.035 3.38C8.947 3.38 5.62 7.246 5.62 12c0 2.972 1.3 5.597 3.273 7.148l.143-.261c.205-.378.5-.7.853-.932l2.141-1.294a.131.131 0 0 0 .059-.109v-.42c-.911-.45-1.547-1.284-1.893-2.485a1.557 1.557 0 0 1-.876-1.393v-.597c0-.502.242-.954.644-1.221a6.097 6.097 0 0 1 .602-2.018c.171-.363.181-.385.059-1.043a9.845 9.845 0 0 1-.109-.74.447.447 0 0 1 .11-.352c.185-.206.555-.173.718.068.127.189.316.391.563.602.63.54 1.315.678 1.779.698.099.004.2.013.301.026 2.052.271 3.164 1.326 3.396 3.224.288.265.461.665.461 1.081v.496c0 .504-.247.955-.632 1.18-.265 1.049-.774 1.819-1.517 2.293v.408c0 .025.008.04.01.043l1.618.833c.314.158.568.43.733.785l.096.208c1.413-1.57 2.295-3.781 2.295-6.228 0-4.753-3.325-8.62-7.413-8.62z"/></svg>