<svg viewBox="0 0 24 24" xmlns="http://www.w3.org/2000/svg"><path d="m8.534 9.099-.085.03 1.15.242c.936.196 1.941.296 2.985.296.539 0 1.066-.028 1.58-.08.879-.08 1.687-.226 2.41-.423l.092-.019-.011-.004c2.272-.635 3.678-1.76 3.678-2.808 0-1.474-2.867-3-7.666-3S5 4.86 5 6.333C5 7.36 6.347 8.457 8.534 9.1zm2.953-1.467c-.541-.177-.85-.479-.916-.898l-.036-.226-.224-.048a.369.369 0 0 1-.111-.04l.047-.154c.012-.022.084-.083.22-.122l.15-.043.064-.142c.066-.148.157-.282.27-.397.05-.05.092-.088.126-.118.11-.1.18-.184.215-.292.397.131.84.145 1.148.132.047-.002.096-.003.145-.003 1.42 0 1.767.39 1.904.682l.064.138.147.042c.137.039.21.1.22.117l.049.16a.37.37 0 0 1-.111.04l-.225.048-.036.226c-.066.42-.374.721-.915.898l-.26.084.072.62c.026.216.185.404.417.49l.244.093c-.08.008-.163.012-.244.019a16.177 16.177 0 0 1-2.882-.03l.22-.08c.237-.086.4-.276.425-.495l.07-.617zM12.667 4c4.66 0 7 1.496 7 2.333 0 .687-1.44 1.867-4.127 2.39l-1.39-.52-.004-.035c.669-.29.952-.734 1.064-1.123a.752.752 0 0 0 .355-.3.586.586 0 0 0 .055-.475l-.063-.205c-.067-.218-.262-.404-.534-.514-.492-.836-1.618-.937-2.439-.937-.058 0-.116.002-.172.004-.373.015-.71-.025-.951-.112a.87.87 0 0 1-.206-.096.424.424 0 0 0-.433-.031l-.201.114v.205c0 .064.004.141.019.225l.002.015a.535.535 0 0 0-.016.014c-.04.036-.089.081-.148.141a2 2 0 0 0-.341.461c-.267.11-.459.295-.525.51l-.063.206c-.05.161-.03.33.055.475a.753.753 0 0 0 .354.3c.113.389.396.834 1.064 1.123l-.004.035-1.37.494c-2.596-.537-3.981-1.69-3.981-2.364 0-.837 2.339-2.333 7-2.333z"/><path d="M20 11.882v-.084c1.051-.74 1.666-1.651 1.666-2.649V6.333c0-2.47-3.868-4.333-9-4.333s-9 1.863-9 4.333v.757C2.58 7.819 2 8.705 2 9.667v2.816c0 1.099.745 2.094 2 2.87v2.13C4 20.015 7.953 22 13 22s9-1.985 9-4.517v-2.816c0-1.062-.696-2.02-2-2.785zm1.333 2.785c0 2.13-3.894 4-8.333 4a16.216 16.216 0 0 1-1.548-.077l-.139-.014c-2.742-.295-5.075-1.284-6.095-2.534-.013-.016-.028-.033-.04-.05l-.045-.06c.47.2.98.377 1.527.526 1.48.973 3.782 1.53 6.34 1.53 4.518 0 7.666-1.75 7.666-3.321 0-.463-.28-.924-.816-1.344.01-.024.015-.048.023-.072l.033-.104c.011-.04.02-.08.03-.121l.023-.106c.007-.04.012-.082.018-.123.004-.036.01-.071.013-.107l.003-.03c.69.466 1.34 1.137 1.34 2.007zm-6.956 4.611.03-.002a16.885 16.885 0 0 0 1.26-.152v1.997c-.431.07-.877.124-1.334.16v-2c.015 0 .03-.001.044-.003zm1.956-.277.056-.012c.179-.038.356-.078.53-.122l.067-.018c.117-.03.233-.061.347-.094v1.997c-.32.092-.654.174-1 .246v-1.997zM18 18.545l.053-.02.075-.026c.138-.05.272-.102.405-.155l.112-.046.022-.01v1.988c-.213.093-.435.18-.667.262v-1.993zm1.333-.566.168-.09.097-.053c.128-.072.253-.146.373-.222l.028-.017v1.941a6.416 6.416 0 0 1-.666.414V17.98zM6 17.597c.208.133.433.258.667.378v1.977A6.473 6.473 0 0 1 6 19.538zm-2-5 .028.017c.12.076.245.15.374.222l.096.053.168.09v1.688h-.479A5.933 5.933 0 0 1 4 14.538zm1.468.746c.132.054.266.106.404.155l.075.028.053.018v1.994c-.232-.082-.454-.17-.666-.262v-1.988l.022.01.112.045zm1.613.524c.173.044.35.084.53.122l.055.012v1.997a16.194 16.194 0 0 1-.584-.134 13.616 13.616 0 0 1-.415-.112v-1.997c.114.033.23.064.347.094l.067.018zm1.945.352c.187.022.376.041.567.057l.03.003.043.003v1.994c-.23-.017-.457-.037-.682-.063-.11-.013-.216-.029-.323-.043-.111-.016-.219-.035-.328-.052v-1.994a15.543 15.543 0 0 0 .693.095zm1.974.114c.224 0 .445-.007.667-.016v2.002h-.021c-.214.009-.43.014-.646.014-.223 0-.445-.012-.667-.02V14.32h.045c.206.008.413.013.622.013zM4.333 8.096l.017.02c.074.092.154.183.239.272l.058.06c.075.076.154.15.237.225.02.017.038.035.059.052l.057.05v1.856c-.428-.458-.667-.96-.667-1.482zm1.334 1.167.028.018c.12.076.245.15.373.222l.097.052.168.09v1.974a6.473 6.473 0 0 1-.667-.414V9.263zM7 9.955l.022.01.112.045c.132.054.267.105.405.155l.075.027.053.019v1.994c-.232-.082-.454-.17-.667-.262V9.955zm1.333.467c.114.033.23.064.347.094l.068.018c.173.043.35.083.53.121l.055.013v1.997c-.346-.072-.68-.154-1-.247v-1.996zM10 10.79a15.543 15.543 0 0 0 .693.094c.187.022.376.042.567.057l.03.003.043.003v1.999c-.457-.036-.902-.09-1.333-.16zm2.667.209c.209 0 .416-.005.622-.012l.044-.001v1.992c-.222.009-.443.02-.666.02-.225 0-.447-.005-.667-.013v-2c.015.001.03 0 .045.002.205.007.412.012.622.012zm1.406-.057a16.885 16.885 0 0 0 1.26-.152v1.993c-.125.02-.248.043-.375.06-.067.01-.133.02-.2.028-.25.03-.503.052-.758.072v-1.995l.044-.003.03-.003zm2.513-.41.067-.017c.117-.03.233-.062.347-.094v1.996a8.13 8.13 0 0 1-.129.036h-.001a13.912 13.912 0 0 1-.786.193l-.084.018v-1.997l.055-.013c.18-.038.357-.078.53-.121zm1.209-.368c.137-.05.272-.101.404-.155l.113-.045.022-.01v1.988c-.213.093-.435.18-.667.262v-1.993l.053-.02.075-.027zm1.47-.662c.128-.072.253-.146.373-.222l.028-.018v1.942a6.416 6.416 0 0 1-.667.414V9.645l.169-.09.096-.052zm-9.09 7.478.038.001.043.002.084.003a18.726 18.726 0 0 0 1.124.007l.15-.005.062-.002.092-.004.155-.006.179-.01c.09-.006.18-.01.27-.017l.196-.017.247-.022c.065-.006.13-.014.194-.021.08-.01.161-.017.24-.027.066-.008.13-.018.195-.027.077-.01.155-.02.23-.032l.194-.031c.075-.013.15-.024.224-.038.064-.011.126-.024.19-.036.072-.013.144-.027.215-.042l.189-.04.208-.047.183-.045.202-.052c.06-.015.118-.032.176-.048.067-.02.133-.037.199-.057l.172-.053.189-.06c.057-.02.112-.04.168-.058l.182-.065.162-.061.175-.07c.052-.02.103-.042.155-.064.057-.024.114-.048.169-.073l.148-.069a8.028 8.028 0 0 0 .304-.15l.153-.08a8.552 8.552 0 0 0 .546-.327 8.419 8.419 0 0 0 .362-.258 5.875 5.875 0 0 0 .433-.371 5.922 5.922 0 0 0 .19-.194 5.328 5.328 0 0 0 .173-.2 3.073 3.073 0 0 0 .153-.204l.054-.08c.294.257.458.515.458.736 0 .9-2.47 2.655-7 2.655-1.372 0-2.495-.157-3.393-.374.187.015.377.025.569.033zM16 15.538v-2.007l.064-.023c.122-.044.247-.085.365-.132.082-.032.158-.069.237-.103v2.003c-.212.093-.434.18-.666.262zm-1.406-1.604c.14-.032.282-.061.418-.097.11-.029.214-.063.32-.094v2.009c-.32.092-.653.174-1 .246v-2.003c.09-.019.175-.04.262-.06zm2.74 1.019V13.03c.229-.068.45-.142.666-.22v1.727a6.473 6.473 0 0 1-.667.415zm-4.672-.701c.11-.011.217-.027.326-.04.16-.02.323-.036.481-.06.067-.01.131-.024.198-.035v2.005l-.085.013c-.1.016-.2.03-.301.044l-.236.032a16.198 16.198 0 0 1-.698.069h-.014v-2.003c.11-.01.22-.014.329-.025zm6.671-1.77c0 .254-.057.503-.164.744l-.03.063a2.729 2.729 0 0 1-.403.595c-.02.023-.038.046-.059.068l-.01.01v-1.42c.233-.104.456-.213.666-.328zm-12 5.806c.215.09.437.176.667.256v1.994c-.232-.082-.454-.17-.667-.262zm1.334.465c.322.092.654.177 1 .248v1.997c-.346-.072-.68-.154-1-.246zm1.666.37c.052.009.106.015.159.023a13.893 13.893 0 0 0 .62.081c.127.015.254.027.383.04l.172.014v2c-.457-.036-.903-.09-1.334-.16zM21 8.096V9.15c0 .521-.239 1.023-.667 1.482V8.775c.02-.016.038-.033.057-.05a4.95 4.95 0 0 0 .296-.278c.02-.019.04-.038.058-.058.085-.09.164-.18.238-.273l.018-.02zm-8.333-5.43C17.34 2.667 21 4.278 21 6.334c0 2.131-3.894 4-8.333 4s-8.334-1.869-8.334-4c0-2.056 3.66-3.666 8.334-3.666zm-9 5.245V9.15c0 .077.004.154.011.23.002.025.007.05.01.075.007.05.013.1.022.15l.021.09c.01.044.02.09.033.134l.03.093c.014.042.028.084.044.125.012.032.027.064.04.096a2.89 2.89 0 0 0 .167.33 3.159 3.159 0 0 0 .2.299 4.044 4.044 0 0 0 .643.682l.099.084.122.097.105.08.134.095.11.076c.047.032.096.063.146.094.037.023.074.048.113.07.053.033.108.064.163.096.037.02.073.043.11.063.069.038.14.074.21.11l.078.042c.098.049.198.096.3.143l.108.047.208.09.133.053.196.077.147.053c.065.023.129.047.194.069.052.018.104.034.157.051.065.022.13.043.197.063l.164.049.2.057c.057.016.114.03.172.045a12.502 12.502 0 0 0 .774.179 13.89 13.89 0 0 0 .811.142 16.208 16.208 0 0 0 .661.084l.186.02.252.022.185.015.265.016.178.01.037.003c-.265.012-.533.019-.803.019-4.44 0-8.333-1.87-8.333-4 0-.735.471-1.325 1-1.756zm-1 4.572v-1.054l.017.02c.074.092.153.183.238.272l.058.06c.076.076.155.15.237.225l.059.052.057.05v1.857c-.428-.46-.666-.96-.666-1.482zm2 5v-1.054c.186.236.411.46.666.676v1.86c-.428-.46-.666-.96-.666-1.482zm7.666 3.836v-2l.049.002a17.25 17.25 0 0 0 1.24 0l.045-.001v2a17.628 17.628 0 0 1-1.333 0zm9-4.89v1.054c0 .522-.238 1.023-.667 1.482v-1.857l.057-.049.06-.052a4.95 4.95 0 0 0 .236-.226l.058-.059c.085-.09.165-.18.239-.272.005-.008.012-.014.017-.02z"/></svg>