<svg viewBox="0 0 24 24" xmlns="http://www.w3.org/2000/svg"><path d="M4.139 3.816A2.134 2.134 0 0 0 2 5.956v8.048c0 1.185.954 2.139 2.139 2.139h2.613l-.719 4.04 5.446-4.04h8.382a2.134 2.134 0 0 0 2.14-2.14V5.956a2.134 2.134 0 0 0-2.14-2.139H4.138zm1.918 4.436c.887 0 1.605.77 1.605 1.719 0 .949-.718 1.716-1.605 1.716s-1.608-.767-1.608-1.716c0-.95.72-1.72 1.608-1.72zm5.943 0c.887 0 1.606.77 1.606 1.719 0 .949-.719 1.716-1.606 1.716-.887 0-1.605-.767-1.605-1.716 0-.95.718-1.72 1.605-1.72zm5.943 0c.888 0 1.608.77 1.608 1.719 0 .949-.72 1.716-1.607 1.716-.888 0-1.606-.767-1.606-1.716 0-.95.718-1.72 1.605-1.72z"/></svg>