<?xml version="1.0" encoding="UTF-8"?>
<svg version="1.1" viewBox="0 0 24 24" xmlns="http://www.w3.org/2000/svg">
 <style type="text/css">.st0{fill:#FFFFFF;}
	.st1{fill:#8DC742;}</style>
 <path d="m4.1387 3.8164c-1.1846 1e-7 -2.1387 0.95405-2.1387 2.1387v8.0488c0 1.1846 0.95405 2.1387 2.1387 2.1387h2.6133l-0.71875 4.041 5.4453-4.041h8.3828c1.1846 0 2.1387-0.95405 2.1387-2.1387v-8.0488c0-1.1846-0.95406-2.1387-2.1387-2.1387h-15.723zm1.918 4.4355c0.88708 0 1.6055 0.76975 1.6055 1.7188 0 0.949-0.71839 1.7168-1.6055 1.7168-0.88708 0-1.6074-0.76792-1.6074-1.7168 0-0.94888 0.72026-1.7188 1.6074-1.7188zm5.9434 0c0.88724 0 1.6055 0.76975 1.6055 1.7188 0 0.949-0.71835 1.7168-1.6055 1.7168-0.88708 0-1.6055-0.76792-1.6055-1.7168 0-0.94888 0.71823-1.7188 1.6055-1.7188zm5.9434 0c0.88724 0 1.6075 0.76975 1.6074 1.7188 0 0.949-0.72018 1.7168-1.6074 1.7168-0.88712 0-1.6055-0.76776-1.6055-1.7168 0-0.949 0.71835-1.7188 1.6055-1.7188z" stroke-width=".81636"/>
 <g transform="matrix(.040918 0 0 .040918 2 2)"></g>
 <g transform="matrix(.040766 0 0 .040766 2 2)"></g>
</svg>
