<svg viewBox="0 0 24 24" xmlns="http://www.w3.org/2000/svg"><path d="M9.598 8.4c.26-1.065-.053-2.235-.949-2.987L6.875 3.914A2.97 2.97 0 1 0 3.063 8.47L4.85 9.967c.895.752 2.108.88 3.112.439l1.029.867 2.012-1.689zm-1.852.115a1.285 1.285 0 0 1-1.809.159L4.151 7.175a1.285 1.285 0 0 1 1.65-1.967l1.786 1.5c.542.454.613 1.265.159 1.807zm5.01 5.932 5.455 4.598a2.562 2.562 0 0 0 3.64-.323l-7.08-5.965z"/><path d="M21.945 5.278a2.617 2.617 0 0 0-3.687-.323l-10.295 8.64a2.973 2.973 0 0 0-3.111.438L3.066 15.53a2.976 2.976 0 0 0-.367 4.189 2.976 2.976 0 0 0 4.188.366l1.786-1.499a2.972 2.972 0 0 0 .972-2.987zm-9.983 5.894a.909.909 0 1 1 0 1.817.909.909 0 0 1 0-1.817zm-4.375 6.121-1.786 1.499a1.285 1.285 0 0 1-1.65-1.966l1.786-1.5a1.285 1.285 0 0 1 1.808.16 1.285 1.285 0 0 1-.158 1.807z"/><path d="M15.394 11.793h1.652v.825h-1.652zm2.477 0h1.652v.825H17.87zm2.478 0H22v.825h-1.65z"/></svg>