<?xml version="1.0" encoding="UTF-8"?>
<svg version="1.1" viewBox="0 0 24 24" xmlns="http://www.w3.org/2000/svg">
 <g transform="matrix(.03268 0 0 .03268 2 2)">
  <path d="m232.49 195.86c7.978-32.608-1.617-68.425-29.02-91.425l-54.288-45.855c-38.426-32.236-95.734-27.208-127.98 11.212-32.235 38.42-27.119 95.917 11.314 128.15l54.692 45.861c27.403 22.994 64.496 26.929 95.222 13.411l31.484 26.544 61.584-51.679zm-56.676 3.505c-13.923 16.595-38.742 18.768-55.343 4.845l-54.648-45.855c-16.588-13.923-18.761-38.742-4.845-55.337s38.742-18.755 55.337-4.839l54.654 45.861c16.588 13.918 18.761 38.743 4.845 55.325z"/>
  <path d="m329.14 380.88 166.9 140.68c33.89 28.433 83.017 24.005 111.41-9.873l-216.68-182.52z"/>
  <path d="m610.32 100.31c-28.433-33.878-78.943-38.306-112.83-9.873l-315.03 264.35c-30.726-13.525-67.794-9.589-95.203 13.411l-54.648 45.855c-38.426 32.242-43.454 89.732-11.219 128.16 32.248 38.42 89.739 43.448 128.16 11.206l54.648-45.861c27.409-22.994 37.719-58.811 29.74-91.413zm-305.48 180.34c15.375 0 27.814 12.457 27.814 27.814 0 15.369-12.438 27.814-27.814 27.814-15.357 0-27.807-12.451-27.807-27.814 0-15.357 12.451-27.814 27.807-27.814zm-133.88 187.32-54.654 45.861c-16.595 13.923-41.42 11.75-55.337-4.839-13.923-16.595-11.75-41.414 4.845-55.33l54.648-45.861c16.601-13.923 41.42-11.75 55.343 4.845 13.916 16.582 11.743 41.401-4.845 55.324z"/>
  <rect x="409.86" y="299.65" width="50.536" height="25.268"/>
  <rect x="485.66" y="299.65" width="50.536" height="25.268"/>
  <rect x="561.47" y="299.65" width="50.536" height="25.268"/>
 </g>
</svg>
