<?xml version="1.0" encoding="UTF-8"?>
<svg version="1.1" viewBox="0 0 24 24" xmlns="http://www.w3.org/2000/svg">
 <style type="text/css">.st0{fill:#FFFFFF;}
	.st1{fill:#8DC742;}</style>
 <style type="text/css">.st0{fill:#FFFFFF;}
	.st1{fill:#8DC742;}</style>
 <path id="XMLID_564_" d="m9.6523 2c-0.39544 0-0.7168 0.32136-0.7168 0.7168 0 0.092432 0.016932 0.18061 0.048828 0.26172h-4.0352c-0.39544 0-0.7168 0.3194-0.7168 0.71484 0 0.39544 0.32129 0.7168 0.7168 0.7168h14.102c0.39544 0 0.7168-0.32136 0.7168-0.7168 0-0.39544-0.32136-0.71484-0.7168-0.71484h-4.0352c0.0319-0.081106 0.048828-0.16935 0.048828-0.26172 0-0.39544-0.3194-0.7168-0.71484-0.7168h-4.6973zm-4.7285 3.6621c-0.20374 0-0.39937 0.086419-0.53516 0.23828-0.13585 0.15186-0.20039 0.3542-0.17773 0.55664l1.666 14.906c0.040488 0.36244 0.34622 0.63672 0.71094 0.63672h10.824c0.36472 0 0.67045-0.27428 0.71094-0.63672l1.666-14.906c0.022653-0.2025-0.041819-0.40478-0.17773-0.55664-0.13578-0.15186-0.33141-0.23828-0.53516-0.23828h-14.152zm7.0762 3.0332c0.39544 0 0.7168 0.32136 0.7168 0.7168v8.8379c0 0.39544-0.32136 0.7168-0.7168 0.7168s-0.7168-0.32129-0.7168-0.7168v-8.8379c0-0.39544 0.32136-0.7168 0.7168-0.7168zm-3.4141 1.1602c0.39401-0.037298 0.74187 0.25085 0.7793 0.64453l0.61914 6.5254c0.037363 0.39368-0.25085 0.74387-0.64453 0.78125-0.02304 0.0022-0.045709 0.001953-0.068359 0.001953-0.36504 0-0.67774-0.2778-0.71289-0.64844l-0.61914-6.5234c-0.037364-0.39368 0.2528-0.74382 0.64648-0.78125zm6.8301 0c0.39368 0.03743 0.68189 0.38757 0.64453 0.78125l-0.61914 6.5234c-0.03522 0.37064-0.34798 0.64844-0.71289 0.64844-0.02265 0-0.04532 2.47e-4 -0.06836-0.001953-0.39368-0.03743-0.6819-0.38757-0.64453-0.78125l0.61914-6.5254c0.03743-0.39368 0.38679-0.68157 0.78125-0.64453z" stroke-width=".065093"/>
</svg>
