<svg viewBox="0 0 24 24" xmlns="http://www.w3.org/2000/svg"><path d="M9.652 2a.717.717 0 0 0-.668.979H4.95a.716.716 0 1 0 0 1.431h14.102a.716.716 0 1 0 0-1.432h-4.035A.716.716 0 0 0 14.35 2H9.653zM4.924 5.662a.719.719 0 0 0-.713.795l1.666 14.906c.04.362.346.637.71.637h10.825c.365 0 .67-.275.71-.637L19.79 6.457a.715.715 0 0 0-.713-.795H4.924zM12 8.695c.395 0 .717.322.717.717v8.838a.717.717 0 0 1-1.434 0V9.412c0-.395.322-.717.717-.717zm-3.414 1.16a.714.714 0 0 1 .78.645l.618 6.525a.716.716 0 0 1-.644.782c-.023.002-.046.002-.069.002a.717.717 0 0 1-.712-.649l-.62-6.523a.718.718 0 0 1 .647-.781zm6.83 0a.716.716 0 0 1 .645.782l-.62 6.523a.717.717 0 0 1-.713.649c-.022 0-.045 0-.068-.002a.716.716 0 0 1-.644-.782l.619-6.525a.716.716 0 0 1 .781-.645z"/></svg>