<svg viewBox="0 0 24 24" xmlns="http://www.w3.org/2000/svg"><path d="M4.084 3.666A2.09 2.09 0 0 0 2 5.75v10a2.09 2.09 0 0 0 2.084 2.084h7.5v2.082h-3.75a.417.417 0 0 0-.418.418.417.417 0 0 0 .418.416h8.332a.417.417 0 0 0 .418-.416.417.417 0 0 0-.418-.418h-3.75v-2.082h7.5A2.09 2.09 0 0 0 22 15.75v-10a2.09 2.09 0 0 0-2.084-2.084H4.084zm0 .834h15.832c.7 0 1.25.55 1.25 1.25v7.5H2.834v-7.5c0-.7.55-1.25 1.25-1.25zm-1.25 9.584h18.332v1.666c0 .7-.55 1.25-1.25 1.25H4.084c-.7 0-1.25-.55-1.25-1.25v-1.666z" color="#000" style="-inkscape-stroke:none"/></svg>