<?xml version="1.0" encoding="UTF-8"?>
<svg version="1.1" viewBox="0 0 24 24" xmlns="http://www.w3.org/2000/svg">
 <style type="text/css">.st0{fill:#FFFFFF;}
	.st1{fill:#8DC742;}</style>
 <path d="m4.084 3.666c-1.147 0-2.084 0.93703-2.084 2.084v10c0 1.147 0.93703 2.084 2.084 2.084h7.5v2.082h-3.75a0.41667 0.41667 0 0 0-0.41797 0.41797 0.41667 0.41667 0 0 0 0.41797 0.41602h8.332a0.41667 0.41667 0 0 0 0.41797-0.41602 0.41667 0.41667 0 0 0-0.41797-0.41797h-3.75v-2.082h7.5c1.147 0 2.084-0.93703 2.084-2.084v-10c0-1.147-0.93703-2.084-2.084-2.084h-15.832zm0 0.83398h15.832c0.69971 0 1.25 0.55029 1.25 1.25v7.5h-18.332v-7.5c0-0.69971 0.55029-1.25 1.25-1.25zm-1.25 9.584h18.332v1.666c0 0.69971-0.55029 1.25-1.25 1.25h-15.832c-0.69971 0-1.25-0.55029-1.25-1.25v-1.666z" color="#000000" stroke-miterlimit="10" style="-inkscape-stroke:none"/>
</svg>
