<?xml version="1.0" encoding="UTF-8"?>
<svg version="1.1" viewBox="0 0 24 24" xmlns="http://www.w3.org/2000/svg">
 <path d="m5.2305 2c-0.49504 0-0.89648 0.40004-0.89648 0.89453v0.78125h0.82812c0.7678 0 1.3926 0.65564 1.3926 1.4629s-0.62477 1.4629-1.3926 1.4629h-0.82812v1.6465h0.82812c0.7678 0 1.3926 0.6576 1.3926 1.4648 0 0.80725-0.62477 1.4648-1.3926 1.4648h-0.82812v1.6465h0.82812c0.7678 0 1.3926 0.65564 1.3926 1.4629s-0.62477 1.4629-1.3926 1.4629h-0.82812v1.6484h0.82812c0.7678 0 1.3926 0.65631 1.3926 1.4629 0 0.80725-0.62477 1.4648-1.3926 1.4648h-0.82812v0.7793c0 0.49449 0.402 0.89453 0.89648 0.89453h15.176c0.49393 0 0.89453-0.40127 0.89453-0.89453v-18.211c0-0.49504-0.3992-0.89453-0.89258-0.89453h-15.178zm-1.752 2.3184c-0.43087 0-0.7793 0.36817-0.7793 0.82031 0 0.45337 0.34843 0.8178 0.7793 0.81836h1.6836c0.42964 1e-7 0.77734-0.36565 0.77734-0.81836 0-0.45204-0.34759-0.82031-0.77734-0.82031h-1.6836zm9.6875 1.6816c1.6545 0 3 1.3455 3 3v3c0 1.6545-1.3455 3-3 3s-3-1.3455-3-3v-3c0-1.6545 1.3455-3 3-3zm-9.6875 2.8926c-0.43087 0-0.7793 0.36705-0.7793 0.82031 0 0.45215 0.34843 0.82031 0.7793 0.82031h1.6836c0.42975-0.0012 0.77734-0.36816 0.77734-0.82031 0-0.45215-0.3477-0.82031-0.77734-0.82031h-1.6836zm9.1875 0.10742c-0.27652 0-0.5 0.224-0.5 0.5 0 0.276 0.22351 0.5 0.5 0.5h1c0.27649 0 0.5-0.224 0.5-0.5 0-0.276-0.22351-0.5-0.5-0.5h-1zm-3.5 2c0.27649 0 0.5 0.224 0.5 0.5v0.5c0 1.93 1.5705 3.5 3.5 3.5s3.5-1.57 3.5-3.5v-0.5c0-0.276 0.22351-0.5 0.5-0.5s0.5 0.224 0.5 0.5v0.5c0 2.312-1.7535 4.2212-4 4.4707v0.5293h1c0.27649 0 0.5 0.224 0.5 0.5s-0.22351 0.5-0.5 0.5h-3c-0.27649 0-0.5-0.224-0.5-0.5s0.22351-0.5 0.5-0.5h1v-0.5293c-2.2465-0.24949-4-2.1587-4-4.4707v-0.5c0-0.276 0.22351-0.5 0.5-0.5zm3.5 0c-0.27652 0-0.5 0.224-0.5 0.5s0.22351 0.5 0.5 0.5h1c0.27652 0 0.5-0.224 0.5-0.5s-0.22351-0.5-0.5-0.5h-1zm-9.1875 2.4668c-0.43087 5.57e-4 -0.7793 0.36499-0.7793 0.81836 0 0.45215 0.34843 0.82031 0.7793 0.82031h1.6836c0.42975 0 0.77734-0.36694 0.77734-0.82031 0-0.45215-0.3477-0.81836-0.77734-0.81836h-1.6836zm0 4.5742c-0.43087 5.57e-4 -0.7793 0.36621-0.7793 0.81836 0 0.45326 0.34843 0.82031 0.7793 0.82031h1.6836c0.42975 0 0.77734-0.36705 0.77734-0.82031 0-0.45148-0.3477-0.81836-0.77734-0.81836h-1.6836z" fill="#010002" stroke-width=".11142"/>
</svg>
