<svg viewBox="0 0 24 24" xmlns="http://www.w3.org/2000/svg"><path d="M5.23 2c-.495 0-.896.4-.896.895v.78h.828c.768 0 1.393.656 1.393 1.464S5.93 6.602 5.162 6.602h-.828v1.646h.828c.768 0 1.393.658 1.393 1.465s-.625 1.465-1.393 1.465h-.828v1.646h.828c.768 0 1.393.656 1.393 1.463S5.93 15.75 5.162 15.75h-.828v1.648h.828c.768 0 1.393.657 1.393 1.463 0 .808-.625 1.465-1.393 1.465h-.828v.78c0 .494.402.894.897.894h15.175a.895.895 0 0 0 .895-.895V2.895c0-.496-.4-.895-.893-.895H5.23zM3.479 4.318c-.43 0-.779.369-.779.82 0 .454.349.819.78.82h1.683c.43 0 .777-.367.777-.82 0-.451-.347-.82-.777-.82H3.48zM13.167 6c1.655 0 3 1.345 3 3v3c0 1.655-1.345 3-3 3s-3-1.345-3-3V9c0-1.655 1.345-3 3-3zM3.478 8.893c-.43 0-.779.367-.779.82 0 .452.349.82.78.82h1.683c.43-.001.777-.368.777-.82 0-.452-.347-.82-.777-.82H3.48zM12.667 9a.5.5 0 1 0 0 1h1a.5.5 0 1 0 0-1h-1zm-3.5 2a.5.5 0 0 1 .5.5v.5c0 1.93 1.57 3.5 3.5 3.5s3.5-1.57 3.5-3.5v-.5a.5.5 0 1 1 1 0v.5a4.505 4.505 0 0 1-4 4.47V17h1a.5.5 0 1 1 0 1h-3a.5.5 0 1 1 0-1h1v-.53a4.505 4.505 0 0 1-4-4.47v-.5a.5.5 0 0 1 .5-.5zm3.5 0a.5.5 0 1 0 0 1h1a.5.5 0 1 0 0-1h-1zm-9.188 2.467c-.43 0-.779.365-.779.818 0 .452.349.82.78.82h1.683c.43 0 .777-.366.777-.82 0-.452-.347-.818-.777-.818H3.48zm0 4.574c-.43 0-.779.366-.779.818 0 .454.349.82.78.82h1.683c.43 0 .777-.366.777-.82 0-.451-.347-.818-.777-.818H3.48z" fill="#010002"/></svg>