<?xml version="1.0" encoding="UTF-8"?>
<svg version="1.1" viewBox="0 0 24 24" xmlns="http://www.w3.org/2000/svg">
 <style type="text/css">.st0{fill:#FFFFFF;}
	.st1{fill:#8DC742;}</style>
 <g transform="matrix(.041026 0 0 .041026 2 2)">
  <path d="m243.75 487.5c134.62 0 243.75-109.13 243.75-243.75s-109.13-243.75-243.75-243.75-243.75 109.13-243.75 243.75 109.13 243.75 243.75 243.75zm71.426-446.28c35.884 12.653 67.396 34.574 91.661 62.89l-89.763 91.688c-8.848-13.498-21.32-24.405-36.034-31.336zm-35.153-9.938-10.271 127.9c-4.744-1.446-9.598-2.487-14.497-3.114l-16.674-127.74c13.879-0.351 27.763 0.64 41.442 2.955zm-36.273 172.3c22.186 0 40.171 17.985 40.171 40.171s-17.985 40.171-40.171 40.171-40.171-17.985-40.171-40.171 17.985-40.171 40.171-40.171zm-55.325 108.12c12.621 10.263 27.854 16.778 43.851 18.909l-43.769 120.61c-36.029-9.609-69.435-28.52-96.381-55.384z"/>
 </g>
</svg>
