<?xml version="1.0" encoding="UTF-8"?>
<svg version="1.1" viewBox="0 0 24 24" xmlns="http://www.w3.org/2000/svg">
 <style type="text/css">.st0{fill:#FFFFFF;}
	.st1{fill:#8DC742;}</style>
 <g transform="matrix(.040918 0 0 .040918 2 2)"></g>
 <path d="m12.025 2.9824c-0.6003 0-1.0879 0.48754-1.0879 1.0879v5.3809l-1.4004-1.4004c-0.42452-0.42452-1.1127-0.42452-1.5371 0-0.42448 0.42452-0.42448 1.1127 0 1.5371 0.048783 0.04887 3.2109 3.2113 3.2598 3.2598 0.42465 0.42 1.1096 0.41883 1.5332-0.003906l3.2559-3.2559c0.42448-0.42448 0.42448-1.1126 0-1.5371-0.42444-0.42448-1.1126-0.42448-1.5371 0l-1.4004 1.4004v-5.3809c0-0.60035-0.48563-1.0879-1.0859-1.0879zm-8.793 12.6c-0.68065 0-1.2324 0.55172-1.2324 1.2324v2.9707c0 0.68065 0.55177 1.2324 1.2324 1.2324h17.535c0.68065 0 1.2324-0.55177 1.2324-1.2324v-2.9707c4.4e-5 -0.6807-0.55177-1.2324-1.2324-1.2324h-17.535z" stroke-width=".043478"/>
</svg>
