<svg version="1.1" viewBox="0 0 24 24" xmlns="http://www.w3.org/2000/svg">
 <path d="m5.9609 2c-2.1938 0-3.9609 1.7671-3.9609 3.9609v12.078c0 2.1938 1.7671 3.9609 3.9609 3.9609h12.078c2.1938 0 3.9609-1.7671 3.9609-3.9609v-12.078c0-2.1938-1.7671-3.9609-3.9609-3.9609h-12.078zm-0.31445 2.5h12.707c0.63553 0 1.1465 0.51095 1.1465 1.1465v12.707c0 0.63553-0.51095 1.1465-1.1465 1.1465h-12.707c-0.63553 0-1.1465-0.51095-1.1465-1.1465v-12.707c0-0.63553 0.51095-1.1465 1.1465-1.1465z" stroke-width="2"/>
 <g transform="translate(22.28 35.618)" stroke-width=".34925" aria-label="E">
  <path d="m-14.495-28.618h8.281v2.1351h-5.1842v1.5894h4.809v2.0396h-4.809v1.9714h5.3342v2.2647h-8.4311z"/>
 </g>
</svg>
