<svg viewBox="0 0 24 24" xmlns="http://www.w3.org/2000/svg"><path d="M15.846 15.66v2.59c0 .795-.647 1.442-1.442 1.442H5.75a1.444 1.444 0 0 1-1.442-1.442V9.596c0-.795.647-1.442 1.442-1.442h2.638l2.308-2.308H5.75A3.75 3.75 0 0 0 2 9.596v8.654A3.75 3.75 0 0 0 5.75 22h8.654a3.75 3.75 0 0 0 3.75-3.75v-4.898z" fill="#030104"/><path d="M19.37 2h-7.892c-1.45.002-1.35.392-.584 1.157l2.477 2.477-4.246 4.245a2.252 2.252 0 0 0 0 3.186l1.853 1.854c.88.878 2.305.879 3.185 0l4.246-4.247 2.431 2.431c.847.846 1.16.869 1.16-.582V4.63C22 1.986 22.018 2 19.37 2z" fill="#030104"/></svg>