<?xml version="1.0" encoding="UTF-8"?>
<svg version="1.1" viewBox="0 0 24 24" xmlns="http://www.w3.org/2000/svg">
 <style type="text/css">.st0{fill:#FFFFFF;}
	.st1{fill:#8DC742;}</style>
 <g transform="matrix(.76923 0 0 .76923 2 2)">
  <path d="m 18,17.759 v 3.366 C 18,22.159 17.159,23 16.125,23 H 4.875 C 3.841,23 3,22.159 3,21.125 V 9.875 C 3,8.841 3.841,8 4.875,8 H 8.304 L 11.305,5 H 4.875 C 2.182,5 0,7.182 0,9.875 v 11.25 C 0,23.818 2.182,26 4.875,26 h 11.25 C 18.818,26 21,23.818 21,21.125 v -6.367 z" fill="#030104"/>
  <path d="m22.581 0h-10.259c-1.886 2e-3 -1.755 0.51-0.76 1.504l3.22 3.22-5.52 5.519c-1.145 1.144-1.144 2.998 0 4.141l2.41 2.411c1.144 1.141 2.996 1.142 4.14-1e-3l5.52-5.52 3.16 3.16c1.101 1.1 1.507 1.129 1.507-0.757l1e-3 -10.258c-1e-3 -3.437 0.024-3.42-3.419-3.419z" fill="#030104"/>
 </g>
</svg>
