<svg viewBox="0 0 24 24" xmlns="http://www.w3.org/2000/svg"><path d="M22.531 5.724c.554 0 1 .446 1 1v10.552c0 .554-.446 1-1 1s-1-.446-1-1V6.725c0-.554.446-1 1-1zm-10.551 0c.256 0 .532.105.818.303l6.975 4.803c.45.31.693.726.693 1.172 0 .447-.249.864-.697 1.174l-6.98 4.8c-.287.198-.575.3-.83.3a.757.757 0 0 1-.643-.33c-.16-.217-.22-.521-.22-.891V6.953c0-.758.323-1.229.884-1.229zm-10.625 0c.255.001.53.106.814.303l6.977 4.803c.449.31.693.726.693 1.172 0 .447-.248.864-.697 1.174l-6.98 4.8c-.287.198-.574.3-.83.3a.757.757 0 0 1-.643-.33c-.16-.217-.22-.521-.22-.891V6.953c0-.758.323-1.228.884-1.229h.002z"/></svg>