<svg viewBox="0 0 24 24" xmlns="http://www.w3.org/2000/svg"><path d="M1.469 5.725c-.554 0-1 .446-1 1v10.55c0 .555.446 1 1 1s1-.445 1-1V6.726c0-.554-.446-1-1-1zm10.55 0c-.255 0-.532.104-.818.302L4.227 10.83c-.45.31-.694.726-.694 1.172 0 .447.25.864.698 1.174l6.98 4.8c.287.199.574.3.83.3a.757.757 0 0 0 .643-.33c.16-.217.22-.521.22-.891V6.953c0-.758-.323-1.229-.884-1.229zm10.626 0c-.256 0-.53.105-.815.302l-6.976 4.803c-.45.31-.694.726-.694 1.172 0 .447.249.864.698 1.174l6.98 4.8c.287.199.574.3.83.3a.757.757 0 0 0 .643-.33c.16-.217.22-.521.22-.891V6.953c0-.757-.324-1.228-.884-1.229h-.002z"/></svg>