<svg viewBox="0 0 24 24" xmlns="http://www.w3.org/2000/svg"><path d="M20.017 2H3.983a.83.83 0 0 0-.833.832V21.16a.83.83 0 0 0 .833.832H15.37c.612.098 1.269-.755 1.269-.755l3.86-3.86s.355-.273.35-.693V2.832A.83.83 0 0 0 20.017 2zm-3.643 17.148v-1.632h1.632zm2.81-3.3h-3.643a.83.83 0 0 0-.832.832v3.643H4.815V3.665h14.37z"/><path d="M8.875 10.972h6.246c.461 0 .832-.371.832-.832s-.37-.833-.832-.833H8.875a.833.833 0 0 0 0 1.665zm0 3.456h6.246c.461 0 .832-.372.832-.833s-.37-.832-.832-.832H8.875a.83.83 0 0 0-.833.832c0 .457.376.833.833.833z"/></svg>