<?xml version="1.0" encoding="UTF-8"?>
<svg version="1.1" viewBox="0 0 24 24" xmlns="http://www.w3.org/2000/svg">
 <g transform="matrix(.0408 0 0 .0408 1.5551 1.5512)">
  <path d="m452.5 11h-393c-11.3 0-20.4 9.1-20.4 20.4v449.2c0 11.3 9.1 20.4 20.4 20.4h279.1c15 2.4 31.1-18.5 31.1-18.5l94.6-94.6s8.7-6.7 8.6-17v-339.5c0-11.3-9.1-20.4-20.4-20.4zm-89.3 420.3v-40h40zm68.9-80.9h-89.3c-11.3 0-20.4 9.1-20.4 20.4v89.3h-242.5v-408.3h352.2z"/>
  <path d="m179.4 230.9h153.1c11.3 0 20.4-9.1 20.4-20.4s-9.1-20.4-20.4-20.4h-153.1c-11.3 0-20.4 9.1-20.4 20.4s9.2 20.4 20.4 20.4z"/>
  <path d="m179.4 315.6h153.1c11.3 0 20.4-9.1 20.4-20.4s-9.1-20.4-20.4-20.4h-153.1c-11.3 0-20.4 9.1-20.4 20.4 0 11.2 9.2 20.4 20.4 20.4z"/>
 </g>
</svg>
