<svg version="1.1" viewBox="0 0 24 24" xml:space="preserve" xmlns="http://www.w3.org/2000/svg"><path d="m3.1763 3.7645a1.1765 1.1765 0 0 0-1.1765 1.1765 1.1765 1.1765 0 0 0 1.1765 1.1765h17.647a1.1765 1.1765 0 0 0 1.1765-1.1765 1.1765 1.1765 0 0 0-1.1765-1.1765zm0 7.059a1.1765 1.1765 0 0 0-1.1765 1.1765 1.1765 1.1765 0 0 0 1.1765 1.1765h17.647a1.1765 1.1765 0 0 0 1.1765-1.1765 1.1765 1.1765 0 0 0-1.1765-1.1765zm0 7.059a1.1765 1.1765 0 0 0-1.1765 1.1765 1.1765 1.1765 0 0 0 1.1765 1.1765h17.647a1.1765 1.1765 0 0 0 1.1765-1.1765 1.1765 1.1765 0 0 0-1.1765-1.1765z"/></svg>
