<?xml version="1.0" encoding="UTF-8"?>
<svg version="1.1" viewBox="0 0 24 24" xmlns="http://www.w3.org/2000/svg">
 <style type="text/css">.st0{fill:#FFFFFF;}
	.st1{fill:#8DC742;}</style>
 <g transform="matrix(.040918 0 0 .040918 2 2)"></g>
 <path id="XMLID_792_" d="m20.182 12.654v-1.3065c0-4.5115-3.6704-8.1818-8.1818-8.1818-4.5115 0-8.1818 3.6703-8.1818 8.1818v1.3065c-1.1033 0.83012-1.8182 2.1501-1.8182 3.6339 0 2.5064 2.039 4.5455 4.5455 4.5455 0.50206 0 0.90909-0.40703 0.90909-0.90909v-7.2727c0-0.50206-0.40703-0.90909-0.90909-0.90909-0.31127 0-0.61527 0.03158-0.90909 0.09152v-0.48636c0-3.5089 2.8547-6.3636 6.3636-6.3636 3.5089 0 6.3636 2.8547 6.3636 6.3636v0.48636c-0.29382-0.05994-0.59782-0.09152-0.90909-0.09152-0.50206 0-0.90909 0.40703-0.90909 0.90909v7.2727c0 0.50206 0.40703 0.90909 0.90909 0.90909 2.5064 0 4.5455-2.0391 4.5455-4.5455 0-1.4839-0.71491-2.8038-1.8182-3.6339z" stroke-width=".060606"/>
</svg>
