<?xml version="1.0" encoding="UTF-8"?>
<svg version="1.1" viewBox="0 0 24 24" xmlns="http://www.w3.org/2000/svg">
 <style type="text/css">.st0{fill:#FFFFFF;}
	.st1{fill:#8DC742;}</style>
 <path id="XMLID_810_" d="m20.341 4.8348c-1.0704-1.0704-2.4963-1.6628-4.011-1.6628-1.5147 0-2.9448 0.59234-4.0152 1.667l-0.30886 0.30886-0.31732-0.31733c-1.0747-1.0747-2.5005-1.667-4.0195-1.667-1.5147 0-2.9363 0.58811-4.0068 1.6628-1.0747 1.0747-1.6628 2.5005-1.6628 4.0152 0 1.5147 0.59234 2.9406 1.667 4.011l7.7301 7.7301c0.16078 0.16078 0.38079 0.25386 0.6135 0.25386 0.22848 0 0.44849-0.09308 0.6135-0.25386l7.7089-7.7174c1.0747-1.0747 1.6628-2.5005 1.667-4.0152 0.0042-1.5147-0.58811-2.9406-1.6586-4.0152zm-12.735 2.124c-1.0112 0-1.8363 0.82505-1.8363 1.8363 0 0.46541-0.37656 0.84197-0.84197 0.84197s-0.84197-0.37656-0.84197-0.84197c0-1.9378 1.5782-3.516 3.516-3.516 0.46541 0 0.84197 0.37656 0.84197 0.84197 0.00423 0.46541-0.37233 0.83774-0.83774 0.83774z" stroke-width=".04231"/>
</svg>
