<svg viewBox="0 0 24 24" xmlns="http://www.w3.org/2000/svg"><path d="M21.63 9.309v-.006a9.938 9.938 0 0 0-.895-2.154.34.34 0 0 0 .23.093.344.344 0 0 0 .345-.345V6.56a.345.345 0 1 0-.69 0v.337c0 .02.01.038.013.058a9.744 9.744 0 0 0-.16-.264c-.009-.013-.022-.021-.032-.033a9.93 9.93 0 0 0-.7-.969c-.008-.014-.011-.03-.022-.043a10.214 10.214 0 0 0-.21-.246c-.006-.007-.015-.01-.022-.017a10.058 10.058 0 0 0-.874-.874c-.006-.006-.009-.014-.016-.02a9.967 9.967 0 0 0-.245-.209c-.012-.01-.027-.013-.04-.022a10.024 10.024 0 0 0-.972-.7c-.012-.01-.02-.023-.033-.032a9.744 9.744 0 0 0-.264-.16c.022.005.042.013.065.013h.337a.345.345 0 1 0 0-.69h-.337a.342.342 0 0 0-.25.58 9.927 9.927 0 0 0-2.155-.895l-.006-.003h-.004a9.962 9.962 0 0 0-5.385 0h-.005l-.006.003a9.937 9.937 0 0 0-2.148.892.34.34 0 0 0 .093-.232.345.345 0 0 0-.345-.344H6.56a.345.345 0 1 0 0 .69h.337c.02 0 .039-.009.058-.012a9.774 9.774 0 0 0-.264.16c-.013.008-.021.021-.033.031a10.06 10.06 0 0 0-.97.7c-.013.009-.029.012-.042.023a8.849 8.849 0 0 0-.246.21c-.007.005-.01.013-.015.02a9.91 9.91 0 0 0-.876.875c-.006.006-.014.009-.02.015-.071.08-.14.163-.21.246-.01.013-.013.029-.022.042-.251.309-.485.632-.699.97-.01.011-.024.02-.032.033a8.819 8.819 0 0 0-.16.264c.005-.021.013-.041.013-.065v-.336a.345.345 0 1 0-.69 0v.336c0 .191.155.345.345.345a.34.34 0 0 0 .236-.095 9.93 9.93 0 0 0-.896 2.154c0 .003-.002.005-.003.007v.006a9.979 9.979 0 0 0 0 5.382v.006c0 .003.003.005.004.008a9.94 9.94 0 0 0 .891 2.146.34.34 0 0 0-.232-.093.345.345 0 0 0-.344.345v.337a.345.345 0 1 0 .69 0v-.337c0-.02-.009-.038-.012-.057.051.088.104.176.159.263.013.02.03.038.046.056.21.329.44.645.685.946.009.014.012.03.023.043.069.083.139.165.21.246.006.007.014.01.02.015.274.31.567.602.876.876l.016.02c.08.07.162.14.245.208.014.012.03.018.046.027.307.25.63.483.966.696.012.01.02.023.033.032.087.054.176.108.264.16-.021-.005-.041-.013-.065-.013h-.336a.345.345 0 1 0 0 .69h.336a.342.342 0 0 0 .25-.58 9.92 9.92 0 0 0 2.155.895l.006.003h.007a9.971 9.971 0 0 0 5.38 0h.007l.006-.003a9.937 9.937 0 0 0 2.148-.892.34.34 0 0 0-.093.232c0 .19.155.344.345.344h.337a.345.345 0 1 0 0-.69h-.337c-.02 0-.038.01-.058.013.089-.053.177-.106.264-.16.014-.01.021-.022.033-.032.336-.213.658-.445.965-.696.015-.01.032-.015.047-.027a9.7 9.7 0 0 0 .246-.209c.007-.006.01-.014.016-.02.31-.275.602-.568.876-.878.006-.005.014-.007.019-.013l.21-.246c.01-.013.013-.029.022-.043.246-.301.474-.617.684-.946a.35.35 0 0 0 .047-.057c.054-.087.108-.175.16-.263-.005.022-.013.042-.013.065v.337a.345.345 0 1 0 .69 0v-.337a.345.345 0 0 0-.345-.345.34.34 0 0 0-.236.095 9.923 9.923 0 0 0 .895-2.152l.004-.009v-.006a9.979 9.979 0 0 0 0-5.382zM12 2.689c.757 0 1.491.094 2.196.265l-.958 3.83c-.398-.094-.811-.15-1.238-.15s-.84.056-1.238.15l-.958-3.83A9.313 9.313 0 0 1 12 2.69zM2.69 12c0-.756.092-1.491.264-2.196l3.83.958c-.094.398-.15.811-.15 1.238s.056.84.15 1.238l-3.83.958A9.277 9.277 0 0 1 2.69 12zM12 21.31a9.295 9.295 0 0 1-2.196-.264l.958-3.83c.398.094.811.15 1.238.15s.84-.056 1.238-.15l.958 3.83A9.295 9.295 0 0 1 12 21.31zm0-4.634c-2.578 0-4.676-2.098-4.676-4.676S9.422 7.324 12 7.324 16.676 9.422 16.676 12 14.578 16.676 12 16.676zm9.046-2.48-3.83-.958c.094-.398.15-.811.15-1.238s-.056-.84-.15-1.238l3.83-.958a9.277 9.277 0 0 1 0 4.392zM3.365 3.944c.1 0 .2-.044.269-.128.055-.068.117-.13.184-.184a.345.345 0 0 0-.43-.54 1.878 1.878 0 0 0-.292.291.345.345 0 0 0 .269.561zm1.511-.564h.336a.345.345 0 1 0 0-.69h-.336a.345.345 0 1 0 0 .69zM3.034 5.553c.19 0 .345-.154.345-.345v-.337a.345.345 0 1 0-.69 0v.337c0 .19.155.345.345.345zM18.792 3.38h.337a.345.345 0 1 0 0-.69h-.337a.345.345 0 1 0 0 .69zm1.576.438a.344.344 0 1 0 .54-.43 1.884 1.884 0 0 0-.291-.292.346.346 0 0 0-.432.537c.068.055.13.117.183.185zm.252 1.058v.337a.345.345 0 1 0 .69 0v-.337a.345.345 0 1 0-.69 0zm.346 13.571a.345.345 0 0 0-.345.345v.337a.345.345 0 1 0 .69 0v-.337a.345.345 0 0 0-.345-.345zm-1.841 2.173h-.337a.345.345 0 1 0 0 .69h.337a.345.345 0 1 0 0-.69zm1.242-.436c-.055.069-.117.13-.184.184a.345.345 0 1 0 .43.54 1.92 1.92 0 0 0 .292-.292.345.345 0 1 0-.538-.432zm-15.159.436h-.337a.345.345 0 1 0 0 .69h.337a.345.345 0 1 0 0-.69zM3.38 19.125v-.338a.345.345 0 1 0-.69 0v.338a.345.345 0 1 0 .69 0zm.252 1.058a.345.345 0 0 0-.54.43c.086.107.184.205.292.292a.346.346 0 0 0 .484-.053.345.345 0 0 0-.053-.485 1.219 1.219 0 0 1-.183-.184z"/></svg>