<?xml version="1.0" encoding="UTF-8"?>
<svg version="1.1" viewBox="0 0 24 24" xmlns="http://www.w3.org/2000/svg">
 <g transform="matrix(.34483 0 0 .34483 2 2)">
  <path d="m56.925 21.196c-1e-3 -5e-3 1e-3 -0.011-1e-3 -0.016-2e-3 -8e-3 -8e-3 -0.013-0.01-0.02-0.617-2.194-1.498-4.276-2.586-6.228 0.178 0.164 0.411 0.269 0.672 0.269 0.552 0 1-0.447 1-1v-0.977c0-0.553-0.448-1-1-1s-1 0.447-1 1v0.977c0 0.06 0.024 0.111 0.034 0.168-0.151-0.257-0.304-0.513-0.463-0.765-0.025-0.039-0.063-0.062-0.092-0.096-0.621-0.978-1.298-1.916-2.028-2.81-0.025-0.041-0.035-0.087-0.067-0.125-0.199-0.241-0.401-0.479-0.607-0.713-0.019-0.021-0.044-0.03-0.064-0.049-0.793-0.896-1.639-1.743-2.536-2.535-0.018-0.018-0.025-0.042-0.045-0.059-0.234-0.205-0.471-0.407-0.711-0.604-0.036-0.03-0.08-0.04-0.119-0.064-0.896-0.732-1.836-1.409-2.816-2.031-0.035-0.029-0.058-0.067-0.097-0.092-0.252-0.158-0.508-0.313-0.765-0.463 0.063 0.012 0.121 0.037 0.188 0.037h0.977c0.552 0 1-0.447 1-1s-0.448-1-1-1h-0.977c-0.552 0-1 0.447-1 1 0 0.266 0.108 0.504 0.277 0.683-1.958-1.094-4.048-1.979-6.25-2.598-6e-3 -1e-3 -0.01-6e-3 -0.017-8e-3 -4e-3 -1e-3 -9e-3 0-0.013 0-2.487-0.697-5.104-1.077-7.809-1.077s-5.322 0.38-7.808 1.077c-5e-3 1e-3 -9e-3 0-0.013 0-6e-3 1e-3 -0.01 6e-3 -0.017 8e-3 -2.195 0.617-4.278 1.499-6.23 2.587 0.164-0.178 0.269-0.411 0.269-0.672 0-0.553-0.448-1-1-1h-0.977c-0.552 0-1 0.447-1 1s0.448 1 1 1h0.977c0.06 0 0.112-0.024 0.169-0.034-0.258 0.151-0.513 0.305-0.766 0.464-0.039 0.025-0.062 0.063-0.096 0.092-0.979 0.622-1.917 1.299-2.812 2.03-0.04 0.024-0.085 0.034-0.122 0.065-0.241 0.198-0.479 0.4-0.713 0.607-0.02 0.017-0.028 0.041-0.046 0.059-0.897 0.793-1.745 1.641-2.538 2.538-0.018 0.018-0.042 0.026-0.059 0.045-0.206 0.234-0.408 0.472-0.607 0.713-0.031 0.037-0.041 0.083-0.065 0.123-0.73 0.894-1.406 1.832-2.027 2.81-0.03 0.035-0.069 0.058-0.094 0.098-0.158 0.252-0.312 0.507-0.463 0.765 0.013-0.062 0.038-0.12 0.038-0.187v-0.977c0-0.553-0.448-1-1-1s-1 0.447-1 1v0.977c0 0.553 0.448 1 1 1 0.266 0 0.504-0.107 0.683-0.277-1.093 1.957-1.978 4.046-2.597 6.248-2e-3 8e-3 -8e-3 0.013-0.01 0.02-1e-3 5e-3 1e-3 0.011-1e-3 0.016-0.695 2.486-1.075 5.101-1.075 7.805s0.38 5.319 1.075 7.804c1e-3 5e-3 -1e-3 0.011 1e-3 0.016 2e-3 9e-3 8e-3 0.016 0.011 0.025 0.617 2.192 1.498 4.273 2.585 6.223-0.178-0.164-0.411-0.269-0.672-0.269-0.552 0-1 0.447-1 1v0.977c0 0.553 0.448 1 1 1s1-0.447 1-1v-0.977c0-0.059-0.024-0.11-0.034-0.167 0.15 0.256 0.304 0.512 0.462 0.763 0.038 0.061 0.086 0.112 0.134 0.162 0.61 0.955 1.273 1.871 1.987 2.745 0.025 0.041 0.035 0.087 0.067 0.125 0.199 0.241 0.401 0.479 0.607 0.713 0.017 0.019 0.041 0.026 0.059 0.043 0.794 0.898 1.643 1.747 2.541 2.54 0.018 0.018 0.026 0.042 0.045 0.059 0.234 0.205 0.471 0.407 0.711 0.604 0.041 0.034 0.089 0.05 0.134 0.076 0.891 0.727 1.826 1.401 2.801 2.019 0.035 0.029 0.058 0.067 0.097 0.092 0.252 0.158 0.508 0.313 0.765 0.463-0.063-0.011-0.121-0.036-0.188-0.036h-0.977c-0.552 0-1 0.447-1 1s0.448 1 1 1h0.977c0.552 0 1-0.447 1-1 0-0.266-0.108-0.504-0.277-0.683 1.958 1.094 4.047 1.979 6.25 2.598 6e-3 1e-3 0.01 6e-3 0.017 8e-3s0.013 1e-3 0.02 2e-3c2.485 0.695 5.099 1.075 7.802 1.075s5.317-0.38 7.801-1.075c7e-3 -1e-3 0.013-1e-3 0.02-2e-3 6e-3 -1e-3 0.01-6e-3 0.017-8e-3 2.195-0.617 4.278-1.499 6.23-2.587-0.164 0.178-0.269 0.411-0.269 0.672 0 0.553 0.448 1 1 1h0.977c0.552 0 1-0.447 1-1s-0.448-1-1-1h-0.977c-0.06 0-0.112 0.024-0.169 0.034 0.258-0.151 0.513-0.305 0.766-0.464 0.039-0.025 0.062-0.063 0.096-0.092 0.973-0.618 1.907-1.291 2.797-2.018 0.045-0.027 0.095-0.043 0.137-0.077 0.241-0.198 0.479-0.4 0.713-0.607 0.02-0.017 0.028-0.042 0.046-0.06 0.899-0.795 1.748-1.644 2.542-2.543 0.016-0.016 0.039-0.022 0.054-0.04 0.206-0.234 0.408-0.472 0.607-0.713 0.031-0.037 0.041-0.083 0.065-0.123 0.714-0.875 1.377-1.791 1.986-2.746 0.049-0.05 0.096-0.102 0.135-0.163 0.158-0.252 0.312-0.507 0.463-0.765-0.012 0.065-0.037 0.122-0.037 0.189v0.977c0 0.553 0.448 1 1 1s1-0.447 1-1v-0.977c0-0.553-0.448-1-1-1-0.266 0-0.504 0.107-0.683 0.277 1.093-1.956 1.977-4.043 2.596-6.243 3e-3 -9e-3 9e-3 -0.016 0.011-0.025 1e-3 -5e-3 -1e-3 -0.011 1e-3 -0.016 0.695-2.486 1.075-5.101 1.075-7.805s-0.38-5.319-1.075-7.804zm-27.925-19.196c2.194 0 4.325 0.27 6.368 0.766l-2.777 11.11c-1.155-0.275-2.353-0.436-3.591-0.436s-2.436 0.161-3.591 0.435l-2.777-11.11c2.043-0.495 4.174-0.765 6.368-0.765zm-27 27c0-2.194 0.269-4.325 0.766-6.368l11.109 2.777c-0.274 1.155-0.435 2.353-0.435 3.591s0.161 2.436 0.435 3.591l-11.109 2.777c-0.497-2.043-0.766-4.174-0.766-6.368zm27 27c-2.194 0-4.325-0.27-6.368-0.766l2.777-11.11c1.155 0.274 2.353 0.435 3.591 0.435s2.436-0.161 3.591-0.435l2.777 11.11c-2.043 0.496-4.174 0.766-6.368 0.766zm0-13.44c-7.477 0-13.56-6.083-13.56-13.56s6.083-13.56 13.56-13.56 13.56 6.083 13.56 13.56-6.083 13.56-13.56 13.56zm26.234-7.192-11.109-2.777c0.274-1.155 0.435-2.353 0.435-3.591s-0.161-2.436-0.435-3.591l11.109-2.777c0.497 2.043 0.766 4.174 0.766 6.368s-0.269 4.325-0.766 6.368z"/>
  <path d="m3.958 5.639c0.292 0 0.583-0.128 0.78-0.373 0.159-0.198 0.339-0.378 0.534-0.533 0.432-0.345 0.503-0.974 0.159-1.405-0.345-0.433-0.974-0.504-1.406-0.16-0.31 0.248-0.595 0.531-0.846 0.844-0.346 0.43-0.278 1.06 0.153 1.406 0.184 0.148 0.405 0.221 0.626 0.221z"/>
  <path d="m8.339 4h0.977c0.552 0 1-0.447 1-1s-0.448-1-1-1h-0.977c-0.552 0-1 0.447-1 1s0.448 1 1 1z"/>
  <path d="m3 10.304c0.552 0 1-0.447 1-1v-0.978c0-0.553-0.448-1-1-1s-1 0.447-1 1v0.978c0 0.552 0.448 1 1 1z"/>
  <path d="m48.696 4h0.977c0.552 0 1-0.447 1-1s-0.448-1-1-1h-0.977c-0.552 0-1 0.447-1 1s0.448 1 1 1z"/>
  <path d="m53.268 5.271c0.198 0.248 0.489 0.377 0.783 0.377 0.219 0 0.438-0.071 0.623-0.218 0.432-0.345 0.503-0.974 0.159-1.405-0.249-0.312-0.533-0.597-0.845-0.848-0.43-0.344-1.06-0.276-1.406 0.154-0.346 0.431-0.277 1.061 0.154 1.406 0.196 0.159 0.375 0.338 0.532 0.534z"/>
  <path d="m54 8.339v0.978c0 0.553 0.448 1 1 1s1-0.447 1-1v-0.978c0-0.553-0.448-1-1-1s-1 0.447-1 1z"/>
  <path d="m55 47.696c-0.552 0-1 0.447-1 1v0.978c0 0.553 0.448 1 1 1s1-0.447 1-1v-0.978c0-0.552-0.448-1-1-1z"/>
  <path d="m49.661 54h-0.977c-0.552 0-1 0.447-1 1s0.448 1 1 1h0.977c0.552 0 1-0.447 1-1s-0.448-1-1-1z"/>
  <path d="m53.263 52.734c-0.159 0.198-0.339 0.378-0.534 0.533-0.432 0.345-0.503 0.974-0.159 1.405 0.198 0.248 0.489 0.377 0.783 0.377 0.219 0 0.438-0.071 0.623-0.218 0.311-0.248 0.596-0.531 0.847-0.844 0.346-0.431 0.278-1.061-0.153-1.406-0.431-0.344-1.061-0.275-1.407 0.153z"/>
  <path d="m9.304 54h-0.977c-0.552 0-1 0.447-1 1s0.448 1 1 1h0.977c0.552 0 1-0.447 1-1s-0.448-1-1-1z"/>
  <path d="m4 49.661v-0.978c0-0.553-0.448-1-1-1s-1 0.447-1 1v0.978c0 0.553 0.448 1 1 1s1-0.447 1-1z"/>
  <path d="m4.732 52.729c-0.345-0.433-0.974-0.502-1.405-0.159-0.432 0.345-0.503 0.974-0.159 1.405 0.249 0.312 0.533 0.597 0.845 0.848 0.185 0.147 0.406 0.22 0.625 0.22 0.292 0 0.583-0.128 0.78-0.374 0.346-0.431 0.277-1.061-0.154-1.406-0.196-0.159-0.375-0.338-0.532-0.534z"/>
 </g>
</svg>
