<?xml version="1.0" encoding="UTF-8"?>
<svg version="1.1" viewBox="0 0 24 24" xmlns="http://www.w3.org/2000/svg">
 <g transform="matrix(.04331 0 0 .04331 2 2)">
  <path d="m50.755 170.98c0-94.277 76.696-170.98 170.98-170.98 78.046 0 143.88 52.614 164.31 124.2-3.735 4.043-6.349 9.17-7.081 14.975l-1.868 14.919-3.168 16.898-17.472-0.018c0-74.29-60.444-134.73-134.72-134.73-74.295 0-134.74 60.438-134.74 134.73 0 50.392 27.86 94.336 68.935 117.45l-26.347 26.344c-47.334-30.446-78.827-83.459-78.827-143.79zm170.98-107.39c-10.016 0-18.119 8.118-18.119 18.122v89.265c0 10.004 8.104 18.119 18.119 18.119h102.53c10.013 0 18.122-8.115 18.122-18.119 0-10.013-8.109-18.128-18.122-18.128h-84.405v-71.137c0-10.004-8.122-18.122-18.123-18.122zm188.73 79.884c-0.124-4.74-3.883-8.582-8.605-8.825-4.527-0.26-8.854 3.201-9.451 7.923l-1.934 15.457-3.387 18.048c-1.4 6.26-2.843 12.729-5.532 19.763l-4.061 11.881-5.757 12.664c-2.058 5.192-5.178 10.42-8.488 15.959-1.679 2.802-3.375 5.633-4.965 8.529-1.667 2.252-3.299 4.539-4.918 6.845-4.268 6.011-8.287 11.691-13.684 17.348-4.688 5.852-10.314 11.083-16.248 16.615-1.75 1.632-3.488 3.251-5.208 4.895-1.927 1.466-3.836 2.949-5.722 4.421-6.312 4.918-12.253 9.552-19.334 13.618-5.461 3.807-11.703 6.887-17.727 9.848-2.518 1.241-5.018 2.471-7.441 3.735-3.073 1.105-6.064 2.294-9.014 3.476-5.521 2.205-10.729 4.279-16.249 5.497l-11.981 3.322-11.777 2.01c-5.994 1.288-11.266 1.584-16.373 1.891l-9.599 0.733-1.356-0.035v-42.28c0-3.658-2.205-6.969-5.595-8.375-3.399-1.396-7.279-0.627-9.883 1.962l-77.961 77.961c-1.696 1.702-2.651 4.008-2.651 6.407 0 2.4 0.955 4.705 2.651 6.407l77.963 77.964c1.738 1.726 4.055 2.647 6.41 2.647 1.167 0 2.35-0.225 3.473-0.686 3.39-1.407 5.595-4.717 5.595-8.382v-44.183l16.686-3.056c7.716-1.596 17.324-3.594 26.524-7.005l10.725-3.6 17.78-7.519c7.495-2.955 14.594-7.104 21.456-11.117 2.932-1.721 5.898-3.452 8.925-5.113 0.331-0.184 0.639-0.385 0.958-0.604 2.364-1.702 4.764-3.381 7.182-5.064 7.323-5.084 14.883-10.351 21.355-16.433 7.991-6.366 14.972-13.742 21.722-20.883l4.9-5.154c0.207-0.225 0.414-0.455 0.614-0.703l4.434-5.609c6.035-7.589 12.294-15.462 17.011-23.536 5.296-7.566 9.28-15.451 13.134-23.088 1.324-2.637 2.648-5.249 3.996-7.803 0.177-0.354 0.349-0.709 0.484-1.075 1.206-3.239 2.494-6.401 3.771-9.505 2.813-6.88 5.716-13.984 7.353-20.959l4.185-14.866 2.377-13.075c1.896-8.618 2.446-16.506 2.932-23.46l0.875-11.827z"/>
 </g>
</svg>
