<svg viewBox="0 0 24 24" xmlns="http://www.w3.org/2000/svg"><path d="M4.198 9.405C4.198 5.322 7.52 2 11.603 2c3.38 0 6.232 2.279 7.117 5.38a1.17 1.17 0 0 0-.307.648l-.081.646-.137.732-.757-.001a5.842 5.842 0 0 0-5.835-5.835 5.842 5.842 0 0 0-5.835 5.835 5.837 5.837 0 0 0 2.985 5.087l-1.14 1.14a7.4 7.4 0 0 1-3.415-6.227zm7.405-4.65a.785.785 0 0 0-.784.784v3.866c0 .433.35.785.784.785h4.44a.785.785 0 1 0 0-1.57h-3.655V5.539a.785.785 0 0 0-.785-.785zm8.174 3.459a.393.393 0 0 0-.372-.382.398.398 0 0 0-.41.343l-.084.67-.146.78a5.74 5.74 0 0 1-.24.857l-.176.514-.249.549c-.09.225-.224.451-.368.691-.072.121-.146.244-.215.37a14.55 14.55 0 0 0-.213.296c-.185.26-.359.506-.592.751-.203.254-.447.48-.704.72-.076.07-.151.14-.226.212l-.247.191c-.274.213-.531.414-.838.59a5.869 5.869 0 0 1-.768.427 16.1 16.1 0 0 0-.322.161c-.133.048-.262.1-.39.15-.24.096-.465.186-.704.239l-.519.144-.51.087c-.26.056-.488.069-.709.082l-.416.032-.058-.002v-1.831a.393.393 0 0 0-.67-.278l-3.377 3.377a.393.393 0 0 0 0 .555l3.376 3.376a.394.394 0 0 0 .67-.278v-1.913l.723-.133c.334-.069.75-.155 1.149-.303l.465-.156.77-.326c.324-.128.632-.307.929-.481.127-.075.255-.15.386-.222a.515.515 0 0 0 .042-.026l.31-.22c.318-.22.646-.447.926-.71.346-.277.648-.596.94-.905l.213-.223a.617.617 0 0 0 .026-.03l.192-.244c.262-.329.533-.67.737-1.02.23-.327.402-.668.569-1l.173-.337a.465.465 0 0 0 .021-.047c.052-.14.108-.277.163-.411.122-.298.248-.606.319-.908l.181-.644.103-.566a6.76 6.76 0 0 0 .127-1.016l.038-.512z"/></svg>