<?xml version="1.0" encoding="UTF-8"?>
<svg version="1.1" viewBox="0 0 24 24" xml:space="preserve" xmlns="http://www.w3.org/2000/svg"><path d="m12 2c-0.20104 0-0.4018 0.072209-0.56055 0.2168l-7.5 6.8184-1.666 1.5156c-0.34 0.30918-0.36582 0.83692-0.056641 1.1777 0.31 0.34082 0.83856 0.3655 1.1777 0.054687l0.27148-0.24805v9.6309c0 0.45999 0.37317 0.83398 0.83398 0.83398h4.166v-6.666c0-1.8383 1.4957-3.334 3.334-3.334s3.334 1.4957 3.334 3.334v6.666h4.166c0.46081 0 0.83398-0.37399 0.83398-0.83398v-9.6309l0.27148 0.24805c0.16 0.14582 0.36055 0.2168 0.56055 0.2168 0.22668 0 0.45301-0.091488 0.61719-0.27148 0.30918-0.34082 0.28336-0.86856-0.056641-1.1777l-1.666-1.5156-7.5-6.8184c-0.15875-0.14459-0.3595-0.2168-0.56055-0.2168zm0 11.666c-0.91917 0-1.666 0.7488-1.666 1.668v6.666h3.332v-6.666c0-0.91913-0.74689-1.668-1.666-1.668z"/></svg>
