<svg viewBox="0 0 24 24" xmlns="http://www.w3.org/2000/svg"><path d="M19.717 4.25H4.284a2.286 2.286 0 0 0-2.283 2.283v10.933a2.286 2.286 0 0 0 2.283 2.284h15.433A2.286 2.286 0 0 0 22 17.466V6.533a2.286 2.286 0 0 0-2.283-2.283zM12 18.55H4.284A1.085 1.085 0 0 1 3.2 17.467V6.534c0-.598.486-1.084 1.084-1.084H12zm8.258-8.937c-.054.914-.566 2.726-2.086 3.984.461.103.962.158 1.492.158v1.2c-1.056 0-2.024-.192-2.847-.533-.77.33-1.697.533-2.813.533v-1.2c.513 0 .993-.05 1.437-.15-.841-.702-1.338-1.631-1.338-2.678h1.2c0 .886.565 1.652 1.488 2.162a4.36 4.36 0 0 0 1.216-1.035 4.97 4.97 0 0 0 .976-2.004h-4.979v-1.2h2.23v-1.2h1.2v1.2h2.105a.723.723 0 0 1 .72.763z"/><path d="m6.304 13.826-.445 1.126H4.262l2.635-6.11h1.598l2.574 6.11H9.411l-.436-1.126zm1.344-3.439-.89 2.26H8.52z"/></svg>