<?xml version="1.0" encoding="UTF-8"?>
<svg version="1.1" viewBox="0 0 24 24" xmlns="http://www.w3.org/2000/svg">
 <g transform="matrix(.1 0 0 .1 -77.6 -77.6)">
  <path d="m973.17 818.5h-154.33c-12.591 0-22.833 10.243-22.833 22.833v109.33c0 12.59 10.243 22.833 22.833 22.833h154.33c12.59 0 22.834-10.243 22.834-22.833v-109.33c0-12.59-10.244-22.833-22.834-22.833zm-77.166 143h-77.167c-5.973 0-10.833-4.859-10.833-10.833v-109.33c0-5.974 4.86-10.833 10.833-10.833h77.167zm82.58-89.371c-0.547 9.145-5.668 27.261-20.869 39.845 4.615 1.022 9.629 1.573 14.92 1.573v12c-10.551 0-20.238-1.919-28.469-5.325-7.689 3.301-16.969 5.325-28.125 5.325v-12c5.132 0 9.924-0.501 14.366-1.498-8.412-7.016-13.382-16.311-13.382-26.78h11.999c0 8.857 5.66 16.517 14.884 21.623 4.641-2.66 8.702-6.112 12.164-10.351 5.628-6.886 8.502-14.521 9.754-20.042h-49.785v-12h22.297v-11.986h12v11.987h21.055c1.986 0 3.902 0.831 5.258 2.28 1.339 1.419 2.05 3.375 1.933 5.349z"/>
  <path d="m839.04 914.26-4.45 11.258h-15.971l26.355-61.09h15.971l25.746 61.09h-16.583l-4.363-11.258zm13.44-34.386-8.902 22.604h17.629z"/>
 </g>
</svg>
