<?xml version="1.0" encoding="UTF-8"?>
<svg version="1.1" viewBox="0 0 24 24" xmlns="http://www.w3.org/2000/svg">
 <style type="text/css">.st0{fill:#FFFFFF;}
	.st1{fill:#8DC742;}</style>
 <path d="m4.916 2.834c-0.68542-1e-7 -1.25 0.56458-1.25 1.25v11.094l-1.5586 2.7715c-0.015475 0.027305-0.028845 0.055281-0.041016 0.083984a0.41667 0.41667 0 0 0-0.033203 0.095703c-0.0027896 0.009755-0.0053816 0.019446-0.0078125 0.029297a0.41667 0.41667 0 0 0-0.025391 0.091797 0.41667 0.41667 0 0 0 0.0058594 0.023438c-0.0028193 0.027672-0.0057737 0.056013-0.0058594 0.083984v1.5586c3e-7 0.68542 0.56458 1.25 1.25 1.25h17.5c0.68542 3e-6 1.25-0.56458 1.25-1.25v-1.5586c-8.6e-5 -0.027971-0.00304-0.056312-0.005859-0.083984a0.41667 0.41667 0 0 0 0.005859-0.023438 0.41667 0.41667 0 0 0-0.025391-0.091797 0.41667 0.41667 0 0 0-0.001953-0.011719c-0.001558-0.005947-0.004169-0.011667-0.005859-0.017578a0.41667 0.41667 0 0 0-0.033203-0.095703c-0.012171-0.028702-0.02554-0.05668-0.041016-0.083984l-1.5586-2.7715v-11.094c0-0.68542-0.56458-1.25-1.25-1.25h-14.168zm0 0.83203h14.168c0.23505-2e-7 0.41602 0.18291 0.41602 0.41797v10.416h-15v-10.416c0-0.23505 0.18096-0.41797 0.41602-0.41797zm1.668 1.25c-0.45446 0-0.83398 0.37953-0.83398 0.83398v6.666c0 0.45446 0.37953 0.83398 0.83398 0.83398h10.832c0.45446 0 0.83398-0.37953 0.83398-0.83398v-6.666c0-0.45446-0.37952-0.83398-0.83398-0.83398h-10.832zm0 0.83398h10.832v6.666h-10.832v-6.666zm-2.0488 9.584h14.93l1.4062 2.5h-17.742l1.4062-2.5zm-1.7012 3.332h18.332v1.25c0 0.23505-0.18096 0.41797-0.41602 0.41797h-17.5c-0.23505 0-0.41602-0.18292-0.41602-0.41797v-1.25z" color="#000000" stroke-linecap="round" stroke-miterlimit="10" style="-inkscape-stroke:none"/>
</svg>
