<svg viewBox="0 0 24 24" xmlns="http://www.w3.org/2000/svg"><path d="M4.916 2.834c-.685 0-1.25.565-1.25 1.25v11.094l-1.559 2.771a.814.814 0 0 0-.04.084.417.417 0 0 0-.034.096.825.825 0 0 0-.008.03.417.417 0 0 0-.025.091.417.417 0 0 0 .006.024.772.772 0 0 0-.006.084v1.558c0 .686.565 1.25 1.25 1.25h17.5c.685 0 1.25-.564 1.25-1.25v-1.558a.772.772 0 0 0-.006-.084.417.417 0 0 0 .006-.024.417.417 0 0 0-.025-.092.417.417 0 0 0-.002-.011l-.006-.018a.417.417 0 0 0-.033-.096.813.813 0 0 0-.041-.083l-1.559-2.772V4.084c0-.685-.565-1.25-1.25-1.25H4.916zm0 .832h14.168c.235 0 .416.183.416.418V14.5h-15V4.084c0-.235.181-.418.416-.418zm1.668 1.25a.842.842 0 0 0-.834.834v6.666c0 .454.38.834.834.834h10.832c.454 0 .834-.38.834-.834V5.75a.842.842 0 0 0-.834-.834H6.584zm0 .834h10.832v6.666H6.584V5.75zm-2.049 9.584h14.93l1.406 2.5H3.13l1.407-2.5zm-1.701 3.332h18.332v1.25a.411.411 0 0 1-.416.418H3.25a.411.411 0 0 1-.416-.418v-1.25z" color="#000" style="-inkscape-stroke:none"/></svg>