<svg viewBox="0 0 24 24" xmlns="http://www.w3.org/2000/svg"><path d="M11.98 3.256c-1.021 0-1.853.83-1.853 1.852 0 .786.494 1.458 1.187 1.726v.59H4.957a.666.666 0 0 0 0 1.332h.302l-2.172 4.342h-.421a.666.666 0 0 0-.666.666A4.34 4.34 0 0 0 6.335 18.1a4.34 4.34 0 0 0 4.336-4.336.666.666 0 0 0-.666-.666h-.422l-2.17-4.342h3.9v9.002H9.2a.666.666 0 0 0 0 1.332h5.642a.666.666 0 0 0 0-1.332h-2.195V8.756h3.94l-2.17 4.342h-.422a.666.666 0 0 0-.666.666 4.34 4.34 0 0 0 4.336 4.336A4.34 4.34 0 0 0 22 13.764a.666.666 0 0 0-.666-.666h-.422L18.74 8.756H19a.666.666 0 0 0 0-1.332h-6.355v-.59a1.853 1.853 0 0 0 1.185-1.726c0-1.022-.83-1.852-1.851-1.852zm0 1.332a.52.52 0 1 1 0 1.04.52.52 0 0 1 0-1.04zm-5.644 4.99 1.76 3.52h-3.52l1.76-3.52zm11.328 0 1.76 3.52h-3.52l1.76-3.52zM3.404 14.43h5.861a3.009 3.009 0 0 1-2.93 2.338 3.01 3.01 0 0 1-2.93-2.338zm11.329 0h5.859a3.009 3.009 0 0 1-2.93 2.338 3.01 3.01 0 0 1-2.93-2.338zm-8.358 4.982a.666.666 0 0 0 0 1.332h11.287a.666.666 0 0 0 0-1.332H6.376z"/></svg>