<svg viewBox="0 0 24 24" xmlns="http://www.w3.org/2000/svg"><path d="M14.28 19.477v.585a.927.927 0 0 1-.786.917l-.144.531a.66.66 0 0 1-.638.49h-1.428a.66.66 0 0 1-.638-.49l-.14-.53a.931.931 0 0 1-.79-.923v-.584c0-.313.251-.564.564-.564h3.436a.568.568 0 0 1 .564.568zm2.646-7.876a4.904 4.904 0 0 1-1.383 3.42 4.518 4.518 0 0 0-1.21 2.452.815.815 0 0 1-.806.687h-3.058a.807.807 0 0 1-.802-.683 4.568 4.568 0 0 0-1.218-2.46 4.906 4.906 0 0 1-1.375-3.363 4.913 4.913 0 0 1 4.893-4.98 4.923 4.923 0 0 1 4.959 4.927zm-4.37-2.984A.556.556 0 0 0 12 8.062a3.56 3.56 0 0 0-3.556 3.555.556.556 0 0 0 1.112 0A2.447 2.447 0 0 1 12 9.173a.553.553 0 0 0 .555-.556zM12 5.057a.556.556 0 0 0 .555-.555V2.556a.556.556 0 0 0-1.11 0v1.946c0 .309.25.556.555.556zm-6.54 6.54a.556.556 0 0 0-.555-.556H2.96a.556.556 0 0 0 0 1.111h1.946a.553.553 0 0 0 .556-.555zm15.581-.556h-1.946a.556.556 0 0 0 0 1.111h1.946a.556.556 0 0 0 0-1.11zM6.593 16.222l-1.379 1.379a.554.554 0 1 0 .782.786l1.378-1.379a.554.554 0 0 0 0-.786.549.549 0 0 0-.781 0zm10.423-9.086c.14 0 .284-.054.391-.16l1.379-1.38c.218-.217.218-.567 0-.785s-.568-.218-.786 0l-1.38 1.378a.554.554 0 0 0 .395.947zM6.593 6.97a.555.555 0 0 0 .781-.786L5.996 4.807c-.218-.219-.568-.219-.786 0s-.218.567 0 .786zm10.814 9.251c-.218-.218-.568-.218-.786 0s-.218.568 0 .786L18 18.387a.555.555 0 0 0 .782-.786z"/></svg>