<svg viewBox="0 0 24 24" xmlns="http://www.w3.org/2000/svg"><path d="m20.68 3.604-.695-.616a3.925 3.925 0 0 0-5.54.333l-1.991 2.247a1.232 1.232 0 0 0 .104 1.736l.187.166a1.23 1.23 0 0 0 1.736-.104l1.992-2.247a1.217 1.217 0 0 1 1.715-.103l.695.616c.501.444.548 1.214.103 1.715l-4.355 4.913a1.213 1.213 0 0 1-1.466.273 1.329 1.329 0 0 0-1.606.299l-.034.038a1.322 1.322 0 0 0-.313 1.124c.075.405.327.747.692.938a3.92 3.92 0 0 0 4.756-.875l4.354-4.913a3.93 3.93 0 0 0-.333-5.54z"/><path d="m11.442 16.697-.188-.166a1.231 1.231 0 0 0-1.736.105l-1.99 2.247c-.445.5-1.214.547-1.715.103l-.696-.617a1.214 1.214 0 0 1-.103-1.714l4.355-4.913a1.217 1.217 0 0 1 1.445-.284 1.4 1.4 0 0 0 1.662-.328l.016-.017c.267-.303.38-.704.309-1.1a1.303 1.303 0 0 0-.672-.925 3.91 3.91 0 0 0-4.788.857l-4.355 4.912a3.929 3.929 0 0 0 .333 5.54l.696.616A3.907 3.907 0 0 0 6.616 22a3.918 3.918 0 0 0 2.94-1.32l1.99-2.246a1.23 1.23 0 0 0-.104-1.736z"/></svg>