<?xml version="1.0" encoding="UTF-8"?>
<svg version="1.1" viewBox="0 0 24 24" xmlns="http://www.w3.org/2000/svg">
 <path d="m20.716 10.078c-0.35-4.3458-4.0483-7.6609-8.7158-7.6609-4.6675 0-8.3658 3.315-8.7158 7.6609-0.75336 0.31332-1.2842 1.0567-1.2842 1.9225v3.3333c0 1.1483 0.93418 2.0833 2.0833 2.0833 0.4025 0 0.77418-0.12 1.0933-0.3175 1.2709 2.8416 3.7117 4.4842 6.8234 4.4842 3.1117 0 5.5525-1.6425 6.8233-4.4842 0.31918 0.1975 0.69082 0.3175 1.0933 0.3175 1.1492 0 2.0833-0.935 2.0833-2.0833v-3.3333c3.9e-5 -0.86582-0.53078-1.6092-1.2841-1.9225zm-16.216 2.3392v2.9167c0 0.22996-0.1875 0.41664-0.41668 0.41664-0.22918 0-0.41668-0.18668-0.41668-0.41668v-3.3333c0-0.23 0.1875-0.41668 0.41668-0.41668 0.22918 0 0.41668 0.18668 0.41668 0.41668zm9.7558 5.5891c-0.4025 0.4025-1.0775 1.0775-2.2558 1.0775-1.1775 0-1.8467-0.66832-2.2458-1.0675-0.32582-0.32582-0.33082-0.85832-0.00582-1.1833 0.32582-0.32668 0.8475-0.33 1.1742-0.0058 0.37 0.37082 0.6225 0.59 1.0775 0.59s0.71082-0.2225 1.0775-0.58918c0.32582-0.32582 0.8525-0.32582 1.1783 0s0.32582 0.8525-3.9e-5 1.1783zm-4.5375-3.0891c0-0.355 0.28-0.64332 0.625-0.64332 0.345 0 0.625 0.28832 0.625 0.64332 0 0.355-0.28 0.64332-0.625 0.64332-0.345-3.9e-5 -0.625-0.28832-0.625-0.64332zm3.3334 0c0-0.355 0.28-0.64332 0.625-0.64332 0.345 0 0.625 0.28832 0.625 0.64332 0 0.355-0.28 0.64332-0.625 0.64332-0.345-3.9e-5 -0.625-0.28832-0.625-0.64332zm4.7817-2.9167v1.4575c-1.1425 0.04668-2.2558-0.56832-3.1933-1.7917-2.0975 1.4933-4.6217 1.8467-6.5408 1.8467-0.76418 0-1.4258-0.05582-1.9325-0.11832v-1.3942c0-0.10082-0.01582-0.1975-0.03-0.295 1.465 0.20082 5.225 0.4625 7.8333-1.62 0.2675-0.215 0.61418-0.31 0.95332-0.25668 0.33418 0.050821 0.635 0.24168 0.82418 0.5225 0.49082 0.7325 1.2283 1.5008 2.1092 1.4208-0.0084 0.07586-0.02336 0.15004-0.02336 0.22836zm0.73336-1.5742c-1.4009-2.0825-3.8667-3.8425-6.5667-3.8425-2.7 0-5.1658 1.7591-6.5675 3.8417-0.14668-0.125-0.30668-0.23332-0.48332-0.31418 0.32082-3.4775 3.2425-6.0275 7.0508-6.0275 3.8083 0 6.73 2.55 7.0508 6.0275-0.17664 0.08164-0.3375 0.18996-0.48414 0.315zm1.7667 4.9075c-3.9e-5 0.23-0.18754 0.41668-0.41672 0.41668-0.22918 0-0.41664-0.18668-0.41664-0.41668v-3.3333c0-0.23 0.1875-0.41668 0.41668-0.41668 0.22918 0 0.41668 0.18668 0.41668 0.41668z" stroke-width=".039063"/>
</svg>
