<svg viewBox="0 0 24 24" xmlns="http://www.w3.org/2000/svg"><path d="M20.716 10.078c-.35-4.346-4.048-7.66-8.716-7.66-4.667 0-8.366 3.314-8.716 7.66A2.084 2.084 0 0 0 2 12.001v3.333c0 1.148.934 2.083 2.084 2.083.402 0 .774-.12 1.093-.317 1.27 2.841 3.712 4.484 6.823 4.484 3.112 0 5.553-1.643 6.824-4.484.319.197.69.317 1.093.317A2.085 2.085 0 0 0 22 15.334V12c0-.865-.53-1.609-1.284-1.922zM4.5 12.418v2.916a.417.417 0 0 1-.833 0V12a.417.417 0 0 1 .833 0zm9.756 5.588c-.403.403-1.078 1.078-2.256 1.078-1.177 0-1.847-.669-2.246-1.068a.84.84 0 0 1-.006-1.183.828.828 0 0 1 1.175-.006c.37.371.622.59 1.077.59s.71-.222 1.078-.589a.832.832 0 1 1 1.178 1.178zm-4.538-3.089c0-.355.28-.643.625-.643s.625.288.625.643c0 .355-.28.644-.625.644a.635.635 0 0 1-.625-.644zm3.334 0c0-.355.28-.643.625-.643s.625.288.625.643c0 .355-.28.644-.625.644a.635.635 0 0 1-.625-.644zM17.833 12v1.458c-1.142.047-2.255-.568-3.193-1.792-2.097 1.494-4.622 1.847-6.54 1.847-.765 0-1.427-.056-1.933-.118V12c0-.1-.016-.197-.03-.295 1.465.201 5.225.463 7.833-1.62a1.222 1.222 0 0 1 1.778.266c.49.733 1.228 1.501 2.109 1.421-.009.076-.024.15-.024.228zm.734-1.574C17.166 8.344 14.7 6.584 12 6.584s-5.166 1.759-6.567 3.842a2.087 2.087 0 0 0-.484-.315C5.27 6.634 8.192 4.084 12 4.084c3.808 0 6.73 2.55 7.05 6.027-.176.082-.337.19-.483.315zm1.766 4.908a.417.417 0 0 1-.833 0V12a.417.417 0 0 1 .833 0z"/></svg>