<?xml version="1.0" encoding="UTF-8"?>
<svg version="1.1" viewBox="0 0 24 24" xmlns="http://www.w3.org/2000/svg">
 <style type="text/css">.st0{fill:#FFFFFF;}
	.st1{fill:#8DC742;}</style>
 <path d="m16.966 13.112c-0.27188 0.53236-0.54192 1.0051-0.78671 1.4012 2.7048 0.5684 4.2603 1.6279 4.2603 2.4606 0 1.197-3.2106 2.8663-8.4393 2.8663-5.2287 0-8.4393-1.6693-8.4393-2.8663 0-0.82625 1.5304-1.8766 4.197-2.449-0.24613-0.3947-0.51743-0.86619-0.79134-1.3966-2.821 0.69179-4.9664 1.9915-4.9664 3.8456 0 2.8753 5.1524 4.427 10 4.427 4.8476 0 10-1.5517 10-4.427 0-1.8682-2.1802-3.1739-5.0343-3.8618z" stroke-width=".040548"/>
 <path d="m11.959 17.206c1.0375 0 5.104-5.363 5.104-9.0142 0-2.5485-1.1957-5.5924-5.104-5.5924-3.9089 0-5.104 3.0439-5.104 5.5924 0 3.6918 4.1272 9.0142 5.104 9.0142zm-2.3669-9.5762c0-1.3062 1.0619-2.3676 2.3669-2.3676 1.305 0 2.3669 1.0614 2.3669 2.3676 0 1.3043-1.062 2.3663-2.3669 2.3663-1.305 4.05e-5 -2.3669-1.062-2.3669-2.3663z" stroke-width=".040548"/>
</svg>
