<?xml version="1.0" encoding="UTF-8"?>
<svg version="1.1" viewBox="0 0 24 24" xml:space="preserve" xmlns="http://www.w3.org/2000/svg"><path d="m21.328 8.5665c0-4.3386-2.8433-5.6107-2.8433-5.6107-2.7897-1.281-10.204-1.2676-12.967 0 0 0-2.8433 1.2721-2.8433 5.6107 0 5.1643-0.29459 11.578 4.7135 12.904 1.8078 0.47761 3.3611 0.58027 4.6109 0.50885 2.2675-0.12498 3.5396-0.80791 3.5396-0.80791l-0.0759-1.647s-1.6203 0.50884-3.4414 0.45082c-1.8033-0.0625-3.7048-0.1964-3.9994-2.4103a4.5752 4.5752 0 0 1-0.0402-0.62044c3.8208 0.93289 7.0837 0.40619 7.9809 0.29906 2.5041-0.29906 4.6867-1.8434 4.9635-3.2539 0.43743-2.2229 0.40172-5.4232 0.40172-5.4232zm-3.3521 5.5884h-2.08v-5.0974c0-2.2184-2.8567-2.3032-2.8567 0.30799v2.7897h-2.0666v-2.7897c0-2.6112-2.8567-2.5264-2.8567-0.30799v5.0974h-2.089c0-5.45-0.23211-6.6016 0.82129-7.8112 1.1561-1.29 3.5619-1.3748 4.6332 0.27228l0.51777 0.8704 0.51778-0.8704c1.0757-1.656 3.486-1.5533 4.6332-0.27228 1.0579 1.2186 0.82129 2.3657 0.82129 7.8112z"/></svg>
