<?xml version="1.0" encoding="UTF-8"?>
<svg version="1.1" viewBox="0 0 24 24" xmlns="http://www.w3.org/2000/svg">
 <style type="text/css">.st0{fill:#FFFFFF;}
	.st1{fill:#8DC742;}</style>
 <path d="m12 2c-2.7575 0-5 2.2425-5 5v5c0 2.7575 2.2425 5 5 5 2.7575 0 5-2.2425 5-5v-5c0-2.7575-2.2425-5-5-5zm-0.83398 5h1.668c0.46082 0 0.83203 0.37398 0.83203 0.83398s-0.37121 0.83203-0.83203 0.83203h-1.668c-0.46082 0-0.83203-0.37203-0.83203-0.83203s0.37117-0.83398 0.83203-0.83398zm-5.832 3.334c-0.46082 0-0.83398 0.37203-0.83398 0.83203v0.83398c0 3.8533 2.9218 7.0354 6.666 7.4512v0.88281h-1.666c-0.46082 0-0.83398 0.37203-0.83398 0.83203s0.37316 0.83398 0.83398 0.83398h5c0.46082 0 0.83398-0.37398 0.83398-0.83398s-0.37316-0.83203-0.83398-0.83203h-1.666v-0.88281c3.7442-0.41586 6.666-3.5979 6.666-7.4512v-0.83398c0-0.46-0.37316-0.83203-0.83398-0.83203s-0.83203 0.37203-0.83203 0.83203v0.83398c0 3.2167-2.6182 5.834-5.834 5.834-3.2158 0-5.834-2.6173-5.834-5.834v-0.83398c0-0.46-0.37121-0.83203-0.83203-0.83203zm5.832 0h1.668c0.46082 0 0.83203 0.37203 0.83203 0.83203s-0.37117 0.83398-0.83203 0.83398h-1.668c-0.46082 0-0.83203-0.37398-0.83203-0.83398s0.37117-0.83203 0.83203-0.83203z" stroke-width=".039062"/>
</svg>
