<?xml version="1.0" encoding="UTF-8"?>
<svg version="1.1" viewBox="0 0 24 24" xmlns="http://www.w3.org/2000/svg">
 <g stroke-width=".039062">
  <path d="m18.717 4.7822c-1.7941-1.7941-4.1795-2.7822-6.7167-2.7822-1.7598 0-3.4592 0.47855-4.9467 1.3884-0.37027-0.26203-0.82168-0.41664-1.3088-0.41664-1.2526 0-2.2716 1.0191-2.2716 2.2716 0 0.48722 0.15469 0.93875 0.41687 1.3091-0.90949 1.4876-1.3885 3.1885-1.3885 4.9465 0 1.7016 0.45543 3.3711 1.317 4.8282 0.75398 1.2753 1.8003 2.3592 3.0428 3.1602-0.0084 0.07922-0.01293 0.15961-0.01293 0.24105 0 1.2526 1.0191 2.2716 2.2716 2.2716 0.80359 0 1.5105-0.41984 1.9145-1.0512 0.32027 0.0323 0.64351 0.04898 0.96582 0.04898 2.5372 0 4.9226-0.98804 6.7167-2.7822 1.7941-1.7941 2.7821-4.1795 2.7821-6.7167 0-2.5372-0.988-4.9227-2.7821-6.7167zm-6.7167 14.911c-0.20344 0-0.40726-0.0077-0.61015-0.02258-0.03074-1.226-1.0369-2.2141-2.2701-2.2141-0.69679 0-1.321 0.31562-1.738 0.81105-0.99109-0.67777-1.8278-1.5678-2.4408-2.6046-0.74277-1.2562-1.1354-2.6962-1.1354-4.1643 0-1.466 0.3859-2.8857 1.1198-4.1373 0.2543 0.098711 0.53035 0.1534 0.8191 0.1534 1.2526 0 2.2716-1.0191 2.2716-2.2716 0-0.28883-0.054765-0.56496-0.15352-0.81933 1.2516-0.73402 2.67-1.1196 4.1374-1.1196 4.5185 0 8.1945 3.676 8.1945 8.1945 0 4.5185-3.6761 8.1945-8.1945 8.1945z"/>
  <path d="m12 9.7015c-0.99105 0-1.7973 0.80625-1.7973 1.7973s0.80625 1.7973 1.7973 1.7973c0.99105 0 1.7973-0.80625 1.7973-1.7973s-0.80629-1.7973-1.7973-1.7973z"/>
  <path d="m18.414 9.9922c-0.40062-0.40062-0.91488-0.61937-1.44-0.65761-0.27184-0.60422-0.64894-1.1497-1.1254-1.6262-2.145-2.145-5.6352-2.145-7.7801 0-2.145 2.145-2.145 5.6351 0 7.7801 1.0725 1.0725 2.4812 1.6087 3.8901 1.6087 1.4088 0 2.8176-0.53621 3.8901-1.6087 0.47652-0.47652 0.85359-1.022 1.1254-1.6262 0.52508-0.0382 1.0394-0.25699 1.44-0.65761 0.88562-0.88562 0.88562-2.3268-3.9e-5 -3.2125zm-3.2125 3.2125c0.14277 0.14277 0.30012 0.26219 0.46707 0.3589-0.19414 0.36672-0.44222 0.7025-0.74226 1.0026-1.6364 1.6364-4.299 1.6365-5.9356 0-1.6364-1.6364-1.6364-4.2991 0-5.9356 1.6364-1.6364 4.299-1.6364 5.9356 0 0.30004 0.30004 0.54812 0.63582 0.74226 1.0026-0.16695 0.096757-0.3243 0.21613-0.46707 0.3589-0.4291 0.4291-0.66539 0.99953-0.66539 1.6063 0 0.60683 0.23629 1.1773 0.66539 1.6063z"/>
 </g>
</svg>
