<svg viewBox="0 0 24 24" xmlns="http://www.w3.org/2000/svg"><g stroke-width=".039"><path d="M18.717 4.782A9.437 9.437 0 0 0 12 2c-1.76 0-3.459.479-4.946 1.388a2.258 2.258 0 0 0-1.31-.416 2.274 2.274 0 0 0-2.27 2.271c0 .488.154.94.416 1.31a9.452 9.452 0 0 0-1.388 4.946 9.49 9.49 0 0 0 4.36 7.988A2.274 2.274 0 0 0 9.12 22c.803 0 1.51-.42 1.914-1.051.32.032.643.049.965.049a9.437 9.437 0 0 0 6.717-2.782 9.437 9.437 0 0 0 2.782-6.717 9.436 9.436 0 0 0-2.782-6.717zM12 19.693a8.88 8.88 0 0 1-.61-.022 2.274 2.274 0 0 0-2.27-2.214c-.697 0-1.321.315-1.738.81a8.185 8.185 0 0 1-3.576-6.769c0-1.465.386-2.885 1.12-4.137a2.274 2.274 0 0 0 2.937-2.938A8.15 8.15 0 0 1 12 3.305c4.519 0 8.195 3.676 8.195 8.195 0 4.518-3.676 8.194-8.195 8.194z"/><path d="M12 9.701c-.991 0-1.797.807-1.797 1.798s.806 1.797 1.797 1.797A1.799 1.799 0 0 0 12 9.7z"/><path d="M18.414 9.992c-.4-.4-.915-.62-1.44-.657a5.508 5.508 0 0 0-8.905-1.626 5.508 5.508 0 0 0 0 7.78 5.484 5.484 0 0 0 3.89 1.608 5.484 5.484 0 0 0 3.89-1.609 5.455 5.455 0 0 0 1.125-1.626 2.261 2.261 0 0 0 1.44-.657 2.274 2.274 0 0 0 0-3.213zm-3.212 3.213c.142.142.3.262.467.359a4.202 4.202 0 0 1-6.678 1.003 4.202 4.202 0 0 1 0-5.936 4.202 4.202 0 0 1 6.678 1.002 2.267 2.267 0 0 0-1.133 1.965c0 .607.236 1.178.666 1.607z"/></g></svg>