<?xml version="1.0" encoding="UTF-8"?>
<svg version="1.1" viewBox="0 0 24 24" xmlns="http://www.w3.org/2000/svg">
 <style type="text/css">.st0{fill:#FFFFFF;}
	.st1{fill:#8DC742;}</style>
 <path d="m8.0225 2c-0.62138 0-1.1465 0.49557-1.1465 1.1152v17.77c0 0.61966 0.5251 1.1152 1.1465 1.1152h7.7051c0.62138 0 1.1484-0.49557 1.1484-1.1152v-10.119c0.13798-0.0024 0.24805-0.12678 0.24805-0.28125v-3.2402c0-0.15447-0.11007-0.27888-0.24805-0.28125v-1.3691c0.13798-0.00202 0.24805-0.10828 0.24805-0.24023v-0.79688c0-0.13195-0.11007-0.24016-0.24805-0.24219v-1.1992c0-0.61966-0.52706-1.1152-1.1484-1.1152zm0 0.7207h1.6836v0.56055c0 0.1802 0.1455 0.32617 0.32617 0.32617h3.6855c0.18067 0 0.32617-0.14597 0.32617-0.32617v-0.56055h1.6836c0.25097 0 0.42773 0.17815 0.42773 0.39453v17.77c0 0.21638-0.17676 0.39453-0.42773 0.39453h-7.7051c-0.25097 0-0.42773-0.17815-0.42773-0.39453v-17.77c0-0.21638 0.17676-0.39453 0.42773-0.39453z" color="#000000" stroke-linecap="round" stroke-miterlimit="10" style="-inkscape-stroke:none"/>
 <g stroke-width=".0066433">
  <path d="m11.875 18.348c-0.43692 0-0.79241 0.35546-0.79241 0.79241v0.18338c0 0.05503 0.04462 0.09965 0.09965 0.09965s0.09965-0.04462 0.09965-0.09965v-0.18338c0-0.32702 0.26606-0.59308 0.59308-0.59308 0.32703 0 0.59308 0.26606 0.59308 0.59308v0.99616c0 0.05503 0.04462 0.09965 0.09965 0.09965s0.09965-0.04462 0.09965-0.09965v-0.99616c4e-6 -0.43692-0.35546-0.79241-0.79242-0.79241z"/>
  <path d="m11.528 19.255c-0.05503 0-0.09965 0.04462-0.09965 0.09965v0.31773c0 0.05503 0.04462 0.09965 0.09965 0.09965s0.09965-0.04462 0.09965-0.09965v-0.31773c0-0.05503-0.04462-0.09965-0.09965-0.09965z"/>
  <path d="m11.874 18.742c-0.17647 0-0.33494 0.10502-0.40369 0.26755-0.02144 0.05069 0.0023 0.10916 0.05295 0.13059 0.05069 0.02145 0.10916-0.0023 0.13059-0.05295 0.03749-0.08864 0.1239-0.1459 0.22014-0.1459 0.09149 0 0.17358 0.05099 0.21421 0.13308 0.01632 0.03297 0.02461 0.06857 0.02462 0.10576v0.4868c0 0.05503 0.04462 0.09965 0.09965 0.09965s0.09965-0.04462 0.09965-0.09965v-0.48684c-2.7e-5 -0.06815-0.01527-0.13347-0.04531-0.19414-0.0745-0.15046-0.22502-0.24395-0.39282-0.24395z"/>
  <path d="m11.182 19.562c-0.05503 0-0.09965 0.04462-0.09965 0.09965v0.47474c0 0.05503 0.04462 0.09965 0.09965 0.09965s0.09965-0.04462 0.09965-0.09965v-0.47474c0-0.05504-0.04462-0.09965-0.09965-0.09965z"/>
  <path d="m11.528 19.882c-0.05503 0-0.09965 0.04462-0.09965 0.09965v0.1546c0 0.05503 0.04462 0.09965 0.09965 0.09965s0.09965-0.04462 0.09965-0.09965v-0.1546c0-0.05503-0.04462-0.09965-0.09965-0.09965z"/>
  <path d="m11.888 19.171c-0.04576 0-0.08285 0.03709-0.08285 0.08285v0.72784c0 0.04576 0.03709 0.08285 0.08285 0.08285s0.08285-0.03709 0.08285-0.08285v-0.72784c0-0.04576-0.03709-0.08285-0.08285-0.08285z"/>
  <path d="m12.213 19.831c-0.05503 0-0.09965 0.04462-0.09965 0.09965v0.20561c0 0.05503 0.04462 0.09965 0.09965 0.09965s0.09965-0.04462 0.09965-0.09965v-0.20561c0-0.05503-0.04462-0.09965-0.09965-0.09965z"/>
 </g>
</svg>
