<svg viewBox="0 0 24 24" xmlns="http://www.w3.org/2000/svg"><path d="M8.023 2c-.622 0-1.147.496-1.147 1.115v17.77c0 .62.525 1.115 1.147 1.115h7.705c.621 0 1.148-.495 1.148-1.115V10.766c.138-.002.248-.127.248-.281v-3.24c0-.155-.11-.28-.248-.282V5.594a.245.245 0 0 0 .248-.24v-.797c0-.132-.11-.24-.248-.242v-1.2c0-.619-.527-1.114-1.148-1.114zm0 .72h1.683v.561c0 .18.146.326.326.326h3.686c.18 0 .326-.146.326-.326v-.56h1.684c.25 0 .427.178.427.394v17.77c0 .217-.176.395-.427.395H8.022c-.25 0-.427-.178-.427-.395V3.115c0-.216.176-.394.427-.394z" color="#000" style="-inkscape-stroke:none"/><g stroke-width=".007"><path d="M11.875 18.348a.793.793 0 0 0-.792.792v.184a.1.1 0 0 0 .199 0v-.184a.594.594 0 0 1 1.186 0v.997a.1.1 0 0 0 .2 0v-.997a.793.793 0 0 0-.793-.792z"/><path d="M11.528 19.255a.1.1 0 0 0-.1.1v.317a.1.1 0 0 0 .2 0v-.317a.1.1 0 0 0-.1-.1zm.346-.513a.438.438 0 0 0-.404.268.1.1 0 0 0 .184.077.239.239 0 0 1 .459.093v.487a.1.1 0 0 0 .2 0v-.487a.436.436 0 0 0-.438-.438zm-.692.82a.1.1 0 0 0-.1.1v.474a.1.1 0 0 0 .2 0v-.474a.1.1 0 0 0-.1-.1zm.346.32a.1.1 0 0 0-.1.1v.154a.1.1 0 0 0 .2 0v-.154a.1.1 0 0 0-.1-.1z"/><path d="M11.888 19.171a.083.083 0 0 0-.083.083v.728a.083.083 0 1 0 .166 0v-.728a.083.083 0 0 0-.083-.083zm.325.66a.1.1 0 0 0-.1.1v.205a.1.1 0 0 0 .2 0v-.205a.1.1 0 0 0-.1-.1z"/></g></svg>