<?xml version="1.0" encoding="UTF-8"?>
<svg version="1.1" viewBox="0 0 24 24" xmlns="http://www.w3.org/2000/svg">
 <style type="text/css">.st0{fill:#FFFFFF;}
	.st1{fill:#8DC742;}</style>
 <path d="m13.791 15.299c0 0.95653-0.77816 1.7347-1.7347 1.7347-0.95653 0-1.7347-0.77816-1.7347-1.7347 0-0.95653 0.77816-1.7347 1.7347-1.7347 0.95653 0 1.7347 0.77816 1.7347 1.7347zm4.8413 5.6803c0 0.56354-0.45687 1.0204-1.0204 1.0204h-11.224c-0.56354 0-1.0204-0.45687-1.0204-1.0204v-17.959c0-0.56354 0.45687-1.0204 1.0204-1.0204h11.224c0.56354 0 1.0204 0.45687 1.0204 1.0204zm-1.6327-16.837c0-0.28177-0.22844-0.5102-0.5102-0.5102h-8.9796c-0.28177 0-0.5102 0.22844-0.5102 0.5102v4.4898c0 0.28177 0.22844 0.5102 0.5102 0.5102h8.9796c0.28177 0 0.5102-0.22844 0.5102-0.5102zm0.05667 11.156c0-2.757-2.243-5-5-5-2.757 0-5 2.243-5 5 0 2.757 2.243 5 5 5 2.757 0 5-2.243 5-5z" stroke-width=".068027"/>
</svg>
