<svg viewBox="0 0 24 24" xmlns="http://www.w3.org/2000/svg"><path d="M13.791 15.299c0 .957-.778 1.735-1.735 1.735a1.737 1.737 0 0 1-1.734-1.735c0-.957.778-1.735 1.734-1.735.957 0 1.735.778 1.735 1.735zm4.841 5.68a1.02 1.02 0 0 1-1.02 1.02H6.388a1.02 1.02 0 0 1-1.02-1.02V3.02c0-.563.456-1.02 1.02-1.02h11.224c.563 0 1.02.457 1.02 1.02zM17 4.142a.51.51 0 0 0-.51-.51H7.51a.51.51 0 0 0-.51.51v4.49c0 .282.228.51.51.51h8.98a.51.51 0 0 0 .51-.51zm.056 11.156c0-2.757-2.243-5-5-5s-5 2.243-5 5 2.243 5 5 5 5-2.243 5-5z"/></svg>