<?xml version="1.0" encoding="UTF-8"?>
<svg version="1.1" viewBox="0 0 24 24" xmlns="http://www.w3.org/2000/svg">
 <style type="text/css">.st0{fill:#FFFFFF;}
	.st1{fill:#8DC742;}</style>
 <g transform="matrix(.60165 0 0 .60165 -.39241 10.034)" aria-label="♫">
  <path d="m17.619-13.354 13.496 3.9453 0.05859 0.078125v25.371q0 3.0273-3.75 3.8477h-1.0547q-4.1602 0-4.1602-3.2031v-0.07813q0-2.4609 3.457-2.8906l0.76172-0.05859q1.6797 0 3.2617 1.1328v-20.215l-10.703-3.3008v20.723q0 2.6758-2.9297 3.7695l-1.3086 0.15625h-0.50781q-4.2188 0-4.2188-3.0273v-0.13672q0-2.3828 3.3203-3.0469l0.83984-0.078125q1.7383 0 3.3008 1.3086v-24.121z"/>
 </g>
</svg>
