<svg viewBox="0 0 24 24" xmlns="http://www.w3.org/2000/svg"><path d="M12 2C9.243 2 7 4.243 7 7v5c0 2.757 2.243 5 5 5s5-2.243 5-5V7c0-2.757-2.243-5-5-5zm9.166 0a.827.827 0 0 0-.588.244l-2.5 2.5a.832.832 0 1 0 1.178 1.178l2.5-2.5A.832.832 0 0 0 21.166 2zm-7.5 7.5a.832.832 0 0 1 .59 1.422l-2.5 2.5a.833.833 0 1 1-1.178-1.178l2.5-2.5a.827.827 0 0 1 .588-.244zm-8.332.834a.833.833 0 0 0-.834.832V12c0 3.853 2.922 7.035 6.666 7.451v.883H9.5A.833.833 0 1 0 9.5 22h5a.834.834 0 0 0 0-1.666h-1.666v-.883C16.578 19.035 19.5 15.853 19.5 12v-.834a.833.833 0 0 0-1.666 0V12A5.841 5.841 0 0 1 12 17.834 5.841 5.841 0 0 1 6.166 12v-.834a.83.83 0 0 0-.832-.832zm0 7.5a.832.832 0 0 0-.59.244l-2.5 2.5a.832.832 0 1 0 1.178 1.178l2.5-2.5a.832.832 0 0 0-.588-1.422z"/></svg>