<?xml version="1.0" encoding="UTF-8"?>
<svg version="1.1" viewBox="0 0 24 24" xmlns="http://www.w3.org/2000/svg">
 <style type="text/css">.st0{fill:#FFFFFF;}
	.st1{fill:#8DC742;}</style>
 <path d="m12 2c-2.7574 0-5 2.2426-5 5v5c0 2.7574 2.2426 5 5 5 2.7574 0 5-2.2426 5-5v-5c0-2.7574-2.2426-5-5-5zm9.166 0c-0.21312 0-0.42498 0.081234-0.58789 0.24414l-2.5 2.5c-0.32581 0.32581-0.32581 0.85192 0 1.1777 0.1625 0.1625 0.37454 0.24414 0.58789 0.24414s0.42735-0.081644 0.58984-0.24414l2.5-2.5c0.32578-0.32581 0.32581-0.85192 0-1.1777-0.16291-0.16291-0.37672-0.24414-0.58984-0.24414zm-7.5 7.5c0.21312 0 0.42694 0.081234 0.58984 0.24414 0.32581 0.32581 0.32581 0.85192 0 1.1777l-2.5 2.5c-0.1625 0.1625-0.37649 0.24414-0.58984 0.24414-0.21332 0-0.42539-0.081646-0.58789-0.24414-0.32577-0.32581-0.32581-0.85192 0-1.1777l2.5-2.5c0.16291-0.16291 0.37477-0.24414 0.58789-0.24414zm-8.332 0.83398c-0.46081 0-0.83398 0.37204-0.83398 0.83203v0.83398c0 3.8532 2.9219 7.0354 6.666 7.4512v0.88281h-1.666c-0.46081 0-0.83398 0.37204-0.83398 0.83203 0 0.45999 0.37317 0.83398 0.83398 0.83398h5c0.46081 0 0.83398-0.37399 0.83398-0.83398 0-0.45999-0.37317-0.83203-0.83398-0.83203h-1.666v-0.88281c3.7441-0.41581 6.666-3.5979 6.666-7.4512v-0.83398c-7.8e-5 -0.45995-0.37317-0.83203-0.83398-0.83203-0.46081 0-0.83203 0.37204-0.83203 0.83203v0.83398c0 3.2166-2.6182 5.834-5.834 5.834-3.2158 0-5.834-2.6174-5.834-5.834v-0.83398c0-0.45999-0.37122-0.83203-0.83203-0.83203zm0 7.5c-0.21313 0-0.42694 0.081234-0.58984 0.24414l-2.5 2.5c-0.32581 0.32581-0.32581 0.85192 0 1.1777 0.1625 0.1625 0.37649 0.24414 0.58984 0.24414 0.21332 0 0.42539-0.081647 0.58789-0.24414l2.5-2.5c0.32581-0.32581 0.32581-0.85192 0-1.1777-0.16293-0.16291-0.37477-0.24414-0.58789-0.24414z" stroke-width=".039062"/>
</svg>
