<?xml version="1.0" encoding="UTF-8"?>
<svg version="1.1" viewBox="0 0 24 24" xmlns="http://www.w3.org/2000/svg">
 <path d="m9.6014 2.0017c-0.098664-0.0055307-0.18932 0.0021576-0.27039 0.024421-0.67724 0.18597-1.4362 1.5749-2.0445 1.9258-0.58262 0.3361-2.1126 0.26631-2.5853 0.74485-0.49351 0.49966-0.45632 2.0818-0.80768 2.6898-0.33651 0.58236-1.6965 1.2873-1.8666 1.938-0.17756 0.67946 0.64569 2.0312 0.64545 2.7334-2.299e-4 0.67259-0.82531 1.9628-0.64719 2.6113 0.18598 0.6772 1.5749 1.4361 1.9259 2.0444 0.33611 0.58259 0.26633 2.1125 0.74488 2.5852 0.49968 0.49349 2.0819 0.4563 2.69 0.80764 0.58239 0.33649 1.2873 1.6964 1.9381 1.8665 0.67949 0.17755 2.0313-0.64566 2.7336-0.64542 0.67262 2.29e-4 1.9628 0.82527 2.6115 0.64716 0.67724-0.18597 1.4362-1.5749 2.0445-1.9258 0.58262-0.33609 2.1126-0.26631 2.5853-0.74485 0.49351-0.49966 0.45632-2.0818 0.80768-2.6898 0.33651-0.58236 1.6965-1.2873 1.8666-1.938 0.17756-0.67946-0.64569-2.0312-0.64545-2.7334 2.3e-4 -0.67259 0.82531-1.9628 0.64719-2.6113-0.18598-0.6772-1.5749-1.4361-1.9259-2.0444-0.33611-0.58259-0.26632-2.1125-0.74488-2.5852-0.49968-0.49349-2.0819-0.4563-2.69-0.80765-0.58239-0.33649-1.2873-1.6964-1.9381-1.8665-0.67949-0.17755-2.0313 0.64566-2.7336 0.64542-0.58854-2.011e-4 -1.6504-0.63287-2.3411-0.67158zm1.4339 6.1716c0.627 0 1.0852 0.21845 1.3746 0.65588 0.29474 0.42702 0.44135 1.0154 0.44135 1.7653 0 0.14581-0.01 0.28674-0.0314 0.42214-0.01608 0.1354-0.0461 0.27104-0.08897 0.40644-0.03751 0.12498-0.09082 0.24477-0.16049 0.35934-0.06431 0.10415-0.13929 0.20281-0.22504 0.29654-0.08574 0.08332-0.18738 0.15027-0.30528 0.20235-0.1179 0.04166-0.24457 0.06279-0.37855 0.06279l-1.1322 0.0157c0.05359 0.33329 0.15025 0.59929 0.28958 0.79718 0.13933 0.18747 0.31596 0.28084 0.53032 0.28084 0.23044 0 0.46535-0.05812 0.70651-0.17269 0.10182-0.05208 0.2118-0.13488 0.3297-0.24945 0.12326-0.11457 0.21157-0.17095 0.26516-0.17095 0.0911 0 0.1611 0.0511 0.20934 0.15525 0.05359 0.10415 0.08025 0.23451 0.08025 0.39074 0 0.18747-0.04335 0.41649-0.12909 0.68728-0.08574 0.26038-0.20569 0.52638-0.3611 0.79718-0.15005 0.26038-0.35171 0.48411-0.60358 0.67158-0.25187 0.18747-0.52179 0.28084-0.81117 0.28084-0.6538 0-1.1954-0.32767-1.6241-0.98383-0.42336-0.65616-0.63498-1.5511-0.63498-2.6863 0-1.229 0.21001-2.1979 0.62801-2.9061 0.42336-0.71865 0.96655-1.078 1.6311-1.078zm-3.9303 0.078497c0.38049 0 0.65377 0.29068 0.8199 0.87393 0.17149 0.58325 0.25644 1.5416 0.25644 2.8747 0 0.65616-0.00835 1.1917-0.024422 1.6083-0.016077 0.40619-0.042732 0.76203-0.080245 1.0641-0.032154 0.29163-0.085465 0.51007-0.16049 0.65588-0.075026 0.14581-0.16334 0.24975-0.26516 0.31224-0.096462 0.06249-0.22314 0.0942-0.37855 0.0942-0.3001 0-0.51671-0.11097-0.65068-0.32969-0.12862-0.21872-0.19189-0.5411-0.19189-0.96813l-0.00872-2.9061c0-0.58325-0.11833-0.87393-0.35413-0.87393-0.11254 0-0.20583 0.09337-0.28086 0.28084-0.069667 0.17706-0.10965 0.41664-0.12037 0.71868v2.4055c0 0.63533-0.066638 1.074-0.20061 1.3135-0.13397 0.23955-0.37063 0.35934-0.70825 0.35934-0.31618 0-0.53279-0.14093-0.65068-0.42214-0.11254-0.29163-0.16921-0.76551-0.16921-1.4217v-3.8446c0-0.53118 0.073365-0.9575 0.21806-1.2804 0.15005-0.32287 0.34835-0.48494 0.59486-0.48494 0.20364 0 0.37354 0.058125 0.51287 0.17269 0.13933 0.11457 0.24434 0.31188 0.314 0.59309 0.418-0.53118 0.92794-0.79544 1.5281-0.79543zm7.3232 0.029654c0.22508 0 0.40332 0.052841 0.53729 0.15699 0.13398 0.10415 0.22901 0.25565 0.2826 0.45354 0.05895 0.19789 0.08722 0.45861 0.08722 0.78148l0.0087 2.7805v0.34364c0.0054 0.06249 0.0137 0.14529 0.02442 0.24944 0.01072 0.09374 0.02567 0.16069 0.0471 0.20235 0.02144 0.03125 0.05146 0.06295 0.08897 0.0942 0.03751 0.03124 0.08584 0.04709 0.14479 0.04709 0.21436 0 0.34104-0.11979 0.37855-0.35934-0.04823-0.62491-0.07327-1.2961-0.07327-2.0148 0-0.60408 0.01171-1.0727 0.03314-1.406 0.02144-0.3437 0.0664-0.62027 0.13607-0.82858 0.07503-0.2083 0.1667-0.34395 0.27388-0.40644 0.10718-0.062492 0.25877-0.094196 0.45705-0.094196 0.17684 0 0.31685 0.031705 0.41867 0.094196 0.10182 0.062492 0.18515 0.19813 0.24946 0.40644 0.06431 0.2083 0.10591 0.48488 0.12735 0.82858 0.02144 0.33329 0.03315 0.80188 0.03315 1.406 0 0.72907-0.02167 1.4055-0.06455 2.0305 0.03751 0.22914 0.15746 0.34364 0.3611 0.34364 0.13933 0 0.22603-0.06166 0.25818-0.18665 0.03751-0.1354 0.05582-0.38026 0.05582-0.73438l0.0087-2.7962c0-0.4791 0.06826-0.82965 0.20759-1.0484 0.13933-0.22914 0.37599-0.34364 0.70825-0.34364 0.14469 0 0.26302 0.031705 0.35412 0.094196 0.0911 0.062492 0.16771 0.16643 0.23201 0.31224 0.06967 0.1354 0.12136 0.34856 0.15351 0.64019 0.03751 0.28121 0.06417 0.62648 0.08025 1.0327 0.01608 0.39578 0.02442 0.9049 0.02442 1.5298 0 0.55201-0.04671 1.0576-0.13781 1.5159-0.08574 0.44786-0.19735 0.81251-0.33668 1.0937-0.13397 0.28121-0.29229 0.52079-0.47449 0.71868-0.1822 0.18748-0.36381 0.32312-0.54602 0.40644-0.1822 0.07291-0.36556 0.1099-0.54776 0.1099-0.43408 0-0.83229-0.266-1.1967-0.79718-0.35905 0.53118-0.75564 0.79718-1.1897 0.79718-0.1822 0-0.36555-0.03699-0.54776-0.1099-0.17685-0.08332-0.35845-0.21896-0.54602-0.40644-0.1822-0.19789-0.34214-0.43747-0.48147-0.71868-0.13933-0.28121-0.2543-0.64587-0.3454-1.0937-0.08574-0.45827-0.12909-0.96385-0.12909-1.5159 0-1.0311 0.02329-1.7904 0.07152-2.2799 0.04823-0.49993 0.1282-0.84345 0.24074-1.0309 0.11254-0.19789 0.2909-0.29829 0.53206-0.29829zm-3.4244 1.235c-0.07503 0-0.15001 0.077517-0.22504 0.23375-0.06967 0.15623-0.13132 0.37996-0.18491 0.67158-0.05359 0.28121-0.08859 0.59477-0.10467 0.93847 0.36977-0.01041 0.56969-0.0157 0.60184-0.0157 0.08038 0 0.14042-0.09337 0.17793-0.28084 0.02679-0.1354 0.04012-0.32388 0.04012-0.56343 0-0.65616-0.10164-0.98383-0.30528-0.98383z"/>
</svg>
