<?xml version="1.0" encoding="UTF-8"?>
<svg version="1.1" viewBox="0 0 24 24" xmlns="http://www.w3.org/2000/svg">
 <style type="text/css">.st0{fill:#FFFFFF;}
	.st1{fill:#8DC742;}</style>
 <g transform="matrix(.040918 0 0 .040918 2 2)"></g>
 <g transform="matrix(.040766 0 0 .040766 2 2)"></g>
 <g transform="matrix(-.025432 0 0 .025432 18.275 5.7245)">
  <path d="m447.13 0.236c-10.056 0-20.884 4.12-32.148 11.884l-274.1 188.83c-17.644 12.152-27.252 28.504-27.252 46.06-4e-3 17.56 9.78 33.924 27.428 46.076l274.33 188.7c11.284 7.768 22.568 11.736 32.604 11.736h0.012c10.76 0 18.916-4.404 25.276-12.972 6.268-8.46 8.688-20.476 8.688-35.012v-397.03c4e-3 -29.768-12.784-48.272-34.844-48.272z"/>
  <path d="m53.106 0.036-13.212-0.036c-14.876 0-28.344 12.112-28.344 26.996v439.42c0 14.884 13.024 27.1 27.908 27.1h0.456l12.948-0.072c14.88 0 28.092-12.164 28.092-27.048v-439.37c4e-3 -14.884-12.984-26.992-27.848-26.992z"/>
 </g>
</svg>
