<?xml version="1.0" encoding="UTF-8"?>
<svg version="1.1" viewBox="0 0 24 24" xmlns="http://www.w3.org/2000/svg">
 <style type="text/css">.st0{fill:#FFFFFF;}
	.st1{fill:#8DC742;}</style>
 <g transform="matrix(.040918 0 0 .040918 2 2)"></g>
 <g transform="matrix(.040766 0 0 .040766 2 2)"></g>
 <g transform="matrix(-.044358 0 0 .025432 17.198 5.7245)">
  <g transform="translate(141.88)">
   <path d="m53.106 0.036-13.212-0.036c-14.876 0-28.344 12.112-28.344 26.996v439.42c0 14.884 13.024 27.1 27.908 27.1h0.456l12.948-0.072c14.88 0 28.092-12.164 28.092-27.048v-439.37c4e-3 -14.884-12.984-26.992-27.848-26.992z"/>
  </g>
  <path d="m53.106 0.036-13.212-0.036c-14.876 0-28.344 12.112-28.344 26.996v439.42c0 14.884 13.024 27.1 27.908 27.1h0.456l12.948-0.072c14.88 0 28.092-12.164 28.092-27.048v-439.37c4e-3 -14.884-12.984-26.992-27.848-26.992z"/>
 </g>
</svg>
