<?xml version="1.0" encoding="UTF-8"?>
<svg version="1.1" viewBox="0 0 24 24" xmlns="http://www.w3.org/2000/svg">
 <style type="text/css">.st0{fill:#FFFFFF;}
	.st1{fill:#8DC742;}</style>
 <style type="text/css">.st0{fill:#FFFFFF;}
	.st1{fill:#8DC742;}</style>
 <g stroke-width=".039062">
  <rect x="11.565" y="6.2713" width="7.6131" height=".91625" ry=".4"/>
  <rect x="11.565" y="8.81" width="10.435" height=".86969" ry=".4"/>
  <rect x="11.565" y="14.322" width="7.225" height=".86969" ry=".4"/>
  <rect x="11.565" y="16.931" width="10.435" height=".86969" ry=".4"/>
 </g>
 <path d="m3 13.016c-0.554 0-1 0.446-1 1v4.0879c0 0.554 0.446 1 1 1h4.957c0.554 0 1-0.446 1-1v-4.0879c0-0.554-0.446-1-1-1h-4.957zm1.1699 1.4277 2.8027 1.6172-2.8027 1.6191v-3.2363z" stroke-width=".039062"/>
 <path d="m3 4.8965c-0.554 0-1 0.446-1 1v4.0879c0 0.554 0.446 1 1 1h4.957c0.554 0 1-0.446 1-1v-4.0879c0-0.554-0.446-1-1-1h-4.957zm1.1699 1.4258 2.8027 1.6172-2.8027 1.6191v-3.2363z" stroke-width=".039062"/>
</svg>
