<svg version="1.1" viewBox="0 0 24 24" xmlns="http://www.w3.org/2000/svg">
 <style type="text/css">.st0{fill:#FFFFFF;}
	.st1{fill:#8DC742;}</style>
 <g transform="matrix(.072455 0 0 .072455 1.8564 10.406)">
  <path d="m8.9824 1.3984c-3.878 0-7 3.122-7 7v27.203c0 3.878 3.122 7 7 7h262.03c3.878 0 7-3.122 7-7v-27.203c0-3.878-3.122-7-7-7h-262.03zm175.08 1.6738h86.955c2.9794 0 5.3262 2.3468 5.3262 5.3262v27.203c0 2.9794-2.3468 5.3262-5.3262 5.3262h-91.904l4.9492-37.855zm-167.71 8.9277.6875.6875.6875.68555-.22656.25c-1.085 1.1955-1.7675 2.6839-1.9805 4.3145-.07127.5454-.0482 1.6578.04492 2.1797.2836 1.5897.98689 3.0227 1.9922 4.0566l.1875.19141-.67969.67969c-.37353.3737-.68666.67942-.69727.67969-.0323.00077-.39699-.39558-.67969-.74023-.71554-.8725-1.3071-1.9527-1.6602-3.0293-.25526-.7785-.40152-1.4632-.4707-2.2031-.05369-.5741-.02212-1.7773.06055-2.2891.3328-2.0591 1.1838-3.8048 2.582-5.2988l.15234-.16406zm16.729 0 .18555.19531c.6572.6907 1.2164 1.503 1.666 2.4199.49663 1.0128.79997 2.046.92969 3.1719.072.6247.04709 1.9329-.04687 2.5371-.2774 1.783-1.0571 3.4892-2.2148 4.8457-.12332.1445-.29032.32767-.37305.4082l-.15039.14648-1.3711-1.375.18359-.18555c.23528-.2356.7513-.90806.95703-1.25.38789-.6447.70812-1.4187.89648-2.1641.4998-1.9773.18791-4.082-.86719-5.8652-.2281-.38548-.65844-.9618-.95312-1.2773l-.2168-.23438 1.375-1.373zm45.188 0-2.0781 15.789c-.45901.12448-1.042.24856-1.75.37305-.70798.12449-1.513.18751-2.4121.1875-.82994 0-1.5582-.13173-2.1875-.39453-.62928-.2628-1.1481-.63695-1.5547-1.1211-.40658-.48414-.69547-1.0721-.86719-1.7637-.1561-.70543-.17722-1.4938-.0625-2.3652.10926-.82994.3128-1.5897.61133-2.2812.31236-.69159.70894-1.2872 1.1895-1.7852.48051-.49796 1.0368-.88549 1.668-1.1621.64502-.27664 1.3543-.41406 2.1289-.41406.62243 0 1.159.08207 1.6074.24805.46226.16598.80054.32636 1.0156.47852l.71875-5.457 1.9727-.33203zm42.236.83008c.34579 0 .62199.11838.82617.35352.21984.22131.30294.52482.25195.91211-.051.38729-.21617.69845-.49609.93359-.26428.22131-.56826.33203-.91406.33203s-.62977-.11072-.84961-.33203c-.20418-.23514-.28146-.5463-.23047-.93359.051-.38729.21035-.6908.47461-.91211.27993-.23514.5917-.35352.9375-.35352zm36.42.56055c1.5077 0 2.5881.35121 3.2422 1.0566.66968.69159.92144 1.6747.7539 2.9473-.0655.49795-.23254.98091-.50195 1.4512-.25373.45645-.57668.91461-.96875 1.3711-.39023.44262-.82167.88357-1.2949 1.3262-.47141.42879-.9425.85069-1.4121 1.2656-.2661.23514-.57944.51194-.93945.83008-.34619.31813-.6798.6503-1.002.99609s-.6004.67796-.83594.99609c-.2217.31813-.34794.59494-.3789.83008h6.6172l-.21485 1.6387h-8.7148c-.003-.08299.001-.16506.0117-.24805.0109-.08299.0222-.15935.0312-.22852.0856-.6501.26849-1.2514.54883-1.8047.29597-.56711.64919-1.0997 1.0605-1.5977.41136-.49796.8606-.96949 1.3477-1.4121s.96598-.8702 1.4355-1.2852c.3895-.33196.75734-.65843 1.1035-.97656.36184-.33196.68001-.65648.95703-.97461.29268-.33196.531-.66983.71485-1.0156.19768-.3458.32206-.71232.37304-1.0996.0546-.41496.0317-.76812-.0684-1.0586-.0862-.29047-.22606-.53292-.42187-.72656-.19582-.19364-.441-.33107-.73438-.41406-.27772-.09682-.5821-.14648-.91406-.14648-.40113 0-.77457.05536-1.1211.16602-.34654.11066-.66248.24238-.94532.39453-.281.13832-.52099.29105-.72265.45703-.19986.15215-.35515.26858-.46289.35156l-.77344-1.3691c.1427-.13832.35053-.3044.625-.49805.27628-.20748.59928-.40026.96875-.58008s.77748-.33255 1.2227-.45703.91613-.18555 1.4141-.18555zm17.492 0c1.5077 0 2.597.64903 3.2695 1.9492.6864 1.3002.87154 3.1538.55469 5.5605-.31686 2.4068-.99078 4.2604-2.0195 5.5605-1.0149 1.3002-2.2755 1.9512-3.7832 1.9512s-2.6046-.65098-3.291-1.9512c-.67255-1.3002-.85005-3.1538-.5332-5.5605.31686-2.4068.98316-4.2604 1.998-5.5605 1.0288-1.3002 2.297-1.9492 3.8047-1.9492zm-125.73.18555c2.0194 0 3.5172.38752 4.4941 1.1621.99256.76073 1.3878 1.9023 1.1875 3.4238-.10926.82994-.35373 1.542-.73633 2.1367-.36695.58094-.86028 1.0581-1.4766 1.4316-.60062.35963-1.3126.62308-2.1367.78906-.82412.16598-1.7403.24805-2.75.24805h-1.5977l-.70117 5.334h-2.0137l1.8652-14.172c.58532-.13832 1.2268-.22803 1.9238-.26953.71271-.05533 1.3605-.08398 1.9414-.08398zm64.184.39453-.43946 3.3398h4.0859l-.21289 1.6191h-4.0859l-.65625 4.9785c-.071.53944-.0883.98997-.0527 1.3496.0375.3458.125.6226.26367.83008.14049.19364.3303.33107.56836.41406.23804.08299.52351.125.85547.125.58094 0 1.0519-.06302 1.4141-.1875.37784-.13832.63955-.23374.78516-.28906l.16211 1.5977c-.20639.09682-.56019.21324-1.0625.35156-.50415.15215-1.067.22852-1.6895.22852-.73309 0-1.3306-.08972-1.791-.26953-.44479-.19364-.78802-.47614-1.0293-.84961-.24129-.37347-.38793-.83163-.44141-1.3711-.0378-.55328-.009-1.1889.0859-1.9082l1.2676-9.627 1.9727-.33203zm-82.1.34375.26953.30469c1.3888 1.5669 1.9314 3.8185 1.4062 5.8379-.2696 1.037-.76994 1.9668-1.4902 2.7656-.08432.0935-.16305.17364-.17383.17774-.01071.0043-.31344-.29596-.67383-.66797-.65419-.67527-.65621-.67668-.5918-.73438.10636-.09531.4413-.53887.58203-.76953.28634-.4693.51506-1.1011.60352-1.668.06438-.4127.04739-1.226-.0332-1.5918-.17937-.814-.51626-1.4765-1.1094-2.1797l-.12109-.14258 1.332-1.332zm-12.092.0332c.0056-.0012.01056-.001.01563 0 .01349.0027.02681.01379.04297.02734.03586.03032.34182.32888.67969.66406l.61328.60938-.19141.20898c-.51737.5638-.90285 1.3507-1.0723 2.1895-.08394.4157-.07654 1.3123.01367 1.7188.18079.8149.5299 1.5168 1.0625 2.1328l.15039.17578-1.3164 1.3438-.27344-.30664c-.86314-.9738-1.4102-2.2265-1.5664-3.5801-.0452-.3915-.0181-1.3318.04883-1.7012.15354-.8474.42697-1.5919.83789-2.2734.22725-.37694.36504-.5629.6875-.93555.16946-.19584.22842-.26471.26758-.27344zm155.52.74414c-.5256 0-.98911.15843-1.3906.47656-.39969.3043-.74465.72045-1.0352 1.2461-.27668.52561-.50952 1.1403-.69922 1.8457-.17586.70543-.31612 1.4518-.41993 2.2402-.10379.78839-.16004 1.5368-.16992 2.2422.004.70543.0747 1.3201.21289 1.8457.15211.52561.38733.94751.70508 1.2656.31956.3043.74198.45703 1.2676.45703.52559 0 .98703-.15273 1.3867-.45703.40151-.31813.7409-.74003 1.0176-1.2656.29051-.52561.52336-1.1403.69922-1.8457.1897-.70543.33761-1.4538.4414-2.2422.1038-.78844.15435-1.5349.15039-2.2402.01-.70543-.0627-1.3201-.21484-1.8457-.13828-.52561-.36599-.94177-.68555-1.2461-.31775-.31813-.74004-.47656-1.2656-.47656zm-125.58.24805c-.85758 0-1.5185.02101-1.9805.0625l-.74219 5.6445h1.5137c.69159 0 1.3206-.04201 1.8848-.125.56602-.09682 1.0485-.24955 1.4492-.45703.41643-.22131.75312-.51912 1.0098-.89258.25664-.37346.42351-.85067.5-1.4316.07284-.55328.02162-1.0095-.15234-1.3691-.16013-.35963-.41167-.64213-.75781-.84961-.33049-.22131-.73386-.37404-1.207-.45703-.47317-.08299-.9781-.12499-1.5176-.125zm-27.734 1.1602.39062.39062.39258.38867-.07813.12109c-.58036.9192-.58542 1.9882-.01563 2.9102l.0625.10156-.38086.38477c-.20926.21167-.38993.38477-.40234.38477-.03882 0-.36293-.50466-.45703-.71289-.12673-.28034-.24358-.66976-.30078-.99805-.06634-.3808-.04349-1.1039.04687-1.4648.1254-.50092.41228-1.1119.66406-1.4141l.07813-.0918zm7.6797.01563c.03134 0 .2616.3281.37305.53125.51821.9446.60488 2.1052.23242 3.127-.10231.28066-.29557.64936-.45117.86133-.05958.08117-.11748.14758-.12891.14648-.01131-.001-.18962-.17818-.39453-.39258l-.37109-.39062.13281-.23438c.47029-.823.44351-1.9614-.06445-2.709-.04448-.06548-.08008-.14124-.08008-.16797 0-.04387.70909-.77148.75195-.77148zm-3.7715.20703c.18981-.00047.37938.01754.51562.05273.78744.2032 1.399.81543 1.5938 1.5938.07336.29325.04855.9028-.04883 1.1758-.2409.67477-.75882 1.1879-1.4062 1.3926-.15858.05011-.31608.06982-.58789.07813-.42379.01308-.68395-.03978-1.0137-.20703-1.0792-.5473-1.5192-1.8272-.99024-2.8848.2822-.56409.81075-.99101 1.418-1.1465.13993-.03586.32972-.05416.51953-.05469zm36.135.31836c.73311 0 1.3925.13938 1.9785.41602.58784.2628 1.0702.6427 1.4473 1.1406.3909.49795.6642 1.0993.82031 1.8047.15793.69159.18139 1.459.07031 2.3027-.1129.85758-.33966 1.6326-.67969 2.3242-.34002.69159-.77096 1.2872-1.293 1.7852-.50817.49795-1.0911.88547-1.75 1.1621-.65703.2628-1.3528.39258-2.0859.39258-.73311 0-1.3926-.12978-1.9805-.39258-.58601-.27664-1.0759-.66416-1.4668-1.1621-.37706-.49795-.64481-1.0935-.80274-1.7852-.15792-.69161-.17931-1.4667-.06641-2.3242.11108-.84372.33576-1.6111.67578-2.3027.34185-.70543.76722-1.3068 1.2754-1.8047.52201-.49795 1.1125-.87784 1.7695-1.1406.65885-.27664 1.3548-.41602 2.0879-.41602zm24.564 0c.48412 0 .96237.04201 1.4355.125.47317.08299.91894.21472 1.3379.39453l-.65039 1.6387c-.27226-.13832-.59825-.24904-.97461-.33203-.36253-.08299-.75678-.125-1.1855-.125-1.0788-1e-6-1.9529.33982-2.623 1.0176-.65634.67776-1.071 1.6666-1.2422 2.9668-.07648.58094-.08419 1.1135-.02344 1.5977.07458.48412.22788.89832.45898 1.2441.24495.3458.57506.6169.99219.81055.41894.17982.94775.26953 1.584.26953.51178-1e-6.98052-.04966 1.4082-.14648.42769-.09682.7659-.19989 1.0156-.31055l.05664 1.6172c-.11976.06916-.28732.13982-.50391.20898-.21476.05533-.45634.10304-.72461.14453-.27009.05533-.55923.09733-.86719.125-.29594.0415-.58274.0625-.85937.0625-.87144 0-1.6206-.13938-2.248-.41602-.61368-.27664-1.1149-.66416-1.5059-1.1621-.37706-.49795-.63159-1.0859-.76367-1.7637-.13026-.69159-.14051-1.4513-.03125-2.2812.10926-.82994.32615-1.5916.65234-2.2832.34002-.69159.7633-1.2852 1.2715-1.7832.50999-.51178 1.1027-.90693 1.7754-1.1836.68834-.29047 1.4264-.43555 2.2148-.43555zm8.5684.002c.77459 0 1.4119.10307 1.9102.31055.51395.19364.90485.4781 1.1738.85156.28462.35963.46226.79484.5332 1.3066.07276.49795.0684 1.0515-.01172 1.6602l-.88672 6.7422c-.16962.02766-.41107.06967-.72266.125-.29594.04149-.6328.0835-1.0117.125s-.79201.07586-1.2383.10352c-.43425.04149-.86613.0625-1.2949.0625-.6086 0-1.1589-.06302-1.6543-.1875-.49536-.12448-.91308-.31727-1.252-.58008-.33704-.27664-.58126-.63748-.73047-1.0801-.14921-.4426-.18156-.97519-.09961-1.5977.0783-.59477.2631-1.1064.55469-1.5352.30543-.42879.68326-.77431 1.1328-1.0371.44956-.2628.95769-.45754 1.5273-.58203.56965-.12449 1.159-.18555 1.7676-.18555.19364 0 .39382.01336.59766.04102.20566.01383.39401.04249.56836.08398.19.02766.3536.05436.48828.08203.13468.02766.22775.04866.28125.0625l.07226-.53906c.04188-.31813.04863-.62929.01953-.93359-.02727-.31813-.11676-.59494-.26562-.83008-.14704-.24898-.37-.44371-.66992-.58203-.28427-.15215-.6759-.22656-1.1738-.22656-.63627 0-1.2024.04771-1.6992.14453-.48121.08299-.84586.17271-1.0938.26953l-.01758-1.5977c.26354-.11066.69144-.21372 1.2852-.31055.5955-.11066 1.2324-.16602 1.9102-.16602zm10.623 0c.30429 0 .60546.021.90429.0625.30067.02766.57847.06771.83399.12305.25734.0415.47967.09116.66601.14648.2002.05533.3538.10304.45899.14453l-.57227 1.6602c-.1929-.11066-.50358-.22138-.93164-.33203-.42622-.12448-.94982-.1875-1.5723-.1875-.53944 0-1.0248.11072-1.4551.33203-.42844.20748-.67233.53964-.73242.99609-.0309.23514-.0164.44323.043.62305.0731.17982.18982.3459.34961.49805.17543.13832.39209.27005.65234.39453s.57428.25426.94336.39258c.48629.19364.91731.38838 1.293.58203.37744.17982.68973.3936.93359.64258.25769.24897.43817.55444.54297.91406.10663.3458.12595.77337.0586 1.2852-.13112.99593-.60368 1.75-1.418 2.2617-.80049.51178-1.8846.76758-3.2539.76758-.95443 0-1.6914-.08207-2.209-.24805-.51937-.15215-.87-.27053-1.0527-.35352l.57031-1.6602c.21039.08299.54751.20707 1.0098.37305.46226.16598 1.0943.25 1.8965.25.78845-1e-6 1.3825-.10307 1.7832-.31055.41461-.20748.65279-.53964.71289-.99609.0619-.47028-.0751-.84443-.41211-1.1211-.33704-.27666-.91254-.58783-1.7246-.93359-.39311-.16598-.7713-.33206-1.1367-.49805-.34978-.17982-.64885-.38791-.89453-.62305-.24569-.23514-.42851-.51764-.55078-.84961-.12228-.33197-.15163-.74049-.0879-1.2246.12565-.95443.5772-1.7085 1.3555-2.2617.7801-.56711 1.7789-.84961 2.9961-.84961zm23.854.04102c.85758 0 1.5536.12407 2.0879.37305.53615.23514.94114.57496 1.2148 1.0176.28934.42879.46329.94612.52148 1.5547.0582.60856.0399 1.2805-.0566 2.0137l-.79687 6.0586h-1.9297l.74219-5.6445c.0874-.66393.11306-1.2309.0781-1.7012-.0211-.47028-.1159-.85017-.28515-1.1406-.16924-.29045-.41864-.49854-.74805-.62305-.32759-.13832-.74603-.20703-1.2578-.20703-.20748 0-.42335.0077-.64649.02149-.22312.01383-.44122.03288-.65234.06055-.19548.01383-.37725.03484-.54688.0625-.15578.02766-.26886.04866-.33984.0625l-1.1992 9.1094h-1.9297l1.3789-10.479c.45719-.11066 1.0611-.22903 1.8106-.35352.74947-.12448 1.6003-.18555 2.5547-.18555zm12.242 0c.89908 0 1.6726.06871 2.3184.20703.66137.12448 1.2124.24091 1.6543.35156l-1.2676 9.627c-.21852 1.6598-.80581 2.8644-1.7617 3.6113-.95592.74695-2.3041 1.1191-4.0469 1.1191-.67776 0-1.3142-.05341-1.9082-.16406-.5802-.11066-1.0814-.24239-1.5039-.39453l.57421-1.6816c.36727.15215.81871.28388 1.3574.39453.55072.12448 1.1316.1875 1.7402.1875 1.1481 0 2.0005-.22909 2.5586-.68555.57187-.45645.92358-1.1819 1.0547-2.1777l.0606-.45703c-.18055.11066-.52542.25573-1.0332.43555-.49214.16598-1.0571.25-1.6934.25-.65011 0-1.2511-.10502-1.8047-.3125-.53979-.20748-.99677-.52434-1.3691-.95312-.37052-.44262-.6374-.99054-.80078-1.6406-.1634-.6501-.1848-1.4232-.0664-2.3223.1038-.78844.31599-1.5081.63672-2.1582.32255-.66393.73571-1.2309 1.2402-1.7012.52019-.48412 1.1219-.85826 1.8066-1.1211.68653-.27664 1.4378-.41406 2.2539-.41406zm-21.816.22852h1.9297l-1.4199 10.789h-1.9297zm-58.26 1.4297c-.9406 0-1.7349.36084-2.3828 1.0801-.63231.70543-1.0292 1.6656-1.1895 2.8828s-.01702 2.1851.42773 2.9043c.4604.70543 1.161 1.0586 2.1016 1.0586.94055 0 1.727-.35317 2.3594-1.0586.64796-.71923 1.0507-1.6871 1.2109-2.9043s.01118-2.1774-.44922-2.8828c-.44475-.71923-1.1375-1.0801-2.0781-1.0801zm12.279.02148c-.55327 0-1.0442.10307-1.4727.31055-.41279.19364-.76618.47045-1.0625.83008-.2945.3458-.53068.76195-.70508 1.2461-.1744.48414-.29631 1.0015-.36914 1.5547-.16571 1.2587.01549 2.2342.54688 2.9258.5332.67776 1.32 1.0176 2.3574 1.0176.52561 0 .96316-.021 1.3145-.0625.36692-.05533.65064-.11069.85156-.16602l.89844-6.8262c-.20965-.19369-.52246-.38078-.94141-.5606s-.89237-.26953-1.418-.26953zm67.594.02148c-1.0374 0-1.8827.33787-2.5391 1.0156-.6425.67776-1.038 1.5769-1.1855 2.6973-.0819.62243-.0763 1.155.0176 1.5977.1077.44262.27348.80914.49804 1.0996.2384.29047.52202.50621.84961.64453.34142.13832.69881.20703 1.0723.20703.51178 0 .99049-.06871 1.4375-.20703.44881-.15215.81147-.32589 1.0859-.51953l.83008-6.3066c-.18636-.05533-.44302-.10499-.76953-.14648-.31084-.05533-.74363-.08203-1.2969-.08203zm-117.02 3.1074 1.1836.002c.65107 0 1.1836.0075 1.1836.01758 0 .0101-.06271.48645-.13867 1.0586-.16491 1.2419-.38428 2.9093-.61914 4.7031-.09461.7225-.23428 1.7853-.31055 2.3633-.07629.57791-.15844 1.2108-.18359 1.4062-.02515.19548-.0532.40178-.0625.45703l-.01758.09961h-2.377l.01563-.07031c.0086-.03829.05754-.39544.10938-.79492.12213-.9408.39544-3.0126.57031-4.3262.1544-1.1598.43058-3.2615.56055-4.2578l.08594-.6582zm70.16 1.209c-.29047 1e-6-.60398.01905-.94141.06055-.3236.0415-.63289.13317-.92773.27148-.27919.12448-.5236.30392-.73438.53906-.20895.22131-.33755.51912-.38672.89258-.09105.69159.06646 1.1745.47266 1.4512.40802.2628.99123.39453 1.752.39453.45645-1e-6.85944-.0077 1.207-.02148.36327-.02766.66578-.06771.9082-.12305l.42383-3.2168c-.12921-.06916-.35139-.12452-.66406-.16602-.29702-.05533-.66673-.08203-1.1094-.08203zm70.695 2.4883c.42878 0 .75033.13938.96289.41602.21255.27664.2933.60115.24414.97461-.0492.37346-.2166.69797-.50195.97461-.2854.27664-.64153.41602-1.0703.41602-.42878 0-.75033-.13938-.96289-.41602-.21254-.27664-.29331-.60115-.24414-.97461.0491-.37346.21653-.69797.50195-.97461.2854-.27664.64152-.41602 1.0703-.41602z"/>
  <path d="m236.86 12c-1.4524 0-2.5678.37989-3.3457 1.1406-.77609.74695-1.2534 1.8121-1.4356 3.1953l-1.5488 11.764h1.9297l1.207-9.1699h4.1484l.21289-1.6172h-4.1484l.12304-.93359c.10926-.82993.37547-1.4885.79883-1.9727.42517-.49795 1.0872-.74609 1.9863-.74609.37345 0 .68575.03436.93945.10352.25553.05533.4567.11069.60156.16602l.48829-1.6602c-.14486-.05533-.3861-.11069-.72461-.16602-.33672-.06916-.7483-.10352-1.2324-.10352zm29.627 0-1.9727.33203-.71875 5.457c-.21508-.15215-.55336-.31253-1.0156-.47852-.44842-.16598-.98304-.24805-1.6055-.24805-.77458 0-1.4858.13742-2.1309.41406-.63117.27662-1.1855.66415-1.666 1.1621-.48052.49796-.87709 1.0936-1.1894 1.7852-.29853.69159-.50401 1.4513-.61328 2.2812-.11471.87139-.0936 1.6598.0625 2.3652.17175.69159.46063 1.2796.86719 1.7637.40658.48414.9254.85829 1.5547 1.1211.62928.2628 1.3595.39453 2.1895.39453.89908 8e-6 1.7022-.06301 2.4102-.1875.70798-.12449 1.291-.24856 1.75-.37305l2.0781-15.789zm-38.24.83008c-.3458 0-.65757.11838-.9375.35352-.26426.2213-.42165.52482-.47265.91211s.0243.69845.22851.93359c.21984.22131.50381.33203.84961.33203s.64978-.11072.91406-.33203c.27992-.23514.4451-.5463.4961-.93359s-.0321-.6908-.25195-.91211c-.20419-.23514-.48038-.35352-.82618-.35352zm13.338 0c-.3458 0-.65758.11642-.9375.35156-.26427.2213-.42165.52677-.47265.91406s.0243.69845.22851.93359c.21984.22131.50381.33203.84961.33203s.64978-.11072.91407-.33203c.2799-.23514.44704-.5463.49804-.93359s-.0341-.69275-.2539-.91406c-.2042-.23514-.48038-.35156-.82618-.35156zm-48.461.56055c-.94056 1.5e-5-1.8471.1661-2.7207.49805-.87359.33195-1.6629.8149-2.3691 1.4512-.70623.63624-1.3074 1.4247-1.8047 2.3652-.48164.92679-.80252 1.992-.96094 3.1953-.15844 1.2033-.13961 2.2762.0547 3.2168.20996.92678.56909 1.7075 1.0801 2.3438.51098.63625 1.161 1.1212 1.9473 1.4531.78623.33196 1.6836.49805 2.6934.49805.58097 0 1.1238-.03436 1.6309-.10352.50701-.06916.95364-.15318 1.3398-.25.38622-.09682.71094-.19224.97266-.28906.26354-.11066.44876-.20232.55469-.27148l-.30079-1.6582c-.32436.15215-.8034.32394-1.4375.51758-.63408.19364-1.4151.29102-2.3418.29102-.80223 0-1.4884-.13938-2.0606-.41602-.55839-.27664-1.0062-.66221-1.3418-1.1602-.33375-.51177-.55726-1.1207-.67187-1.8262-.10077-.70545-.0953-1.4881.0176-2.3457.11654-.88524.3323-1.6793.64648-2.3848.32983-.71925.74199-1.3282 1.2363-1.8262.49431-.49793 1.0638-.87782 1.707-1.1406.6432-.2628 1.3447-.39453 2.1055-.39453.35963 0 .70823.03436 1.0449.10352.35235.05533.66564.1317.94336.22852.29155.09682.54909.19224.77149.28906.22239.09682.39033.18849.5039.27148l.80078-1.6602c-.0757-.05532-.21708-.13934-.42383-.25-.20674-.11066-.48306-.22138-.82812-.33203-.33126-.11065-.73385-.20607-1.207-.28906-.45937-.08299-.98726-.125-1.582-.125zm27.477.58008-1.9746.33203-1.2676 9.627c-.0947.71928-.12178 1.3549-.084 1.9082.0535.53947.2001.99764.4414 1.3711.24128.37347.58451.65597 1.0293.84961.46043.17982 1.0579.26953 1.791.26953.62244 0 1.1853-.07636 1.6894-.22852.50233-.13832.85611-.25474 1.0625-.35156l-.16211-1.5977c-.1456.05532-.40731.15074-.78516.28906-.36216.12448-.83507.1875-1.416.1875-.33197 0-.61548-.04201-.85352-.125-.23805-.08299-.42787-.22042-.56836-.41406-.13866-.20748-.2262-.48428-.26367-.83008-.0356-.35964-.0183-.81017.0527-1.3496l.65429-4.9785h4.0879l.21289-1.6191h-4.0859l.43945-3.3398zm-17.502 3.0723c-.62244-7e-6-1.2454.11642-1.8711.35156-.62572.23515-1.1984.58831-1.7168 1.0586-.51838.47032-.96266 1.064-1.334 1.7832-.3695.70538-.61849 1.5358-.74414 2.4902-.10743.81608-.10275 1.5701.0137 2.2617.13208.67775.38661 1.2657.76367 1.7637.37704.49797.88588.89117 1.5254 1.1816.65517.27664 1.452.41602 2.3926.41602.7469 0 1.4204-.06871 2.0195-.20703.613-.13832 1.0454-.27005 1.2969-.39453l-.0566-1.6191c-.24971.11066-.61684.22903-1.1035.35352-.47101.11066-1.0468.16602-1.7246.16602-1.2033-1e-6-2.0504-.29016-2.541-.87109-.49065-.58096-.70321-1.4324-.63867-2.5527h7.3867c.0284-.11066.05-.22708.0664-.35156.0182-.13832.034-.24904.0449-.33203.24402-1.8534.0371-3.2298-.61914-4.1289-.65439-.91293-1.7078-1.3691-3.1602-1.3691zm46.541 0c-.62244-7e-6-1.2454.11642-1.8711.35156-.62572.23515-1.1984.58831-1.7168 1.0586-.51837.47032-.96266 1.064-1.334 1.7832-.3695.70538-.61849 1.5358-.74414 2.4902-.10744.81608-.10277 1.5701.0137 2.2617.13207.67775.38661 1.2657.76367 1.7637.37703.49797.88587.89117 1.5254 1.1816.65517.27664 1.452.41602 2.3926.41602.74689 0 1.4204-.06871 2.0195-.20703.61301-.13832 1.0454-.27005 1.2969-.39453l-.0567-1.6191c-.24972.11066-.61684.22903-1.1035.35352-.47101.11066-1.0468.16602-1.7246.16602-1.2033 2.1e-5-2.0504-.29014-2.541-.87109-.49064-.58096-.7032-1.4324-.63867-2.5527h7.3867c.0284-.11066.05-.22708.0664-.35156.0182-.13832.034-.24904.0449-.33203.24401-1.8534.0371-3.2298-.61914-4.1289-.6544-.91293-1.7078-1.3691-3.1602-1.3691zm-35.281.04102c-.84377 0-1.6147.07636-2.3125.22852-.69596.13832-1.2834.2891-1.7617.45508l-1.3594 10.332h1.9297l1.1934-9.0664c.1143-.02766.34822-.07537.70312-.14453.37053-.08299.73608-.125 1.0957-.125.55328 0 .99716.04201 1.332.125.35052.06916.59733.13022.74219.18555l.55469-1.6797c-.0794-.02767-.2086-.05437-.38477-.08203-.16052-.0415-.34108-.07781-.54492-.10547-.20201-.04149-.41332-.0682-.63281-.08203-.20383-.02766-.38871-.04102-.55469-.04102zm12.346.22852-1.4219 10.789h1.9297l1.4199-10.789zm13.338 0-1.4199 10.787h1.9277l1.4219-10.787zm-37.18 1.3691c.78843 0 1.3664.2825 1.7344.84961.38364.55325.5114 1.2653.38282 2.1367h-5.3535c.0907-.37346.2227-.73998.39453-1.0996.18567-.35963.41398-.67649.68555-.95312.27156-.27664.58368-.49808.9375-.66406.3695-.17982.77613-.26953 1.2188-.26953zm46.541 0c.78843 0 1.3664.2825 1.7344.84961.38364.55325.5114 1.2653.38281 2.1367h-5.3535c.0907-.37346.22269-.73998.39453-1.0996.18566-.35963.41398-.67649.68554-.95312.27157-.27664.58369-.49808.9375-.66406.3695-.17982.77613-.26953 1.2188-.26953zm11.795.08203c.52558 0 .99901.08972 1.418.26953.41899.17981.73372.3669.94336.56055l-.89843 6.8262c-.20093.05533-.4866.11069-.85352.16602-.35129.0415-.78885.0625-1.3144.0625-1.0374 0-1.8223-.33982-2.3555-1.0176-.53138-.69159-.71454-1.6671-.54883-2.9258.0728-.55321.1967-1.0705.37109-1.5547.1744-.48414.40863-.9003.70313-1.2461.29631-.35963.64971-.63644 1.0625-.83008.42847-.20748.91938-.31055 1.4727-.31055z" stroke-width="1.0604"/>
 </g>
</svg>
