<?xml version="1.0" encoding="UTF-8"?>
<svg version="1.1" viewBox="0 0 24 24" xmlns="http://www.w3.org/2000/svg">
 <path d="m2.7937 11.206v2.1429h1.8254v8.6508h14.683v-8.6508h1.9048v-2.1429zm7.9317 5.373h0.73651v-0.36825h-0.73651v-0.48016h0.73651v-0.36825h-0.73651v-0.47937h0.73651v-0.36825h-0.73095c0.01667-0.61984 0.52381-1.1214 1.1492-1.1214h0.23413c0.6254 0 1.1325 0.50159 1.1548 1.1214h-0.75873v0.36825h0.76428v0.47937h-0.76428v0.3627h0.76428v0.48016h-0.76428v0.36825h0.75873v0.0333c0 0.63651-0.51825 1.1556-1.1548 1.1556h-0.23413c-0.63651 0-1.1548-0.51905-1.1548-1.15zm3.3254 0.0952c0 0.98175-0.74206 1.7849-1.6968 1.9024v0.76429l0.58651 0.49683h0.2619v0.30158h-2.4048v-0.30158h0.26746l0.56905-0.48016v-0.78651c-0.94841-0.12302-1.6849-0.92619-1.6849-1.9024v-0.63651h0.3627v0.63651c0 0.85873 0.69762 1.5619 1.5627 1.5619h0.25079c0.85952 0 1.5627-0.69762 1.5627-1.5619v-0.63651h0.3627zm0.17143-10.706h-4.5238c-1.2373 0-2.2222 1.0643-2.2222 2.3016v2.5397h1.5873v-2.1428c0-0.13572 0.10238-0.2381 0.2381-0.2381 0.13572 0 0.2381 0.10238 0.2381 0.2381v2.1428h4.8413v-2.1428c0-0.13572 0.10238-0.2381 0.2381-0.2381 0.13571 0 0.2381 0.10238 0.2381 0.2381v2.1428h1.5873v-2.5397c0-1.2294-0.99286-2.3016-2.2222-2.3016zm-2.2619-3.9682c-0.98968 0-1.796 0.80635-1.796 1.796 0 0.98889 0.79841 1.7952 1.796 1.7952 0.98175 0 1.7952-0.80635 1.7952-1.7952 0-0.98968-0.80556-1.796-1.7952-1.796z" stroke-width=".079365"/>
</svg>
