<svg viewBox="0 0 24 24" xmlns="http://www.w3.org/2000/svg"><path d="M2.794 11.206v2.143h1.825v8.65h14.683v-8.65h1.905v-2.143zm7.931 5.373h.737v-.368h-.737v-.48h.737v-.369h-.737v-.479h.737v-.368h-.731a1.152 1.152 0 0 1 1.15-1.122h.233a1.16 1.16 0 0 1 1.155 1.122h-.759v.368h.765v.48h-.765v.362h.765v.48h-.765v.368h.76v.034c0 .636-.52 1.155-1.156 1.155h-.234a1.156 1.156 0 0 1-1.155-1.15zm3.326.095c0 .982-.742 1.785-1.697 1.903v.764l.587.497h.261v.301h-2.404v-.301h.267l.57-.48v-.787a1.927 1.927 0 0 1-1.686-1.902v-.637h.363v.637c0 .858.698 1.562 1.563 1.562h.25c.86 0 1.563-.698 1.563-1.562v-.637h.363zm.171-10.706H9.698c-1.237 0-2.222 1.064-2.222 2.302v2.54h1.588V8.666c0-.136.102-.238.238-.238.135 0 .238.102.238.238v2.143h4.841V8.666c0-.136.102-.238.238-.238s.238.102.238.238v2.143h1.588V8.27c0-1.23-.993-2.302-2.223-2.302zM11.96 2c-.99 0-1.796.806-1.796 1.796 0 .989.799 1.795 1.796 1.795.982 0 1.796-.806 1.796-1.795 0-.99-.806-1.796-1.796-1.796z"/></svg>