<?xml version="1.0" encoding="UTF-8"?>
<svg version="1.1" viewBox="0 0 24 24" xmlns="http://www.w3.org/2000/svg">
 <style type="text/css">.st0{fill:#FFFFFF;}
	.st1{fill:#8DC742;}</style>
 <path d="m2.5072 10.507c-0.28098 0-0.50718 0.2262-0.50718 0.50718v1.971c0 0.28098 0.2262 0.50718 0.50718 0.50718h18.985c0.28098 0 0.50718-0.2262 0.50718-0.50718v-1.971c0-0.28098-0.2262-0.50718-0.50718-0.50718zm12.685 0.12128h6.3003c0.21587 0 0.38591 0.17004 0.38591 0.38591v1.971c0 0.21587-0.17004 0.38591-0.38591 0.38591h-6.6589l0.3586-2.7428zm-12.151 0.64686 0.049813 0.04981 0.049813 0.04967-0.016415 0.01811c-0.078614 0.08662-0.12806 0.19446-0.1435 0.31261-0.00516 0.03952-0.00349 0.12012 0.00325 0.15793 0.020548 0.11518 0.071505 0.21901 0.14434 0.29392l0.013585 0.01387-0.049247 0.04925c-0.027064 0.02708-0.049752 0.04923-0.050521 0.04925-0.00234 5.5e-5 -0.028764-0.02866-0.049247-0.05363-0.051844-0.06322-0.094706-0.14148-0.12029-0.21949-0.018495-0.05641-0.029092-0.10602-0.034105-0.15962-0.00389-0.0416-0.0016-0.12878 0.00439-0.16586 0.024113-0.14919 0.085772-0.27568 0.18708-0.38392l0.011038-0.01189zm1.2121 0 0.013444 0.01415c0.047617 0.05004 0.088134 0.1089 0.12071 0.17533 0.035983 0.07338 0.057962 0.14824 0.067361 0.22982 0.00522 0.04526 0.00341 0.14005-0.0034 0.18382-0.020099 0.12919-0.076592 0.25281-0.16047 0.3511-0.00894 0.01047-0.021035 0.02374-0.027029 0.02958l-0.010896 0.01061-0.099343-0.09963 0.013302-0.01344c0.017047-0.01707 0.054435-0.06579 0.069342-0.09057 0.028105-0.04671 0.051307-0.10279 0.064954-0.1568 0.036213-0.14327 0.013615-0.29576-0.062832-0.42496-0.016527-0.02793-0.047707-0.06969-0.069058-0.09255l-0.015708-0.01698 0.099626-0.09948zm3.2741 0-0.15057 1.144c-0.033258 9e-3 -0.075498 0.01801-0.1268 0.02703-0.051297 9e-3 -0.10962 0.01359-0.17477 0.01358-0.060133 0-0.1129-0.0095-0.1585-0.02858-0.045594-0.01904-0.083186-0.04615-0.11265-0.08123-0.029459-0.03508-0.05039-0.07768-0.062832-0.12779-0.01131-0.05111-0.01284-0.10823-0.00453-0.17137 0.00792-0.06013 0.022664-0.11518 0.044294-0.16528 0.022632-0.05011 0.051366-0.09326 0.086185-0.12935 0.034815-0.03608 0.075121-0.06416 0.12086-0.0842 0.046735-0.02004 0.098126-0.03 0.15425-0.03 0.045098 0 0.083975 0.0059 0.11646 0.01797 0.033493 0.01203 0.058003 0.02365 0.073585 0.03467l0.052077-0.39539 0.14293-0.02406zm3.0602 0.06014c0.02505 0 0.04507 0.0086 0.05986 0.02561 0.01593 0.01604 0.02195 0.03803 0.01825 0.06609s-0.01566 0.05061-0.03594 0.06764c-0.01915 0.01603-0.04117 0.02406-0.06623 0.02406s-0.04563-8e-3 -0.06156-0.02406c-0.01479-0.01704-0.02039-0.03958-0.0167-0.06764 0.0037-0.02806 0.01524-0.05005 0.03439-0.06609 0.02028-0.01704 0.04287-0.02561 0.06793-0.02561zm2.6388 0.04061c0.10924 0 0.18752 0.02545 0.23491 0.07656 0.04852 0.05011 0.06676 0.12134 0.05462 0.21355-0.0047 0.03608-0.01685 0.07107-0.03637 0.10515-0.01838 0.03307-0.04178 0.06627-0.07019 0.09934-0.02827 0.03207-0.05953 0.06402-0.09382 0.09609-0.03416 0.03107-0.06829 0.06164-0.10231 0.0917-0.01928 0.01704-0.04198 0.03709-0.06807 0.06014-0.02508 0.02305-0.04926 0.04712-0.0726 0.07217-0.02335 0.02505-0.0435 0.04912-0.06057 0.07217-0.01606 0.02305-0.02521 0.04311-0.02745 0.06014h0.47945l-0.01557 0.11873h-0.63143c-2.17e-4 -6e-3 7.3e-5 -0.01196 8.48e-4 -0.01797 7.9e-4 -6e-3 0.0016-0.01155 0.0023-0.01656 0.0062-0.0471 0.01945-0.09067 0.03977-0.13076 0.02144-0.04109 0.04704-0.07968 0.07684-0.11576 0.0298-0.03608 0.06236-0.07024 0.09765-0.10231 0.03529-0.03207 0.06999-0.06305 0.10401-0.09312 0.02822-0.02405 0.05487-0.04771 0.07995-0.07076 0.02622-0.02405 0.04927-0.04757 0.06934-0.07062 0.02121-0.02405 0.03847-0.04853 0.0518-0.07359 0.01432-0.02506 0.02333-0.05161 0.02703-0.07967 4e-3 -0.03007 0.0023-0.05565-5e-3 -0.0767-0.0062-0.02105-0.01638-0.03861-0.03057-0.05264s-0.03195-0.02399-0.05321-0.03c-0.02012-7e-3 -0.04218-0.01061-0.06623-0.01061-0.02906 0-0.05612 4e-3 -0.08123 0.01203-0.02511 8e-3 -0.048 0.01756-0.06849 0.02859-0.02036 0.01002-0.03775 0.02109-0.05236 0.03311-0.01448 0.01102-0.02573 0.01946-0.03354 0.02547l-0.05604-0.0992c0.01034-0.01002 0.0254-0.02205 0.04528-0.03609 0.02002-0.01503 0.04342-0.029 0.07019-0.04203s0.05633-0.02409 0.08859-0.03311c0.03226-9e-3 0.06638-0.01344 0.10246-0.01344zm1.2674 0c0.10924 0 0.18816 0.04702 0.23689 0.14123 0.04973 0.09421 0.06315 0.22851 0.04019 0.40289-0.02296 0.17438-0.07179 0.30869-0.14632 0.40289-0.07353 0.09421-0.16487 0.14137-0.27411 0.14137-0.10924 0-0.18872-0.04717-0.23845-0.14137-0.04873-0.09421-0.06159-0.22851-0.03863-0.40289 0.02296-0.17438 0.07123-0.30869 0.14476-0.40289 0.07883-0.10204 0.16643-0.14123 0.27567-0.14123zm-9.1098 0.01344c0.14632 0 0.25484 0.02808 0.32562 0.0842 0.071916 0.05512 0.10055 0.13783 0.08604 0.24807-0.00792 0.06013-0.025629 0.11173-0.053351 0.15482-0.026587 0.04209-0.062332 0.07666-0.10699 0.10373-0.043518 0.02606-0.095104 0.04515-0.15481 0.05717-0.059712 0.01203-0.12609 0.01797-0.19925 0.01797h-0.11576l-0.050803 0.38648h-0.1459l0.13514-1.0268c0.042409-0.01002 0.088888-0.01652 0.13939-0.01953 0.051639-4e-3 0.098575-0.0061 0.14066-0.0061zm4.6505 0.02859-0.03184 0.24198h0.29604l-0.01543 0.11731h-0.29604l-0.047549 0.36072c-0.00514 0.03909-0.0064 0.07173-0.00382 0.09779 0.00272 0.02506 0.00906 0.04511 0.019104 0.06014 0.010179 0.01403 0.023932 0.02399 0.041181 0.03 0.017247 6e-3 0.037931 0.0091 0.061983 0.0091 0.04209 0 0.07622-0.0046 0.10246-0.01358 0.02738-0.01002 0.04634-0.01694 0.05689-0.02094l0.01175 0.11576c-0.01495 7e-3 -0.04059 0.01545-0.07698 0.02547-0.03653 0.01102-0.07731 0.01656-0.12241 0.01656-0.053116 0-0.096409-0.0065-0.12977-0.01953-0.032227-0.01403-0.057096-0.0345-0.074578-0.06156-0.017483-0.02706-0.028108-0.06026-0.031982-0.09934-0.00274-0.04009-6.521e-4 -0.08614 0.00622-0.13826l0.091844-0.69752 0.14293-0.02406zm-5.9486 0.02491 0.019529 0.02208c0.10063 0.11353 0.13994 0.27667 0.10189 0.42298-0.019534 0.07514-0.055786 0.1425-0.10797 0.20038-0.00611 0.0068-0.011814 0.01258-0.012595 0.01288-7.76e-4 3.12e-4 -0.02271-0.02144-0.048822-0.0484-0.047399-0.04893-0.047546-0.04903-0.042879-0.05321 0.00771-0.0069 0.031974-0.03904 0.042171-0.05576 0.020747-0.034 0.037319-0.07978 0.043728-0.12085 0.00466-0.0299 0.00343-0.08883-0.00241-0.11533-0.012996-0.05898-0.037406-0.10698-0.080382-0.15793l-0.00877-0.01033 0.09651-0.09651zm-0.87613 0.0024c4.058e-4 -8.6e-5 7.652e-4 -7.2e-5 0.00113 0 9.774e-4 1.96e-4 0.00194 1e-3 0.00311 2e-3 0.0026 0.0022 0.024767 0.02383 0.049247 0.04811l0.044435 0.04415-0.013869 0.01514c-0.037486 0.04085-0.065416 0.09786-0.077693 0.15864-0.00608 0.03012-0.00555 0.09508 9.905e-4 0.12454 0.013099 0.05904 0.038394 0.1099 0.076983 0.15453l0.010896 0.01274-0.09538 0.09736-0.019812-0.02222c-0.062539-0.07056-0.10218-0.16132-0.11349-0.2594-0.00327-0.02837-0.00131-0.0965 0.00354-0.12326 0.011125-0.0614 0.030936-0.11534 0.060709-0.16472 0.016465-0.02731 0.026449-0.04078 0.049813-0.06779 0.012278-0.01419 0.01655-0.01918 0.019387-0.01981zm11.268 0.05392c-0.03808 0-0.07167 0.01148-0.10076 0.03453-0.02896 0.02205-0.05395 0.0522-0.07501 0.09029-0.02005 0.03808-0.03692 0.08262-0.05066 0.13373-0.01274 0.05111-0.0229 0.10519-0.03043 0.16231-0.0075 0.05712-0.0116 0.11135-0.01231 0.16246 2.89e-4 0.05111 0.0054 0.09565 0.01543 0.13373 0.01102 0.03808 0.02806 0.06865 0.05109 0.0917 0.02315 0.02205 0.05376 0.03311 0.09184 0.03311s0.07151-0.01107 0.10047-0.03311c0.02909-0.02305 0.05368-0.05362 0.07373-0.0917 0.02105-0.03808 0.03792-0.08262 0.05066-0.13373 0.01374-0.05111 0.02446-0.10534 0.03198-0.16246 0.0075-0.05713 0.01118-0.11121 0.0109-0.16231 7.24e-4 -0.05111-0.0045-0.09565-0.01557-0.13373-0.01002-0.03808-0.02652-0.06823-0.04967-0.09029-0.02302-0.02305-0.05362-0.03453-0.0917-0.03453zm-9.0989 0.01797c-0.062136 0-0.11002 0.0015-0.1435 0.0045l-0.053775 0.40897h0.10968c0.050109 0 0.095684-3e-3 0.13656-0.0091 0.041011-7e-3 0.075969-0.01808 0.105-0.03311 0.030172-0.01604 0.054567-0.03761 0.073165-0.06467 0.018595-0.02706 0.030685-0.06164 0.036227-0.10373 0.00528-0.04009 0.00157-0.07314-0.011038-0.0992-0.011602-0.02606-0.029828-0.04653-0.054907-0.06156-0.023946-0.01604-0.053172-0.0271-0.087453-0.03311-0.034284-6e-3 -0.070868-0.0091-0.10996-0.0091zm-2.0095 0.08406 0.028302 0.0283 0.028444 0.02816-0.00566 0.0088c-0.04205 0.0666-0.042417 0.14406-0.00113 0.21086l0.00453 0.0074-0.027595 0.02788c-0.015162 0.01534-0.028252 0.02788-0.029152 0.02788-0.00281 0-0.026296-0.03657-0.033114-0.05165-0.00918-0.02031-0.017649-0.04853-0.021793-0.07231-0.00481-0.02759-0.00315-0.07998 0.0034-0.10613 0.00909-0.03629 0.029872-0.08056 0.048114-0.10246l0.00566-0.0067zm0.55643 0.0011c0.00227 0 0.018954 0.02377 0.027029 0.03849 0.037547 0.06844 0.043827 0.15253 0.01684 0.22657-0.00741 0.02034-0.021416 0.04705-0.03269 0.06241-0.00432 0.0059-0.00851 0.01069-0.00934 0.01061-8.195e-4 -7.3e-5 -0.013739-0.01291-0.028586-0.02844l-0.026887-0.0283 0.00962-0.01698c0.034075-0.05963 0.032135-0.14211-0.00467-0.19628-0.00322-0.0047-0.0058-0.01023-0.0058-0.01217 0-0.0032 0.051377-0.0559 0.054482-0.0559zm-0.27326 0.015c0.013753-3.4e-5 0.027488 0.0013 0.037359 0.0038 0.057054 0.01472 0.10136 0.05908 0.11548 0.11548 0.00532 0.02125 0.00352 0.06541-0.00354 0.08519-0.017454 0.04889-0.05498 0.08607-0.10189 0.1009-0.01149 0.0036-0.022902 0.0051-0.042596 0.0057-0.030706 9.48e-4 -0.049556-0.0029-0.073448-0.015-0.078193-0.03966-0.11007-0.13239-0.071748-0.20902 0.020447-0.04087 0.058743-0.0718 0.10274-0.08307 0.010139-0.0026 0.02389-0.0039 0.037643-4e-3zm2.6182 0.02307c0.053117 0 0.10089 0.0101 0.14335 0.03014 0.042592 0.01904 0.077541 0.04657 0.10486 0.08264 0.028323 0.03608 0.048125 0.07965 0.059436 0.13076 0.011443 0.05011 0.013143 0.10571 0.00509 0.16684-0.00818 0.06214-0.02461 0.11829-0.049247 0.1684-0.024636 0.05011-0.05586 0.09326-0.093684 0.12935-0.03682 0.03608-0.079056 0.06416-0.1268 0.0842-0.047605 0.01904-0.098017 0.02844-0.15113 0.02844-0.053117 0-0.1009-0.0094-0.1435-0.02844-0.042459-0.02004-0.077954-0.04812-0.10628-0.0842-0.02732-0.03608-0.04672-0.07923-0.058162-0.12935-0.011442-0.05011-0.012992-0.10627-0.00481-0.1684 0.00805-0.06113 0.024327-0.11673 0.048964-0.16684 0.024769-0.05111 0.055589-0.09468 0.092409-0.13076 0.037822-0.03608 0.080606-0.0636 0.12821-0.08264 0.047737-0.02004 0.098162-0.03014 0.15128-0.03014zm1.7798 0c0.035077 0 0.069729 3e-3 0.10401 0.0091 0.034284 6e-3 0.066582 0.01556 0.096938 0.02859l-0.047124 0.11873c-0.019727-0.01002-0.043346-0.01804-0.070615-0.02406-0.026267-6e-3 -0.054832-0.0091-0.085895-0.0091-0.078165 0-0.1415 0.02462-0.19005 0.07373-0.047555 0.04911-0.077599 0.12075-0.090004 0.21496-0.00554 0.04209-0.0061 0.08068-0.0017 0.11576 0.0054 0.03508 0.016511 0.06509 0.033255 0.09014 0.017748 0.02506 0.041666 0.0447 0.071889 0.05873 0.030354 0.01303 0.068669 0.01953 0.11477 0.01953 0.037081 0 0.071044-0.0036 0.10203-0.01061 0.030988-7e-3 0.055493-0.01448 0.073585-0.0225l0.0041 0.11718c-0.00868 5e-3 -0.020818 0.01013-0.036511 0.01514-0.01556 4e-3 -0.033064 0.0075-0.052502 0.01047-0.019569 4e-3 -0.040519 0.0071-0.062832 0.0091-0.021442 3e-3 -0.042222 0.0045-0.062266 0.0045-0.06314 0-0.11742-0.0101-0.16288-0.03014-0.044464-0.02004-0.08078-0.04812-0.10911-0.0842-0.02732-0.03608-0.045762-0.07868-0.055332-0.12779-0.00944-0.05011-0.010181-0.10515-0.00226-0.16528 0.00792-0.06013 0.023631-0.11532 0.047265-0.16543 0.024636-0.05011 0.055305-0.09312 0.092126-0.1292 0.036951-0.03708 0.079896-0.06571 0.12864-0.08576 0.049874-0.02105 0.10335-0.03156 0.16047-0.03156zm0.62082 1.45e-4c0.056123 0 0.1023 0.0075 0.1384 0.0225 0.037238 0.01403 0.065561 0.03464 0.085048 0.0617 0.020622 0.02606 0.033493 0.05759 0.038633 0.09467 0.00527 0.03608 0.00496 0.07619-8.492e-4 0.12029l-0.064247 0.48851c-0.01229 2e-3 -0.029784 5e-3 -0.05236 0.0091-0.021442 3e-3 -0.04585 0.0061-0.073303 0.0091s-0.057385 0.0055-0.089721 0.0075c-0.031464 3e-3 -0.062755 0.0045-0.093822 0.0045-0.044096 0-0.083968-0.0046-0.11986-0.01359-0.035891-9e-3 -0.066157-0.02299-0.090714-0.04203-0.02442-0.02004-0.042115-0.04619-0.052926-0.07826s-0.013155-0.07066-0.00722-0.11576c0.00567-0.04309 0.019063-0.08016 0.04019-0.11123 0.02213-0.03107 0.049506-0.0561 0.082077-0.07514 0.032573-0.01904 0.06939-0.03315 0.11066-0.04217 0.041274-9e-3 0.083975-0.01344 0.12807-0.01344 0.01403 0 0.028534 9.68e-4 0.043304 3e-3 0.014901 1e-3 0.028548 0.0031 0.04118 0.0061 0.013766 2e-3 0.02562 0.0039 0.035378 0.0059 0.00976 2e-3 0.016502 0.0035 0.020378 0.0045l0.00524-0.03906c0.00303-0.02305 0.00352-0.0456 0.00141-0.06764-0.00198-0.02305-0.00846-0.04311-0.019246-0.06014-0.010654-0.01804-0.026808-0.03215-0.048539-0.04217-0.020597-0.01102-0.048972-0.01642-0.085048-0.01642-0.046101 0-0.08712 0.0035-0.12312 0.01047-0.034866 6e-3 -0.061287 0.01251-0.079251 0.01953l-0.00127-0.11576c0.019095-8e-3 0.050098-0.01548 0.093119-0.0225 0.043147-8e-3 0.089294-0.01203 0.1384-0.01203zm0.76969 0c0.022047 0 0.043869 0.0015 0.06552 0.0045 0.021785 2e-3 0.041913 0.0049 0.060427 0.0089 0.018646 3e-3 0.034755 0.0066 0.048256 0.01061 0.014505 4e-3 0.025635 0.0075 0.033256 0.01047l-0.041464 0.12029c-0.013977-8e-3 -0.036487-0.01604-0.067502-0.02406-0.030882-9e-3 -0.068819-0.01359-0.11392-0.01359-0.039085 0-0.074252 8e-3 -0.10543 0.02406-0.031043 0.01503-0.048714 0.0391-0.053067 0.07217-0.00224 0.01704-0.00119 0.03211 0.00312 0.04514 0.0053 0.01303 0.013753 0.02506 0.025331 0.03609 0.012711 0.01002 0.028409 0.01957 0.047265 0.02859 0.018856 9e-3 0.041609 0.01842 0.068351 0.02844 0.035234 0.01403 0.066464 0.02814 0.093684 0.04217 0.027347 0.01303 0.049974 0.02852 0.067643 0.04656 0.018671 0.01804 0.031748 0.04017 0.039341 0.06623 0.00773 0.02506 0.00913 0.05603 0.00425 0.09312-0.0095 0.07216-0.04374 0.1268-0.10274 0.16387-0.057999 0.03708-0.13655 0.05562-0.23576 0.05562-0.069153 0-0.12255-0.0059-0.16005-0.01797-0.037631-0.01102-0.063036-0.0196-0.076273-0.02562l0.041314-0.1202c0.015244 6e-3 0.03967 0.015 0.073165 0.02703 0.033493 0.01203 0.079287 0.01811 0.13741 0.01811 0.057127 0 0.10017-0.0075 0.1292-0.0225 0.030041-0.01503 0.047298-0.0391 0.051652-0.07217 0.00449-0.03407-0.00544-0.06118-0.029859-0.08123-0.02442-0.02005-0.066118-0.04259-0.12496-0.06764-0.028483-0.01203-0.055885-0.02406-0.08236-0.03609-0.025343-0.01303-0.047012-0.02811-0.064813-0.04514-0.017801-0.01704-0.031048-0.0375-0.039907-0.06156-0.00886-0.02405-0.010986-0.05365-0.00637-0.08873 0.0091-0.06915 0.041821-0.12379 0.098213-0.16387 0.056522-0.04109 0.12889-0.06156 0.21708-0.06156zm1.7283 3e-3c0.06214 0 0.11257 9e-3 0.15128 0.02703 0.03885 0.01704 0.06819 0.04166 0.08802 0.07373 0.02096 0.03107 0.03357 0.06855 0.03778 0.11265 0.0042 0.04409 0.0029 0.09278-0.0041 0.1459l-0.05774 0.43898h-0.13982l0.05378-0.40897c0.0063-0.0481 0.0082-0.08919 0.0057-0.12326-0.0015-0.03407-0.0084-0.0616-0.02066-0.08264s-0.03033-0.03612-0.0542-0.04514c-0.02374-0.01002-0.05405-0.015-0.09113-0.015-0.01503 0-0.03067 5.58e-4 -0.04684 0.0016-0.01617 1e-3 -0.03197 0.0024-0.04726 0.0044-0.01416 1e-3 -0.02733 0.0025-0.03962 0.0045-0.01129 2e-3 -0.01948 0.0035-0.02462 0.0045l-0.08689 0.66002h-0.13982l0.09991-0.75926c0.03313-8e-3 0.07688-0.0166 0.13119-0.02562 0.0543-9e-3 0.11595-0.01344 0.1851-0.01344zm0.88699 0c0.06514 0 0.12119 5e-3 0.16798 0.015 0.04792 9e-3 0.08784 0.01745 0.11986 0.02547l-0.09184 0.69752c-0.01583 0.12026-0.05838 0.20754-0.12764 0.26166-0.06926 0.05412-0.16694 0.08108-0.29322 0.08108-0.04911 0-0.09522-0.0039-0.13826-0.01189-0.04204-8e-3 -0.07835-0.01756-0.10896-0.02859l0.0416-0.12184c0.02661 0.01102 0.05932 0.02057 0.09835 0.02858 0.0399 9e-3 0.08199 0.01359 0.12609 0.01359 0.08319 0 0.14495-0.0166 0.18538-0.04967 0.04143-0.03307 0.06692-0.08563 0.07642-0.15778l0.0044-0.03311c-0.01308 8e-3 -0.03807 0.01853-0.07486 0.03156-0.03566 0.01203-0.07659 0.01811-0.1227 0.01811-0.0471 0-0.09065-0.0076-0.13076-0.02264-0.03911-0.01503-0.07222-0.03799-0.0992-0.06906-0.02685-0.03207-0.04618-0.07177-0.05802-0.11887s-0.01339-0.10312-0.0048-0.16826c0.0075-0.05713 0.0229-0.10927 0.04613-0.15637 0.02337-0.0481 0.05331-0.08918 0.08986-0.12326 0.03769-0.03508 0.08129-0.06218 0.1309-0.08123 0.04974-0.02004 0.10418-0.03 0.16331-0.03zm-1.5807 0.01656h0.13982l-0.10288 0.78172h-0.13982zm-4.2212 0.10359c-0.068151 0-0.1257 0.02614-0.17265 0.07826-0.045814 0.05111-0.074571 0.12068-0.086185 0.20887-0.011615 0.08819-0.00123 0.15832 0.030991 0.21043 0.033358 0.05111 0.08412 0.0767 0.15227 0.0767 0.068148 0 0.12513-0.02559 0.17095-0.0767 0.046948-0.05211 0.076128-0.12224 0.087736-0.21043 0.011607-0.08819 8.101e-4 -0.15776-0.032548-0.20887-0.032224-0.05211-0.082418-0.07826-0.15057-0.07826zm0.88968 0.0016c-0.040087 0-0.075658 0.0075-0.1067 0.0225-0.029909 0.01403-0.055514 0.03409-0.076983 0.06014-0.021338 0.02505-0.03845 0.05521-0.051087 0.09029-0.012636 0.03508-0.021469 0.07256-0.026746 0.11264-0.012006 0.0912 0.00112 0.16188 0.039624 0.21199 0.038633 0.04911 0.095641 0.07373 0.17081 0.07373 0.038083 0 0.069786-0.0015 0.095242-0.0045 0.026585-4e-3 0.047142-8e-3 0.0617-0.01203l0.065096-0.49459c-0.01519-0.01403-0.037855-0.02759-0.06821-0.04062s-0.064657-0.01953-0.10274-0.01953zm4.8975 0.0016c-0.07517 0-0.13641 0.02448-0.18397 0.07359-0.04655 0.04911-0.07521 0.11425-0.0859 0.19543-0.0059 0.0451-0.0055 0.08368 0.0013 0.11576 0.0078 0.03207 0.01982 0.05863 0.03608 0.07967 0.01727 0.02105 0.03782 0.03668 0.06156 0.0467 0.02474 0.01002 0.05063 0.015 0.07769 0.015 0.03708 0 0.07177-5e-3 0.10415-0.015 0.03252-0.01102 0.05879-0.02361 0.07868-0.03764l0.06014-0.45694c-0.0135-4e-3 -0.0321-0.0076-0.05576-0.01061-0.02252-4e-3 -0.05388-0.0059-0.09397-0.0059zm-8.4787 0.22515 0.085758 1.45e-4c0.047173 0 0.085758 5.43e-4 0.085758 0.0013 0 7.32e-4 -0.00454 0.03525-0.010047 0.0767-0.011949 0.08998-0.027843 0.21079-0.04486 0.34076-0.00685 0.05235-0.016975 0.12935-0.022501 0.17123-0.00553 0.04187-0.01148 0.08773-0.013302 0.10189-0.00182 0.01416-0.00385 0.02911-0.00453 0.03311l-0.00127 0.0072h-0.17223l0.00113-0.0051c6.231e-4 -0.0028 0.00417-0.02865 0.00793-0.0576 0.00885-0.06817 0.028652-0.21828 0.041322-0.31346 0.011187-0.08403 0.031198-0.23631 0.040615-0.3085l0.00623-0.04769zm5.0834 0.0876c-0.021046 0-0.043761 0.0014-0.06821 0.0044-0.023446 3e-3 -0.045856 0.0096-0.067219 0.01967-0.020229 9e-3 -0.037937 0.02202-0.053209 0.03906-0.01514 0.01604-0.024457 0.03761-0.02802 0.06467-0.0066 0.05011 0.00482 0.0851 0.034247 0.10515 0.029563 0.01904 0.07182 0.02858 0.12694 0.02858 0.033072 0 0.062271-5.58e-4 0.087453-0.0016 0.026321-2e-3 0.048239-0.0049 0.065804-0.0089l0.030709-0.23307c-0.00936-5e-3 -0.02546-9e-3 -0.048114-0.01203-0.021521-4e-3 -0.048308-0.0059-0.080382-0.0059zm5.1222 0.18029c0.03107 0 0.05437 0.0101 0.06977 0.03014s0.02125 0.04356 0.01769 0.07062c-0.0036 0.02706-0.01569 0.05057-0.03637 0.07062-0.02068 0.02004-0.04648 0.03014-0.07755 0.03014s-0.05437-0.0101-0.06977-0.03014-0.02125-0.04356-0.01769-0.07062c0.0036-0.02706 0.01569-0.05057 0.03637-0.07062 0.02068-0.02004 0.04648-0.03014 0.07755-0.03014z" stroke-width=".072455"/>
 <path d="m19.018 11.275c-0.10523 0-0.18605 0.02752-0.24241 0.08264-0.05623 0.05412-0.09081 0.1313-0.10402 0.23152l-0.11222 0.85236h0.13982l0.08745-0.6644h0.30057l0.01543-0.11717h-0.30057l0.0089-0.06764c0.0079-0.06013 0.0272-0.10785 0.05788-0.14293 0.03081-0.03608 0.07877-0.05406 0.14392-0.05406 0.02706 0 0.04969 0.0025 0.06807 0.0075 0.01851 4e-3 0.03309 8e-3 0.04359 0.01203l0.03538-0.12029c-0.0105-4e-3 -0.02798-8e-3 -0.0525-0.01203-0.0244-5e-3 -0.05422-0.0075-0.08929-0.0075zm2.1466 0-0.14293 0.02406-0.05208 0.39539c-0.01558-0.01102-0.04009-0.02264-0.07359-0.03467-0.03249-0.01203-0.07123-0.01797-0.11633-0.01797-0.05612 0-0.10765 0.01-0.1544 0.03-0.04573 0.02004-0.0859 0.04812-0.12071 0.0842-0.03482 0.03608-0.06355 0.07924-0.08618 0.12935-0.02163 0.05011-0.03652 0.10515-0.04443 0.16528-0.0083 0.06314-0.0068 0.12026 0.0045 0.17137 0.01244 0.05011 0.03337 0.09271 0.06283 0.12779 0.02946 0.03508 0.06705 0.06219 0.11265 0.08123 0.04559 0.01904 0.0985 0.02859 0.15864 0.02859 0.06514 0 0.12333-0.0046 0.17463-0.01359 0.0513-9e-3 0.09354-0.01801 0.1268-0.02703l0.1506-1.144zm-2.7707 0.06014c-0.02505 0-0.04764 0.0086-0.06793 0.02561-0.01915 0.01603-0.03055 0.03803-0.03425 0.06609s0.0018 0.05061 0.01656 0.06764c0.01593 0.01603 0.0365 0.02406 0.06156 0.02406 0.02505 0 0.04708-8e-3 0.06623-0.02406 0.02028-0.01704 0.03225-0.03958 0.03595-0.06764s-0.0023-0.05005-0.01825-0.06609c-0.01479-0.01704-0.03481-0.02561-0.05986-0.02561zm0.9664 0c-0.02506 0-0.04765 0.0084-0.06793 0.02547-0.01915 0.01603-0.03055 0.03817-0.03425 0.06623s0.0018 0.05061 0.01656 0.06764c0.01593 0.01604 0.0365 0.02406 0.06156 0.02406s0.04708-8e-3 0.06623-0.02406c0.02028-0.01704 0.03239-0.03958 0.03608-0.06764 0.0037-0.02806-0.0025-0.05019-0.0184-0.06623-0.01479-0.01704-0.03481-0.02547-0.05986-0.02547zm-3.5112 0.04061c-0.06815 1e-6 -0.13383 0.01204-0.19713 0.03609-0.0633 0.02405-0.12048 0.05904-0.17165 0.10515-0.05117 0.0461-0.09473 0.10323-0.13076 0.17137-0.0349 0.06715-0.05815 0.14433-0.06962 0.23152-0.01148 0.08718-0.01012 0.16492 4e-3 0.23307 0.01521 0.06715 0.04123 0.12372 0.07826 0.16982 0.03702 0.0461 0.08412 0.08124 0.14109 0.10528 0.05697 0.02405 0.12198 0.03609 0.19515 0.03609 0.04209 0 0.08142-0.0025 0.11817-0.0075 0.03674-5e-3 0.0691-0.0111 0.09708-0.01811 0.02798-7e-3 0.05151-0.01393 0.07048-0.02094 0.01909-8e-3 0.03251-0.01466 0.04019-0.01967l-0.02179-0.12014c-0.0235 0.01102-0.05821 0.02347-0.10415 0.0375-0.04594 0.01403-0.10253 0.02109-0.16968 0.02109-0.05813 0-0.10784-0.0101-0.1493-0.03014-0.04046-0.02004-0.0729-0.04798-0.09722-0.08406-0.02418-0.03708-0.04038-0.0812-0.04868-0.13232-0.0073-0.05111-0.0069-0.10782 0.0013-0.16996 0.0084-0.06414 0.02408-0.12167 0.04684-0.17279 0.0239-0.05211 0.05376-0.09624 0.08958-0.13232 0.03582-0.03608 0.07708-0.0636 0.12368-0.08264 0.0466-0.01904 0.09743-0.02859 0.15255-0.02859 0.02606 0 0.05132 0.0025 0.07571 0.0075 0.02553 4e-3 0.04823 0.0095 0.06835 0.01656 0.02112 7e-3 0.03978 0.01393 0.0559 0.02094 0.01611 7e-3 0.02828 0.01366 0.03651 0.01967l0.05802-0.12029c-0.0055-4e-3 -0.01573-0.0101-0.03071-0.01811-0.01498-8e-3 -0.035-0.01604-0.06-0.02406-0.024-8e-3 -0.05317-0.01493-0.08745-0.02094-0.03328-6e-3 -0.07153-0.0091-0.11462-0.0091zm1.9908 0.04203-0.14307 0.02406-0.09184 0.69752c-0.0069 0.05212-0.0088 0.09817-0.0061 0.13826 0.0039 0.03909 0.0145 0.07228 0.03198 0.09934s0.04235 0.04753 0.07458 0.06156c0.03336 0.01303 0.07665 0.01953 0.12977 0.01953 0.0451 0 0.08588-0.0055 0.12241-0.01656 0.0364-0.01002 0.06203-0.01846 0.07698-0.02547l-0.01175-0.11576c-0.01055 4e-3 -0.02951 0.01092-0.05689 0.02094-0.02624 9e-3 -0.0605 0.01358-0.1026 0.01358-0.02405 0-0.04459-3e-3 -0.06184-0.0091-0.01725-6e-3 -0.031-0.01597-0.04118-0.03-0.01005-0.01503-0.01639-0.03509-0.0191-0.06014-0.0026-0.02606-0.0013-0.0587 0.0038-0.09779l0.04741-0.36072h0.29619l0.01542-0.11731h-0.29604l0.03184-0.24198zm-1.2681 0.2226c-0.0451 0-0.09023 0.0084-0.13557 0.02547-0.04534 0.01704-0.08683 0.04263-0.12439 0.0767-0.03756 0.03408-0.06975 0.07709-0.09665 0.1292-0.02677 0.05111-0.04481 0.11128-0.05392 0.18043-0.0078 0.05913-0.0074 0.11376 9.93e-4 0.16387 0.0096 0.04911 0.02801 0.09171 0.05533 0.12779 0.02732 0.03608 0.06419 0.06457 0.11052 0.08561 0.04747 0.02004 0.1052 0.03014 0.17336 0.03014 0.05412 0 0.10292-5e-3 0.14632-0.015 0.04442-0.01002 0.07574-0.01957 0.09397-0.02858l-0.0041-0.11731c-0.01809 8e-3 -0.04469 0.01659-0.07995 0.02561-0.03413 8e-3 -0.07585 0.01203-0.12496 0.01203-0.08718 0-0.14856-0.02102-0.18411-0.06311-0.03555-0.04209-0.05095-0.10378-0.04628-0.18496h0.5352c0.0021-8e-3 0.0036-0.01645 0.0048-0.02547 0.0013-0.01002 0.0025-0.01804 0.0033-0.02406 0.01768-0.13429 0.0027-0.23402-0.04486-0.29916-0.04741-0.06615-0.12374-0.0992-0.22897-0.0992zm3.3721 0c-0.0451 0-0.09023 0.0084-0.13557 0.02547-0.04534 0.01704-0.08683 0.04263-0.12439 0.0767-0.03756 0.03408-0.06975 0.07709-0.09665 0.1292-0.02677 0.05111-0.04481 0.11128-0.05392 0.18043-0.0078 0.05913-0.0074 0.11376 9.93e-4 0.16387 0.0096 0.04911 0.02801 0.09171 0.05533 0.12779 0.02732 0.03608 0.06419 0.06457 0.11052 0.08561 0.04747 0.02004 0.1052 0.03014 0.17336 0.03014 0.05412 0 0.10292-5e-3 0.14632-0.015 0.04442-0.01002 0.07575-0.01957 0.09397-0.02858l-0.0041-0.11731c-0.01809 8e-3 -0.04469 0.01659-0.07995 0.02561-0.03413 8e-3 -0.07585 0.01203-0.12496 0.01203-0.08718 1e-6 -0.14856-0.02102-0.18411-0.06311-0.03555-0.04209-0.05095-0.10378-0.04628-0.18496h0.5352c0.0021-8e-3 0.0036-0.01645 0.0048-0.02547 0.0013-0.01002 0.0025-0.01804 0.0033-0.02406 0.01768-0.13429 0.0027-0.23402-0.04486-0.29916-0.04742-0.06615-0.12374-0.0992-0.22897-0.0992zm-2.5563 3e-3c-0.06114 0-0.11699 0.0055-0.16755 0.01656-0.05043 0.01002-0.09299 0.02095-0.12764 0.03297l-0.09849 0.7486h0.13982l0.08647-0.65691c0.0083-2e-3 0.02523-0.0055 0.05094-0.01047 0.02685-6e-3 0.05333-0.0091 0.07939-0.0091 0.04009 0 0.07225 3e-3 0.09651 0.0091 0.0254 5e-3 0.04328 0.0094 0.05378 0.01344l0.04019-0.1217c-0.0058-2e-3 -0.01511-0.0039-0.02788-0.0059-0.01163-3e-3 -0.02471-0.0056-0.03948-0.0076-0.01464-3e-3 -0.02995-0.0049-0.04585-0.0059-0.01477-2e-3 -0.02816-3e-3 -0.04019-3e-3zm0.89453 0.01656-0.10302 0.78172h0.13982l0.10288-0.78172zm0.9664 0-0.10288 0.78157h0.13967l0.10302-0.78157zm-2.6939 0.0992c0.05712 0 0.099 0.02047 0.12567 0.06156 0.0278 0.04009 0.03705 0.09168 0.02774 0.15482h-0.38789c0.0066-0.02706 0.01614-0.05361 0.02859-0.07967 0.01345-0.02606 0.02999-0.04902 0.04967-0.06906s0.04229-0.03609 0.06793-0.04811c0.02677-0.01303 0.05623-0.01953 0.08831-0.01953zm3.3721 0c0.05713 0 0.099 0.02047 0.12567 0.06156 0.0278 0.04009 0.03705 0.09168 0.02774 0.15482h-0.38789c0.0066-0.02706 0.01613-0.05361 0.02859-0.07967 0.01345-0.02606 0.02999-0.04902 0.04967-0.06906s0.04229-0.03609 0.06793-0.04811c0.02677-0.01303 0.05623-0.01953 0.08831-0.01953zm0.85461 0.0059c0.03808 0 0.07238 0.0065 0.10274 0.01953 0.03036 0.01303 0.05316 0.02658 0.06835 0.04062l-0.0651 0.49459c-0.01456 4e-3 -0.03526 8e-3 -0.06184 0.01203-0.02545 3e-3 -0.05716 0.0045-0.09524 0.0045-0.07516 0-0.13203-0.02462-0.17067-0.07373-0.0385-0.05011-0.05177-0.12079-0.03977-0.21199 0.0053-0.04008 0.01425-0.07756 0.02689-0.11265 0.01264-0.03508 0.02961-0.06523 0.05094-0.09029 0.02147-0.02606 0.04707-0.04611 0.07698-0.06014 0.03104-0.01503 0.06661-0.0225 0.1067-0.0225z" stroke-width=".076831"/>
</svg>
