<svg version="1.1" viewBox="0 0 24 24" xmlns="http://www.w3.org/2000/svg">
 <path d="m6.1719 2.0039c-0.19686 0.017333-0.38952 0.086334-0.53906 0.19727-2.1933 1.6763-3.4884 3.9441-3.3887 6.7051 0.099697 2.6624 1.3947 5.2279 3.3887 6.707 0.19939 0.098603 0.39826 0.19531 0.59766 0.19531 0.29909 0 0.59944-0.09676 0.79883-0.39258 0.39879-0.49303 0.29926-1.085-0.19922-1.3809-1.5951-1.0847-2.5918-3.1568-2.5918-5.1289 1e-7 -2.0707 0.89696-3.8451 2.5918-5.127 0.49848-0.29582 0.49831-0.98644 0.19922-1.3809-0.18693-0.30814-0.52932-0.42342-0.85742-0.39453zm11.461 0c-0.2617 0.024652-0.51061 0.14802-0.66016 0.39453-0.29909 0.39442-0.29926 1.085 0.19922 1.3809 1.6948 1.2819 2.5918 3.0562 2.5918 5.127 0 1.9721-0.99665 4.0442-2.5918 5.1289-0.49848 0.29582-0.598 0.88783-0.19922 1.3809 0.19939 0.29581 0.49778 0.39258 0.79688 0.39258 0.19939 0 0.39826-0.096703 0.59766-0.19531 2.0936-1.4791 3.3906-4.0447 3.3906-6.707 0.089726-2.761-1.1973-5.0288-3.3906-6.7051-0.19939-0.14791-0.47267-0.22192-0.73438-0.19727zm-1.8887 2.9609c-0.25547 0.0098606-0.50697 0.11724-0.69141 0.31445-0.37884 0.39442-0.348 1.0238 0.050782 1.3887 1.2761 1.1734 1.386 3.1651-0.009766 4.4766-0.38882 0.38456-0.4101 1.006-0.03125 1.4004 0.37885 0.39442 1.0075 0.41572 1.4062 0.041016 2.2631-2.1299 2.0739-5.4346-0.009766-7.3574-0.19939-0.18735-0.45937-0.27353-0.71484-0.26367zm-7.4941 0.0058593c-0.25423-0.0098606-0.5135 0.075391-0.71289 0.25781-2.0837 1.9228-2.2729 5.2275-0.0097656 7.3574 0.39879 0.37471 1.0274 0.35341 1.4062-0.041016 0.37885-0.39442 0.35972-1.014-0.039063-1.3887-1.3958-1.3115-1.2779-3.3051-0.011719-4.4785 0.39879-0.3747 0.42963-0.99425 0.050781-1.3887-0.17945-0.20214-0.42937-0.3085-0.68359-0.31836zm3.75 1.791a2.1429 2.1429 0 0 0-2.1426 2.1426 2.1429 2.1429 0 0 0 0.99414 1.8086l-2.4238 11.287h2.1055l2.3984-11.168a2.1429 2.1429 0 0 0 1.2109-1.9277 2.1429 2.1429 0 0 0-2.1426-2.1426z"/>
</svg>
