<svg version="1.1" viewBox="0 0 24 24" xmlns="http://www.w3.org/2000/svg">
 <path d="m6.5371 1.998c-1.239 7.2e-5 -2.251 0.98799-2.2852 2.2266h0.0058594v15.492c5.518e-4 1.2606 1.0206 2.2807 2.2812 2.2812h10.926c1.2607-0.0011 2.281-1.0205 2.2832-2.2812v-15.432c0-1.2635-1.0236-2.2877-2.2871-2.2871h-10.924zm-0.0019532 1.2031h10.937c0.59767 0.0017 1.0815 0.48632 1.082 1.084v7.709h-13.104v-7.709c0-0.6 0.48398-1.084 1.084-1.084zm2.3555 1.2617v1.2441c2.7299 0 4.9746 2.2467 4.9746 4.9766h1.2441c0-3.412-2.8068-6.2207-6.2188-6.2207zm0 2.0977v1.209c1.5988 0 2.9141 1.3152 2.9141 2.9141h1.209c0-2.2615-1.8613-4.123-4.123-4.123zm0.85156 2.416c-0.47066 2.591e-4 -0.85156 0.38286-0.85156 0.85352 0 0.47066 0.37973 0.85352 0.84961 0.85352 0.47066 0 0.85547-0.38364 0.85547-0.85352 0-0.47066-0.38338-0.85352-0.85352-0.85352zm-0.51562 5.6367h0.28516c0.31742 0 0.57617 0.25673 0.57617 0.57227v0.92969c0 0.10217 0.087349 0.18555 0.19531 0.18555h0.87109c0.31554 0 0.57226 0.26273 0.57226 0.58594v0.28516c0 0.31742-0.25677 0.57617-0.57226 0.57617h-0.87109c-0.10613 0-0.19531 0.089187-0.19531 0.19531v0.87109c0 0.31554-0.25875 0.57227-0.57617 0.57227h-0.28516c-0.32321 0-0.58594-0.25673-0.58594-0.57227v-0.87109c0-0.10796-0.083373-0.19531-0.18555-0.19531h-0.92969c-0.31549 0-0.57227-0.2587-0.57227-0.57617v-0.28516c0-0.3232 0.25677-0.58594 0.57227-0.58594h0.92969c0.10565 0 0.18555-0.079847 0.18555-0.18555v-0.92969c0-0.31554 0.26273-0.57227 0.58594-0.57227zm5.1816 0.16016c0.57712 0 1.0469 0.4697 1.0469 1.0469 0 0.57712-0.46975 1.0469-1.0469 1.0469-0.57712 0-1.0469-0.46975-1.0469-1.0469 0-0.57717 0.46975-1.0469 1.0469-1.0469zm1.5918 2.459c0.57712 0 1.0469 0.4697 1.0469 1.0469 0 0.57712-0.46975 1.0469-1.0469 1.0469s-1.0469-0.46975-1.0469-1.0469c0-0.57717 0.46975-1.0469 1.0469-1.0469z"/>
</svg>
