<svg viewBox="0 0 24 24" xmlns="http://www.w3.org/2000/svg"><g transform="translate(3.593 3.593) scale(.70359)"><rect x="2" y="2" width=".85" height=".85" ry=".35"/><rect x="2.952" y="2" width=".85" height=".85" ry=".35"/><rect x="3.905" y="2" width=".85" height=".85" ry=".35"/><rect x="4.857" y="2" width=".85" height=".85" ry=".35"/><rect x="5.809" y="2" width=".85" height=".85" ry=".35"/><rect x="6.762" y="2" width=".85" height=".85" ry=".35"/><rect x="7.714" y="2" width=".85" height=".85" ry=".35"/><rect x="9.619" y="2" width=".85" height=".85" ry=".35"/><rect x="10.571" y="2" width=".85" height=".85" ry=".35"/><rect x="11.524" y="2" width=".85" height=".85" ry=".35"/><rect x="12.476" y="2" width=".85" height=".85" ry=".35"/><rect x="13.429" y="2" width=".85" height=".85" ry=".35"/><rect x="15.333" y="2" width=".85" height=".85" ry=".35"/><rect x="16.286" y="2" width=".85" height=".85" ry=".35"/><rect x="17.238" y="2" width=".85" height=".85" ry=".35"/><rect x="18.19" y="2" width=".85" height=".85" ry=".35"/><rect x="19.143" y="2" width=".85" height=".85" ry=".35"/><rect x="20.095" y="2" width=".85" height=".85" ry=".35"/><rect x="21.048" y="2" width=".85" height=".85" ry=".35"/><rect x="2" y="2.952" width=".85" height=".85" ry=".35"/><rect x="7.714" y="2.952" width=".85" height=".85" ry=".35"/><rect x="9.619" y="2.952" width=".85" height=".85" ry=".35"/><rect x="11.524" y="2.952" width=".85" height=".85" ry=".35"/><rect x="13.429" y="2.952" width=".85" height=".85" ry=".35"/><rect x="15.333" y="2.952" width=".85" height=".85" ry=".35"/><rect x="21.048" y="2.952" width=".85" height=".85" ry=".35"/><rect x="2" y="3.905" width=".85" height=".85" ry=".35"/><rect x="3.905" y="3.905" width=".85" height=".85" ry=".35"/><rect x="4.857" y="3.905" width=".85" height=".85" ry=".35"/><rect x="5.809" y="3.905" width=".85" height=".85" ry=".35"/><rect x="7.714" y="3.905" width=".85" height=".85" ry=".35"/><rect x="9.619" y="3.905" width=".85" height=".85" ry=".35"/><rect x="15.333" y="3.905" width=".85" height=".85" ry=".35"/><rect x="17.238" y="3.905" width=".85" height=".85" ry=".35"/><rect x="18.19" y="3.905" width=".85" height=".85" ry=".35"/><rect x="19.143" y="3.905" width=".85" height=".85" ry=".35"/><rect x="21.048" y="3.905" width=".85" height=".85" ry=".35"/><rect x="2" y="4.857" width=".85" height=".85" ry=".35"/><rect x="3.905" y="4.857" width=".85" height=".85" ry=".35"/><rect x="4.857" y="4.857" width=".85" height=".85" ry=".35"/><rect x="5.809" y="4.857" width=".85" height=".85" ry=".35"/><rect x="7.714" y="4.857" width=".85" height=".85" ry=".35"/><rect x="9.619" y="4.857" width=".85" height=".85" ry=".35"/><rect x="10.571" y="4.857" width=".85" height=".85" ry=".35"/><rect x="11.524" y="4.857" width=".85" height=".85" ry=".35"/><rect x="12.476" y="4.857" width=".85" height=".85" ry=".35"/><rect x="15.333" y="4.857" width=".85" height=".85" ry=".35"/><rect x="17.238" y="4.857" width=".85" height=".85" ry=".35"/><rect x="18.19" y="4.857" width=".85" height=".85" ry=".35"/><rect x="19.143" y="4.857" width=".85" height=".85" ry=".35"/><rect x="21.048" y="4.857" width=".85" height=".85" ry=".35"/><rect x="2" y="5.809" width=".85" height=".85" ry=".35"/><rect x="3.905" y="5.809" width=".85" height=".85" ry=".35"/><rect x="4.857" y="5.809" width=".85" height=".85" ry=".35"/><rect x="5.809" y="5.809" width=".85" height=".85" ry=".35"/><rect x="7.714" y="5.809" width=".85" height=".85" ry=".35"/><rect x="13.429" y="5.809" width=".85" height=".85" ry=".35"/><rect x="15.333" y="5.809" width=".85" height=".85" ry=".35"/><rect x="17.238" y="5.809" width=".85" height=".85" ry=".35"/><rect x="18.19" y="5.809" width=".85" height=".85" ry=".35"/><rect x="19.143" y="5.809" width=".85" height=".85" ry=".35"/><rect x="21.048" y="5.809" width=".85" height=".85" ry=".35"/><rect x="2" y="6.762" width=".85" height=".85" ry=".35"/><rect x="7.714" y="6.762" width=".85" height=".85" ry=".35"/><rect x="9.619" y="6.762" width=".85" height=".85" ry=".35"/><rect x="10.571" y="6.762" width=".85" height=".85" ry=".35"/><rect x="12.476" y="6.762" width=".85" height=".85" ry=".35"/><rect x="15.333" y="6.762" width=".85" height=".85" ry=".35"/><rect x="21.048" y="6.762" width=".85" height=".85" ry=".35"/><rect x="2" y="7.714" width=".85" height=".85" ry=".35"/><rect x="2.952" y="7.714" width=".85" height=".85" ry=".35"/><rect x="3.905" y="7.714" width=".85" height=".85" ry=".35"/><rect x="4.857" y="7.714" width=".85" height=".85" ry=".35"/><rect x="5.809" y="7.714" width=".85" height=".85" ry=".35"/><rect x="6.762" y="7.714" width=".85" height=".85" ry=".35"/><rect x="7.714" y="7.714" width=".85" height=".85" ry=".35"/><rect x="9.619" y="7.714" width=".85" height=".85" ry=".35"/><rect x="11.524" y="7.714" width=".85" height=".85" ry=".35"/><rect x="13.429" y="7.714" width=".85" height=".85" ry=".35"/><rect x="15.333" y="7.714" width=".85" height=".85" ry=".35"/><rect x="16.286" y="7.714" width=".85" height=".85" ry=".35"/><rect x="17.238" y="7.714" width=".85" height=".85" ry=".35"/><rect x="18.19" y="7.714" width=".85" height=".85" ry=".35"/><rect x="19.143" y="7.714" width=".85" height=".85" ry=".35"/><rect x="20.095" y="7.714" width=".85" height=".85" ry=".35"/><rect x="21.048" y="7.714" width=".85" height=".85" ry=".35"/><rect x="10.571" y="8.667" width=".85" height=".85" ry=".35"/><rect x="11.524" y="8.667" width=".85" height=".85" ry=".35"/><rect x="12.476" y="8.667" width=".85" height=".85" ry=".35"/><rect x="13.429" y="8.667" width=".85" height=".85" ry=".35"/><rect x="2" y="9.619" width=".85" height=".85" ry=".35"/><rect x="2.952" y="9.619" width=".85" height=".85" ry=".35"/><rect x="5.809" y="9.619" width=".85" height=".85" ry=".35"/><rect x="6.762" y="9.619" width=".85" height=".85" ry=".35"/><rect x="7.714" y="9.619" width=".85" height=".85" ry=".35"/><rect x="10.571" y="9.619" width=".85" height=".85" ry=".35"/><rect x="12.476" y="9.619" width=".85" height=".85" ry=".35"/><rect x="16.286" y="9.619" width=".85" height=".85" ry=".35"/><rect x="18.19" y="9.619" width=".85" height=".85" ry=".35"/><rect x="19.143" y="9.619" width=".85" height=".85" ry=".35"/><rect x="20.095" y="9.619" width=".85" height=".85" ry=".35"/><rect x="21.048" y="9.619" width=".85" height=".85" ry=".35"/><rect x="2" y="10.571" width=".85" height=".85" ry=".35"/><rect x="3.905" y="10.571" width=".85" height=".85" ry=".35"/><rect x="4.857" y="10.571" width=".85" height=".85" ry=".35"/><rect x="5.809" y="10.571" width=".85" height=".85" ry=".35"/><rect x="8.667" y="10.571" width=".85" height=".85" ry=".35"/><rect x="9.619" y="10.571" width=".85" height=".85" ry=".35"/><rect x="11.524" y="10.571" width=".85" height=".85" ry=".35"/><rect x="12.476" y="10.571" width=".85" height=".85" ry=".35"/><rect x="13.429" y="10.571" width=".85" height=".85" ry=".35"/><rect x="16.286" y="10.571" width=".85" height=".85" ry=".35"/><rect x="19.143" y="10.571" width=".85" height=".85" ry=".35"/><rect x="21.048" y="10.571" width=".85" height=".85" ry=".35"/><rect x="2" y="11.524" width=".85" height=".85" ry=".35"/><rect x="6.762" y="11.524" width=".85" height=".85" ry=".35"/><rect x="7.714" y="11.524" width=".85" height=".85" ry=".35"/><rect x="8.667" y="11.524" width=".85" height=".85" ry=".35"/><rect x="11.524" y="11.524" width=".85" height=".85" ry=".35"/><rect x="12.476" y="11.524" width=".85" height=".85" ry=".35"/><rect x="15.333" y="11.524" width=".85" height=".85" ry=".35"/><rect x="16.286" y="11.524" width=".85" height=".85" ry=".35"/><rect x="17.238" y="11.524" width=".85" height=".85" ry=".35"/><rect x="18.19" y="11.524" width=".85" height=".85" ry=".35"/><rect x="19.143" y="11.524" width=".85" height=".85" ry=".35"/><rect x="20.095" y="11.524" width=".85" height=".85" ry=".35"/><rect x="2" y="12.476" width=".85" height=".85" ry=".35"/><rect x="2.952" y="12.476" width=".85" height=".85" ry=".35"/><rect x="4.857" y="12.476" width=".85" height=".85" ry=".35"/><rect x="5.809" y="12.476" width=".85" height=".85" ry=".35"/><rect x="8.667" y="12.476" width=".85" height=".85" ry=".35"/><rect x="9.619" y="12.476" width=".85" height=".85" ry=".35"/><rect x="10.571" y="12.476" width=".85" height=".85" ry=".35"/><rect x="11.524" y="12.476" width=".85" height=".85" ry=".35"/><rect x="14.381" y="12.476" width=".85" height=".85" ry=".35"/><rect x="15.333" y="12.476" width=".85" height=".85" ry=".35"/><rect x="17.238" y="12.476" width=".85" height=".85" ry=".35"/><rect x="18.19" y="12.476" width=".85" height=".85" ry=".35"/><rect x="20.095" y="12.476" width=".85" height=".85" ry=".35"/><rect x="2" y="13.429" width=".85" height=".85" ry=".35"/><rect x="5.809" y="13.429" width=".85" height=".85" ry=".35"/><rect x="7.714" y="13.429" width=".85" height=".85" ry=".35"/><rect x="11.524" y="13.429" width=".85" height=".85" ry=".35"/><rect x="13.429" y="13.429" width=".85" height=".85" ry=".35"/><rect x="14.381" y="13.429" width=".85" height=".85" ry=".35"/><rect x="15.333" y="13.429" width=".85" height=".85" ry=".35"/><rect x="19.143" y="13.429" width=".85" height=".85" ry=".35"/><rect x="20.095" y="13.429" width=".85" height=".85" ry=".35"/><rect x="21.048" y="13.429" width=".85" height=".85" ry=".35"/><rect x="9.619" y="14.381" width=".85" height=".85" ry=".35"/><rect x="13.429" y="14.381" width=".85" height=".85" ry=".35"/><rect x="14.381" y="14.381" width=".85" height=".85" ry=".35"/><rect x="15.333" y="14.381" width=".85" height=".85" ry=".35"/><rect x="21.048" y="14.381" width=".85" height=".85" ry=".35"/><rect x="2" y="15.333" width=".85" height=".85" ry=".35"/><rect x="2.952" y="15.333" width=".85" height=".85" ry=".35"/><rect x="3.905" y="15.333" width=".85" height=".85" ry=".35"/><rect x="4.857" y="15.333" width=".85" height=".85" ry=".35"/><rect x="5.809" y="15.333" width=".85" height=".85" ry=".35"/><rect x="6.762" y="15.333" width=".85" height=".85" ry=".35"/><rect x="7.714" y="15.333" width=".85" height=".85" ry=".35"/><rect x="11.524" y="15.333" width=".85" height=".85" ry=".35"/><rect x="13.429" y="15.333" width=".85" height=".85" ry=".35"/><rect x="14.381" y="15.333" width=".85" height=".85" ry=".35"/><rect x="18.19" y="15.333" width=".85" height=".85" ry=".35"/><rect x="19.143" y="15.333" width=".85" height=".85" ry=".35"/><rect x="20.095" y="15.333" width=".85" height=".85" ry=".35"/><rect x="2" y="16.286" width=".85" height=".85" ry=".35"/><rect x="7.714" y="16.286" width=".85" height=".85" ry=".35"/><rect x="9.619" y="16.286" width=".85" height=".85" ry=".35"/><rect x="10.571" y="16.286" width=".85" height=".85" ry=".35"/><rect x="11.524" y="16.286" width=".85" height=".85" ry=".35"/><rect x="12.476" y="16.286" width=".85" height=".85" ry=".35"/><rect x="13.429" y="16.286" width=".85" height=".85" ry=".35"/><rect x="16.286" y="16.286" width=".85" height=".85" ry=".35"/><rect x="18.19" y="16.286" width=".85" height=".85" ry=".35"/><rect x="20.095" y="16.286" width=".85" height=".85" ry=".35"/><rect x="21.048" y="16.286" width=".85" height=".85" ry=".35"/><rect x="2" y="17.238" width=".85" height=".85" ry=".35"/><rect x="3.905" y="17.238" width=".85" height=".85" ry=".35"/><rect x="4.857" y="17.238" width=".85" height=".85" ry=".35"/><rect x="5.809" y="17.238" width=".85" height=".85" ry=".35"/><rect x="7.714" y="17.238" width=".85" height=".85" ry=".35"/><rect x="9.619" y="17.238" width=".85" height=".85" ry=".35"/><rect x="10.571" y="17.238" width=".85" height=".85" ry=".35"/><rect x="12.476" y="17.238" width=".85" height=".85" ry=".35"/><rect x="15.333" y="17.238" width=".85" height=".85" ry=".35"/><rect x="16.286" y="17.238" width=".85" height=".85" ry=".35"/><rect x="17.238" y="17.238" width=".85" height=".85" ry=".35"/><rect x="19.143" y="17.238" width=".85" height=".85" ry=".35"/><rect x="20.095" y="17.238" width=".85" height=".85" ry=".35"/><rect x="21.048" y="17.238" width=".85" height=".85" ry=".35"/><rect x="2" y="18.19" width=".85" height=".85" ry=".35"/><rect x="3.905" y="18.19" width=".85" height=".85" ry=".35"/><rect x="4.857" y="18.19" width=".85" height=".85" ry=".35"/><rect x="5.809" y="18.19" width=".85" height=".85" ry=".35"/><rect x="7.714" y="18.19" width=".85" height=".85" ry=".35"/><rect x="10.571" y="18.19" width=".85" height=".85" ry=".35"/><rect x="11.524" y="18.19" width=".85" height=".85" ry=".35"/><rect x="12.476" y="18.19" width=".85" height=".85" ry=".35"/><rect x="13.429" y="18.19" width=".85" height=".85" ry=".35"/><rect x="16.286" y="18.19" width=".85" height=".85" ry=".35"/><rect x="18.19" y="18.19" width=".85" height=".85" ry=".35"/><rect x="20.095" y="18.19" width=".85" height=".85" ry=".35"/><rect x="21.048" y="18.19" width=".85" height=".85" ry=".35"/><rect x="2" y="19.143" width=".85" height=".85" ry=".35"/><rect x="3.905" y="19.143" width=".85" height=".85" ry=".35"/><rect x="4.857" y="19.143" width=".85" height=".85" ry=".35"/><rect x="5.809" y="19.143" width=".85" height=".85" ry=".35"/><rect x="7.714" y="19.143" width=".85" height=".85" ry=".35"/><rect x="10.571" y="19.143" width=".85" height=".85" ry=".35"/><rect x="12.476" y="19.143" width=".85" height=".85" ry=".35"/><rect x="15.333" y="19.143" width=".85" height=".85" ry=".35"/><rect x="16.286" y="19.143" width=".85" height=".85" ry=".35"/><rect x="17.238" y="19.143" width=".85" height=".85" ry=".35"/><rect x="18.19" y="19.143" width=".85" height=".85" ry=".35"/><rect x="19.143" y="19.143" width=".85" height=".85" ry=".35"/><rect x="2" y="20.095" width=".85" height=".85" ry=".35"/><rect x="7.714" y="20.095" width=".85" height=".85" ry=".35"/><rect x="9.619" y="20.095" width=".85" height=".85" ry=".35"/><rect x="11.524" y="20.095" width=".85" height=".85" ry=".35"/><rect x="14.381" y="20.095" width=".85" height=".85" ry=".35"/><rect x="15.333" y="20.095" width=".85" height=".85" ry=".35"/><rect x="17.238" y="20.095" width=".85" height=".85" ry=".35"/><rect x="19.143" y="20.095" width=".85" height=".85" ry=".35"/><rect x="2" y="21.048" width=".85" height=".85" ry=".35"/><rect x="2.952" y="21.048" width=".85" height=".85" ry=".35"/><rect x="3.905" y="21.048" width=".85" height=".85" ry=".35"/><rect x="4.857" y="21.048" width=".85" height=".85" ry=".35"/><rect x="5.809" y="21.048" width=".85" height=".85" ry=".35"/><rect x="6.762" y="21.048" width=".85" height=".85" ry=".35"/><rect x="7.714" y="21.048" width=".85" height=".85" ry=".35"/><rect x="9.619" y="21.048" width=".85" height=".85" ry=".35"/><rect x="10.571" y="21.048" width=".85" height=".85" ry=".35"/><rect x="11.524" y="21.048" width=".85" height=".85" ry=".35"/><rect x="13.429" y="21.048" width=".85" height=".85" ry=".35"/><rect x="14.381" y="21.048" width=".85" height=".85" ry=".35"/><rect x="15.333" y="21.048" width=".85" height=".85" ry=".35"/><rect x="19.143" y="21.048" width=".85" height=".85" ry=".35"/><rect x="21.048" y="21.048" width=".85" height=".85" ry=".35"/></g><path d="M2.5 2c-.277 0-.5.223-.5.5v2a.499.499 0 1 0 1 0V3h1.5a.499.499 0 1 0 0-1h-2zm19.5.5c0-.277-.223-.5-.5-.5h-2a.499.499 0 1 0 0 1H21v1.5a.499.499 0 1 0 1 0zM21.5 22c.277 0 .5-.223.5-.5v-2a.499.499 0 1 0-1 0V21h-1.5a.499.499 0 1 0 0 1zM2 21.5c0 .277.223.5.5.5h2a.499.499 0 1 0 0-1H3v-1.5a.499.499 0 1 0-1 0z"/></svg>