<?xml version="1.0" encoding="UTF-8"?>
<svg version="1.1" viewBox="0 0 24 24" xmlns="http://www.w3.org/2000/svg">
 <g transform="matrix(.70359 0 0 .70359 3.5928 3.5928)">
  <rect x="2" y="2" width=".85" height=".85" ry=".35"/>
  <rect x="2.9524" y="2" width=".85" height=".85" ry=".35"/>
  <rect x="3.9048" y="2" width=".85" height=".85" ry=".35"/>
  <rect x="4.8571" y="2" width=".85" height=".85" ry=".35"/>
  <rect x="5.8095" y="2" width=".85" height=".85" ry=".35"/>
  <rect x="6.7619" y="2" width=".85" height=".85" ry=".35"/>
  <rect x="7.7143" y="2" width=".85" height=".85" ry=".35"/>
  <rect x="9.619" y="2" width=".85" height=".85" ry=".35"/>
  <rect x="10.571" y="2" width=".85" height=".85" ry=".35"/>
  <rect x="11.524" y="2" width=".85" height=".85" ry=".35"/>
  <rect x="12.476" y="2" width=".85" height=".85" ry=".35"/>
  <rect x="13.429" y="2" width=".85" height=".85" ry=".35"/>
  <rect x="15.333" y="2" width=".85" height=".85" ry=".35"/>
  <rect x="16.286" y="2" width=".85" height=".85" ry=".35"/>
  <rect x="17.238" y="2" width=".85" height=".85" ry=".35"/>
  <rect x="18.19" y="2" width=".85" height=".85" ry=".35"/>
  <rect x="19.143" y="2" width=".85" height=".85" ry=".35"/>
  <rect x="20.095" y="2" width=".85" height=".85" ry=".35"/>
  <rect x="21.048" y="2" width=".85" height=".85" ry=".35"/>
  <rect x="2" y="2.9524" width=".85" height=".85" ry=".35"/>
  <rect x="7.7143" y="2.9524" width=".85" height=".85" ry=".35"/>
  <rect x="9.619" y="2.9524" width=".85" height=".85" ry=".35"/>
  <rect x="11.524" y="2.9524" width=".85" height=".85" ry=".35"/>
  <rect x="13.429" y="2.9524" width=".85" height=".85" ry=".35"/>
  <rect x="15.333" y="2.9524" width=".85" height=".85" ry=".35"/>
  <rect x="21.048" y="2.9524" width=".85" height=".85" ry=".35"/>
  <rect x="2" y="3.9048" width=".85" height=".85" ry=".35"/>
  <rect x="3.9048" y="3.9048" width=".85" height=".85" ry=".35"/>
  <rect x="4.8571" y="3.9048" width=".85" height=".85" ry=".35"/>
  <rect x="5.8095" y="3.9048" width=".85" height=".85" ry=".35"/>
  <rect x="7.7143" y="3.9048" width=".85" height=".85" ry=".35"/>
  <rect x="9.619" y="3.9048" width=".85" height=".85" ry=".35"/>
  <rect x="15.333" y="3.9048" width=".85" height=".85" ry=".35"/>
  <rect x="17.238" y="3.9048" width=".85" height=".85" ry=".35"/>
  <rect x="18.19" y="3.9048" width=".85" height=".85" ry=".35"/>
  <rect x="19.143" y="3.9048" width=".85" height=".85" ry=".35"/>
  <rect x="21.048" y="3.9048" width=".85" height=".85" ry=".35"/>
  <rect x="2" y="4.8571" width=".85" height=".85" ry=".35"/>
  <rect x="3.9048" y="4.8571" width=".85" height=".85" ry=".35"/>
  <rect x="4.8571" y="4.8571" width=".85" height=".85" ry=".35"/>
  <rect x="5.8095" y="4.8571" width=".85" height=".85" ry=".35"/>
  <rect x="7.7143" y="4.8571" width=".85" height=".85" ry=".35"/>
  <rect x="9.619" y="4.8571" width=".85" height=".85" ry=".35"/>
  <rect x="10.571" y="4.8571" width=".85" height=".85" ry=".35"/>
  <rect x="11.524" y="4.8571" width=".85" height=".85" ry=".35"/>
  <rect x="12.476" y="4.8571" width=".85" height=".85" ry=".35"/>
  <rect x="15.333" y="4.8571" width=".85" height=".85" ry=".35"/>
  <rect x="17.238" y="4.8571" width=".85" height=".85" ry=".35"/>
  <rect x="18.19" y="4.8571" width=".85" height=".85" ry=".35"/>
  <rect x="19.143" y="4.8571" width=".85" height=".85" ry=".35"/>
  <rect x="21.048" y="4.8571" width=".85" height=".85" ry=".35"/>
  <rect x="2" y="5.8095" width=".85" height=".85" ry=".35"/>
  <rect x="3.9048" y="5.8095" width=".85" height=".85" ry=".35"/>
  <rect x="4.8571" y="5.8095" width=".85" height=".85" ry=".35"/>
  <rect x="5.8095" y="5.8095" width=".85" height=".85" ry=".35"/>
  <rect x="7.7143" y="5.8095" width=".85" height=".85" ry=".35"/>
  <rect x="13.429" y="5.8095" width=".85" height=".85" ry=".35"/>
  <rect x="15.333" y="5.8095" width=".85" height=".85" ry=".35"/>
  <rect x="17.238" y="5.8095" width=".85" height=".85" ry=".35"/>
  <rect x="18.19" y="5.8095" width=".85" height=".85" ry=".35"/>
  <rect x="19.143" y="5.8095" width=".85" height=".85" ry=".35"/>
  <rect x="21.048" y="5.8095" width=".85" height=".85" ry=".35"/>
  <rect x="2" y="6.7619" width=".85" height=".85" ry=".35"/>
  <rect x="7.7143" y="6.7619" width=".85" height=".85" ry=".35"/>
  <rect x="9.619" y="6.7619" width=".85" height=".85" ry=".35"/>
  <rect x="10.571" y="6.7619" width=".85" height=".85" ry=".35"/>
  <rect x="12.476" y="6.7619" width=".85" height=".85" ry=".35"/>
  <rect x="15.333" y="6.7619" width=".85" height=".85" ry=".35"/>
  <rect x="21.048" y="6.7619" width=".85" height=".85" ry=".35"/>
  <rect x="2" y="7.7143" width=".85" height=".85" ry=".35"/>
  <rect x="2.9524" y="7.7143" width=".85" height=".85" ry=".35"/>
  <rect x="3.9048" y="7.7143" width=".85" height=".85" ry=".35"/>
  <rect x="4.8571" y="7.7143" width=".85" height=".85" ry=".35"/>
  <rect x="5.8095" y="7.7143" width=".85" height=".85" ry=".35"/>
  <rect x="6.7619" y="7.7143" width=".85" height=".85" ry=".35"/>
  <rect x="7.7143" y="7.7143" width=".85" height=".85" ry=".35"/>
  <rect x="9.619" y="7.7143" width=".85" height=".85" ry=".35"/>
  <rect x="11.524" y="7.7143" width=".85" height=".85" ry=".35"/>
  <rect x="13.429" y="7.7143" width=".85" height=".85" ry=".35"/>
  <rect x="15.333" y="7.7143" width=".85" height=".85" ry=".35"/>
  <rect x="16.286" y="7.7143" width=".85" height=".85" ry=".35"/>
  <rect x="17.238" y="7.7143" width=".85" height=".85" ry=".35"/>
  <rect x="18.19" y="7.7143" width=".85" height=".85" ry=".35"/>
  <rect x="19.143" y="7.7143" width=".85" height=".85" ry=".35"/>
  <rect x="20.095" y="7.7143" width=".85" height=".85" ry=".35"/>
  <rect x="21.048" y="7.7143" width=".85" height=".85" ry=".35"/>
  <rect x="10.571" y="8.6667" width=".85" height=".85" ry=".35"/>
  <rect x="11.524" y="8.6667" width=".85" height=".85" ry=".35"/>
  <rect x="12.476" y="8.6667" width=".85" height=".85" ry=".35"/>
  <rect x="13.429" y="8.6667" width=".85" height=".85" ry=".35"/>
  <rect x="2" y="9.619" width=".85" height=".85" ry=".35"/>
  <rect x="2.9524" y="9.619" width=".85" height=".85" ry=".35"/>
  <rect x="5.8095" y="9.619" width=".85" height=".85" ry=".35"/>
  <rect x="6.7619" y="9.619" width=".85" height=".85" ry=".35"/>
  <rect x="7.7143" y="9.619" width=".85" height=".85" ry=".35"/>
  <rect x="10.571" y="9.619" width=".85" height=".85" ry=".35"/>
  <rect x="12.476" y="9.619" width=".85" height=".85" ry=".35"/>
  <rect x="16.286" y="9.619" width=".85" height=".85" ry=".35"/>
  <rect x="18.19" y="9.619" width=".85" height=".85" ry=".35"/>
  <rect x="19.143" y="9.619" width=".85" height=".85" ry=".35"/>
  <rect x="20.095" y="9.619" width=".85" height=".85" ry=".35"/>
  <rect x="21.048" y="9.619" width=".85" height=".85" ry=".35"/>
  <rect x="2" y="10.571" width=".85" height=".85" ry=".35"/>
  <rect x="3.9048" y="10.571" width=".85" height=".85" ry=".35"/>
  <rect x="4.8571" y="10.571" width=".85" height=".85" ry=".35"/>
  <rect x="5.8095" y="10.571" width=".85" height=".85" ry=".35"/>
  <rect x="8.6667" y="10.571" width=".85" height=".85" ry=".35"/>
  <rect x="9.619" y="10.571" width=".85" height=".85" ry=".35"/>
  <rect x="11.524" y="10.571" width=".85" height=".85" ry=".35"/>
  <rect x="12.476" y="10.571" width=".85" height=".85" ry=".35"/>
  <rect x="13.429" y="10.571" width=".85" height=".85" ry=".35"/>
  <rect x="16.286" y="10.571" width=".85" height=".85" ry=".35"/>
  <rect x="19.143" y="10.571" width=".85" height=".85" ry=".35"/>
  <rect x="21.048" y="10.571" width=".85" height=".85" ry=".35"/>
  <rect x="2" y="11.524" width=".85" height=".85" ry=".35"/>
  <rect x="6.7619" y="11.524" width=".85" height=".85" ry=".35"/>
  <rect x="7.7143" y="11.524" width=".85" height=".85" ry=".35"/>
  <rect x="8.6667" y="11.524" width=".85" height=".85" ry=".35"/>
  <rect x="11.524" y="11.524" width=".85" height=".85" ry=".35"/>
  <rect x="12.476" y="11.524" width=".85" height=".85" ry=".35"/>
  <rect x="15.333" y="11.524" width=".85" height=".85" ry=".35"/>
  <rect x="16.286" y="11.524" width=".85" height=".85" ry=".35"/>
  <rect x="17.238" y="11.524" width=".85" height=".85" ry=".35"/>
  <rect x="18.19" y="11.524" width=".85" height=".85" ry=".35"/>
  <rect x="19.143" y="11.524" width=".85" height=".85" ry=".35"/>
  <rect x="20.095" y="11.524" width=".85" height=".85" ry=".35"/>
  <rect x="2" y="12.476" width=".85" height=".85" ry=".35"/>
  <rect x="2.9524" y="12.476" width=".85" height=".85" ry=".35"/>
  <rect x="4.8571" y="12.476" width=".85" height=".85" ry=".35"/>
  <rect x="5.8095" y="12.476" width=".85" height=".85" ry=".35"/>
  <rect x="8.6667" y="12.476" width=".85" height=".85" ry=".35"/>
  <rect x="9.619" y="12.476" width=".85" height=".85" ry=".35"/>
  <rect x="10.571" y="12.476" width=".85" height=".85" ry=".35"/>
  <rect x="11.524" y="12.476" width=".85" height=".85" ry=".35"/>
  <rect x="14.381" y="12.476" width=".85" height=".85" ry=".35"/>
  <rect x="15.333" y="12.476" width=".85" height=".85" ry=".35"/>
  <rect x="17.238" y="12.476" width=".85" height=".85" ry=".35"/>
  <rect x="18.19" y="12.476" width=".85" height=".85" ry=".35"/>
  <rect x="20.095" y="12.476" width=".85" height=".85" ry=".35"/>
  <rect x="2" y="13.429" width=".85" height=".85" ry=".35"/>
  <rect x="5.8095" y="13.429" width=".85" height=".85" ry=".35"/>
  <rect x="7.7143" y="13.429" width=".85" height=".85" ry=".35"/>
  <rect x="11.524" y="13.429" width=".85" height=".85" ry=".35"/>
  <rect x="13.429" y="13.429" width=".85" height=".85" ry=".35"/>
  <rect x="14.381" y="13.429" width=".85" height=".85" ry=".35"/>
  <rect x="15.333" y="13.429" width=".85" height=".85" ry=".35"/>
  <rect x="19.143" y="13.429" width=".85" height=".85" ry=".35"/>
  <rect x="20.095" y="13.429" width=".85" height=".85" ry=".35"/>
  <rect x="21.048" y="13.429" width=".85" height=".85" ry=".35"/>
  <rect x="9.619" y="14.381" width=".85" height=".85" ry=".35"/>
  <rect x="13.429" y="14.381" width=".85" height=".85" ry=".35"/>
  <rect x="14.381" y="14.381" width=".85" height=".85" ry=".35"/>
  <rect x="15.333" y="14.381" width=".85" height=".85" ry=".35"/>
  <rect x="21.048" y="14.381" width=".85" height=".85" ry=".35"/>
  <rect x="2" y="15.333" width=".85" height=".85" ry=".35"/>
  <rect x="2.9524" y="15.333" width=".85" height=".85" ry=".35"/>
  <rect x="3.9048" y="15.333" width=".85" height=".85" ry=".35"/>
  <rect x="4.8571" y="15.333" width=".85" height=".85" ry=".35"/>
  <rect x="5.8095" y="15.333" width=".85" height=".85" ry=".35"/>
  <rect x="6.7619" y="15.333" width=".85" height=".85" ry=".35"/>
  <rect x="7.7143" y="15.333" width=".85" height=".85" ry=".35"/>
  <rect x="11.524" y="15.333" width=".85" height=".85" ry=".35"/>
  <rect x="13.429" y="15.333" width=".85" height=".85" ry=".35"/>
  <rect x="14.381" y="15.333" width=".85" height=".85" ry=".35"/>
  <rect x="18.19" y="15.333" width=".85" height=".85" ry=".35"/>
  <rect x="19.143" y="15.333" width=".85" height=".85" ry=".35"/>
  <rect x="20.095" y="15.333" width=".85" height=".85" ry=".35"/>
  <rect x="2" y="16.286" width=".85" height=".85" ry=".35"/>
  <rect x="7.7143" y="16.286" width=".85" height=".85" ry=".35"/>
  <rect x="9.619" y="16.286" width=".85" height=".85" ry=".35"/>
  <rect x="10.571" y="16.286" width=".85" height=".85" ry=".35"/>
  <rect x="11.524" y="16.286" width=".85" height=".85" ry=".35"/>
  <rect x="12.476" y="16.286" width=".85" height=".85" ry=".35"/>
  <rect x="13.429" y="16.286" width=".85" height=".85" ry=".35"/>
  <rect x="16.286" y="16.286" width=".85" height=".85" ry=".35"/>
  <rect x="18.19" y="16.286" width=".85" height=".85" ry=".35"/>
  <rect x="20.095" y="16.286" width=".85" height=".85" ry=".35"/>
  <rect x="21.048" y="16.286" width=".85" height=".85" ry=".35"/>
  <rect x="2" y="17.238" width=".85" height=".85" ry=".35"/>
  <rect x="3.9048" y="17.238" width=".85" height=".85" ry=".35"/>
  <rect x="4.8571" y="17.238" width=".85" height=".85" ry=".35"/>
  <rect x="5.8095" y="17.238" width=".85" height=".85" ry=".35"/>
  <rect x="7.7143" y="17.238" width=".85" height=".85" ry=".35"/>
  <rect x="9.619" y="17.238" width=".85" height=".85" ry=".35"/>
  <rect x="10.571" y="17.238" width=".85" height=".85" ry=".35"/>
  <rect x="12.476" y="17.238" width=".85" height=".85" ry=".35"/>
  <rect x="15.333" y="17.238" width=".85" height=".85" ry=".35"/>
  <rect x="16.286" y="17.238" width=".85" height=".85" ry=".35"/>
  <rect x="17.238" y="17.238" width=".85" height=".85" ry=".35"/>
  <rect x="19.143" y="17.238" width=".85" height=".85" ry=".35"/>
  <rect x="20.095" y="17.238" width=".85" height=".85" ry=".35"/>
  <rect x="21.048" y="17.238" width=".85" height=".85" ry=".35"/>
  <rect x="2" y="18.19" width=".85" height=".85" ry=".35"/>
  <rect x="3.9048" y="18.19" width=".85" height=".85" ry=".35"/>
  <rect x="4.8571" y="18.19" width=".85" height=".85" ry=".35"/>
  <rect x="5.8095" y="18.19" width=".85" height=".85" ry=".35"/>
  <rect x="7.7143" y="18.19" width=".85" height=".85" ry=".35"/>
  <rect x="10.571" y="18.19" width=".85" height=".85" ry=".35"/>
  <rect x="11.524" y="18.19" width=".85" height=".85" ry=".35"/>
  <rect x="12.476" y="18.19" width=".85" height=".85" ry=".35"/>
  <rect x="13.429" y="18.19" width=".85" height=".85" ry=".35"/>
  <rect x="16.286" y="18.19" width=".85" height=".85" ry=".35"/>
  <rect x="18.19" y="18.19" width=".85" height=".85" ry=".35"/>
  <rect x="20.095" y="18.19" width=".85" height=".85" ry=".35"/>
  <rect x="21.048" y="18.19" width=".85" height=".85" ry=".35"/>
  <rect x="2" y="19.143" width=".85" height=".85" ry=".35"/>
  <rect x="3.9048" y="19.143" width=".85" height=".85" ry=".35"/>
  <rect x="4.8571" y="19.143" width=".85" height=".85" ry=".35"/>
  <rect x="5.8095" y="19.143" width=".85" height=".85" ry=".35"/>
  <rect x="7.7143" y="19.143" width=".85" height=".85" ry=".35"/>
  <rect x="10.571" y="19.143" width=".85" height=".85" ry=".35"/>
  <rect x="12.476" y="19.143" width=".85" height=".85" ry=".35"/>
  <rect x="15.333" y="19.143" width=".85" height=".85" ry=".35"/>
  <rect x="16.286" y="19.143" width=".85" height=".85" ry=".35"/>
  <rect x="17.238" y="19.143" width=".85" height=".85" ry=".35"/>
  <rect x="18.19" y="19.143" width=".85" height=".85" ry=".35"/>
  <rect x="19.143" y="19.143" width=".85" height=".85" ry=".35"/>
  <rect x="2" y="20.095" width=".85" height=".85" ry=".35"/>
  <rect x="7.7143" y="20.095" width=".85" height=".85" ry=".35"/>
  <rect x="9.619" y="20.095" width=".85" height=".85" ry=".35"/>
  <rect x="11.524" y="20.095" width=".85" height=".85" ry=".35"/>
  <rect x="14.381" y="20.095" width=".85" height=".85" ry=".35"/>
  <rect x="15.333" y="20.095" width=".85" height=".85" ry=".35"/>
  <rect x="17.238" y="20.095" width=".85" height=".85" ry=".35"/>
  <rect x="19.143" y="20.095" width=".85" height=".85" ry=".35"/>
  <rect x="2" y="21.048" width=".85" height=".85" ry=".35"/>
  <rect x="2.9524" y="21.048" width=".85" height=".85" ry=".35"/>
  <rect x="3.9048" y="21.048" width=".85" height=".85" ry=".35"/>
  <rect x="4.8571" y="21.048" width=".85" height=".85" ry=".35"/>
  <rect x="5.8095" y="21.048" width=".85" height=".85" ry=".35"/>
  <rect x="6.7619" y="21.048" width=".85" height=".85" ry=".35"/>
  <rect x="7.7143" y="21.048" width=".85" height=".85" ry=".35"/>
  <rect x="9.619" y="21.048" width=".85" height=".85" ry=".35"/>
  <rect x="10.571" y="21.048" width=".85" height=".85" ry=".35"/>
  <rect x="11.524" y="21.048" width=".85" height=".85" ry=".35"/>
  <rect x="13.429" y="21.048" width=".85" height=".85" ry=".35"/>
  <rect x="14.381" y="21.048" width=".85" height=".85" ry=".35"/>
  <rect x="15.333" y="21.048" width=".85" height=".85" ry=".35"/>
  <rect x="19.143" y="21.048" width=".85" height=".85" ry=".35"/>
  <rect x="21.048" y="21.048" width=".85" height=".85" ry=".35"/>
 </g>
 <g stroke-width=".44732">
  <path d="m2.5 2c-0.277 0-0.5 0.223-0.5 0.5v2c0 0.277 0.223 0.5 0.5 0.5s0.5-0.223 0.5-0.5v-1.5h1.5c0.277 0 0.5-0.223 0.5-0.5s-0.223-0.5-0.5-0.5h-2z"/>
  <path d="m22 2.5c0-0.277-0.223-0.5-0.5-0.5h-2c-0.277 0-0.5 0.223-0.5 0.5s0.223 0.5 0.5 0.5h1.5v1.5c0 0.277 0.223 0.5 0.5 0.5s0.5-0.223 0.5-0.5z"/>
  <path d="m21.5 22c0.277 0 0.5-0.223 0.5-0.5v-2c0-0.277-0.223-0.5-0.5-0.5s-0.5 0.223-0.5 0.5v1.5h-1.5c-0.277 0-0.5 0.223-0.5 0.5s0.223 0.5 0.5 0.5z"/>
  <path d="m2 21.5c0 0.277 0.223 0.5 0.5 0.5h2c0.277 0 0.5-0.223 0.5-0.5s-0.223-0.5-0.5-0.5h-1.5v-1.5c0-0.277-0.223-0.5-0.5-0.5s-0.5 0.223-0.5 0.5z"/>
 </g>
</svg>
