<?xml version="1.0" encoding="UTF-8"?>
<svg version="1.1" viewBox="0 0 24 24" xmlns="http://www.w3.org/2000/svg">
 <style type="text/css">.st0{fill:#FFFFFF;}
	.st1{fill:#8DC742;}</style>
 <g transform="matrix(.068027 0 0 .068027 2 2)">
  <path d="m197.33 134.25c-32.257 0-58.5 26.243-58.5 58.5s26.243 58.5 58.5 58.5 58.5-26.243 58.5-58.5-26.243-58.5-58.5-58.5zm0 82.5c-13.233 0-24-10.767-24-24s10.767-24 24-24 24 10.767 24 24-10.767 24-24 24zm82-121h-27.333v-45.26c11-2.671 18.166-12.078 18.166-23.24 0-13.233-10.683-24-23.917-24s-24.125 10.767-24.125 24c0 10.052 6.875 18.674 14.875 22.243v46.257h-221.67c-8.284 0-15.333 6.716-15.333 15v165c0 8.284 7.049 15 15.333 15h264c8.284 0 14.667-6.716 14.667-15v-165c0-8.284-6.382-15-14.667-15zm-198 155h-49c-4.143 0-7.5-3.357-7.5-7.5s3.357-7.5 7.5-7.5h49c4.143 0 7.5 3.357 7.5 7.5s-3.357 7.5-7.5 7.5zm0-50h-49c-4.143 0-7.5-3.357-7.5-7.5s3.357-7.5 7.5-7.5h49c4.143 0 7.5 3.357 7.5 7.5s-3.357 7.5-7.5 7.5zm0-50h-49c-4.143 0-7.5-3.357-7.5-7.5s3.357-7.5 7.5-7.5h49c4.143 0 7.5 3.357 7.5 7.5s-3.357 7.5-7.5 7.5zm116 115.5c-40.528 0-73.5-32.972-73.5-73.5s32.972-73.5 73.5-73.5 73.5 32.972 73.5 73.5-32.972 73.5-73.5 73.5z"/>
 </g>
</svg>
