<svg viewBox="0 0 24 24" xmlns="http://www.w3.org/2000/svg"><path d="M15.424 11.133c-2.195 0-3.98 1.785-3.98 3.98s1.785 3.979 3.98 3.979 3.98-1.785 3.98-3.98-1.786-3.98-3.98-3.98zm0 5.612c-.9 0-1.633-.733-1.633-1.633s.733-1.632 1.633-1.632a1.634 1.634 0 0 1 0 3.265zm5.578-8.231h-1.86v-3.08a1.597 1.597 0 0 0 1.236-1.58c0-.9-.726-1.633-1.627-1.633s-1.64.733-1.64 1.633c0 .684.467 1.27 1.011 1.513v3.147H3.042C2.48 8.514 2 8.97 2 9.534v11.224c0 .564.479 1.02 1.043 1.02h17.959c.563 0 .997-.456.997-1.02V9.534c0-.564-.434-1.02-.997-1.02zM7.532 19.058H4.2a.51.51 0 1 1 0-1.02h3.334a.51.51 0 1 1 0 1.02zm0-3.402H4.2a.51.51 0 1 1 0-1.02h3.334a.51.51 0 1 1 0 1.02zm0-3.4H4.2a.51.51 0 1 1 0-1.021h3.334a.51.51 0 1 1 0 1.02zm7.892 7.856c-2.757 0-5-2.243-5-5s2.243-5 5-5 5 2.243 5 5-2.243 5-5 5z"/></svg>