<svg viewBox="0 0 24 24" xmlns="http://www.w3.org/2000/svg"><path d="m21.942 14.55-1.827-3.281a.458.458 0 0 0-.452-.232l-3.73.424a.458.458 0 0 0-.356.246l-1.27 2.47a.458.458 0 0 0 .467.664l1.552-.202c-1.37 2.381-4.367 3.306-6.803 2.056a5.123 5.123 0 0 1-1.858-1.62 1.568 1.568 0 0 0-2.075-.47 1.576 1.576 0 0 0-.512 2.266 8.284 8.284 0 0 0 3.043 2.643 8.095 8.095 0 0 0 3.672.878A8.343 8.343 0 0 0 19.1 16.05l.77 1.412a.459.459 0 0 0 .81-.01l1.27-2.47a.459.459 0 0 0-.008-.433zM8.423 12.293l1.27-2.47a.458.458 0 0 0-.467-.664l-1.552.202c1.37-2.381 4.367-3.306 6.803-2.056.742.38 1.384.94 1.858 1.62.47.675 1.363.877 2.075.47a1.576 1.576 0 0 0 .512-2.266 8.284 8.284 0 0 0-3.043-2.643C11.918 2.476 7.04 4.033 4.9 7.95l-.77-1.412a.458.458 0 0 0-.402-.239h-.006a.459.459 0 0 0-.402.249l-1.269 2.47a.458.458 0 0 0 .007.432l1.827 3.28a.458.458 0 0 0 .452.233l3.73-.424a.458.458 0 0 0 .356-.246z"/></svg>