<?xml version="1.0" encoding="UTF-8"?>
<svg version="1.1" viewBox="0 0 24 24" xmlns="http://www.w3.org/2000/svg">
 <g transform="matrix(.06734 0 0 .06734 2 2)">
  <path d="m296.14 186.36-27.126-48.715c-1.336-2.4-3.989-3.766-6.714-3.45l-55.4 6.303c-2.261 0.257-4.244 1.627-5.284 3.651l-18.85 36.679c-1.156 2.249-0.969 4.953 0.485 7.023 1.454 2.068 3.929 3.159 6.444 2.836l23.051-2.993c-20.337 35.353-64.85 49.091-101.03 30.524-11.011-5.65-20.55-13.969-27.589-24.062-6.989-10.021-20.236-13.018-30.816-6.966-5.686 3.253-9.774 8.785-11.212 15.178-1.435 6.378-0.119 13.112 3.614 18.471 11.497 16.508 27.12 30.076 45.179 39.237 17.456 8.855 36.103 13.048 54.536 13.048 43.693-2e-3 86.158-23.572 108.51-64.484l11.434 20.968c1.206 2.213 3.55 3.533 6.057 3.548 2.521-0.032 4.817-1.453 5.97-3.695l18.85-36.679c1.039-2.025 0.999-4.435-0.108-6.422z"/>
  <path d="m95.385 152.85 18.85-36.679c1.156-2.249 0.969-4.953-0.485-7.023-1.454-2.068-3.932-3.157-6.444-2.836l-23.051 2.993c20.335-35.353 64.848-49.092 101.03-30.524 11.012 5.65 20.551 13.97 27.589 24.061 6.989 10.022 20.235 13.016 30.816 6.968 5.686-3.253 9.774-8.785 11.212-15.178 1.436-6.379 0.119-13.112-3.614-18.472-11.497-16.508-27.12-30.076-45.179-39.237-58.83-29.844-131.27-6.735-163.04 51.437l-11.434-20.969c-1.193-2.189-3.486-3.548-5.975-3.548h-0.083c-2.521 0.032-4.817 1.453-5.97 3.695l-18.85 36.679c-1.04 2.023-1 4.433 0.107 6.42l27.126 48.715c1.209 2.174 3.495 3.494 5.943 3.494 0.256 0 0.513-0.014 0.771-0.044l55.4-6.303c2.262-0.255 4.245-1.625 5.285-3.649z"/>
 </g>
</svg>
