<?xml version="1.0" encoding="UTF-8"?>
<svg version="1.1" viewBox="0 0 24 24" xmlns="http://www.w3.org/2000/svg">
 <style type="text/css">.st0{fill:#FFFFFF;}
	.st1{fill:#8DC742;}</style>
 <g transform="matrix(.039062 0 0 -.039062 2 22)">
  <path d="m392.53 34.133h-273.07c-65.878 0-119.47 53.59-119.47 119.47v153.6c0 65.877 53.589 119.47 119.47 119.47h59.733c18.825 0 34.133-15.309 34.133-34.133 0-18.825-15.309-34.133-34.133-34.133h-51.2c-32.93 0-59.733-26.795-59.733-59.733v-136.54c0-32.939 26.803-59.733 59.733-59.733h256c32.93 0 59.733 26.795 59.733 59.733v136.53c0 32.939-26.803 59.733-59.733 59.733h-17.067v-42.667c0-3.234-1.826-6.187-4.719-7.637-2.884-1.434-6.349-1.126-8.934 0.811l-102.4 76.8c-2.15 1.613-3.413 4.139-3.413 6.827s1.263 5.214 3.413 6.827l102.4 76.8c1.502 1.126 3.311 1.707 5.12 1.707 1.297 0 2.611-0.299 3.814-0.896 2.893-1.451 4.719-4.403 4.719-7.637v-42.667h25.6c65.878 0 119.47-53.59 119.47-119.47v-153.6c0-65.877-53.589-119.47-119.47-119.47z"/>
 </g>
</svg>
