<svg viewBox="0 0 24 24" xmlns="http://www.w3.org/2000/svg"><path d="M17.333 20.667H6.666A4.672 4.672 0 0 1 2 16v-6a4.672 4.672 0 0 1 4.666-4.667H9A1.335 1.335 0 0 1 9 8H7a2.336 2.336 0 0 0-2.334 2.333v5.334A2.336 2.336 0 0 0 7 18h10a2.336 2.336 0 0 0 2.333-2.333v-5.333A2.336 2.336 0 0 0 17 8h-.667v1.667a.334.334 0 0 1-.533.267l-4-3a.333.333 0 0 1 0-.534l4-3a.334.334 0 0 1 .533.267v1.667h1A4.672 4.672 0 0 1 22 10v6a4.672 4.672 0 0 1-4.667 4.667z"/><g aria-label="1"><path d="M12.122 9.689a.293.293 0 0 0-.1.017l-2.05.746a.293.293 0 0 0-.177.375l.383 1.047a.293.293 0 0 0 .375.176l.737-.268v4.059a.293.293 0 0 0 .293.293h1.195a.293.293 0 0 0 .293-.293V9.98a.293.293 0 0 0-.293-.292z"/><path d="M12.123 9.982h.656v5.859h-1.195v-4.477l-1.13.41-.382-1.046z"/></g></svg>