<svg viewBox="0 0 24 24" xmlns="http://www.w3.org/2000/svg"><path d="M21.96 13.844a.418.418 0 0 0-.379-.24h-1.455V6.338a.419.419 0 0 0-.419-.418H7.583a.419.419 0 0 0-.322.687l1.565 1.875c.08.096.197.15.321.15h8.265v4.972h-1.455a.419.419 0 0 0-.323.685l2.812 3.4a.42.42 0 0 0 .645 0l2.813-3.4a.418.418 0 0 0 .056-.445zM15.174 15.518a.419.419 0 0 0-.321-.15H6.588v-4.971h1.46a.419.419 0 0 0 .287-.723L5.555 6.31a.42.42 0 0 0-.646 0L2.096 9.712a.418.418 0 0 0 .323.685h1.456v7.265c0 .231.187.419.418.419h12.124a.42.42 0 0 0 .322-.687z"/></svg>