<?xml version="1.0" encoding="UTF-8"?>
<svg version="1.1" viewBox="0 0 24 24" xmlns="http://www.w3.org/2000/svg">
 <style type="text/css">.st0{fill:#FFFFFF;}
	.st1{fill:#8DC742;}</style>
 <style type="text/css">.st0{fill:#FFFFFF;}
	.st1{fill:#8DC742;}</style>
 <path d="m21.825 2.5957c-0.07115-0.1957-0.22537-0.34992-0.42107-0.42107-0.08006-0.029098-0.51709-0.17412-1.2674-0.17412-0.5598 0-1.1532 0.081379-1.7637 0.24207-0.76264 0.20077-1.6686 0.63414-2.6928 1.2883-0.70679 0.45158-1.3715 0.98678-1.9757 1.5909l-2.5382 2.5383-1.0816-0.2815 0.98359-0.9835c0.61283-0.61302 0.61283-1.6105-9.4e-5 -2.2234l-0.082224-0.082224c-0.29698-0.29689-0.69177-0.4604-1.1117-0.4604-0.41994 0-0.81473 0.16351-1.1117 0.4604l-5.9335 5.9333c-0.27502 0.27502-0.27502 0.72068 0 0.9957l1.31 1.31c0.13742 0.13742 0.31763 0.20612 0.49776 0.20612s0.36034-0.06871 0.49776-0.20612l3.7956-3.7955 1.0816 0.2815-1.0097 1.0097c-0.072744 0.072744-0.12869 0.1606-0.16379 0.25718l-0.68849 1.8935-1.2315 1.2315-2.2996 0.63508c-0.24151 0.06674-0.42933 0.25672-0.49325 0.49898-0.063921 0.24226 0.00573 0.5002 0.18294 0.67741l0.1728 0.1728c-0.35508 0.2295-0.74161 0.53342-1.1449 0.93666-1.6689 1.6689-1.3087 5.0643-1.2926 5.2079 0.0367 0.32655 0.29445 0.58439 0.621 0.621 0.015769 0.0018 0.39347 0.04346 0.94455 0.04346h9.39e-5c1.3354 0 3.159-0.23184 4.2632-1.336 0.4038-0.4038 0.70829-0.78976 0.93788-1.1438l0.17177 0.17177c0.13376 0.13376 0.3135 0.20612 0.49785 0.20612 0.059791 0 0.12014-0.0076 0.17956-0.02328 0.24226-0.06392 0.43224-0.25184 0.49898-0.49325l0.63508-2.2995 1.2316-1.2316 1.8932-0.68849c0.09668-0.0352 0.18444-0.09114 0.25719-0.16379l1.0098-1.0098 0.2815 1.0817-3.7956 3.7956c-0.13206 0.13207-0.20622 0.31106-0.20622 0.49785 0 0.18679 0.07415 0.36569 0.20622 0.49785l1.3101 1.31c0.13742 0.13742 0.31763 0.20612 0.49776 0.20612 0.18012 0 0.36034-0.06871 0.49776-0.20612l5.9335-5.9335c0.61302-0.61302 0.61302-1.6104 0-2.2234l-0.08222-0.08222c-0.29698-0.29689-0.69177-0.4604-1.1117-0.4604s-0.81473 0.16351-1.1117 0.4604l-0.9835 0.9835-0.2815-1.0817 2.5382-2.5382c0.60429-0.6043 1.1396-1.269 1.5911-1.9759 0.65413-1.0244 1.0876-1.9304 1.2883-2.6928 0.47748-1.8144 0.11123-2.9119 0.067863-3.0311zm-14.948 17.072c-0.80375 0.80375-2.3924 0.9238-3.2678 0.92371-0.070679 0-0.13807-7.51e-4 -0.20134-0.0021-0.02065-1.0177 0.12362-2.6664 0.92399-3.4667 0.4421-0.4421 0.84439-0.72519 1.1753-0.90644l2.2784 2.2784c-0.18125 0.32843-0.46462 0.72922-0.9086 1.1732zm6.7288-7.8973c-0.18388 0.18388-0.4283 0.28516-0.68839 0.28516-0.26 0-0.50451-0.10118-0.68839-0.28516-0.18378-0.18378-0.28506-0.4283-0.28506-0.6883s0.10128-0.50452 0.28516-0.68839c0.18378-0.18388 0.4283-0.28506 0.6883-0.28506 0.2601 0 0.50452 0.10128 0.68839 0.28516 0.18388 0.18378 0.28516 0.4283 0.28516 0.6883s-0.10128 0.50452-0.28516 0.6883zm3.3932-3.3932c-0.18388 0.18388-0.4283 0.28516-0.68839 0.28516-0.26 0-0.50451-0.10118-0.68839-0.28516-0.18378-0.18378-0.28506-0.4283-0.28506-0.6883s0.10128-0.50442 0.28516-0.68839c0.18378-0.18388 0.4283-0.28506 0.6883-0.28506 0.2601 0 0.50452 0.10128 0.6883 0.28506 0.18388 0.18388 0.28516 0.42839 0.28516 0.68839 9.4e-5 0.26-0.10118 0.50451-0.28506 0.6883z" stroke-width=".093863"/>
</svg>
