<svg viewBox="0 0 24 24" xmlns="http://www.w3.org/2000/svg"><path d="M21.825 2.596a.704.704 0 0 0-.421-.421c-.08-.03-.517-.174-1.267-.174-.56 0-1.154.08-1.764.242-.763.2-1.669.634-2.693 1.288-.707.451-1.371.987-1.976 1.59l-2.538 2.54-1.081-.282.983-.984a1.574 1.574 0 0 0 0-2.223l-.082-.083a1.562 1.562 0 0 0-1.112-.46c-.42 0-.815.164-1.112.46L2.83 10.023a.704.704 0 0 0 0 .995l1.31 1.31a.702.702 0 0 0 .995 0L8.93 8.533l1.082.281-1.01 1.01a.704.704 0 0 0-.164.257l-.688 1.894-1.232 1.231-2.3.635a.704.704 0 0 0-.31 1.177l.173.173a7.02 7.02 0 0 0-1.145.936c-1.669 1.67-1.309 5.065-1.292 5.208a.704.704 0 0 0 .62.621c.016.002.394.044.945.044 1.336 0 3.16-.232 4.263-1.336a7.02 7.02 0 0 0 .938-1.144l.172.172a.704.704 0 0 0 1.176-.31l.635-2.3 1.232-1.232 1.893-.688a.706.706 0 0 0 .257-.164l1.01-1.01.282 1.082-3.796 3.795a.704.704 0 0 0 0 .996l1.31 1.31a.702.702 0 0 0 .996 0l5.933-5.933a1.574 1.574 0 0 0 0-2.224l-.082-.082c-.297-.297-.692-.46-1.112-.46s-.814.163-1.111.46l-.984.983-.281-1.081 2.538-2.539a11.734 11.734 0 0 0 1.591-1.975c.654-1.025 1.088-1.93 1.288-2.693.478-1.815.112-2.912.068-3.031zM6.877 19.668c-.804.803-2.392.924-3.268.923-.07 0-.138 0-.201-.002-.02-1.017.123-2.666.924-3.466a5.24 5.24 0 0 1 1.175-.907l2.279 2.279a5.313 5.313 0 0 1-.91 1.173zm6.729-7.898a.967.967 0 0 1-.689.286.967.967 0 0 1-.688-.286c-.184-.183-.285-.428-.285-.688s.101-.504.285-.688a.967.967 0 0 1 .688-.285c.26 0 .505.1.689.285.184.184.285.428.285.688s-.101.505-.285.688zm3.393-3.393a.967.967 0 0 1-.688.285.967.967 0 0 1-.689-.285c-.184-.184-.285-.428-.285-.688s.101-.505.285-.688a.967.967 0 0 1 .689-.286c.26 0 .504.102.688.286a.967.967 0 0 1 .285.688c0 .26-.101.504-.285.688z"/></svg>