<?xml version="1.0" encoding="UTF-8"?>
<svg version="1.1" viewBox="0 0 24 24" xmlns="http://www.w3.org/2000/svg">
 <style type="text/css">.st0{fill:#FFFFFF;}
	.st1{fill:#8DC742;}</style>
 <path d="m9.1621 2c-1.9143 0-3.7132 0.74575-5.0664 2.0996-2.7919 2.7928-2.792 7.3373 0 10.131 1.3543 1.3532 3.1541 2.0977 5.0684 2.0977 1.257 0 2.4613-0.3274 3.5254-0.93164l6.041 6.043c0.74677 0.7471 1.9588 0.74743 2.707 0 0.35893-0.3591 0.55993-0.84595 0.56055-1.3535 0-0.50781-0.20227-0.99458-0.56055-1.3535l-6.0449-6.0449c1.5421-2.7314 1.1582-6.2639-1.1641-8.5879-1.3539-1.3539-3.1528-2.0996-5.0664-2.0996zm0 2.0098c1.3773 0 2.6721 0.53595 3.6465 1.5098 2.0084 2.0101 2.0084 5.2809 0 7.291-0.97381 0.97348-2.2678 1.5098-3.6445 1.5098-1.3773 0-2.6738-0.53595-3.6484-1.5098-2.009-2.0101-2.0084-5.2812 0-7.291 0.97381-0.9741 2.2685-1.5098 3.6465-1.5098zm-2.9805 2.5918c-0.12858 7.73e-5 -0.25768 0.048526-0.35547 0.14648-1.3323 1.3329-1.3316 3.5004 0 4.832 0.098123 0.09808 0.22459 0.14648 0.35352 0.14648 0.12876 0 0.25739-0.0484 0.35547-0.14648 0.19625-0.19625 0.19625-0.51473 0-0.71094-0.9398-0.94013-0.93851-2.4694 0.0019532-3.4102 0.19625-0.19616 0.19625-0.51502 0-0.71094-0.098123-0.098268-0.22689-0.14656-0.35547-0.14648z" stroke-width=".041228"/>
</svg>
