<svg viewBox="0 0 24 24" xmlns="http://www.w3.org/2000/svg"><path d="M9.162 2a7.116 7.116 0 0 0-5.066 2.1c-2.792 2.792-2.792 7.337 0 10.13a7.123 7.123 0 0 0 5.068 2.098 7.115 7.115 0 0 0 3.526-.931l6.04 6.043a1.915 1.915 0 0 0 2.707-2.707l-6.044-6.045c1.542-2.732 1.158-6.264-1.165-8.588A7.118 7.118 0 0 0 9.163 2zm0 2.01c1.377 0 2.672.536 3.647 1.51a5.165 5.165 0 0 1 0 7.29 5.121 5.121 0 0 1-3.645 1.51 5.129 5.129 0 0 1-3.648-1.51 5.164 5.164 0 0 1 0-7.29 5.121 5.121 0 0 1 3.646-1.51zm-2.98 2.592a.501.501 0 0 0-.356.146 3.421 3.421 0 0 0 0 4.832.5.5 0 1 0 .709-.71 2.415 2.415 0 0 1 .002-3.411.503.503 0 0 0-.355-.857z"/></svg>