<?xml version="1.0" encoding="UTF-8"?>
<svg version="1.1" viewBox="0 0 24 24" xmlns="http://www.w3.org/2000/svg">
 <g transform="matrix(.039009 0 0 .039009 2 1.9999)">
  <g transform="translate(0,-1)">
   <path d="m504.31 6.266c-2.656-2.274-5.865-3.913-9.447-4.6-4.288-0.937-8.926-0.525-13.372 1.727l-467.44 169.98c-16.138 5.869-19.083 27.427-5.109 37.409l141.9 101.36 20.042 140.3c2.688 18.815 26.782 24.988 38.186 9.783l50.337-67.115 132.04 113.25c12.494 10.716 31.903 3.845 34.872-12.345l85.995-468.93c1.657-9.038-2.088-16.415-8.007-20.818zm-114.88 76.004-220.03 190.69-102.68-73.342zm-183.58 313.15-12.404-86.83 185.16-160.47-138.27 201.12-1.738 2.517zm185.21 56.386-106.58-91.412 167.95-243.25z"/>
  </g>
 </g>
</svg>
