<svg viewBox="0 0 24 24" xmlns="http://www.w3.org/2000/svg"><path d="M2 10.036v3.928c0 .324.105.622.278.869h19.443a1.5 1.5 0 0 0 .279-.87v-3.927c0-.325-.105-.623-.279-.87H2.278a1.504 1.504 0 0 0-.278.87zm17.333 2.13a.333.333 0 1 1 0 .667.333.333 0 0 1 0-.666zm-.666-1a.333.333 0 1 1 0 .667.333.333 0 0 1 0-.666zm-.667 1a.333.333 0 1 1 0 .667.333.333 0 0 1 0-.666zm-.667-1a.333.333 0 1 1 0 .667.333.333 0 0 1 0-.666zm-.666 1a.333.333 0 1 1 0 .667.333.333 0 0 1 0-.666zm-.667-1a.333.333 0 1 1 0 .667.333.333 0 0 1 0-.666zm-.667 1a.333.333 0 1 1 0 .667.333.333 0 0 1 0-.666zm-.666-1a.333.333 0 1 1 0 .667.333.333 0 0 1 0-.666zm-.667 1a.333.333 0 1 1 0 .667.333.333 0 0 1 0-.666zm-.667-1a.333.333 0 1 1 0 .667.333.333 0 0 1 0-.666zM5.5 10.5c.827 0 1.5.673 1.5 1.5s-.673 1.5-1.5 1.5S4 12.827 4 12s.673-1.5 1.5-1.5zm16.221-2c.174-.247.279-.545.279-.87V3.704c0-.847-.69-1.536-1.536-1.536H3.536A1.536 1.536 0 0 0 2 3.703V7.63c0 .325.105.623.278.87h19.443zm-2.388-2.667a.333.333 0 1 1 0 .667.333.333 0 0 1 0-.667zm-.666-1a.333.333 0 1 1 0 .667.333.333 0 0 1 0-.667zm-.667 1a.333.333 0 1 1 0 .667.333.333 0 0 1 0-.667zm-.667-1a.333.333 0 1 1 0 .667.333.333 0 0 1 0-.667zm-.666 1a.333.333 0 1 1 0 .667.333.333 0 0 1 0-.667zm-.667-1a.333.333 0 1 1 0 .667.333.333 0 0 1 0-.667zm-.667 1a.333.333 0 1 1 0 .667.333.333 0 0 1 0-.667zm-.666-1a.333.333 0 1 1 0 .667.333.333 0 0 1 0-.667zm-.667 1a.333.333 0 1 1 0 .667.333.333 0 0 1 0-.667zm-.667-1a.333.333 0 1 1 0 .667.333.333 0 0 1 0-.667zM5.5 4.167c.827 0 1.5.673 1.5 1.5s-.673 1.5-1.5 1.5S4 6.494 4 5.667s.673-1.5 1.5-1.5zM2.278 15.5a1.504 1.504 0 0 0-.278.87v3.927c0 .847.689 1.536 1.536 1.536h16.927c.847 0 1.536-.689 1.536-1.536V16.37c0-.324-.104-.622-.278-.87zM5.5 19.833c-.827 0-1.5-.673-1.5-1.5s.673-1.5 1.5-1.5 1.5.673 1.5 1.5-.673 1.5-1.5 1.5zm7.833-1.666a.333.333 0 1 1 0-.667.333.333 0 0 1 0 .667zm.667 1a.333.333 0 1 1 0-.667.333.333 0 0 1 0 .666zm.667-1a.333.333 0 1 1 0-.667.333.333 0 0 1 0 .667zm.666 1a.333.333 0 1 1 0-.667.333.333 0 0 1 0 .666zm.667-1a.333.333 0 1 1 0-.667.333.333 0 0 1 0 .667zm.667 1a.333.333 0 1 1 0-.667.333.333 0 0 1 0 .666zm.666-1a.333.333 0 1 1 0-.667.333.333 0 0 1 0 .667zm.667 1a.333.333 0 1 1 0-.667.333.333 0 0 1 0 .666zm.667-1a.333.333 0 1 1 0-.667.333.333 0 0 1 0 .667zm.666 1a.333.333 0 1 1 0-.667.333.333 0 0 1 0 .666z"/></svg>