<?xml version="1.0" encoding="UTF-8"?>
<svg version="1.1" viewBox="0 0 24 24" xmlns="http://www.w3.org/2000/svg">
 <style type="text/css">.st0{fill:#FFFFFF;}
	.st1{fill:#8DC742;}</style>
 <g transform="matrix(0 .039062 -.039062 0 22 2)">
  <path d="m395.13 0c-31.721 0-60.453 12.801-81.532 33.391h-230.12c-46.043 0-83.478 37.435-83.478 83.479s37.435 83.478 83.478 83.478h230.12c21.08 20.59 49.812 33.391 81.532 33.391 64.435 0 116.87-52.434 116.87-116.87s-52.435-116.87-116.87-116.87zm0 200.35c-46.043 0-83.478-37.435-83.478-83.478s37.435-83.478 83.478-83.478 83.478 37.435 83.478 83.478-37.434 83.478-83.478 83.478z"/>
  <path d="m428.52 311.65h-230.12c-21.08-20.59-49.812-33.391-81.532-33.391-64.435 0-116.87 52.434-116.87 116.87s52.434 116.87 116.87 116.87c31.721 0 60.453-12.801 81.532-33.391h230.12c46.043 0 83.478-37.435 83.478-83.478s-37.436-83.479-83.479-83.479zm-311.65 166.96c-46.043 0-83.478-37.435-83.478-83.478s37.435-83.478 83.478-83.478 83.478 37.435 83.478 83.478-37.435 83.478-83.478 83.478z"/>
 </g>
</svg>
