<svg viewBox="0 0 24 24" xmlns="http://www.w3.org/2000/svg"><path d="M22 17.435c0-1.24-.5-2.362-1.304-3.185V5.26c0-1.798-1.463-3.26-3.261-3.26s-3.261 1.462-3.261 3.26v8.99a4.546 4.546 0 0 0-1.304 3.185c0 2.517 2.048 4.565 4.565 4.565S22 19.952 22 17.435zm-7.826 0c0-1.799 1.462-3.261 3.26-3.261s3.262 1.462 3.262 3.26-1.463 3.261-3.261 3.261-3.261-1.462-3.261-3.26zm-4.348 1.304v-8.99a4.546 4.546 0 0 0 1.305-3.184C11.13 4.048 9.082 2 6.565 2S2 4.048 2 6.565c0 1.24.5 2.362 1.305 3.185v8.989c0 1.798 1.462 3.26 3.26 3.26s3.261-1.462 3.261-3.26zM3.305 6.565c0-1.798 1.462-3.26 3.26-3.26s3.261 1.462 3.261 3.26-1.462 3.261-3.26 3.261-3.261-1.462-3.261-3.26z"/></svg>