<?xml version="1.0" encoding="UTF-8"?>
<svg version="1.1" viewBox="0 0 24 24" xmlns="http://www.w3.org/2000/svg">
 <style type="text/css">.st0{fill:#FFFFFF;}
	.st1{fill:#8DC742;}</style>
 <g transform="matrix(.040918 0 0 .040918 2 2)"></g>
 <g transform="matrix(.040766 0 0 .040766 2 2)"></g>
 <g transform="matrix(.041859 0 0 .041859 2 2)">
  <path id="XMLID_2074_" d="m367.75 288.5c-25 0-47.8 9.7-64.7 25.5l-65.2-39.4c3.7-11.2 5.7-23.1 5.7-35.6 0-12.4-2-24.4-5.7-35.6l65.3-39.5c16.9 15.8 39.7 25.5 64.7 25.5 52.3 0 94.7-42.4 94.7-94.7s-42.4-94.7-94.7-94.7-94.7 42.4-94.7 94.7c0 8.7 1.2 17.2 3.4 25.2l-65.3 39.5c-20.7-21.3-49.8-34.6-81.9-34.6-63 0-114.1 51.1-114.1 114.1s51.1 114.1 114.1 114.1c32.1 0 61.1-13.3 81.9-34.6l65.3 39.5c-2.2 8-3.4 16.5-3.4 25.2 0 52.3 42.4 94.7 94.7 94.7s94.7-42.4 94.7-94.7-42.5-94.6-94.8-94.6zm-275.6-49.5c0 9.4-7.6 17-17 17s-17-7.6-17-17c0-39.3 32-71.3 71.3-71.3 9.4 0 17 7.6 17 17s-7.6 17-17 17c-20.6 0.1-37.3 16.8-37.3 37.3z"/>
 </g>
</svg>
