<?xml version="1.0" encoding="UTF-8"?>
<svg version="1.1" viewBox="0 0 24 24" xmlns="http://www.w3.org/2000/svg">
 <g transform="matrix(.053243 0 0 .053243 2 2)">
  <path d="m375.63 279.73-78.877 67.608v-45.079h-13.277c-41.919 0-72.786-18.781-98.268-43.648 9.828-11.569 18.738-23.214 27.027-34.108 1.904-2.513 3.796-4.993 5.684-7.473 18.852 19.494 39.129 32.645 65.562 32.645h13.277v-37.568zm-375.63-150.26h39.308c24.927 0 44.377 11.716 62.321 29.371 2.953-3.791 5.939-7.74 8.953-11.683 7.337-9.66 15.093-19.831 23.497-29.975-24.813-23.187-54.75-40.309-94.77-40.309h-39.309zm296.75-101.17v44.818h-13.277c-69.375 0-108.49 51.421-143 96.804-31.046 40.749-57.85 75.989-101.16 75.989h-39.308v52.59h39.308c69.386 0 108.5-51.394 143.02-96.766 31.035-40.798 57.844-76.033 101.15-76.033h13.277v37.84l78.883-67.629z" fill="#010002"/>
 </g>
</svg>
