<svg viewBox="0 0 24 24" xmlns="http://www.w3.org/2000/svg"><path d="m22 16.894-4.2 3.6v-2.4h-.707c-2.232 0-3.875-1-5.232-2.325.523-.616.998-1.236 1.439-1.816l.303-.398c1.003 1.038 2.083 1.738 3.49 1.738h.707v-2zm-20-8h2.093c1.327 0 2.363.623 3.318 1.563.157-.202.316-.412.477-.622a47.56 47.56 0 0 1 1.25-1.596c-1.32-1.234-2.914-2.146-5.045-2.146H2zm15.8-5.387v2.386h-.707c-3.694 0-5.776 2.738-7.614 5.154-1.653 2.17-3.08 4.046-5.386 4.046H2v2.8h2.093c3.694 0 5.777-2.736 7.615-5.152 1.652-2.172 3.08-4.048 5.385-4.048h.707v2.014l4.2-3.6z" fill="#010002"/></svg>