<svg viewBox="0 0 24 24" xmlns="http://www.w3.org/2000/svg"><path d="M20.607 11.687 17.274 8.77a.416.416 0 0 0-.69.313v1.25H12a.417.417 0 0 0-.417.417v2.5c0 .23.187.417.417.417h4.583v1.25a.417.417 0 0 0 .69.313l3.334-2.917a.415.415 0 0 0 0-.626z"/><path d="M15.333 14.5H12c-.69 0-1.25-.561-1.25-1.25v-2.5c0-.69.56-1.25 1.25-1.25h3.333c.23 0 .417-.187.417-.417V3.25c0-.69-.561-1.25-1.25-1.25h-10c-.69 0-1.25.56-1.25 1.25v17.5c0 .689.56 1.25 1.25 1.25h10c.689 0 1.25-.561 1.25-1.25v-5.833a.417.417 0 0 0-.417-.417z"/></svg>