<svg viewBox="0 0 24 24" xmlns="http://www.w3.org/2000/svg"><path d="M7.883 2c-.69 0-1.25.56-1.25 1.25v6.225H9.01v-.393c0-.496.295-.955.748-1.16a.857.857 0 0 1 .004-.002 1.28 1.28 0 0 1 1.357.203.857.857 0 0 0 .002.002l3.332 2.914.002.002a1.273 1.273 0 0 1-.001 1.918l-3.33 2.914-.003.002a1.285 1.285 0 0 1-1.365.201 1.279 1.279 0 0 1-.746-1.16v-.393H6.633v6.227c0 .69.56 1.25 1.25 1.25h10c.69 0 1.25-.56 1.25-1.25V3.25c0-.69-.56-1.25-1.25-1.25z"/><path d="m13.891 11.686-3.333-2.917a.416.416 0 0 0-.69.313v1.25H5.283a.417.417 0 0 0-.417.417v2.5c0 .23.187.417.417.417h4.583v1.25a.417.417 0 0 0 .69.313l3.334-2.916a.415.415 0 0 0 0-.627z"/></svg>