<?xml version="1.0" encoding="UTF-8"?>
<svg version="1.1" viewBox="0 0 24 24" xmlns="http://www.w3.org/2000/svg">
 <style type="text/css">.st0{fill:#FFFFFF;}
	.st1{fill:#8DC742;}</style>
 <style type="text/css">.st0{fill:#FFFFFF;}
	.st1{fill:#8DC742;}</style>
 <path d="m7.8831 2c-0.68918 0-1.25 0.56082-1.25 1.25v6.2246h2.377v-0.39258c0-0.4956 0.29441-0.9549 0.74805-1.1602a0.85742 0.85742 0 0 1 0.00391-0.00195c0.45242-0.20223 0.98518-0.12104 1.3574 0.20312a0.85742 0.85742 0 0 0 2e-3 0.00195l3.332 2.9141 2e-3 2e-3c0.27888 0.24406 0.43555 0.59336 0.43555 0.95898 0 0.36652-0.16289 0.71957-0.4375 0.95898l-3.3301 2.9141-2e-3 2e-3c-0.23927 0.20998-0.54796 0.31445-0.83789 0.31445-0.17699 0-0.3586-0.03658-0.52734-0.11328-0.45203-0.20573-0.74614-0.66173-0.74614-1.1602v-0.39258h-2.377v6.2266c0 0.68918 0.56082 1.25 1.25 1.25h10c0.68918 0 1.25-0.56082 1.25-1.25v-17.5c0-0.68918-0.56082-1.25-1.25-1.25z" stroke-width=".039062"/>
 <path d="m13.891 11.686-3.3333-2.9167c-0.1225-0.10668-0.2975-0.1325-0.44668-0.06582-0.14918 0.0675-0.24418 0.21582-0.24418 0.37918v1.25h-4.5833c-0.23 0-0.41668 0.18668-0.41668 0.41668v2.5c0 0.23 0.18668 0.41668 0.41668 0.41668h4.5833v1.25c0 0.16332 0.09582 0.31168 0.24418 0.37918 0.055 0.025 0.11418 0.0375 0.1725 0.0375 0.09918 0 0.19668-0.035 0.27418-0.10332l3.3333-2.9167c0.09082-0.07918 0.1425-0.19332 0.1425-0.31332s-0.05168-0.23426-0.1425-0.3134z" stroke-width=".039062"/>
</svg>
