<?xml version="1.0" encoding="UTF-8"?>
<svg version="1.1" viewBox="0 0 24 24" xmlns="http://www.w3.org/2000/svg">
 <style type="text/css">.st0{fill:#FFFFFF;}
	.st1{fill:#8DC742;}</style>
 <style type="text/css">.st0{fill:#FFFFFF;}
	.st1{fill:#8DC742;}</style>
 <g transform="matrix(.039062 0 0 .039062 2 2)">
  <path d="m476.35 247.98-85.333-74.667c-3.136-2.731-7.616-3.392-11.435-1.685-3.819 1.728-6.251 5.525-6.251 9.707v32h-117.33c-5.888 0-10.667 4.779-10.667 10.667v64c0 5.888 4.779 10.667 10.667 10.667h117.33v32c0 4.181 2.453 7.979 6.251 9.707 1.408 0.64 2.923 0.96 4.416 0.96 2.539 0 5.035-0.896 7.019-2.645l85.333-74.667c2.325-2.027 3.648-4.949 3.648-8.021s-1.323-5.997-3.648-8.023z"/>
  <path d="m341.33 320h-85.333c-17.643 0-32-14.357-32-32v-64c0-17.643 14.357-32 32-32h85.333c5.888 0 10.667-4.779 10.667-10.667v-149.33c0-17.643-14.357-32-32-32h-256c-17.643 0-32 14.357-32 32v448c0 17.643 14.357 32 32 32h256c17.643 0 32-14.357 32-32v-149.33c0-5.888-4.779-10.667-10.667-10.667z"/>
 </g>
</svg>
