<svg viewBox="0 0 24 24" xmlns="http://www.w3.org/2000/svg"><path d="M3.237 13.265c0-4.75 3.807-8.614 8.545-8.73h.22V2l4.16 3.841-4.16 3.734V6.719h-.22c-3.53.115-6.353 3.001-6.353 6.546 0 3.619 2.943 6.552 6.572 6.552 3.63 0 6.572-2.933 6.572-6.552h2.19c0 4.825-3.922 8.735-8.762 8.735s-8.764-3.91-8.764-8.735z"/><path d="M9.753 15.677q-.18 0-.38-.027-.2-.02-.386-.06-.187-.04-.34-.086-.154-.047-.24-.087l.193-.827q.173.074.44.16.273.08.673.08.46 0 .674-.173.213-.173.213-.467 0-.18-.08-.3-.073-.126-.207-.2-.133-.08-.32-.106-.18-.034-.386-.034H9.22v-.8h.44q.147 0 .28-.026.14-.027.247-.087.106-.067.166-.173.067-.114.067-.28 0-.127-.053-.22-.054-.094-.14-.154-.08-.06-.194-.086-.106-.034-.22-.034-.286 0-.533.087-.24.087-.44.213l-.353-.726q.106-.067.246-.14.147-.074.32-.134.174-.06.367-.1.2-.04.42-.04.407 0 .7.1.3.094.493.274.194.173.287.413.093.233.093.513 0 .274-.153.534-.153.253-.413.386.36.147.553.44.2.287.2.694 0 .32-.107.593-.106.267-.333.467-.227.193-.58.306-.347.107-.827.107zm5.827-2.42q0 1.167-.447 1.793-.44.62-1.22.62t-1.226-.62q-.44-.626-.44-1.793 0-.58.113-1.027.12-.446.34-.753.22-.307.527-.467.306-.16.686-.16.78 0 1.22.627.447.62.447 1.78zm-1.013 0q0-.347-.034-.627-.033-.286-.106-.493-.074-.207-.2-.32-.127-.113-.314-.113t-.313.113q-.12.113-.2.32-.073.207-.107.493-.033.28-.033.627t.033.633.107.494q.08.206.2.32.127.113.313.113t.314-.113q.126-.114.2-.32.073-.207.106-.494.034-.286.034-.633z"/></svg>