<?xml version="1.0" encoding="UTF-8"?>
<svg version="1.1" viewBox="0 0 24 24" xml:space="preserve" xmlns="http://www.w3.org/2000/svg">
	<path d="m4.3006 2c-0.56841-0.0012548-1.0274 0.46233-1.0285 1.0307l-3.726e-4 0.20294-0.20294-3.734e-4c-0.56842-0.00115-1.0334 0.45635-1.0345 1.0247-9.72e-4 0.51024 0.37115 0.93957 0.85763 1.0222 0.055743 0.00948 0.10874 0.011703 0.1671 0.012244l0.81174 0.00149 1.0486 1.0525c-1.1538 1.5214-1.7844 3.3654-1.7885 5.309l-0.0085 4.6141c-0.00111 0.56844 0.45591 1.0275 1.0248 1.0285 0.31571 6.72e-4 0.62013 0.06596 0.89499 0.18068l-1.2019 1.1916-0.80578-0.0015c-0.56842-0.0011-1.0334 0.46231-1.0345 1.0307-0.0011 0.5683 0.4623 1.0276 1.0307 1.0285l0.20294 3.74e-4 -3.826e-4 0.20891c-0.00106 0.50995 0.371 0.93372 0.85764 1.0163 0.055743 0.0095 0.11459 0.01157 0.17308 0.01224 0.56842 0.0011 1.0274-0.45633 1.0285-1.0247l0.00148-0.81174 1.1063-1.0962c0.051836 0.19379 0.082904 0.39318 0.082456 0.60301l-8.985e-4 0.48947c-5.736e-4 0.27285 0.1045 0.53525 0.2971 0.72876 0.15206 0.15278 0.34488 0.25189 0.55459 0.28753 0.055875 0.0095 0.11553 0.01851 0.17308 0.01812l4.5005 0.0082 4.4528 0.008111c0.56842 0.0011 1.0274-0.45632 1.0285-1.0247l8.98e-4 -0.48947c5.09e-4 -0.20773 0.03213-0.41326 0.08468-0.60868l1.1022 1.1062-0.0014 0.80579c-0.0011 0.50994 0.36507 0.93357 0.85168 1.0163 0.05573 0.0095 0.11458 0.01834 0.17308 0.01812 0.5684 0.0012 1.0334-0.46231 1.0345-1.0307l3.75e-4 -0.20295 0.20294 3.74e-4c0.56841 0.0012 1.0333-0.45618 1.0345-1.0247 0.0011-0.56844-0.46272-1.0342-1.0307-1.0345l-0.81174-0.0014-1.1916-1.2019c0.27988-0.11529 0.58368-0.17213 0.89566-0.17145 0.27298 6.41e-4 0.5354-0.11044 0.72874-0.30308 0.1935-0.19261 0.29918-0.45465 0.29978-0.72766l0.0085-4.6077c0.0041-1.9438-0.61528-3.7952-1.763-5.3213l1.0524-1.0426 0.81174 0.00148c0.56842 0.00115 1.0274-0.46232 1.0285-1.0307 0.0011-0.56844-0.45661-1.0276-1.0248-1.0285l-0.20891-3.711e-4 3.82e-4 -0.20891c9.09e-4 -0.56841-0.4556-1.0272-1.0248-1.0285-0.56842-0.00115-1.0334 0.45635-1.0345 1.0247l-0.0014 0.81175-1.0165 1.0128c-1.5897-1.3294-3.5751-2.0547-5.667-2.0518-2.0983-0.011535-4.085 0.70176-5.6801 2.025l-1.0128-1.0165 0.001476-0.80579c9.8e-4 -0.56845-0.46242-1.0335-1.0307-1.0345zm7.7182 2.8911c1.8164-0.00283 3.523 0.70559 4.8071 1.9904 1.2841 1.2849 1.9884 2.992 1.9848 4.8086l-0.0068 3.7007c-0.78053 0.18471-1.4967 0.57974-2.0793 1.1601-0.70237 0.6995-1.138 1.5959-1.2582 2.5643l-6.9598-0.012807c-0.22113-1.8256-1.5676-3.3097-3.3238-3.7366l0.00678-3.7066c0.0038756-1.8165 0.719-3.5217 2.0084-4.8014 1.2891-1.2797 2.9965-1.9768 4.8205-1.9668zm-3.7462 5.2933c-0.26337-4.76e-4 -0.52737 0.10255-0.72874 0.30308-0.4026 0.40083-0.40372 1.0536-0.00267 1.4564l0.14896 0.14352-0.14948 0.14298c-0.40264 0.40108-0.40372 1.0536-0.00267 1.4564 0.15697 0.15751 0.35681 0.25291 0.56055 0.28753 0.31711 0.05389 0.65059-0.04077 0.89584-0.28487l0.14948-0.14298 0.14299 0.14351c0.15696 0.15752 0.35084 0.2529 0.55459 0.28752 0.31711 0.05389 0.65655-0.04077 0.90184-0.28484 0.40267-0.40121 0.40373-1.0478 0.0027-1.4504l-0.14298-0.14949 0.14351-0.14298c0.40265-0.40109 0.40374-1.0538 0.0027-1.4564-0.4013-0.40295-1.0536-0.40372-1.4564-0.0027l-0.14352 0.143-0.14896-0.14352c-0.20077-0.20147-0.46432-0.30522-0.72771-0.30573zm5.718 0.01645c-0.26339-4.78e-4 -0.52736 0.09658-0.72877 0.29711-0.40262 0.40095-0.40371 1.0536-0.0027 1.4564l0.14299 0.14351-0.14353 0.14895c-0.40278 0.40106-0.40373 1.0478-0.0027 1.4504 0.15696 0.15752 0.35082 0.25887 0.55458 0.2935 0.31711 0.05389 0.65073-0.04076 0.89584-0.28487l0.14949-0.14895 0.14298 0.14948c0.15694 0.15766 0.35084 0.2529 0.55459 0.28752 0.31711 0.05389 0.65655-0.04076 0.90184-0.28484 0.40264-0.40109 0.40372-1.0536 0.0027-1.4564l-0.14298-0.14948 0.14351-0.14299c0.40278-0.40106 0.40374-1.0538 0.0027-1.4564-0.4013-0.40296-1.0538-0.4036-1.4564-0.0027l-0.14351 0.14299-0.14299-0.14351c-0.20064-0.20148-0.46427-0.29928-0.72766-0.29978z"/></svg>
