<svg viewBox="0 0 24 24" xmlns="http://www.w3.org/2000/svg"><path d="M7.726 9.83a.243.243 0 0 0-.06-.175L5.743 7.467a.243.243 0 0 0-.343-.022 10.003 10.003 0 0 0-2.18 2.723.243.243 0 0 0 .097.329l2.555 1.397a.241.241 0 0 0 .33-.097 6.614 6.614 0 0 1 1.442-1.8.242.242 0 0 0 .082-.166zm.858-.81a.243.243 0 0 0 .328.101 6.536 6.536 0 0 1 2.19-.704.243.243 0 0 0 .208-.273l-.391-2.887a.243.243 0 0 0-.273-.207A9.92 9.92 0 0 0 7.32 6.12a.243.243 0 0 0-.101.327zm-3.127 3.906-2.811-.762a.243.243 0 0 0-.298.17 10.026 10.026 0 0 0-.337 3.091.243.243 0 0 0 .254.231l2.91-.134a.243.243 0 0 0 .23-.254 6.637 6.637 0 0 1 .223-2.044.243.243 0 0 0-.171-.298zm10.881-6.98a9.926 9.926 0 0 0-3.364-.94.241.241 0 0 0-.265.217l-.28 2.9a.243.243 0 0 0 .218.264 6.538 6.538 0 0 1 2.215.62.242.242 0 0 0 .324-.113l1.265-2.624a.243.243 0 0 0-.113-.324zm4.278 4.072a.243.243 0 0 0-.027-.184 10.008 10.008 0 0 0-2.283-2.637.243.243 0 0 0-.341.035l-1.838 2.26a.243.243 0 0 0 .035.341 6.618 6.618 0 0 1 1.51 1.744.243.243 0 0 0 .333.084l2.5-1.494a.243.243 0 0 0 .11-.15zm.928 1.947a.243.243 0 0 0-.304-.159l-2.78.871a.243.243 0 0 0-.159.304 6.605 6.605 0 0 1 .293 2.287.242.242 0 0 0 .232.254l2.91.134a.243.243 0 0 0 .254-.231 10.025 10.025 0 0 0-.446-3.46zm-9.552 2.478c-.042 0-.084.002-.125.004L7.924 12.12a.25.25 0 0 0-.348.332l2.151 4.032a2.262 2.262 0 0 0 .655 1.845c.43.43 1.002.666 1.61.666s1.18-.236 1.61-.666c.43-.43.666-1.002.666-1.61s-.237-1.18-.667-1.61-1.001-.667-1.61-.667z"/></svg>