<svg viewBox="0 0 24 24" xmlns="http://www.w3.org/2000/svg"><path d="m21.585 10.963-4.019 3.281a.809.809 0 0 0-.274.819l1.216 4.963c.18.806-.434 1.473-1.122 1.473a1.14 1.14 0 0 1-.622-.192l-4.394-2.7a.808.808 0 0 0-.851.003l-4.342 2.7a1.11 1.11 0 0 1-.626.193c-.703 0-1.338-.667-1.117-1.473l1.216-4.967a.808.808 0 0 0-.27-.815l-3.966-3.277c-.814-.696-.347-2.034.696-2.091l5.135-.372a.801.801 0 0 0 .688-.5l1.964-4.77c.204-.496.654-.741 1.105-.741s.9.245 1.104.74l1.96 4.767a.814.814 0 0 0 .688.5l5.135.372c1.047.057 1.51 1.391.696 2.087z"/></svg>