<svg viewBox="0 0 24 24" xmlns="http://www.w3.org/2000/svg"><path d="M5.334 2c-.685 0-1.25.565-1.25 1.25v17.5c0 .685.565 1.25 1.25 1.25h13.332c.685 0 1.25-.565 1.25-1.25V3.25c0-.685-.565-1.25-1.25-1.25H5.334zm0 .834h13.332c.238 0 .418.178.418.416v.834H4.916V3.25c0-.238.18-.416.418-.416zm-.418 2.082h14.168V17H4.916V4.916zm0 12.918h14.168v2.916c0 .238-.18.416-.418.416H5.334a.407.407 0 0 1-.418-.416v-2.916zm7.084.832a.833.833 0 0 0-.834.834.833.833 0 0 0 .834.834.833.833 0 0 0 .834-.834.833.833 0 0 0-.834-.834z" color="#000" style="-inkscape-stroke:none"/></svg>