<?xml version="1.0" encoding="UTF-8"?>
<svg version="1.1" viewBox="0 0 24 24" xmlns="http://www.w3.org/2000/svg">
 <style type="text/css">.st0{fill:#FFFFFF;}
	.st1{fill:#8DC742;}</style>
 <path d="m5.334 2c-0.6853 0-1.25 0.5647-1.25 1.25v1.25 16.25c0 0.6853 0.5647 1.25 1.25 1.25h13.332c0.6853 0 1.25-0.5647 1.25-1.25v-16.25-1.25c0-0.6853-0.5647-1.25-1.25-1.25h-13.332zm0 0.83398h13.332c0.23804 0 0.41797 0.17797 0.41797 0.41602v0.83398h-14.168v-0.83398c0-0.23804 0.17993-0.41602 0.41797-0.41602zm-0.41797 2.082h14.168v12.084h-14.168v-12.084zm0 12.918h14.168v2.916c0 0.23804-0.17992 0.41602-0.41797 0.41602h-13.332c-0.23804 0-0.41797-0.17797-0.41797-0.41602v-2.916zm7.084 0.83203a0.83334 0.83334 0 0 0-0.83398 0.83398 0.83334 0.83334 0 0 0 0.83398 0.83398 0.83334 0.83334 0 0 0 0.83398-0.83398 0.83334 0.83334 0 0 0-0.83398-0.83398z" color="#000000" stroke-linecap="round" stroke-miterlimit="10" style="-inkscape-stroke:none"/>
</svg>
