<svg viewBox="0 0 24 24" xmlns="http://www.w3.org/2000/svg"><path d="M12 2C6.477 2 2 6.477 2 12s4.477 10 10 10 10-4.477 10-10S17.523 2 12 2zm0 2.959a3.096 3.096 0 0 1 3.092 3.092v1.635h.545c.3 0 .545.244.545.545v6.183a.544.544 0 0 1-.547.545h-7.27a.546.546 0 0 1-.547-.545v-6.183a.545.545 0 0 1 .545-.543h.545V8.05A3.096 3.096 0 0 1 12 4.959zm0 1.092a2.003 2.003 0 0 0-2 2v1.636h4V8.051a2.003 2.003 0 0 0-2-2zm-1.922 5.316a.064.064 0 0 0-.064.065v.74c0 .035.029.064.064.064 1.677 0 3.041 1.372 3.041 3.059 0 .036.029.064.065.064h.74a.064.064 0 0 0 .064-.064c0-2.166-1.754-3.928-3.91-3.928zm-.002 1.313a.064.064 0 0 0-.064.064v.74c0 .036.029.065.064.065.463 0 .899.18 1.227.51.327.33.508.769.508 1.236 0 .035.028.064.064.064h.74a.064.064 0 0 0 .065-.064 2.613 2.613 0 0 0-2.604-2.615zm.483 1.521a.577.577 0 1 0 .03 0h-.03z"/></svg>