<?xml version="1.0" encoding="UTF-8"?>
<svg version="1.1" viewBox="0 0 24 24" xmlns="http://www.w3.org/2000/svg">
 <style type="text/css">.st0{fill:#FFFFFF;}
	.st1{fill:#8DC742;}</style>
 <path d="m12.97 2.0004c-0.03748-5.099e-4 -0.07461 0.00983-0.11133 0.03125l-2.7832 1.6055c-0.14277 0.081584-0.14277 0.29537 0 0.37695l2.7832 1.6055c0.14685 0.085664 0.32617-0.020252 0.32617-0.1875v-0.88086h1.7207c1.1136 0 2.0195 0.9059 2.0195 2.0195h1.4512c0-1.9132-1.5575-3.4707-3.4707-3.4707h-1.7207v-0.88086c0-0.12544-0.10241-0.21722-0.21484-0.21875zm-7.1445 5.3125c-0.71387 0-1.293 0.5791-1.293 1.293v6.6582c0 0.71386 0.5791 1.293 1.293 1.293h12.348c0.71387 0 1.293-0.5791 1.293-1.293v-6.6582c0-0.71387-0.58318-1.297-1.293-1.293zm1.3262 1.1055h9.6191c-0.02855 0.10198-0.04101 0.20822-0.04101 0.31836 0 0.72202 0.58657 1.3105 1.3086 1.3105 0.10736 0 0.21465-0.01561 0.31445-0.03906v4.0156c-0.10198-0.02447-0.21213-0.04102-0.32227-0.04102-0.72202 0-1.3086 0.58657-1.3086 1.3086 0 0.05711 0.0035 0.11103 0.01172 0.16406h-9.582c0.01631-0.07751 0.02344-0.15865 0.02344-0.24023 0-0.72202-0.58657-1.3105-1.3086-1.3105-0.0775 0-0.15509 0.0092-0.22852 0.02148v-3.9785c0.07343 0.012236 0.15101 0.021484 0.22852 0.021484 0.72202 0 1.3086-0.58852 1.3086-1.3105 0-0.081585-0.0071-0.16273-0.02344-0.24023zm4.8457 0.68164c-1.5664 0-2.8359 1.2695-2.8359 2.8359 0 1.5664 1.2695 2.834 2.8359 2.834s2.8359-1.2676 2.8359-2.834c0-1.5664-1.2695-2.84-2.8359-2.8359zm-0.60742 0.83789h0.23047c0.04153 6.1e-5 0.07422 0.034639 0.07422 0.076172 0 0.0023 1.81e-4 0.0036 0 0.0059v0.53125c0.10146-0.0021 0.20272-0.0039 0.30274-0.0039v-0.5332h2e-3c0-0.041472 0.03275-0.076112 0.07422-0.076172h0.23047c0.04153 5.9e-5 0.07422 0.034639 0.07422 0.076172 0 0.0018 1.2e-4 0.0022 0 0.0039v0.54492c0.49089 0.04279 0.87842 0.1941 0.92188 0.64453 0.03234 0.3295-0.10381 0.52633-0.32422 0.63867 0.36292 0.08691 0.58952 0.3038 0.54492 0.78711-0.0553 0.6004-0.50335 0.76186-1.1426 0.79883v0.55469c0 0.04147-0.03275 0.07611-0.07422 0.07617h-0.23047c-0.04147 0-0.07416-0.0347-0.07422-0.07617v-0.54688c-0.09857 3e-4 -0.2004 1.47e-4 -0.30469-2e-3v0.54883c0 0.04147-0.03275 0.07611-0.07422 0.07617h-0.22852c-0.04153 0-0.07617-0.0347-0.07617-0.07617v-0.55664c-0.08896-5e-4 -0.1794-2e-3 -0.27148-2e-3h-0.49609c-0.03931-0.0025-0.07031-0.03431-0.07031-0.07422 0-0.0029 0.0017-5e-3 2e-3 -0.0078l-2e-3 -2e-3 0.07031-0.31055h2e-3c0.0073-0.03396 0.03615-0.05859 0.07227-0.05859h2e-3s0.28029 0.0043 0.27539 0c0.10759-1.8e-4 0.13588-0.0785 0.14258-0.12695v-1.7109c-0.01461-0.07711-0.06476-0.16596-0.21875-0.16602 0.0047-5e-3 -0.27539 0-0.27539 0v-0.0019c-0.04153 0-0.07617-0.03269-0.07617-0.07422v-0.25391c0-0.04153 0.03464-0.07617 0.07617-0.07617h0.52344v0.0019c0.07886 0 0.15984-0.0022 0.24219-0.0039v-0.54883h2e-3c0-0.041474 0.03275-0.076112 0.07422-0.076172zm0.54297 1.0566c-0.0934-5.6e-4 -0.17681 0.0039-0.23047 0.0039v0.75976c0.21464-1.2e-4 0.89068 0.04878 0.89062-0.38086-1.81e-4 -0.33602-0.37996-0.38113-0.66016-0.38281zm-4.0605 0.15234c-0.4324 0-0.78711 0.35259-0.78711 0.78906 0 0.4324 0.35063 0.78711 0.78711 0.78711 0.4324 0 0.78906-0.35063 0.78906-0.78711s-0.35666-0.78906-0.78906-0.78906zm8.248 0c-0.4324 0-0.78711 0.35259-0.78711 0.78906 0 0.4324 0.35063 0.78711 0.78711 0.78711 0.4324 0 0.78906-0.35063 0.78906-0.78711s-0.35666-0.78906-0.78906-0.78906zm-4.1426 0.99024c-0.11201-7.19e-4 -0.209 0.0039-0.27344 0.0039v0.83594c0.25774-4.2e-4 1.0648 0.05423 1.0645-0.41797-1.35e-4 -0.36934-0.45499-0.41972-0.79102-0.42188zm-6.377 5.293c0 1.9132 1.5575 3.4707 3.4707 3.4707h1.7227v0.88086c0 0.16725 0.17932 0.27316 0.32617 0.1875l2.7812-1.6055c0.14277-0.08159 0.14277-0.29537 0-0.37695l-2.7812-1.6055c-0.14685-0.08566-0.32617 0.02026-0.32617 0.1875v0.88086h-1.7227c-1.1136 0-2.0176-0.9059-2.0176-2.0195h-1.4531z" stroke-width=".040792"/>
</svg>
