<svg viewBox="0 0 24 24" xmlns="http://www.w3.org/2000/svg"><path d="M7.997 14.719c-1.2.02-1.99.393-2.49.607a.926.926 0 0 0-.853-.439l-1.7.113c-.566.037-.99.509-.953 1.055l.274 3.775c.04.546.53.957 1.096.916l1.699-.113a.906.906 0 0 0 .78-.547l7.464.322c.831.09 1.61-.013 2.344-.396l.213-.11 5.642-3.3c.277-.163.474-.444.487-.754.012-.38-.205-.8-.743-.84-.383-.028-1.174.4-1.39.51-.77.387-1.842.993-2.547 1.478-.05.033-.113.08-.162.112a3.087 3.087 0 0 1-1.024.42c-2.045.436-5.023.48-5.023.48l-.176.008a.25.25 0 0 1-.265-.211.248.248 0 0 1 .228-.281l4.43-.42a.943.943 0 0 0 .824-1.024.941.941 0 0 0-1.016-.836l-3.941-.048a4.184 4.184 0 0 1-.953-.147c-.873-.255-1.615-.34-2.244-.33zm-4.003 4.018a.57.57 0 0 1 .58.558c0 .31-.263.559-.58.559s-.579-.25-.579-.559.26-.558.579-.558zM5.85 3.552a1.277 1.277 0 0 0-1.208 1.274v6.562c0 .702.571 1.273 1.273 1.273h12.17c.701 0 1.273-.571 1.273-1.273V4.826c0-.702-.572-1.274-1.274-1.274H5.851zM7.227 4.64h9.476a1.257 1.257 0 0 0-.043.316 1.29 1.29 0 0 0 1.608 1.249v3.963a1.284 1.284 0 0 0-.312-.043 1.29 1.29 0 0 0-1.28 1.45H7.225a1.29 1.29 0 0 0-1.498-1.508v-3.92a1.29 1.29 0 0 0 1.498-1.508zm4.775.675a2.793 2.793 0 0 0-2.794 2.791c0 1.01.54 1.895 1.344 2.385a.913.913 0 0 1 .134-.114l.743-.449a.044.044 0 0 0 .02-.037v-.147c-.317-.157-.538-.445-.658-.862a.543.543 0 0 1-.304-.486v-.207c0-.175.085-.331.224-.424a2.123 2.123 0 0 1 .21-.703c.059-.126.062-.132.02-.361a3.47 3.47 0 0 1-.038-.26.155.155 0 0 1 .037-.121c.065-.072.193-.06.25.025a1.1 1.1 0 0 0 .196.209c.22.188.457.235.619.242a.937.937 0 0 1 .104.01c.713.094 1.1.461 1.182 1.121a.51.51 0 0 1 .159.374v.174c0 .175-.086.33-.22.41-.091.364-.27.632-.528.797v.142c0 .008.004.013.005.015l.564.289c.108.055.196.15.254.274l.015.035A2.79 2.79 0 0 0 12 5.315zM7.94 7.33a.777.777 0 0 0-.775.776c0 .426.349.775.775.775s.775-.35.775-.775a.777.777 0 0 0-.775-.776zm8.127 0a.777.777 0 0 0-.775.776c0 .426.348.775.775.775s.775-.35.775-.775a.777.777 0 0 0-.775-.776z"/></svg>