<svg viewBox="0 0 24 24" xmlns="http://www.w3.org/2000/svg"><path d="M4.566 16.068 2 14.332l.246-.343 2.479 1.676c1.001-.27 6.11-1.35 6.849 4.475 0 0-6.692 2.133-7.008-4.072zm3.271-6.346c.036.043.072.088.109.124.44.427 1.152.427 1.591 0a1.072 1.072 0 0 0 .04-1.504c.608-.014 1.099-.498 1.099-1.094 0-.605-.506-1.096-1.126-1.096-.05 0-.102.006-.155.01.029-.023.063-.047.087-.072a1.073 1.073 0 0 0 0-1.55 1.147 1.147 0 0 0-1.591 0c-.034.032-.065.075-.098.115a.963.963 0 0 0 .005-.092c0-.605-.504-1.096-1.125-1.096a1.11 1.11 0 0 0-1.12 1.036 1.145 1.145 0 0 0-1.558.027 1.078 1.078 0 0 0 0 1.55c.05.048.109.094.169.139a1.324 1.324 0 0 0-.141-.009c-.622 0-1.125.49-1.125 1.097 0 .601.499 1.09 1.116 1.095a1.075 1.075 0 0 0 .011 1.536 1.145 1.145 0 0 0 1.581.008v.002c0 .506.662 1.019 1.128.954.487-.074.948-.433 1.103-1.18zM5.772 7.247a.97.97 0 0 1 .982-.956.97.97 0 0 1 .981.956.97.97 0 0 1-.981.957.97.97 0 0 1-.982-.957zM18.23 4.815c-1.344-.564-2.884.04-3.434 1.349s.095 2.831 1.439 3.396 2.883-.04 3.433-1.348c.55-1.308-.096-2.832-1.439-3.397zm-.291-.693.989.416a.238.238 0 0 0 .221-.01.225.225 0 0 0 .1-.192l.03-1.593c.003-.127-.06-.173-.099-.19s-.115-.028-.204.062l-1.118 1.136a.225.225 0 0 0-.067.206.24.24 0 0 0 .148.165zm-1.414 6.131-.99-.415a.238.238 0 0 0-.22.01.225.225 0 0 0-.1.191l-.03 1.594c-.003.127.06.172.099.188s.115.03.204-.06l1.118-1.137a.225.225 0 0 0 .067-.206.238.238 0 0 0-.148-.165zM15.19 4.277a.228.228 0 0 0 .137.213.248.248 0 0 0 .187-.002l.986-.387a.226.226 0 0 0 .146-.16.232.232 0 0 0-.069-.209L15.45 2.564a.27.27 0 0 0-.088-.064.15.15 0 0 0-.142.01c-.034.022-.075.07-.072.172zm4.083 5.821a.228.228 0 0 0-.136-.213.248.248 0 0 0-.187.002l-.986.387c-.078.031-.131.09-.146.16s.01.148.068.209l1.128 1.168a.27.27 0 0 0 .087.064.15.15 0 0 0 .143-.01c.034-.022.075-.07.072-.172zm1.09-3.571a.248.248 0 0 0 .13.135.228.228 0 0 0 .247-.052l1.17-1.085c.074-.07.08-.132.072-.172a.15.15 0 0 0-.093-.108.27.27 0 0 0-.106-.019l-1.624.012a.232.232 0 0 0-.197.097.226.226 0 0 0-.012.217zm-6.262 1.322a.248.248 0 0 0-.13-.136.228.228 0 0 0-.247.052l-1.17 1.085c-.074.07-.08.132-.072.172a.15.15 0 0 0 .093.109.27.27 0 0 0 .106.018l1.624-.012a.232.232 0 0 0 .197-.096.227.227 0 0 0 .012-.217zm7.822 1.137-1.178-1.119a.276.276 0 0 0-.083-.055c-.118-.05-.241.004-.293.128l-.405.963c-.052.123-.004.25.114.299.03.012.062.02.097.02l1.624.06c.13.004.175-.057.19-.094.016-.037.028-.113-.066-.202zm-8.121-2.423c.118.05.241-.004.293-.127l.405-.964c.052-.123.004-.249-.114-.298a.276.276 0 0 0-.097-.021l-1.624-.06c-.13-.004-.175.057-.19.094-.016.037-.028.113.066.202l1.178 1.119a.277.277 0 0 0 .083.055zm4.013 14.814-.26-1.071-.506.479-.33-.105-.091-.377.752-.717-.172-.704-.599.584-.181-.746-.614.524.246 1.012-.238.278-.282-.13-.164-.678-.847.764-.466-.065-.103-.427.864-.778-.72-.15-.095-.393.325-.28 1.038.296.547-.506-.017-.007-.729-.203.533-.528-.711-.2-.787.737-.386-.08-.095-.389.538-.485-1.094-.28-.104-.427.36-.287 1.125.299-.168-.689.214-.254.388.117.241 1.034.73.202-.171-.73.772.188-.171-.704-.998-.292-.09-.374.244-.247.669.194-.26-1.07.294-.308.406.138.26 1.07.6-.51.416.117.081.337-.923.775.172.704.606-.553.186.766.614-.522-.267-1.102.219-.208.305.08.171.704.896-.769.427.114.097.399-.83.77.69.18.093.381-.279.247-1.061-.307-.548.552.713.226-.553.514.741.176.82-.734.363.13.088.363-.503.46 1.06.31.103.42-.399.283-1.08-.272.162.668-.223.242-.302-.114-.247-1.014-.79-.204.171.704-.793-.213.171.704.998.292.096.398-.25.223-.669-.193.26 1.071-.296.307zm-1.185-3.755.45.41.614-.149.163-.56-.425-.45-.615.15z"/></svg>