<?xml version="1.0" encoding="UTF-8"?>
<svg version="1.1" viewBox="0 0 24 24" xml:space="preserve" xmlns="http://www.w3.org/2000/svg">
<path d="m12 22c5.4609 0 9.9999-4.5294 9.9999-9.9999 0-5.4609-4.549-9.9999-10.01-9.9999-5.4705 0-9.9903 4.5394-9.9903 9.9999 0 5.4705 4.5294 9.9999 9.9999 9.9999zm-2.6569-4.9707c-0.42156 0-0.73529-0.36271-0.64707-0.77448l0.41177-2.0393h-0.92156c-0.34313 0-0.58821-0.25487-0.58821-0.598 0-0.40194 0.29411-0.69609 0.68626-0.69609h1.098l0.44118-2.0882h-0.90198c-0.34313 0-0.598-0.25487-0.598-0.60783 0-0.39216 0.3039-0.69609 0.68622-0.69609h1.0882l0.45101-2.1078c0.0686-0.39216 0.32351-0.58826 0.73529-0.58826 0.43135 0 0.7255 0.36275 0.63724 0.77452l-0.39216 1.9215h1.9118l0.44118-2.1078c0.07843-0.39216 0.34313-0.58826 0.74512-0.58826 0.42156 0 0.72546 0.35296 0.64703 0.77452l-0.39216 1.9215h0.91177c0.33334 0 0.57843 0.25491 0.57843 0.60787 0 0.40194-0.28432 0.69605-0.68626 0.69605h-1.0784l-0.45097 2.0882h0.90194c0.34313 0 0.58826 0.25491 0.58826 0.59804 0 0.40194-0.29415 0.69605-0.6863 0.69605h-1.0686l-0.47063 2.2157c-0.07839 0.39216-0.34313 0.59804-0.7647 0.59804-0.41177 0-0.70588-0.36271-0.62745-0.77448l0.42156-2.0294h-1.9118l-0.47059 2.2059c-0.0686 0.39216-0.32351 0.59804-0.7255 0.59804zm1.3824-3.9902h2.0686l0.48042-2.3039h-2.0687z"/></svg>
