<?xml version="1.0" encoding="UTF-8"?>
<svg version="1.1" viewBox="0 0 24 24" xmlns="http://www.w3.org/2000/svg">
 <style type="text/css">.st0{fill:#FFFFFF;}
	.st1{fill:#8DC742;}</style>
 <path d="m4.1387 3.8164c-1.1846 1e-7 -2.1387 0.95402-2.1387 2.1387v8.0488c0 1.1846 0.95402 2.1387 2.1387 2.1387h2.6133l-0.71875 4.041 5.4453-4.041h8.3828c1.1846 0 2.1387-0.95402 2.1387-2.1387v-8.0488c0-1.1846-0.95403-2.1387-2.1387-2.1387h-15.723zm1.8125 2.9277c0.97417 0 1.7656 0.79341 1.7656 1.7676v1.7656c0 0.97417-0.79146 1.7656-1.7656 1.7656-0.97417 0-1.7656-0.79146-1.7656-1.7656v-1.7656c0-0.97417 0.79146-1.7676 1.7656-1.7676zm6.0488 0c0.97417 0 1.7656 0.79341 1.7656 1.7676v1.7656c0 0.97417-0.79146 1.7656-1.7656 1.7656-0.97417 0-1.7656-0.79146-1.7656-1.7656v-1.7656c0-0.97417 0.79146-1.7676 1.7656-1.7676zm6.0488 0c0.97417 0 1.7676 0.79341 1.7676 1.7676v1.7656c0 0.97417-0.79341 1.7656-1.7676 1.7656-0.97417 0-1.7656-0.79146-1.7656-1.7656v-1.7656c0-0.97417 0.79146-1.7676 1.7656-1.7676zm-12.393 1.7676c-0.16281 0-0.29297 0.13046-0.29297 0.29297 0 0.16251 0.13017 0.29492 0.29297 0.29492h0.58984c0.1628 0 0.29297-0.13241 0.29297-0.29492 0-0.16251-0.13017-0.29297-0.29297-0.29297h-0.58984zm6.0488 0c-0.16281 0-0.29297 0.13046-0.29297 0.29297s0.13017 0.29492 0.29297 0.29492h0.58984c0.1628 0 0.29297-0.13241 0.29297-0.29492s-0.13017-0.29297-0.29297-0.29297h-0.58984zm6.0488 0c-0.16281 0-0.29297 0.13046-0.29297 0.29297-1e-6 0.16251 0.13017 0.29492 0.29297 0.29492h0.58984c0.1628 0 0.29297-0.13241 0.29297-0.29492s-0.13017-0.29297-0.29297-0.29297h-0.58984zm-14.158 1.1777c0.1628 0 0.29492 0.13046 0.29492 0.29297v0.29492c0 1.1364 0.92447 2.0605 2.0605 2.0605s2.0605-0.92415 2.0605-2.0605v-0.29492c-1e-7 -0.16251 0.13212-0.29297 0.29492-0.29297 0.1628 0 0.29492 0.13046 0.29492 0.29297v0.29492c0 1.3613-1.0327 2.4859-2.3555 2.6328v0.31055h0.58789c0.1628 0 0.29492 0.13241 0.29492 0.29492 1e-7 0.16251-0.13212 0.29492-0.29492 0.29492h-1.7656c-0.1628 0-0.29492-0.13241-0.29492-0.29492-1e-7 -0.16251 0.13212-0.29492 0.29492-0.29492h0.58789v-0.31055c-1.3228-0.14689-2.3555-1.2715-2.3555-2.6328v-0.29492c1e-7 -0.16251 0.13212-0.29297 0.29492-0.29297zm2.0605 0c-0.16281 0-0.29297 0.13046-0.29297 0.29297 0 0.16251 0.13017 0.29492 0.29297 0.29492h0.58984c0.16281 0 0.29297-0.13241 0.29297-0.29492 0-0.16251-0.13017-0.29297-0.29297-0.29297h-0.58984zm3.9883 0c0.1628 0 0.29492 0.13046 0.29492 0.29297v0.29492c0 1.1364 0.92447 2.0605 2.0605 2.0605 1.1361 0 2.0605-0.92415 2.0605-2.0605v-0.29492c0-0.16251 0.13212-0.29297 0.29492-0.29297 0.1628 0 0.29492 0.13046 0.29492 0.29297v0.29492c0 1.3613-1.0327 2.4859-2.3555 2.6328v0.31055h0.58789c0.1628 0 0.29492 0.13241 0.29492 0.29492 0 0.16251-0.13212 0.29492-0.29492 0.29492h-1.7656c-0.1628 0-0.29492-0.13241-0.29492-0.29492 0-0.16251 0.13212-0.29492 0.29492-0.29492h0.58789v-0.31055c-1.3228-0.14689-2.3555-1.2715-2.3555-2.6328v-0.29492c0-0.16251 0.13212-0.29297 0.29492-0.29297zm2.0605 0c-0.16281 0-0.29297 0.13046-0.29297 0.29297 0 0.16251 0.13017 0.29492 0.29297 0.29492h0.58984c0.16281 0 0.29297-0.13241 0.29297-0.29492 0-0.16251-0.13017-0.29297-0.29297-0.29297h-0.58984zm3.9883 0c0.1628 0 0.29492 0.13046 0.29492 0.29297v0.29492c0 1.1364 0.92447 2.0605 2.0605 2.0605s2.0605-0.92415 2.0605-2.0605v-0.29492c0-0.16251 0.13212-0.29297 0.29492-0.29297 0.1628 0 0.29492 0.13046 0.29492 0.29297v0.29492c0 1.3613-1.0327 2.4859-2.3555 2.6328v0.31055h0.58789c0.1628 0 0.29492 0.13241 0.29492 0.29492 0 0.16251-0.13212 0.29492-0.29492 0.29492h-1.7656c-0.1628 0-0.29492-0.13241-0.29492-0.29492 0-0.16251 0.13212-0.29492 0.29492-0.29492h0.58789v-0.31055c-1.3228-0.14689-2.3535-1.2715-2.3535-2.6328v-0.29492c0-0.16251 0.13017-0.29297 0.29297-0.29297zm2.0605 0c-0.16281 0-0.29297 0.13046-0.29297 0.29297-1e-6 0.16251 0.13017 0.29492 0.29297 0.29492h0.58984c0.16281 0 0.29297-0.13241 0.29297-0.29492 0-0.16251-0.13017-0.29297-0.29297-0.29297h-0.58984z"/>
 <style type="text/css">.st0{fill:#FFFFFF;}
	.st1{fill:#8DC742;}</style>
</svg>
