<svg viewBox="0 0 24 24" xmlns="http://www.w3.org/2000/svg"><path d="M20.34 2H9.893c-.915 0-1.66.745-1.66 1.66v1.457H6.776c-.916 0-1.66.744-1.66 1.66v1.457H3.659c-.915 0-1.66.745-1.66 1.66V20.34c0 .915.745 1.66 1.66 1.66h10.447c.915 0 1.66-.745 1.66-1.66v-1.457h1.458c.915 0 1.66-.745 1.66-1.66v-1.457h1.456c.915 0 1.66-.745 1.66-1.66V3.66C22 2.745 21.255 2 20.34 2zM3.406 9.894c0-.14.114-.254.253-.254h10.447c.14 0 .254.114.254.254v7.487l-3.186-.237-1.46-1.674a.528.528 0 0 0-.726-.066l-1.187.947-1.325-2.976a.529.529 0 0 0-.931-.062l-2.14 3.472zm10.954 8.835H3.447l2.47-4.012 1.197 2.686a.53.53 0 0 0 .811.198l1.326-1.058 1.27 1.458a.53.53 0 0 0 .36.179l3.478.258v.291zm0 1.611c0 .14-.115.254-.254.254H3.66a.254.254 0 0 1-.253-.254v-.556H14.36zm3.117-3.117c0 .14-.114.254-.254.254h-1.457V9.893c0-.914-.745-1.66-1.66-1.66H6.522V6.777c0-.14.114-.253.254-.253h10.448c.139 0 .253.113.253.253v10.447zm3.116-3.116c0 .14-.114.253-.253.253h-1.457V6.777c0-.915-.744-1.66-1.66-1.66H9.64V3.66c0-.14.114-.253.254-.253H20.34c.14 0 .253.113.253.253v10.447z"/><path d="M10.998 14.062a1.643 1.643 0 1 0 0-3.286 1.643 1.643 0 0 0 0 3.286z"/></svg>