<?xml version="1.0" encoding="UTF-8"?>
<svg version="1.1" viewBox="0 0 24 24" xml:space="preserve" xmlns="http://www.w3.org/2000/svg"><path d="m12 2a10 10 0 0 0-10 10 10 10 0 0 0 10 10 10 10 0 0 0 10-10 10 10 0 0 0-10-10zm-6.6621 7h3.043c0.10495 8.25e-5 0.19135 0.1181 0.19141 0.26367v4.0723c0 0.49826-0.35944 0.90234-0.80273 0.90234-0.44336 0-0.80273-0.404-0.80273-0.90234 0-0.49834 0.35938-0.90234 0.80273-0.90234 0.073021 0 0.14173 0.012663 0.20898 0.033203v-2.1777h-2.2383v3.8086c0 0.49826-0.35944 0.90234-0.80273 0.90234-0.44336 0-0.80273-0.40408-0.80273-0.90234 0-0.49834 0.35938-0.90234 0.80273-0.90234 0.07302 1e-6 0.14368 0.012664 0.21094 0.033204v-3.9648c0-0.14549 0.084561-0.26367 0.18945-0.26367zm6.6621 0c0.54088 0 0.98047 0.43959 0.98047 0.98047v1.9531c0 0.54088-0.43959 0.98047-0.98047 0.98047-0.54089 1e-6 -0.98047-0.43958-0.98047-0.98047v-1.9531c0-0.54088 0.43958-0.98047 0.98047-0.98047zm4.168 0h3.0215c0.10841 0 0.19726 0.087091 0.19727 0.19531 0 0.069405-0.037597 0.13122-0.091797 0.16602l0.22266 0.73242c0.19631 0.0293 0.34766 0.1978 0.34766 0.40234v4.0977c0 0.22487-0.18332 0.40625-0.4082 0.40625h-3.5449c-0.26699 0-0.48438-0.21543-0.48438-0.48242v-4.7773c-1.88e-4 -0.20363 0.083119-0.39031 0.2168-0.52344 0.13313-0.13368 0.31962-0.2168 0.52344-0.2168zm0 0.39062c-0.096877 0-0.18255 0.040334-0.24609 0.10352-0.063357 0.063733-0.10156 0.1494-0.10156 0.24609 1e-6 0.096689 0.038203 0.18218 0.10156 0.24609 0.063545 0.063169 0.14921 0.10156 0.24609 0.10156h3.0469l-0.21094-0.69727h-2.8359zm-6.0488 1.9609h0.42773v0.58203c1.4e-4 0.40081 0.16239 0.76354 0.42578 1.0273 0.26381 0.26341 0.62652 0.42383 1.0273 0.42383 0.4008 0 0.76352-0.16042 1.0273-0.42383 0.26339-0.2638 0.42564-0.62652 0.42578-1.0273v-0.58203h0.42773v0.58203c-4.22e-4 0.96527-0.7292 1.7603-1.666 1.8672v0.81836h0.54688v0.38086h-1.5234v-0.38086h0.54688v-0.81836c-0.93697-0.10685-1.6656-0.90192-1.666-1.8672v-0.58203z"/>
</svg>