<svg viewBox="0 0 24 24" xmlns="http://www.w3.org/2000/svg"><path d="M12 2A10 10 0 0 0 2 12a10 10 0 0 0 10 10 10 10 0 0 0 10-10A10 10 0 0 0 12 2zm-1.695 3.998h.002a4.28 4.28 0 0 1 3.045 1.264 4.313 4.313 0 0 1 .7 5.164l3.636 3.635a1.151 1.151 0 0 1-1.63 1.627l-3.63-3.633a4.278 4.278 0 0 1-2.121.56 4.283 4.283 0 0 1-3.047-1.261 4.314 4.314 0 0 1 0-6.092 4.279 4.279 0 0 1 3.045-1.264zm0 1.209a3.08 3.08 0 0 0-2.192.908 3.105 3.105 0 0 0 0 4.383 3.084 3.084 0 0 0 2.194.908 3.08 3.08 0 0 0 2.191-.908 3.106 3.106 0 0 0 0-4.383 3.084 3.084 0 0 0-2.193-.908zm-.387.473c1.7 0 3.086 1.391 3.086 3.1a.051.051 0 0 1-.053.048h-.584a.047.047 0 0 1-.049-.049 2.41 2.41 0 0 0-2.4-2.412.05.05 0 0 1-.05-.05V7.73a.05.05 0 0 1 .05-.05zm-.01 1.037h.01a2.059 2.059 0 0 1 2.053 2.06.052.052 0 0 1-.051.051h-.584a.05.05 0 0 1-.049-.05 1.371 1.371 0 0 0-.402-.975 1.357 1.357 0 0 0-.967-.403.05.05 0 0 1-.05-.05v-.583a.052.052 0 0 1 .04-.05z"/></svg>