<?xml version="1.0" encoding="UTF-8"?>
<svg version="1.1" viewBox="0 0 24 24" xmlns="http://www.w3.org/2000/svg">
 <path d="m9.7411 7.3895h4.5177c0.45342 0 0.82028-0.36686 0.82028-0.82028v-0.55647c0-0.45342-0.36686-0.82028-0.82028-0.82028h-0.25556v-0.35037c0-0.34625-0.2803-0.63067-0.63067-0.63067h-2.7453c-0.34625 0-0.63067 0.2803-0.63067 0.63067v0.35037h-0.25556c-0.45342 0-0.82028 0.36686-0.82028 0.82028v0.55647c0 0.45342 0.36686 0.82028 0.82028 0.82028z" stroke-width=".04122"/>
 <path d="m19.7 6.3631h-3.8582v0.2061c0 0.87387-0.70899 1.5829-1.5829 1.5829h-4.5177c-0.87387 0-1.5829-0.70899-1.5829-1.5829v-0.2061h-3.8582c-1.2696 0-2.3001 1.0305-2.3001 2.3001v8.8252c0 1.2696 1.0305 2.3001 2.3001 2.3001h15.4c1.2696 0 2.3001-1.0305 2.3001-2.3001v-8.8293c0-1.2696-1.0305-2.296-2.3001-2.296zm-12.069 10.981c-2.3083 0-4.1797-1.8714-4.1797-4.1797 0-2.3083 1.8714-4.1797 4.1797-4.1797s4.1797 1.8714 4.1797 4.1797c0 2.3083-1.8714 4.1797-4.1797 4.1797zm12.123-2.0363h-6.7106v-0.85738h6.7106zm0-1.8054h-6.7106v-0.85738h6.7106zm0-1.8054h-6.7106v-0.85738h6.7106z" stroke-width=".04122"/>
 <g transform="matrix(.012423 0 0 .012423 4.4403 10.048)">
  <g>
   <g>
    <g>
     <path d="m426.67 213.33c-11.797 0-21.333 9.557-21.333 21.333v21.334c0 82.347-67.008 149.33-149.33 149.33s-149.33-66.986-149.33-149.33v-21.333c0-11.776-9.536-21.333-21.333-21.333s-21.333 9.557-21.333 21.333v21.333c0 98.645 74.816 180.1 170.67 190.74v22.592h-42.668c-11.797 0-21.333 9.557-21.333 21.333s9.536 21.334 21.333 21.334h128c11.797 0 21.333-9.557 21.333-21.333s-9.536-21.333-21.333-21.333h-42.667v-22.592c95.851-10.646 170.67-92.097 170.67-190.74v-21.333c0-11.776-9.536-21.334-21.333-21.334z"/>
     <path d="m256 384c70.592 0 128-57.408 128-128v-128c0-70.592-57.408-128-128-128s-128 57.408-128 128v128c0 70.592 57.408 128 128 128zm-21.333-256h42.667c11.797 0 21.333 9.557 21.333 21.333s-9.536 21.333-21.333 21.333h-42.667c-11.797 0-21.333-9.557-21.333-21.333s9.535-21.333 21.333-21.333zm0 85.333h42.667c11.797 0 21.333 9.557 21.333 21.333s-9.536 21.334-21.334 21.334h-42.667c-11.797 0-21.333-9.557-21.333-21.333s9.536-21.334 21.334-21.334z"/>
    </g>
   </g>
  </g>
 </g>
</svg>
