<svg viewBox="0 0 24 24" xmlns="http://www.w3.org/2000/svg"><path d="M12 2C6.477 2 2 6.477 2 12s4.477 10 10 10 10-4.477 10-10S17.523 2 12 2zm-.408 4h.818a.754.754 0 0 0 .434.607c.264.133.627.2 1.09.2h2.132c.711 0 1.211.163 1.5.494.29.339.434.826.434 1.463h-.83c0-.347-.092-.59-.274-.73-.173-.141-.446-.212-.818-.212H13.96c-.967 0-1.62-.285-1.959-.855-.339.57-.992.855-1.959.855h-2.12c-.371 0-.644.07-.817.211-.182.14-.274.384-.274.73H6c0-.636.144-1.123.434-1.462.289-.33.789-.494 1.5-.494h2.132c.463 0 .822-.067 1.078-.2.265-.132.415-.334.448-.607zM18 9v4.725a5.452 5.452 0 0 1-.281.074c-.106.02-.218.04-.336.056a4.675 4.675 0 0 1-.356.038 3.288 3.288 0 0 1-.343.017c-.266 0-.501-.038-.71-.117a1.447 1.447 0 0 1-.527-.336 1.547 1.547 0 0 1-.33-.535 2.163 2.163 0 0 1-.11-.711c0-.266.033-.503.098-.715.066-.216.16-.4.282-.549.122-.15.272-.263.447-.342a1.52 1.52 0 0 1 .611-.117c.127 0 .238.012.336.037.102.025.205.06.307.106V9.148L18 9zm-4.154.063a.53.53 0 0 1 .379.148c.11.095.164.228.164.398s-.054.305-.164.405a.548.548 0 0 1-.38.144.575.575 0 0 1-.386-.144.527.527 0 0 1-.158-.405c0-.17.052-.303.158-.398.11-.1.24-.148.387-.148zM7.64 10.48c.11 0 .221.008.336.02a3.625 3.625 0 0 1 .673.1c.106.02.2.043.282.068v2.752c0 .535-.135.93-.405 1.187-.265.262-.677.393-1.236.393-.196 0-.392-.02-.588-.057a3.386 3.386 0 0 1-.545-.136l.16-.778c.143.058.293.104.448.137.159.033.337.049.537.049.26 0 .444-.058.55-.174a.623.623 0 0 0 .167-.447v-.12a1.57 1.57 0 0 1-.307.106c-.102.02-.214.031-.336.031-.445 0-.785-.132-1.022-.398-.236-.27-.355-.644-.355-1.125 0-.24.036-.46.11-.654.073-.2.179-.369.318-.51.143-.141.317-.25.521-.324.204-.08.435-.12.692-.12zm2.117.077h.91v1.71c0 .3.04.514.117.647.078.133.222.2.434.2.065 0 .135-.002.209-.007a6.31 6.31 0 0 0 .195-.025v-2.525h.912v3.16a4.683 4.683 0 0 1-.6.125 4.614 4.614 0 0 1-.77.062 1.83 1.83 0 0 1-.686-.111 1.052 1.052 0 0 1-.428-.313 1.259 1.259 0 0 1-.227-.484 2.647 2.647 0 0 1-.066-.617v-1.822zm3.635 0h.912v3.273h-.912v-3.273zm-5.746.672c-.241 0-.421.08-.54.242-.118.162-.177.368-.177.617 0 .519.207.777.619.777.094 0 .18-.012.262-.037s.151-.055.209-.088v-1.48a1.417 1.417 0 0 0-.16-.02 1.604 1.604 0 0 0-.213-.011zm8.939.043c-.432 0-.648.298-.648.896 0 .286.063.517.189.691.126.175.314.262.563.262.081 0 .157-.004.226-.008.07-.008.127-.015.172-.023v-1.688a1.025 1.025 0 0 0-.502-.13zM6 15.236h.83c0 .347.092.59.274.73.173.141.446.212.818.212h2.119c.967 0 1.62.285 1.959.855.339-.57.992-.855 1.959-.855h2.12c.371 0 .644-.07.817-.211.182-.14.274-.384.274-.73H18c0 .636-.144 1.118-.434 1.449-.289.338-.789.507-1.5.507h-2.132c-.463 0-.826.067-1.09.2a.757.757 0 0 0-.436.607h-.818c-.033-.273-.181-.475-.445-.607-.257-.133-.616-.2-1.079-.2H7.934c-.711 0-1.211-.169-1.5-.507-.29-.331-.434-.813-.434-1.45z"/></svg>