<svg viewBox="0 0 24 24" xmlns="http://www.w3.org/2000/svg"><path d="M6 8a4 4 0 0 0-4 4 4 4 0 0 0 4 4 4 4 0 0 0 2.824-1.18 4.25 4.25 0 0 1-.969-1.927v.728a.235.235 0 0 1-.232.234H4.377a.235.235 0 0 1-.232-.234v-3.248a.23.23 0 0 1 .232-.228h3.246a.23.23 0 0 1 .232.228v.735a4.25 4.25 0 0 1 .973-1.932A4 4 0 0 0 6 8zm6 0a4 4 0 0 0-4 4 4 4 0 0 0 4 4 4 4 0 0 0 4-4 4 4 0 0 0-4-4zm6 0a4 4 0 0 0-2.822 1.18A4.25 4.25 0 0 1 16.25 12a4.25 4.25 0 0 1-1.074 2.82A4 4 0 0 0 18 16a4 4 0 0 0 4-4 4 4 0 0 0-4-4zm.742 1.262c.01 0 .02.001.03.004l.32.076c.08.02.13.1.11.181l-.01.041.054.014c.205.039.132.348-.068.29l-.055-.013-.066.274.054.012c.194.046.123.337-.07.29l-.055-.013-.252 1.049c.289.19.444.531.364.867a.765.765 0 0 1-.084.207.414.414 0 0 0 .006.426c.162.26.215.574.144.873a1.148 1.148 0 0 1-.525.71 1.332 1.332 0 0 1-1.006.151c-.69-.166-1.126-.823-.97-1.465.072-.297.262-.553.524-.71h.002a.415.415 0 0 0 .198-.378.77.77 0 0 1 .406-.724.878.878 0 0 1 .332-.104l.252-1.048-.055-.014c-.193-.047-.123-.336.07-.29l.055.012.065-.271-.055-.014c-.206-.038-.13-.35.07-.29l.055.013.01-.043a.149.149 0 0 1 .15-.113zM12 9.584a1.21 1.21 0 0 1 1.207 1.209V12a1.208 1.208 0 0 1-2.414 0v-1.207A1.21 1.21 0 0 1 12 9.584zm-7.39 1.025v.348h.347v-.348zm.695 0v1.159h1.39v-1.159zm1.74 0v.348h.346v-.348zm4.754.184c-.257.012-.257.39 0 .402h.402c.257-.011.257-.39 0-.402zm-7.19.627v.348h.348v-.348zm2.436 0v.348h.346v-.348zm3.344.178a.202.202 0 0 1 .203.2V12c0 .777.631 1.41 1.408 1.41s1.41-.633 1.41-1.41v-.201a.2.2 0 0 1 .201-.201.2.2 0 0 1 .201.2V12a1.815 1.815 0 0 1-1.61 1.8v.214h.403c.257.011.257.39 0 .402h-1.209c-.256-.012-.256-.39 0-.402h.403V13.8a1.815 1.815 0 0 1-1.612-1.8v-.201c0-.111.09-.201.202-.201zm1.41 0c-.27 0-.27.403 0 .404h.402c.269 0 .269-.404 0-.404zm6.373.529a.353.353 0 0 0-.348.27c-.117.461.582.63.688.165a.354.354 0 0 0-.34-.435zm-13.562.105v.348h.347v-.348zm.695 0v1.159h1.39v-1.159zm1.74 0v.348h.346v-.348zm-2.435.813v.346h.347v-.346zm2.435 0v.346h.346v-.346zm10.355.406-.07.291 1.01.242.068-.289z"/></svg>