<?xml version="1.0" encoding="UTF-8"?>
<svg version="1.1" viewBox="0 0 24 24" xml:space="preserve" xmlns="http://www.w3.org/2000/svg"><path d="m12 2a10 10 0 0 0-10 10 10 10 0 0 0 10 10 10 10 0 0 0 10-10 10 10 0 0 0-10-10zm3.5 3.459c0.18028 0 0.29834 0.61073 0.46875 0.64453 0.17569 0.03477 0.51806-0.48495 0.67969-0.41797 0.16434 0.068168 0.039556 0.67949 0.18555 0.77734 0.14716 0.098543 0.66221-0.25176 0.78711-0.12695 0.1248 0.1248-0.22344 0.64189-0.125 0.78906 0.097852 0.14618 0.70713 0.01925 0.77539 0.18359 0.066984 0.16153-0.45274 0.50605-0.41797 0.68164 0.033797 0.17041 0.64648 0.28848 0.64648 0.46875 0 0.18027-0.61279 0.29638-0.64648 0.4668-0.034875 0.17569 0.48495 0.52002 0.41797 0.68164-0.06825 0.16434-0.67754 0.037602-0.77539 0.18359-0.098531 0.14718 0.2498 0.66426 0.125 0.78906-0.1248 0.1248-0.63993-0.22549-0.78711-0.12695-0.14618 0.097758-0.021192 0.70926-0.18555 0.77734-0.16152 0.066996-0.50409-0.45283-0.67969-0.41797-0.17041 0.033703-0.28847 0.64648-0.46875 0.64648-0.18027 0-0.29834-0.61278-0.46875-0.64648-0.17568-0.034864-0.51808 0.48495-0.67969 0.41797-0.16436-0.068274-0.039556-0.67949-0.18555-0.77734-0.14718-0.098543-0.66221 0.25176-0.78711 0.12695-0.1248-0.1248 0.22344-0.64189 0.125-0.78906-0.097852-0.14618-0.70713-0.01925-0.77539-0.18359-0.066996-0.16153 0.45273-0.50605 0.41797-0.68164-0.033797-0.17041-0.64648-0.28653-0.64648-0.4668 0-0.18027 0.61269-0.29834 0.64648-0.46875 0.034758-0.17569-0.48498-0.52002-0.41797-0.68164 0.068156-0.16434 0.67754-0.037602 0.77539-0.18359 0.098543-0.14716-0.2498-0.66415-0.125-0.78906 0.1248-0.1248 0.63995 0.22539 0.78711 0.12695 0.1462-0.097851 0.021192-0.70907 0.18555-0.77734 0.16153-0.066996 0.50411 0.45274 0.67969 0.41797 0.17041-0.033797 0.28848-0.64453 0.46875-0.64453zm-7 0.082031c0.71907 2e-7 1.2993 0.58094 1.3027 1.2988 0.12391-0.039071 0.25467-0.066406 0.39258-0.066406 0.7206 0 1.3047 0.58445 1.3047 1.3047 0 0.57705-0.37664 1.0589-0.89648 1.2305 0.1553 0.21509 0.24805 0.47661 0.24805 0.76172 1e-6 0.72025-0.58179 1.3047-1.3027 1.3047-0.43148 0-0.81114-0.21168-1.0488-0.53516-0.23734 0.32347-0.61688 0.53516-1.0488 0.53516-0.72048 0-1.3027-0.58445-1.3027-1.3047 0-0.2851 0.092258-0.54663 0.24805-0.76172-0.51987-0.17157-0.89648-0.65343-0.89648-1.2305 0-0.72023 0.58409-1.3047 1.3047-1.3047 0.13791 0 0.26868 0.027336 0.39258 0.066406 0.002707-0.71789 0.58414-1.2988 1.3027-1.2988zm7 1.1172c-0.99414 0-1.8008 0.80665-1.8008 1.8008 0 0.99413 0.80665 1.7988 1.8008 1.7988s1.8008-0.80469 1.8008-1.7988c0-0.99413-0.80665-1.8008-1.8008-1.8008zm-7 1.3965c-0.37466 2e-7 -0.67969 0.30491-0.67969 0.67969 0 0.37466 0.30503 0.67773 0.67969 0.67773 0.37501 0 0.67775-0.30307 0.67773-0.67773 0-0.37478-0.30274-0.67969-0.67773-0.67969zm2.3105 4.4863c0.40164-0.00205 0.65625 0.033203 0.65625 0.033203s0.3658 2.6104-1.3145 4.291a2.6802 2.6802 0 0 1-3.1426 0.63672l-0.94336 0.94141a0.33332 0.33332 0 0 1-0.46875 0 0.33332 0.33332 0 0 1 0-0.4707l0.94141-0.94141a2.6802 2.6802 0 0 1 0.63672-3.1426c1.1554-1.1552 2.7511-1.3432 3.6348-1.3477zm4.3887 0h0.60156v0.56445l0.46484-0.23242 0.26953 0.53516-0.73438 0.36719v1.2461l1.0781-0.62305-0.050781-0.81836 0.59961-0.037109 0.03125 0.51953 0.48828-0.28125 0.30078 0.51953-0.48828 0.28125 0.43359 0.28711-0.33008 0.50195-0.68555-0.45312-1.0781 0.62305 1.0781 0.62305 0.68555-0.45312 0.33008 0.5-0.43359 0.28711 0.48828 0.2832-0.30078 0.51953-0.48828-0.2832-0.03125 0.52148-0.59961-0.037109 0.050781-0.81836-1.0781-0.62305v1.2441l0.73438 0.36719-0.26953 0.53711-0.46484-0.23242v0.56445h-0.60156v-0.56445l-0.46484 0.23242-0.26953-0.53711 0.73438-0.36719v-1.2441l-1.0781 0.62305 0.050781 0.81836-0.59961 0.037109-0.03125-0.52148-0.48828 0.2832-0.30078-0.51953 0.48828-0.2832-0.43359-0.28711 0.33008-0.5 0.68555 0.45312 1.0781-0.62305-1.0781-0.62305-0.68555 0.45312-0.33008-0.50195 0.43359-0.28711-0.48828-0.28125 0.30078-0.51953 0.48828 0.28125 0.03125-0.51953 0.59961 0.037109-0.050781 0.81836 1.0781 0.62305v-1.2461l-0.73438-0.36719 0.26953-0.53516 0.46484 0.23242v-0.56445z"/></svg>