<?xml version="1.0" encoding="UTF-8"?>
<svg version="1.1" viewBox="0 0 24 24" xmlns="http://www.w3.org/2000/svg">
 <style type="text/css">.st0{fill:#FFFFFF;}
	.st1{fill:#8DC742;}</style>
 <path d="m12 2c-2.8405 0-5.1523 2.3118-5.1523 5.1523v2.7266h-0.9082c-0.50206 0-0.9082 0.40614-0.9082 0.9082v10.305c0 0.50206 0.40614 0.9082 0.9082 0.9082h12.121c0.50206 0 0.9082-0.40614 0.9082-0.9082v-10.305c0-0.50206-0.40614-0.9082-0.9082-0.9082h-0.9082v-2.7266c0-2.8405-2.3118-5.1523-5.1523-5.1523zm0 1.8184c1.838 0 3.334 1.496 3.334 3.334v2.7266h-6.668v-2.7266c0-1.838 1.496-3.334 3.334-3.334zm-3.957 8.2578c4.4384 0 8.0488 3.6262 8.0488 8.084 0 0.073213-0.057651 0.13281-0.13086 0.13281h-1.5234c-0.073213 0-0.13281-0.059603-0.13281-0.13281-2e-6 -3.4713-2.8095-6.2949-6.2617-6.2949-0.073211 0-0.13281-0.059602-0.13281-0.13281v-1.5234c2e-7 -0.073213 0.059602-0.13281 0.13281-0.13281zm-0.0019532 2.7012c2.9551 0 5.3594 2.4153 5.3594 5.3828 0 0.073214-0.059603 0.13281-0.13281 0.13281h-1.5234c-0.073213 0-0.13281-0.059603-0.13281-0.13281 0-0.96145-0.37228-1.8648-1.0469-2.543-0.67457-0.67695-1.5702-1.0488-2.5234-1.0488-0.073185 0-0.13279-0.059602-0.13281-0.13281v-1.5254c0-0.073213 0.059602-0.13281 0.13281-0.13281zm1.0547 3.1309c0.65503 0 1.1875 0.53231 1.1875 1.1875 0 0.65508-0.53247 1.1895-1.1875 1.1895-0.65511 0-1.1875-0.53437-1.1875-1.1895 0-0.65519 0.53239-1.1875 1.1875-1.1875z" stroke-width=".060606"/>
</svg>
