<svg viewBox="0 0 24 24" xmlns="http://www.w3.org/2000/svg"><path style="fill:#000;stroke-width:.756046" d="M12 2A10 10 0 0 0 2 12a10 10 0 0 0 10 10 10 10 0 0 0 10-10A10 10 0 0 0 12 2zM7.2 9h9.6c.666 0 1.2.534 1.2 1.2v3.6c0 .666-.534 1.2-1.2 1.2H7.2c-.666 0-1.2-.534-1.2-1.2v-3.6C6 9.533 6.534 9 7.2 9zm.962 1.895a1.11 1.11 0 0 0-.564.142.989.989 0 0 0-.381.397 1.242 1.242 0 0 0-.137.564.121.121 0 0 0 0 .004 1.242 1.242 0 0 0 .137.564.992.992 0 0 0 .38.397 1.11 1.11 0 0 0 .565.142 1.087 1.087 0 0 0 .565-.142.992.992 0 0 0 .38-.395v-.002a1.236 1.236 0 0 0 .141-.564.121.121 0 0 0 0-.002.121.121 0 0 0 0-.002 1.207 1.207 0 0 0-.14-.56v-.002a.986.986 0 0 0-.381-.399 1.093 1.093 0 0 0-.563-.142h-.002zm1.56.013a.305.305 0 0 0-.298.303v1.637a.253.253 0 0 0 .07.173.252.252 0 0 0 .172.07.25.25 0 0 0 .248-.243V11.75l.842 1.217a.121.121 0 0 0 .002.004.332.332 0 0 0 .1.088.121.121 0 0 0 .005.002.306.306 0 0 0 .139.03h.033a.302.302 0 0 0 .3-.298v-1.639a.25.25 0 0 0-.073-.172.25.25 0 0 0-.174-.074.252.252 0 0 0-.244.246v1.096l-.836-1.209a.121.121 0 0 0-.004-.004.318.318 0 0 0-.246-.129h-.035zm3.483 0a.284.284 0 0 0-.176.059.326.326 0 0 0-.093.125.121.121 0 0 1-.002.002l-.7 1.652a.248.248 0 0 0 .041.272.121.121 0 0 0 .004.003.254.254 0 0 0 .309.034.121.121 0 0 1 .002-.002.266.266 0 0 0 .094-.108.121.121 0 0 0 .002-.004l.148-.355h.77l.148.355a.121.121 0 0 0 .002.004.27.27 0 0 0 .084.106.121.121 0 0 0 .01.006.266.266 0 0 0 .132.035.246.246 0 0 0 .176-.074.254.254 0 0 0 .069-.17.262.262 0 0 0-.022-.102l-.701-1.652a.121.121 0 0 1 0-.002.326.326 0 0 0-.1-.123.27.27 0 0 0-.17-.06h-.027zm1.426 0a.25.25 0 0 0-.174.076.248.248 0 0 0-.068.17v1.694a.253.253 0 0 0 .07.173.253.253 0 0 0 .172.07.251.251 0 0 0 .172-.07.252.252 0 0 0 .076-.173v-1.694a.25.25 0 0 0-.074-.172.25.25 0 0 0-.174-.074zm.783.014a.25.25 0 0 0-.174.074.256.256 0 0 0-.07.174v1.678a.253.253 0 0 0 .07.173.252.252 0 0 0 .174.07.25.25 0 0 0 .248-.243v-.516h.447c.107 0 .162.025.196.059a.121.121 0 0 0 .002 0 .272.272 0 0 1 .082.146.121.121 0 0 0 0 .002 1.062 1.062 0 0 1 .025.227v.082a.26.26 0 0 0 .065.173.121.121 0 0 0 .005.006.262.262 0 0 0 .174.065c.064 0 .13-.027.174-.07a.258.258 0 0 0 .07-.174v-.125c0-.14-.025-.283-.08-.424a.505.505 0 0 0-.136-.203.58.58 0 0 0 .12-.127.647.647 0 0 0 .114-.37.633.633 0 0 0-.23-.497c-.155-.128-.372-.18-.637-.18h-.639zm-7.252.447h.002a.59.59 0 0 1 .316.082.522.522 0 0 1 .204.219.72.72 0 0 1 .072.33.72.72 0 0 1-.072.33.522.522 0 0 1-.204.219.59.59 0 0 1-.316.082.599.599 0 0 1-.322-.082.525.525 0 0 1-.2-.219.72.72 0 0 1-.072-.33.72.72 0 0 1 .073-.33.523.523 0 0 1 .199-.219.599.599 0 0 1 .32-.082zm7.5.03h.361c.18 0 .294.034.334.064a.121.121 0 0 0 .002.002c.051.037.069.071.069.152 0 .08-.02.121-.084.164a.121.121 0 0 0-.002.002.534.534 0 0 1-.305.072h-.375v-.457zm-2.445.263.19.457h-.378l.188-.457z"/></svg>