<svg viewBox="0 0 24 24" xmlns="http://www.w3.org/2000/svg"><path d="M12 2A10 10 0 0 0 2 12a10 10 0 0 0 10 10 10 10 0 0 0 10-10A10 10 0 0 0 12 2zM7.283 8.197V8.2h9.434A1.28 1.28 0 0 1 18 9.482v4.827a1.28 1.28 0 0 1-1.283 1.285h-5.03L8.42 18.018l.432-2.424H7.283A1.28 1.28 0 0 1 6 14.31V9.483a1.281 1.281 0 0 1 1.283-1.286zm1.588 1.975a.917.917 0 0 0-.914.916V12c.048 1.169 1.78 1.169 1.828 0v-.912a.917.917 0 0 0-.914-.916zm3.129 0a.917.917 0 0 0-.914.916V12c.04 1.178 1.788 1.178 1.828 0v-.912a.917.917 0 0 0-.914-.916zm3.129 0a.917.917 0 0 0-.914.916V12c.028 1.19 1.8 1.19 1.828 0v-.912a.917.917 0 0 0-.914-.916zm-6.41.916h.304c.203 0 .203.303 0 .303H8.72c-.203 0-.203-.303 0-.303zm3.129 0h.304c.203 0 .203.303 0 .303h-.304a.152.152 0 0 1-.153-.153.15.15 0 0 1 .153-.15zm3.128 0h.305c.203 0 .203.303 0 .303h-.305c-.202 0-.202-.303 0-.303zm-7.324.607a.152.152 0 0 0-.152.153V12a1.37 1.37 0 0 0 1.219 1.361v.16h-.305c-.203 0-.203.307 0 .307h.914c.203 0 .203-.306 0-.307h-.305v-.16A1.372 1.372 0 0 0 10.243 12v-.152a.152.152 0 1 0-.305 0V12c0 .588-.48 1.066-1.067 1.066A1.068 1.068 0 0 1 7.805 12v-.152a.152.152 0 0 0-.153-.153zm1.067 0h.304c.203 0 .203.305 0 .305H8.72c-.203 0-.203-.304 0-.305zm2.062 0a.152.152 0 0 0-.152.153V12a1.37 1.37 0 0 0 1.219 1.361v.16h-.305c-.203 0-.203.307 0 .307h.914c.203 0 .203-.306 0-.307h-.305v-.16A1.372 1.372 0 0 0 13.372 12v-.152a.152.152 0 1 0-.306 0V12a1.068 1.068 0 0 1-2.132 0v-.152a.152.152 0 0 0-.153-.153zm1.067 0h.304c.203 0 .203.305 0 .305h-.304c-.203 0-.203-.304 0-.305zm2.062 0a.15.15 0 0 0-.15.153V12a1.37 1.37 0 0 0 1.217 1.361v.16h-.305c-.203 0-.203.307 0 .307h.914c.203 0 .203-.306 0-.307h-.305v-.16A1.372 1.372 0 0 0 16.5 12v-.152a.152.152 0 0 0-.152-.153.154.154 0 0 0-.155.153V12a1.066 1.066 0 1 1-2.13 0v-.152a.152.152 0 0 0-.153-.153zm1.066 0h.305c.203 0 .203.305 0 .305h-.305c-.202 0-.202-.304 0-.305z"/></svg>