<svg viewBox="0 0 24 24" xmlns="http://www.w3.org/2000/svg"><path d="M12 2a5.16 5.16 0 0 0-5.152 5.152v2.729h-.909a.907.907 0 0 0-.908.906v10.307c0 .502.406.908.909.908h12.12a.907.907 0 0 0 .909-.908V10.787a.908.908 0 0 0-.908-.908h-.909V7.152A5.16 5.16 0 0 0 12 2zm0 1.818a3.338 3.338 0 0 1 3.334 3.334v2.729H8.666V7.152A3.338 3.338 0 0 1 12 3.818zM8.781 12.79c3.611 0 6.549 2.952 6.549 6.578a.11.11 0 0 1-.11.108h-1.238a.107.107 0 0 1-.107-.108c0-2.824-2.285-5.12-5.094-5.12a.109.109 0 0 1-.107-.11v-1.239c0-.06.048-.109.107-.109zm-.002 2.2c2.404 0 4.36 1.962 4.36 4.376a.11.11 0 0 1-.108.11h-1.24a.109.109 0 0 1-.107-.11 2.914 2.914 0 0 0-2.905-2.922.107.107 0 0 1-.107-.107v-1.24c0-.06.048-.108.107-.108zm.809 2.546h.049a.966.966 0 1 1-.05 0z"/></svg>