<svg viewBox="0 0 24 24" xmlns="http://www.w3.org/2000/svg"><path d="M12 2A10 10 0 0 0 2 12a10 10 0 0 0 10 10 10 10 0 0 0 10-10A10 10 0 0 0 12 2zm-.902 2.102c.09 0 .162.075.162.166v.66h1.29a2.606 2.606 0 0 1 2.602 2.603h-1.088c0-.835-.678-1.515-1.513-1.515H11.26v.66a.162.162 0 0 1-.244.14l-2.09-1.203a.165.165 0 0 1 0-.283l2.09-1.203a.157.157 0 0 1 .082-.025zm.87 3.398c.375-.007.748.04 1.122.139.79.19 1.476.57 2.055 1.142a4.462 4.462 0 0 1 1.217 4.309 4.428 4.428 0 0 1-1.143 2.055c-.55.557-1.204.95-1.96 1.175-.776.226-1.558.239-2.349.041s-1.476-.578-2.055-1.142a4.406 4.406 0 0 1-1.175-1.96 4.425 4.425 0 0 1-.041-2.349c.162-.663.462-1.26.9-1.789a4.56 4.56 0 0 1 1.53-1.182 4.447 4.447 0 0 1 1.9-.439zm-.148 1.568-.21.815-.319-.084h.01l-.688-.17-.127.53.36.083c.162.043.237.14.222.287l-.222.932-.328 1.291c-.043.106-.117.145-.223.117 0 .007-.06-.005-.18-.033l-.18-.053-.242.563.994.254-.21.824.496.117.2-.805.393.096-.2.805.497.127.201-.815c.466.085.83.088 1.09.01.31-.099.53-.325.656-.678.1-.29.102-.537.01-.742-.077-.183-.232-.335-.465-.455.36-.085.569-.328.625-.73a.796.796 0 0 0-.222-.71c-.163-.162-.416-.303-.762-.423l.201-.815-.498-.117-.191.783-.403-.084.202-.793-.487-.127zm.159 1.502.095.022c.297.063.513.133.647.21.247.135.341.316.285.542-.057.226-.23.338-.52.338-.162.007-.388-.028-.677-.106l-.073-.021.243-.985zm-.372 1.483.118.021c.353.085.61.17.773.254.304.155.423.357.36.604-.064.247-.268.37-.614.37-.19 0-.463-.046-.816-.138l-.094-.031.273-1.08zm-2.76 4.418h1.09c0 .836.678 1.513 1.514 1.514h1.291v-.66a.162.162 0 0 1 .244-.141l2.086 1.205a.165.165 0 0 1 0 .283l-2.086 1.203a.162.162 0 0 1-.244-.14v-.663H11.45a2.605 2.605 0 0 1-2.601-2.601z"/></svg>