<?xml version="1.0" encoding="UTF-8"?>
<svg version="1.1" viewBox="0 0 24 24" xmlns="http://www.w3.org/2000/svg">
 <path d="m12 2c-5.5228 0-10 4.4772-10 10 0 5.5228 4.4772 10 10 10 5.5228 0 10-4.4772 10-10 0-5.5228-4.4772-10-10-10zm2.5371 3c0.02625-0.001071 0.04986 0.0067608 0.06836 0.027344l1.4375 1.5723c0.0728 0.082523 0.030916 0.21292-0.076172 0.23828l-2.0801 0.45312c-0.02484 0.00671-0.051512 0.0053769-0.076172-0.0019531-0.07576-0.02408-0.09375-0.18164-0.09375-0.18164l0.12109-0.38086c-0.061284-0.018178-0.099343-0.032293-0.16406-0.050781-0.37376-0.10993-0.84634-0.16602-1.418-0.16602-0.42872 0-0.8023 0.094372-1.1211 0.28125-0.3078 0.17589-0.46094 0.44388-0.46094 0.80664 0 0.19787 0.031706 0.36881 0.097656 0.51172 0.065957 0.13191 0.17155 0.25799 0.31445 0.37891 0.14291 0.10993 0.32311 0.21552 0.54297 0.31445s0.48512 0.19798 0.79297 0.29688c0.39574 0.13191 0.76932 0.27383 1.1211 0.42773 0.36276 0.1539 0.67367 0.34069 0.9375 0.56055 0.27482 0.21986 0.49066 0.48323 0.64453 0.79102 0.1539 0.3078 0.23047 0.68333 0.23047 1.123 0 0.27482-0.044873 0.5316-0.13281 0.77344-0.087942 0.24184-0.19816 0.46228-0.33008 0.66016-0.13192 0.19787-0.2831 0.38003-0.45898 0.54492-0.16489 0.1539-0.3312 0.27802-0.49609 0.37695 0.31879 0.23085 0.57752 0.50275 0.77539 0.81055 0.19788 0.3078 0.29688 0.66358 0.29688 1.0703 0 0.82446-0.29043 1.4456-0.87305 1.8633-0.58262 0.42872-1.4149 0.64453-2.4922 0.64453-0.73652 0-1.3444-0.062673-1.8281-0.18359-0.02161-0.00503-0.037384-0.010525-0.058594-0.015625l-0.11914 0.375s-0.1701 0.13312-0.24414 0.050781l-1.4375-1.5703c-0.072804-0.082523-0.030917-0.21292 0.076172-0.23828l2.0801-0.45508c0.02484-0.0067 0.051512-0.005446 0.076172 0.001954 0.07577 0.024079 0.091797 0.18359 0.091797 0.18359l-0.13672 0.43359c0.39574 0.098935 0.90198 0.14844 1.5176 0.14844 0.6156 0 1.077-0.094373 1.3848-0.28125 0.31879-0.17588 0.47852-0.46168 0.47852-0.85742 0-0.38475-0.14851-0.68176-0.44531-0.89062-0.29681-0.21986-0.79841-0.44956-1.502-0.69141-0.39574-0.13191-0.77396-0.27579-1.1367-0.42969-0.35177-0.1539-0.66463-0.34264-0.93945-0.5625-0.26383-0.21986-0.47305-0.48126-0.62695-0.78906-0.1539-0.3078-0.23047-0.68138-0.23047-1.1211 0-0.28581 0.04487-0.55113 0.13281-0.79297 0.098935-0.25284 0.21379-0.47791 0.3457-0.67578 0.14291-0.20886 0.30068-0.38444 0.47656-0.52734 0.17588-0.1539 0.34878-0.28192 0.51367-0.38086-0.27482-0.21986-0.49722-0.47005-0.66211-0.75586-0.1539-0.28581-0.22852-0.61648-0.22852-0.99023 0-0.75851 0.26141-1.3572 0.78906-1.7969 0.53865-0.45071 1.2944-0.67578 2.2617-0.67578 0.56063 0 1.0827 0.054134 1.5664 0.16406 0.16049 0.036476 0.2441 0.063601 0.38281 0.097656l0.13867-0.43945s0.097071-0.076858 0.17578-0.080078zm-3.418 5.0547c-0.31879 0.20886-0.57947 0.45637-0.77734 0.74219-0.19787 0.27482-0.29688 0.57842-0.29688 0.9082 0 0.28581 0.062673 0.52674 0.18359 0.72461 0.13191 0.18688 0.30553 0.35586 0.52539 0.50976 0.23085 0.14291 0.50275 0.27556 0.81055 0.39648 0.3078 0.10993 0.64114 0.22478 1.0039 0.3457 0.054956 0.02198 0.10447 0.046379 0.14844 0.068359 0.054961 0.011 0.1091 0.024895 0.16406 0.046875 0.31879-0.20886 0.57752-0.44979 0.77539-0.72461 0.19788-0.27482 0.29883-0.5811 0.29883-0.92188 0-0.28581-0.067305-0.52211-0.19922-0.70898-0.12092-0.19787-0.28991-0.37076-0.50976-0.51367-0.21986-0.14291-0.47395-0.26703-0.75977-0.37695-0.28581-0.10993-0.59209-0.22211-0.92188-0.33203l-0.23242-0.064453c-0.065957-0.03298-0.13594-0.06664-0.21289-0.099609z"/>
</svg>
