<svg viewBox="0 0 24 24" xmlns="http://www.w3.org/2000/svg"><path d="M12 2A10 10 0 0 0 2 12a10 10 0 0 0 10 10 10 10 0 0 0 10-10A10 10 0 0 0 12 2zm-.766 3.897a1.61 1.61 0 0 1 1.409 2.388.295.295 0 0 0 .257.44h2.35a.54.54 0 0 1 .543.53v1.917a.295.295 0 0 0 .447.252 1.59 1.59 0 0 1 .832-.233 1.609 1.609 0 1 1-.832 2.987.295.295 0 0 0-.447.254v2.027a.542.542 0 0 1-.543.533H7.22a.54.54 0 0 1-.54-.533v-1.982a.295.295 0 0 1 .435-.258 1.61 1.61 0 1 0 0-2.834.295.295 0 0 1-.435-.26v-1.87c0-.294.245-.53.54-.53h2.348a.295.295 0 0 0 .258-.44 1.61 1.61 0 0 1 1.408-2.389z"/></svg>