<?xml version="1.0" encoding="UTF-8"?>
<svg version="1.1" viewBox="0 0 24 24" xmlns="http://www.w3.org/2000/svg">
 <style type="text/css">.st0{fill:#FFFFFF;}
	.st1{fill:#8DC742;}</style>
 <path d="m3.2812 2.2666c-0.70954 0-1.2812 0.57171-1.2812 1.2812v3.0273c1e-7 0.70954 0.57171 1.2812 1.2812 1.2812h17.438c0.70954 0 1.2812-0.57171 1.2812-1.2812v-3.0273c0-0.70954-0.57171-1.2812-1.2812-1.2812zm13.912 0.50977c0.14769 0 0.26758 0.11793 0.26758 0.26562v4.2363c0 0.14769-0.11989 0.26562-0.26758 0.26562-0.1477 0-0.26562-0.11793-0.26562-0.26562v-4.2363c0-0.14769 0.11793-0.26562 0.26562-0.26562zm-5.8438 0.39648c0.1477 0 0.26367 0.11989 0.26367 0.26758v3.4414c0 0.14769-0.11598 0.26562-0.26367 0.26562-0.14769 0-0.26758-0.11793-0.26758-0.26562v-3.4414c0-0.14769 0.11989-0.26758 0.26758-0.26758zm5.0078 0c0.14769 0 0.26758 0.11989 0.26758 0.26758v3.4414c0 0.14769-0.11988 0.26562-0.26758 0.26562s-0.26562-0.11793-0.26562-0.26562v-3.4414c0-0.14769 0.11793-0.26758 0.26562-0.26758zm-5.8711 0.39844c9e-3 -9.068e-4 0.01812 0 0.02734 0 0.14769 2e-7 0.26758 0.11793 0.26758 0.26562v2.6465c0 0.14769-0.11988 0.26758-0.26758 0.26758s-0.26758-0.11989-0.26758-0.26758v-2.6465c0-0.13846 0.10548-0.25202 0.24023-0.26562zm1.6699 0c9e-3 -9.068e-4 0.01812 0 0.02734 0 0.14769 2e-7 0.26562 0.11793 0.26562 0.26562v2.6465c0 0.14769-0.11793 0.26758-0.26562 0.26758-0.14769 0-0.26758-0.11989-0.26758-0.26758v-2.6465c0-0.13846 0.10548-0.25202 0.24023-0.26562zm-8.4883 0.070312h0.45312l-0.082031 0.64844h0.5957l0.082031-0.64844h0.45508l-0.082031 0.64844h0.52734l0.00391 0.44336h-0.58399l-0.082031 0.65625h0.52734v0.44336h-0.58008l-0.082031 0.64648h-0.45703l0.082031-0.64648h-0.5957l-0.082031 0.64648h-0.45312l0.082031-0.64648h-0.5332v-0.44336h0.58398l0.085937-0.65625h-0.53125v-0.44336h0.58398zm2.0625 0h1.2246v2.8379h-0.65625v-2.3105h-0.56836zm7.2871 0.32617c0.14769 0 0.26758 0.11989 0.26758 0.26758v1.8496c0 0.14769-0.11989 0.26758-0.26758 0.26758-0.14769 0-0.26562-0.11989-0.26562-0.26758v-1.8496c0-0.14769 0.11793-0.26758 0.26562-0.26758zm5.0117 0c0.14769 0 0.26562 0.11989 0.26562 0.26758v1.8496c0 0.14769-0.11793 0.26758-0.26562 0.26758-0.14769 0-0.26758-0.11989-0.26758-0.26758v-1.8496c0-0.14769 0.11989-0.26758 0.26758-0.26758zm-8.3516 0.39648c0.14769 0 0.26758 0.11989 0.26758 0.26758v1.0566c0 0.14769-0.11989 0.26562-0.26758 0.26562-0.14769 0-0.26758-0.11793-0.26758-0.26562v-1.0566c0-0.14769 0.11989-0.26758 0.26758-0.26758zm4.1758 0c0.14769 0 0.26758 0.11989 0.26758 0.26758v1.0566c0 0.14769-0.11989 0.26562-0.26758 0.26562-0.14769 0-0.26758-0.11793-0.26758-0.26562v-1.0566c0-0.14769 0.11988-0.26758 0.26758-0.26758zm1.6699 0c0.14769 0 0.26562 0.11989 0.26562 0.26758v1.0566c0 0.14769-0.11793 0.26562-0.26562 0.26562-0.14769 0-0.26758-0.11793-0.26758-0.26562v-1.0566c0-0.14769 0.11988-0.26758 0.26758-0.26758zm3.3398 0c0.14769 0 0.26758 0.11989 0.26758 0.26758v1.0566c0 0.14769-0.11989 0.26562-0.26758 0.26562-0.14769 0-0.26562-0.11793-0.26562-0.26562v-1.0566c0-0.14769 0.11793-0.26758 0.26562-0.26758zm0.80859 0.24023c9e-3 -9.069e-4 0.01812 0 0.02734 0 0.14769 0 0.26563 0.11793 0.26562 0.26562v0.58008c0 0.14769-0.11793 0.26758-0.26562 0.26758-0.14769 0-0.26758-0.11989-0.26758-0.26758v-0.58008c0-0.13846 0.10548-0.25202 0.24023-0.26562zm-15.684 0.12891-0.085937 0.65625h0.5957l0.085937-0.65625zm4.8398 0.029297c0.00456-2.295e-4 0.00905 0 0.013672 0 0.14769 0 0.26758 0.11989 0.26758 0.26758v0.26172c0 0.14769-0.11989 0.26562-0.26758 0.26562-0.14769 0-0.26562-0.11793-0.26562-0.26562v-0.26172c0-0.14308 0.1107-0.26046 0.25195-0.26758zm5.8457 0c0.0046-2.295e-4 0.01097 0 0.01563 0 0.14769 0 0.26562 0.11989 0.26562 0.26758v0.26172c0 0.14769-0.11793 0.26562-0.26562 0.26562-0.14769 0-0.26758-0.11793-0.26758-0.26562v-0.26172c0-0.14308 0.1107-0.26046 0.25195-0.26758zm5.8477 0c0.0046-2.295e-4 0.0071 0 0.01172 0 0.14769 0 0.26758 0.11989 0.26758 0.26758v0.26172c0 0.14769-0.11988 0.26562-0.26758 0.26562s-0.26562-0.11793-0.26562-0.26562v-0.26172c0-0.14308 0.11266-0.26046 0.25391-0.26758zm-17.24 4.2988c-0.70954 0-1.2812 0.59616-1.2812 1.3359v3.1562c0 0.73978 0.57171 1.334 1.2812 1.334h17.438c0.70954 0 1.2812-0.59421 1.2812-1.334v-3.1562c0-0.73977-0.57171-1.3359-1.2812-1.3359zm13.912 0.53125c0.14769 0 0.26758 0.12335 0.26758 0.27734v4.416c0 0.15399-0.11989 0.2793-0.26758 0.2793-0.1477 0-0.26562-0.12531-0.26562-0.2793v-4.416c0-0.15399 0.11793-0.27734 0.26562-0.27734zm-5.8438 0.41406c0.1477 0 0.26367 0.12531 0.26367 0.2793v3.5879c0 0.15399-0.11598 0.27539-0.26367 0.27539-0.14769 0-0.26758-0.1214-0.26758-0.27539v-3.5879c0-0.15399 0.11989-0.2793 0.26758-0.2793zm5.0078 0c0.14769 0 0.26758 0.12531 0.26758 0.2793v3.5879c0 0.15399-0.11989 0.27539-0.26758 0.27539-0.14769 0-0.26562-0.1214-0.26562-0.27539v-3.5879c0-0.15399 0.11793-0.2793 0.26562-0.2793zm-5.8711 0.41406c9e-3 -9.46e-4 0.0181 0 0.02734 0 0.14769 0 0.26758 0.12336 0.26758 0.27734v2.7598c0 0.15399-0.11989 0.2793-0.26758 0.2793-0.14769 0-0.26758-0.12531-0.26758-0.2793v-2.7598c0-0.14436 0.10547-0.26316 0.24023-0.27734zm1.6699 0c9e-3 -9.46e-4 0.01811 0 0.02734 0 0.14769 0 0.26562 0.12336 0.26562 0.27734v2.7598c0 0.15399-0.11793 0.2793-0.26562 0.2793s-0.26758-0.12531-0.26758-0.2793v-2.7598c0-0.14436 0.10547-0.26316 0.24023-0.27734zm-5.3242 0.02344c0.21084 0 0.39596 0.0361 0.55273 0.10938 0.15948 0.07046 0.28264 0.17418 0.36914 0.30664 0.089203 0.12964 0.13477 0.28143 0.13477 0.45898 0 0.16064-0.032782 0.31221-0.097656 0.45312-0.064875 0.14092-0.19239 0.3001-0.37891 0.48047l-0.65234 0.64453h1.2207v0.55664h-2.1465v-0.44336l1.0957-1.0781c0.11623-0.11554 0.19578-0.21514 0.23633-0.29688 0.040545-0.08456 0.060547-0.16632 0.060547-0.24805 2e-7 -0.11837-0.038798-0.20948-0.11719-0.27149-0.075686-0.06482-0.18727-0.09766-0.33594-0.09766-0.12434 0-0.23592 0.02544-0.33594 0.07617-0.10001 0.04791-0.18438 0.12206-0.25195 0.2207l-0.47852-0.32226c0.11083-0.17192 0.26241-0.30457 0.45703-0.40039 0.19462-0.09864 0.41658-0.14844 0.66797-0.14844zm-3.1641 0.04883h0.45312l-0.082031 0.67774h0.5957l0.082031-0.67774h0.45508l-0.082031 0.67774h0.52734l0.00391 0.46094h-0.58399l-0.082031 0.68555h0.52734v0.45898h-0.58008l-0.082031 0.67773h-0.45703l0.082031-0.67773h-0.5957l-0.082031 0.67773h-0.45312l0.082031-0.67773h-0.5332v-0.45898h0.58398l0.085937-0.68555h-0.53125v-0.46094h0.58398zm9.3496 0.3418c0.14769 0 0.26758 0.12336 0.26758 0.27734v1.9316c0 0.15399-0.11989 0.27734-0.26758 0.27734-0.14769 0-0.26562-0.12336-0.26562-0.27734v-1.9316c0-0.15399 0.11793-0.27734 0.26562-0.27734zm5.0117 0c0.14769 0 0.26562 0.12336 0.26562 0.27734v1.9316c0 0.15399-0.11793 0.27734-0.26562 0.27734-0.14769 0-0.26758-0.12336-0.26758-0.27734v-1.9316c0-0.15399 0.11989-0.27734 0.26758-0.27734zm-8.3516 0.41406c0.14769 0 0.26758 0.12531 0.26758 0.2793v1.0996c0 0.15399-0.11988 0.2793-0.26758 0.2793-0.14769 0-0.26758-0.12531-0.26758-0.2793v-1.0996c0-0.15399 0.11989-0.2793 0.26758-0.2793zm4.1758 0c0.14769 0 0.26758 0.12531 0.26758 0.2793v1.0996c0 0.15399-0.11989 0.2793-0.26758 0.2793-0.14769 0-0.26758-0.12531-0.26758-0.2793v-1.0996c0-0.15399 0.11988-0.2793 0.26758-0.2793zm1.6699 0c0.14769 0 0.26562 0.12531 0.26562 0.2793v1.0996c0 0.15399-0.11793 0.2793-0.26562 0.2793-0.14769 0-0.26758-0.12531-0.26758-0.2793v-1.0996c0-0.15399 0.11988-0.2793 0.26758-0.2793zm3.3398 0c0.14769 0 0.26758 0.12531 0.26758 0.2793v1.0996c0 0.15399-0.11989 0.2793-0.26758 0.2793-0.14769 0-0.26562-0.12531-0.26562-0.2793v-1.0996c0-0.15399 0.11793-0.2793 0.26562-0.2793zm0.80859 0.25c9e-3 -9.46e-4 0.01811 0 0.02734 0 0.14769 0 0.26563 0.12336 0.26562 0.27734v0.60352c0 0.15399-0.11793 0.2793-0.26562 0.2793-0.14769 0-0.26758-0.12531-0.26758-0.2793v-0.60352c0-0.14436 0.10547-0.26316 0.24023-0.27734zm-15.684 0.13281-0.085937 0.68555h0.5957l0.085937-0.68555zm4.8398 0.0332c0.0046-2.4e-4 0.00901 0 0.013672 0 0.14769 0 0.26758 0.12335 0.26758 0.27734v0.27344c0 0.15399-0.11988 0.27539-0.26758 0.27539-0.14769 0-0.26562-0.1214-0.26562-0.27539v-0.27344c0-0.14918 0.11071-0.26993 0.25195-0.27734zm5.8457 0c0.0045-2.4e-4 0.01105 0 0.01563 0 0.14769 0 0.26562 0.12335 0.26562 0.27734v0.27344c0 0.15399-0.11793 0.27539-0.26562 0.27539-0.14769 0-0.26758-0.1214-0.26758-0.27539v-0.27344c0-0.14918 0.11071-0.26993 0.25195-0.27734zm5.8477 0c0.0045-2.4e-4 0.0071 0 0.01172 0 0.14769 0 0.26758 0.12335 0.26758 0.27734v0.27344c0 0.15399-0.11989 0.27539-0.26758 0.27539-0.14769 0-0.26562-0.1214-0.26562-0.27539v-0.27344c0-0.14918 0.11266-0.26993 0.25391-0.27734zm-17.24 4.3809c-0.70954 0-1.2812 0.5807-1.2812 1.3027v3.0801c0 0.72204 0.57171 1.3047 1.2812 1.3047h17.438c0.70954 0 1.2812-0.58265 1.2812-1.3047v-3.0801c0-0.72204-0.57171-1.3027-1.2812-1.3027zm13.912 0.51758c0.14769 0 0.26758 0.1212 0.26758 0.27148v4.3086c0 0.1503-0.1199 0.27344-0.26758 0.27344-0.1477 0-0.26562-0.12314-0.26562-0.27344v-4.3086c0-0.1503 0.11793-0.27148 0.26562-0.27148zm-5.8438 0.4043c0.14769 0 0.26367 0.1212 0.26367 0.27148v3.502c0 0.1503-0.11598 0.26953-0.26367 0.26953-0.14769 0-0.26758-0.11924-0.26758-0.26953v-3.502c0-0.1503 0.1199-0.27148 0.26758-0.27148zm5.0078 0c0.14769 0 0.26758 0.1212 0.26758 0.27148v3.502c0 0.1503-0.1199 0.26953-0.26758 0.26953-0.1477 0-0.26562-0.11924-0.26562-0.26953v-3.502c0-0.1503 0.11793-0.27148 0.26562-0.27148zm-5.8711 0.4043c9e-3 -9.23e-4 0.0181 0 0.02734 0 0.14769 0 0.26758 0.12119 0.26758 0.27148v2.6934c0 0.1503-0.1199 0.27148-0.26758 0.27148-0.1477 0-0.26758-0.12118-0.26758-0.27148v-2.6934c0-0.1409 0.10548-0.25764 0.24023-0.27148zm1.6699 0c9e-3 -9.23e-4 0.0181 0 0.02734 0 0.14769 0 0.26562 0.12119 0.26562 0.27148v2.6934c0 0.1503-0.11793 0.27148-0.26562 0.27148-0.14769 0-0.26758-0.12118-0.26758-0.27148v-2.6934c0-0.1409 0.10548-0.25764 0.24023-0.27148zm-8.4883 0.2207h0.45312l-0.082031 0.66016h0.5957l0.082031-0.66016h0.45508l-0.082031 0.66016h0.52734l0.00391 0.44922h-0.58399l-0.082031 0.66992h0.52734v0.44922h-0.58008l-0.082031 0.6582h-0.45703l0.082031-0.6582h-0.5957l-0.082031 0.6582h-0.45312l0.082031-0.6582h-0.5332v-0.44922h0.58398l0.085937-0.66992h-0.53125v-0.44922h0.58398zm2.1699 0h1.9883v0.43359l-0.64062 0.74219c0.24868 0.04126 0.43981 0.13662 0.57227 0.28516 0.13245 0.14579 0.19922 0.32566 0.19922 0.54297 0 0.16779-0.044362 0.32571-0.13086 0.46875-0.0865 0.14029-0.22003 0.25262-0.39844 0.33789-0.1757 0.08528-0.38969 0.12695-0.64648 0.12695-0.20003 0-0.39717-0.02586-0.5918-0.07813-0.19192-0.055-0.35508-0.1334-0.49023-0.23242l0.25391-0.50976c0.10812 0.08252 0.23249 0.1466 0.37305 0.19336 0.14326 0.04401 0.28883 0.06641 0.4375 0.06641 0.16489 0 0.29602-0.03243 0.39062-0.0957 0.094608-0.06602 0.14258-0.15906 0.14258-0.27734 0-0.23656-0.1791-0.35352-0.5332-0.35352h-0.29883v-0.44141l0.58398-0.67383h-1.2109zm7.1797 0.18359c0.14769 0 0.26758 0.12118 0.26758 0.27148v1.8828c0 0.15029-0.1199 0.27344-0.26758 0.27344-0.14769 0-0.26562-0.12315-0.26562-0.27344v-1.8828c0-0.15029 0.11793-0.27148 0.26562-0.27148zm5.0117 0c0.14769 0 0.26562 0.12118 0.26562 0.27148v1.8828c0 0.15029-0.11792 0.27344-0.26562 0.27344-0.14769 0-0.26758-0.12315-0.26758-0.27344v-1.8828c0-0.15029 0.11989-0.27148 0.26758-0.27148zm-8.3516 0.4043c0.14769 0 0.26758 0.12118 0.26758 0.27148v1.0742c0 0.1503-0.1199 0.27148-0.26758 0.27148-0.14769 0-0.26758-0.1212-0.26758-0.27148v-1.0742c0-0.15029 0.11989-0.27148 0.26758-0.27148zm4.1758 0c0.14769 0 0.26758 0.12118 0.26758 0.27148v1.0742c0 0.1503-0.1199 0.27148-0.26758 0.27148-0.1477 0-0.26758-0.1212-0.26758-0.27148v-1.0742c0-0.15029 0.11987-0.27148 0.26758-0.27148zm1.6699 0c0.14769 0 0.26562 0.12118 0.26562 0.27148v1.0742c0 0.1503-0.11793 0.27148-0.26562 0.27148-0.14769 0-0.26758-0.1212-0.26758-0.27148v-1.0742c0-0.15029 0.1199-0.27148 0.26758-0.27148zm3.3398 0c0.14769 0 0.26758 0.12118 0.26758 0.27148v1.0742c0 0.1503-0.1199 0.27148-0.26758 0.27148-0.14769 0-0.26562-0.1212-0.26562-0.27148v-1.0742c0-0.15029 0.11794-0.27148 0.26562-0.27148zm0.80859 0.24414c9e-3 -9.23e-4 0.0181 0 0.02734 0 0.14769 0 0.26562 0.11923 0.26562 0.26953v0.58984c0 0.15029-0.11793 0.27344-0.26562 0.27344s-0.26758-0.12315-0.26758-0.27344v-0.58984c0-0.1409 0.10548-0.25569 0.24023-0.26953zm-10.844 0.16016c0.0046-2.34e-4 0.00901 0 0.013672 0 0.14769 0 0.26758 0.12315 0.26758 0.27344v0.26562c0 0.15029-0.11988 0.26953-0.26758 0.26953-0.14769 0-0.26562-0.11924-0.26562-0.26953v-0.26562c0-0.1456 0.11071-0.2662 0.25195-0.27344zm5.8457 0c0.0045-2.34e-4 0.01107 0 0.01563 0 0.14769 0 0.26562 0.12315 0.26562 0.27344v0.26562c0 0.15029-0.11795 0.26953-0.26562 0.26953-0.14769 0-0.26758-0.11924-0.26758-0.26953v-0.26562c0-0.1456 0.11069-0.2662 0.25195-0.27344zm5.8477 0c0.0045-2.34e-4 0.0073 0 0.01172 0 0.14769 0 0.26758 0.12315 0.26758 0.27344v0.26562c0 0.15029-0.11989 0.26953-0.26758 0.26953-0.14769 0-0.26562-0.11924-0.26562-0.26953v-0.26562c0-0.1456 0.11264-0.2662 0.25391-0.27344zm-16.533 0.11719-0.085937 0.66992h0.5957l0.085937-0.66992z" stroke-width=".77295"/>
</svg>
