<?xml version="1.0" encoding="UTF-8"?>
<svg version="1.1" viewBox="0 0 24 24" xmlns="http://www.w3.org/2000/svg">
 <style type="text/css">.st0{fill:#FFFFFF;}
	.st1{fill:#8DC742;}</style>
 <path d="m12 2c-2.8405 0-5.1523 2.3118-5.1523 5.1523v2.7266h-0.9082c-0.50206 0-0.9082 0.40614-0.9082 0.9082v10.305c0 0.50206 0.40614 0.9082 0.9082 0.9082h12.121c0.50206 0 0.9082-0.40614 0.9082-0.9082v-10.305c0-0.50206-0.40614-0.9082-0.9082-0.9082h-0.9082v-2.7266c0-2.8405-2.3118-5.1523-5.1523-5.1523zm0 1.8184c1.838 0 3.334 1.496 3.334 3.334v2.7266h-6.668v-2.7266c0-1.838 1.496-3.334 3.334-3.334zm-3.3223 9.0859c3.6694 0 6.6445 2.9733 6.6445 6.6426h-1.1074c0-3.0576-2.4793-5.5352-5.5371-5.5352v-1.1074zm0 2.584c2.2423 0 4.0605 1.8164 4.0605 4.0586h-1.1074c0-1.6308-1.3223-2.9512-2.9531-2.9512v-1.1074zm0 2.584c0.8154 0 1.4766 0.66119 1.4766 1.4766h-1.4766v-1.4766z"/>
 <style type="text/css">.st0{fill:#FFFFFF;}
	.st1{fill:#8DC742;}</style>
</svg>
