<svg viewBox="0 0 24 24" xmlns="http://www.w3.org/2000/svg"><path d="M3.281 2.267c-.71 0-1.281.571-1.281 1.28v3.028c0 .71.572 1.281 1.281 1.281H20.72c.71 0 1.281-.571 1.281-1.28V3.547c0-.71-.571-1.281-1.28-1.281zm13.912.51c.148 0 .268.117.268.265v4.236c0 .148-.12.266-.268.266a.264.264 0 0 1-.265-.266V3.042c0-.148.118-.266.265-.266zm-5.844.396c.148 0 .264.12.264.267v3.442a.266.266 0 0 1-.531 0V3.44c0-.147.12-.267.267-.267zm5.008 0c.148 0 .268.12.268.267v3.442c0 .148-.12.265-.268.265s-.265-.117-.265-.265V3.44c0-.147.118-.267.265-.267zm-5.87.398h.026c.148 0 .268.118.268.266v2.646a.268.268 0 0 1-.535 0V3.837c0-.139.105-.252.24-.266zm1.669 0h.027c.148 0 .266.118.266.266v2.646a.266.266 0 1 1-.533 0V3.837c0-.139.105-.252.24-.266zm-8.488.07h.453l-.082.649h.595l.083-.648h.455l-.082.648h.527l.004.443h-.584l-.082.657h.527v.443h-.58l-.082.646h-.457l.082-.646h-.596l-.082.646h-.453l.082-.646h-.533V5.39h.584l.086-.657h-.531V4.29h.584zm2.062 0h1.225V6.48h-.656V4.169H5.73zm7.287.327c.148 0 .268.12.268.267v1.85c0 .148-.12.268-.268.268a.266.266 0 0 1-.265-.268v-1.85c0-.147.118-.267.265-.267zm5.012 0c.148 0 .266.12.266.267v1.85a.266.266 0 1 1-.534 0v-1.85c0-.147.12-.267.268-.267zm-8.352.396c.148 0 .268.12.268.268v1.056c0 .148-.12.266-.268.266a.266.266 0 0 1-.267-.266V4.632c0-.148.12-.268.267-.268zm4.176 0c.148 0 .268.12.268.268v1.056c0 .148-.12.266-.268.266a.266.266 0 0 1-.267-.266V4.632c0-.148.12-.268.267-.268zm1.67 0c.148 0 .266.12.266.268v1.056a.264.264 0 0 1-.266.266.266.266 0 0 1-.267-.266V4.632c0-.148.12-.268.267-.268zm3.34 0c.148 0 .267.12.267.268v1.056c0 .148-.12.266-.267.266a.264.264 0 0 1-.266-.266V4.632c0-.148.118-.268.266-.268zm.808.24h.028c.148 0 .265.118.265.266v.58a.266.266 0 1 1-.533 0v-.58c0-.138.106-.252.24-.266zm-15.684.13-.085.656h.595l.086-.657zm4.84.029h.014c.148 0 .268.12.268.267v.262c0 .148-.12.266-.268.266a.264.264 0 0 1-.266-.266V5.03c0-.143.111-.26.252-.267zm5.846 0h.016c.147 0 .265.12.265.267v.262a.264.264 0 0 1-.265.266.266.266 0 0 1-.268-.266V5.03c0-.143.11-.26.252-.267zm5.848 0h.011c.148 0 .268.12.268.267v.262a.266.266 0 0 1-.533 0V5.03c0-.143.112-.26.254-.267zM3.28 9.06c-.71 0-1.282.597-1.282 1.336v3.157c0 .74.572 1.334 1.282 1.334h17.438c.71 0 1.28-.595 1.28-1.334v-3.157c0-.74-.57-1.336-1.28-1.336zm13.912.532c.147 0 .267.123.267.277v4.416c0 .154-.12.28-.267.28a.272.272 0 0 1-.266-.28V9.87a.27.27 0 0 1 .266-.277zm-5.844.414c.148 0 .264.125.264.28v3.587a.267.267 0 0 1-.264.275.27.27 0 0 1-.268-.275v-3.588c0-.154.12-.28.268-.28zm5.008 0c.147 0 .267.125.267.28v3.587a.27.27 0 0 1-.267.275.269.269 0 0 1-.266-.275v-3.588c0-.154.118-.28.266-.28zm-5.871.414h.027c.148 0 .268.123.268.277v2.76c0 .154-.12.28-.268.28a.274.274 0 0 1-.268-.28v-2.76c0-.144.106-.263.24-.277zm1.67 0h.027a.27.27 0 0 1 .265.277v2.76c0 .154-.117.28-.265.28s-.268-.126-.268-.28v-2.76c0-.144.106-.263.24-.277zm-5.325.023c.211 0 .396.036.553.11.16.07.283.174.37.306.088.13.134.282.134.46 0 .16-.033.312-.098.452-.065.141-.192.3-.379.48l-.652.645h1.22v.557H5.834v-.443l1.096-1.078c.116-.116.196-.216.236-.297a.568.568 0 0 0 .06-.248c0-.119-.038-.21-.116-.272-.076-.065-.188-.097-.336-.097a.73.73 0 0 0-.336.076.639.639 0 0 0-.252.22l-.479-.322a1.12 1.12 0 0 1 .457-.4c.195-.099.417-.149.668-.149zm-3.164.05h.453l-.082.677h.596l.082-.678h.455l-.082.678h.527l.004.46h-.584l-.082.686h.528v.46h-.58l-.082.677h-.458l.083-.678h-.596l-.082.678h-.453l.082-.678h-.534v-.459h.584l.086-.685h-.53v-.461h.583zm9.35.34c.147 0 .267.124.267.278v1.932c0 .154-.12.277-.267.277a.27.27 0 0 1-.266-.277v-1.932a.27.27 0 0 1 .266-.277zm5.011 0a.27.27 0 0 1 .266.278v1.932a.27.27 0 0 1-.266.277.272.272 0 0 1-.267-.277v-1.932c0-.154.12-.277.267-.277zm-8.351.415c.148 0 .267.125.267.28v1.099c0 .154-.12.28-.267.28a.274.274 0 0 1-.268-.28v-1.1c0-.154.12-.279.268-.279zm4.176 0c.147 0 .267.125.267.28v1.099c0 .154-.12.28-.267.28a.274.274 0 0 1-.268-.28v-1.1c0-.154.12-.279.268-.279zm1.67 0c.147 0 .265.125.265.28v1.099c0 .154-.118.28-.265.28a.274.274 0 0 1-.268-.28v-1.1c0-.154.12-.279.268-.279zm3.34 0c.147 0 .267.125.267.28v1.099c0 .154-.12.28-.268.28a.272.272 0 0 1-.265-.28v-1.1c0-.154.118-.279.265-.279zm.808.25h.027a.27.27 0 0 1 .266.277v.604c0 .154-.118.28-.266.28a.274.274 0 0 1-.267-.28v-.604c0-.144.105-.263.24-.277zm-15.684.133-.086.685h.596l.086-.685zm4.84.033h.013c.148 0 .268.123.268.277v.274a.27.27 0 0 1-.268.275.269.269 0 0 1-.265-.275v-.274c0-.149.11-.27.252-.277zm5.845 0h.016a.27.27 0 0 1 .266.277v.274a.269.269 0 0 1-.266.275.27.27 0 0 1-.267-.275v-.274c0-.149.11-.27.251-.277zm5.848 0h.012c.148 0 .267.123.267.277v.274a.27.27 0 0 1-.267.275.269.269 0 0 1-.266-.275v-.274c0-.149.113-.27.254-.277zm-17.24 4.38a1.29 1.29 0 0 0-1.281 1.304v3.08a1.29 1.29 0 0 0 1.281 1.304h17.438A1.29 1.29 0 0 0 22 20.43v-3.08a1.29 1.29 0 0 0-1.28-1.303zm13.912.518a.27.27 0 0 1 .268.272v4.309c0 .15-.12.273-.268.273a.27.27 0 0 1-.265-.273v-4.309c0-.15.117-.272.265-.272zm-5.844.405c.148 0 .264.121.264.271v3.502c0 .15-.116.27-.264.27a.268.268 0 0 1-.267-.27v-3.5c0-.15.12-.271.267-.271zm5.008 0a.27.27 0 0 1 .268.271v3.502c0 .15-.12.27-.268.27a.266.266 0 0 1-.265-.27v-3.5c0-.15.117-.271.265-.271zm-5.87.404h.026a.27.27 0 0 1 .268.272v2.693a.27.27 0 0 1-.268.271.27.27 0 0 1-.267-.271v-2.693c0-.141.105-.258.24-.272zm1.669 0h.027c.148 0 .266.121.266.272v2.693c0 .15-.118.271-.266.271a.27.27 0 0 1-.267-.271v-2.693c0-.141.105-.258.24-.272zm-8.488.22h.453l-.082.66h.595l.083-.66h.455l-.082.66h.527l.004.45h-.584l-.082.67h.527v.45H4.9l-.082.657h-.457l.082-.658h-.596l-.082.658h-.453l.082-.658h-.533v-.449h.584l.086-.67H3v-.45h.584zm2.17 0h1.988v.434l-.64.743c.248.04.44.136.572.285a.777.777 0 0 1 .199.543.894.894 0 0 1-.131.468.914.914 0 0 1-.399.338c-.175.086-.39.127-.646.127-.2 0-.397-.026-.592-.078a1.54 1.54 0 0 1-.49-.232l.254-.51c.108.082.232.147.373.193.143.044.289.067.437.067a.698.698 0 0 0 .391-.096.32.32 0 0 0 .143-.277c0-.237-.18-.354-.534-.354h-.298v-.441l.584-.674h-1.21zm7.18.184a.27.27 0 0 1 .267.272v1.883c0 .15-.12.273-.268.273a.27.27 0 0 1-.265-.273v-1.883c0-.15.118-.272.265-.272zm5.011 0c.148 0 .266.122.266.272v1.883a.27.27 0 0 1-.266.273.271.271 0 0 1-.268-.273v-1.883c0-.15.12-.272.268-.272zm-8.352.405a.27.27 0 0 1 .268.271v1.074a.27.27 0 0 1-.268.272.27.27 0 0 1-.267-.272v-1.074c0-.15.12-.271.267-.271zm4.176 0a.27.27 0 0 1 .268.271v1.074a.27.27 0 0 1-.268.272.27.27 0 0 1-.267-.272v-1.074c0-.15.12-.271.267-.271zm1.67 0c.148 0 .266.12.266.271v1.074c0 .15-.118.272-.266.272a.27.27 0 0 1-.267-.272v-1.074c0-.15.12-.271.267-.271zm3.34 0a.27.27 0 0 1 .267.271v1.074a.27.27 0 0 1-.267.272.268.268 0 0 1-.266-.272v-1.074c0-.15.118-.271.266-.271zm.808.244h.028c.148 0 .265.119.265.27v.59c0 .15-.118.273-.265.273s-.268-.124-.268-.274v-.59a.27.27 0 0 1 .24-.27zm-10.844.16h.014c.148 0 .268.123.268.273v.266c0 .15-.12.27-.268.27a.266.266 0 0 1-.265-.27v-.266a.27.27 0 0 1 .251-.273zm5.846 0h.016a.27.27 0 0 1 .265.273v.266a.266.266 0 1 1-.533 0v-.266a.27.27 0 0 1 .252-.273zm5.848 0h.012a.27.27 0 0 1 .267.273v.266a.266.266 0 1 1-.533 0v-.266c0-.145.113-.266.254-.273zm-16.533.117-.086.67h.596l.086-.67z"/></svg>