<svg viewBox="0 0 24 24" xmlns="http://www.w3.org/2000/svg"><path d="M9.162 2a7.116 7.116 0 0 0-5.066 2.1c-2.792 2.792-2.792 7.337 0 10.13a7.123 7.123 0 0 0 5.068 2.098 7.115 7.115 0 0 0 3.526-.931l6.04 6.043a1.915 1.915 0 0 0 2.707-2.707l-6.044-6.045c1.542-2.732 1.158-6.264-1.165-8.588A7.118 7.118 0 0 0 9.163 2zm0 2.01c1.377 0 2.672.536 3.647 1.51a5.165 5.165 0 0 1 0 7.29 5.121 5.121 0 0 1-3.645 1.51 5.129 5.129 0 0 1-3.648-1.51 5.164 5.164 0 0 1 0-7.29 5.121 5.121 0 0 1 3.646-1.51zm-.644.787a.084.084 0 0 0-.084.084v.973c0 .046.037.084.084.084 2.2 0 3.99 1.8 3.99 4.011 0 .047.037.084.084.084h.97a.085.085 0 0 0 .086-.084c0-2.84-2.302-5.152-5.13-5.152zM8.5 6.52a.087.087 0 0 0-.068.084v.97c0 .047.039.084.086.084.607 0 1.177.239 1.607.67a2.28 2.28 0 0 1 .668 1.62c0 .046.037.085.084.085h.97a.086.086 0 0 0 .085-.086A3.424 3.424 0 0 0 8.518 6.52c-.006 0-.013-.002-.018 0z"/></svg>