<svg viewBox="0 0 24 24" xmlns="http://www.w3.org/2000/svg"><path d="M12 2A10 10 0 0 0 2 12a10 10 0 0 0 10 10 10 10 0 0 0 10-10A10 10 0 0 0 12 2zm-.824 5.326h1.648a.378.378 0 0 1 .38.381v.209h.151a.492.492 0 0 1 .493.492v.334a.492.492 0 0 1-.493.492h-2.71v-.002a.492.492 0 0 1-.493-.492v-.334a.492.492 0 0 1 .493-.492h.152v-.209a.378.378 0 0 1 .379-.379zM7.38 8.617h2.314v.125a.95.95 0 0 0 .95.95h2.71c.524 0 .95-.427.95-.952v-.123h2.314a1.38 1.38 0 0 1 1.381 1.38v5.296a1.38 1.38 0 0 1-1.38 1.38H7.38A1.38 1.38 0 0 1 6 15.294V9.998a1.38 1.38 0 0 1 1.38-1.38zm1.998 1.574a2.508 2.508 0 0 0 0 5.016 2.508 2.508 0 0 0 0-5.016zm-.084.674a.955.955 0 0 1 1.031.918v.953a.954.954 0 0 1-.955.955.955.955 0 0 1-.953-.955v-.953a.955.955 0 0 1 .877-.918zm3.332.44v.513h4.025v-.513h-4.025zm-3.414.478a.159.159 0 1 0 0 .319h.318a.159.159 0 1 0 0-.319h-.318zm3.414.604v.513h4.025v-.513h-4.025zm-4.526.031a.159.159 0 0 1 .159.16v.158c0 .614.5 1.114 1.113 1.114s1.113-.5 1.113-1.114v-.158a.159.159 0 0 1 .158-.16.159.159 0 0 1 .159.16v.158a1.433 1.433 0 0 1-1.272 1.422v.17h.319a.159.159 0 1 1 0 .317h-.954a.159.159 0 1 1 0-.317h.317v-.17a1.432 1.432 0 0 1-1.272-1.422v-.158a.159.159 0 0 1 .16-.16zm1.112 0a.16.16 0 1 0 0 .318h.318a.16.16 0 1 0 0-.318h-.318zm3.414 1.05v.516h4.025v-.515h-4.025z"/></svg>