<?xml version="1.0" encoding="UTF-8"?>
<svg version="1.1" viewBox="0 0 24 24" xmlns="http://www.w3.org/2000/svg">
 <style type="text/css">.st0{fill:#FFFFFF;}
	.st1{fill:#8DC742;}</style>
 <path d="m7.9975 14.719c-1.2014 0.020784-1.9901 0.39347-2.4902 0.60742-0.17116-0.28119-0.49489-0.4639-0.85352-0.43945l-1.6992 0.11328c-0.56646 0.03668-0.9898 0.5086-0.95312 1.0547l0.27344 3.7754c0.040753 0.54608 0.52924 0.95677 1.0957 0.91602l1.6992-0.11328c0.35862-0.02445 0.65296-0.24531 0.7793-0.54687l7.4648 0.32226c0.83135 0.08966 1.6102-0.01341 2.3438-0.39648l0.21289-0.10938 5.6426-3.3008c0.27712-0.16301 0.4741-0.44419 0.48633-0.75391 0.01223-0.379-0.20425-0.79909-0.74219-0.83984-0.38307-0.02853-1.1746 0.39973-1.3906 0.50977-0.77022 0.38715-1.8419 0.99356-2.5469 1.4785-0.0489 0.0326-0.1132 0.07873-0.16211 0.11133-0.31787 0.20376-0.65259 0.33842-1.0234 0.41992-2.0458 0.43605-5.0234 0.48047-5.0234 0.48047l-0.17578 0.0078c-0.13041 0.0081-0.24932-0.0846-0.26562-0.21094-0.02038-0.13856 0.0818-0.26902 0.22852-0.28125l4.4297-0.41992c0.48903-0.05298 0.8772-0.50996 0.82422-1.0234-0.05298-0.51348-0.52659-0.88892-1.0156-0.83594l-3.9414-0.04883c-0.26897-0.0041-0.69638-0.06905-0.95312-0.14648-0.87274-0.25496-1.6149-0.34096-2.2441-0.33008zm-4.0039 4.0176c0.31787 0 0.58008 0.24888 0.58008 0.55859 0 0.30972-0.26221 0.55859-0.58008 0.55859s-0.57812-0.24887-0.57812-0.55859 0.26025-0.55859 0.57812-0.55859z" stroke-width=".040753"/>
 <path d="m5.8506 3.5523c-0.67177 0.034214-1.2087 0.59344-1.2087 1.2735v6.5619c0 0.702 0.5715 1.2735 1.2735 1.2735h12.169c0.702 0 1.2735-0.5715 1.2735-1.2735v-6.5619c0-0.702-0.5715-1.2735-1.2735-1.2735h-12.169c-0.021934 0-0.043129-0.0011-0.064795 0zm1.3756 1.0866h9.4753c-0.026 0.0988-0.04236 0.20731-0.04236 0.31651 0 0.7124 0.57855 1.2885 1.2909 1.2885 0.1092 0 0.21771-0.013869 0.31651-0.039875v3.9626c-0.1024-0.02529-0.20399-0.04236-0.31152-0.04236-0.7124 0-1.2909 0.57606-1.2909 1.2885 0 0.052 0.0047 0.10999 0.01 0.16199h-9.4479c0.015605-0.078 0.022432-0.15605 0.022432-0.23925 0-0.7124-0.57855-1.2885-1.2909-1.2885-0.078001 0-0.15128 0.0043-0.22928 0.01994v-3.9202c0.072795 0.015605 0.15128 0.019943 0.22928 0.019943 0.7124 0 1.2909-0.57606 1.2909-1.2885 0-0.0832-0.00689-0.16125-0.022432-0.23925zm4.775 0.67538c-1.5445 0-2.7938 1.252-2.7938 2.7912 0 1.0089 0.53886 1.8942 1.3432 2.385 0.04165-0.04111 0.08596-0.08262 0.13458-0.11464l0.74266-0.44859c0.012-0.00715 0.01994-0.022279 0.01994-0.037387v-0.14703c-0.31668-0.15642-0.53758-0.44491-0.65792-0.86229-0.1822-0.087137-0.30404-0.27908-0.30404-0.48597v-0.20685c0-0.17464 0.08478-0.33089 0.22429-0.42367 0.02492-0.19718 0.07055-0.3791 0.13707-0.5408 0.02828-0.068686 0.05274-0.12063 0.07228-0.16199 0.05946-0.12622 0.06251-0.13229 0.01994-0.36136-0.01582-0.085109-0.02816-0.1736-0.03739-0.25918-0.0049-0.045783 0.0079-0.089154 0.03739-0.12211 0.06424-0.071558 0.19264-0.058989 0.24921 0.02492 0.04424 0.065573 0.11118 0.13611 0.19688 0.20934 0.21911 0.18771 0.45684 0.23478 0.61806 0.24174 0.0344 0.0014 0.06918 0.00523 0.10467 0.00995 0.7132 0.094092 1.1006 0.46162 1.1813 1.1215 0.09997 0.091935 0.1595 0.22891 0.1595 0.37383v0.17445c0 0.17513-0.08566 0.33033-0.2193 0.40871-0.09216 0.36451-0.27027 0.63256-0.52834 0.79749v0.14206c0 0.00881 4e-3 0.013755 0.0049 0.014955l0.56323 0.28909c0.10896 0.05489 0.1969 0.15044 0.2542 0.27413l0.01496 0.03489c0.75614-0.50025 1.2536-1.3579 1.2536-2.3302 0-1.5392-1.2468-2.7912-2.7912-2.7912zm-4.0622 2.0162c-0.4264 0-0.77506 0.34867-0.77506 0.77506 0 0.4264 0.34866 0.77506 0.77506 0.77506s0.77506-0.34866 0.77506-0.77506c0-0.4264-0.34866-0.77506-0.77506-0.77506zm8.1269 0c-0.4264 0-0.77506 0.34867-0.77506 0.77506 0 0.4264 0.34866 0.77506 0.77506 0.77506s0.77506-0.34866 0.77506-0.77506c0-0.4264-0.34866-0.77506-0.77506-0.77506z" stroke-width=".052"/>
</svg>
