<svg viewBox="0 0 24 24" xmlns="http://www.w3.org/2000/svg"><path d="M12 2A10 10 0 0 0 2 12a10 10 0 0 0 10 10 10 10 0 0 0 10-10A10 10 0 0 0 12 2zM7.625 7h8.75c.345 0 .625.272.625.617v8.75c0 .345-.28.633-.625.633h-8.75A.632.632 0 0 1 7 16.367v-8.75C7 7.272 7.28 7 7.625 7zm.625 1.25v.938h.938V8.25H8.25zm1.875 0v3.125h3.75V8.25h-3.75zm4.688 0v.938h.937V8.25h-.938zM8.25 10.438v.937h.938v-.938H8.25zm6.563 0v.937h.937v-.938h-.938zM8.25 12.624v.938h.938v-.938H8.25zm1.875 0v3.125h3.75v-3.125h-3.75zm4.688 0v.938h.937v-.938h-.938zM8.25 14.813v.937h.938v-.938H8.25zm6.563 0v.937h.937v-.938h-.938z"/></svg>