<svg viewBox="0 0 24 24" xmlns="http://www.w3.org/2000/svg"><path d="M12 2C6.477 2 2 6.477 2 12s4.477 10 10 10 10-4.477 10-10S17.523 2 12 2zm2.541 2.803a2.759 2.759 0 0 1 2.76 2.757 2.759 2.759 0 0 1-2.104 2.674l.12 3.463a2.759 2.759 0 0 1 2.455 2.742 2.759 2.759 0 0 1-2.76 2.758 2.759 2.759 0 0 1-2.758-2.758 2.759 2.759 0 0 1 .158-.902l-3.178-1.67a2.759 2.759 0 0 1-2.214 1.127 2.759 2.759 0 0 1-2.76-2.76 2.759 2.759 0 0 1 2.76-2.757 2.759 2.759 0 0 1 1.925.785l3.026-1.72a2.759 2.759 0 0 1-.188-.982 2.759 2.759 0 0 1 2.758-2.757zm.203.457a2.45 2.45 0 0 0-2.408 2.486c0 .022.019.04.04.04l.464-.009a.04.04 0 0 0 .039-.04 1.907 1.907 0 0 1 1.875-1.934.04.04 0 0 0 .039-.041l-.008-.463a.04.04 0 0 0-.04-.04zm.016.816c-.9.016-1.62.758-1.604 1.654 0 .023.02.042.041.041l.461-.01a.042.042 0 0 0 .041-.04 1.088 1.088 0 0 1 1.07-1.102.04.04 0 0 0 .04-.04l-.008-.464a.04.04 0 0 0-.041-.039zm-2.297 3.297L9.51 11.049a2.759 2.759 0 0 1 .27 1.185 2.759 2.759 0 0 1-.112.772l3.213 1.687a2.759 2.759 0 0 1 1.473-.927l-.12-3.467a2.759 2.759 0 0 1-1.771-.926zm-5.29.537a2.45 2.45 0 0 0-2.407 2.486c0 .023.018.04.04.04l.463-.008a.04.04 0 0 0 .04-.041 1.907 1.907 0 0 1 1.875-1.934.04.04 0 0 0 .039-.04l-.008-.464a.04.04 0 0 0-.041-.039zm.016.817a1.63 1.63 0 0 0-1.603 1.654c0 .022.019.041.04.04l.462-.009a.042.042 0 0 0 .04-.04 1.07 1.07 0 0 1 .306-.77c.201-.209.472-.327.763-.332a.042.042 0 0 0 .041-.041l-.01-.463a.038.038 0 0 0-.039-.04zm7.948 3.453a2.45 2.45 0 0 0-2.409 2.484c0 .022.02.041.041.041l.463-.01a.04.04 0 0 0 .04-.04 1.905 1.905 0 0 1 1.874-1.932.04.04 0 0 0 .04-.041l-.008-.463a.04.04 0 0 0-.041-.04zm.013.816a1.63 1.63 0 0 0-1.601 1.654c0 .023.019.04.04.04l.462-.008a.04.04 0 0 0 .039-.041 1.085 1.085 0 0 1 1.07-1.102.04.04 0 0 0 .04-.041l-.009-.463a.04.04 0 0 0-.04-.039z"/><path d="m5.467 13.518-.019-.02.013.013zm7.95 4.091-.02-.02c.005.004.009.01.014.013z" fill="red" image-rendering="optimizeQuality" shape-rendering="geometricPrecision"/></svg>