<svg viewBox="0 0 24 24" xmlns="http://www.w3.org/2000/svg"><path d="M12 2a5.159 5.159 0 0 0-5.152 5.152V9.88h-.909a.908.908 0 0 0-.908.908v10.305c0 .502.406.908.909.908h12.12a.908.908 0 0 0 .909-.908V10.787a.908.908 0 0 0-.908-.908h-.909V7.152A5.159 5.159 0 0 0 12 2zm0 1.818a3.338 3.338 0 0 1 3.334 3.334V9.88H8.666V7.152A3.338 3.338 0 0 1 12 3.818zm-3.322 9.086a6.643 6.643 0 0 1 6.644 6.643h-1.107a5.536 5.536 0 0 0-5.537-5.535v-1.108zm0 2.584a4.06 4.06 0 0 1 4.06 4.059h-1.107a2.952 2.952 0 0 0-2.953-2.951v-1.108zm0 2.584c.815 0 1.476.661 1.476 1.477H8.678v-1.477z"/></svg>