<svg viewBox="0 0 24 24" xmlns="http://www.w3.org/2000/svg"><path d="M4.139 3.816A2.134 2.134 0 0 0 2 5.956v8.048c0 1.185.954 2.139 2.139 2.139h2.613l-.719 4.04 5.446-4.04h8.382a2.134 2.134 0 0 0 2.14-2.14V5.956a2.134 2.134 0 0 0-2.14-2.139H4.138zM5.95 6.744a1.77 1.77 0 0 1 1.766 1.768v1.765a1.767 1.767 0 0 1-3.531 0V8.512c0-.974.791-1.768 1.765-1.768zm6.049 0a1.77 1.77 0 0 1 1.766 1.768v1.765a1.767 1.767 0 0 1-3.532 0V8.512a1.77 1.77 0 0 1 1.766-1.768zm6.049 0a1.77 1.77 0 0 1 1.767 1.768v1.765a1.767 1.767 0 0 1-3.533 0V8.512a1.77 1.77 0 0 1 1.766-1.768zM5.656 8.512a.294.294 0 0 0 0 .588h.59a.294.294 0 0 0 0-.588h-.59zm6.049 0c-.163 0-.293.13-.293.293s.13.295.293.295h.59a.294.294 0 0 0 0-.588h-.59zm6.048 0a.294.294 0 0 0 0 .588h.59a.294.294 0 0 0 0-.588h-.59zM3.595 9.689c.163 0 .295.13.295.293v.295c0 1.137.925 2.06 2.06 2.06s2.061-.923 2.061-2.06v-.295c0-.162.132-.293.295-.293.163 0 .295.13.295.293v.295a2.653 2.653 0 0 1-2.355 2.633v.31h.588a.295.295 0 0 1 0 .59H5.068a.295.295 0 0 1 0-.59h.588v-.31A2.653 2.653 0 0 1 3.3 10.277v-.295c0-.162.132-.293.295-.293zm2.06 0a.294.294 0 0 0 0 .588h.59a.294.294 0 0 0 0-.588h-.59zm3.99 0c.162 0 .294.13.294.293v.295c0 1.137.925 2.06 2.06 2.06a2.062 2.062 0 0 0 2.061-2.06v-.295c0-.162.132-.293.295-.293.163 0 .295.13.295.293v.295a2.653 2.653 0 0 1-2.356 2.633v.31h.588a.295.295 0 0 1 0 .59h-1.765a.295.295 0 0 1 0-.59h.588v-.31a2.653 2.653 0 0 1-2.356-2.633v-.295c0-.162.132-.293.295-.293zm2.06 0a.294.294 0 0 0 0 .588h.59a.294.294 0 0 0 0-.588h-.59zm3.988 0c.163 0 .295.13.295.293v.295c0 1.137.924 2.06 2.06 2.06s2.06-.923 2.06-2.06v-.295c0-.162.133-.293.296-.293.163 0 .295.13.295.293v.295a2.653 2.653 0 0 1-2.356 2.633v.31h.588a.295.295 0 0 1 0 .59h-1.765a.295.295 0 0 1 0-.59h.587v-.31a2.652 2.652 0 0 1-2.353-2.633v-.295c0-.162.13-.293.293-.293zm2.06 0a.294.294 0 0 0 0 .588h.59a.294.294 0 0 0 0-.588h-.59z"/></svg>