<?xml version="1.0" encoding="UTF-8"?>
<svg version="1.1" viewBox="0 0 24 24" xml:space="preserve" xmlns="http://www.w3.org/2000/svg"><path d="m12 2a10 10 0 0 0-10 10 10 10 0 0 0 10 10 10 10 0 0 0 10-10 10 10 0 0 0-10-10zm-4.9805 4.8398h0.0019532a0.98868 0.98868 0 0 1 0.99023 0.98828h-0.0019532a0.98868 0.98868 0 0 1-0.98828 0.98828h-0.0019532a0.98868 0.98868 0 1 1 0-1.9766zm3.0625 0h6.8867a0.98868 0.98868 0 1 1 0 1.9766h-6.8867a0.98868 0.98868 0 0 1-0.98828-0.98828h0.0019531a0.98868 0.98868 0 0 1 0.98633-0.98828zm-3.0625 4.1719h0.0019532a0.98868 0.98868 0 0 1 0.99023 0.98828h-0.0019532a0.98868 0.98868 0 0 1-0.98828 0.98828h-0.0019532a0.98868 0.98868 0 1 1 0-1.9766zm3.0625 0h6.8867a0.98868 0.98868 0 0 1 0.98828 0.98828h-0.001953a0.98868 0.98868 0 0 1-0.98633 0.98828h-6.8867a0.98868 0.98868 0 1 1 0-1.9766zm-3.0625 4.1719h0.0019532a0.98868 0.98868 0 0 1 0.99023 0.98828h-0.0019532a0.98868 0.98868 0 0 1-0.98828 0.98828h-0.0019532a0.98868 0.98868 0 1 1 0-1.9766zm3.0625 0h6.8867a0.98868 0.98868 0 0 1 0.98828 0.98828h-0.001953a0.98868 0.98868 0 0 1-0.98633 0.98828h-6.8867a0.98868 0.98868 0 1 1 0-1.9766z"/></svg>
