<svg viewBox="0 0 24 24" xmlns="http://www.w3.org/2000/svg"><path d="M12 2A10 10 0 0 0 2 12a10 10 0 0 0 3.23 7.334c.813-.334 1.77-.502 2.413-.502 1.322 0 3.96.706 3.96 2.111v1.032A10 10 0 0 0 12 22a10 10 0 0 0 .396-.025v-1.032c0-1.405 2.64-2.111 3.961-2.111.644 0 1.601.168 2.412.502A10 10 0 0 0 22 12 10 10 0 0 0 12 2zm-1.943 4.152c2.078 0 3.763 1.331 3.763 2.973 0 1.64-1.685 2.97-3.763 2.97-.913 0-1.75-.256-2.403-.683a5.03 5.03 0 0 0-1.263.686c-.136.1-.341.014-.334-.155.019-.464.117-1.205.515-1.693a2.432 2.432 0 0 1-.28-1.125c0-1.64 1.685-2.973 3.765-2.973zm5.154 1.98c1.64 0 2.97 1.068 2.97 2.38 0 .376-.108.728-.302 1.045.183.31.248.699.27.992.011.169-.192.257-.33.16a3.752 3.752 0 0 0-.694-.38 3.43 3.43 0 0 1-1.914.558c-.912 0-1.729-.329-2.274-.846 1.025-.69 1.68-1.74 1.68-2.916 0-.317-.048-.625-.137-.92a3.686 3.686 0 0 1 .73-.072zm-7.569 5.946a1.98 1.98 0 0 1 1.981 1.979 1.98 1.98 0 1 1-3.96.002 1.98 1.98 0 0 1 1.98-1.98zm8.715 0a1.98 1.98 0 0 1 1.983 1.979 1.98 1.98 0 0 1-3.961.002 1.98 1.98 0 0 1 1.978-1.98zm-4.584.014a1.585 1.585 0 0 1 1.81 1.568 1.585 1.585 0 1 1-3.167.002 1.585 1.585 0 0 1 1.357-1.57zM12 18.039a4.51 4.51 0 0 1 1.88.469 6.544 6.544 0 0 0-.31.123c-.464.198-.932.466-1.297.824a2.571 2.571 0 0 0-.273.317 2.568 2.568 0 0 0-.274-.317c-.363-.358-.832-.626-1.296-.824a6.52 6.52 0 0 0-.313-.123A4.526 4.526 0 0 1 12 18.039z"/></svg>