<?xml version="1.0" encoding="UTF-8"?>
<svg version="1.1" viewBox="0 0 24 24" xmlns="http://www.w3.org/2000/svg">
 <style type="text/css">.st0{fill:#FFFFFF;}
	.st1{fill:#8DC742;}</style>
 <g transform="matrix(.040649 0 0 .040649 2 2)">
  <g id="XMLID_607_">
   <path id="XMLID_609_" d="m317.88 113.73h-259.15c-32.381 0-58.729 26.35-58.729 58.731v259.15c0 32.381 26.348 58.729 58.729 58.729h259.15c32.381 0 58.728-26.348 58.728-58.729v-259.15c0-32.381-26.347-58.731-58.728-58.731zm-9.922 307.96h-239.31v-239.31h239.31z"/>
   <path id="XMLID_608_" d="m406.61 1.685h-146.3c-18.956 0-34.325 15.369-34.325 34.324 0 18.956 15.369 34.326 34.325 34.326h146.3c9.236 0 16.762 7.525 16.762 16.76v146.3c0 18.955 15.368 34.324 34.325 34.324s34.326-15.369 34.326-34.324v-146.3c-1e-3 -47.095-38.317-85.41-85.414-85.41z"/>
  </g>
 </g>
</svg>
