<svg viewBox="0 0 24 24" xmlns="http://www.w3.org/2000/svg"><path d="M9.143 14.381a2.38 2.38 0 1 1-4.76.001 2.38 2.38 0 0 1 4.76-.001zM2 20.254c0-1.689 3.173-2.54 4.762-2.54s4.762.851 4.762 2.54v1.27H2zm17.619-5.873a2.38 2.38 0 1 1-4.76.001 2.38 2.38 0 0 1 4.76-.001zm-5.714-.476a1.904 1.904 0 1 1-3.809.001 1.904 1.904 0 0 1 3.809-.001zm-1.429 6.349c0-1.689 3.173-2.54 4.762-2.54 1.59 0 4.762.851 4.762 2.54v1.27h-9.524z"/><g clip-rule="evenodd" fill-rule="evenodd" stroke-width=".476"><path d="M14.262 17.326a7.865 7.865 0 0 0-.375.149c-.558.238-1.121.56-1.559.99a3.09 3.09 0 0 0-.328.38 3.086 3.086 0 0 0-.329-.38c-.437-.43-1-.752-1.558-.99a7.836 7.836 0 0 0-.376-.149c.726-.376 1.658-.564 2.263-.564s1.537.188 2.262.564zM9.664 9.619c2.498 0 4.524-1.599 4.524-3.571 0-1.973-2.026-3.572-4.524-3.572-2.499 0-4.524 1.6-4.524 3.572 0 .479.12.936.336 1.353-.479.587-.596 1.476-.619 2.034-.008.203.237.307.4.186a6.046 6.046 0 0 1 1.52-.823c.784.513 1.79.821 2.887.821z"/><path d="M13.127 9.555c1.231-.83 2.017-2.093 2.017-3.507 0-.381-.057-.75-.164-1.104a4.43 4.43 0 0 1 .879-.087c1.972 0 3.571 1.28 3.571 2.857 0 .452-.131.879-.364 1.259.22.373.298.84.324 1.192.014.203-.231.31-.398.193a4.51 4.51 0 0 0-.832-.459c-.622.42-1.425.672-2.301.672-1.096 0-2.077-.394-2.732-1.016z"/></g></svg>