<svg viewBox="0 0 24 24" xmlns="http://www.w3.org/2000/svg"><path d="M12 2A10 10 0 0 0 2 12a10 10 0 0 0 10 10 10 10 0 0 0 10-10A10 10 0 0 0 12 2zM8.31 6.842h7.34c.421 0 .764.342.764.763v3.938a.765.765 0 0 1-.764.764h-7.3a.764.764 0 0 1-.764-.764V7.605a.766.766 0 0 1 .724-.763zm.825.652a.774.774 0 0 1-.899.904v2.352a.774.774 0 0 1 .899.904h5.67a.774.774 0 0 1 .77-.869.77.77 0 0 1 .185.026V8.434a.774.774 0 0 1-.963-.75.754.754 0 0 1 .025-.19H9.135zM12 7.898h.002a1.674 1.674 0 0 1 .922 3.075l-.008-.022a.342.342 0 0 0-.152-.164l-.34-.174a.024.024 0 0 1-.002-.01v-.083c.155-.1.262-.26.316-.479a.285.285 0 0 0 .133-.246V9.69a.306.306 0 0 0-.096-.224c-.049-.396-.28-.618-.709-.674a.562.562 0 0 0-.062-.006.603.603 0 0 1-.371-.144.66.66 0 0 1-.12-.125c-.034-.051-.109-.06-.148-.016a.093.093 0 0 0-.023.072 2.082 2.082 0 0 0 .023.156c.025.138.024.142-.012.217a1.274 1.274 0 0 0-.126.422.303.303 0 0 0-.135.254v.125a.326.326 0 0 0 .183.291c.072.25.205.423.395.518v.088a.026.026 0 0 1-.012.021l-.447.27a.548.548 0 0 0-.08.068 1.674 1.674 0 0 1-.807-1.43A1.676 1.676 0 0 1 12 7.898zm-2.436 1.21a.466.466 0 0 1 .465.466.467.467 0 0 1-.465.465.466.466 0 0 1-.464-.465.466.466 0 0 1 .464-.467zm4.875 0a.466.466 0 0 1 .465.466.466.466 0 0 1-.93 0 .466.466 0 0 1 .465-.467zM9.6 13.54c.378-.006.823.044 1.346.197a2.51 2.51 0 0 0 .573.09l2.363.027a.565.565 0 0 1 .611.502.566.566 0 0 1-.496.616l-2.656.252a.149.149 0 0 0-.137.168.15.15 0 0 0 .158.127l.106-.006s1.787-.026 3.014-.287a1.852 1.852 0 0 0 .615-.252c.03-.02.066-.049.096-.069a14.8 14.8 0 0 1 1.529-.886c.13-.066.604-.322.834-.305.323.024.452.276.445.504a.567.567 0 0 1-.293.45l-3.385 1.981-.127.067c-.44.23-.907.292-1.406.238l-4.478-.193a.544.544 0 0 1-.47.328l-1.017.066a.607.607 0 0 1-.658-.549l-.164-2.265a.6.6 0 0 1 .57-.633l1.022-.066a.556.556 0 0 1 .512.261c.3-.128.774-.35 1.494-.363zm-2.402 2.41a.342.342 0 0 0-.347.336.34.34 0 0 0 .347.334c.19 0 .348-.148.348-.334a.342.342 0 0 0-.348-.336z"/></svg>