<?xml version="1.0" encoding="UTF-8"?>
<svg version="1.1" viewBox="0 0 24 24" xmlns="http://www.w3.org/2000/svg">
 <style type="text/css">.st0{fill:#FFFFFF;}
	.st1{fill:#8DC742;}</style>
 <g transform="matrix(.040878 0 0 .040878 2 2)">
  <path d="m423.66 234.36c-12.438-3e-3 -24.01 3.457-33.869 9.468-3.709 2.262-8.354 2.345-12.141 0.216s-6.121-6.137-6.121-10.482v-78.158c0-12.027-10.109-21.7-22.139-21.7h-95.748c-4.252 0-8.188-2.248-10.349-5.909-2.161-3.662-2.23-8.196-0.172-11.917 5.22-9.429 8.19-20.296 8.19-31.821 0-36.233-29.374-65.627-65.617-65.627-36.232 0-65.601 29.404-65.601 65.638 0 11.523 2.97 22.385 8.187 31.811 2.061 3.723 1.999 8.258-0.163 11.923-2.163 3.665-6.102 5.902-10.356 5.902h-95.745c-12.032 0-22.013 9.673-22.013 21.7v76.237c0 4.231 2.226 8.15 5.859 10.318s8.143 2.27 11.864 0.257c9.267-5.012 19.876-7.858 31.151-7.855 36.239-5e-3 65.612 29.377 65.612 65.612 0 36.238-29.373 65.616-65.612 65.606-11.276 0-21.885-2.847-31.152-7.857-3.725-2.014-8.234-1.92-11.871 0.25-3.636 2.171-5.852 6.093-5.852 10.326v80.76c0 12.033 9.98 21.784 22.013 21.784h327.38c12.027 0 22.139-9.751 22.139-21.784v-82.681c0-4.342 2.344-8.346 6.127-10.475 3.783-2.127 8.426-2.053 12.135 0.207 9.857 6.011 21.432 9.47 33.867 9.47 36.24 0.01 65.607-29.368 65.607-65.606 1e-3 -36.235-29.367-65.618-65.605-65.613z"/>
 </g>
</svg>
