<svg viewBox="0 0 24 24" xmlns="http://www.w3.org/2000/svg"><path d="M19.13 2H4.87a2.09 2.09 0 0 0-2.088 2.088v15.824A2.09 2.09 0 0 0 4.87 22h14.26a2.09 2.09 0 0 0 2.088-2.088V4.088A2.09 2.09 0 0 0 19.13 2zm-3.462 10.284c.038-.023.075-.048.112-.073h1.002v-1.997c0-1.275-1.037-2.312-2.312-2.312s-2.31 1.037-2.31 2.312v1.997h1.001c.037.025.073.05.111.073a1.784 1.784 0 0 0-1.272.855 1.784 1.784 0 0 0-1.273-.855A2.312 2.312 0 0 0 9.53 7.997a2.312 2.312 0 0 0-1.198 4.287 1.784 1.784 0 0 0-1.521 1.762v2.09H5.43V4.647h13.14v11.486h-1.38v-2.09c0-.893-.661-1.635-1.52-1.761z"/></svg>