<svg viewBox="0 0 24 24" xmlns="http://www.w3.org/2000/svg"><path d="M9.741 7.39h4.518a.82.82 0 0 0 .82-.82v-.557a.82.82 0 0 0-.82-.82h-.256v-.35a.63.63 0 0 0-.63-.632h-2.746a.63.63 0 0 0-.63.631v.35H9.74a.82.82 0 0 0-.82.82v.557c0 .454.367.82.82.82z"/><path d="M19.7 6.363h-3.858v.206c0 .874-.71 1.583-1.583 1.583H9.74A1.583 1.583 0 0 1 8.158 6.57v-.206H4.3a2.3 2.3 0 0 0-2.3 2.3v8.825a2.3 2.3 0 0 0 2.3 2.3h15.4a2.3 2.3 0 0 0 2.3-2.3V8.66c0-1.27-1.03-2.296-2.3-2.296zM7.631 17.344a4.18 4.18 0 1 1 0-8.36 4.18 4.18 0 0 1 0 8.36zm12.123-2.036h-6.71v-.858h6.71zm0-1.806h-6.71v-.857h6.71zm0-1.805h-6.71v-.857h6.71z"/><path d="M9.74 12.698a.265.265 0 0 0-.264.265v.265c0 1.023-.833 1.855-1.855 1.855s-1.855-.832-1.855-1.855v-.265a.265.265 0 1 0-.53 0v.265c0 1.226.929 2.238 2.12 2.37v.28h-.53a.265.265 0 1 0 0 .53h1.59a.265.265 0 1 0 0-.53h-.53v-.28a2.388 2.388 0 0 0 2.12-2.37v-.265a.265.265 0 0 0-.265-.265z"/><path d="M7.62 14.818a1.59 1.59 0 0 0 1.59-1.59v-1.59a1.591 1.591 0 0 0-3.18 0v1.59c0 .877.714 1.59 1.59 1.59zm-.264-3.18h.53a.265.265 0 1 1 0 .53h-.53a.265.265 0 1 1 0-.53zm0 1.06h.53a.265.265 0 1 1 0 .53h-.53a.265.265 0 1 1 0-.53z"/></svg>