<?xml version="1.0" encoding="UTF-8"?>
<svg version="1.1" viewBox="0 0 24 24" xmlns="http://www.w3.org/2000/svg">
 <style type="text/css">.st0{fill:#FFFFFF;}
	.st1{fill:#8DC742;}</style>
 <g transform="matrix(.094464 -.012004 -.011691 -.092003 2.9646 21.923)">
  <path d="m24.436 60.455-24.436 22.052 3.019 3.34 23.604-21.303c10.786 1.527 65.434 6.136 65.427-57.177 0-5e-3 -72.54-13.713-67.614 53.088z"/>
 </g>
 <g transform="matrix(.10727 0 0 .10448 .083186 3.4674)">
  <path d="m72.286 59.861c0.336 0.414 0.668 0.849 1.01 1.189 4.097 4.088 10.742 4.088 14.835 0 3.967-3.961 4.059-10.272 0.366-14.396 5.678-0.13 10.249-4.764 10.249-10.469 0-5.788-4.712-10.489-10.492-10.489-0.472 0-0.954 0.053-1.444 0.099 0.268-0.228 0.582-0.458 0.812-0.691 4.11-4.093 4.11-10.737 0-14.844-4.093-4.093-10.742-4.093-14.835 0-0.314 0.312-0.609 0.722-0.91 1.11 0.021-0.291 0.041-0.602 0.041-0.883-1e-3 -5.794-4.696-10.487-10.49-10.487-5.604 0-10.125 4.399-10.436 9.91-4.115-3.809-10.523-3.749-14.529 0.26-4.09 4.096-4.09 10.741 0 14.84 0.462 0.452 1.016 0.896 1.579 1.324-0.441-0.049-0.886-0.084-1.314-0.084-5.795 0-10.487 4.695-10.487 10.496 0 5.758 4.649 10.436 10.4 10.48-3.973 4.108-3.953 10.649 0.109 14.708 4.064 4.067 10.634 4.085 14.739 0.074v0.017c0 4.843 6.1639 9.7555 10.508 9.1334 4.544-0.70694 8.8429-4.1485 10.289-11.297zm-19.254-23.682c0-5.046 4.1-9.156 9.153-9.156 5.044 0 9.15 4.11 9.15 9.156 0 5.043-4.106 9.156-9.15 9.156-5.054 0-9.153-4.113-9.153-9.156z"/>
 </g>
 <g transform="matrix(.016866 0 0 .016427 12.071 2.1609)">
  <g transform="matrix(.92184 .39793 -.3775 .92184 139.43 -97.847)">
   <path d="m306 149.34c-86.382 0-156.66 70.278-156.66 156.66s70.278 156.66 156.66 156.66 156.66-70.278 156.66-156.66c0-86.384-70.278-156.66-156.66-156.66z"/>
   <path d="m274.19 117.28h63.612c5.032 0 9.356-2.101 11.863-5.763 2.508-3.662 2.9-8.453 1.079-13.146l-34.999-90.112c-2.789-7.184-7.305-8.256-9.749-8.256s-6.96 1.073-9.749 8.255l-35 90.114c-1.821 4.692-1.427 9.482 1.079 13.145 2.507 3.663 6.832 5.763 11.864 5.763z"/>
   <path d="m337.81 494.72h-63.612c-5.032 0-9.357 2.102-11.863 5.764-2.506 3.663-2.9 8.453-1.079 13.145l34.999 90.114c2.789 7.182 7.305 8.254 9.749 8.254s6.96-1.072 9.749-8.254l34.999-90.115c1.821-4.69 1.429-9.48-1.079-13.144-2.507-3.662-6.831-5.764-11.863-5.764z"/>
   <path d="m127.54 190.82c2.412 5.477 7.028 8.746 12.348 8.746 3.644 0 7.257-1.608 10.174-4.526l44.981-44.98c3.558-3.558 5.13-8.102 4.312-12.466-0.819-4.362-3.928-8.028-8.532-10.056l-88.467-38.973c-2.233-0.983-4.336-1.482-6.25-1.482-3.201 0-5.959 1.415-7.568 3.882-1.357 2.081-2.454 5.747 0.031 11.389z"/>
   <path d="m484.46 421.18c-2.412-5.477-7.027-8.746-12.346-8.746-3.645 0-7.259 1.609-10.177 4.527l-44.981 44.98c-3.558 3.559-5.13 8.104-4.312 12.466s3.929 8.028 8.532 10.055l88.466 38.974c2.233 0.983 4.336 1.482 6.25 1.482 3.201 0 5.959-1.417 7.568-3.882 1.358-2.083 2.455-5.748-0.03-11.389z"/>
   <path d="m461.94 195.04c2.918 2.918 6.532 4.526 10.176 4.526 5.319 0 9.934-3.269 12.348-8.746l38.972-88.465c2.486-5.643 1.389-9.308 0.031-11.389-1.609-2.467-4.367-3.882-7.568-3.882-1.914 0-4.017 0.499-6.251 1.483l-88.466 38.97c-4.604 2.029-7.715 5.694-8.532 10.057-0.818 4.363 0.754 8.908 4.312 12.466z"/>
   <path d="m150.06 416.96c-2.918-2.918-6.532-4.527-10.177-4.527-5.319 0-9.934 3.269-12.346 8.746l-38.972 88.465c-2.486 5.643-1.389 9.308-0.031 11.39 1.609 2.466 4.368 3.882 7.568 3.882 1.914 0 4.017-0.499 6.251-1.484l88.466-38.972c4.604-2.028 7.715-5.694 8.532-10.056 0.818-4.362-0.753-8.907-4.312-12.466z"/>
   <path d="m603.74 296.25-90.111-34.996c-1.942-0.755-3.896-1.137-5.806-1.137-7.593 0-13.104 5.921-13.104 14.078l1e-3 63.613c0 8.157 5.511 14.078 13.104 14.078 1.912 0 3.866-0.382 5.806-1.136l90.112-34.999c7.182-2.79 8.254-7.306 8.254-9.751 0-2.443-1.075-6.961-8.256-9.75z"/>
   <path d="m104.17 351.89c7.594 0 13.106-5.921 13.106-14.078v-63.613c0-8.157-5.511-14.078-13.106-14.078-1.912 0-3.864 0.382-5.805 1.136l-90.113 34.998c-7.182 2.789-8.255 7.305-8.255 9.75 0 2.444 1.072 6.96 8.255 9.752l90.111 34.996c1.942 0.754 3.895 1.137 5.807 1.137z"/>
  </g>
 </g>
 <g transform="matrix(.17493 -.042524 .041069 .16895 11.833 14.298)">
  <path d="m23 47.689v-6.342l-3.357 1.992-1.643-1.034v-2.229l5-2.986v-4.168l-4 2.451v-4.416l-4 2.094v5.99l-1.653 1.23-1.347-1.111v-4.012l-5.574 3.122-2.426-0.999v-2.529l5.685-3.17-3.685-1.822v-2.32l2.123-1.127 5.214 3.068 3.612-2.084-0.082-0.065-3.665-2.123 3.568-2.228-3.577-2.083-5.213 3.052-1.98-0.969v-2.307l3.542-1.978-5.542-3.053v-2.529l2.321-1.114 5.679 3.197v-4.076l1.485-1.127 1.943 1.18-0.056 6.105 3.673 2.122 0.033-4.311 3.922 2.099v-4.167l-5-2.988v-2.214l1.643-1.05 3.357 1.992v-6.328l1.994-1.324 2.006 1.324v6.328l3.906-2.031 2.094 1.219v1.992l-6 3.08v4.167l4-2.267v4.534l4-2.084v-6.524l1.455-0.866 1.545 0.865v4.167l5.842-3.08 2.158 1.218v2.359l-5.495 3.17 3.495 1.954v2.254l-1.83 0.996-5.327-3.158-3.679 2.346 3.549 2.228-3.659 2.122 3.772 1.992 5.389-2.986 1.785 1.216v2.15l-3.32 1.887 5.32 3.17v2.49l-2.522 1.037-5.478-2.988v3.955l-1.52 1.049-1.48-1.049v-6.002l-4-2.213v4.168l-4-2.268v4.168l5 2.986v2.359l-1.647 0.904-3.353-1.99v6.342l-2.006 1.31zm-1.466-22.597 1.886 2.908h3.514l1.613-2.908-1.704-3.092h-3.514z"/>
 </g>
</svg>
