<?xml version="1.0" encoding="UTF-8"?>
<svg version="1.1" viewBox="0 0 24 24" xmlns="http://www.w3.org/2000/svg">
 <g transform="matrix(.039062 0 0 .039062 2 2)">
  <path d="m480 0h-448c-17.672 0-32 13.951-32 31.623v448c0 17.672 14.328 32.377 32 32.377h448c17.672 0 32-14.705 32-32.377v-448c0-17.672-14.328-31.623-32-31.623zm-368 448h-48v-48h48zm0-112h-48v-48h48zm0-112h-48v-48h48zm0-112h-48v-48h48zm240 336h-192v-160h192zm0-224h-192v-160h192zm96 224h-48v-48h48zm0-112h-48v-48h48zm0-112h-48v-48h48zm0-112h-48v-48h48z"/>
 </g>
</svg>
