<svg viewBox="0 0 24 24" xmlns="http://www.w3.org/2000/svg"><path d="M6 8a4 4 0 0 0-4 4 4 4 0 0 0 4 4 4 4 0 0 0 4-4 4 4 0 0 0-4-4zm6 0a4 4 0 0 0-2.639 1.01 4.5 4.5 0 0 1 .983 1.818l.086-.633h.382l-.138.98h.662l.139-.98h.384l-.138.98h.431v.352h-.48l-.139 1.03h.62v.353h-.669l-.132.98h-.383l.133-.98h-.663l-.132.98h-.233a4.5 4.5 0 0 1-.719 1.095A4 4 0 0 0 12 16a4 4 0 0 0 4-4 4 4 0 0 0-4-4zm6 0a4 4 0 0 0-2.639 1.01 4.5 4.5 0 0 1 .99 1.85l.096-.706h.385l-.139.983h.662l.14-.983h.382l-.139.983h.432v.351h-.479l-.138 1.03h.617v.351h-.666l-.133.983h-.385l.133-.983h-.66l-.133.983h-.232a4.5 4.5 0 0 1-.739 1.132A4 4 0 0 0 18 16a4 4 0 0 0 4-4 4 4 0 0 0-4-4zm1.387 2.068c.277 0 .491.088.64.262.15.174.223.405.223.693 0 .203-.04.376-.121.518a.79.79 0 0 1-.336.32.762.762 0 0 1 .41.342c.1.16.149.367.149.623 0 .342-.083.612-.25.81-.164.196-.412.296-.747.296a1.31 1.31 0 0 1-.71-.215l.123-.373c.081.05.167.093.255.129a.8.8 0 0 0 .29.052c.18 0 .32-.055.42-.166.103-.113.156-.291.156-.537 0-.245-.058-.43-.172-.554-.11-.125-.288-.188-.533-.188h-.14v-.389h.118c.213 0 .372-.058.475-.171.103-.114.156-.272.156-.475 0-.192-.041-.333-.123-.426a.408.408 0 0 0-.326-.144.68.68 0 0 0-.266.052.817.817 0 0 0-.215.135l-.18-.336c.093-.085.2-.15.325-.193.128-.043.254-.065.379-.065zm-5.98.041c.287 0 .506.076.66.229.152.15.23.385.23.705 0 .15-.027.29-.076.426s-.111.266-.186.394c-.075.125-.157.25-.246.375a7.168 7.168 0 0 0-.256.383 2.755 2.755 0 0 0-.213.406c-.06.14-.099.288-.113.448h1.164v.416h-1.654v-.102c0-.238.027-.45.08-.635.057-.185.125-.35.203-.5.082-.149.172-.288.268-.416s.181-.254.26-.375c.081-.124.15-.25.202-.379a1.07 1.07 0 0 0 .086-.431c0-.189-.038-.323-.113-.405-.075-.085-.186-.128-.336-.128a.618.618 0 0 0-.281.064.872.872 0 0 0-.225.154l-.224-.314c.21-.21.467-.315.77-.315zm-8.735.043h.385l-.14.98h.661l.139-.98h.385l-.14.98h.432v.352h-.48l-.139 1.032h.62v.351h-.667l-.134.98H5.21l.133-.98h-.66l-.135.98h-.38l.136-.98H3.87v-.351h.48l.14-1.032h-.62v-.351h.668zm3.103 0h.354v3.696h-.46v-2.971c-.06.064-.132.125-.214.182-.078.057-.161.11-.25.16l-.186-.33c.068-.04.136-.088.207-.145.075-.057.146-.117.213-.181.068-.068.131-.136.188-.204.06-.07.11-.14.148-.207zM4.87 11.484l-.139 1.032h.663l.138-1.032zm11.775.004-.139 1.03h.663l.138-1.03zm-6.017.04-.14 1.029h.661l.139-1.03z"/></svg>