<?xml version="1.0" encoding="UTF-8"?>
<svg version="1.1" viewBox="0 0 24 24" xmlns="http://www.w3.org/2000/svg">
 <style type="text/css">.st0{fill:#FFFFFF;}
	.st1{fill:#8DC742;}</style>
 <style type="text/css">.st0{fill:#FFFFFF;}
	.st1{fill:#8DC742;}</style>
 <g stroke-width=".47619">
  <path d="m9.1429 14.381c0 1.3155-1.0655 2.381-2.381 2.381s-2.381-1.0655-2.381-2.381c0-1.3155 1.0655-2.381 2.381-2.381s2.381 1.0655 2.381 2.381z"/>
  <path d="m2 20.254c0-1.6889 3.1726-2.5397 4.7619-2.5397s4.7619 0.85081 4.7619 2.5397v1.2699h-9.5238z"/>
  <path d="m19.619 14.381c0 1.3155-1.0655 2.381-2.381 2.381s-2.381-1.0655-2.381-2.381c0-1.3155 1.0655-2.381 2.381-2.381s2.381 1.0655 2.381 2.381z"/>
  <path d="m13.905 13.905c0 1.0524-0.85238 1.9048-1.9048 1.9048s-1.9048-0.85238-1.9048-1.9048 0.85238-1.9048 1.9048-1.9048 1.9048 0.85238 1.9048 1.9048z"/>
  <path d="m12.476 20.254c0-1.6889 3.1726-2.5397 4.7619-2.5397 1.5893 0 4.7619 0.85081 4.7619 2.5397v1.2699h-9.5238z"/>
 </g>
 <g clip-rule="evenodd" fill-rule="evenodd" stroke-width=".47619">
  <path d="m14.262 17.326c-0.1271 0.04671-0.25248 0.09633-0.37538 0.14881-0.55767 0.23833-1.1208 0.56029-1.5583 0.99095-0.11714 0.11538-0.22833 0.24186-0.32857 0.37929-0.10024-0.13743-0.21143-0.2639-0.32862-0.37929-0.43748-0.43067-1.0007-0.75262-1.5583-0.99095-0.12286-0.052476-0.24824-0.1021-0.37538-0.14881 0.72505-0.37567 1.6575-0.56429 2.2623-0.56429 0.60481 0 1.5372 0.18862 2.2623 0.56429z"/>
  <path d="m9.6637 9.619c2.4984 0 4.5238-1.599 4.5238-3.5714 0-1.9724-2.0254-3.5714-4.5238-3.5714-2.4984 0-4.5238 1.599-4.5238 3.5714 0 0.47914 0.11951 0.93624 0.33628 1.3537-0.47879 0.58686-0.59605 1.4754-0.61884 2.0339-0.0082953 0.20324 0.2371 0.30719 0.40005 0.18543 0.3268-0.24424 0.8458-0.57548 1.52-0.82286 0.78324 0.51295 1.7892 0.82129 2.8863 0.82129z"/>
  <path d="m13.127 9.555c1.2311-0.82952 2.0173-2.0926 2.0173-3.5074 0-0.38061-0.0569-0.75025-0.16405-1.1034 0.281-0.056848 0.57524-0.087052 0.87833-0.087052 1.9724 0 3.5714 1.2792 3.5714 2.8571 0 0.45162-0.13095 0.87871-0.36419 1.2584 0.22024 0.37305 0.29852 0.84081 0.32395 1.1928 0.01462 0.20286-0.2309 0.30924-0.39762 0.19267-0.20633-0.14429-0.48733-0.3139-0.83224-0.45886-0.62157 0.41938-1.4246 0.67214-2.3013 0.67214-1.0959 0-2.0765-0.39486-2.7316-1.0164z"/>
 </g>
</svg>
