<?xml version="1.0" encoding="UTF-8"?>
<svg version="1.1" viewBox="0 0 24 24" xmlns="http://www.w3.org/2000/svg">
 <g transform="matrix(.016823 -.016457 .016457 .016823 5.6856 12.3)">
  <path id="XMLID_1208_" d="m443.47 53.031 2.989-2.989c1.599-1.599 2.9-3.494 3.665-5.622 2.039-5.671 0.537-11.745-3.487-15.769l-23.432-23.431c-5.857-5.858-15.355-5.858-21.213 0l-3.166 3.167-3.993-3.993c-5.858-5.858-15.355-5.858-21.213 0s-5.858 15.355 0 21.213l3.993 3.993-20.037 20.037-3.993-3.993c-5.858-5.858-15.355-5.858-21.213 0s-5.858 15.355 0 21.213l3.993 3.993-76.719 76.719c-10.638-4.999-22.13-7.89-33.92-8.373-22.852-0.932-44.05 7.152-59.674 22.777-5.331 5.33-9.838 11.391-13.398 18.015-7.26 13.509-21.305 21.898-36.658 21.898-0.028 1e-3 -0.053-1e-3 -0.081 0-31.59 0-60.882 11.894-82.481 33.492-46.953 46.952-44.094 126.21 6.373 176.68 26.429 26.429 60.751 39.801 94.197 39.801 30.42 0 60.115-11.063 82.479-33.428 21.613-21.612 33.507-50.926 33.492-82.54-7e-3 -15.362 8.384-29.416 21.899-36.68 6.622-3.559 12.682-8.066 18.014-13.397 24.558-24.558 29.122-62.034 14.374-93.565l76.749-76.749 3.993 3.993c5.858 5.858 15.355 5.858 21.213 0s5.858-15.355 0-21.213l-3.993-3.993 20.036-20.036 3.993 3.993c5.858 5.858 15.355 5.858 21.213 0s5.858-15.355 0-21.213zm-305.39 334.59-73.843-73.844 21.213-21.213 73.843 73.844zm89.444-113.08c-13.839 13.838-36.36 13.843-50.203 0-13.841-13.841-13.841-36.362 0-50.202 13.871-13.873 36.328-13.875 50.202 0 13.841 13.841 13.841 36.361 1e-3 50.202z"/>
 </g>
 <g transform="matrix(.014274 0 0 .014274 2 8.346)">
  <path d="m480 0h-448c-17.672 0-32 13.951-32 31.623v448c0 17.672 14.328 32.377 32 32.377h448c17.672 0 32-14.705 32-32.377v-448c0-17.672-14.328-31.623-32-31.623zm-368 448h-48v-48h48zm0-112h-48v-48h48zm0-112h-48v-48h48zm0-112h-48v-48h48zm240 336h-192v-160h192zm0-224h-192v-160h192zm96 224h-48v-48h48zm0-112h-48v-48h48zm0-112h-48v-48h48zm0-112h-48v-48h48z"/>
 </g>
 <g transform="matrix(.014274 0 0 .014274 15.605 8.346)">
  <path d="m426.67 213.33c-11.797 0-21.333 9.557-21.333 21.333v21.334c0 82.347-67.008 149.33-149.33 149.33s-149.33-66.986-149.33-149.33v-21.333c0-11.776-9.536-21.333-21.333-21.333s-21.333 9.557-21.333 21.333v21.333c0 98.645 74.816 180.1 170.67 190.74v22.592h-42.668c-11.797 0-21.333 9.557-21.333 21.333s9.536 21.334 21.333 21.334h128c11.797 0 21.333-9.557 21.333-21.333s-9.536-21.333-21.333-21.333h-42.667v-22.592c95.851-10.646 170.67-92.097 170.67-190.74v-21.333c0-11.776-9.536-21.334-21.333-21.334z"/>
  <path d="m256 384c70.592 0 128-57.408 128-128v-128c0-70.592-57.408-128-128-128s-128 57.408-128 128v128c0 70.592 57.408 128 128 128zm-21.333-256h42.667c11.797 0 21.333 9.557 21.333 21.333s-9.536 21.333-21.333 21.333h-42.667c-11.797 0-21.333-9.557-21.333-21.333s9.535-21.333 21.333-21.333zm0 85.333h42.667c11.797 0 21.333 9.557 21.333 21.333s-9.536 21.334-21.334 21.334h-42.667c-11.797 0-21.333-9.557-21.333-21.333s9.536-21.334 21.334-21.334z"/>
 </g>
</svg>
