<?xml version="1.0" encoding="UTF-8"?>
<svg version="1.1" viewBox="0 0 24 24" xmlns="http://www.w3.org/2000/svg">
 <style type="text/css">.st0{fill:#FFFFFF;}
	.st1{fill:#8DC742;}</style>
 <path id="XMLID_789_" d="m9.1621 2c-1.9143 0-3.7132 0.74575-5.0664 2.0996-2.7919 2.7928-2.792 7.3373 0 10.131 1.3543 1.3532 3.1541 2.0977 5.0684 2.0977 1.257 0 2.4613-0.3274 3.5254-0.93164l6.041 6.043c0.74677 0.7471 1.9588 0.74743 2.707 0 0.35893-0.3591 0.55993-0.84595 0.56055-1.3535 0-0.50781-0.20227-0.99458-0.56055-1.3535l-6.0449-6.0449c1.5421-2.7314 1.1582-6.2639-1.1641-8.5879-1.3539-1.3539-3.1528-2.0996-5.0664-2.0996zm0 2.0098c1.3773 0 2.6721 0.53595 3.6465 1.5098 2.0084 2.0101 2.0084 5.2809 0 7.291-0.97381 0.97348-2.2678 1.5098-3.6445 1.5098-1.3773 0-2.6738-0.53595-3.6484-1.5098-2.009-2.0101-2.0084-5.2812 0-7.291 0.97381-0.9741 2.2685-1.5098 3.6465-1.5098zm-0.64453 0.78711c-0.046655 0-0.083984 0.037329-0.083984 0.083984v0.97266c0 0.046655 0.037329 0.083984 0.083984 0.083984 2.2 0 3.9902 1.7996 3.9902 4.0117 0 0.046655 0.03732 0.083984 0.08398 0.083984h0.9707c0.04666 0 0.08594-0.037329 0.08594-0.083984 0-2.8408-2.3024-5.1523-5.1309-5.1523zm-0.017578 1.7227c-0.038491 0.0078738-0.068359 0.043161-0.068359 0.083984v0.9707c1.69e-5 0.046655 0.0393 0.083984 0.085938 0.083984 0.60744 0 1.1775 0.23852 1.6074 0.66992 0.4299 0.43214 0.66797 1.0064 0.66797 1.6191 0 0.046655 0.03732 0.085937 0.08398 0.085937h0.9707c0.04666 0 0.08398-0.039282 0.08398-0.085937 0-1.8911-1.5309-3.4277-3.4141-3.4277-0.00583 0-0.012079-0.00112-0.017578 0z" stroke-width=".016892"/>
</svg>
