<svg viewBox="0 0 24 24" xmlns="http://www.w3.org/2000/svg"><path d="M4 7c-1.108 0-2 .892-2 2v6c0 1.108.892 2 2 2h16c1.108 0 2-.892 2-2V9c0-1.108-.892-2-2-2H4zm1.605 3.158c.35 0 .666.076.938.237.272.158.487.383.635.664v.002c.15.277.228.591.234.935a.202.202 0 0 0 0 .002.202.202 0 0 0 0 .002.202.202 0 0 0 0 .002.202.202 0 0 0 0 .002 2.06 2.06 0 0 1-.234.941v.002c-.148.278-.364.5-.635.658a1.812 1.812 0 0 1-.938.237 1.85 1.85 0 0 1-.943-.237 1.653 1.653 0 0 1-.635-.66 2.07 2.07 0 0 1-.228-.941.202.202 0 0 1 0-.008 2.07 2.07 0 0 1 .228-.941c.148-.279.364-.503.635-.66a1.85 1.85 0 0 1 .944-.237zm2.598.022h.06a.53.53 0 0 1 .41.215.202.202 0 0 1 .007.007l1.394 2.014v-1.824a.42.42 0 0 1 .407-.412c.105 0 .214.048.289.125a.418.418 0 0 1 .123.287v2.73a.503.503 0 0 1-.502.498h-.055a.51.51 0 0 1-.229-.052.202.202 0 0 1-.01-.004.554.554 0 0 1-.167-.147.202.202 0 0 1-.004-.006l-1.402-2.027v1.83a.418.418 0 0 1-.413.406.42.42 0 0 1-.289-.119.422.422 0 0 1-.117-.287v-2.73a.508.508 0 0 1 .498-.504zm5.805 0h.045c.1 0 .205.035.285.101.07.054.128.124.164.205a.202.202 0 0 1 .002.004l1.168 2.754a.436.436 0 0 1 .037.17c0 .1-.044.21-.115.283a.41.41 0 0 1-.293.123.443.443 0 0 1-.22-.058.202.202 0 0 1-.018-.01.451.451 0 0 1-.141-.178.202.202 0 0 1-.002-.006l-.248-.59h-1.283l-.248.59a.202.202 0 0 1-.002.006.444.444 0 0 1-.155.182.202.202 0 0 1-.003.002.424.424 0 0 1-.516-.057.202.202 0 0 1-.006-.006.414.414 0 0 1-.068-.451l1.166-2.754a.202.202 0 0 1 .002-.004.544.544 0 0 1 .158-.209.473.473 0 0 1 .29-.097zm2.377 0c.105 0 .214.048.289.125a.418.418 0 0 1 .123.287v2.822a.42.42 0 0 1-.125.29.419.419 0 0 1-.287.116.422.422 0 0 1-.287-.119.422.422 0 0 1-.117-.287v-2.822c0-.1.041-.21.115-.285a.418.418 0 0 1 .289-.127zm1.305.023h1.066c.442 0 .803.088 1.06.3.249.205.385.5.385.829 0 .222-.066.434-.191.617h.002a.967.967 0 0 1-.203.21c.1.09.179.205.228.339.091.235.135.473.135.705v.211c0 .102-.044.214-.117.287s-.183.12-.29.12a.436.436 0 0 1-.29-.108.202.202 0 0 1-.012-.012.432.432 0 0 1-.107-.287v-.137a1.77 1.77 0 0 0-.04-.379.202.202 0 0 0 0-.002.453.453 0 0 0-.138-.244.202.202 0 0 0-.002-.002c-.056-.056-.151-.097-.328-.097h-.746v.861a.418.418 0 0 1-.412.406.42.42 0 0 1-.29-.119.422.422 0 0 1-.117-.287v-2.799c0-.1.04-.21.116-.287a.418.418 0 0 1 .29-.125zm-12.084.744a.998.998 0 0 0-.536.137.871.871 0 0 0-.332.365c-.08.16-.12.34-.12.551 0 .21.04.392.12.55.08.159.186.275.332.366a.998.998 0 0 0 .536.137.983.983 0 0 0 .529-.137.87.87 0 0 0 .338-.365c.08-.16.12-.34.12-.551 0-.21-.04-.392-.12-.55a.87.87 0 0 0-.338-.366.983.983 0 0 0-.53-.137zm12.496.051v.76h.627c.236 0 .4-.046.507-.12a.202.202 0 0 0 .002-.001c.107-.072.143-.14.143-.274 0-.135-.032-.194-.117-.256a.202.202 0 0 0-.002-.002c-.068-.05-.257-.107-.557-.107h-.603zm-4.073.44-.314.76h.63l-.316-.76z"/></svg>