<svg viewBox="0 0 24 24" xmlns="http://www.w3.org/2000/svg"><path d="M12.97 2a.213.213 0 0 0-.111.032l-2.784 1.605a.22.22 0 0 0 0 .377L12.86 5.62a.216.216 0 0 0 .326-.188v-.88h1.72c1.114 0 2.02.905 2.02 2.019h1.451a3.475 3.475 0 0 0-3.47-3.471h-1.721v-.88A.219.219 0 0 0 12.97 2zM5.826 7.313c-.714 0-1.293.579-1.293 1.293v6.658c0 .714.579 1.293 1.293 1.293h12.348c.713 0 1.293-.579 1.293-1.293V8.606c0-.714-.584-1.297-1.293-1.293zm1.326 1.105h9.619a1.311 1.311 0 0 0 1.582 1.59v4.016a1.31 1.31 0 0 0-1.62 1.432h-9.58a1.311 1.311 0 0 0-1.514-1.53V9.948a1.311 1.311 0 0 0 1.514-1.53zm4.845.682a2.836 2.836 0 1 0 0 5.671 2.836 2.836 0 0 0 0-5.671zm-.607.838h.23c.042 0 .075.035.075.076v.537c.101-.002.202-.004.302-.004v-.533H12c0-.041.033-.076.075-.076h.23c.042 0 .074.035.074.076v.549c.491.043.879.194.922.645.033.329-.104.526-.324.638.363.087.59.304.545.787-.055.6-.503.762-1.143.8v.554a.075.075 0 0 1-.074.076h-.23a.075.075 0 0 1-.075-.076v-.547c-.098 0-.2 0-.304-.002v.549a.075.075 0 0 1-.075.076h-.228a.077.077 0 0 1-.076-.076v-.557l-.272-.002h-.496a.074.074 0 0 1-.07-.074l.002-.008-.002-.002.07-.31h.002a.073.073 0 0 1 .072-.059h.002s.28.004.276 0c.107 0 .136-.079.142-.127v-1.71c-.014-.078-.064-.167-.218-.167.004-.005-.276 0-.276 0v-.002a.075.075 0 0 1-.076-.074v-.254c0-.041.035-.076.076-.076h.524v.002c.079 0 .16-.002.242-.004v-.549h.002c0-.041.033-.076.074-.076zm.543 1.057c-.093-.001-.177.003-.23.003v.76c.214 0 .89.049.89-.38 0-.337-.38-.382-.66-.383zm-4.06.152a.79.79 0 0 0 0 1.576.79.79 0 0 0 0-1.576zm8.247 0a.79.79 0 0 0 0 1.576.79.79 0 0 0 0-1.576zm-4.142.99c-.112 0-.21.004-.274.004v.836c.258 0 1.065.054 1.065-.418 0-.37-.455-.42-.791-.422zM5.6 17.43a3.475 3.475 0 0 0 3.47 3.47h1.723v.882c0 .167.18.273.326.187l2.782-1.605a.22.22 0 0 0 0-.377L11.12 18.38a.216.216 0 0 0-.326.188v.88H9.072a2.02 2.02 0 0 1-2.018-2.019H5.601z"/></svg>