<svg viewBox="0 0 24 24" xmlns="http://www.w3.org/2000/svg"><path d="M12 2A10 10 0 0 0 2 12a10 10 0 0 0 10 10 10 10 0 0 0 10-10A10 10 0 0 0 12 2zm-1.158 4.5h5.746c.503 0 .912.41.912.914v5.744a.913.913 0 0 1-.912.912h-.8v.803a.915.915 0 0 1-.915.912h-.8v.8a.917.917 0 0 1-.915.915H7.412a.914.914 0 0 1-.912-.914v-5.744c0-.503.409-.912.912-.912h.803v-.803c0-.504.408-.912.912-.912h.8v-.8c0-.504.412-.915.915-.915zm0 .773a.14.14 0 0 0-.139.141v.8h4.17c.504 0 .912.41.912.913v4.172h.803a.14.14 0 0 0 .139-.14V7.413a.14.14 0 0 0-.14-.14h-5.745zM9.127 8.988a.138.138 0 0 0-.139.139v.8h4.17c.503 0 .914.412.914.915v4.17h.801a.138.138 0 0 0 .139-.139V9.127a.138.138 0 0 0-.139-.139H9.127zm-1.715 1.713a.14.14 0 0 0-.138.14v3.79l1.177-1.908a.29.29 0 0 1 .512.033l.728 1.637.653-.52a.29.29 0 0 1 .398.035l.805.92 1.752.131v-4.117a.141.141 0 0 0-.14-.14H7.411zm1.242 2.793-1.357 2.207h6v-.16l-1.912-.143a.291.291 0 0 1-.197-.097l-.7-.803-.728.582a.291.291 0 0 1-.447-.11l-.659-1.476zm-1.38 2.787v.305a.14.14 0 0 0 .14.14h5.744a.14.14 0 0 0 .14-.14v-.305H7.274z"/><path d="M10.998 14.062a1.643 1.643 0 1 0 0-3.286 1.643 1.643 0 0 0 0 3.286z"/></svg>