<svg viewBox="0 0 24 24" xmlns="http://www.w3.org/2000/svg"><path d="M12 2A10 10 0 0 0 2 12a10 10 0 0 0 10 10 10 10 0 0 0 10-10A10 10 0 0 0 12 2zm-.025 4.36c2.344 0 3.062 1.825 3.062 3.355 0 2.19-2.44 5.408-3.062 5.408-.587 0-3.06-3.193-3.06-5.408 0-1.53.714-3.356 3.06-3.356zm0 1.597a1.422 1.422 0 0 0-1.42 1.422 1.422 1.422 0 0 0 1.42 1.418 1.422 1.422 0 0 0 1.422-1.418 1.422 1.422 0 0 0-1.422-1.422zm3.006 4.71c1.712.412 3.019 1.197 3.019 2.318 0 1.725-3.091 2.656-6 2.656-2.908 0-6-.932-6-2.656 0-1.113 1.288-1.892 2.98-2.307a12.019 12.019 0 0 0 .475.836c-1.6.344-2.52.975-2.52 1.47 0 .718 1.928 1.72 5.065 1.72 3.138 0 5.065-1 5.065-1.72 0-.499-.934-1.135-2.557-1.476a11.946 11.946 0 0 0 .473-.842z"/></svg>