<svg viewBox="0 0 24 24" xmlns="http://www.w3.org/2000/svg"><path d="M16.966 13.112a19.91 19.91 0 0 1-.787 1.401c2.705.569 4.26 1.628 4.26 2.46 0 1.198-3.21 2.867-8.439 2.867-5.228 0-8.439-1.67-8.439-2.866 0-.826 1.53-1.877 4.197-2.45a20.031 20.031 0 0 1-.791-1.396C4.146 13.82 2 15.12 2 16.974 2 19.849 7.153 21.4 12 21.4c4.848 0 10-1.552 10-4.427 0-1.868-2.18-3.174-5.034-3.862z"/><path d="M11.959 17.206c1.038 0 5.104-5.363 5.104-9.014 0-2.549-1.196-5.593-5.104-5.593-3.909 0-5.104 3.044-5.104 5.593 0 3.692 4.127 9.014 5.104 9.014zM9.592 7.63a2.37 2.37 0 0 1 2.367-2.368 2.37 2.37 0 0 1 2.367 2.368 2.37 2.37 0 0 1-2.367 2.366A2.37 2.37 0 0 1 9.592 7.63z"/></svg>