<?xml version="1.0" encoding="UTF-8"?>
<svg version="1.1" viewBox="0 0 24 24" xmlns="http://www.w3.org/2000/svg" xmlns:xlink="http://www.w3.org/1999/xlink">
 <defs>
  <rect id="SVGID_1_" x="9.4" y="5.8" width="82.5" height="82.5"/>
  <clipPath id="SVGID_2_">
   <use width="100%" height="100%" xlink:href="#SVGID_1_"/>
  </clipPath>
  <style>.cls-1{fill:#5000b9;}</style>
 </defs>
 <style type="text/css">.st0{clip-path:url(#SVGID_2_);fill:#DB4615;}
	.st1{clip-path:url(#SVGID_2_);fill:#FFFFFF;}</style>
 <style type="text/css">.st0{fill:#FFFFFF;}
	.st1{fill:#8DC742;}</style>
 <path d="m4.6957 6.8459c-1.4937 0-2.6957 1.1082-2.6957 2.4849v5.3383c0 1.3768 1.202 2.4849 2.6957 2.4849h14.609c1.4937 0 2.6957-1.1082 2.6957-2.4849v-5.3383c0-1.3768-1.202-2.4849-2.6957-2.4849zm0.54198 3.1899c0.37061 0 0.71045 0.08091 1.0007 0.2515l0.00177 0.0018c0.2888 0.16871 0.51639 0.41092 0.67304 0.70847l0.00177 0.0018c0.15972 0.29548 0.24095 0.63266 0.24796 0.99717a0.22864 0.22864 0 0 0 0 0.0018 0.22864 0.22864 0 0 0 0 0.0018 0.22864 0.22864 0 0 0 0 0.0018 0.22864 0.22864 0 0 0 0 0.0018c-0.00704 0.3659-0.087489 0.70518-0.24796 1.0043-0.15694 0.29563-0.38609 0.53451-0.67481 0.70315-0.29069 0.17142-0.63103 0.25328-1.0025 0.25328-0.37145 0-0.71123-0.08088-1.0043-0.2515-0.28936-0.16866-0.52064-0.40801-0.67835-0.7051-0.15749-0.29667-0.23564-0.63633-0.24265-1.0043a0.22864 0.22864 0 0 1 0-0.0071c0.00701-0.36792 0.085158-0.70758 0.24265-1.0042 0.15771-0.29707 0.389-0.53642 0.67836-0.70491 0.29303-0.17063 0.6328-0.2515 1.0043-0.2515zm2.7471 0.02302h0.061991c0.17483 0 0.34199 0.09539 0.4481 0.23379a0.22864 0.22864 0 0 1 0.00708 0.01063l1.4453 2.0882v-1.881c0-0.10992 0.047693-0.23016 0.12752-0.31172 0.07958-0.08336 0.19991-0.13992 0.31881-0.13992 0.11753 0 0.23588 0.05845 0.3135 0.13815 0.0815 0.0796 0.13638 0.20026 0.13638 0.3135v2.887c0 0.13974-0.06202 0.28446-0.16472 0.38434-0.09992 0.09924-0.24207 0.1594-0.38257 0.1594h-0.05845c-0.08432 0-0.17137-0.02103-0.24619-0.05845a0.22864 0.22864 0 0 1-0.010627-0.0053c-0.070628-0.04037-0.13239-0.09506-0.18066-0.1594a0.22864 0.22864 0 0 1-0.00531-0.0071l-1.4559-2.1041v1.8881c-2e-7 0.11455-0.055018 0.23752-0.13815 0.31704-0.081495 0.07987-0.19921 0.1293-0.3135 0.1293-0.11562 0-0.23599-0.05179-0.31527-0.13107-0.081562-0.08156-0.1293-0.20406-0.1293-0.31527v-2.887c-1e-7 -0.1374 0.056871-0.2811 0.15763-0.38257v-0.0018c0.098448-0.10105 0.24178-0.16472 0.38434-0.16472zm6.1371 0h0.04959c0.10956 0 0.22437 0.03927 0.30995 0.10981 0.07607 0.05796 0.1395 0.1363 0.17889 0.22494a0.22864 0.22864 0 0 1 0.0018 0.0035l1.2327 2.9118c0.02251 0.05414 0.04251 0.10872 0.04251 0.18597 0 0.11428-0.05156 0.23241-0.1293 0.31172-0.07982 0.08378-0.20277 0.13461-0.31704 0.13461-0.08255 0-0.16823-0.02315-0.24088-0.06553a0.22864 0.22864 0 0 1-0.01948-0.0124c-0.07095-0.05161-0.12155-0.12077-0.15409-0.19129a0.22864 0.22864 0 0 1-0.0035-0.0071l-0.25682-0.6146h-1.339l-0.25682 0.6146a0.22864 0.22864 0 0 1-0.0035 0.0071c-0.03516 0.07619-0.09185 0.14683-0.16649 0.1966a0.22864 0.22864 0 0 1-0.0053 0.0035c-0.07228 0.046-0.1601 0.06908-0.24265 0.06908-0.11612 0-0.23861-0.0491-0.32058-0.13107a0.22864 0.22864 0 0 1-0.0071-0.0053c-0.07494-0.0812-0.11867-0.19952-0.11867-0.30995 0-0.07703 0.01987-0.13164 0.04251-0.18597l1.2327-2.9118a0.22864 0.22864 0 0 1 0.0018-0.0035c0.03889-0.08748 0.09779-0.16718 0.17358-0.22671 0.08757-0.0695 0.20363-0.10804 0.31527-0.10804zm2.5151 0c0.11755-1e-6 0.23566 0.05638 0.31527 0.13815 0.0815 0.0796 0.13638 0.20026 0.13638 0.3135v2.9844c0 0.11455-0.05501 0.23752-0.13815 0.31704-0.08149 0.07987-0.19921 0.1293-0.3135 0.1293-0.11562 0-0.23598-0.05178-0.31527-0.13107-0.07928-0.07928-0.13107-0.19965-0.13107-0.31527v-2.9844c0-0.11428 0.05157-0.23241 0.1293-0.31172 0.07751-0.08117 0.19815-0.13992 0.31704-0.13992zm1.378 0.0248h1.1282c0.46994 0 0.85659 0.09432 1.1335 0.32235 0.26625 0.21926 0.41091 0.53763 0.41091 0.88735 0 0.23489-0.06821 0.4634-0.20191 0.66065v0.0018c-0.05626 0.08331-0.13132 0.15041-0.209 0.21431 0.10255 0.09668 0.18459 0.21618 0.23556 0.35423 0.0955 0.24814 0.14701 0.49816 0.14701 0.74743v0.22317c0 0.11562-0.05178 0.23598-0.13107 0.31527-0.07928 0.07928-0.19965 0.13107-0.31527 0.13107-0.11217 0-0.2338-0.03855-0.32058-0.11867a0.22864 0.22864 0 0 1-0.0124-0.0124c-0.07992-0.08656-0.1169-0.20828-0.1169-0.31527v-0.14524c0-0.14679-0.01366-0.27862-0.03897-0.39674a0.22864 0.22864 0 0 0 0-0.0018c-0.01979-0.09456-0.06301-0.17165-0.14346-0.24973a0.22864 0.22864 0 0 1-0.0035-0.0035c-0.05444-0.05444-0.15356-0.09741-0.33829-0.09741h-0.77223v0.89444c0 0.11455-0.05501 0.23752-0.13815 0.31704-0.08149 0.07987-0.19921 0.1293-0.3135 0.1293-0.11562 0-0.23598-0.05178-0.31527-0.13107-0.08156-0.08156-0.12929-0.20406-0.1293-0.31527v-2.9596c0-0.10993 0.04554-0.22975 0.12752-0.3135 0.07952-0.08313 0.20249-0.13815 0.31704-0.13815zm-12.777 0.82005c-0.22693 0-0.40601 0.04868-0.55615 0.13992-0.15219 0.094461-0.26468 0.21763-0.34715 0.38257-0.083042 0.16609-0.12575 0.35302-0.12575 0.57386 1e-7 0.22083 0.04271 0.40777 0.12575 0.57386 0.082473 0.16495 0.19496 0.28811 0.34715 0.38257 0.15014 0.09124 0.32921 0.13992 0.55615 0.13992 0.22397 0 0.40386-0.04809 0.55437-0.13992 0.15486-0.09449 0.26653-0.2178 0.34892-0.38257 0.083042-0.16609 0.12575-0.35302 0.12575-0.57386 0-0.22083-0.04271-0.40777-0.12575-0.57386-0.082386-0.16477-0.19406-0.28808-0.34892-0.38257-0.15051-0.091832-0.33041-0.13992-0.55437-0.13992zm13.229 0.05313v0.77046h0.64648c0.24798 0 0.41997-0.04944 0.52958-0.12398a0.22864 0.22864 0 0 1 0.0035 0c0.1101-0.0734 0.14524-0.13872 0.14524-0.2763 0-0.13778-0.03166-0.19707-0.11867-0.26036a0.22864 0.22864 0 0 1-0.0035 0c-0.06686-0.04976-0.26354-0.10981-0.57917-0.10981zm-4.3199 0.48707-0.31172 0.7492h0.62345z"/>
</svg>
