<?xml version="1.0" encoding="UTF-8"?>
<svg version="1.1" viewBox="0 0 24 24" xmlns="http://www.w3.org/2000/svg">
 <style type="text/css">.st0{fill:#FFFFFF;}
	.st1{fill:#8DC742;}</style>
 <path d="m19.13 2h-14.26c-1.1513 0-2.0879 0.93659-2.0879 2.0879v15.824c0 1.1513 0.93659 2.0879 2.0879 2.0879h14.26c1.1513 0 2.0879-0.93659 2.0879-2.0879v-15.824c0-1.1513-0.93659-2.0879-2.0879-2.0879zm-3.4615 10.284c0.03796-0.0231 0.07494-0.04755 0.11137-0.07271h1.002v-1.9975c0-1.2745-1.0369-2.3114-2.3114-2.3114s-2.3114 1.0369-2.3114 2.3114v1.9975h1.002c0.03644 0.02516 0.07342 0.04967 0.11137 0.07271-0.54125 0.07938-1.0039 0.40304-1.2725 0.85515-0.26857-0.45211-0.73125-0.77577-1.2725-0.85515 0.667-0.40586 1.1134-1.1398 1.1134-1.976 0-1.2745-1.0369-2.3114-2.3114-2.3114s-2.3114 1.0369-2.3114 2.3114c0 0.83623 0.44636 1.5702 1.1134 1.976-0.85943 0.12601-1.5215 0.86795-1.5215 1.7618v2.0895h-1.3791v-11.487h13.138v11.486h-1.3793v-2.0895c0-0.89381-0.66201-1.6357-1.5214-1.7618z" stroke-width=".054223"/>
</svg>
