<svg viewBox="0 0 24 24" xmlns="http://www.w3.org/2000/svg"><path d="M20.043 4.826H3.956a1.959 1.959 0 0 0-1.957 1.957v10.435a1.96 1.96 0 0 0 1.957 1.956h16.087a1.959 1.959 0 0 0 1.956-1.956V6.783a1.959 1.959 0 0 0-1.956-1.957zM7.62 17.87l.652-1.304h7.455l.652 1.304zm13.075-.652c0 .36-.293.652-.652.652h-2.206l-1.124-2.248a.652.652 0 0 0-.583-.36H7.869a.652.652 0 0 0-.583.36L6.16 17.869H3.956a.653.653 0 0 1-.652-.652V6.782c0-.36.292-.652.652-.652h16.087c.36 0 .652.292.652.652z"/><path d="M16.783 8.74H7.218a2.612 2.612 0 0 0-2.609 2.608 2.612 2.612 0 0 0 2.609 2.608h9.565a2.612 2.612 0 0 0 2.609-2.608 2.612 2.612 0 0 0-2.609-2.609zm-9.565 3.912a1.305 1.305 0 0 1 0-2.608c.719 0 1.304.585 1.304 1.304 0 .719-.585 1.304-1.304 1.304zm7.307 0h-5.05a2.592 2.592 0 0 0 0-2.608h5.05a2.592 2.592 0 0 0 0 2.608zm2.258 0a1.305 1.305 0 0 1 0-2.608c.719 0 1.304.585 1.304 1.304 0 .719-.585 1.304-1.304 1.304z"/></svg>