<?xml version="1.0" encoding="UTF-8"?>
<svg version="1.1" viewBox="0 0 24 24" xmlns="http://www.w3.org/2000/svg">
 <style type="text/css">.st0{fill:#FFFFFF;}
	.st1{fill:#8DC742;}</style>
 <path d="m20.043 4.8261h-16.087c-1.0788 0-1.9565 0.8777-1.9565 1.9565v10.435c0 1.0788 0.8777 1.9565 1.9565 1.9565h16.087c1.0788 0 1.9565-0.8777 1.9565-1.9565v-10.435c0-1.0788-0.8777-1.9565-1.9565-1.9565zm-12.423 13.043 0.65219-1.3043h7.4547l0.65219 1.3043zm13.075-0.65219c0 0.35961-0.29258 0.65219-0.65219 0.65219h-2.2056l-1.1241-2.2482c-0.11051-0.22094-0.33629-0.36051-0.58336-0.36051h-8.2608c-0.24703 0-0.47281 0.13957-0.58336 0.36051l-1.1241 2.2482h-2.2056c-0.35961 0-0.65219-0.29258-0.65219-0.65219v-10.435c0-0.35961 0.29258-0.65219 0.65219-0.65219h16.087c0.35961 0 0.65219 0.29258 0.65219 0.65219z" stroke-width=".039062"/>
 <path d="m16.783 8.7391h-9.5652c-1.4384 0-2.6087 1.1703-2.6087 2.6087 0 1.4384 1.1703 2.6087 2.6087 2.6087h9.5652c1.4384 0 2.6087-1.1703 2.6087-2.6087-3.9e-5 -1.4385-1.1703-2.6087-2.6087-2.6087zm-9.5652 3.913c-0.71922 0-1.3043-0.58512-1.3043-1.3043 0-0.71922 0.58512-1.3043 1.3043-1.3043 0.71922 0 1.3043 0.58512 1.3043 1.3043 3.9e-5 0.71918-0.58512 1.3043-1.3043 1.3043zm7.3075 0h-5.0498c0.22273-0.38406 0.35094-0.82934 0.35094-1.3043s-0.1282-0.92031-0.35094-1.3043h5.0497c-0.22274 0.38406-0.35094 0.82934-0.35094 1.3043 0 0.47496 0.12824 0.92027 0.35098 1.3043zm2.2577 0c-0.71922 0-1.3043-0.58512-1.3043-1.3043 0-0.71922 0.58512-1.3043 1.3043-1.3043s1.3043 0.58512 1.3043 1.3043c0 0.71918-0.58512 1.3043-1.3043 1.3043z" stroke-width=".039062"/>
</svg>
