<?xml version="1.0" encoding="UTF-8"?>
<svg version="1.1" viewBox="0 0 24 24" xmlns="http://www.w3.org/2000/svg">
 <style type="text/css">.st0{fill:#FFFFFF;}
	.st1{fill:#8DC742;}</style>
 <style type="text/css">.st0{fill:#FFFFFF;}
	.st1{fill:#8DC742;}</style>
 <path d="m3.4148 20.754h1.132c0.78133 0 1.4148-0.63352 1.4148-1.4149v-9.2583c0-0.78133-0.63348-1.4148-1.4148-1.4148h-1.132c-0.78133 0-1.4148 0.63348-1.4148 1.4148v9.2581c0 0.78151 0.63348 1.415 1.4148 1.415z" stroke-width=".035473"/>
 <path d="m8.621 20.784h9.2598c0.625 0 1.3477-0.32994 1.7569-0.80216l0.48478-0.55941c0.3387-0.39084 0.63043-1.0208 0.70971-1.5321l1.1473-7.4173c0.12047-0.77765-0.30305-1.5974-1.0071-1.9493l-0.30784-0.15392c-0.43313-0.21667-1.0736-0.36775-1.5577-0.36775h-4.2768l0.94224-2.6379c0.16367-0.45828 0.11699-0.95544-0.12852-1.3638-0.23796-0.39578-0.63873-0.66129-1.0994-0.72859-0.25509-0.037105-0.51082-0.056012-0.75984-0.056012-1.1788 0-2.1703 0.41532-2.8672 1.2008-0.20103 0.22664-0.38144 0.52213-0.54079 0.78286-0.061227 0.10007-0.11876 0.19539-0.17041 0.27158-0.71989 1.0644-1.791 1.9752-2.3653 2.4234-0.51301 0.40032-0.87144 1.1239-0.87144 1.7593v9.4793c-3.55e-5 0.91024 0.74068 1.651 1.6514 1.651zm0.51951-11.097c0.00954-0.02845 0.032352-0.070344 0.049946-0.09184 0.67864-0.531 1.9326-1.605 2.8136-2.9074 0.06772-0.10007 0.14459-0.2249 0.22515-0.3569 0.0951-0.15587 0.23902-0.39145 0.31195-0.4735 0.21777-0.24555 0.52298-0.39578 0.90986-0.44895l-0.99322 2.7817c-0.17045 0.47719-0.10965 0.97541 0.1663 1.3671s0.72511 0.61614 1.2318 0.61614h5.2511c0.1448 0 0.457 0.07382 0.5868 0.13874l0.10571 0.05296-1.1129 7.1939c-0.01671 0.10766-0.13331 0.35973-0.20472 0.44224l-0.47282 0.54554c-0.03324 0.02515-0.10571 0.05839-0.14654 0.06687h-8.7221z" stroke-width=".035473"/>
</svg>
