<svg viewBox="0 0 24 24" xmlns="http://www.w3.org/2000/svg"><path d="M3.415 20.754h1.132c.781 0 1.415-.634 1.415-1.415v-9.258c0-.782-.634-1.415-1.415-1.415H3.415C2.633 8.666 2 9.299 2 10.081v9.258c0 .781.633 1.415 1.415 1.415zm5.206.03h9.26c.625 0 1.348-.33 1.757-.802l.484-.56c.34-.39.63-1.02.71-1.532l1.147-7.417a1.903 1.903 0 0 0-1.007-1.95l-.307-.153a3.878 3.878 0 0 0-1.558-.368H14.83l.942-2.638A1.595 1.595 0 0 0 15.644 4a1.536 1.536 0 0 0-1.1-.728 5.3 5.3 0 0 0-.76-.056c-1.178 0-2.17.415-2.867 1.2-.2.227-.381.523-.54.783-.062.1-.12.196-.17.272-.72 1.064-1.792 1.975-2.366 2.423-.513.4-.872 1.124-.872 1.76v9.479c0 .91.741 1.651 1.652 1.651zm.52-11.097a.352.352 0 0 1 .05-.092c.678-.53 1.932-1.605 2.813-2.907.068-.1.145-.225.225-.357.095-.156.24-.392.312-.474.218-.245.523-.395.91-.449l-.993 2.782c-.17.477-.11.976.166 1.367s.725.616 1.232.616h5.251c.145 0 .457.074.587.14l.106.052-1.113 7.194c-.017.108-.134.36-.205.442l-.473.546a.476.476 0 0 1-.146.067H9.14z"/></svg>