<svg viewBox="0 0 24 24" xmlns="http://www.w3.org/2000/svg"><path d="M2.752 2.643 2 3.62l2.482 1.91.08.06H2.376v14.257h1.441v1.512h2.47v-1.512h11.97v1.512h2.469v-1.512H22V5.59H8.006l.08-.06 2.484-1.91-.752-.978-3.531 2.714-3.533-2.714zm3.9 4.736h7.327a2.38 2.38 0 0 1 2.384 2.385v5.908a2.38 2.38 0 0 1-2.384 2.385H6.652a2.378 2.378 0 0 1-2.382-2.385V9.764a2.378 2.378 0 0 1 2.382-2.385zm12.797.361a1.15 1.15 0 1 1 0 2.303 1.15 1.15 0 1 1 0-2.303zm0 3.826a1.153 1.153 0 1 1 0 2.306 1.153 1.153 0 0 1 0-2.306z"/></svg>