<?xml version="1.0" encoding="UTF-8"?>
<svg version="1.1" viewBox="0 0 24 24" xmlns="http://www.w3.org/2000/svg">
 <g transform="matrix(.040334 0 0 .040334 2 2)">
  <path d="m212.44 40.199-18.645-24.266-87.577 67.298-87.576-67.297-18.645 24.265 61.534 47.283 1.989 1.53h-54.202v353.43h35.701v37.484h61.2v-37.484h296.82v37.484h61.201v-37.484h31.619v-353.43h-346.94l1.989-1.53zm220.18 196.97c15.775 0 28.559 12.788 28.559 28.559s-12.787 28.56-28.559 28.56-28.559-12.785-28.559-28.56 12.788-28.559 28.559-28.559zm-28.558-66.301c0-15.774 12.787-28.559 28.559-28.559s28.561 12.788 28.561 28.559-12.789 28.559-28.561 28.559-28.559-12.784-28.559-28.559zm-47.942 227.23h-299.88v-264.74h299.88z"/>
 </g>
</svg>
