<?xml version="1.0" encoding="UTF-8"?>
<svg version="1.1" viewBox="0 0 24 24" xmlns="http://www.w3.org/2000/svg">
 <path d="m2.752 2.6426-0.75195 0.97852 2.4824 1.9082 0.080078 0.060547h-2.1875v14.256h1.4414v1.5117h2.4688v-1.5117h11.971v1.5117h2.4688v-1.5117h1.2754v-14.256h-13.994l0.080078-0.060547 2.4824-1.9082-0.75195-0.97852-3.5312 2.7148-3.5332-2.7148zm3.9004 4.7363h7.3262c1.321 0 2.3848 1.0638 2.3848 2.3848v5.9082c0 1.321-1.0638 2.3848-2.3848 2.3848h-7.3262c-1.321 0-2.3828-1.0638-2.3828-2.3848v-5.9082c0-1.321 1.0618-2.3848 2.3828-2.3848zm12.797 0.36133c0.63615 0 1.1523 0.51624 1.1523 1.1523s-0.5162 1.1504-1.1523 1.1504c-0.63615 0-1.1523-0.51412-1.1523-1.1504 0-0.63623 0.5162-1.1523 1.1523-1.1523zm0 3.8262c0.63627 0 1.1523 0.51624 1.1523 1.1523 0 0.63611-0.5162 1.1504-1.1523 1.1504s-1.1523-0.51412-1.1523-1.1504 0.51624-1.1523 1.1523-1.1523z" stroke-width=".040334"/>
</svg>
