<?xml version="1.0" encoding="UTF-8"?>
<svg version="1.1" viewBox="0 0 24 24" xmlns="http://www.w3.org/2000/svg">
 <style type="text/css">.st0{fill:#FFFFFF;}
	.st1{fill:#8DC742;}</style>
 <g transform="matrix(.040918 0 0 .040918 2 2)"></g>
 <path id="XMLID_1718_" d="m20.5 20.579c-0.59758-4.0201-2.1563-7.9816-5.8337-9.252 1.4292-0.8901 2.3778-2.4739 2.3778-4.2833 0-2.7831-2.2566-5.0439-5.0439-5.0439-2.7873 0-5.0439 2.2566-5.0439 5.0439 0 1.8053 0.95278 3.3932 2.3778 4.2833-3.6774 1.2704-5.2403 5.2319-5.8337 9.252-0.11283 0.74802 0.47639 1.4208 1.2328 1.4208h14.526c0.76473 0 1.3539-0.6728 1.2411-1.4208zm-11.642-13.535c0-1.7342 1.4125-3.1467 3.1467-3.1467 0.41371 0 0.75219 0.33849 0.75219 0.75219 0 0.41371-0.33849 0.75219-0.75219 0.75219-0.90681 0-1.6423 0.73548-1.6423 1.6423 0 0.41371-0.33849 0.75219-0.75219 0.75219-0.41789 0-0.75219-0.33431-0.75219-0.75219z" stroke-width=".041788"/>
</svg>
