<?xml version="1.0" encoding="UTF-8"?>
<svg version="1.1" viewBox="0 0 24 24" xmlns="http://www.w3.org/2000/svg">
 <style type="text/css">.st0{fill:#FFFFFF;}
	.st1{fill:#8DC742;}</style>
 <g transform="matrix(.040918 0 0 .040918 2 2)"></g>
 <path d="m11.988 5.0435c-0.13044 0-0.26087 0.031056-0.36025 0.099441l-5.9068 2.9328h-2.8385c-0.49068 0-0.88199 0.39143-0.88199 0.8823v6.0955c0 0.4536 0.3913 0.84503 0.88199 0.84503h2.8385l5.9068 2.9639c0.5528 0.29205 1.2422-0.1305 1.2422-0.78292v-12.16c0-0.48466-0.3913-0.87609-0.88199-0.87609zm-0.84472 11.638-4.8261-2.4109c-0.13044-0.06211-0.26087-0.09944-0.3913-0.09944h-2.1863v-4.337h2.1863c0.13044 0 0.26087-0.031056 0.3913-0.099441l4.8261-2.4109z" stroke-width=".062112"/>
 <path d="m21.119 11.131h-2.1615v-2.1615c0-0.49068-0.3913-0.88199-0.88199-0.88199-0.49068 0.031056-0.88199 0.42236-0.85093 0.88199v2.1615h-2.1677c-1.1739-0.03106-1.1739 1.7702 0 1.7391h2.1677v2.1615c-0.03106 1.1739 1.7702 1.1739 1.7391 0v-2.1615h2.1615c1.1677 0.03106 1.1677-1.7702-0.0062-1.7391z" stroke-width=".062112"/>
</svg>
