<?xml version="1.0" encoding="UTF-8"?>
<svg version="1.1" viewBox="0 0 24 24" xmlns="http://www.w3.org/2000/svg">
 <style type="text/css">.st0{fill:#FFFFFF;}
	.st1{fill:#8DC742;}</style>
 <path d="m11.988 5.0435c-0.13044 0-0.26087 0.031056-0.36025 0.099441l-5.9068 2.9328h-2.8385c-0.49068 0-0.88199 0.39143-0.88199 0.8823v6.0955c0 0.4536 0.3913 0.84503 0.88199 0.84503h2.8385l5.9068 2.9639c0.5528 0.29205 1.2422-0.1305 1.2422-0.78292v-12.16c0-0.48466-0.3913-0.87609-0.88199-0.87609zm-0.84472 11.638-4.8261-2.4109c-0.13044-0.06211-0.26087-0.09944-0.3913-0.09944h-2.1863v-4.337h2.1863c0.13044 0 0.26087-0.031056 0.3913-0.099441l4.8261-2.4109z" stroke-width=".062112"/>
 <path d="m20.845 13.53-1.5278-1.5291 1.5291-1.5278c0.34711-0.34682 0.34735-0.90021 5.27e-4 -1.2473-0.36878-0.32516-0.92218-0.3254-1.2254 0.021445l-1.5291 1.5278-1.5321-1.5334c-0.80775-0.85238-2.082 0.42077-1.2302 1.2292l1.5321 1.5334-1.5291 1.5278c-0.85238 0.80775 0.42077 2.082 1.2292 1.2302l1.5291-1.5278 1.5278 1.5291c0.80337 0.84799 2.0776-0.42515 1.2259-1.2336z" stroke-width=".062112"/>
</svg>
