<svg viewBox="0 0 24 24" xmlns="http://www.w3.org/2000/svg"><path d="M11.988 5.043c-.13 0-.26.032-.36.1L5.72 8.076H2.882A.878.878 0 0 0 2 8.958v6.096c0 .453.392.845.882.845h2.839l5.907 2.963c.553.293 1.242-.13 1.242-.782V5.92a.876.876 0 0 0-.882-.877zm-.845 11.639L6.317 14.27a.913.913 0 0 0-.391-.1H3.74V9.834h2.186c.13 0 .26-.03.391-.1l4.826-2.41zm9.702-3.152L19.317 12l1.53-1.527a.877.877 0 0 0 0-1.247c-.369-.325-.922-.326-1.226.021l-1.529 1.528-1.532-1.533c-.808-.853-2.082.42-1.23 1.229l1.532 1.533-1.529 1.528c-.852.808.42 2.082 1.23 1.23l1.528-1.528 1.528 1.53c.803.848 2.078-.426 1.226-1.234z"/></svg>