<svg viewBox="0 0 24 24" xmlns="http://www.w3.org/2000/svg"><path d="M11.988 5.043c-.13 0-.26.032-.36.1L5.72 8.076H2.882A.878.878 0 0 0 2 8.958v6.096c0 .453.392.845.882.845h2.839l5.907 2.963c.553.293 1.242-.13 1.242-.782V5.92a.876.876 0 0 0-.882-.877zm-.845 11.639L6.317 14.27a.913.913 0 0 0-.391-.1H3.74V9.834h2.186c.13 0 .26-.03.391-.1l4.826-2.41zm9.976-5.551h-2.162V8.969a.877.877 0 0 0-.881-.881c-.491.03-.882.422-.851.882v2.161h-2.168c-1.174-.031-1.174 1.77 0 1.74h2.168v2.16c-.031 1.175 1.77 1.175 1.739 0v-2.16h2.161c1.168.03 1.168-1.771-.006-1.74z"/></svg>