<?xml version="1.0" encoding="UTF-8"?>
<svg version="1.1" viewBox="0 0 24 24" xml:space="preserve" xmlns="http://www.w3.org/2000/svg"><path d="m12 22c-5.5168 0-10-4.4834-10-10s4.4834-10 10-10 10 4.4834 10 10-4.4834 10-10 10zm0-19c-4.9668 0-9.0002 4.0334-9.0002 9.0002s4.0334 9.0002 9.0002 9.0002 9.0002-4.0334 9.0002-9.0002-4.0334-9.0002-9.0002-9.0002z"/><path d="m10.733 14.05c0-0.30001-0.1-0.55001-0.28334-0.75002s-0.50001-0.38334-0.93335-0.53334c-0.43334-0.16667-0.78335-0.31667-1.0167-0.45001-0.80002-0.45001-1.2167-1.1167-1.2167-1.9834 0-0.60001 0.16667-1.0834 0.51668-1.4667s0.71668-0.60001 1.3167-0.66668v-1.2h0.93335v1.1834c0.60001 0.083335 1.0667 0.35001 1.4 0.80002 0.33334 0.43334 0.50001 1 0.50001 1.7h-1.25c0-0.45001-0.1-0.80002-0.30001-1.0667s-0.46668-0.40001-0.80002-0.40001-0.60001 0.1-0.78335 0.28334-0.28334 0.45001-0.28334 0.80002c0 0.31667 0.1 0.56668 0.28334 0.75002s0.50001 0.36667 0.95002 0.53334 0.80002 0.31667 1.05 0.46668 0.46668 0.30001 0.63335 0.50001c0.16667 0.18334 0.30001 0.40001 0.40001 0.63335s0.13334 0.51668 0.13334 0.85002c0 0.60001-0.18334 1.1-0.53334 1.4667-0.35001 0.38334-0.78335 0.60001-1.4334 0.66668v0.83335h-0.90002v-0.83335c-0.68335-0.083335-1.2167-0.33334-1.5834-0.76668s-0.55001-1-0.55001-1.7h1.2667c0 0.45001 0.11667 0.80002 0.33334 1.05s0.53334 0.36667 0.93335 0.36667 0.70001-0.1 0.90002-0.30001c0.21667-0.18334 0.31667-0.45001 0.31667-0.76668z"/><path d="m17 9.5001h0.83335v5.8334h-0.83335z"/><path d="m15.334 10.333h0.83335v4.1668h-0.83335z"/><path d="m13.667 11.167h0.83335v2.5h-0.83335z"/></svg>
