<svg viewBox="0 0 24 24" xmlns="http://www.w3.org/2000/svg"><path d="M22 12c0-5.514-4.486-10-10-10S2 6.486 2 12s4.486 10 10 10 10-4.487 10-10zm-9.23 5.539c.452.022.888.055 1.305.099-.452.696-.91 1.298-1.306 1.77zm0-1.58v-3.33h3.3c-.172 1.265-.605 2.458-1.14 3.52a25.085 25.085 0 0 0-2.16-.19zm0-4.896v-3.28a21.56 21.56 0 0 0 2.48-.194 9.256 9.256 0 0 1 .884 3.474zm0-4.856V4.113c.463.46 1.065 1.131 1.638 1.988-.556.056-1.106.095-1.639.106zm-1.54-.028a24.11 24.11 0 0 1-1.88-.165 13.164 13.164 0 0 1 1.88-2.195zm0 1.585v3.299H7.559a9.292 9.292 0 0 1 .932-3.574c.819.128 1.742.23 2.74.275zm0 4.864v3.306c-.798.017-1.63.076-2.48.193-.53-1.057-.957-2.242-1.128-3.499h3.609zm0 4.883v2.256a18.555 18.555 0 0 1-1.627-2.151 20.572 20.572 0 0 1 1.628-.105zm4.533.36c.755.133 1.39.277 1.873.402a8.448 8.448 0 0 1-3.455 1.867 18.948 18.948 0 0 0 1.582-2.268zm.767-1.46c.528-1.145.94-2.422 1.095-3.783h2.805a8.358 8.358 0 0 1-1.615 4.35 22.373 22.373 0 0 0-2.285-.568zm1.144-5.349a10.709 10.709 0 0 0-.857-3.754A18.158 18.158 0 0 0 18.65 6.8a8.371 8.371 0 0 1 1.757 4.262h-2.732zM16.087 5.86a13.935 13.935 0 0 0-1.265-1.8c.962.34 1.846.843 2.613 1.485-.45.127-.9.228-1.348.315zm-8.411-.117c-.4-.079-.762-.16-1.07-.235a8.478 8.478 0 0 1 2.13-1.287c-.355.441-.717.954-1.06 1.522zm-.752 1.454a10.738 10.738 0 0 0-.905 3.867H3.594a8.372 8.372 0 0 1 1.763-4.27c.36.108.894.254 1.567.403zm-.857 5.432c.155 1.364.57 2.644 1.099 3.79-.657.145-1.318.333-1.98.562a8.358 8.358 0 0 1-1.615-4.352h2.496zm1.854 5.23a18.937 18.937 0 0 0 1.502 2.173 8.46 8.46 0 0 1-3.087-1.783 16.81 16.81 0 0 1 1.585-.39z"/></svg>