<svg width="64" height="64" version="1.1" viewBox="0 0 16.933 16.933" xmlns="http://www.w3.org/2000/svg">
 <rect x="4.4505e-7" y="4.4505e-7" width="16.933" height="16.933" fill="#e7f9e4"/>
 <path transform="scale(.26458)" d="m25.475 8.9121c-10.067 2.8522-17.473 12.123-17.473 23.088s7.405 20.236 17.473 23.088l1.3633-4.6367c-8.0865-2.2447-13.994-9.6325-13.994-18.451 0-8.8189 5.9079-16.207 13.994-18.451l-1.3633-4.6367zm13.113 0.017578-1.2773 4.6602c8.0103 2.2934 13.846 9.6455 13.846 18.41 0 8.7649-5.8351 16.117-13.846 18.41l1.2773 4.6602c10.035-2.8728 17.41-12.128 17.41-23.07s-7.3748-20.197-17.41-23.07zm-11.084 6.8867c-7.084 1.9733-12.305 8.4816-12.305 16.184-1e-6 7.7024 5.2212 14.21 12.307 16.182l0.84961-2.8926c-5.8466-1.5932-10.129-6.9256-10.129-13.287 2e-6 -6.3615 4.2824-11.692 10.129-13.285l-0.85156-2.8984v-0.001953zm9.1816 0.052735-0.79883 2.9121c5.7237 1.6718 9.8887 6.9443 9.8887 13.219 0 6.2741-4.165 11.546-9.8887 13.219l0.79688 2.9062c6.987-2.0338 12.111-8.4915 12.111-16.125 0-7.6329-5.1235-14.095-12.109-16.131zm-4.6855 4.7168a11.414 11.414 0 0 0-11.414 11.414 11.414 11.414 0 0 0 11.414 11.414 11.414 11.414 0 0 0 11.414-11.414 11.414 11.414 0 0 0-11.414-11.414zm-5.6055 4.5664h11.211v3.0449h-1.1289v-1.916h-6.4766v4.5859h4.6777v-1.7148h1.1289v4.5488h-1.1289v-1.7148h-4.6777v5.8887h2.1934v0.97266h-5.7988v-0.97266h1.7441v-11.742h-1.7441v-0.98047z" fill="#009486" style="-inkscape-stroke:none"/>
</svg>
